<svg width="40" height="40" viewBox="0 0 40 40" fill="none" xmlns="http://www.w3.org/2000/svg">
<path d="M28 12C28 10.3431 29.3431 9 31 9C32.6569 9 34 10.3431 34 12V31C34 32.6569 32.6569 34 31 34C29.3431 34 28 32.6569 28 31V12Z" fill="#454545" fill-opacity="0.4"/>
<path d="M28 12C28 10.3431 29.3431 9 31 9C32.6569 9 34 10.3431 34 12V31C34 32.6569 32.6569 34 31 34C29.3431 34 28 32.6569 28 31V12Z" fill="url(#paint0_linear_8898_34855)" fill-opacity="0.2"/>
<path d="M17 19C17 17.3431 18.3431 16 20 16C21.6569 16 23 17.3431 23 19V31C23 32.6569 21.6569 34 20 34C18.3431 34 17 32.6569 17 31V19Z" fill="#454545" fill-opacity="0.4"/>
<path d="M17 19C17 17.3431 18.3431 16 20 16C21.6569 16 23 17.3431 23 19V31C23 32.6569 21.6569 34 20 34C18.3431 34 17 32.6569 17 31V19Z" fill="url(#paint1_linear_8898_34855)" fill-opacity="0.2"/>
<path d="M6 25C6 23.3431 7.34315 22 9 22C10.6569 22 12 23.3431 12 25V31C12 32.6569 10.6569 34 9 34C7.34315 34 6 32.6569 6 31V25Z" fill="#454545" fill-opacity="0.4"/>
<path d="M6 25C6 23.3431 7.34315 22 9 22C10.6569 22 12 23.3431 12 25V31C12 32.6569 10.6569 34 9 34C7.34315 34 6 32.6569 6 31V25Z" fill="url(#paint2_linear_8898_34855)" fill-opacity="0.2"/>
<defs>
<linearGradient id="paint0_linear_8898_34855" x1="31" y1="-3.60807" x2="31" y2="44.8682" gradientUnits="userSpaceOnUse">
<stop stop-color="white" stop-opacity="0"/>
<stop offset="1" stop-color="white"/>
</linearGradient>
<linearGradient id="paint1_linear_8898_34855" x1="20" y1="6.92219" x2="20" y2="41.8251" gradientUnits="userSpaceOnUse">
<stop stop-color="white" stop-opacity="0"/>
<stop offset="1" stop-color="white"/>
</linearGradient>
<linearGradient id="paint2_linear_8898_34855" x1="9" y1="15.9481" x2="9" y2="39.2167" gradientUnits="userSpaceOnUse">
<stop stop-color="white" stop-opacity="0"/>
<stop offset="1" stop-color="white"/>
</linearGradient>
</defs>
</svg>
