<svg width="72" height="72" viewBox="0 0 72 72" fill="none" xmlns="http://www.w3.org/2000/svg">
<path d="M35.9878 28.0059C36.1308 28.1328 36.2045 28.8048 36.2465 29.0355C36.489 30.3678 36.5924 31.7421 36.9527 33.0485C37.1171 33.645 37.5014 34.1627 37.9998 34.5013C38.824 35.1346 39.782 35.126 40.7125 35.3368C41.7693 35.5763 42.8366 35.6241 43.878 35.8204C42.8585 35.9143 41.7673 36.0899 40.7596 36.2732C40.176 36.3793 39.6277 36.4243 39.0557 36.6109C38.6851 36.7296 38.3339 36.9069 38.0151 37.1361C36.6891 38.076 36.7863 39.6009 36.491 41.0878C36.3871 41.6108 36.3229 42.1513 36.2334 42.6776C36.1768 43.0103 36.1778 43.3665 36.116 43.6962L36.1106 43.7247C35.9884 43.5741 35.9381 42.6806 35.9 42.4375C35.8158 41.8984 35.7348 41.3491 35.6369 40.8104C35.4512 39.8562 35.4291 38.6253 34.8496 37.8214C34.0091 36.6554 32.6573 36.4726 31.376 36.2644C30.3 36.0896 29.2284 35.9653 28.1589 35.7995C28.5816 35.7323 29.0428 35.7299 29.4714 35.6679C30.0937 35.58 30.7226 35.4601 31.3409 35.3511C32.5544 35.1322 33.7541 35.0925 34.6237 34.0518C35.3745 33.2323 35.3419 32.2197 35.559 31.2108C35.7972 30.1045 35.8495 29.1136 35.9878 28.0059Z" fill="#989898"/>
<path fill-rule="evenodd" clip-rule="evenodd" d="M35.9998 18.1596C42.7132 15.1312 49.2667 15.1891 53.039 18.9612C56.8112 22.7333 56.8678 29.2859 53.8395 35.9991C56.8686 42.7129 56.8115 49.2668 53.039 53.0392L52.7638 53.3023C48.9535 56.8111 42.5535 56.7952 36.0009 53.8396C29.2871 56.8685 22.733 56.8115 18.9606 53.0392L18.6975 52.7629C15.1887 48.9527 15.2035 42.5526 18.1591 36.0002C15.1308 29.287 15.1896 22.7333 18.9617 18.9612C22.7339 15.1894 29.2868 15.1315 35.9998 18.1596ZM19.5045 38.6361C19.1888 39.4941 18.9313 40.3404 18.7336 41.1678C17.646 45.7219 18.4171 49.318 20.5494 51.4504C22.6819 53.5829 26.2788 54.3551 30.8332 53.2673C31.6604 53.0697 32.5061 52.811 33.3639 52.4953C30.667 50.958 27.9994 48.9357 25.5318 46.4681C23.0642 44.0005 21.0418 41.333 19.5045 38.6361ZM52.4952 38.635C50.9578 41.332 48.9366 44.0004 46.469 46.4681C44.0013 48.9357 41.3328 50.9568 38.6357 52.4943C39.4942 52.8101 40.3408 53.0685 41.1686 53.2662C45.7225 54.3537 49.3189 53.5836 51.4513 51.4515C53.5838 49.3191 54.3548 45.722 53.2671 41.1678C53.0694 40.3401 52.8111 39.4933 52.4952 38.635ZM35.9998 20.6431C32.9921 22.1337 29.9331 24.3053 27.1195 27.1188C24.306 29.9323 22.1345 32.9914 20.6437 35.9991C22.1343 39.007 24.3056 42.0665 27.1195 44.8804C29.933 47.6939 32.9921 49.8653 35.9998 51.3561C39.0076 49.8651 42.0674 47.6942 44.8813 44.8804C47.6952 42.0665 49.8662 39.0069 51.357 35.9991C49.866 32.9916 47.6937 29.9334 44.8802 27.1199C42.0663 24.3062 39.0076 22.134 35.9998 20.6431ZM51.4513 20.5488C49.3188 18.4165 45.7218 17.6464 41.1675 18.7342C40.3402 18.9318 39.4937 19.1883 38.6357 19.5039C41.3329 21.0413 44.0012 23.0634 46.469 25.5312C48.9366 27.9988 50.9578 30.6673 52.4952 33.3643C52.8109 32.5063 53.0695 31.66 53.2671 30.8326C54.3548 26.2784 53.5838 22.6812 51.4513 20.5488ZM30.8332 18.7331C26.2789 17.6453 22.6819 18.4175 20.5494 20.5499C18.4172 22.6824 17.647 26.2784 18.7347 30.8326C18.9322 31.6593 19.1891 32.5048 19.5045 33.3621C21.0417 30.6655 23.0645 27.9985 25.5318 25.5312C27.9994 23.0636 30.667 21.0412 33.3639 19.5039C32.5062 19.1884 31.6603 18.9307 30.8332 18.7331Z" fill="#989898"/>
</svg>
