<svg width="24" height="24" viewBox="0 0 24 24" fill="none" xmlns="http://www.w3.org/2000/svg">
<path fill-rule="evenodd" clip-rule="evenodd" d="M12 0.589844C18.3017 0.589844 23.4102 5.69834 23.4102 12C23.4102 18.3017 18.3017 23.4102 12 23.4102C5.69834 23.4102 0.589844 18.3017 0.589844 12C0.589844 5.69834 5.69834 0.589844 12 0.589844ZM18.0566 10.834C17.6156 10.8566 17.2765 11.2328 17.2988 11.6738C17.3749 13.1681 16.842 14.6852 15.7021 15.8252C13.794 17.7329 10.8286 17.9367 8.69336 16.4385L9.29492 16.3809C9.73442 16.3387 10.0574 15.9483 10.0156 15.5088C9.97348 15.0691 9.58135 14.7461 9.1416 14.7881L6.63086 15.0283C6.19122 15.0705 5.86825 15.4617 5.91016 15.9014L6.15039 18.4131C6.19247 18.8529 6.58364 19.1749 7.02344 19.1328C7.46272 19.0905 7.78483 18.7011 7.74316 18.2617L7.68848 17.6875C10.4538 19.6912 14.342 19.4485 16.834 16.957C18.3072 15.4837 18.9946 13.52 18.8965 11.5928C18.874 11.1516 18.4978 10.8115 18.0566 10.834ZM16.7695 4.91406C16.3301 4.95634 16.0081 5.34668 16.0498 5.78613L16.1035 6.36133C13.3381 4.3572 9.45107 4.59914 6.95898 7.09082C5.48557 8.56425 4.7973 10.5277 4.89551 12.4551C4.91802 12.8962 5.29426 13.2352 5.73535 13.2129C6.17642 13.1903 6.51643 12.8151 6.49414 12.374C6.41799 10.8796 6.95073 9.36177 8.09082 8.22168C9.9992 6.31416 12.9645 6.11169 15.0996 7.61035L14.4971 7.66699C14.0576 7.70921 13.7355 8.0995 13.7773 8.53906C13.8196 8.97869 14.2107 9.30176 14.6504 9.25977L17.1611 9.01855C17.6009 8.97652 17.9237 8.5862 17.8818 8.14648L17.6426 5.63477C17.6005 5.19508 17.2092 4.87226 16.7695 4.91406Z" fill="#0099FF"/>
</svg>
