<svg width="20" height="20" viewBox="0 0 20 20" fill="none" xmlns="http://www.w3.org/2000/svg">
<path d="M15.417 3C17.1178 3 18 3.89199 18 5.61133V15.3887C18 17.1 17.1178 18 15.417 18H4.58301C2.88222 18 2 17.108 2 15.3887V5.61133C2 3.89199 2.88222 3 4.58301 3H15.417ZM4.55859 6.89648C3.90534 6.89665 3.54297 7.24237 3.54297 7.94922V15.373C3.54306 16.0717 3.90542 16.4246 4.55859 16.4248H15.4248C16.0861 16.4248 16.4569 16.0719 16.457 15.373V7.94922C16.457 7.2422 16.0862 6.89648 15.4248 6.89648H4.55859ZM6.37012 13.6377C6.65344 13.6377 6.74797 13.7257 6.74805 14.0146V14.4814C6.74795 14.7703 6.6534 14.8584 6.37012 14.8584H5.90527C5.63001 14.8583 5.53526 14.7702 5.53516 14.4814V14.0146C5.53523 13.7258 5.62998 13.6377 5.90527 13.6377H6.37012ZM8.94531 13.6377C9.22833 13.6378 9.32317 13.7258 9.32324 14.0146V14.4814C9.32314 14.7702 9.22829 14.8583 8.94531 14.8584H8.48047C8.20502 14.8584 8.11045 14.7703 8.11035 14.4814V14.0146C8.11043 13.7257 8.20499 13.6377 8.48047 13.6377H8.94531ZM11.5195 13.6377C11.8029 13.6377 11.8974 13.7257 11.8975 14.0146V14.4814C11.8974 14.7703 11.8028 14.8584 11.5195 14.8584H11.0635C10.7802 14.8584 10.6847 14.7703 10.6846 14.4814V14.0146C10.6846 13.7257 10.7801 13.6377 11.0635 13.6377H11.5195ZM6.37012 11.0508C6.65348 11.0508 6.748 11.1387 6.74805 11.4277V11.8936C6.74805 12.1828 6.65355 12.2715 6.37012 12.2715H5.90527C5.62987 12.2714 5.53516 12.1827 5.53516 11.8936V11.4277C5.53521 11.1388 5.62994 11.0508 5.90527 11.0508H6.37012ZM8.94531 11.0508C9.22837 11.0509 9.32319 11.1388 9.32324 11.4277V11.8936C9.32324 12.1826 9.22844 12.2714 8.94531 12.2715H8.48047C8.20488 12.2715 8.11035 12.1828 8.11035 11.8936V11.4277C8.1104 11.1387 8.20495 11.0508 8.48047 11.0508H8.94531ZM11.5195 11.0508C11.8029 11.0508 11.8974 11.1387 11.8975 11.4277V11.8936C11.8975 12.1828 11.803 12.2715 11.5195 12.2715H11.0635C10.78 12.2715 10.6846 12.1828 10.6846 11.8936V11.4277C10.6846 11.1387 10.7801 11.0508 11.0635 11.0508H11.5195ZM14.0947 11.0508C14.3779 11.0508 14.4726 11.1388 14.4727 11.4277V11.8936C14.4727 12.1827 14.378 12.2714 14.0947 12.2715H13.6377C13.3543 12.2715 13.2598 12.1828 13.2598 11.8936V11.4277C13.2598 11.1387 13.3544 11.0508 13.6377 11.0508H14.0947ZM8.94531 8.46289C9.22841 8.46298 9.32322 8.55181 9.32324 8.84082V9.30664C9.32324 9.59573 9.22844 9.68448 8.94531 9.68457H8.48047C8.20488 9.68457 8.11035 9.59587 8.11035 9.30664V8.84082C8.11037 8.55167 8.20491 8.46289 8.48047 8.46289H8.94531ZM11.5195 8.46289C11.803 8.46289 11.8974 8.55167 11.8975 8.84082V9.30664C11.8975 9.59587 11.803 9.68457 11.5195 9.68457H11.0635C10.78 9.68457 10.6846 9.59587 10.6846 9.30664V8.84082C10.6846 8.55167 10.78 8.46289 11.0635 8.46289H11.5195ZM14.0947 8.46289C14.378 8.46294 14.4726 8.55175 14.4727 8.84082V9.30664C14.4727 9.59579 14.378 9.68452 14.0947 9.68457H13.6377C13.3543 9.68455 13.2598 9.59584 13.2598 9.30664V8.84082C13.2598 8.5517 13.3543 8.46291 13.6377 8.46289H14.0947Z" fill="white"/>
</svg>
