<svg width="20" height="20" viewBox="0 0 20 20" fill="none" xmlns="http://www.w3.org/2000/svg">
<path d="M16.1943 12.9123C16.5725 12.7435 17.0157 12.9131 17.1846 13.2912C17.3533 13.6694 17.1838 14.1126 16.8057 14.2814C15.5351 14.8483 14.5432 15.2912 13.5517 15.7335C12.5605 16.1758 11.5691 16.618 10.2988 17.1847C10.1041 17.2716 9.8811 17.2717 9.6865 17.1847C8.41897 16.6179 7.42953 16.1759 6.4404 15.7335C5.45115 15.2912 4.46106 14.8483 3.19333 14.2814C2.81561 14.1121 2.6464 13.6681 2.8154 13.2902C2.98463 12.9125 3.42868 12.7434 3.80661 12.9123C5.07413 13.479 6.06358 13.9211 7.05271 14.3634C7.96103 14.7696 8.86928 15.1763 9.99315 15.6789C11.1197 15.1762 12.03 14.7696 12.9404 14.3634C13.9319 13.9211 14.9238 13.4791 16.1943 12.9123ZM16.1943 9.31556C16.5725 9.14684 17.0157 9.31644 17.1846 9.69447C17.3533 10.0727 17.1838 10.5159 16.8057 10.6847C15.5351 11.2516 14.5432 11.6945 13.5517 12.1369C12.5605 12.5791 11.5691 13.0213 10.2988 13.588C10.1041 13.6749 9.8811 13.6751 9.6865 13.588L3.19333 10.6847C2.81561 10.5154 2.6464 10.0714 2.8154 9.69349C2.98463 9.31577 3.42868 9.14666 3.80661 9.31556L9.99315 12.0822C11.1197 11.5795 12.03 11.1729 12.9404 10.7667C13.9319 10.3244 14.9238 9.88243 16.1943 9.31556ZM9.7783 2.78625C9.95378 2.72944 10.1453 2.73955 10.3154 2.81555L16.8066 5.7218C17.0764 5.84263 17.2499 6.11083 17.25 6.40638C17.2498 6.70215 17.0757 6.97034 16.8057 7.09095C15.5347 7.65855 14.5426 8.10214 13.5508 8.54505C12.5592 8.98787 11.5675 9.43073 10.2969 9.99818C10.102 10.0852 9.87834 10.0854 9.68357 9.99818L3.19333 7.09095C2.92363 6.97008 2.74998 6.7019 2.74997 6.40638C2.7502 6.11069 2.92431 5.84238 3.1943 5.7218L9.70408 2.81555L9.7783 2.78625ZM5.33689 6.40638L9.98924 8.49134C11.1168 7.98781 12.0283 7.58181 12.9394 7.17493C13.4971 6.92588 14.0548 6.67662 14.6621 6.4054L10.0088 4.32141L5.33689 6.40638Z" fill="#0F0F0F"/>
</svg>
