<svg width="28" height="28" viewBox="0 0 28 28" fill="none" xmlns="http://www.w3.org/2000/svg">
<path d="M23.4902 18.3917C24.1206 18.1105 24.8603 18.3942 25.1416 19.0245C25.4226 19.6548 25.1398 20.3935 24.5098 20.6749L14.4981 25.1417C14.1736 25.2864 13.8028 25.2858 13.4785 25.1407C11.5284 24.2687 10.0062 23.5888 8.48438 22.9083C6.9624 22.2278 5.43969 21.5471 3.48926 20.6749C2.8593 20.393 2.5777 19.6536 2.85938 19.0236C3.14121 18.3934 3.88057 18.1109 4.51074 18.3927C6.46092 19.2647 7.98304 19.9456 9.50489 20.6261C10.8914 21.2461 12.2779 21.8661 13.9883 22.631C15.704 21.8655 17.0949 21.2455 18.4854 20.6251C20.0106 19.9446 21.5357 19.2638 23.4902 18.3917ZM23.4902 12.8585C24.1205 12.5773 24.8602 12.8602 25.1416 13.4903C25.4228 14.1207 25.1399 14.8603 24.5098 15.1417L14.4981 19.6085C14.1736 19.7532 13.8028 19.7526 13.4785 19.6075L3.48926 15.1407C2.85948 14.8587 2.57766 14.1194 2.85938 13.4894C3.14141 12.8596 3.88076 12.5778 4.51074 12.8595L13.9893 17.0968C15.7044 16.3315 17.0952 15.7122 18.4854 15.0919C20.0106 14.4114 21.5357 13.7306 23.4902 12.8585ZM13.6289 2.81066C13.9218 2.71572 14.2415 2.7324 14.5254 2.85948L24.5107 7.33019C24.9606 7.53162 25.2502 7.9789 25.25 8.47179C25.2498 8.96469 24.9598 9.41137 24.5098 9.61242C22.5545 10.4856 21.0287 11.1674 19.5029 11.8487C17.9771 12.5302 16.4505 13.2118 14.4951 14.0851C14.1704 14.23 13.7992 14.2295 13.4746 14.0841L3.48926 9.61242C3.03949 9.41096 2.74984 8.96363 2.75 8.47082C2.75034 7.97801 3.0403 7.5312 3.49023 7.33019L13.5049 2.85851L13.6289 2.81066ZM7.06152 8.47277L13.9854 11.5734C15.7012 10.8071 17.0927 10.1866 18.4834 9.56554C19.281 9.20933 20.0785 8.85248 20.9375 8.46886L14.0137 5.36925L7.06152 8.47277Z" fill="#0F0F0F"/>
</svg>
