<svg width="24" height="24" viewBox="0 0 24 24" fill="none" xmlns="http://www.w3.org/2000/svg">
<path d="M19.5924 15.5138C20.0967 15.2889 20.6876 15.5155 20.9127 16.0196C21.1376 16.524 20.9112 17.115 20.4069 17.34C18.8433 18.0376 17.6231 18.5827 16.4029 19.1271C15.1827 19.6715 13.9618 20.2156 12.398 20.9132C12.1386 21.0289 11.8419 21.0292 11.5826 20.9132C10.0224 20.2156 8.80401 19.6705 7.5865 19.1261C6.3692 18.5818 5.15134 18.0375 3.59136 17.34C3.08751 17.1144 2.86125 16.5227 3.08648 16.0187C3.31187 15.5146 3.90368 15.2886 4.40777 15.5138C5.96789 16.2114 7.18551 16.7565 8.40291 17.3009C9.51218 17.7969 10.6224 18.2925 11.9908 18.9044C13.3629 18.2922 14.4754 17.7961 15.5875 17.2999C16.8078 16.7555 18.0287 16.2115 19.5924 15.5138ZM19.5924 11.087C20.0967 10.8621 20.6877 11.0887 20.9127 11.5929C21.1377 12.0972 20.9112 12.6882 20.4069 12.9132C18.8433 13.6108 17.6231 14.1559 16.4029 14.7003C15.1827 15.2447 13.9618 15.7888 12.398 16.4864C12.1386 16.6021 11.842 16.6024 11.5826 16.4864L3.59136 12.9132C3.08748 12.6876 2.86119 12.0959 3.08648 11.5919C3.31186 11.0878 3.90369 10.8619 4.40777 11.087L11.9908 14.4776C13.3629 13.8654 14.4754 13.3693 15.5875 12.8731C16.8078 12.3287 18.0287 11.7847 19.5924 11.087ZM11.6031 3.08693C11.8627 2.97105 12.16 2.971 12.4195 3.08693L20.4079 6.6641C20.7677 6.82522 20.9997 7.18296 20.9997 7.5772C20.9995 7.97147 20.7678 8.32942 20.4079 8.49029C18.8437 9.18881 17.6226 9.73427 16.402 10.2794C15.1814 10.8244 13.9602 11.369 12.3961 12.0675C12.1364 12.1833 11.8392 12.1836 11.5797 12.0675L3.59039 8.48931C3.23094 8.32794 2.99933 7.97029 2.99956 7.57622C2.99988 7.18205 3.23247 6.82491 3.59234 6.6641L11.6031 3.08693ZM6.4488 7.57817L11.9879 10.0587C13.3605 9.44569 14.4741 8.94998 15.5865 8.45318C16.2248 8.16815 16.863 7.88222 17.5504 7.57524L12.0094 5.09476L6.4488 7.57817Z" fill="#0F0F0F"/>
</svg>
