<svg width="36" height="36" viewBox="0 0 36 36" fill="none" xmlns="http://www.w3.org/2000/svg">
<g opacity="0.9" clip-path="url(#clip0_5365_37573)">
<circle opacity="0.1" cx="18" cy="18" r="18" fill="#0099FF"/>
<path fill-rule="evenodd" clip-rule="evenodd" d="M17.9912 9.66809C22.55 9.66809 26.3335 13.4426 26.3335 18.0014C26.3335 22.5519 22.5588 26.3345 18.0002 26.3348C13.4495 26.3348 9.66602 22.5521 9.66602 18.0014C9.66602 13.4427 13.4407 9.6683 17.9912 9.66809ZM22.6576 13.3237C22.4425 13.1087 22.0998 13.0912 21.8633 13.2822L17.415 16.8743C16.8589 17.3235 16.8143 18.1559 17.3198 18.6614C17.8253 19.1669 18.6578 19.1223 19.1069 18.5662L22.6991 14.118C22.8901 13.8814 22.8726 13.5387 22.6576 13.3237ZM12.3516 17.0509C11.8266 17.051 11.4011 17.4765 11.401 18.0014C11.401 18.5264 11.8266 18.9519 12.3516 18.9519C12.8766 18.9519 13.3021 18.5265 13.3021 18.0014C13.302 17.4764 12.8766 17.0509 12.3516 17.0509ZM23.6479 17.0509C23.1229 17.0509 22.6975 17.4764 22.6974 18.0014C22.6974 18.5265 23.1229 18.9519 23.6479 18.9519C24.1729 18.9519 24.5985 18.5264 24.5985 18.0014C24.5984 17.4765 24.1729 17.051 23.6479 17.0509ZM14.6782 13.3343C14.307 12.963 13.7051 12.963 13.3338 13.3343C12.9626 13.7055 12.9626 14.3074 13.3338 14.6787C13.7051 15.0498 14.307 15.0499 14.6782 14.6787C15.0494 14.3074 15.0494 13.7055 14.6782 13.3343ZM18.0002 11.4031C17.5407 11.4031 17.1569 11.7291 17.0684 12.1624C17.0555 12.2246 17.0488 12.2892 17.0488 12.3553C17.0489 12.8803 17.4751 13.3058 18.0002 13.3058C18.525 13.3056 18.9506 12.8801 18.9507 12.3553C18.9507 12.2892 18.944 12.2246 18.9312 12.1624C18.8426 11.7292 18.4595 11.4033 18.0002 11.4031Z" fill="#0099FF"/>
</g>
<defs>
<clipPath id="clip0_5365_37573">
<rect width="36" height="36" fill="white"/>
</clipPath>
</defs>
</svg>
