<svg width="20" height="20" viewBox="0 0 20 20" fill="none" xmlns="http://www.w3.org/2000/svg">
<path d="M4 10.6069C4 7.28108 6.66069 4.62038 9.97984 4.62038C10.3292 4.62038 10.6719 4.65398 10.9675 4.71445L9.34155 3.10862C9.22732 2.98768 9.16685 2.83315 9.16685 2.65845C9.16685 2.29563 9.44233 2 9.80515 2C9.99328 2 10.1478 2.06719 10.262 2.19485L13.0235 4.99664C13.1579 5.13102 13.2318 5.30571 13.2318 5.4804C13.2318 5.66181 13.1646 5.82307 13.0235 5.96417L10.262 8.7458C10.1478 8.86674 9.99328 8.92721 9.80515 8.92721C9.44233 8.92721 9.16685 8.64502 9.16685 8.27548C9.16685 8.10078 9.22732 7.95969 9.34826 7.83203L11.1758 6.01792C10.8331 5.94401 10.4233 5.91041 9.97984 5.91041C7.38634 5.91041 5.31691 7.98656 5.31691 10.6069C5.31691 13.2139 7.39978 15.3035 10 15.3035C12.6002 15.3035 14.6898 13.2139 14.6898 10.6069C14.6898 10.2105 14.9451 9.92833 15.3281 9.92833C15.7245 9.92833 16 10.2105 16 10.6069C16 13.9395 13.3259 16.6204 10 16.6204C6.67413 16.6204 4 13.9395 4 10.6069Z" fill="#919191"/>
</svg>
