<svg width="16" height="16" viewBox="0 0 16 16" fill="none" xmlns="http://www.w3.org/2000/svg">
<path d="M12.793 7.56348H9.54688C8.82617 7.56348 8.4043 7.1416 8.4043 6.4209V3.24512C8.4043 2.84082 8.71484 2.54199 9.125 2.54199C9.5293 2.54199 9.83398 2.83496 9.83398 3.24512V3.6084L9.70508 5.2959L10.9473 3.98926L12.5469 2.37793C12.6816 2.2373 12.8574 2.17285 13.0508 2.17285C13.4902 2.17285 13.8008 2.47168 13.8008 2.91113C13.8008 3.11035 13.7246 3.28613 13.584 3.4209L11.9785 5.02637L10.6719 6.2627L12.3711 6.13379H12.793C13.2031 6.13379 13.502 6.43262 13.502 6.84863C13.502 7.25879 13.2031 7.56348 12.793 7.56348ZM6.9043 13.4756C6.49414 13.4756 6.18945 13.1826 6.18945 12.7725V12.3623L6.31836 10.6748L5.08203 11.9814L3.45312 13.6221C3.31836 13.7568 3.14258 13.8271 2.94922 13.8271C2.50977 13.8271 2.19922 13.5225 2.19922 13.083C2.19922 12.8896 2.27539 12.7139 2.41602 12.5791L4.05078 10.9443L5.35742 9.70801L3.65234 9.83691H3.18945C2.7793 9.83691 2.48047 9.53809 2.48047 9.12207C2.48047 8.71191 2.7793 8.40723 3.18945 8.40723H6.47656C7.20312 8.40723 7.61914 8.8291 7.61914 9.5498V12.7725C7.61914 13.1768 7.31445 13.4756 6.9043 13.4756Z" fill="#C9C9C9"/>
</svg>
