<svg width="18" height="24" viewBox="0 0 18 24" fill="none" xmlns="http://www.w3.org/2000/svg">
<path d="M9.00266 15.927C9.22072 15.927 9.40156 15.8472 9.57175 15.6771L13.5767 11.5817C13.715 11.4434 13.7788 11.2785 13.7788 11.0817C13.7788 10.6828 13.465 10.3584 13.0661 10.3584C12.8693 10.3584 12.6885 10.4435 12.5449 10.5871L9.00798 14.2251L5.46044 10.5871C5.31683 10.4435 5.14132 10.3584 4.93921 10.3584C4.54031 10.3584 4.22119 10.6828 4.22119 11.0817C4.22119 11.2785 4.29033 11.4434 4.42862 11.5817L8.43356 15.6771C8.60376 15.8526 8.78459 15.927 9.00266 15.927Z" fill="#1E1E1E"/>
</svg>
