<svg width="25" height="24" viewBox="0 0 25 24" fill="none" xmlns="http://www.w3.org/2000/svg">
<path d="M19.5823 16.9708C19.5824 17.8731 19.5824 18.6318 19.4979 19.2355C19.408 19.8775 19.2093 20.4588 18.7259 20.9231C18.4087 21.2278 17.9834 21.4421 17.5488 21.6003C17.1035 21.7624 16.589 21.8864 16.0424 21.98C14.9487 22.1673 13.659 22.2439 12.394 22.2281C11.1284 22.2122 9.8588 22.1036 8.80348 21.909C8.27647 21.8118 7.78663 21.6903 7.3704 21.5409C6.97122 21.3977 6.56595 21.2034 6.27408 20.9231C5.79069 20.4588 5.59195 19.8775 5.50208 19.2355C5.41758 18.6318 5.41761 17.8731 5.41765 16.9707L5.41765 12.8621C5.41765 12.7304 5.41765 12.6646 5.39268 12.6057C5.36771 12.5468 5.3204 12.5011 5.2258 12.4096L2.52064 9.79289C2.1853 9.46839 1.87892 9.17193 1.66328 8.89837C1.42688 8.5985 1.2207 8.23105 1.2207 7.76238C1.2207 7.29372 1.42688 6.92627 1.66328 6.6264C1.87893 6.35284 2.1853 6.05637 2.52065 5.73187L4.7062 3.61652C5.01969 3.31278 5.26377 3.0763 5.56021 2.89897C5.85562 2.72227 6.18117 2.61742 6.60195 2.4819L8.42183 1.89478C8.52581 1.86113 8.66296 1.81675 8.78575 1.79307C8.92022 1.76713 9.20473 1.72923 9.49449 1.89452C9.80642 2.07246 9.91183 2.36792 9.9502 2.48902C9.98894 2.61128 10.0445 2.90169 10.0445 2.90169C10.2549 3.99642 11.2593 4.85664 12.5 4.85664C13.7407 4.85664 14.7451 3.99642 14.9555 2.90169C14.9555 2.90169 15.0111 2.61128 15.0498 2.48902C15.0882 2.36792 15.1936 2.07246 15.5055 1.89452C15.7953 1.72923 16.0798 1.76713 16.2142 1.79307C16.337 1.81675 16.4742 1.86113 16.5782 1.89478L18.398 2.4819C18.8188 2.61742 19.1444 2.72227 19.4398 2.89897C19.7362 3.0763 19.9803 3.31279 20.2938 3.61655L22.4793 5.73185C22.8147 6.05636 23.1211 6.35283 23.3367 6.6264C23.5731 6.92627 23.7793 7.29372 23.7793 7.76238C23.7793 8.23105 23.5731 8.5985 23.3367 8.89837C23.1211 9.17194 22.8147 9.46841 22.4793 9.79292L19.7742 12.4096C19.6796 12.5011 19.6323 12.5468 19.6073 12.6057C19.5823 12.6646 19.5823 12.7304 19.5823 12.8621V16.9708Z" fill="#919191"/>
</svg>
