<svg width="24" height="24" viewBox="0 0 24 24" fill="none" xmlns="http://www.w3.org/2000/svg">
<path d="M2.48828 16.0176V12C2.48831 11.5029 2.89163 11.0996 3.38867 11.0996C3.88571 11.0996 4.28904 11.5029 4.28906 12V16.0176C4.28906 16.8359 4.2898 17.3957 4.3252 17.8291C4.35973 18.2517 4.42203 18.4749 4.50293 18.6338C4.69178 19.0044 4.99362 19.3063 5.36426 19.4951C5.52317 19.576 5.74622 19.6393 6.16895 19.6738C6.60231 19.7092 7.16213 19.709 7.98047 19.709H16.0156C16.8339 19.709 17.3938 19.7092 17.8271 19.6738C18.2498 19.6393 18.4729 19.576 18.6318 19.4951C19.0025 19.3063 19.3043 19.0044 19.4932 18.6338C19.5741 18.4749 19.6373 18.2518 19.6719 17.8291C19.7073 17.3957 19.707 16.8358 19.707 16.0176V12C19.7071 11.503 20.1104 11.0996 20.6074 11.0996C21.1045 11.0996 21.5078 11.5029 21.5078 12V16.0176C21.5078 16.8061 21.5086 17.4519 21.4658 17.9756C21.4222 18.5098 21.3285 18.9962 21.0967 19.4512C20.7353 20.1605 20.1585 20.7372 19.4492 21.0986C18.9943 21.3304 18.5078 21.4241 17.9736 21.4678C17.45 21.5105 16.8042 21.5098 16.0156 21.5098H7.98047C7.19185 21.5098 6.5461 21.5105 6.02246 21.4678C5.48826 21.4241 5.00184 21.3304 4.54688 21.0986C3.83758 20.7372 3.26082 20.1605 2.89941 19.4512C2.6676 18.9962 2.57392 18.5098 2.53027 17.9756C2.48752 17.4519 2.48828 16.8061 2.48828 16.0176ZM11.0977 14.8701V5.56346L8.80762 7.8535C8.45612 8.2047 7.88654 8.20488 7.53516 7.8535C7.1838 7.50212 7.18397 6.93253 7.53516 6.58104L11.3613 2.75389L11.4297 2.69237C11.7832 2.4039 12.3052 2.42435 12.6348 2.75389L16.4609 6.58104C16.8122 6.93253 16.8123 7.50211 16.4609 7.8535C16.1095 8.20487 15.54 8.20473 15.1885 7.8535L12.8984 5.56346V14.8701C12.8983 15.367 12.495 15.7695 11.998 15.7695C11.5011 15.7695 11.0978 15.367 11.0977 14.8701Z" fill="#1E1E1E"/>
</svg>
