<svg width="24" height="24" viewBox="0 0 24 24" fill="none" xmlns="http://www.w3.org/2000/svg">
<path d="M4.99685 4.29312C7.65442 2.66296 10.0385 3.31265 11.4788 4.39426C11.7157 4.5722 11.8784 4.69398 11.9994 4.77622C12.1205 4.69398 12.2831 4.5722 12.52 4.39426C13.9603 3.31265 16.3444 2.66296 19.002 4.29312C20.8396 5.42031 21.8736 7.77487 21.5108 10.4802C21.1462 13.1985 19.3867 16.273 15.6605 19.031C14.3666 19.9893 13.417 20.6926 11.9994 20.6926C10.5819 20.6926 9.6322 19.9893 8.33827 19.031C4.61211 16.273 2.85264 13.1985 2.48806 10.4802C2.12523 7.77487 3.15923 5.42031 4.99685 4.29312Z" fill="black" fill-opacity="0.8"/>
</svg>
