<svg width="24" height="24" viewBox="0 0 24 24" fill="none" xmlns="http://www.w3.org/2000/svg">
<path d="M13.2929 4.29263C13.6833 3.9029 14.3166 3.90283 14.7069 4.29263L21.706 11.2916C21.8932 11.4789 21.9987 11.7339 21.9989 11.9987C21.9989 12.2636 21.8931 12.5183 21.706 12.7057L14.7069 19.7047C14.3165 20.0951 13.6834 20.0951 13.2929 19.7047C12.9029 19.3142 12.9027 18.681 13.2929 18.2907L18.5849 12.9987H2.99991C2.44775 12.9986 1.99994 12.5509 1.99991 11.9987C2.00043 11.4469 2.44805 10.9988 2.99991 10.9987H18.5849L13.2929 5.70669C12.9029 5.31616 12.9027 4.68299 13.2929 4.29263Z" fill="#0F0F0F"/>
</svg>
