<svg width="21" height="20" viewBox="0 0 21 20" fill="none" xmlns="http://www.w3.org/2000/svg">
<path d="M13.9033 2.16669C16.9567 2.16675 19.2704 4.54489 19.2705 7.84637C19.2705 10.5236 17.767 12.8412 16.1035 14.5993C14.4278 16.3703 12.4926 17.677 11.4258 18.3425L11.4102 18.3532L11.3936 18.362C11.2735 18.4287 11.0754 18.5436 10.8857 18.6325C10.7095 18.7152 10.4261 18.8336 10.1182 18.8337C9.81928 18.8337 9.52873 18.7216 9.34473 18.6413C9.13782 18.551 8.93741 18.4406 8.7959 18.362L8.7793 18.3532L8.7627 18.3425C7.69588 17.6769 5.76146 16.37 4.08594 14.5993C2.42236 12.8411 0.917969 10.5237 0.917969 7.84637C0.918092 4.54502 3.23192 2.16693 6.28516 2.16669C7.93056 2.16669 9.21779 2.91428 10.0977 3.92841C10.9715 2.91244 12.2597 2.16669 13.9033 2.16669Z" stroke="#1E1E1E" stroke-width="1.5"/>
</svg>
