<svg width="10" height="10" viewBox="0 0 10 10" fill="none" xmlns="http://www.w3.org/2000/svg">
<g clip-path="url(#clip0_39930_8565)">
<path d="M5 2.03906C5.25285 2.03906 5.45801 2.24422 5.45801 2.49707V4.81055L6.59863 5.95117C6.77718 6.12998 6.77734 6.41992 6.59863 6.59863C6.41992 6.77734 6.12998 6.77718 5.95117 6.59863L4.69141 5.33887C4.60014 5.25517 4.54199 5.13555 4.54199 5.00195V2.49707C4.54199 2.24422 4.74715 2.03906 5 2.03906Z" fill="#919191"/>
<path fill-rule="evenodd" clip-rule="evenodd" d="M5 0.37793C7.55264 0.37793 9.62206 2.44737 9.62207 5C9.62207 7.55264 7.55264 9.62207 5 9.62207C2.44737 9.62206 0.37793 7.55264 0.37793 5C0.377938 2.44737 2.44737 0.377938 5 0.37793ZM5 1.26855C2.93922 1.26856 1.26856 2.93922 1.26855 5C1.26855 7.06079 2.93922 8.73144 5 8.73145C7.06079 8.73145 8.73145 7.06079 8.73145 5C8.73144 2.93922 7.06079 1.26855 5 1.26855Z" fill="#919191"/>
</g>
<defs>
<clipPath id="clip0_39930_8565">
<rect width="10" height="10" fill="white"/>
</clipPath>
</defs>
</svg>
