<svg width="25" height="24" viewBox="0 0 25 24" fill="none" xmlns="http://www.w3.org/2000/svg">
<path d="M12.4425 2.75C14.1615 2.74998 15.6449 2.74997 16.7174 2.89815C17.8256 3.05126 18.7283 3.37517 19.4392 4.1057C20.1472 4.83336 20.4587 5.75268 20.6064 6.88161C20.75 7.97969 20.75 9.38251 20.75 11.1526L20.75 16.5425V16.5426C20.75 17.643 20.7501 18.5518 20.6518 19.2335C20.5517 19.9271 20.3196 20.6206 19.6467 21.004C19.0341 21.3529 18.3603 21.2793 17.8025 21.0987C17.2397 20.9164 16.6717 20.5873 16.1564 20.24L13.5853 18.3135C13.2096 18.0721 12.9761 17.9233 12.788 17.8288C12.5176 17.6742 12.2913 17.7644 12.212 17.8288C12.0239 17.9233 11.7904 18.0721 11.4147 18.3135L8.8436 20.24C8.3283 20.5873 7.76034 20.9164 7.19752 21.0987C6.63975 21.2793 5.96591 21.3529 5.35335 21.004C4.68036 20.6206 4.44826 19.9271 4.34825 19.2335C4.24994 18.5518 4.24997 17.6429 4.25 16.5426V16.5425L4.25 11.1526C4.24999 9.38251 4.24997 7.97969 4.39363 6.88161C4.54133 5.75268 4.85276 4.83336 5.56083 4.1057C6.27169 3.37517 7.17444 3.05126 8.28258 2.89815C9.35508 2.74997 10.7235 2.74998 12.4425 2.75H12.4425Z" fill="#919191"/>
</svg>
