<svg width="20" height="20" viewBox="0 0 20 20" fill="none" xmlns="http://www.w3.org/2000/svg">
<path d="M5.27222 14.727C5.16479 14.6245 5.09399 14.5024 5.05981 14.3608C5.02563 14.2144 5.02563 14.0703 5.05981 13.9287C5.09888 13.7871 5.16968 13.6675 5.27222 13.5698L8.83911 9.9956L5.27222 6.42871C5.16968 6.33105 5.09888 6.21143 5.05981 6.06982C5.02563 5.92822 5.02563 5.78662 5.05981 5.64502C5.09399 5.49854 5.16479 5.37402 5.27222 5.27148C5.37964 5.16406 5.50415 5.09326 5.64575 5.05908C5.78735 5.0249 5.92896 5.02734 6.07056 5.06641C6.21216 5.10059 6.33423 5.1665 6.43677 5.26416L10.0037 8.83838L13.5706 5.26416C13.6731 5.16162 13.7952 5.09326 13.9368 5.05908C14.0784 5.0249 14.2175 5.02734 14.3542 5.06641C14.4958 5.10059 14.6204 5.16895 14.7278 5.27148C14.8352 5.37402 14.906 5.49854 14.9402 5.64502C14.9744 5.78662 14.9744 5.92822 14.9402 6.06982C14.906 6.20654 14.8352 6.32861 14.7278 6.43603L11.1682 9.9956L14.7278 13.5698C14.8352 13.6724 14.906 13.7944 14.9402 13.936C14.9744 14.0728 14.9744 14.2144 14.9402 14.3608C14.906 14.5024 14.8352 14.6245 14.7278 14.727C14.6204 14.8296 14.4958 14.9004 14.3542 14.9395C14.2175 14.9736 14.0784 14.9736 13.9368 14.9395C13.7952 14.9053 13.6731 14.8369 13.5706 14.7344L10.0037 11.1602L6.43677 14.7344C6.33423 14.8369 6.21216 14.9053 6.07056 14.9395C5.92896 14.9736 5.78735 14.9736 5.64575 14.9395C5.50415 14.9053 5.37964 14.8345 5.27222 14.727Z" fill="#919191"/>
</svg>
