<svg width="16" height="16" viewBox="0 0 16 16" fill="none" xmlns="http://www.w3.org/2000/svg">
<path d="M3.99608 7.04102C4.52397 7.04114 4.95677 7.46928 4.95702 8C4.95676 8.52829 4.52635 8.95886 3.99804 8.95898C3.50298 8.95873 3.09443 8.58087 3.04491 8.09863L3.04003 8C3.03819 7.46831 3.47144 7.04126 3.99608 7.04102Z" fill="#0F0F0F"/>
<path d="M7.99804 7.04102C8.52582 7.04128 8.95872 7.46936 8.95897 8C8.95871 8.5282 8.52819 8.95872 7.99999 8.95898C7.50494 8.95873 7.09639 8.58085 7.04687 8.09863L7.04198 8C7.04015 7.46831 7.47339 7.04126 7.99804 7.04102Z" fill="#0F0F0F"/>
<path d="M11.999 7.04102C12.527 7.04102 12.9597 7.4692 12.96 8C12.9597 8.52836 12.5294 8.95898 12.001 8.95898C11.506 8.95861 11.0973 8.58081 11.0478 8.09863L11.043 8C11.0411 7.46839 11.4745 7.04139 11.999 7.04102Z" fill="#0F0F0F"/>
</svg>
