<svg width="36" height="36" viewBox="0 0 36 36" fill="none" xmlns="http://www.w3.org/2000/svg">
<circle opacity="0.1" cx="18" cy="18" r="18" fill="#0099FF"/>
<path d="M17.7578 21.1231C18.1719 21.1197 18.5101 21.4532 18.5137 21.8673C18.517 22.2812 18.1845 22.6195 17.7705 22.6231C16.6459 22.6328 15.5421 23.0738 14.7793 23.8868C14.4958 24.1886 14.0207 24.2033 13.7188 23.92C13.417 23.6365 13.4022 23.1614 13.6855 22.8594C14.7564 21.7185 16.2655 21.136 17.7578 21.1231ZM18.9824 17.3731C18.9824 16.6715 18.4254 16.1231 17.7637 16.1231C17.1021 16.1233 16.5459 16.6716 16.5459 17.3731C16.5459 18.0746 17.1021 18.623 17.7637 18.6231C18.4254 18.6231 18.9824 18.0748 18.9824 17.3731ZM20.4824 17.3731C20.4824 18.8806 19.2762 20.1231 17.7637 20.1231C16.2512 20.123 15.0459 18.8805 15.0459 17.3731C15.0459 15.8657 16.2512 14.6233 17.7637 14.6231C19.2762 14.6231 20.4824 15.8656 20.4824 17.3731Z" fill="#0099FF"/>
<path d="M8.48242 20.7423V16.0059C8.48242 14.4652 8.48081 13.2296 8.61816 12.2618C8.7592 11.268 9.06008 10.4471 9.74219 9.80086C10.3457 9.22915 11.0878 8.94624 11.9736 8.79891C12.8412 8.65465 13.9153 8.62998 15.2295 8.62508C15.6437 8.62354 15.9808 8.958 15.9824 9.37215C15.984 9.78632 15.6495 10.1235 15.2354 10.1251C13.9052 10.13 12.9495 10.157 12.2197 10.2784C11.5084 10.3967 11.0857 10.5939 10.7734 10.8897C10.4305 11.2147 10.2188 11.6607 10.1035 12.4727C9.98461 13.3108 9.98242 14.4206 9.98242 16.0059V20.7423C9.98242 22.3277 9.98459 23.4374 10.1035 24.2755C10.2188 25.0874 10.4305 25.5336 10.7734 25.8585C11.1221 26.1887 11.6096 26.3972 12.4863 26.5089C13.381 26.6228 14.5624 26.6241 16.2324 26.6241H18.2324C18.6466 26.6241 18.9824 26.9599 18.9824 27.3741C18.9823 27.7882 18.6466 28.1241 18.2324 28.1241H16.2324C14.6026 28.1241 13.3084 28.125 12.2969 27.9962C11.2681 27.8651 10.4185 27.5879 9.74219 26.9473C9.06017 26.3012 8.75922 25.48 8.61816 24.4864C8.48081 23.5186 8.48242 22.283 8.48242 20.7423ZM25.4824 16.8741V16.0059C25.4824 14.4206 25.4802 13.3108 25.3613 12.4727C25.2461 11.6607 25.0344 11.2147 24.6914 10.8897C24.3791 10.5939 23.9564 10.3967 23.2451 10.2784C22.5153 10.157 21.5596 10.13 20.2295 10.1251C19.8153 10.1235 19.4809 9.78632 19.4824 9.37215C19.484 8.958 19.8212 8.62354 20.2354 8.62508C21.5495 8.62998 22.6237 8.65465 23.4912 8.79891C24.3771 8.94624 25.1191 9.22915 25.7227 9.80086C26.4048 10.4471 26.7056 11.268 26.8467 12.2618C26.984 13.2296 26.9824 14.4652 26.9824 16.0059V16.8741C26.9823 17.2882 26.6466 17.6241 26.2324 17.6241C25.8183 17.6241 25.4825 17.2882 25.4824 16.8741Z" fill="#0099FF"/>
<path d="M17.7325 6.62313C18.1637 6.62313 18.5033 6.61805 18.8097 6.68856C19.4727 6.84122 20.0568 7.25519 20.3829 7.85457C20.5358 8.13556 20.6059 8.46584 20.6915 8.83602L20.7745 9.19539C20.8558 9.54677 20.9315 9.86914 20.964 10.1378C20.9977 10.4167 20.9997 10.7396 20.8536 11.0616C20.7043 11.3905 20.4555 11.6588 20.1525 11.8429C19.8673 12.016 19.5584 12.0734 19.2696 12.0987C18.9855 12.1236 18.634 12.1231 18.2306 12.1231H17.2345C16.8311 12.1231 16.4796 12.1236 16.1954 12.0987C15.9067 12.0734 15.5977 12.016 15.3126 11.8429C15.0096 11.6588 14.7607 11.3905 14.6114 11.0616C14.4654 10.7396 14.4674 10.4167 14.5011 10.1378C14.5336 9.86914 14.6093 9.54677 14.6905 9.19539L14.7736 8.83602C14.8592 8.46584 14.9293 8.13556 15.0821 7.85457C15.4083 7.25519 15.9924 6.84122 16.6554 6.68856C16.9617 6.61805 17.3013 6.62313 17.7325 6.62313ZM17.7325 8.12313C17.2231 8.12313 17.0917 8.12762 16.9923 8.15047C16.7102 8.21539 16.5027 8.38186 16.3995 8.57137C16.3681 8.62914 16.3417 8.71446 16.2355 9.17391L16.1525 9.53426C16.0637 9.91808 16.0109 10.1476 15.9904 10.3175C15.9814 10.3914 15.9823 10.4321 15.9835 10.4503C16.0019 10.4857 16.0347 10.5274 16.0909 10.5616C16.0919 10.5621 16.095 10.5634 16.0978 10.5645C16.1036 10.5669 16.1152 10.5706 16.1329 10.5753C16.1703 10.5851 16.2301 10.5961 16.3263 10.6046C16.5296 10.6224 16.8038 10.6231 17.2345 10.6231H18.2306C18.6613 10.6231 18.9355 10.6224 19.1388 10.6046C19.2349 10.5961 19.2947 10.5851 19.3321 10.5753C19.3499 10.5706 19.3614 10.5669 19.3673 10.5645C19.3701 10.5634 19.3722 10.5621 19.3732 10.5616C19.4292 10.5276 19.4622 10.4856 19.4806 10.4503C19.4818 10.4322 19.4837 10.3915 19.4747 10.3175C19.4542 10.1476 19.4014 9.91808 19.3126 9.53426L19.2296 9.17391C19.1233 8.71446 19.097 8.62914 19.0655 8.57137C18.9624 8.38186 18.7549 8.21539 18.4728 8.15047C18.3734 8.12762 18.242 8.12313 17.7325 8.12313Z" fill="#0099FF"/>
<path d="M27.4825 23.3731C27.4825 21.5782 26.0275 20.1231 24.2325 20.1231C22.4376 20.1231 20.9825 21.5782 20.9825 23.3731C20.9825 25.168 22.4376 26.6231 24.2325 26.6231C26.0275 26.6231 27.4825 25.168 27.4825 23.3731ZM22.5724 24.4932H22.5743L22.5753 24.4942C22.2021 24.3156 22.0446 23.8678 22.2228 23.4942C22.4013 23.1208 22.8482 22.9626 23.2218 23.1407L23.2237 23.1417L23.2267 23.1426C23.2282 23.1434 23.2298 23.1447 23.2316 23.1456C23.2352 23.1474 23.2397 23.1491 23.2443 23.1514C23.2535 23.1561 23.2646 23.1621 23.2775 23.169C23.3035 23.183 23.337 23.2017 23.3761 23.2256C23.4512 23.2717 23.5485 23.338 23.6583 23.4258C23.669 23.4094 23.6796 23.3926 23.6905 23.376C24.0214 22.8753 24.5524 22.1785 25.2101 21.8243C25.5748 21.6279 26.0303 21.7642 26.2267 22.129C26.4227 22.4936 26.2856 22.9483 25.921 23.1446C25.6176 23.308 25.2601 23.7225 24.9425 24.2032C24.7949 24.4266 24.6732 24.6366 24.589 24.7911C24.5471 24.8679 24.5146 24.9299 24.4933 24.9717C24.4826 24.9927 24.4748 25.0086 24.4698 25.0186C24.4674 25.0235 24.4659 25.0274 24.465 25.0294C24.3453 25.2792 24.0972 25.4442 23.8204 25.4561C23.5436 25.468 23.2824 25.3257 23.1417 25.087C23.0048 24.8547 22.8469 24.6984 22.7286 24.6026C22.6696 24.5548 22.6217 24.5226 22.5929 24.5049L22.5724 24.4932ZM28.9825 23.3731C28.9825 25.9965 26.8559 28.1231 24.2325 28.1231C21.6092 28.1231 19.4825 25.9965 19.4825 23.3731C19.4825 20.7498 21.6092 18.6231 24.2325 18.6231C26.8559 18.6231 28.9825 20.7498 28.9825 23.3731Z" fill="#0099FF"/>
</svg>
