<svg width="22" height="18" viewBox="0 0 22 18" fill="none" xmlns="http://www.w3.org/2000/svg">
<path fill-rule="evenodd" clip-rule="evenodd" d="M17.25 8.75C17.8023 8.75 18.25 9.19772 18.25 9.75V12.25H20.75C21.3023 12.25 21.75 12.6977 21.75 13.25C21.75 13.8023 21.3023 14.25 20.75 14.25H18.25V16.75C18.25 17.3023 17.8023 17.75 17.25 17.75C16.6977 17.75 16.25 17.3023 16.25 16.75L16.25 14.25H13.75C13.1977 14.25 12.75 13.8023 12.75 13.25C12.75 12.6977 13.1977 12.25 13.75 12.25H16.25L16.25 9.75C16.25 9.19772 16.6977 8.75 17.25 8.75Z" fill="#0099FF"/>
<path d="M16.7194 0.128599C15.5808 -1.61529e-05 14.1366 -8.90621e-06 12.2976 1.51642e-07H9.20248C7.36347 -8.90621e-06 5.91918 -1.61529e-05 4.78059 0.128599C3.61843 0.259878 2.67602 0.53362 1.89264 1.15229C1.65812 1.33749 1.44069 1.54205 1.24299 1.7638C0.576819 2.51101 0.279334 3.41669 0.137637 4.52785C0.121333 4.6557 0.113182 4.71963 0.127844 4.77579C0.151276 4.86554 0.220154 4.94375 0.306219 4.97835C0.360072 5 0.42746 5 0.562237 5H20.9378C21.0726 5 21.14 5 21.1938 4.97835C21.2799 4.94375 21.3487 4.86553 21.3722 4.77579C21.3868 4.71963 21.3787 4.6557 21.3624 4.52785C21.2207 3.41669 20.9232 2.51101 20.257 1.7638C20.0593 1.54205 19.8419 1.33749 19.6074 1.15229C18.824 0.53362 17.8816 0.259878 16.7194 0.128599Z" fill="#0099FF"/>
<path d="M20.75 10.75C21.1184 10.75 21.3026 10.75 21.3857 10.6818C21.4029 10.6676 21.4115 10.6591 21.4258 10.6419C21.4945 10.5594 21.4955 10.41 21.4974 10.1113C21.5 9.69987 21.5 9.26413 21.5 8.80275V8.69725C21.5 8.12148 21.5 7.58565 21.4949 7.08709C21.4921 6.8114 21.4906 6.67356 21.403 6.58678C21.3153 6.5 21.1764 6.5 20.8986 6.5H0.601391C0.32361 6.5 0.18472 6.5 0.0970426 6.58678C0.00936545 6.67356 0.00794886 6.8114 0.00511566 7.08709C-7.97678e-06 7.58564 -4.00465e-06 8.12148 2.63739e-07 8.69721V8.80273C-1.3141e-05 10.5267 -2.37525e-05 11.8927 0.137626 12.9722C0.279322 14.0833 0.576808 14.989 1.24298 15.7362C1.44068 15.9579 1.65811 16.1625 1.89263 16.3477C2.676 16.9664 3.61842 17.2401 4.78058 17.3714C5.91917 17.5 7.36345 17.5 9.20246 17.5H12.2975C12.9525 17.5 13.5574 17.5 14.1163 17.4942C14.4122 17.4911 14.5601 17.4896 14.6422 17.421C14.6595 17.4066 14.6681 17.398 14.6823 17.3806C14.75 17.2977 14.75 17.1151 14.75 16.75V16.35C14.75 16.0672 14.75 15.9257 14.6621 15.8379C14.5743 15.75 14.4328 15.75 14.15 15.75H13.75C12.3693 15.75 11.25 14.6307 11.25 13.25C11.25 11.8693 12.3693 10.75 13.75 10.75H14.15C14.4328 10.75 14.5743 10.75 14.6621 10.6621C14.75 10.5743 14.75 10.4328 14.75 10.15V9.75C14.75 8.36929 15.8693 7.25 17.25 7.25C18.6307 7.25 19.75 8.36929 19.75 9.75V10.15C19.75 10.4328 19.75 10.5743 19.8379 10.6621C19.9257 10.75 20.0672 10.75 20.35 10.75H20.75Z" fill="#0099FF"/>
</svg>
