<svg width="20" height="20" viewBox="0 0 20 20" fill="none" xmlns="http://www.w3.org/2000/svg">
<path d="M10.0782 14.157C10.0851 14.1577 10.092 14.16 10.0988 14.1609C10.4048 14.1962 10.6726 14.3909 10.794 14.6794C10.9288 15.0005 10.8569 15.3719 10.6112 15.6189C10.3654 15.8659 9.99379 15.94 9.67143 15.8074C9.34935 15.6745 9.13957 15.3605 9.13947 15.0125V15.0085C9.14108 14.5534 9.4967 14.1837 9.94524 14.156C9.96157 14.1548 9.97851 14.1532 9.99511 14.1531L9.99707 14.1541L10.002 14.1531L10.0782 14.157Z" fill="#0F0F0F"/>
<path d="M10 4.12769C12.5854 4.12769 14.7201 6.049 15.0537 8.53979C16.7327 8.86762 18 10.3441 18 12.1169C17.9998 14.1302 16.3656 15.7623 14.3496 15.7625H12.8994C12.4848 15.7623 12.1486 15.4264 12.1484 15.0125C12.1485 14.5984 12.4848 14.2626 12.8994 14.2625H14.3496C15.536 14.2623 16.4978 13.3017 16.498 12.1169C16.498 10.932 15.5361 9.97154 14.3496 9.97144C13.935 9.97144 13.5989 9.63539 13.5986 9.22144C13.5986 7.23677 11.9873 5.62769 10 5.62769C8.46025 5.62859 7.09144 6.60827 6.59602 8.06421C6.50408 8.33367 6.26742 8.52841 5.98484 8.56616C4.56533 8.75586 3.50461 9.96404 3.50202 11.3943C3.5029 12.9784 4.78956 14.2625 6.37599 14.2625H7.1006C7.51521 14.2626 7.8515 14.5984 7.85161 15.0125C7.85141 15.4264 7.51516 15.7623 7.1006 15.7625H6.37599C3.95969 15.7625 2.00036 13.8063 2 11.3933V11.3914L2.00489 11.1882C2.09806 9.24903 3.4668 7.61354 5.33749 7.16284C6.14627 5.33181 7.96814 4.12867 10 4.12769Z" fill="#0F0F0F"/>
<path d="M10 9.3728C10.4145 9.37307 10.751 9.70875 10.751 10.1228V12.321C10.751 12.7351 10.4145 13.0708 10 13.071C9.58531 13.071 9.24901 12.7352 9.24899 12.321V10.1228C9.24899 9.70864 9.5853 9.37289 10 9.3728Z" fill="#0F0F0F"/>
</svg>
