<svg width="16" height="16" viewBox="0 0 16 16" fill="none" xmlns="http://www.w3.org/2000/svg">
<path d="M8.00098 3.61426C9.935 3.6147 11.5354 5.04182 11.8076 6.90039C13.0592 7.16864 13.998 8.28063 13.998 9.6123C13.9978 11.1438 12.7561 12.3852 11.2246 12.3857H10.1494C9.80437 12.3856 9.52447 12.1058 9.52441 11.7607C9.52453 11.4157 9.80441 11.1359 10.1494 11.1357H11.2246C12.0657 11.1352 12.7478 10.4535 12.748 9.6123C12.748 8.7709 12.0659 8.0884 11.2246 8.08789C10.8795 8.08789 10.5997 7.808 10.5996 7.46289C10.5996 6.11772 9.57654 5.0114 8.2666 4.87793L8.00098 4.86426C6.88901 4.8648 5.90082 5.57318 5.54297 6.62598C5.46667 6.8505 5.26912 7.01218 5.03418 7.04395C4.01595 7.18016 3.25477 8.04888 3.25293 9.07617C3.25382 10.2139 4.17657 11.1357 5.31445 11.1357H5.85156C6.19642 11.136 6.47645 11.4158 6.47656 11.7607C6.4765 12.1057 6.19646 12.3855 5.85156 12.3857H5.31445C3.4857 12.3857 2.00201 10.903 2.00195 9.07422L2.01758 8.7666C2.14882 7.37552 3.14695 6.21901 4.49707 5.87891C5.11374 4.51207 6.47882 3.6151 8.00098 3.61426Z" fill="#0F0F0F"/>
<path d="M7.95898 7.5166C8.304 7.51672 8.58387 7.79659 8.58398 8.1416V9.80469C8.58382 10.1497 8.30396 10.4296 7.95898 10.4297C7.61402 10.4296 7.33415 10.1496 7.33398 9.80469V8.1416C7.3341 7.7966 7.61399 7.51673 7.95898 7.5166Z" fill="#0F0F0F"/>
<path d="M7.96973 10.9775C8.21463 10.9812 8.43805 11.1089 8.56348 11.3145L8.6123 11.4092L8.64551 11.5107C8.70539 11.7489 8.63766 12.0048 8.46094 12.1826C8.25881 12.3856 7.95437 12.447 7.68945 12.3379C7.42444 12.2286 7.25117 11.9702 7.25098 11.6836V11.6807C7.25216 11.3064 7.5441 11.0044 7.91211 10.9805C7.92598 10.9794 7.93999 10.9757 7.9541 10.9756L7.95703 10.9766L7.95996 10.9756C7.96302 10.9756 7.96666 10.9774 7.96973 10.9775Z" fill="#0F0F0F"/>
</svg>
