<svg width="12" height="12" viewBox="0 0 12 12" fill="none" xmlns="http://www.w3.org/2000/svg">
<path d="M6.26517 3.05908C7.42958 3.17736 8.36402 4.06566 8.5591 5.20752C9.38613 5.41333 10 6.16014 10 7.05225C9.99971 8.10281 9.14877 8.95459 8.09993 8.95459H7.39995C7.12447 8.95451 6.901 8.73051 6.9008 8.45459C6.90089 8.17857 7.1244 7.95467 7.39995 7.95459H8.09993C8.59743 7.95459 9.00142 7.55053 9.00171 7.05225C9.00171 6.55372 8.5976 6.14893 8.09993 6.14893C7.82452 6.14876 7.60098 5.9248 7.60078 5.64893C7.60054 4.81872 6.97097 4.13545 6.16378 4.05322L6 4.04541C5.31481 4.04578 4.70548 4.48343 4.48501 5.1333C4.4238 5.31271 4.26613 5.44214 4.07848 5.46729C3.46085 5.55029 2.99941 6.07836 2.99829 6.70264C2.99915 7.39397 3.55879 7.95437 4.24909 7.95459H4.59907C4.87469 7.95459 5.09814 8.17852 5.09822 8.45459C5.09802 8.73056 4.87462 8.95459 4.59907 8.95459H4.24909C3.00712 8.95437 2.00033 7.94572 2 6.70166L2.00975 6.4917C2.09751 5.55953 2.75664 4.78231 3.65245 4.5376C4.07741 3.63546 4.98679 3.0459 6 3.04541L6.26517 3.05908Z" fill="#0F0F0F"/>
<path d="M6.01462 7.85107C6.04128 7.85178 6.06777 7.85445 6.09359 7.85889C6.1 7.8601 6.10677 7.86133 6.11309 7.86279C6.28798 7.89958 6.43781 8.01846 6.5089 8.18799C6.59509 8.39401 6.5488 8.63184 6.39191 8.79053C6.23455 8.94915 5.99683 8.99761 5.7904 8.9126C5.58397 8.82733 5.44936 8.6255 5.44918 8.40186V8.39893C5.45041 8.11144 5.67078 7.87878 5.95126 7.854C5.96625 7.85249 5.98171 7.84922 5.99708 7.84912L5.99903 7.8501L6.00195 7.84912L6.01462 7.85107Z" fill="#0F0F0F"/>
<path d="M6.00098 5.49951C6.27618 5.50002 6.50006 5.72374 6.50012 5.99951V7.05127C6.50012 7.3271 6.27622 7.55076 6.00098 7.55127C5.7253 7.55127 5.50183 7.32741 5.50183 7.05127V5.99951C5.50189 5.72343 5.72534 5.49951 6.00098 5.49951Z" fill="#0F0F0F"/>
</svg>
