<svg width="28" height="28" viewBox="0 0 28 28" fill="none" xmlns="http://www.w3.org/2000/svg">
<path d="M14.0142 20.0228C14.5776 20.0287 15.0848 20.3676 15.3035 20.8881C15.5251 21.4158 15.4062 22.0251 15.0024 22.431C14.5986 22.8368 13.9894 22.9597 13.4599 22.7416C12.9305 22.5233 12.5852 22.0072 12.5851 21.4349V21.4291C12.5875 20.684 13.1673 20.0771 13.8998 20.0267C13.9297 20.0244 13.9603 20.0221 13.9907 20.0219C13.9929 20.0218 13.9954 20.0228 13.9976 20.0228C13.999 20.0228 14.0009 20.0219 14.0024 20.0219L14.0142 20.0228Z" fill="#0F0F0F"/>
<path d="M14.0005 5.15173C17.8697 5.15209 21.0714 8.00381 21.617 11.7181C24.1213 12.2542 26 14.4779 26 17.14C25.9998 20.2022 23.514 22.6847 20.4489 22.6849H18.2994C17.6085 22.6849 17.0483 22.1252 17.0483 21.4349C17.0483 20.7446 17.6085 20.185 18.2994 20.1849H20.4489C22.132 20.1847 23.4975 18.8215 23.4977 17.14C23.4977 15.4584 22.1321 14.0944 20.4489 14.0941C19.758 14.094 19.1978 13.5344 19.1977 12.8441C19.1975 10.0661 17.0134 7.7977 14.2673 7.65857L14.0005 7.65173C11.7764 7.65297 9.79943 9.06836 9.08378 11.1722C8.9309 11.6217 8.53614 11.946 8.06525 12.0092C6.02886 12.2813 4.50721 14.0152 4.50332 16.0677C4.50435 18.3417 6.34995 20.1849 8.62632 20.1849H9.70057C10.3913 20.1852 10.9517 20.7448 10.9517 21.4349C10.9517 22.1251 10.3913 22.6847 9.70057 22.6849H8.62632C4.96735 22.6849 2.00007 19.7213 2 16.0658V16.0638L2.0088 15.7552C2.14891 12.8406 4.19026 10.3802 6.98904 9.67517C8.22334 6.94406 10.9556 5.15326 14.0005 5.15173Z" fill="#0F0F0F"/>
<path d="M13.9995 12.9252C14.6904 12.9253 15.2507 13.4849 15.2507 14.1752V17.4379C15.2507 18.1282 14.6904 18.6878 13.9995 18.6879C13.3085 18.6879 12.7483 18.1282 12.7483 17.4379V14.1752C12.7483 13.4848 13.3085 12.9252 13.9995 12.9252Z" fill="#0F0F0F"/>
</svg>
