<svg width="28" height="28" viewBox="0 0 28 28" fill="none" xmlns="http://www.w3.org/2000/svg">
<path d="M14 9.17155C14.6341 9.17161 15.2627 9.29623 15.8487 9.53874C16.4347 9.78147 16.9684 10.1382 17.417 10.5866C17.8654 11.035 18.2212 11.5682 18.4639 12.154C18.7065 12.7398 18.832 13.3685 18.832 14.0026C18.8319 14.6367 18.7066 15.2654 18.4639 15.8512C18.221 16.437 17.8655 16.9703 17.417 17.4186C16.9684 17.867 16.4346 18.2228 15.8487 18.4655C15.2628 18.708 14.6341 18.8326 14 18.8327C13.3659 18.8326 12.7373 18.708 12.1514 18.4655C11.5654 18.2229 11.0316 17.8669 10.583 17.4186C10.1346 16.9703 9.779 16.437 9.53615 15.8512C9.29341 15.2654 9.16812 14.6367 9.16799 14.0026C9.16799 13.3684 9.2935 12.7399 9.53615 12.154C9.77891 11.5681 10.1346 11.035 10.583 10.5866C11.0317 10.1381 11.5653 9.78146 12.1514 9.53874C12.7373 9.29623 13.3659 9.17159 14 9.17155ZM14 11.6715C13.6939 11.6716 13.3903 11.7322 13.1074 11.8493C12.8247 11.9664 12.567 12.1378 12.3506 12.3542C12.1342 12.5706 11.9628 12.8284 11.8457 13.111C11.7288 13.3935 11.668 13.6969 11.668 14.0026C11.6681 14.3083 11.7287 14.6118 11.8457 14.8942C11.9628 15.1765 12.1344 15.4339 12.3506 15.6501C12.567 15.8663 12.8247 16.0388 13.1074 16.1559C13.3902 16.2729 13.694 16.3326 14 16.3327C14.306 16.3326 14.6099 16.2729 14.8926 16.1559C15.1753 16.0388 15.433 15.8663 15.6494 15.6501C15.8657 15.4338 16.0372 15.1766 16.1543 14.8942C16.2713 14.6118 16.3319 14.3083 16.332 14.0026C16.332 13.6969 16.2712 13.3935 16.1543 13.111C16.0372 12.8285 15.8657 12.5705 15.6494 12.3542C15.433 12.1379 15.1753 11.9664 14.8926 11.8493C14.6098 11.7322 14.3062 11.6716 14 11.6715Z" fill="#0F0F0F"/>
<path d="M13.9776 4.39225C18.5857 4.31031 22.855 6.75967 25.1143 10.7487L25.3272 11.1393L25.3389 11.1637C26.2211 12.9516 26.2211 15.0488 25.3389 16.8366L25.335 16.8444C24.2962 18.9122 22.677 20.6285 20.6807 21.7868C18.6723 22.9762 16.3736 23.6096 14.0215 23.6071L14.0225 23.6081C9.26553 23.6927 4.86934 21.0794 2.67287 16.86C2.66884 16.8522 2.66503 16.8435 2.66115 16.8356C1.77905 15.0478 1.77888 12.9515 2.66115 11.1637L2.66506 11.1559C3.70435 9.08716 5.3237 7.36888 7.32131 6.21061C9.3288 5.02239 11.6268 4.38982 13.9776 4.39225ZM13.9961 6.89128C12.2354 6.88594 10.5105 7.32198 8.97463 8.14714C8.94393 8.16708 8.91283 8.18724 8.8799 8.20475C8.78004 8.25781 8.68064 8.31234 8.58303 8.36882C8.24292 8.57072 7.91234 8.79208 7.59474 9.03288C7.58542 9.03994 7.57491 9.04566 7.56545 9.05241C6.45042 9.90937 5.53561 11.0097 4.89846 12.278C4.36733 13.3605 4.3658 14.6279 4.89357 15.7116C6.65303 19.086 10.1706 21.1767 13.9776 21.109C13.9862 21.1089 13.9953 21.1081 14.0039 21.1081C15.7605 21.1134 17.4806 20.6785 19.0137 19.8571C19.0476 19.8346 19.0835 19.8141 19.1201 19.7946C19.2901 19.7043 19.4557 19.6067 19.6192 19.5065C19.8877 19.3388 20.1504 19.1599 20.4043 18.9674C20.4142 18.96 20.4255 18.9531 20.4356 18.946C21.55 18.0891 22.4637 16.9891 23.1006 15.7214C23.6346 14.6327 23.6334 13.3579 23.0967 12.2702C21.3892 9.01187 18.0402 6.95536 14.3779 6.89128H13.9961Z" fill="#0F0F0F"/>
</svg>
