<svg width="33" height="16" viewBox="0 0 33 16" fill="none" xmlns="http://www.w3.org/2000/svg">
<g clip-path="url(#clip0_32076_109204)">
<path d="M7.69045 3.99314C8.02252 3.57779 8.24786 3.02009 8.18843 2.4502C7.70232 2.47437 7.10912 2.7709 6.76569 3.18657C6.45732 3.54254 6.18439 4.12358 6.25554 4.66959C6.80122 4.71692 7.3464 4.39683 7.69045 3.99314Z" fill="#656565"/>
<path d="M8.18212 4.77611C7.38966 4.72891 6.71588 5.22587 6.33744 5.22587C5.95879 5.22587 5.37927 4.7999 4.75248 4.81138C3.93667 4.82336 3.17969 5.28463 2.7657 6.01826C1.91419 7.48588 2.54099 9.66287 3.36903 10.8582C3.77115 11.4495 4.25577 12.1006 4.89433 12.0772C5.49766 12.0536 5.73415 11.6866 6.46752 11.6866C7.20036 11.6866 7.41338 12.0772 8.05204 12.0654C8.71435 12.0536 9.12842 11.4738 9.53053 10.8818C9.99183 10.2077 10.1807 9.55683 10.1926 9.52109C10.1807 9.50926 8.91543 9.02388 8.9037 7.56846C8.89175 6.34981 9.89705 5.77016 9.94437 5.73421C9.37666 4.89457 8.48964 4.7999 8.18212 4.77611Z" fill="#656565"/>
<path d="M15.0822 3.12696C16.8046 3.12696 18.004 4.31422 18.004 6.04279C18.004 7.77753 16.7799 8.97096 15.039 8.97096H13.132V12.0037H11.7542V3.12695L15.0822 3.12696ZM13.132 7.81443H14.7129C15.9125 7.81443 16.5953 7.16859 16.5953 6.04896C16.5953 4.92945 15.9125 4.28966 14.7191 4.28966H13.132V7.81443Z" fill="#656565"/>
<path d="M18.364 10.1646C18.364 9.03261 19.2314 8.33753 20.7694 8.25139L22.5409 8.14685V7.64862C22.5409 6.92886 22.0549 6.49826 21.2431 6.49826C20.4739 6.49826 19.9941 6.86728 19.8773 7.4456H18.6224C18.6962 6.27673 19.6927 5.41553 21.2922 5.41553C22.8608 5.41553 23.8634 6.246 23.8634 7.54397V12.0039H22.59V10.9396H22.5594C22.1842 11.6594 21.366 12.1146 20.5171 12.1146C19.2499 12.1146 18.364 11.3272 18.364 10.1646ZM22.5409 9.58021V9.06964L20.9476 9.168C20.154 9.22341 19.7051 9.57404 19.7051 10.1277C19.7051 10.6936 20.1726 11.0627 20.8862 11.0627C21.815 11.0627 22.5409 10.4229 22.5409 9.58021Z" fill="#656565"/>
<path d="M25.0658 14.3844V13.3078C25.1641 13.3324 25.3855 13.3324 25.4963 13.3324C26.1114 13.3324 26.4436 13.0741 26.6465 12.4097C26.6465 12.3974 26.7635 12.016 26.7635 12.0099L24.426 5.53223H25.8653L27.5018 10.798H27.5262L29.1627 5.53223H30.5652L28.1414 12.342C27.588 13.9107 26.9482 14.4151 25.6071 14.4151C25.4963 14.4151 25.1641 14.4028 25.0658 14.3844Z" fill="#656565"/>
</g>
<defs>
<clipPath id="clip0_32076_109204">
<rect width="31" height="11.9649" fill="white" transform="translate(1 2.4502)"/>
</clipPath>
</defs>
</svg>
