<svg width="22" height="22" viewBox="0 0 22 22" fill="none" xmlns="http://www.w3.org/2000/svg">
<g clip-path="url(#clip0_8163_5316)">
<rect width="22" height="22" rx="11" fill="white"/>
<rect width="22" height="22" fill="#FFEEDA"/>
<path d="M16.145 13.145V6.07011C16.1358 5.47664 15.6716 5 15.0879 5H7.82646C6.25927 5.02336 5 6.32713 5 7.92529C5 8.46268 5.14247 8.9253 5.35848 9.33185C5.54231 9.66831 5.83185 9.98607 6.1168 10.2244C6.19952 10.2898 6.15816 10.2618 6.40634 10.416C6.74643 10.6263 7.13708 10.7337 7.13708 10.7337L7.13249 14.9675C7.14168 15.1684 7.16006 15.36 7.21521 15.5422C7.37607 16.1404 7.7851 16.5983 8.3366 16.818C8.5664 16.9114 8.82836 16.9722 9.10871 16.9768L14.9087 16.9955C16.0623 16.9955 16.9998 16.0423 16.9998 14.8647C17.0044 14.1637 16.6597 13.5375 16.145 13.145Z" fill="#FFEEDA"/>
<path d="M16.2874 14.9162C16.2644 15.6685 15.6531 16.276 14.904 16.276L10.9148 16.262C11.2319 15.8882 11.4249 15.4022 11.4249 14.8695C11.4249 14.0377 10.9378 13.4629 10.9378 13.4629H14.9086C15.6715 13.4629 16.292 14.0937 16.292 14.8695L16.2874 14.9162Z" fill="#EBC28E"/>
<path d="M6.49825 9.62646C6.03867 9.18253 5.71696 8.61242 5.71696 7.93017V7.86007C5.75372 6.70117 6.69128 5.76658 7.83106 5.73387H15.0925C15.281 5.74321 15.4326 5.87873 15.4326 6.07499V12.3228C15.5981 12.3508 15.6808 12.3742 15.8417 12.4349C15.9704 12.4817 16.145 12.5845 16.145 12.5845V6.07499C16.1358 5.48153 15.6716 5.00488 15.0879 5.00488H7.82646C6.25927 5.02825 5 6.33201 5 7.93017C5 8.86009 5.41822 9.6545 6.09841 10.2106C6.14437 10.248 6.19033 10.2994 6.30982 10.2994C6.52123 10.2994 6.6729 10.1265 6.66371 9.93955C6.66371 9.78067 6.59477 9.72459 6.49825 9.62646Z" fill="#101010"/>
<path d="M14.9044 12.7335H9.21012C8.82866 12.7382 8.52074 13.0513 8.52074 13.4391V14.2709C8.52993 14.6541 8.85164 14.9812 9.23769 14.9812H9.66051V14.2709H9.2331V13.4578C9.2331 13.4578 9.3388 13.4578 9.46289 13.4578C10.1844 13.4578 10.713 14.1354 10.713 14.8644C10.713 15.5093 10.1339 16.3317 9.16875 16.2663C8.31392 16.2102 7.84974 15.4345 7.84974 14.8644V7.80821C7.84974 7.49045 7.59237 7.22876 7.27985 7.22876H6.70996V7.95307H7.13278V14.8691C7.1098 16.2756 8.1163 16.9813 9.16875 16.9813L14.909 17C16.0626 17 17.0001 16.0467 17.0001 14.8691C17.0047 13.6915 16.0626 12.7335 14.9044 12.7335ZM16.2878 14.9158C16.2648 15.6682 15.6535 16.2756 14.9044 16.2756L10.9152 16.2616C11.2323 15.8878 11.4253 15.4018 11.4253 14.8691C11.4253 14.0373 10.9382 13.4625 10.9382 13.4625H14.909C15.6719 13.4625 16.2924 14.0934 16.2924 14.8691L16.2878 14.9158Z" fill="#101010"/>
<path d="M13.369 8.08418H9.07642V7.35986H13.369C13.562 7.35986 13.7228 7.51874 13.7228 7.71968C13.7274 7.92062 13.5712 8.08418 13.369 8.08418Z" fill="#101010"/>
<path d="M13.369 11.4816H9.07642V10.762H13.369C13.562 10.762 13.7228 10.9208 13.7228 11.1218C13.7274 11.318 13.5712 11.4816 13.369 11.4816Z" fill="#101010"/>
<path d="M14.1273 9.78022H9.07642V9.05591H14.1227C14.3157 9.05591 14.4766 9.21479 14.4766 9.41573C14.4858 9.61667 14.3249 9.78022 14.1273 9.78022Z" fill="#101010"/>
</g>
<defs>
<clipPath id="clip0_8163_5316">
<rect width="22" height="22" rx="11" fill="white"/>
</clipPath>
</defs>
</svg>
