<svg width="28" height="28" viewBox="0 0 28 28" fill="none" xmlns="http://www.w3.org/2000/svg">
<path d="M18.4189 3.5C23.043 3.5 25.999 7.66221 25.999 11.4092C25.9989 13.379 25.2017 15.181 24.1201 16.7227C23.0366 18.2667 21.615 19.6276 20.2305 20.7432C18.8407 21.8628 17.4505 22.7663 16.3965 23.3896C15.8687 23.7018 15.4192 23.9472 15.0898 24.1172C14.9263 24.2016 14.7858 24.2708 14.6768 24.3213C14.6239 24.3457 14.5671 24.3711 14.5137 24.3926C14.4884 24.4027 14.4483 24.4177 14.4023 24.4326C14.3796 24.44 14.3404 24.4527 14.293 24.4639C14.263 24.4709 14.1481 24.498 14 24.498C13.851 24.498 13.7352 24.4707 13.7061 24.4639C13.6586 24.4527 13.6204 24.44 13.5977 24.4326C13.5514 24.4176 13.5106 24.4027 13.4854 24.3926C13.4319 24.3711 13.3751 24.3457 13.3223 24.3213C13.2131 24.2708 13.0728 24.2016 12.9092 24.1172C12.5799 23.9472 12.1311 23.7017 11.6035 23.3896C10.5494 22.7662 9.15845 21.863 7.76855 20.7432C6.38398 19.6276 4.9634 18.2668 3.87988 16.7227C2.79814 15.181 2.00013 13.3791 2 11.4092C2.00004 7.66235 4.95627 3.50031 9.58008 3.5C11.5194 3.5 12.9731 4.2018 13.999 5.01465C15.0249 4.20158 16.4793 3.50006 18.4189 3.5ZM9.58008 6C6.63197 6.00032 4.50004 8.72832 4.5 11.4092C4.50013 12.6933 5.02207 13.9991 5.92578 15.2871C6.82793 16.5728 8.05909 17.7655 9.33789 18.7959C10.6114 19.822 11.8967 20.6581 12.876 21.2373C12.9504 21.2813 13.0242 21.3215 13.0947 21.3623L14.3916 17.1787L11.8584 14.2354C11.4552 13.7666 11.455 13.0732 11.8584 12.6045L14.293 9.77539L13.2217 7.70215C13.1668 7.65843 13.1138 7.61172 13.0664 7.55859C12.4059 6.81731 11.3 6 9.58008 6ZM18.4189 6C17.2003 6.00005 16.29 6.41016 15.6279 6.91309L16.9014 9.37793C17.1353 9.83082 17.0707 10.3812 16.7383 10.7676L14.4541 13.4199L16.7383 16.0732C17.019 16.3994 17.1126 16.8477 16.9854 17.2588L15.8984 20.7617C16.7354 20.2329 17.7026 19.569 18.6621 18.7959C19.9407 17.7657 21.1712 16.5726 22.0732 15.2871C22.977 13.9991 23.4989 12.6933 23.499 11.4092C23.499 8.72817 21.3673 6 18.4189 6Z" fill="#0F0F0F"/>
</svg>
