<svg width="76" height="76" viewBox="0 0 76 76" fill="none" xmlns="http://www.w3.org/2000/svg">
<path opacity="0.2" fill-rule="evenodd" clip-rule="evenodd" d="M38 16.5714C32.3168 16.5714 26.8663 18.8291 22.8477 22.8477C18.8291 26.8663 16.5714 32.3168 16.5714 38C16.5714 43.6832 18.8291 49.1337 22.8477 53.1523C26.8663 57.1709 32.3168 59.4286 38 59.4286C43.6832 59.4286 49.1337 57.1709 53.1523 53.1523C57.1709 49.1337 59.4286 43.6832 59.4286 38C59.4286 32.3168 57.1709 26.8663 53.1523 22.8477C49.1337 18.8291 43.6832 16.5714 38 16.5714ZM16.7868 16.7868C22.4129 11.1607 30.0435 8 38 8C45.9565 8 53.5871 11.1607 59.2132 16.7868C64.8393 22.4129 68 30.0435 68 38C68 45.9565 64.8393 53.5871 59.2132 59.2132C53.5871 64.8393 45.9565 68 38 68C30.0435 68 22.4129 64.8393 16.7868 59.2132C11.1607 53.5871 8 45.9565 8 38C8 30.0435 11.1607 22.4129 16.7868 16.7868Z" fill="#0099FF"/>
<path fill-rule="evenodd" clip-rule="evenodd" d="M21.0294 21.0294C25.5303 16.5286 31.6348 14 38 14C44.3652 14 50.4697 16.5286 54.9706 21.0294C59.4714 25.5303 62 31.6348 62 38C62 44.3652 59.4714 50.4697 54.9706 54.9706C50.4697 59.4714 44.3652 62 38 62C31.6348 62 25.5303 59.4714 21.0294 54.9706C16.5286 50.4697 14 44.3652 14 38C14 31.6348 16.5286 25.5303 21.0294 21.0294ZM38 16.6966C32.35 16.6966 26.9314 18.9411 22.9362 22.9362C18.9411 26.9314 16.6966 32.35 16.6966 38C16.6966 43.65 18.9411 49.0686 22.9362 53.0638C26.9314 57.0589 32.35 59.3034 38 59.3034C43.65 59.3034 49.0686 57.0589 53.0638 53.0638C57.0589 49.0686 59.3034 43.65 59.3034 38C59.3034 32.35 57.0589 26.9314 53.0638 22.9362C49.0686 18.9411 43.65 16.6966 38 16.6966Z" fill="#0099FF"/>
<path fill-rule="evenodd" clip-rule="evenodd" d="M50.8163 31.3982C51.3473 31.9292 51.3473 32.79 50.8163 33.321L35.9735 48.1632L27.3982 39.5879C26.8673 39.0569 26.8673 38.1961 27.3982 37.6651C27.9292 37.1342 28.79 37.1342 29.321 37.6651L35.9735 44.3176L48.8935 31.3982C49.4245 30.8673 50.2853 30.8673 50.8163 31.3982Z" fill="#0099FF"/>
<path d="M69.5781 56.3545C69.6605 55.882 70.3395 55.882 70.4219 56.3545L70.7744 58.3779C70.8055 58.5555 70.9445 58.6945 71.1221 58.7256L73.1455 59.0781C73.618 59.1605 73.618 59.8395 73.1455 59.9219L71.1221 60.2744C70.9445 60.3055 70.8055 60.4445 70.7744 60.6221L70.4219 62.6455C70.3395 63.118 69.6605 63.118 69.5781 62.6455L69.2256 60.6221C69.1945 60.4445 69.0555 60.3055 68.8779 60.2744L66.8545 59.9219C66.382 59.8395 66.382 59.1605 66.8545 59.0781L68.8779 58.7256C69.0555 58.6945 69.1945 58.5555 69.2256 58.3779L69.5781 56.3545ZM69.5781 16.3545C69.6605 15.882 70.3395 15.882 70.4219 16.3545L70.7744 18.3779C70.8055 18.5555 70.9445 18.6945 71.1221 18.7256L73.1455 19.0781C73.618 19.1605 73.618 19.8395 73.1455 19.9219L71.1221 20.2744C70.9445 20.3055 70.8055 20.4445 70.7744 20.6221L70.4219 22.6455C70.3395 23.118 69.6605 23.118 69.5781 22.6455L69.2256 20.6221C69.1945 20.4445 69.0555 20.3055 68.8779 20.2744L66.8545 19.9219C66.382 19.8395 66.382 19.1605 66.8545 19.0781L68.8779 18.7256C69.0555 18.6945 69.1945 18.5555 69.2256 18.3779L69.5781 16.3545ZM63.498 4.44434C63.6015 3.85187 64.4523 3.85183 64.5557 4.44434L64.998 6.98145C65.0369 7.20443 65.2116 7.37908 65.4346 7.41797L67.9717 7.86035C68.5642 7.96374 68.5641 8.81453 67.9717 8.91797L65.4346 9.36035C65.2116 9.39923 65.037 9.57394 64.998 9.79688L64.5557 12.334C64.4523 12.9266 63.6014 12.9266 63.498 12.334L63.0557 9.79688C63.0168 9.57393 62.8421 9.39925 62.6191 9.36035L60.082 8.91797C59.4894 8.81463 59.4894 7.9637 60.082 7.86035L62.6191 7.41797C62.8421 7.37905 63.0168 7.2044 63.0557 6.98145L63.498 4.44434ZM11.2383 4.35449C11.3207 3.88195 11.9996 3.88195 12.082 4.35449L12.4346 6.37793C12.4657 6.55545 12.6047 6.69448 12.7822 6.72559L14.8057 7.07812C15.2782 7.16053 15.2782 7.83947 14.8057 7.92188L12.7822 8.27441C12.6047 8.30552 12.4657 8.44455 12.4346 8.62207L12.082 10.6455C11.9996 11.118 11.3207 11.118 11.2383 10.6455L10.8857 8.62207C10.8546 8.44455 10.7156 8.30552 10.5381 8.27441L8.51465 7.92188C8.04211 7.83947 8.04211 7.16053 8.51465 7.07812L10.5381 6.72559C10.7156 6.69448 10.8546 6.55545 10.8857 6.37793L11.2383 4.35449Z" fill="#0099FF"/>
</svg>
