<svg width="20" height="20" viewBox="0 0 20 20" fill="none" xmlns="http://www.w3.org/2000/svg">
<path d="M4.92459 9.16697C4.32541 9.78717 3.9284 10.5758 3.78771 11.4277C3.64316 12.3035 3.77691 13.2031 4.16938 13.9993C4.56205 14.7954 5.19484 15.4492 5.97765 15.8678C6.76066 16.2863 7.65601 16.4491 8.53624 16.3333C9.41644 16.2173 10.2385 15.8286 10.8865 15.2217C10.9022 15.207 10.9166 15.191 10.9321 15.1761L11.9933 16.2373C11.9661 16.2638 11.9396 16.2911 11.9119 16.317C11.0351 17.1382 9.92253 17.6641 8.73155 17.8209C7.54066 17.9776 6.32981 17.7572 5.27045 17.1911C4.21127 16.6248 3.35548 15.7405 2.82417 14.6634C2.29296 13.5861 2.11263 12.3687 2.30821 11.1836C2.49996 10.0224 3.04349 8.94849 3.8642 8.10659L4.92459 9.16697Z" fill="#919191"/>
<path d="M3.46951 3.46954C3.7624 3.17665 4.23782 3.17665 4.53071 3.46954L16.5302 15.4699C16.8228 15.7628 16.823 16.2375 16.5302 16.5303C16.2374 16.823 15.7628 16.8228 15.4698 16.5303L3.46951 4.53074C3.17662 4.23785 3.17662 3.76244 3.46951 3.46954Z" fill="#919191"/>
<path d="M11.4716 2.17804C12.6625 2.0213 13.8733 2.24178 14.9327 2.80792C15.9921 3.37423 16.8485 4.25829 17.3798 5.33559C17.911 6.41296 18.0914 7.63024 17.8958 8.81541C17.7001 10.0006 17.1379 11.095 16.2885 11.9445C16.2712 11.9618 16.2525 11.9772 16.234 11.9925L15.1793 10.937C15.1943 10.9188 15.2103 10.9011 15.2273 10.8841C15.8551 10.2563 16.2708 9.44724 16.4155 8.57127C16.5601 7.69527 16.4264 6.79515 16.0338 5.99884C15.6411 5.20276 15.0084 4.54886 14.2255 4.13035C13.4426 3.71206 12.5478 3.54904 11.6678 3.66486C10.7876 3.78079 9.96551 4.16969 9.31749 4.77651C9.26617 4.82458 9.21564 4.87343 9.16694 4.92381L8.10655 3.86342C8.16686 3.8016 8.22886 3.74118 8.2921 3.68195C9.1688 2.8609 10.2808 2.33494 11.4716 2.17804Z" fill="#919191"/>
</svg>
