<svg width="12" height="12" viewBox="0 0 12 12" fill="none" xmlns="http://www.w3.org/2000/svg">
<path d="M2.15119 2.15094C2.34646 1.95583 2.66301 1.95575 2.85822 2.15094L6.00471 5.29645L9.15021 2.15192C9.34547 1.9567 9.66199 1.9567 9.85724 2.15192C10.0518 2.34723 10.0522 2.66393 9.85724 2.85895L6.71174 6.00445L9.85724 9.14996C10.0518 9.34529 10.0523 9.66295 9.85724 9.85797C9.66219 10.0526 9.3454 10.0514 9.15021 9.85699L6.00373 6.71051L2.85822 9.85699C2.66308 10.0521 2.34646 10.0519 2.15119 9.85699C1.95617 9.66174 1.95608 9.34516 2.15119 9.14996L5.2967 6.00348L2.15119 2.85797C1.95597 2.66274 1.95601 2.3462 2.15119 2.15094Z" fill="#0F0F0F"/>
</svg>
