<svg width="24" height="24" viewBox="0 0 24 24" fill="none" xmlns="http://www.w3.org/2000/svg">
<path d="M18.2918 4.2943C18.6823 3.90377 19.3153 3.90377 19.7059 4.2943C20.0959 4.68486 20.0962 5.31798 19.7059 5.70836L13.4139 12.0004L19.7059 18.2923C20.0959 18.6829 20.0962 19.316 19.7059 19.7064C19.3155 20.0965 18.6823 20.0964 18.2918 19.7064L11.9998 13.4144L5.70879 19.7064C5.31845 20.0967 4.68529 20.0964 4.29472 19.7064C3.90428 19.3159 3.90423 18.6828 4.29472 18.2923L10.5867 12.0004L4.29472 5.70836C3.9042 5.31784 3.9042 4.68482 4.29472 4.2943C4.68525 3.90378 5.31826 3.90378 5.70879 4.2943L11.9998 10.5853L18.2918 4.2943Z" fill="#0F0F0F"/>
</svg>
