<svg width="32" height="32" viewBox="0 0 32 32" fill="none" xmlns="http://www.w3.org/2000/svg">
<path d="M23.4394 6.44086C24.0252 5.85532 24.9748 5.85516 25.5605 6.44086C26.1455 7.02662 26.1458 7.97637 25.5605 8.56196L18.122 16.0004L25.5605 23.4399C26.1455 24.0256 26.1457 24.9754 25.5605 25.561C24.9749 26.1464 24.0252 26.1461 23.4394 25.561L16 18.1225L8.56148 25.561C7.97589 26.1465 7.02619 26.1461 6.44038 25.561C5.8548 24.9752 5.85476 24.0256 6.44038 23.4399L13.8789 16.0004L6.44038 8.56196C5.85464 7.97621 5.8547 7.02666 6.44038 6.44086C7.02619 5.85539 7.97579 5.85518 8.56148 6.44086L16 13.8793L23.4394 6.44086Z" fill="#0F0F0F"/>
</svg>
