<svg width="24" height="24" viewBox="0 0 24 24" fill="none" xmlns="http://www.w3.org/2000/svg">
<path d="M18.2918 4.29436C18.6823 3.90383 19.3153 3.90383 19.7059 4.29436C20.0959 4.68492 20.0962 5.31804 19.7059 5.70842L13.4139 12.0004L19.7059 18.2924C20.0959 18.6829 20.0962 19.3161 19.7059 19.7065C19.3155 20.0966 18.6823 20.0965 18.2918 19.7065L11.9998 13.4145L5.70879 19.7065C5.31845 20.0968 4.68529 20.0964 4.29472 19.7065C3.90428 19.3159 3.90423 18.6829 4.29472 18.2924L10.5867 12.0004L4.29472 5.70842C3.9042 5.3179 3.9042 4.68488 4.29472 4.29436C4.68525 3.90385 5.31826 3.90384 5.70879 4.29436L11.9998 10.5854L18.2918 4.29436Z" fill="#0F0F0F"/>
</svg>
