<svg width="20" height="20" viewBox="0 0 20 20" fill="none" xmlns="http://www.w3.org/2000/svg">
<path d="M3.71953 3.71917C4.01246 3.42716 4.48748 3.42673 4.78007 3.71917L9.9998 8.94182L15.2195 3.72307C15.5124 3.4307 15.9873 3.4304 16.2801 3.72307C16.5726 4.01582 16.5724 4.49076 16.2801 4.78362L11.0613 10.0024L16.2801 15.2192C16.5727 15.5118 16.5723 15.9868 16.2801 16.2797C15.9874 16.5726 15.5125 16.5731 15.2195 16.2807L9.9998 11.0629L4.78007 16.2836C4.48725 16.5763 4.0124 16.5762 3.71953 16.2836C3.42683 15.9908 3.42682 15.5159 3.71953 15.2231L8.93925 10.0024L3.71953 4.77971C3.42694 4.48677 3.42676 4.01193 3.71953 3.71917Z" fill="#0F0F0F"/>
</svg>
