<svg width="16" height="16" viewBox="0 0 16 16" fill="none" xmlns="http://www.w3.org/2000/svg">
<path d="M3.18262 3.18286C3.42671 2.93881 3.82332 2.9388 4.06739 3.18286L8 7.11743L11.9355 3.18286C12.1796 2.93911 12.5754 2.93893 12.8193 3.18286C13.0626 3.42689 13.0629 3.82278 12.8193 4.06665L8.88477 8.00122L12.8164 11.9338C13.0598 12.178 13.0602 12.5738 12.8164 12.8176C12.5726 13.0615 12.1767 13.061 11.9326 12.8176L8 8.88501L4.06641 12.8176C3.82244 13.0613 3.42663 13.0612 3.18262 12.8176C2.93903 12.5736 2.93985 12.1778 3.1836 11.9338L7.11621 8.00122L3.18262 4.06762C2.93865 3.82361 2.93879 3.42694 3.18262 3.18286Z" fill="#0F0F0F"/>
</svg>
