<?xml version="1.0" encoding="UTF-8"?>
<!--Generator: Apple Native CoreSVG 123-->
<!DOCTYPE svg
PUBLIC "-//W3C//DTD SVG 1.1//EN"
       "http://www.w3.org/Graphics/SVG/1.1/DTD/svg11.dtd">
<svg version="1.1" xmlns="http://www.w3.org/2000/svg" xmlns:xlink="http://www.w3.org/1999/xlink" width="3300" height="2200">
 <!--glyph: "uni100187.medium", point size: 100.000000, font version: "Version 15.0d7e11", template writer version: "5"-->
 <g id="Notes">
  <rect height="2200" id="artboard" style="fill:white;opacity:1" width="3300" x="0" y="0"/>
  <line id="" style="fill:none;stroke:black;opacity:1;stroke-width:0.5;" x1="263" x2="3036" y1="292" y2="292"/>
  <text style="stroke:none;fill:black;font-family:-apple-system,&quot;SF Pro Display&quot;,&quot;SF Pro Text&quot;,Helvetica,sans-serif;font-weight:bold;" transform="matrix(1 0 0 1 263 322)">Weight/Scale Variations</text>
  <text style="stroke:none;fill:black;font-family:-apple-system,&quot;SF Pro Display&quot;,&quot;SF Pro Text&quot;,Helvetica,sans-serif;text-anchor:middle;" transform="matrix(1 0 0 1 559.711 322)">Ultralight</text>
  <text style="stroke:none;fill:black;font-family:-apple-system,&quot;SF Pro Display&quot;,&quot;SF Pro Text&quot;,Helvetica,sans-serif;text-anchor:middle;" transform="matrix(1 0 0 1 856.422 322)">Thin</text>
  <text style="stroke:none;fill:black;font-family:-apple-system,&quot;SF Pro Display&quot;,&quot;SF Pro Text&quot;,Helvetica,sans-serif;text-anchor:middle;" transform="matrix(1 0 0 1 1153.13 322)">Light</text>
  <text style="stroke:none;fill:black;font-family:-apple-system,&quot;SF Pro Display&quot;,&quot;SF Pro Text&quot;,Helvetica,sans-serif;text-anchor:middle;" transform="matrix(1 0 0 1 1449.84 322)">Regular</text>
  <text style="stroke:none;fill:black;font-family:-apple-system,&quot;SF Pro Display&quot;,&quot;SF Pro Text&quot;,Helvetica,sans-serif;text-anchor:middle;" transform="matrix(1 0 0 1 1746.56 322)">Medium</text>
  <text style="stroke:none;fill:black;font-family:-apple-system,&quot;SF Pro Display&quot;,&quot;SF Pro Text&quot;,Helvetica,sans-serif;text-anchor:middle;" transform="matrix(1 0 0 1 2043.27 322)">Semibold</text>
  <text style="stroke:none;fill:black;font-family:-apple-system,&quot;SF Pro Display&quot;,&quot;SF Pro Text&quot;,Helvetica,sans-serif;text-anchor:middle;" transform="matrix(1 0 0 1 2339.98 322)">Bold</text>
  <text style="stroke:none;fill:black;font-family:-apple-system,&quot;SF Pro Display&quot;,&quot;SF Pro Text&quot;,Helvetica,sans-serif;text-anchor:middle;" transform="matrix(1 0 0 1 2636.69 322)">Heavy</text>
  <text style="stroke:none;fill:black;font-family:-apple-system,&quot;SF Pro Display&quot;,&quot;SF Pro Text&quot;,Helvetica,sans-serif;text-anchor:middle;" transform="matrix(1 0 0 1 2933.4 322)">Black</text>
  <line id="" style="fill:none;stroke:black;opacity:1;stroke-width:0.5;" x1="263" x2="3036" y1="1903" y2="1903"/>
  <g id="" transform="matrix(1 0 0 1 263 1933)">
   <path d="M 9.24805 0.830078 C 13.5547 0.830078 17.1387 -2.74414 17.1387 -7.05078 C 17.1387 -11.3574 13.5449 -14.9316 9.23828 -14.9316 C 4.94141 -14.9316 1.36719 -11.3574 1.36719 -7.05078 C 1.36719 -2.74414 4.95117 0.830078 9.24805 0.830078 Z M 9.24805 -0.654297 C 5.70312 -0.654297 2.87109 -3.49609 2.87109 -7.05078 C 2.87109 -10.6055 5.69336 -13.4473 9.23828 -13.4473 C 12.793 -13.4473 15.6348 -10.6055 15.6445 -7.05078 C 15.6543 -3.49609 12.8027 -0.654297 9.24805 -0.654297 Z M 9.22852 -3.42773 C 9.69727 -3.42773 9.9707 -3.74023 9.9707 -4.25781 L 9.9707 -6.31836 L 12.1973 -6.31836 C 12.6953 -6.31836 13.0371 -6.57227 13.0371 -7.04102 C 13.0371 -7.51953 12.7148 -7.7832 12.1973 -7.7832 L 9.9707 -7.7832 L 9.9707 -10.0098 C 9.9707 -10.5273 9.69727 -10.8496 9.22852 -10.8496 C 8.75977 -10.8496 8.50586 -10.5078 8.50586 -10.0098 L 8.50586 -7.7832 L 6.29883 -7.7832 C 5.78125 -7.7832 5.44922 -7.51953 5.44922 -7.04102 C 5.44922 -6.57227 5.80078 -6.31836 6.29883 -6.31836 L 8.50586 -6.31836 L 8.50586 -4.25781 C 8.50586 -3.75977 8.75977 -3.42773 9.22852 -3.42773 Z"/>
  </g>
  <g id="" transform="matrix(1 0 0 1 281.506 1933)">
   <path d="M 11.709 2.91016 C 17.1582 2.91016 21.6699 -1.60156 21.6699 -7.05078 C 21.6699 -12.4902 17.1484 -17.0117 11.6992 -17.0117 C 6.25977 -17.0117 1.74805 -12.4902 1.74805 -7.05078 C 1.74805 -1.60156 6.26953 2.91016 11.709 2.91016 Z M 11.709 1.25 C 7.09961 1.25 3.41797 -2.44141 3.41797 -7.05078 C 3.41797 -11.6504 7.08984 -15.3516 11.6992 -15.3516 C 16.3086 -15.3516 20 -11.6504 20.0098 -7.05078 C 20.0195 -2.44141 16.3184 1.25 11.709 1.25 Z M 11.6895 -2.41211 C 12.207 -2.41211 12.5195 -2.77344 12.5195 -3.33984 L 12.5195 -6.23047 L 15.5762 -6.23047 C 16.123 -6.23047 16.5039 -6.51367 16.5039 -7.03125 C 16.5039 -7.55859 16.1426 -7.86133 15.5762 -7.86133 L 12.5195 -7.86133 L 12.5195 -10.9277 C 12.5195 -11.5039 12.207 -11.8555 11.6895 -11.8555 C 11.1719 -11.8555 10.8789 -11.4844 10.8789 -10.9277 L 10.8789 -7.86133 L 7.83203 -7.86133 C 7.26562 -7.86133 6.89453 -7.55859 6.89453 -7.03125 C 6.89453 -6.51367 7.28516 -6.23047 7.83203 -6.23047 L 10.8789 -6.23047 L 10.8789 -3.33984 C 10.8789 -2.79297 11.1719 -2.41211 11.6895 -2.41211 Z"/>
  </g>
  <g id="" transform="matrix(1 0 0 1 304.924 1933)">
   <path d="M 14.9707 5.67383 C 21.9336 5.67383 27.6953 -0.078125 27.6953 -7.04102 C 27.6953 -14.0039 21.9238 -19.7559 14.9609 -19.7559 C 8.00781 -19.7559 2.25586 -14.0039 2.25586 -7.04102 C 2.25586 -0.078125 8.01758 5.67383 14.9707 5.67383 Z M 14.9707 3.85742 C 8.93555 3.85742 4.08203 -1.00586 4.08203 -7.04102 C 4.08203 -13.0762 8.92578 -17.9395 14.9609 -17.9395 C 21.0059 -17.9395 25.8594 -13.0762 25.8691 -7.04102 C 25.8789 -1.00586 21.0156 3.85742 14.9707 3.85742 Z M 14.9512 -1.06445 C 15.5176 -1.06445 15.8691 -1.45508 15.8691 -2.06055 L 15.8691 -6.13281 L 20.1074 -6.13281 C 20.6934 -6.13281 21.1133 -6.46484 21.1133 -7.02148 C 21.1133 -7.59766 20.7227 -7.93945 20.1074 -7.93945 L 15.8691 -7.93945 L 15.8691 -12.1875 C 15.8691 -12.8027 15.5176 -13.1934 14.9512 -13.1934 C 14.3848 -13.1934 14.0625 -12.7832 14.0625 -12.1875 L 14.0625 -7.93945 L 9.83398 -7.93945 C 9.21875 -7.93945 8.80859 -7.59766 8.80859 -7.02148 C 8.80859 -6.46484 9.23828 -6.13281 9.83398 -6.13281 L 14.0625 -6.13281 L 14.0625 -2.06055 C 14.0625 -1.47461 14.3848 -1.06445 14.9512 -1.06445 Z"/>
  </g>
  <text style="stroke:none;fill:black;font-family:-apple-system,&quot;SF Pro Display&quot;,&quot;SF Pro Text&quot;,Helvetica,sans-serif;font-weight:bold;" transform="matrix(1 0 0 1 263 1953)">Design Variations</text>
  <text style="stroke:none;fill:black;font-family:-apple-system,&quot;SF Pro Display&quot;,&quot;SF Pro Text&quot;,Helvetica,sans-serif;" transform="matrix(1 0 0 1 263 1971)">Symbols are supported in up to nine weights and three scales.</text>
  <text style="stroke:none;fill:black;font-family:-apple-system,&quot;SF Pro Display&quot;,&quot;SF Pro Text&quot;,Helvetica,sans-serif;" transform="matrix(1 0 0 1 263 1989)">For optimal layout with text and other symbols, vertically align</text>
  <text style="stroke:none;fill:black;font-family:-apple-system,&quot;SF Pro Display&quot;,&quot;SF Pro Text&quot;,Helvetica,sans-serif;" transform="matrix(1 0 0 1 263 2007)">symbols with the adjacent text.</text>
  <rect height="14" id="" style="fill:#00AEEF;stroke:none;opacity:0.4;" width="3" x="776" y="1919"/>
  <g id="" transform="matrix(1 0 0 1 779 1933)">
   <path d="M 10.5273 0 L 12.373 0 L 7.17773 -14.0918 L 5.43945 -14.0918 L 0.244141 0 L 2.08984 0 L 3.50586 -4.0332 L 9.11133 -4.0332 Z M 6.2793 -11.9531 L 6.33789 -11.9531 L 8.59375 -5.52734 L 4.02344 -5.52734 Z"/>
  </g>
  <rect height="14" id="" style="fill:#00AEEF;stroke:none;opacity:0.4;" width="3" x="791.617" y="1919"/>
  <text style="stroke:none;fill:black;font-family:-apple-system,&quot;SF Pro Display&quot;,&quot;SF Pro Text&quot;,Helvetica,sans-serif;font-weight:bold;" transform="matrix(1 0 0 1 776 1953)">Margins</text>
  <text style="stroke:none;fill:black;font-family:-apple-system,&quot;SF Pro Display&quot;,&quot;SF Pro Text&quot;,Helvetica,sans-serif;" transform="matrix(1 0 0 1 776 1971)">Leading and trailing margins on the left and right side of each symbol</text>
  <text style="stroke:none;fill:black;font-family:-apple-system,&quot;SF Pro Display&quot;,&quot;SF Pro Text&quot;,Helvetica,sans-serif;" transform="matrix(1 0 0 1 776 1989)">can be adjusted by modifying the width of the blue rectangles.</text>
  <text style="stroke:none;fill:black;font-family:-apple-system,&quot;SF Pro Display&quot;,&quot;SF Pro Text&quot;,Helvetica,sans-serif;" transform="matrix(1 0 0 1 776 2007)">Modifications are automatically applied proportionally to all</text>
  <text style="stroke:none;fill:black;font-family:-apple-system,&quot;SF Pro Display&quot;,&quot;SF Pro Text&quot;,Helvetica,sans-serif;" transform="matrix(1 0 0 1 776 2025)">scales and weights.</text>
  <g id="" transform="matrix(1 0 0 1 1289 1933)">
   <path d="M 2.83203 3.11523 L 4.375 4.6582 C 5.22461 5.48828 6.19141 5.41992 7.06055 4.46289 L 17.2754 -6.66016 C 17.7051 -6.36719 18.0957 -6.37695 18.5645 -6.47461 L 19.6094 -6.68945 L 20.3027 -5.99609 L 20.2539 -5.47852 C 20.1855 -4.95117 20.3516 -4.53125 20.8496 -4.0332 L 21.6602 -3.22266 C 22.168 -2.71484 22.8223 -2.68555 23.3008 -3.16406 L 26.5527 -6.41602 C 27.0312 -6.89453 27.0117 -7.54883 26.5039 -8.05664 L 25.6836 -8.87695 C 25.1855 -9.375 24.7754 -9.55078 24.2383 -9.47266 L 23.7109 -9.41406 L 23.0566 -10.0781 L 23.3398 -11.2207 C 23.4863 -11.7871 23.3398 -12.2559 22.7148 -12.8613 L 20.3027 -15.2539 C 16.7578 -18.7793 12.2266 -18.6719 9.11133 -15.5371 C 8.69141 -15.1074 8.64258 -14.5215 8.91602 -14.0918 C 9.15039 -13.7207 9.62891 -13.4961 10.2734 -13.6621 C 11.7871 -14.043 13.3008 -13.9258 14.7852 -12.9199 L 14.1602 -11.3379 C 13.9258 -10.752 13.9453 -10.2734 14.1797 -9.83398 L 3.01758 0.439453 C 2.08008 1.30859 1.97266 2.25586 2.83203 3.11523 Z M 10.6738 -15.1465 C 13.3398 -17.1387 16.6504 -16.8262 19.0527 -14.4141 L 21.6797 -11.8066 C 21.9141 -11.5723 21.9434 -11.3867 21.8848 -11.0938 L 21.5039 -9.53125 L 23.0762 -7.95898 L 24.043 -8.04688 C 24.3262 -8.07617 24.4141 -8.05664 24.6387 -7.83203 L 25.2637 -7.20703 L 22.5098 -4.46289 L 21.8848 -5.07812 C 21.6602 -5.30273 21.6406 -5.40039 21.6699 -5.68359 L 21.7578 -6.64062 L 20.1953 -8.20312 L 18.5742 -7.89062 C 18.291 -7.83203 18.1445 -7.83203 17.9102 -8.07617 L 15.7324 -10.2539 C 15.5078 -10.4883 15.4785 -10.625 15.6055 -10.9473 L 16.5527 -13.2227 C 14.9512 -14.7559 12.8418 -15.6055 10.8008 -14.9512 C 10.7129 -14.9219 10.6445 -14.9414 10.6152 -14.9805 C 10.5859 -15.0293 10.5859 -15.0781 10.6738 -15.1465 Z M 4.10156 2.41211 C 3.61328 1.91406 3.78906 1.61133 4.12109 1.30859 L 15.0781 -8.80859 L 16.3086 -7.57812 L 6.15234 3.34961 C 5.84961 3.68164 5.46875 3.7793 5.06836 3.37891 Z"/>
  </g>
  <text style="stroke:none;fill:black;font-family:-apple-system,&quot;SF Pro Display&quot;,&quot;SF Pro Text&quot;,Helvetica,sans-serif;font-weight:bold;" transform="matrix(1 0 0 1 1289 1953)">Exporting</text>
  <text style="stroke:none;fill:black;font-family:-apple-system,&quot;SF Pro Display&quot;,&quot;SF Pro Text&quot;,Helvetica,sans-serif;" transform="matrix(1 0 0 1 1289 1971)">Symbols should be outlined when exporting to ensure the</text>
  <text style="stroke:none;fill:black;font-family:-apple-system,&quot;SF Pro Display&quot;,&quot;SF Pro Text&quot;,Helvetica,sans-serif;" transform="matrix(1 0 0 1 1289 1989)">design is preserved when submitting to Xcode.</text>
  <text id="template-version" style="stroke:none;fill:black;font-family:-apple-system,&quot;SF Pro Display&quot;,&quot;SF Pro Text&quot;,Helvetica,sans-serif;text-anchor:end;" transform="matrix(1 0 0 1 3036 1933)">Template v.1.0</text>
  <text style="stroke:none;fill:black;font-family:-apple-system,&quot;SF Pro Display&quot;,&quot;SF Pro Text&quot;,Helvetica,sans-serif;text-anchor:end;" transform="matrix(1 0 0 1 3036 1951)">Generated from chevron.up</text>
  <text style="stroke:none;fill:black;font-family:-apple-system,&quot;SF Pro Display&quot;,&quot;SF Pro Text&quot;,Helvetica,sans-serif;text-anchor:end;" transform="matrix(1 0 0 1 3036 1969)">Typeset at 100 points</text>
  <text style="stroke:none;fill:black;font-family:-apple-system,&quot;SF Pro Display&quot;,&quot;SF Pro Text&quot;,Helvetica,sans-serif;" transform="matrix(1 0 0 1 263 726)">Small</text>
  <text style="stroke:none;fill:black;font-family:-apple-system,&quot;SF Pro Display&quot;,&quot;SF Pro Text&quot;,Helvetica,sans-serif;" transform="matrix(1 0 0 1 263 1156)">Medium</text>
  <text style="stroke:none;fill:black;font-family:-apple-system,&quot;SF Pro Display&quot;,&quot;SF Pro Text&quot;,Helvetica,sans-serif;" transform="matrix(1 0 0 1 263 1586)">Large</text>
 </g>
 <g id="Guides">
  <g id="H-reference" style="fill:#27AAE1;stroke:none;" transform="matrix(1 0 0 1 339 696)">
   <path d="M 54.9316 0 L 57.666 0 L 30.5664 -70.459 L 28.0762 -70.459 L 0.976562 0 L 3.66211 0 L 12.9395 -24.4629 L 45.7031 -24.4629 Z M 29.1992 -67.0898 L 29.4434 -67.0898 L 44.8242 -26.709 L 13.8184 -26.709 Z"/>
  </g>
  <line id="Baseline-S" style="fill:none;stroke:#27AAE1;opacity:1;stroke-width:0.577;" x1="263" x2="3036" y1="696" y2="696"/>
  <line id="Capline-S" style="fill:none;stroke:#27AAE1;opacity:1;stroke-width:0.577;" x1="263" x2="3036" y1="625.541" y2="625.541"/>
  <g id="H-reference" style="fill:#27AAE1;stroke:none;" transform="matrix(1 0 0 1 339 1126)">
   <path d="M 54.9316 0 L 57.666 0 L 30.5664 -70.459 L 28.0762 -70.459 L 0.976562 0 L 3.66211 0 L 12.9395 -24.4629 L 45.7031 -24.4629 Z M 29.1992 -67.0898 L 29.4434 -67.0898 L 44.8242 -26.709 L 13.8184 -26.709 Z"/>
  </g>
  <line id="Baseline-M" style="fill:none;stroke:#27AAE1;opacity:1;stroke-width:0.577;" x1="263" x2="3036" y1="1126" y2="1126"/>
  <line id="Capline-M" style="fill:none;stroke:#27AAE1;opacity:1;stroke-width:0.577;" x1="263" x2="3036" y1="1055.54" y2="1055.54"/>
  <g id="H-reference" style="fill:#27AAE1;stroke:none;" transform="matrix(1 0 0 1 339 1556)">
   <path d="M 54.9316 0 L 57.666 0 L 30.5664 -70.459 L 28.0762 -70.459 L 0.976562 0 L 3.66211 0 L 12.9395 -24.4629 L 45.7031 -24.4629 Z M 29.1992 -67.0898 L 29.4434 -67.0898 L 44.8242 -26.709 L 13.8184 -26.709 Z"/>
  </g>
  <line id="Baseline-L" style="fill:none;stroke:#27AAE1;opacity:1;stroke-width:0.577;" x1="263" x2="3036" y1="1556" y2="1556"/>
  <line id="Capline-L" style="fill:none;stroke:#27AAE1;opacity:1;stroke-width:0.577;" x1="263" x2="3036" y1="1485.54" y2="1485.54"/>
  <rect height="119.336" id="left-margin" style="fill:#00AEEF;stroke:none;opacity:0.4;" width="12.4512" x="1394.99" y="1030.79"/>
  <rect height="119.336" id="right-margin" style="fill:#00AEEF;stroke:none;opacity:0.4;" width="12.4512" x="1492.25" y="1030.79"/>
 </g>
 <g id="Symbols">
  <g id="Black-L" transform="matrix(1 0 0 1 2857.5 1556)">
   <path d="M 19.6289 -21.9238 C 17.2363 -19.4336 16.0645 -16.5527 16.0645 -13.1348 C 16.0645 -6.05469 21.8262 -0.195312 28.8086 -0.195312 C 32.373 -0.195312 35.6934 -1.66016 38.3301 -4.44336 L 76.0254 -43.1641 L 113.525 -4.44336 C 116.162 -1.61133 119.482 -0.195312 122.998 -0.195312 C 129.932 -0.195312 135.742 -6.05469 135.742 -13.1348 C 135.742 -16.6504 134.619 -19.5312 132.129 -21.9238 L 86.6699 -68.2129 C 83.3008 -71.582 80.0781 -73.0469 75.9277 -73.1445 C 71.875 -73.1445 68.5547 -71.6309 65.1855 -68.2129 Z"/>
  </g>
  <g id="Heavy-L" transform="matrix(1 0 0 1 2562.32 1556)">
   <path d="M 19.1406 -20.459 C 17.0898 -18.3105 16.0645 -15.8203 16.0645 -12.8906 C 16.0645 -6.83594 20.9961 -1.85547 26.9531 -1.85547 C 29.9805 -1.85547 32.8125 -3.125 35.0586 -5.41992 L 74.4629 -46.0938 L 113.721 -5.41992 C 115.967 -3.07617 118.799 -1.85547 121.777 -1.85547 C 127.734 -1.85547 132.666 -6.83594 132.666 -12.8906 C 132.666 -15.8691 131.689 -18.3594 129.59 -20.459 L 83.4473 -67.627 C 80.6641 -70.459 77.8809 -71.7285 74.3652 -71.7773 C 70.9473 -71.7773 68.1152 -70.5078 65.2832 -67.627 Z"/>
  </g>
  <g id="Bold-L" transform="matrix(1 0 0 1 2267.32 1556)">
   <path d="M 18.6035 -18.75 C 16.9434 -17.0898 16.0645 -15.0391 16.0645 -12.5977 C 16.0645 -7.66602 20.0195 -3.71094 24.8535 -3.71094 C 27.3438 -3.71094 29.5898 -4.6875 31.3477 -6.54297 L 72.7051 -49.3164 L 113.965 -6.54297 C 115.723 -4.6875 118.018 -3.71094 120.41 -3.71094 C 125.293 -3.71094 129.248 -7.66602 129.248 -12.5977 C 129.248 -15.0391 128.369 -17.0898 126.709 -18.75 L 79.8828 -66.9922 C 77.7344 -69.1895 75.4395 -70.2148 72.6562 -70.2637 C 69.9219 -70.2637 67.627 -69.2383 65.4297 -66.9922 Z"/>
  </g>
  <g id="Semibold-L" transform="matrix(1 0 0 1 1971.81 1556)">
   <path d="M 18.2129 -17.627 C 16.8457 -16.2109 16.0645 -14.4531 16.0645 -12.4512 C 16.0645 -8.30078 19.3359 -4.98047 23.4375 -4.98047 C 25.4883 -4.98047 27.3926 -5.81055 28.8086 -7.27539 L 71.4844 -51.5625 L 114.111 -7.27539 C 115.527 -5.76172 117.48 -4.98047 119.482 -4.98047 C 123.584 -4.98047 126.855 -8.30078 126.855 -12.4512 C 126.855 -14.502 126.123 -16.2109 124.707 -17.5781 L 77.4414 -66.5039 C 75.6836 -68.3105 73.7305 -69.1895 71.4355 -69.2383 C 69.1895 -69.2383 67.2852 -68.3594 65.5273 -66.5527 Z"/>
  </g>
  <g id="Medium-L" transform="matrix(1 0 0 1 1676 1556)">
   <path d="M 17.9199 -16.748 C 16.748 -15.5273 16.0645 -14.0625 16.0645 -12.3047 C 16.0645 -8.74023 18.8477 -5.95703 22.3633 -5.95703 C 24.0723 -5.95703 25.7324 -6.64062 26.9043 -7.86133 L 70.6055 -53.2227 L 114.209 -7.86133 C 115.381 -6.64062 117.09 -5.95703 118.75 -5.95703 C 122.314 -5.95703 125.049 -8.74023 125.049 -12.3047 C 125.049 -14.0625 124.414 -15.5273 123.242 -16.6992 L 75.5371 -66.1621 C 74.1699 -67.627 72.4609 -68.4082 70.5566 -68.4082 C 68.6523 -68.4082 67.041 -67.6758 65.5762 -66.1621 Z"/>
  </g>
  <g id="Regular-L" transform="matrix(1 0 0 1 1380.46 1556)">
   <path d="M 17.5293 -15.5762 C 16.6504 -14.6973 16.0645 -13.4766 16.0645 -12.1094 C 16.0645 -9.32617 18.1641 -7.22656 20.9473 -7.22656 C 22.2656 -7.22656 23.5352 -7.71484 24.3652 -8.64258 L 69.3848 -55.4199 L 114.355 -8.64258 C 115.234 -7.71484 116.553 -7.22656 117.822 -7.22656 C 120.605 -7.22656 122.705 -9.32617 122.705 -12.1094 C 122.705 -13.4766 122.168 -14.6484 121.24 -15.5762 L 73.0957 -65.7227 C 72.1191 -66.748 70.8008 -67.3828 69.3848 -67.3828 C 67.9688 -67.3828 66.6992 -66.7969 65.6738 -65.7227 Z"/>
  </g>
  <g id="Light-L" transform="matrix(1 0 0 1 1085.65 1556)">
   <path d="M 17.2363 -13.916 C 16.5527 -13.2324 16.0645 -12.3535 16.0645 -11.2793 C 16.0645 -9.22852 17.6758 -7.66602 19.7266 -7.66602 C 20.7031 -7.66602 21.6797 -7.95898 22.3145 -8.69141 L 67.4805 -56.7871 L 112.598 -8.69141 C 113.281 -7.95898 114.258 -7.66602 115.234 -7.66602 C 117.285 -7.66602 118.896 -9.22852 118.896 -11.2793 C 118.896 -12.3535 118.457 -13.1836 117.773 -13.8672 L 70.459 -64.3555 C 69.6777 -65.1855 68.6035 -65.7715 67.4316 -65.7715 C 66.3086 -65.7715 65.332 -65.2832 64.4531 -64.4043 Z"/>
  </g>
  <g id="Thin-L" transform="matrix(1 0 0 1 791.481 1556)">
   <path d="M 16.7969 -11.7188 C 16.4062 -11.2793 16.0645 -10.8398 16.0645 -10.2051 C 16.0645 -9.08203 16.9922 -8.20312 18.1152 -8.20312 C 18.6035 -8.20312 19.1895 -8.30078 19.5312 -8.74023 L 64.9902 -58.6426 L 110.303 -8.74023 C 110.693 -8.30078 111.279 -8.20312 111.816 -8.20312 C 112.939 -8.20312 113.818 -9.08203 113.818 -10.2051 C 113.818 -10.8398 113.525 -11.1816 113.135 -11.6699 L 66.9922 -62.5488 C 66.4062 -63.1348 65.7227 -63.6719 64.8926 -63.6719 C 64.1113 -63.6719 63.5254 -63.2324 62.8906 -62.5977 Z"/>
  </g>
  <g id="Ultralight-L" transform="matrix(1 0 0 1 496.064 1556)">
   <path d="M 16.6016 -10.5957 C 16.3574 -10.2539 16.0645 -10.0586 16.0645 -9.66797 C 16.0645 -9.0332 16.6016 -8.44727 17.2852 -8.44727 C 17.5781 -8.44727 17.9688 -8.49609 18.1152 -8.74023 L 63.6719 -59.6191 L 109.082 -8.74023 C 109.375 -8.49609 109.717 -8.44727 110.01 -8.44727 C 110.693 -8.44727 111.23 -9.0332 111.23 -9.66797 C 111.23 -10.0586 111.035 -10.1562 110.791 -10.498 L 65.2344 -61.6211 C 64.6973 -62.1094 64.2578 -62.5488 63.623 -62.5488 C 62.9883 -62.5488 62.5977 -62.207 62.0605 -61.6699 Z"/>
  </g>
  <g id="Black-M" transform="matrix(1 0 0 1 2873.54 1126)">
   <path d="M 15.7227 -26.0742 C 13.5254 -23.7305 12.4512 -21.1426 12.4512 -17.9688 C 12.4512 -11.4746 17.8223 -6.05469 24.2188 -6.05469 C 27.4902 -6.05469 30.5176 -7.42188 33.0566 -10.0586 L 60.0098 -38.2324 L 86.7676 -10.0586 C 89.3066 -7.37305 92.334 -6.05469 95.5566 -6.05469 C 101.904 -6.05469 107.275 -11.4746 107.275 -17.9688 C 107.275 -21.1914 106.299 -23.7793 104.004 -26.0742 L 70.0684 -60.8887 C 66.7969 -64.1113 63.8184 -65.5273 59.9121 -65.5762 C 56.0547 -65.5762 53.0273 -64.1602 49.707 -60.8887 Z"/>
  </g>
  <g id="Heavy-M" transform="matrix(1 0 0 1 2578 1126)">
   <path d="M 15.2832 -24.8535 C 13.3789 -22.9004 12.4512 -20.6543 12.4512 -17.9199 C 12.4512 -12.3535 16.9922 -7.76367 22.4609 -7.76367 C 25.293 -7.76367 27.8809 -8.93555 29.9805 -11.1328 L 58.7891 -41.0156 L 87.4512 -11.1328 C 89.5508 -8.88672 92.1387 -7.76367 94.9219 -7.76367 C 100.391 -7.76367 104.932 -12.3535 104.932 -17.9199 C 104.932 -20.7031 104.053 -22.9492 102.1 -24.8535 L 67.2852 -60.5957 C 64.5508 -63.2812 62.0117 -64.4531 58.6914 -64.502 C 55.4688 -64.502 52.8809 -63.3301 50.1465 -60.5957 Z"/>
  </g>
  <g id="Bold-M" transform="matrix(1 0 0 1 2282.6 1126)">
   <path d="M 14.7461 -23.5352 C 13.2324 -21.9238 12.4512 -20.0684 12.4512 -17.8711 C 12.4512 -13.3789 16.1133 -9.66797 20.5566 -9.66797 C 22.8027 -9.66797 24.9023 -10.5957 26.5625 -12.3047 L 57.4219 -44.1895 L 88.1836 -12.3047 C 89.8438 -10.5469 91.9922 -9.66797 94.1895 -9.66797 C 98.6328 -9.66797 102.295 -13.3789 102.295 -17.8711 C 102.295 -20.1172 101.562 -21.9727 100 -23.4863 L 64.1113 -60.2539 C 62.0605 -62.3535 59.9609 -63.2812 57.373 -63.3301 C 54.834 -63.3301 52.7344 -62.3535 50.6348 -60.2539 Z"/>
  </g>
  <g id="Semibold-M" transform="matrix(1 0 0 1 1986.8 1126)">
   <path d="M 14.4043 -22.5586 C 13.1348 -21.2891 12.4512 -19.6777 12.4512 -17.8223 C 12.4512 -14.0625 15.4785 -10.9863 19.2383 -10.9863 C 21.1426 -10.9863 22.8516 -11.7676 24.2188 -13.1348 L 56.4941 -46.3379 L 88.7207 -13.1348 C 90.0391 -11.7188 91.8457 -10.9863 93.7012 -10.9863 C 97.4609 -10.9863 100.488 -14.0625 100.488 -17.8223 C 100.488 -19.7266 99.8047 -21.2891 98.5352 -22.5586 L 61.9629 -60.0098 C 60.3516 -61.6699 58.5449 -62.5 56.4453 -62.5 C 54.3945 -62.5 52.6367 -61.7188 50.9766 -60.0586 Z"/>
  </g>
  <g id="Medium-M" transform="matrix(1 0 0 1 1690.79 1126)">
   <path d="M 14.1113 -21.875 C 13.0371 -20.8008 12.4512 -19.3848 12.4512 -17.8223 C 12.4512 -14.5508 14.9902 -12.0117 18.2129 -12.0117 C 19.8242 -12.0117 21.3379 -12.6465 22.4121 -13.7695 L 55.8105 -47.998 L 89.1113 -13.7695 C 90.2344 -12.5977 91.748 -12.0117 93.3105 -12.0117 C 96.5332 -12.0117 99.0723 -14.5508 99.0723 -17.8223 C 99.0723 -19.4336 98.4863 -20.8008 97.4121 -21.875 L 60.3027 -59.8633 C 59.0332 -61.1816 57.4707 -61.8652 55.7617 -61.8652 C 54.0527 -61.8652 52.5391 -61.2305 51.2695 -59.8633 Z"/>
  </g>
  <g id="Regular-M" transform="matrix(1 0 0 1 1394.99 1126)">
   <path d="M 13.7695 -20.9473 C 12.9395 -20.166 12.4512 -19.043 12.4512 -17.7734 C 12.4512 -15.2344 14.3555 -13.3301 16.8945 -13.3301 C 18.1641 -13.3301 19.3359 -13.7695 20.0684 -14.5996 L 54.8828 -50.1465 L 89.6484 -14.5996 C 90.4297 -13.7695 91.6016 -13.3301 92.8223 -13.3301 C 95.3613 -13.3301 97.2656 -15.2344 97.2656 -17.7734 C 97.2656 -19.043 96.7773 -20.166 95.9473 -20.9473 L 58.1543 -59.6191 C 57.3242 -60.5469 56.1035 -61.084 54.8828 -61.084 C 53.6133 -61.084 52.4414 -60.5469 51.5625 -59.6191 Z"/>
  </g>
  <g id="Light-M" transform="matrix(1 0 0 1 1099.98 1126)">
   <path d="M 13.4766 -19.4824 C 12.8418 -18.8477 12.4512 -18.0176 12.4512 -17.041 C 12.4512 -15.1367 13.916 -13.6719 15.8203 -13.6719 C 16.748 -13.6719 17.627 -14.0137 18.2129 -14.6484 L 53.1738 -51.3184 L 88.0371 -14.6484 C 88.6719 -14.0137 89.5996 -13.6719 90.4785 -13.6719 C 92.3828 -13.6719 93.8477 -15.1367 93.8477 -17.041 C 93.8477 -18.0176 93.457 -18.7988 92.8223 -19.4336 L 55.8105 -58.3984 C 55.0781 -59.1797 54.1504 -59.6191 53.125 -59.6191 C 52.0996 -59.6191 51.2207 -59.1797 50.4883 -58.4473 Z"/>
  </g>
  <g id="Thin-M" transform="matrix(1 0 0 1 805.543 1126)">
   <path d="M 13.1348 -17.4805 C 12.7441 -17.0898 12.4512 -16.6504 12.4512 -16.0645 C 12.4512 -14.9902 13.2812 -14.1602 14.3555 -14.1602 C 14.8926 -14.1602 15.4297 -14.3066 15.7227 -14.6973 L 50.9277 -52.9785 L 85.9863 -14.6973 C 86.3281 -14.3066 86.8652 -14.1602 87.4023 -14.1602 C 88.4766 -14.1602 89.3066 -14.9902 89.3066 -16.0645 C 89.3066 -16.6504 89.0625 -17.041 88.6719 -17.4316 L 52.6855 -56.7871 C 52.1484 -57.3242 51.5625 -57.7148 50.8789 -57.7148 C 50.1465 -57.7148 49.6094 -57.373 49.0723 -56.8359 Z"/>
  </g>
  <g id="Ultralight-M" transform="matrix(1 0 0 1 509.98 1126)">
   <path d="M 12.9395 -16.5039 C 12.6953 -16.1621 12.4512 -15.9668 12.4512 -15.5762 C 12.4512 -14.9414 12.9883 -14.4043 13.623 -14.4043 C 13.916 -14.4043 14.3066 -14.4531 14.4531 -14.6973 L 49.7559 -53.8086 L 84.9121 -14.6973 C 85.1562 -14.4531 85.498 -14.4043 85.791 -14.4043 C 86.4746 -14.4043 87.0117 -14.9414 87.0117 -15.5762 C 87.0117 -15.9668 86.8164 -16.1133 86.5723 -16.4062 L 51.0742 -55.957 C 50.6348 -56.3965 50.2441 -56.7383 49.707 -56.7383 C 49.1211 -56.7383 48.7793 -56.4453 48.3398 -56.0059 Z"/>
  </g>
  <g id="Black-S" transform="matrix(1 0 0 1 2886.55 696)">
   <path d="M 12.3047 -27.9785 C 10.5957 -26.1719 9.76562 -24.1699 9.76562 -21.7285 C 9.76562 -16.6992 13.916 -12.5 18.8477 -12.5 C 21.3867 -12.5 23.7305 -13.5742 25.6836 -15.5762 L 46.9238 -37.793 L 68.0664 -15.5762 C 70.0195 -13.5254 72.3633 -12.5 74.8535 -12.5 C 79.7852 -12.5 83.9355 -16.6992 83.9355 -21.7285 C 83.9355 -24.2188 83.1543 -26.2207 81.3965 -27.9785 L 54.7363 -55.3223 C 52.1973 -57.8125 49.9023 -58.8867 46.875 -58.9355 C 43.8965 -58.9355 41.5527 -57.8613 39.0137 -55.3223 Z"/>
  </g>
  <g id="Heavy-S" transform="matrix(1 0 0 1 2590.55 696)">
   <path d="M 11.9629 -27.1973 C 10.498 -25.6836 9.76562 -23.9258 9.76562 -21.7773 C 9.76562 -17.3828 13.3301 -13.7695 17.6758 -13.7695 C 19.873 -13.7695 21.875 -14.6973 23.5352 -16.4062 L 46.1914 -39.7949 L 68.75 -16.4062 C 70.4102 -14.6484 72.4609 -13.7695 74.6094 -13.7695 C 78.9062 -13.7695 82.5195 -17.3828 82.5195 -21.7773 C 82.5195 -23.9258 81.7871 -25.7324 80.2734 -27.1973 L 52.832 -55.2246 C 50.7324 -57.3242 48.7305 -58.252 46.1426 -58.3008 C 43.6035 -58.3008 41.6016 -57.373 39.4531 -55.2246 Z"/>
  </g>
  <g id="Bold-S" transform="matrix(1 0 0 1 2294.64 696)">
   <path d="M 11.6211 -26.3672 C 10.4004 -25.0977 9.76562 -23.584 9.76562 -21.8262 C 9.76562 -18.1641 12.6953 -15.1855 16.3086 -15.1855 C 18.1641 -15.1855 19.8242 -15.918 21.1914 -17.334 L 45.3613 -42.041 L 69.5312 -17.334 C 70.8496 -15.918 72.5586 -15.1855 74.3652 -15.1855 C 77.9785 -15.1855 80.9082 -18.1641 80.9082 -21.8262 C 80.9082 -23.6328 80.3223 -25.1465 79.0527 -26.3672 L 50.7324 -55.127 C 49.0723 -56.7871 47.4121 -57.5195 45.3613 -57.5684 C 43.3105 -57.5684 41.6504 -56.7871 39.9902 -55.127 Z"/>
  </g>
  <g id="Semibold-S" transform="matrix(1 0 0 1 1998.47 696)">
   <path d="M 11.377 -25.7812 C 10.3027 -24.7559 9.76562 -23.3887 9.76562 -21.875 C 9.76562 -18.7012 12.2559 -16.1621 15.3809 -16.1621 C 16.9922 -16.1621 18.4082 -16.7969 19.5312 -17.9199 L 44.8242 -43.6035 L 70.0684 -17.9199 C 71.1426 -16.7969 72.6562 -16.1621 74.1699 -16.1621 C 77.2949 -16.1621 79.834 -18.7012 79.834 -21.875 C 79.834 -23.3887 79.248 -24.7559 78.2227 -25.7812 L 49.2676 -55.0781 C 47.9492 -56.3965 46.4844 -57.0312 44.7754 -57.0312 C 43.1152 -57.0312 41.6504 -56.3965 40.332 -55.0781 Z"/>
  </g>
  <g id="Medium-S" transform="matrix(1 0 0 1 1702.2 696)">
   <path d="M 11.1816 -25.3418 C 10.2539 -24.4629 9.76562 -23.2422 9.76562 -21.875 C 9.76562 -19.0918 11.9141 -16.8945 14.6973 -16.8945 C 16.0645 -16.8945 17.334 -17.4316 18.2617 -18.4082 L 44.3848 -44.7754 L 70.459 -18.4082 C 71.3867 -17.4316 72.7051 -16.8945 74.0234 -16.8945 C 76.8066 -16.8945 78.9551 -19.0918 78.9551 -21.875 C 78.9551 -23.2422 78.4668 -24.4629 77.5391 -25.3418 L 48.1445 -55.0293 C 47.1191 -56.1035 45.8008 -56.6406 44.3848 -56.6895 C 42.9688 -56.6895 41.6992 -56.1035 40.5762 -55.0293 Z"/>
  </g>
  <g id="Regular-S" transform="matrix(1 0 0 1 1406.02 696)">
   <path d="M 10.9375 -24.7559 C 10.2051 -24.0723 9.76562 -23.0469 9.76562 -21.9238 C 9.76562 -19.6289 11.5234 -17.8711 13.8184 -17.8711 C 14.9414 -17.8711 15.9668 -18.3105 16.6504 -19.043 L 43.8477 -46.3379 L 70.9961 -19.043 C 71.6797 -18.3105 72.8027 -17.8711 73.877 -17.8711 C 76.1719 -17.8711 77.8809 -19.6289 77.8809 -21.9238 C 77.8809 -23.0469 77.4414 -24.0723 76.709 -24.7559 L 46.7285 -54.9316 C 45.9961 -55.7617 44.9219 -56.1523 43.8477 -56.1523 C 42.7246 -56.1523 41.6992 -55.7617 40.9668 -54.9316 Z"/>
  </g>
  <g id="Light-S" transform="matrix(1 0 0 1 1110.82 696)">
   <path d="M 10.6934 -23.4375 C 10.1074 -22.9004 9.76562 -22.1191 9.76562 -21.2402 C 9.76562 -19.5312 11.084 -18.2129 12.8418 -18.2129 C 13.6719 -18.2129 14.4531 -18.5059 14.9902 -19.0918 L 42.334 -47.3633 L 69.5801 -19.0918 C 70.166 -18.5059 70.9961 -18.2129 71.7773 -18.2129 C 73.5352 -18.2129 74.8535 -19.5312 74.8535 -21.2402 C 74.8535 -22.1191 74.5117 -22.8516 73.9258 -23.4375 L 44.6289 -53.8574 C 44.043 -54.4922 43.1641 -54.8828 42.2852 -54.8828 C 41.4062 -54.8828 40.625 -54.541 39.9902 -53.8574 Z"/>
  </g>
  <g id="Thin-S" transform="matrix(1 0 0 1 816.115 696)">
   <path d="M 10.3516 -21.7285 C 10.0098 -21.3379 9.76562 -20.9473 9.76562 -20.4102 C 9.76562 -19.4336 10.5469 -18.6035 11.5723 -18.6035 C 12.0117 -18.6035 12.5 -18.75 12.793 -19.0918 L 40.332 -48.8281 L 67.7734 -19.0918 C 68.1152 -18.75 68.6035 -18.6035 69.043 -18.6035 C 70.0684 -18.6035 70.8496 -19.4336 70.8496 -20.4102 C 70.8496 -20.9473 70.6055 -21.2891 70.2637 -21.6797 L 41.8945 -52.4414 C 41.4551 -52.8809 40.918 -53.2227 40.2832 -53.2227 C 39.6973 -53.2227 39.209 -52.9297 38.7207 -52.4414 Z"/>
  </g>
  <g id="Ultralight-S" transform="matrix(1 0 0 1 520.429 696)">
   <path d="M 10.2051 -20.8008 C 9.96094 -20.5566 9.76562 -20.3125 9.76562 -19.9707 C 9.76562 -19.3359 10.2539 -18.8477 10.8887 -18.8477 C 11.1816 -18.8477 11.5234 -18.8965 11.6699 -19.1406 L 39.3066 -49.5605 L 66.7969 -19.1406 C 67.041 -18.8965 67.3828 -18.8477 67.6758 -18.8477 C 68.2617 -18.8477 68.7988 -19.3359 68.7988 -19.9707 C 68.7988 -20.3125 68.6035 -20.5078 68.4082 -20.752 L 40.4785 -51.6602 C 40.0879 -52.0508 39.7461 -52.3438 39.2578 -52.3438 C 38.7695 -52.3438 38.4277 -52.0996 38.0859 -51.709 Z"/>
  </g>
 </g>
</svg>
