<svg width="15" height="14" viewBox="0 0 15 14" fill="none" xmlns="http://www.w3.org/2000/svg">
<g clip-path="url(#clip0_20727_128665)">
<path d="M2.2779 7.09168C2.46267 7.00722 2.67345 7.00026 2.86384 7.07117L5.25837 7.96277C5.65466 8.11059 5.85623 8.55174 5.70856 8.94813C5.56085 9.34461 5.11969 9.54603 4.72321 9.39832L4.03864 9.14246C4.98733 10.7191 6.93571 11.4783 8.74762 10.8593C9.54167 10.5879 10.193 10.0925 10.6578 9.46766C10.9103 9.12816 11.3906 9.05792 11.73 9.31043C12.0693 9.56297 12.1397 10.0423 11.8873 10.3817C11.2435 11.2473 10.3393 11.9348 9.24274 12.3095C6.69123 13.181 3.94336 12.078 2.65778 9.81727L2.42243 10.4501C2.27472 10.8466 1.83356 11.048 1.43708 10.9003C1.04077 10.7525 0.839209 10.3113 0.986883 9.91492L1.87848 7.52137L1.94489 7.38563C2.02388 7.25794 2.13933 7.15503 2.2779 7.09168ZM5.75544 1.69129C8.30575 0.820053 11.0521 1.92099 12.3384 4.17957L12.5777 3.5409C12.7255 3.14462 13.1667 2.94304 13.5631 3.0907C13.9595 3.23845 14.1609 3.6796 14.0132 4.07606L13.1187 6.47645C13.0478 6.66679 12.9041 6.82168 12.7193 6.90613C12.5346 6.99039 12.3236 6.99751 12.1334 6.92664L9.73298 6.03309C9.33682 5.88533 9.13541 5.44402 9.28278 5.04774C9.43045 4.65135 9.87172 4.44906 10.2681 4.59656L10.9576 4.8534C10.0081 3.27943 8.06091 2.52207 6.25055 3.14051C5.45661 3.41179 4.80519 3.90739 4.3404 4.53211C4.08794 4.87154 3.60762 4.94266 3.26813 4.69031C2.92864 4.4378 2.8584 3.95754 3.11091 3.61805C3.75471 2.75255 4.65897 2.06594 5.75544 1.69129Z" fill="#919191"/>
</g>
<defs>
<clipPath id="clip0_20727_128665">
<rect width="14" height="14" fill="white" transform="translate(0.5)"/>
</clipPath>
</defs>
</svg>
