<svg width="16" height="16" viewBox="0 0 16 16" fill="none" xmlns="http://www.w3.org/2000/svg">
<path d="M7.99316 1.33203C11.6402 1.33203 14.667 4.35196 14.667 7.99902C14.667 11.6395 11.6471 14.666 8 14.666C4.35948 14.666 1.33301 11.6395 1.33301 7.99902C1.33301 4.35206 4.35278 1.3322 7.99316 1.33203ZM8.33301 4.91113C8.19004 4.61945 7.75313 4.61925 7.61035 4.91113L6.82422 6.52148C6.76619 6.64025 6.6475 6.72249 6.51074 6.73828L4.65625 6.95215C4.31983 6.99094 4.18447 7.38611 4.43262 7.60547L5.80078 8.81445C5.90166 8.90359 5.94732 9.03558 5.9209 9.16406L5.56152 10.9062C5.49633 11.2224 5.85029 11.4672 6.14648 11.3105L7.77832 10.4473C7.89874 10.3836 8.0456 10.3836 8.16602 10.4473L9.79785 11.3105C10.094 11.4672 10.448 11.2224 10.3828 10.9062L10.0234 9.16406C9.99703 9.03575 10.042 8.9036 10.1426 8.81445L11.5107 7.60547C11.7589 7.38617 11.6244 6.9911 11.2881 6.95215L9.43359 6.73828C9.29679 6.72252 9.17816 6.64028 9.12012 6.52148L8.33301 4.91113Z" fill="#FFB71B"/>
</svg>
