<svg width="20" height="20" viewBox="0 0 20 20" fill="none" xmlns="http://www.w3.org/2000/svg">
<path d="M13.832 3.9458C14.803 3.9458 15.2891 3.9466 15.6855 4.06104C16.6476 4.33902 17.3997 5.09116 17.6777 6.05322C17.7922 6.44969 17.793 6.93592 17.793 7.90674V11.354L17.7881 12.4351C17.7732 13.3826 17.7138 13.9595 17.4756 14.4272L17.3623 14.6284C17.0821 15.0851 16.6802 15.458 16.2002 15.7026L16.0811 15.7583C15.634 15.9503 15.0768 16.0015 14.208 16.0151L13.126 16.02H6.87305C5.34236 16.02 4.52862 16.0201 3.91895 15.7583L3.7998 15.7026C3.31978 15.458 2.9179 15.0851 2.6377 14.6284L2.52539 14.4272C2.28705 13.9594 2.22682 13.3829 2.21191 12.4351L2.20703 11.354V7.90674C2.20703 7.05767 2.20664 6.57926 2.2832 6.20752L2.32129 6.05322C2.58193 5.15132 3.2604 4.43392 4.13672 4.11865L4.31348 4.06104C4.70999 3.9465 5.19694 3.9458 6.16797 3.9458H13.832ZM3.45703 11.354C3.45703 12.1908 3.45759 12.744 3.49219 13.1675C3.52561 13.576 3.58451 13.7535 3.63867 13.8599C3.79838 14.1732 4.05294 14.4286 4.36621 14.5884C4.47252 14.6425 4.65097 14.7014 5.05957 14.7349C5.48305 14.7694 6.03634 14.77 6.87305 14.77H13.126C13.963 14.77 14.5169 14.7694 14.9404 14.7349C15.3486 14.7015 15.5264 14.6425 15.6328 14.5884C15.9462 14.4287 16.2015 14.1732 16.3613 13.8599C16.4155 13.7535 16.4734 13.5758 16.5068 13.1675C16.5414 12.744 16.543 12.1908 16.543 11.354V8.53174H3.45703V11.354ZM10.1357 12.228C10.4806 12.2282 10.7606 12.5081 10.7607 12.853C10.7607 13.1981 10.4807 13.4778 10.1357 13.478H9.08105C8.73588 13.478 8.45605 13.1982 8.45605 12.853C8.45623 12.508 8.73599 12.228 9.08105 12.228H10.1357ZM14.5889 12.228C14.9338 12.2282 15.2137 12.5081 15.2139 12.853C15.2139 13.1981 14.9339 13.4778 14.5889 13.478H12.1641C11.819 13.4779 11.5391 13.1981 11.5391 12.853C11.5392 12.5081 11.8191 12.2282 12.1641 12.228H14.5889ZM6.16797 5.19678C5.11108 5.19678 4.84487 5.20825 4.66113 5.26123C4.11142 5.42018 3.68029 5.8511 3.52148 6.40088C3.48114 6.54121 3.46463 6.73011 3.45898 7.28174H16.54C16.5344 6.7297 16.518 6.54124 16.4775 6.40088C16.3187 5.85104 15.8887 5.42014 15.3389 5.26123C15.1551 5.20825 14.8891 5.19678 13.832 5.19678H6.16797Z" fill="#0099FF"/>
</svg>
