<svg width="24" height="24" viewBox="0 0 24 24" fill="none" xmlns="http://www.w3.org/2000/svg">
<path fill-rule="evenodd" clip-rule="evenodd" d="M6.53223 6.79102C6.53223 5.27223 7.76344 4.04102 9.28223 4.04102C10.801 4.04102 12.0322 5.27223 12.0322 6.79102C12.0322 7.76594 11.5249 8.62238 10.7598 9.11072L11.0395 9.84953C11.2916 9.77336 11.559 9.73242 11.8359 9.73242C12.6547 9.73242 13.3899 10.0903 13.8937 10.6581L14.1191 10.418C13.9201 10.0375 13.8076 9.60464 13.8076 9.14551C13.8076 7.62672 15.0388 6.39551 16.5576 6.39551C18.0764 6.39551 19.3076 7.62672 19.3076 9.14551C19.3076 10.6643 18.0764 11.8955 16.5576 11.8955C16.044 11.8955 15.5632 11.7547 15.1518 11.5095L14.5642 12.1354C14.5786 12.249 14.5859 12.3649 14.5859 12.4824C14.5859 13.0385 14.4209 13.5559 14.1372 13.9886L16.0342 15.2291C16.5329 14.7235 17.226 14.4102 17.9922 14.4102C19.511 14.4102 20.7422 15.6414 20.7422 17.1602C20.7422 18.6789 19.511 19.9102 17.9922 19.9102C16.4734 19.9102 15.2422 18.6789 15.2422 17.1602C15.2422 16.9498 15.2658 16.7449 15.3105 16.5481L12.9435 15.0003C12.6047 15.1495 12.23 15.2324 11.8359 15.2324C11.2687 15.2324 10.7416 15.0607 10.3037 14.7663L8.46465 16.4546C8.60313 16.7829 8.67969 17.1437 8.67969 17.5225C8.67969 19.0412 7.44847 20.2725 5.92969 20.2725C4.4109 20.2725 3.17969 19.0412 3.17969 17.5225C3.17969 16.0037 4.4109 14.7725 5.92969 14.7725C6.52411 14.7725 7.07448 14.9611 7.52423 15.2817L9.32971 13.6243L9.33721 13.6324C9.17591 13.2825 9.08594 12.893 9.08594 12.4824C9.08594 11.7963 9.33718 11.1689 9.75268 10.6872L9.31877 9.54078L9.28223 9.54102C7.76344 9.54102 6.53223 8.3098 6.53223 6.79102ZM9.28223 5.54102C8.59187 5.54102 8.03223 6.10066 8.03223 6.79102C8.03223 7.48137 8.59187 8.04102 9.28223 8.04102C9.97258 8.04102 10.5322 7.48137 10.5322 6.79102C10.5322 6.10066 9.97258 5.54102 9.28223 5.54102ZM16.5576 7.89551C15.8673 7.89551 15.3076 8.45515 15.3076 9.14551C15.3076 9.83586 15.8673 10.3955 16.5576 10.3955C17.248 10.3955 17.8076 9.83586 17.8076 9.14551C17.8076 8.45515 17.248 7.89551 16.5576 7.89551ZM11.8359 11.2324C11.1456 11.2324 10.5859 11.7921 10.5859 12.4824C10.5859 13.1728 11.1456 13.7324 11.8359 13.7324C12.5263 13.7324 13.0859 13.1728 13.0859 12.4824C13.0859 11.7921 12.5263 11.2324 11.8359 11.2324ZM4.67969 17.5225C4.67969 16.8321 5.23933 16.2725 5.92969 16.2725C6.62004 16.2725 7.17969 16.8321 7.17969 17.5225C7.17969 18.2128 6.62004 18.7725 5.92969 18.7725C5.23933 18.7725 4.67969 18.2128 4.67969 17.5225ZM16.7422 17.1602C16.7422 16.4698 17.3018 15.9102 17.9922 15.9102C18.6825 15.9102 19.2422 16.4698 19.2422 17.1602C19.2422 17.8505 18.6825 18.4102 17.9922 18.4102C17.3018 18.4102 16.7422 17.8505 16.7422 17.1602Z" fill="#1E1E1E"/>
</svg>
