<svg width="24" height="24" viewBox="0 0 24 24" fill="none" xmlns="http://www.w3.org/2000/svg">
<path d="M10.3592 3.78025C10.9263 3.0262 11.8342 2.8655 12.5418 3.06931C13.2523 3.27418 13.9577 3.9136 13.9578 4.90037V9.18259H17.9862C18.7451 9.18271 19.3933 9.58356 19.7303 10.1767C20.072 10.7786 20.0808 11.5684 19.5985 12.2119L13.5819 20.2265C13.0149 20.981 12.107 21.1412 11.3993 20.9375C10.6886 20.7328 9.98333 20.0944 9.98324 19.1074V14.8252H5.95394C5.19506 14.8251 4.54716 14.4247 4.2098 13.831C3.86751 13.2285 3.85934 12.4383 4.34261 11.7949L10.3582 3.78123L10.3592 3.78025ZM6.07015 12.8252H10.9832C11.5352 12.8255 11.9831 13.2732 11.9832 13.8252V19.0185H11.9862L17.8709 11.1826H12.9578C12.4057 11.1826 11.9581 10.7346 11.9578 10.1826V4.98728C11.9562 4.98732 11.9543 4.9872 11.953 4.98728L6.07015 12.8252Z" fill="white"/>
</svg>
