<svg width="25" height="24" viewBox="0 0 25 24" fill="none" xmlns="http://www.w3.org/2000/svg">
<g clip-path="url(#clip0_26695_28196)">
<path d="M8.19271 14.4736C10.8304 12.8426 14.177 12.8427 16.8148 14.4736C16.8924 14.5216 16.9909 14.5794 17.1038 14.6455C17.6161 14.9452 18.4298 15.4214 18.9847 15.9854C19.333 16.3395 19.68 16.8222 19.7435 17.4238C19.8113 18.0679 19.5384 18.6647 19.0169 19.1807C18.1553 20.0331 17.0872 20.75 15.6878 20.75H9.31966C7.92032 20.7499 6.85213 20.0331 5.99056 19.1807C5.46921 18.6647 5.19622 18.0678 5.26399 17.4238C5.32746 16.822 5.67536 16.3395 6.02376 15.9854C6.57853 15.4214 7.39135 14.9453 7.90364 14.6455C8.01649 14.5795 8.11504 14.5216 8.19271 14.4736Z" fill="#919191"/>
<path d="M17.0452 12.4268C18.6905 12.0211 20.4536 12.3131 21.931 13.3027C21.986 13.3396 22.0575 13.3857 22.1409 13.4385C22.5324 13.6863 23.1859 14.0998 23.6292 14.5879C23.9102 14.8973 24.1915 15.3212 24.2425 15.8467C24.2968 16.4063 24.0771 16.9298 23.6527 17.3848C23.085 17.9931 22.3929 18.5512 21.3695 18.707C21.1305 18.7434 21.0106 18.7617 20.9388 18.6875C20.867 18.6131 20.8939 18.471 20.9476 18.1875C21.0013 17.904 21.0165 17.6047 20.9837 17.293C20.8774 16.2836 20.3057 15.5498 19.8714 15.1084C19.1985 14.4244 18.2674 13.879 17.7728 13.5898C17.5661 13.462 17.2844 13.3013 16.9974 13.1475C16.6191 12.9447 16.4297 12.8432 16.4466 12.707C16.4638 12.5708 16.6576 12.5223 17.0452 12.4268Z" fill="#919191"/>
<path d="M3.07063 13.3027C4.54798 12.3132 6.31016 12.0211 7.9554 12.4268C8.34313 12.5224 8.53689 12.5707 8.55403 12.707C8.57091 12.8432 8.38157 12.9447 8.00325 13.1475C7.7162 13.3013 7.4346 13.462 7.22786 13.5898C6.73327 13.879 5.80223 14.4243 5.12923 15.1084C4.69494 15.5498 4.12328 16.2835 4.01692 17.293C3.98411 17.6047 3.99936 17.904 4.05306 18.1875C4.10675 18.471 4.13361 18.6131 4.06185 18.6875C3.99003 18.7617 3.87026 18.7434 3.63118 18.707C2.60753 18.5512 1.91571 17.9932 1.34798 17.3848C0.923493 16.9298 0.703858 16.4063 0.758135 15.8467C0.809201 15.3211 1.09043 14.8973 1.37142 14.5879C1.8148 14.0998 2.46827 13.6863 2.8597 13.4385C2.94334 13.3855 3.01554 13.3396 3.07063 13.3027Z" fill="#919191"/>
<path d="M6.50032 5.25C6.66588 5.25002 6.82873 5.26224 6.98763 5.28613C7.17722 5.31465 7.27192 5.32942 7.32063 5.4082C7.36921 5.48698 7.33578 5.59163 7.2679 5.80078C7.09422 6.33594 7.00032 6.90695 7.00032 7.5C7.00032 8.73993 7.41062 9.88381 8.10286 10.8037C8.23478 10.979 8.30072 11.0671 8.2806 11.1572C8.26025 11.2475 8.17498 11.292 8.00521 11.3809C7.55525 11.6164 7.0434 11.75 6.50032 11.75C4.7054 11.75 3.25032 10.2949 3.25032 8.5C3.25032 6.70507 4.7054 5.25 6.50032 5.25Z" fill="#919191"/>
<path d="M12.4993 3.25C14.8466 3.25 16.7493 5.15279 16.7493 7.5C16.7493 9.84721 14.8466 11.75 12.4993 11.75C10.1524 11.7496 8.24935 9.84699 8.24935 7.5C8.24935 5.15301 10.1524 3.25036 12.4993 3.25Z" fill="#919191"/>
<path d="M18.5003 5.25C20.2951 5.25013 21.7503 6.70516 21.7503 8.5C21.7503 10.2948 20.2951 11.7499 18.5003 11.75C17.9573 11.7499 17.4453 11.6164 16.9954 11.3809C16.8257 11.292 16.7404 11.2475 16.72 11.1572C16.6999 11.0671 16.7659 10.979 16.8978 10.8037C17.59 9.88383 18.0003 8.73989 18.0003 7.5C18.0003 6.90698 17.9064 6.33592 17.7327 5.80078C17.6649 5.59166 17.6315 5.48698 17.68 5.4082C17.7287 5.32953 17.8235 5.31463 18.013 5.28613C18.1718 5.26226 18.3349 5.25002 18.5003 5.25Z" fill="#919191"/>
</g>
<defs>
<clipPath id="clip0_26695_28196">
<rect width="24" height="24" fill="white" transform="translate(0.5)"/>
</clipPath>
</defs>
</svg>
