<svg width="22" height="22" viewBox="0 0 22 22" fill="none" xmlns="http://www.w3.org/2000/svg">
<path d="M10.999 0.25C12.6801 0.250084 14.0476 0.818004 15.2402 1.43555C15.6005 1.6221 15.935 1.80705 16.2549 1.9834C17.0379 2.41506 17.7322 2.79703 18.4941 3.04004C18.9413 3.18263 19.3372 3.3099 19.6182 3.41992C19.8826 3.5235 20.1969 3.66531 20.4199 3.91309C20.6202 4.13561 20.7238 4.38505 20.792 4.62402C20.8539 4.84099 20.9062 5.13517 20.957 5.41699C22.1953 12.2824 19.4911 18.7874 12.8809 21.3184C12.2314 21.5671 11.7528 21.75 11.002 21.75C10.2511 21.75 9.77252 21.5671 9.12305 21.3184C2.51259 18.7875 -0.194972 12.2827 1.04297 5.41699C1.09375 5.13518 1.14706 4.841 1.20898 4.62402C1.2772 4.38518 1.37998 4.1355 1.58008 3.91309C1.80303 3.6653 2.11743 3.52354 2.38184 3.41992C2.66272 3.30985 3.05865 3.18272 3.50586 3.04004C4.26743 2.79705 4.96168 2.41503 5.74414 1.9834C6.06386 1.80703 6.39863 1.62213 6.75879 1.43555C7.95085 0.817998 9.31789 0.25 10.999 0.25ZM16.9424 7.66602C16.7579 7.1457 16.1864 6.87344 15.666 7.05762C14.788 7.36857 13.9485 7.96153 13.2119 8.60742C12.465 9.26248 11.7661 10.0232 11.1729 10.7344C10.7337 11.2608 10.3454 11.7686 10.0303 12.1992C9.7416 11.8535 9.45388 11.6008 9.17969 11.418C8.90535 11.2351 8.55206 11.0001 8 11C7.44781 11 7.00015 11.4478 7 12C7 12.5207 7.39787 12.9489 7.90625 12.9961C8.11052 13.0155 8.66499 13.5663 9.10547 14.4473C9.26661 14.7696 9.5884 14.9805 9.94824 14.999C10.3081 15.0175 10.6505 14.8402 10.8438 14.5361C10.853 14.5222 11.1945 14.0111 11.3574 13.7803C11.6885 13.3113 12.1572 12.6771 12.709 12.0156C13.2627 11.3519 13.8877 10.6749 14.5303 10.1113C15.1831 9.53883 15.7995 9.13243 16.333 8.94336C16.8536 8.75898 17.1268 8.18661 16.9424 7.66602Z" fill="#0099FF"/>
</svg>
