<?xml version="1.0" encoding="UTF-8"?>
<!--Generator: Apple Native CoreSVG 123-->
<!DOCTYPE svg
PUBLIC "-//W3C//DTD SVG 1.1//EN"
       "http://www.w3.org/Graphics/SVG/1.1/DTD/svg11.dtd">
<svg version="1.1" xmlns="http://www.w3.org/2000/svg" xmlns:xlink="http://www.w3.org/1999/xlink" width="3300" height="2200">
 <!--glyph: "uni10012B.medium", point size: 100.000000, font version: "Version 15.0d7e11", template writer version: "5"-->
 <g id="Notes">
  <rect height="2200" id="artboard" style="fill:white;opacity:1" width="3300" x="0" y="0"/>
  <line id="" style="fill:none;stroke:black;opacity:1;stroke-width:0.5;" x1="263" x2="3036" y1="292" y2="292"/>
  <text style="stroke:none;fill:black;font-family:-apple-system,&quot;SF Pro Display&quot;,&quot;SF Pro Text&quot;,Helvetica,sans-serif;font-weight:bold;" transform="matrix(1 0 0 1 263 322)">Weight/Scale Variations</text>
  <text style="stroke:none;fill:black;font-family:-apple-system,&quot;SF Pro Display&quot;,&quot;SF Pro Text&quot;,Helvetica,sans-serif;text-anchor:middle;" transform="matrix(1 0 0 1 559.711 322)">Ultralight</text>
  <text style="stroke:none;fill:black;font-family:-apple-system,&quot;SF Pro Display&quot;,&quot;SF Pro Text&quot;,Helvetica,sans-serif;text-anchor:middle;" transform="matrix(1 0 0 1 856.422 322)">Thin</text>
  <text style="stroke:none;fill:black;font-family:-apple-system,&quot;SF Pro Display&quot;,&quot;SF Pro Text&quot;,Helvetica,sans-serif;text-anchor:middle;" transform="matrix(1 0 0 1 1153.13 322)">Light</text>
  <text style="stroke:none;fill:black;font-family:-apple-system,&quot;SF Pro Display&quot;,&quot;SF Pro Text&quot;,Helvetica,sans-serif;text-anchor:middle;" transform="matrix(1 0 0 1 1449.84 322)">Regular</text>
  <text style="stroke:none;fill:black;font-family:-apple-system,&quot;SF Pro Display&quot;,&quot;SF Pro Text&quot;,Helvetica,sans-serif;text-anchor:middle;" transform="matrix(1 0 0 1 1746.56 322)">Medium</text>
  <text style="stroke:none;fill:black;font-family:-apple-system,&quot;SF Pro Display&quot;,&quot;SF Pro Text&quot;,Helvetica,sans-serif;text-anchor:middle;" transform="matrix(1 0 0 1 2043.27 322)">Semibold</text>
  <text style="stroke:none;fill:black;font-family:-apple-system,&quot;SF Pro Display&quot;,&quot;SF Pro Text&quot;,Helvetica,sans-serif;text-anchor:middle;" transform="matrix(1 0 0 1 2339.98 322)">Bold</text>
  <text style="stroke:none;fill:black;font-family:-apple-system,&quot;SF Pro Display&quot;,&quot;SF Pro Text&quot;,Helvetica,sans-serif;text-anchor:middle;" transform="matrix(1 0 0 1 2636.69 322)">Heavy</text>
  <text style="stroke:none;fill:black;font-family:-apple-system,&quot;SF Pro Display&quot;,&quot;SF Pro Text&quot;,Helvetica,sans-serif;text-anchor:middle;" transform="matrix(1 0 0 1 2933.4 322)">Black</text>
  <line id="" style="fill:none;stroke:black;opacity:1;stroke-width:0.5;" x1="263" x2="3036" y1="1903" y2="1903"/>
  <g id="" transform="matrix(1 0 0 1 263 1933)">
   <path d="M 9.24805 0.830078 C 13.5547 0.830078 17.1387 -2.74414 17.1387 -7.05078 C 17.1387 -11.3574 13.5449 -14.9316 9.23828 -14.9316 C 4.94141 -14.9316 1.36719 -11.3574 1.36719 -7.05078 C 1.36719 -2.74414 4.95117 0.830078 9.24805 0.830078 Z M 9.24805 -0.654297 C 5.70312 -0.654297 2.87109 -3.49609 2.87109 -7.05078 C 2.87109 -10.6055 5.69336 -13.4473 9.23828 -13.4473 C 12.793 -13.4473 15.6348 -10.6055 15.6445 -7.05078 C 15.6543 -3.49609 12.8027 -0.654297 9.24805 -0.654297 Z M 9.22852 -3.42773 C 9.69727 -3.42773 9.9707 -3.74023 9.9707 -4.25781 L 9.9707 -6.31836 L 12.1973 -6.31836 C 12.6953 -6.31836 13.0371 -6.57227 13.0371 -7.04102 C 13.0371 -7.51953 12.7148 -7.7832 12.1973 -7.7832 L 9.9707 -7.7832 L 9.9707 -10.0098 C 9.9707 -10.5273 9.69727 -10.8496 9.22852 -10.8496 C 8.75977 -10.8496 8.50586 -10.5078 8.50586 -10.0098 L 8.50586 -7.7832 L 6.29883 -7.7832 C 5.78125 -7.7832 5.44922 -7.51953 5.44922 -7.04102 C 5.44922 -6.57227 5.80078 -6.31836 6.29883 -6.31836 L 8.50586 -6.31836 L 8.50586 -4.25781 C 8.50586 -3.75977 8.75977 -3.42773 9.22852 -3.42773 Z"/>
  </g>
  <g id="" transform="matrix(1 0 0 1 281.506 1933)">
   <path d="M 11.709 2.91016 C 17.1582 2.91016 21.6699 -1.60156 21.6699 -7.05078 C 21.6699 -12.4902 17.1484 -17.0117 11.6992 -17.0117 C 6.25977 -17.0117 1.74805 -12.4902 1.74805 -7.05078 C 1.74805 -1.60156 6.26953 2.91016 11.709 2.91016 Z M 11.709 1.25 C 7.09961 1.25 3.41797 -2.44141 3.41797 -7.05078 C 3.41797 -11.6504 7.08984 -15.3516 11.6992 -15.3516 C 16.3086 -15.3516 20 -11.6504 20.0098 -7.05078 C 20.0195 -2.44141 16.3184 1.25 11.709 1.25 Z M 11.6895 -2.41211 C 12.207 -2.41211 12.5195 -2.77344 12.5195 -3.33984 L 12.5195 -6.23047 L 15.5762 -6.23047 C 16.123 -6.23047 16.5039 -6.51367 16.5039 -7.03125 C 16.5039 -7.55859 16.1426 -7.86133 15.5762 -7.86133 L 12.5195 -7.86133 L 12.5195 -10.9277 C 12.5195 -11.5039 12.207 -11.8555 11.6895 -11.8555 C 11.1719 -11.8555 10.8789 -11.4844 10.8789 -10.9277 L 10.8789 -7.86133 L 7.83203 -7.86133 C 7.26562 -7.86133 6.89453 -7.55859 6.89453 -7.03125 C 6.89453 -6.51367 7.28516 -6.23047 7.83203 -6.23047 L 10.8789 -6.23047 L 10.8789 -3.33984 C 10.8789 -2.79297 11.1719 -2.41211 11.6895 -2.41211 Z"/>
  </g>
  <g id="" transform="matrix(1 0 0 1 304.924 1933)">
   <path d="M 14.9707 5.67383 C 21.9336 5.67383 27.6953 -0.078125 27.6953 -7.04102 C 27.6953 -14.0039 21.9238 -19.7559 14.9609 -19.7559 C 8.00781 -19.7559 2.25586 -14.0039 2.25586 -7.04102 C 2.25586 -0.078125 8.01758 5.67383 14.9707 5.67383 Z M 14.9707 3.85742 C 8.93555 3.85742 4.08203 -1.00586 4.08203 -7.04102 C 4.08203 -13.0762 8.92578 -17.9395 14.9609 -17.9395 C 21.0059 -17.9395 25.8594 -13.0762 25.8691 -7.04102 C 25.8789 -1.00586 21.0156 3.85742 14.9707 3.85742 Z M 14.9512 -1.06445 C 15.5176 -1.06445 15.8691 -1.45508 15.8691 -2.06055 L 15.8691 -6.13281 L 20.1074 -6.13281 C 20.6934 -6.13281 21.1133 -6.46484 21.1133 -7.02148 C 21.1133 -7.59766 20.7227 -7.93945 20.1074 -7.93945 L 15.8691 -7.93945 L 15.8691 -12.1875 C 15.8691 -12.8027 15.5176 -13.1934 14.9512 -13.1934 C 14.3848 -13.1934 14.0625 -12.7832 14.0625 -12.1875 L 14.0625 -7.93945 L 9.83398 -7.93945 C 9.21875 -7.93945 8.80859 -7.59766 8.80859 -7.02148 C 8.80859 -6.46484 9.23828 -6.13281 9.83398 -6.13281 L 14.0625 -6.13281 L 14.0625 -2.06055 C 14.0625 -1.47461 14.3848 -1.06445 14.9512 -1.06445 Z"/>
  </g>
  <text style="stroke:none;fill:black;font-family:-apple-system,&quot;SF Pro Display&quot;,&quot;SF Pro Text&quot;,Helvetica,sans-serif;font-weight:bold;" transform="matrix(1 0 0 1 263 1953)">Design Variations</text>
  <text style="stroke:none;fill:black;font-family:-apple-system,&quot;SF Pro Display&quot;,&quot;SF Pro Text&quot;,Helvetica,sans-serif;" transform="matrix(1 0 0 1 263 1971)">Symbols are supported in up to nine weights and three scales.</text>
  <text style="stroke:none;fill:black;font-family:-apple-system,&quot;SF Pro Display&quot;,&quot;SF Pro Text&quot;,Helvetica,sans-serif;" transform="matrix(1 0 0 1 263 1989)">For optimal layout with text and other symbols, vertically align</text>
  <text style="stroke:none;fill:black;font-family:-apple-system,&quot;SF Pro Display&quot;,&quot;SF Pro Text&quot;,Helvetica,sans-serif;" transform="matrix(1 0 0 1 263 2007)">symbols with the adjacent text.</text>
  <rect height="14" id="" style="fill:#00AEEF;stroke:none;opacity:0.4;" width="3" x="776" y="1919"/>
  <g id="" transform="matrix(1 0 0 1 779 1933)">
   <path d="M 10.5273 0 L 12.373 0 L 7.17773 -14.0918 L 5.43945 -14.0918 L 0.244141 0 L 2.08984 0 L 3.50586 -4.0332 L 9.11133 -4.0332 Z M 6.2793 -11.9531 L 6.33789 -11.9531 L 8.59375 -5.52734 L 4.02344 -5.52734 Z"/>
  </g>
  <rect height="14" id="" style="fill:#00AEEF;stroke:none;opacity:0.4;" width="3" x="791.617" y="1919"/>
  <text style="stroke:none;fill:black;font-family:-apple-system,&quot;SF Pro Display&quot;,&quot;SF Pro Text&quot;,Helvetica,sans-serif;font-weight:bold;" transform="matrix(1 0 0 1 776 1953)">Margins</text>
  <text style="stroke:none;fill:black;font-family:-apple-system,&quot;SF Pro Display&quot;,&quot;SF Pro Text&quot;,Helvetica,sans-serif;" transform="matrix(1 0 0 1 776 1971)">Leading and trailing margins on the left and right side of each symbol</text>
  <text style="stroke:none;fill:black;font-family:-apple-system,&quot;SF Pro Display&quot;,&quot;SF Pro Text&quot;,Helvetica,sans-serif;" transform="matrix(1 0 0 1 776 1989)">can be adjusted by modifying the width of the blue rectangles.</text>
  <text style="stroke:none;fill:black;font-family:-apple-system,&quot;SF Pro Display&quot;,&quot;SF Pro Text&quot;,Helvetica,sans-serif;" transform="matrix(1 0 0 1 776 2007)">Modifications are automatically applied proportionally to all</text>
  <text style="stroke:none;fill:black;font-family:-apple-system,&quot;SF Pro Display&quot;,&quot;SF Pro Text&quot;,Helvetica,sans-serif;" transform="matrix(1 0 0 1 776 2025)">scales and weights.</text>
  <g id="" transform="matrix(1 0 0 1 1289 1933)">
   <path d="M 2.83203 3.11523 L 4.375 4.6582 C 5.22461 5.48828 6.19141 5.41992 7.06055 4.46289 L 17.2754 -6.66016 C 17.7051 -6.36719 18.0957 -6.37695 18.5645 -6.47461 L 19.6094 -6.68945 L 20.3027 -5.99609 L 20.2539 -5.47852 C 20.1855 -4.95117 20.3516 -4.53125 20.8496 -4.0332 L 21.6602 -3.22266 C 22.168 -2.71484 22.8223 -2.68555 23.3008 -3.16406 L 26.5527 -6.41602 C 27.0312 -6.89453 27.0117 -7.54883 26.5039 -8.05664 L 25.6836 -8.87695 C 25.1855 -9.375 24.7754 -9.55078 24.2383 -9.47266 L 23.7109 -9.41406 L 23.0566 -10.0781 L 23.3398 -11.2207 C 23.4863 -11.7871 23.3398 -12.2559 22.7148 -12.8613 L 20.3027 -15.2539 C 16.7578 -18.7793 12.2266 -18.6719 9.11133 -15.5371 C 8.69141 -15.1074 8.64258 -14.5215 8.91602 -14.0918 C 9.15039 -13.7207 9.62891 -13.4961 10.2734 -13.6621 C 11.7871 -14.043 13.3008 -13.9258 14.7852 -12.9199 L 14.1602 -11.3379 C 13.9258 -10.752 13.9453 -10.2734 14.1797 -9.83398 L 3.01758 0.439453 C 2.08008 1.30859 1.97266 2.25586 2.83203 3.11523 Z M 10.6738 -15.1465 C 13.3398 -17.1387 16.6504 -16.8262 19.0527 -14.4141 L 21.6797 -11.8066 C 21.9141 -11.5723 21.9434 -11.3867 21.8848 -11.0938 L 21.5039 -9.53125 L 23.0762 -7.95898 L 24.043 -8.04688 C 24.3262 -8.07617 24.4141 -8.05664 24.6387 -7.83203 L 25.2637 -7.20703 L 22.5098 -4.46289 L 21.8848 -5.07812 C 21.6602 -5.30273 21.6406 -5.40039 21.6699 -5.68359 L 21.7578 -6.64062 L 20.1953 -8.20312 L 18.5742 -7.89062 C 18.291 -7.83203 18.1445 -7.83203 17.9102 -8.07617 L 15.7324 -10.2539 C 15.5078 -10.4883 15.4785 -10.625 15.6055 -10.9473 L 16.5527 -13.2227 C 14.9512 -14.7559 12.8418 -15.6055 10.8008 -14.9512 C 10.7129 -14.9219 10.6445 -14.9414 10.6152 -14.9805 C 10.5859 -15.0293 10.5859 -15.0781 10.6738 -15.1465 Z M 4.10156 2.41211 C 3.61328 1.91406 3.78906 1.61133 4.12109 1.30859 L 15.0781 -8.80859 L 16.3086 -7.57812 L 6.15234 3.34961 C 5.84961 3.68164 5.46875 3.7793 5.06836 3.37891 Z"/>
  </g>
  <text style="stroke:none;fill:black;font-family:-apple-system,&quot;SF Pro Display&quot;,&quot;SF Pro Text&quot;,Helvetica,sans-serif;font-weight:bold;" transform="matrix(1 0 0 1 1289 1953)">Exporting</text>
  <text style="stroke:none;fill:black;font-family:-apple-system,&quot;SF Pro Display&quot;,&quot;SF Pro Text&quot;,Helvetica,sans-serif;" transform="matrix(1 0 0 1 1289 1971)">Symbols should be outlined when exporting to ensure the</text>
  <text style="stroke:none;fill:black;font-family:-apple-system,&quot;SF Pro Display&quot;,&quot;SF Pro Text&quot;,Helvetica,sans-serif;" transform="matrix(1 0 0 1 1289 1989)">design is preserved when submitting to Xcode.</text>
  <text id="template-version" style="stroke:none;fill:black;font-family:-apple-system,&quot;SF Pro Display&quot;,&quot;SF Pro Text&quot;,Helvetica,sans-serif;text-anchor:end;" transform="matrix(1 0 0 1 3036 1933)">Template v.1.0</text>
  <text style="stroke:none;fill:black;font-family:-apple-system,&quot;SF Pro Display&quot;,&quot;SF Pro Text&quot;,Helvetica,sans-serif;text-anchor:end;" transform="matrix(1 0 0 1 3036 1951)">Generated from arrow.right</text>
  <text style="stroke:none;fill:black;font-family:-apple-system,&quot;SF Pro Display&quot;,&quot;SF Pro Text&quot;,Helvetica,sans-serif;text-anchor:end;" transform="matrix(1 0 0 1 3036 1969)">Typeset at 100 points</text>
  <text style="stroke:none;fill:black;font-family:-apple-system,&quot;SF Pro Display&quot;,&quot;SF Pro Text&quot;,Helvetica,sans-serif;" transform="matrix(1 0 0 1 263 726)">Small</text>
  <text style="stroke:none;fill:black;font-family:-apple-system,&quot;SF Pro Display&quot;,&quot;SF Pro Text&quot;,Helvetica,sans-serif;" transform="matrix(1 0 0 1 263 1156)">Medium</text>
  <text style="stroke:none;fill:black;font-family:-apple-system,&quot;SF Pro Display&quot;,&quot;SF Pro Text&quot;,Helvetica,sans-serif;" transform="matrix(1 0 0 1 263 1586)">Large</text>
 </g>
 <g id="Guides">
  <g id="H-reference" style="fill:#27AAE1;stroke:none;" transform="matrix(1 0 0 1 339 696)">
   <path d="M 54.9316 0 L 57.666 0 L 30.5664 -70.459 L 28.0762 -70.459 L 0.976562 0 L 3.66211 0 L 12.9395 -24.4629 L 45.7031 -24.4629 Z M 29.1992 -67.0898 L 29.4434 -67.0898 L 44.8242 -26.709 L 13.8184 -26.709 Z"/>
  </g>
  <line id="Baseline-S" style="fill:none;stroke:#27AAE1;opacity:1;stroke-width:0.577;" x1="263" x2="3036" y1="696" y2="696"/>
  <line id="Capline-S" style="fill:none;stroke:#27AAE1;opacity:1;stroke-width:0.577;" x1="263" x2="3036" y1="625.541" y2="625.541"/>
  <g id="H-reference" style="fill:#27AAE1;stroke:none;" transform="matrix(1 0 0 1 339 1126)">
   <path d="M 54.9316 0 L 57.666 0 L 30.5664 -70.459 L 28.0762 -70.459 L 0.976562 0 L 3.66211 0 L 12.9395 -24.4629 L 45.7031 -24.4629 Z M 29.1992 -67.0898 L 29.4434 -67.0898 L 44.8242 -26.709 L 13.8184 -26.709 Z"/>
  </g>
  <line id="Baseline-M" style="fill:none;stroke:#27AAE1;opacity:1;stroke-width:0.577;" x1="263" x2="3036" y1="1126" y2="1126"/>
  <line id="Capline-M" style="fill:none;stroke:#27AAE1;opacity:1;stroke-width:0.577;" x1="263" x2="3036" y1="1055.54" y2="1055.54"/>
  <g id="H-reference" style="fill:#27AAE1;stroke:none;" transform="matrix(1 0 0 1 339 1556)">
   <path d="M 54.9316 0 L 57.666 0 L 30.5664 -70.459 L 28.0762 -70.459 L 0.976562 0 L 3.66211 0 L 12.9395 -24.4629 L 45.7031 -24.4629 Z M 29.1992 -67.0898 L 29.4434 -67.0898 L 44.8242 -26.709 L 13.8184 -26.709 Z"/>
  </g>
  <line id="Baseline-L" style="fill:none;stroke:#27AAE1;opacity:1;stroke-width:0.577;" x1="263" x2="3036" y1="1556" y2="1556"/>
  <line id="Capline-L" style="fill:none;stroke:#27AAE1;opacity:1;stroke-width:0.577;" x1="263" x2="3036" y1="1485.54" y2="1485.54"/>
  <rect height="119.336" id="left-margin" style="fill:#00AEEF;stroke:none;opacity:0.4;" width="12.4512" x="1392.06" y="1030.79"/>
  <rect height="119.336" id="right-margin" style="fill:#00AEEF;stroke:none;opacity:0.4;" width="12.4512" x="1495.18" y="1030.79"/>
 </g>
 <g id="Symbols">
  <g id="Black-L" transform="matrix(1 0 0 1 2854.32 1556)">
   <path d="M 142.09 -35.5469 C 142.09 -38.623 140.723 -41.9434 138.672 -43.9453 L 98.1934 -84.375 C 95.8496 -86.7188 93.0176 -87.9395 90.332 -87.9395 C 83.5449 -87.9395 79.0527 -83.3008 79.0527 -77.1484 C 79.0527 -73.6328 80.6152 -71.0449 82.7637 -68.9941 L 96.0938 -55.7129 L 106.299 -46.2891 L 93.2617 -46.9727 L 28.0762 -46.9727 C 20.8496 -46.9727 16.0645 -42.4316 16.0645 -35.5469 C 16.0645 -28.7109 20.8496 -24.1211 28.0762 -24.1211 L 93.2617 -24.1211 L 106.299 -24.8047 L 96.0938 -15.4297 L 82.7637 -2.19727 C 80.6152 -0.0976562 79.0527 2.44141 79.0527 6.00586 C 79.0527 12.1094 83.5449 16.748 90.332 16.748 C 93.0176 16.748 95.8496 15.5273 98.1934 13.2324 L 138.672 -27.1484 C 140.723 -29.1992 142.09 -32.4707 142.09 -35.5469 Z"/>
  </g>
  <g id="Heavy-L" transform="matrix(1 0 0 1 2558.69 1556)">
   <path d="M 139.941 -35.498 C 139.941 -38.1348 138.818 -40.9668 136.963 -42.7246 L 96.1426 -83.5449 C 94.043 -85.6445 91.6016 -86.6699 89.2578 -86.6699 C 83.4473 -86.6699 79.541 -82.666 79.541 -77.3438 C 79.541 -74.3652 80.8594 -72.0703 82.666 -70.3125 L 96.875 -56.0547 L 109.277 -44.6289 L 95.8496 -45.3613 L 26.3184 -45.3613 C 20.166 -45.3613 16.0645 -41.4062 16.0645 -35.498 C 16.0645 -29.5898 20.166 -25.6348 26.3184 -25.6348 L 95.8496 -25.6348 L 109.326 -26.3672 L 96.875 -14.9414 L 82.666 -0.732422 C 80.8594 1.07422 79.541 3.32031 79.541 6.29883 C 79.541 11.6211 83.4473 15.625 89.2578 15.625 C 91.6016 15.625 94.043 14.5996 96.0938 12.5977 L 136.963 -28.2227 C 138.818 -30.0293 139.941 -32.8125 139.941 -35.498 Z"/>
  </g>
  <g id="Bold-L" transform="matrix(1 0 0 1 2263.17 1556)">
   <path d="M 137.549 -35.4004 C 137.549 -37.5977 136.621 -39.8438 135.059 -41.4062 L 93.8477 -82.6172 C 92.041 -84.375 90.0391 -85.2539 88.0371 -85.2539 C 83.3496 -85.2539 80.0781 -81.9336 80.0781 -77.5391 C 80.0781 -75.1465 81.1035 -73.2422 82.5684 -71.7773 L 97.8027 -56.4453 L 112.695 -42.7734 L 98.7305 -43.5059 L 24.4141 -43.5059 C 19.4336 -43.5059 16.0645 -40.2344 16.0645 -35.4004 C 16.0645 -30.6152 19.4336 -27.3438 24.4141 -27.3438 L 98.7305 -27.3438 L 112.695 -28.0762 L 97.8027 -14.3555 L 82.5684 0.927734 C 81.1035 2.39258 80.0781 4.29688 80.0781 6.68945 C 80.0781 11.084 83.3496 14.4043 88.0371 14.4043 C 90.0391 14.4043 91.9922 13.5254 93.7012 11.8652 L 135.059 -29.4434 C 136.621 -30.957 137.549 -33.2031 137.549 -35.4004 Z"/>
  </g>
  <g id="Semibold-L" transform="matrix(1 0 0 1 1967.27 1556)">
   <path d="M 135.938 -35.3516 C 135.938 -37.2559 135.156 -39.1113 133.74 -40.4297 L 92.2852 -81.9336 C 90.6738 -83.5449 88.9648 -84.2773 87.207 -84.2773 C 83.252 -84.2773 80.4688 -81.4453 80.4688 -77.6855 C 80.4688 -75.7324 81.25 -74.0234 82.5195 -72.8027 L 98.4375 -56.7383 L 114.99 -41.4551 L 100.732 -42.2363 L 23.0957 -42.2363 C 18.8965 -42.2363 16.0645 -39.4043 16.0645 -35.3516 C 16.0645 -31.2988 18.8965 -28.5156 23.0957 -28.5156 L 100.732 -28.5156 L 115.039 -29.248 L 98.4375 -13.9648 L 82.5195 2.05078 C 81.25 3.27148 80.4688 4.98047 80.4688 6.93359 C 80.4688 10.6934 83.252 13.5254 87.207 13.5254 C 88.9648 13.5254 90.625 12.793 92.0898 11.377 L 133.74 -30.2734 C 135.156 -31.5918 135.938 -33.4961 135.938 -35.3516 Z"/>
  </g>
  <g id="Medium-L" transform="matrix(1 0 0 1 1671.16 1556)">
   <path d="M 134.717 -35.3027 C 134.717 -36.9629 133.984 -38.5254 132.764 -39.7461 L 91.0645 -81.4453 C 89.5996 -82.9102 88.1348 -83.4961 86.6211 -83.4961 C 83.2031 -83.4961 80.7617 -81.0547 80.7617 -77.7832 C 80.7617 -76.123 81.3965 -74.6582 82.4707 -73.5352 L 98.9258 -56.9824 L 116.748 -40.4785 L 102.246 -41.2598 L 22.0703 -41.2598 C 18.5547 -41.2598 16.0645 -38.8184 16.0645 -35.3027 C 16.0645 -31.8359 18.5547 -29.3945 22.0703 -29.3945 L 102.246 -29.3945 L 116.797 -30.1758 L 98.9258 -13.6719 L 82.4707 2.88086 C 81.3965 3.95508 80.7617 5.46875 80.7617 7.12891 C 80.7617 10.4004 83.2031 12.8418 86.6211 12.8418 C 88.1348 12.8418 89.5508 12.2559 90.8691 10.9863 L 132.764 -30.9082 C 133.984 -32.0801 134.717 -33.6914 134.717 -35.3027 Z"/>
  </g>
  <g id="Regular-L" transform="matrix(1 0 0 1 1375.28 1556)">
   <path d="M 133.057 -35.2539 C 133.057 -36.5723 132.52 -37.793 131.445 -38.8184 L 89.502 -80.8105 C 88.2324 -82.0801 87.0605 -82.5195 85.791 -82.5195 C 83.1543 -82.5195 81.1035 -80.5664 81.1035 -77.9297 C 81.1035 -76.6602 81.543 -75.4395 82.4219 -74.5605 L 99.5117 -57.2266 L 119.043 -39.209 L 104.248 -39.9902 L 20.752 -39.9902 C 18.0176 -39.9902 16.0645 -38.0371 16.0645 -35.2539 C 16.0645 -32.5195 18.0176 -30.5176 20.752 -30.5176 L 104.248 -30.5176 L 119.092 -31.3477 L 99.5117 -13.2812 L 82.4219 4.00391 C 81.5918 4.88281 81.1035 6.15234 81.1035 7.42188 C 81.1035 10.0586 83.1543 12.0117 85.791 12.0117 C 87.0605 12.0117 88.1836 11.5234 89.2578 10.5469 L 131.445 -31.7383 C 132.52 -32.7148 133.057 -33.9355 133.057 -35.2539 Z"/>
  </g>
  <g id="Light-L" transform="matrix(1 0 0 1 1078.57 1556)">
   <path d="M 133.057 -35.2539 C 133.057 -36.2793 132.666 -37.1582 131.885 -37.8906 L 89.5996 -80.3711 C 88.4766 -81.4941 87.5977 -81.8359 86.6211 -81.8359 C 84.5703 -81.8359 83.0566 -80.3711 83.0566 -78.418 C 83.0566 -77.4414 83.3496 -76.5137 84.0332 -75.8301 L 105.273 -54.4434 L 122.51 -38.2324 L 108.203 -38.8184 L 19.5801 -38.8184 C 17.5781 -38.8184 16.0645 -37.3535 16.0645 -35.2539 C 16.0645 -33.2031 17.5781 -31.7383 19.5801 -31.7383 L 108.203 -31.7383 L 122.559 -32.3242 L 105.273 -16.0645 L 84.0332 5.32227 C 83.3984 5.9082 83.0566 6.88477 83.0566 7.86133 C 83.0566 9.81445 84.5703 11.3281 86.6211 11.3281 C 87.5977 11.3281 88.3789 10.9863 89.1602 10.2051 L 131.885 -32.6172 C 132.666 -33.3984 133.057 -34.2773 133.057 -35.2539 Z"/>
  </g>
  <g id="Thin-L" transform="matrix(1 0 0 1 781.862 1556)">
   <path d="M 133.057 -35.2539 C 133.057 -35.8398 132.861 -36.2793 132.422 -36.7188 L 89.7949 -79.7363 C 88.8184 -80.7617 88.2812 -80.957 87.6953 -80.957 C 86.4746 -80.957 85.6445 -80.0781 85.6445 -79.0039 C 85.6445 -78.418 85.791 -77.9297 86.1816 -77.5391 L 112.891 -50.7812 L 127.051 -36.9629 L 113.525 -37.207 L 18.0176 -37.207 C 16.9434 -37.207 16.0645 -36.377 16.0645 -35.2539 C 16.0645 -34.1309 16.9434 -33.3008 18.0176 -33.3008 L 113.525 -33.3008 L 127.051 -33.5449 L 112.891 -19.7266 L 86.1816 6.98242 C 85.8887 7.32422 85.6445 7.91016 85.6445 8.49609 C 85.6445 9.52148 86.4746 10.4004 87.6953 10.4004 C 88.2812 10.4004 88.6719 10.2051 89.1113 9.81445 L 132.422 -33.8379 C 132.861 -34.2285 133.057 -34.668 133.057 -35.2539 Z"/>
  </g>
  <g id="Ultralight-L" transform="matrix(1 0 0 1 485.151 1556)">
   <path d="M 133.057 -35.2539 C 133.057 -35.6445 132.959 -35.8398 132.715 -36.084 L 89.8438 -79.4434 C 89.0137 -80.3711 88.623 -80.4688 88.2324 -80.4688 C 87.4512 -80.4688 87.0117 -79.9316 87.0117 -79.3457 C 87.0117 -78.9551 87.0117 -78.6621 87.3047 -78.3691 L 116.797 -48.9258 L 129.297 -36.377 L 116.211 -36.4258 L 17.1875 -36.4258 C 16.6504 -36.4258 16.0645 -35.9375 16.0645 -35.2539 C 16.0645 -34.6191 16.6504 -34.1309 17.1875 -34.1309 L 116.211 -34.1309 L 129.297 -34.1797 L 116.797 -21.6309 L 87.3047 7.86133 C 87.1094 8.00781 87.0117 8.39844 87.0117 8.78906 C 87.0117 9.375 87.4512 9.96094 88.2324 9.96094 C 88.623 9.96094 88.8184 9.81445 89.0625 9.57031 L 132.715 -34.4238 C 132.959 -34.668 133.057 -34.9121 133.057 -35.2539 Z"/>
  </g>
  <g id="Black-M" transform="matrix(1 0 0 1 2870.68 1126)">
   <path d="M 112.988 -35.5957 C 112.988 -38.3301 111.768 -41.4062 110.01 -43.1641 L 78.9551 -74.2188 C 76.8555 -76.3184 74.2676 -77.4414 71.875 -77.4414 C 65.625 -77.4414 61.6699 -73.1934 61.6699 -67.7246 C 61.6699 -64.4531 63.1836 -62.1582 65.1367 -60.3027 L 76.416 -49.1211 L 80.3223 -45.5078 L 70.9473 -45.9473 L 23.4375 -45.9473 C 16.7969 -45.9473 12.4512 -41.8457 12.4512 -35.5957 C 12.4512 -29.3457 16.7969 -25.2441 23.4375 -25.2441 L 70.9473 -25.2441 L 80.3223 -25.6836 L 76.416 -22.0215 L 65.1367 -10.9375 C 63.1836 -9.0332 61.6699 -6.78711 61.6699 -3.51562 C 61.6699 2.00195 65.625 6.20117 71.875 6.20117 C 74.2676 6.20117 76.8555 5.07812 78.9551 2.97852 L 110.01 -28.0273 C 111.768 -29.7852 112.988 -32.8125 112.988 -35.5957 Z"/>
  </g>
  <g id="Heavy-M" transform="matrix(1 0 0 1 2575.14 1126)">
   <path d="M 110.645 -35.498 C 110.645 -37.8906 109.619 -40.4785 108.057 -42.041 L 76.6602 -73.4375 C 74.8047 -75.2441 72.6074 -76.2207 70.5078 -76.2207 C 65.1367 -76.2207 61.6699 -72.5586 61.6699 -67.8223 C 61.6699 -65.0391 62.9395 -63.0371 64.5996 -61.377 L 75.8301 -50.2441 L 82.6172 -43.9453 L 72.7051 -44.4336 L 21.875 -44.4336 C 16.2109 -44.4336 12.4512 -40.8691 12.4512 -35.498 C 12.4512 -30.127 16.2109 -26.5625 21.875 -26.5625 L 72.7051 -26.5625 L 82.6172 -27.0508 L 75.8301 -20.752 L 64.5996 -9.66797 C 62.9395 -8.05664 61.6699 -6.00586 61.6699 -3.22266 C 61.6699 1.51367 65.1367 5.17578 70.5078 5.17578 C 72.6074 5.17578 74.8047 4.19922 76.6113 2.39258 L 108.057 -28.9551 C 109.619 -30.5176 110.645 -33.1055 110.645 -35.498 Z"/>
  </g>
  <g id="Bold-M" transform="matrix(1 0 0 1 2279.72 1126)">
   <path d="M 108.057 -35.4004 C 108.057 -37.4023 107.178 -39.502 105.811 -40.8203 L 74.1211 -72.5098 C 72.5586 -74.0723 70.7031 -74.8535 68.9453 -74.8535 C 64.5996 -74.8535 61.7188 -71.875 61.7188 -67.9199 C 61.7188 -65.6738 62.6465 -63.9648 64.0137 -62.6465 L 75.1465 -51.5137 L 85.2051 -42.1875 L 74.707 -42.7734 L 20.1172 -42.7734 C 15.5273 -42.7734 12.4512 -39.7949 12.4512 -35.4004 C 12.4512 -31.0059 15.5273 -28.0762 20.1172 -28.0762 L 74.707 -28.0762 L 85.2539 -28.6133 L 75.1465 -19.3359 L 64.0137 -8.25195 C 62.6953 -6.88477 61.7188 -5.17578 61.7188 -2.97852 C 61.7188 0.976562 64.5996 4.00391 68.9453 4.00391 C 70.7031 4.00391 72.5098 3.22266 74.0723 1.70898 L 105.811 -30.0293 C 107.178 -31.3477 108.057 -33.4473 108.057 -35.4004 Z"/>
  </g>
  <g id="Semibold-M" transform="matrix(1 0 0 1 1983.92 1126)">
   <path d="M 106.25 -35.3516 C 106.25 -37.0605 105.518 -38.8184 104.297 -39.9902 L 72.3633 -71.9238 C 70.9961 -73.291 69.4336 -73.9258 67.8711 -73.9258 C 64.2578 -73.9258 61.7188 -71.3379 61.7188 -67.9688 C 61.7188 -66.1133 62.5 -64.6484 63.623 -63.4766 L 74.707 -52.3438 L 87.0605 -41.0156 L 76.0742 -41.6016 L 18.8965 -41.6016 C 15.0391 -41.6016 12.4512 -39.0625 12.4512 -35.3516 C 12.4512 -31.6406 15.0391 -29.1016 18.8965 -29.1016 L 76.0742 -29.1016 L 87.0605 -29.7363 L 74.707 -18.3594 L 63.623 -7.27539 C 62.5 -6.10352 61.7188 -4.63867 61.7188 -2.7832 C 61.7188 0.634766 64.2578 3.17383 67.8711 3.17383 C 69.4336 3.17383 70.9473 2.53906 72.2656 1.2207 L 104.297 -30.7129 C 105.518 -31.9336 106.25 -33.6426 106.25 -35.3516 Z"/>
  </g>
  <g id="Medium-M" transform="matrix(1 0 0 1 1687.89 1126)">
   <path d="M 104.883 -35.3027 C 104.883 -36.8164 104.248 -38.2812 103.125 -39.3555 L 71.0449 -71.4355 C 69.7754 -72.6562 68.457 -73.1934 67.0898 -73.1934 C 63.9648 -73.1934 61.7188 -70.9961 61.7188 -68.0176 C 61.7188 -66.4551 62.3535 -65.1367 63.3301 -64.1602 L 74.3164 -53.0273 L 88.4766 -40.0879 L 77.1484 -40.7715 L 17.9688 -40.7715 C 14.6973 -40.7715 12.4512 -38.5254 12.4512 -35.3027 C 12.4512 -32.1289 14.6973 -29.8828 17.9688 -29.8828 L 77.1484 -29.8828 L 88.4766 -30.5664 L 74.3164 -17.627 L 63.3301 -6.49414 C 62.3535 -5.51758 61.7188 -4.19922 61.7188 -2.63672 C 61.7188 0.341797 63.9648 2.53906 67.0898 2.53906 C 68.457 2.53906 69.7754 2.00195 70.9473 0.878906 L 103.125 -31.2988 C 104.248 -32.373 104.883 -33.8379 104.883 -35.3027 Z"/>
  </g>
  <g id="Regular-M" transform="matrix(1 0 0 1 1392.06 1126)">
   <path d="M 103.125 -35.2539 C 103.125 -36.4746 102.637 -37.5977 101.66 -38.5254 L 69.2871 -70.8008 C 68.2129 -71.875 67.1875 -72.2656 66.0156 -72.2656 C 63.623 -72.2656 61.7676 -70.5078 61.7676 -68.0664 C 61.7676 -66.8945 62.1582 -65.7715 62.9395 -64.9902 L 73.877 -53.8574 L 90.2832 -38.8672 L 78.5156 -39.5996 L 16.748 -39.5996 C 14.209 -39.5996 12.4512 -37.793 12.4512 -35.2539 C 12.4512 -32.7148 14.209 -30.9082 16.748 -30.9082 L 78.5156 -30.9082 L 90.332 -31.6406 L 73.877 -16.6504 L 62.9395 -5.51758 C 62.1582 -4.78516 61.7676 -3.61328 61.7676 -2.44141 C 61.7676 0 63.623 1.75781 66.0156 1.75781 C 67.1875 1.75781 68.2129 1.31836 69.1895 0.390625 L 101.66 -31.9824 C 102.637 -32.9102 103.125 -34.0332 103.125 -35.2539 Z"/>
  </g>
  <g id="Light-M" transform="matrix(1 0 0 1 1095.35 1126)">
   <path d="M 103.125 -35.2539 C 103.125 -36.1816 102.734 -37.0117 102.002 -37.6953 L 69.3848 -70.4102 C 68.457 -71.3379 67.627 -71.6797 66.748 -71.6797 C 64.8926 -71.6797 63.5254 -70.3125 63.5254 -68.5059 C 63.5254 -67.5781 63.8184 -66.748 64.4043 -66.1133 L 79.0039 -51.3672 L 93.4082 -37.9883 L 82.0801 -38.5254 L 15.6738 -38.5254 C 13.8184 -38.5254 12.4512 -37.1582 12.4512 -35.2539 C 12.4512 -33.3496 13.8184 -31.9824 15.6738 -31.9824 L 82.0801 -31.9824 L 93.457 -32.5195 L 79.0039 -19.1406 L 64.4043 -4.39453 C 63.8184 -3.80859 63.5254 -2.92969 63.5254 -2.05078 C 63.5254 -0.244141 64.8926 1.12305 66.748 1.12305 C 67.627 1.12305 68.4082 0.830078 69.1406 0.146484 L 102.002 -32.8125 C 102.734 -33.4961 103.125 -34.3262 103.125 -35.2539 Z"/>
  </g>
  <g id="Thin-M" transform="matrix(1 0 0 1 798.634 1126)">
   <path d="M 103.125 -35.2539 C 103.125 -35.791 102.93 -36.2305 102.539 -36.6211 L 69.5312 -69.873 C 68.75 -70.6543 68.2617 -70.8496 67.7246 -70.8496 C 66.6016 -70.8496 65.8203 -70.0195 65.8203 -69.043 C 65.8203 -68.5059 65.9668 -68.0176 66.3086 -67.627 L 85.8398 -48.0957 L 97.4609 -36.8652 L 86.8164 -37.1094 L 14.3066 -37.1094 C 13.2812 -37.1094 12.4512 -36.3281 12.4512 -35.2539 C 12.4512 -34.1797 13.2812 -33.3984 14.3066 -33.3984 L 86.8164 -33.3984 L 97.5098 -33.6914 L 85.8398 -22.4121 L 66.3086 -2.88086 C 66.0156 -2.58789 65.8203 -2.05078 65.8203 -1.51367 C 65.8203 -0.488281 66.6016 0.341797 67.7246 0.341797 C 68.2617 0.341797 68.6523 0.146484 69.0918 -0.244141 L 102.539 -33.8867 C 102.93 -34.2773 103.125 -34.7168 103.125 -35.2539 Z"/>
  </g>
  <g id="Ultralight-M" transform="matrix(1 0 0 1 501.923 1126)">
   <path d="M 103.125 -35.2539 C 103.125 -35.5957 103.027 -35.8398 102.783 -36.084 L 69.6289 -69.5801 C 68.9453 -70.3125 68.5547 -70.459 68.2129 -70.459 C 67.4805 -70.459 67.041 -69.9219 67.041 -69.3359 C 67.041 -68.9453 67.0898 -68.6523 67.334 -68.4082 L 89.3555 -46.3867 L 99.5117 -36.2793 L 89.2578 -36.377 L 13.5742 -36.377 C 12.9883 -36.377 12.4512 -35.8887 12.4512 -35.2539 C 12.4512 -34.6191 12.9883 -34.1309 13.5742 -34.1309 L 89.2578 -34.1309 L 99.5117 -34.2285 L 89.3555 -24.1211 L 67.334 -2.09961 C 67.1387 -1.9043 67.041 -1.5625 67.041 -1.2207 C 67.041 -0.634766 67.4805 -0.0976562 68.2129 -0.0976562 C 68.5547 -0.0976562 68.7988 -0.195312 69.043 -0.439453 L 102.783 -34.4238 C 103.027 -34.668 103.125 -34.9121 103.125 -35.2539 Z"/>
  </g>
  <g id="Black-S" transform="matrix(1 0 0 1 2884.35 696)">
   <path d="M 88.3301 -35.498 C 88.3301 -37.6465 87.4023 -39.9902 86.0352 -41.3574 L 61.6699 -65.7227 C 60.0586 -67.334 58.0566 -68.2129 56.2012 -68.2129 C 51.3672 -68.2129 48.291 -64.9414 48.291 -60.6934 C 48.291 -58.1543 49.4629 -56.3965 50.9766 -54.9316 L 59.7656 -46.2402 L 63.0859 -43.1641 L 55.6641 -43.5059 L 18.2617 -43.5059 C 13.1348 -43.5059 9.76562 -40.332 9.76562 -35.498 C 9.76562 -30.6641 13.1348 -27.4902 18.2617 -27.4902 L 55.6641 -27.4902 L 63.0859 -27.832 L 59.7656 -24.7559 L 50.9766 -16.1133 C 49.4629 -14.6484 48.291 -12.8906 48.291 -10.3516 C 48.291 -6.10352 51.3672 -2.83203 56.2012 -2.83203 C 58.0566 -2.83203 60.0586 -3.71094 61.6699 -5.32227 L 86.0352 -29.6387 C 87.4023 -31.0059 88.3301 -33.3496 88.3301 -35.498 Z"/>
  </g>
  <g id="Heavy-S" transform="matrix(1 0 0 1 2588.52 696)">
   <path d="M 86.5723 -35.4492 C 86.5723 -37.3535 85.7422 -39.3555 84.4727 -40.625 L 59.9121 -65.1367 C 58.4961 -66.6016 56.7383 -67.334 55.0781 -67.334 C 50.8789 -67.334 48.0957 -64.4531 48.0957 -60.6934 C 48.0957 -58.5449 49.0723 -56.9336 50.4395 -55.6641 L 58.7402 -47.3633 L 64.4531 -42.0898 L 56.6406 -42.4805 L 17.1875 -42.4805 C 12.6953 -42.4805 9.76562 -39.6973 9.76562 -35.4492 C 9.76562 -31.2012 12.6953 -28.418 17.1875 -28.418 L 56.6406 -28.418 L 64.4531 -28.8086 L 58.7402 -23.4863 L 50.4395 -15.2832 C 49.1211 -13.9648 48.0957 -12.4023 48.0957 -10.2051 C 48.0957 -6.44531 50.8789 -3.56445 55.0781 -3.56445 C 56.7383 -3.56445 58.4961 -4.3457 59.9121 -5.76172 L 84.4727 -30.2734 C 85.7422 -31.4941 86.5723 -33.5449 86.5723 -35.4492 Z"/>
  </g>
  <g id="Bold-S" transform="matrix(1 0 0 1 2292.81 696)">
   <path d="M 84.5703 -35.4004 C 84.5703 -37.0117 83.8867 -38.6719 82.7637 -39.7949 L 57.959 -64.502 C 56.6895 -65.7715 55.2246 -66.4062 53.8086 -66.4062 C 50.293 -66.4062 47.9004 -63.9648 47.9004 -60.7422 C 47.9004 -58.9355 48.6816 -57.5684 49.8047 -56.4453 L 57.5684 -48.6328 L 66.0645 -40.8691 L 57.7148 -41.3574 L 15.9668 -41.3574 C 12.2559 -41.3574 9.76562 -38.9648 9.76562 -35.4004 C 9.76562 -31.8359 12.2559 -29.3945 15.9668 -29.3945 L 57.7148 -29.3945 L 66.0645 -29.8828 L 57.5684 -22.1191 L 49.8047 -14.3066 C 48.6816 -13.2324 47.9004 -11.8164 47.9004 -10.0586 C 47.9004 -6.83594 50.293 -4.39453 53.8086 -4.39453 C 55.2246 -4.39453 56.6895 -5.0293 57.959 -6.25 L 82.7637 -30.957 C 83.8867 -32.0801 84.5703 -33.7402 84.5703 -35.4004 Z"/>
  </g>
  <g id="Semibold-S" transform="matrix(1 0 0 1 1996.78 696)">
   <path d="M 83.2031 -35.3516 C 83.2031 -36.7676 82.5684 -38.1836 81.543 -39.209 L 56.6406 -64.0625 C 55.4688 -65.1855 54.1992 -65.7227 52.9297 -65.7227 C 49.9023 -65.7227 47.7539 -63.5742 47.7539 -60.7422 C 47.7539 -59.2285 48.3887 -57.959 49.3652 -57.0312 L 56.7871 -49.5117 L 67.1875 -40.0391 L 58.4961 -40.5762 L 15.1367 -40.5762 C 11.9141 -40.5762 9.76562 -38.4277 9.76562 -35.3516 C 9.76562 -32.2266 11.9141 -30.0781 15.1367 -30.0781 L 58.4961 -30.0781 L 67.2363 -30.6641 L 56.7871 -21.1426 L 49.3652 -13.6719 C 48.3887 -12.6953 47.7539 -11.4746 47.7539 -9.96094 C 47.7539 -7.08008 49.9023 -4.98047 52.9297 -4.98047 C 54.1992 -4.98047 55.4688 -5.51758 56.5918 -6.5918 L 81.543 -31.4453 C 82.5684 -32.4707 83.2031 -33.9355 83.2031 -35.3516 Z"/>
  </g>
  <g id="Medium-S" transform="matrix(1 0 0 1 1700.58 696)">
   <path d="M 82.1777 -35.3027 C 82.1777 -36.5723 81.5918 -37.8418 80.6152 -38.7695 L 55.6152 -63.7695 C 54.541 -64.7461 53.418 -65.2344 52.2461 -65.2344 C 49.6094 -65.2344 47.6562 -63.3301 47.6562 -60.7422 C 47.6562 -59.4238 48.1934 -58.3008 49.0234 -57.4219 L 56.2012 -50.1465 L 68.0664 -39.3555 L 59.0332 -39.9414 L 14.502 -39.9414 C 11.6699 -39.9414 9.76562 -38.0371 9.76562 -35.3027 C 9.76562 -32.5684 11.6699 -30.6152 14.502 -30.6152 L 59.0332 -30.6152 L 68.1152 -31.25 L 56.2012 -20.4102 L 49.0234 -13.1836 C 48.1934 -12.3047 47.6562 -11.1816 47.6562 -9.86328 C 47.6562 -7.27539 49.6094 -5.37109 52.2461 -5.37109 C 53.418 -5.37109 54.541 -5.85938 55.5664 -6.83594 L 80.6152 -31.8359 C 81.5918 -32.7637 82.1777 -34.0332 82.1777 -35.3027 Z"/>
  </g>
  <g id="Regular-S" transform="matrix(1 0 0 1 1404.56 696)">
   <path d="M 80.8105 -35.2539 C 80.8105 -36.3281 80.3223 -37.3535 79.4434 -38.1836 L 54.248 -63.3301 C 53.3691 -64.1602 52.3926 -64.5508 51.3672 -64.5508 C 49.2188 -64.5508 47.5586 -62.9395 47.5586 -60.7422 C 47.5586 -59.7168 47.9004 -58.6914 48.6328 -58.0078 L 55.3711 -51.0254 L 69.2383 -38.5254 L 59.7656 -39.209 L 13.6719 -39.209 C 11.377 -39.209 9.76562 -37.5488 9.76562 -35.2539 C 9.76562 -32.959 11.377 -31.2988 13.6719 -31.2988 L 59.7656 -31.2988 L 69.2871 -31.9824 L 55.3711 -19.4824 L 48.6328 -12.5 C 47.9004 -11.8164 47.5586 -10.791 47.5586 -9.76562 C 47.5586 -7.56836 49.2188 -5.95703 51.3672 -5.95703 C 52.3926 -5.95703 53.3691 -6.34766 54.248 -7.17773 L 79.4434 -32.3242 C 80.3223 -33.1543 80.8105 -34.1797 80.8105 -35.2539 Z"/>
  </g>
  <g id="Light-S" transform="matrix(1 0 0 1 1107.85 696)">
   <path d="M 80.8105 -35.2539 C 80.8105 -36.084 80.4688 -36.8652 79.7852 -37.5 L 54.3457 -62.9395 C 53.5645 -63.7207 52.832 -64.0137 52.0508 -64.0137 C 50.3906 -64.0137 49.0723 -62.793 49.0723 -61.1328 C 49.0723 -60.3027 49.3652 -59.5215 49.9023 -58.9844 L 59.9609 -48.8281 L 72.0215 -37.7441 L 62.9395 -38.2324 L 12.6953 -38.2324 C 10.9863 -38.2324 9.76562 -37.0117 9.76562 -35.2539 C 9.76562 -33.4961 10.9863 -32.2754 12.6953 -32.2754 L 62.9395 -32.2754 L 72.0215 -32.7637 L 59.9609 -21.6797 L 49.9023 -11.5234 C 49.3652 -10.9863 49.0723 -10.2051 49.0723 -9.375 C 49.0723 -7.71484 50.3906 -6.49414 52.0508 -6.49414 C 52.832 -6.49414 53.5156 -6.78711 54.1992 -7.42188 L 79.7852 -33.0078 C 80.4688 -33.6426 80.8105 -34.4238 80.8105 -35.2539 Z"/>
  </g>
  <g id="Thin-S" transform="matrix(1 0 0 1 811.134 696)">
   <path d="M 80.8105 -35.2539 C 80.8105 -35.7422 80.6152 -36.1816 80.2246 -36.5234 L 54.4434 -62.4512 C 53.8086 -63.1348 53.3691 -63.2812 52.8809 -63.2812 C 51.8555 -63.2812 51.123 -62.5488 51.123 -61.6211 C 51.123 -61.1328 51.2695 -60.6445 51.6113 -60.3516 L 65.9668 -45.9473 L 75.6348 -36.7188 L 67.1387 -36.9629 L 11.4746 -36.9629 C 10.498 -36.9629 9.76562 -36.2793 9.76562 -35.2539 C 9.76562 -34.2285 10.498 -33.5449 11.4746 -33.5449 L 67.1387 -33.5449 L 75.6348 -33.7891 L 65.9668 -24.5605 L 51.6113 -10.1562 C 51.3184 -9.86328 51.123 -9.375 51.123 -8.88672 C 51.123 -7.95898 51.8555 -7.22656 52.8809 -7.22656 C 53.3691 -7.22656 53.7598 -7.37305 54.1504 -7.76367 L 80.2246 -33.9844 C 80.6152 -34.3262 80.8105 -34.7656 80.8105 -35.2539 Z"/>
  </g>
  <g id="Ultralight-S" transform="matrix(1 0 0 1 514.423 696)">
   <path d="M 80.8105 -35.2539 C 80.8105 -35.5957 80.7129 -35.8398 80.4688 -36.0352 L 54.541 -62.207 C 53.9551 -62.793 53.6621 -62.9395 53.3203 -62.9395 C 52.6367 -62.9395 52.1973 -62.4512 52.1973 -61.8652 C 52.1973 -61.5234 52.2461 -61.2305 52.4902 -61.0352 L 69.043 -44.4336 L 77.4414 -36.2305 L 69.2871 -36.3281 L 10.8398 -36.3281 C 10.2539 -36.3281 9.76562 -35.8887 9.76562 -35.2539 C 9.76562 -34.6191 10.2539 -34.1797 10.8398 -34.1797 L 69.2871 -34.1797 L 77.4414 -34.2773 L 69.043 -26.0742 L 52.4902 -9.47266 C 52.2949 -9.32617 52.1973 -8.98438 52.1973 -8.64258 C 52.1973 -8.05664 52.6367 -7.56836 53.3203 -7.56836 C 53.6621 -7.56836 53.8574 -7.71484 54.1016 -7.91016 L 80.4688 -34.4727 C 80.7129 -34.668 80.8105 -34.9121 80.8105 -35.2539 Z"/>
  </g>
 </g>
</svg>
