<svg width="57" height="56" viewBox="0 0 57 56" fill="none" xmlns="http://www.w3.org/2000/svg">
<g clip-path="url(#clip0_33720_47775)">
<rect opacity="0.1" x="0.5" width="56" height="56" fill="#FFB71B"/>
<path fill-rule="evenodd" clip-rule="evenodd" d="M42.1471 35.877C42.1471 37.8691 40.806 39.4056 38.5924 39.4056H18.4102C16.1966 39.4056 14.8555 37.8691 14.8555 35.877C14.8555 35.265 15.0117 34.64 15.3633 34.054L25.4674 16.4499C26.1315 15.265 27.3034 14.666 28.5013 14.666C29.6992 14.666 30.8581 15.265 31.5352 16.4499L41.6393 34.054C41.9648 34.627 42.1471 35.265 42.1471 35.877ZM28.5143 30.7077C27.8372 30.7077 27.4596 30.3171 27.4466 29.627L27.2773 22.5436C27.2643 21.8535 27.7721 21.3587 28.5013 21.3587C29.2044 21.3587 29.7513 21.8665 29.7383 22.5566L29.543 29.627C29.5299 30.3301 29.1523 30.7077 28.5143 30.7077ZM28.5143 35.0697C27.7331 35.0697 27.056 34.4447 27.056 33.6764C27.056 32.8952 27.7201 32.2702 28.5143 32.2702C29.2956 32.2702 29.9596 32.8822 29.9596 33.6764C29.9596 34.4577 29.2826 35.0697 28.5143 35.0697Z" fill="#FFB71B"/>
</g>
<defs>
<clipPath id="clip0_33720_47775">
<rect x="0.5" width="56" height="56" rx="28" fill="white"/>
</clipPath>
</defs>
</svg>
