<svg width="24" height="24" viewBox="0 0 24 24" fill="none" xmlns="http://www.w3.org/2000/svg">
<path fill-rule="evenodd" clip-rule="evenodd" d="M22 12C22 17.4608 17.4706 22 12 22C6.53922 22 2 17.4608 2 12C2 6.52941 6.52941 2 11.9902 2C17.4608 2 22 6.52941 22 12ZM12.0098 14.0312C11.502 14.0312 11.2188 13.7383 11.209 13.2207L11.082 7.9082C11.0723 7.39062 11.4531 7.01953 12 7.01953C12.5273 7.01953 12.9375 7.40039 12.9277 7.91797L12.7812 13.2207C12.7715 13.748 12.4883 14.0312 12.0098 14.0312ZM12.0098 17.3027C11.4238 17.3027 10.916 16.834 10.916 16.2578C10.916 15.6719 11.4141 15.2031 12.0098 15.2031C12.5957 15.2031 13.0938 15.6621 13.0938 16.2578C13.0938 16.8437 12.5859 17.3027 12.0098 17.3027Z" fill="black"/>
</svg>
