<svg width="25" height="24" viewBox="0 0 25 24" fill="none" xmlns="http://www.w3.org/2000/svg">
<path d="M18.4966 16.4686C18.6507 16.5376 18.6601 16.7295 18.6786 17.1138C18.7283 18.1482 18.4383 19.0728 18.0511 19.8184C17.7129 20.4694 17.3009 20.9892 16.9762 21.3442C16.8565 21.4937 16.5708 21.8169 16.385 21.9167L16.3833 21.9176C16.1927 22.0716 15.934 22.1133 15.7051 22.0258C15.4762 21.9384 15.3112 21.7352 15.272 21.4933C15.1713 20.8734 14.921 20.2426 14.5938 19.6435C14.4579 19.3946 14.3899 19.2698 14.4208 19.1615C14.4516 19.0533 14.5719 18.9858 14.8113 18.85C15.9603 18.1983 16.968 17.5115 17.8469 16.8005C18.1774 16.5331 18.3426 16.3996 18.4966 16.4686Z" fill="#919191"/>
<path d="M6.01515 14.2007C6.21184 13.9256 6.57981 13.8347 6.88234 13.9859C8.31183 14.7008 9.71623 16.1052 10.431 17.5346C10.5821 17.8371 10.4905 18.2052 10.2153 18.4018C9.95988 18.657 9.20671 18.9378 8.86259 19.0462C8.07921 19.2866 6.96087 19.4082 5.89089 18.7524C5.79847 18.6957 5.7212 18.6176 5.66455 18.5251C5.00868 17.455 5.13031 16.3368 5.37075 15.5534C5.48243 15.0798 5.84677 14.4542 6.01515 14.2007Z" fill="#919191"/>
<path fill-rule="evenodd" clip-rule="evenodd" d="M13.9885 3.14119C16.7614 2.11213 19.2948 2.5376 20.8168 3.28942C20.9521 3.35633 21.0615 3.46654 21.1284 3.60186C21.8802 5.124 22.3067 7.65722 21.2775 10.4302C20.2427 13.2181 17.767 16.1733 12.8462 18.5935C12.6581 18.686 12.4373 18.6875 12.2479 18.5979C12.0584 18.5081 11.9199 18.3362 11.8724 18.1319C11.7648 17.6685 11.1668 16.1954 9.69516 14.7235C8.22374 13.2521 6.7508 12.6533 6.28676 12.5454C6.08256 12.4979 5.9107 12.3601 5.82077 12.1708C5.73089 11.9812 5.73262 11.7608 5.82521 11.5725C8.24544 6.6515 11.2006 4.17597 13.9885 3.14119ZM17.5957 6.82297C16.7008 5.92803 15.2492 5.92823 14.3542 6.82297C13.4592 7.71801 13.4592 9.16946 14.3542 10.0645C15.2493 10.9592 16.7008 10.9594 17.5957 10.0645C18.4903 9.16955 18.4903 7.71793 17.5957 6.82297Z" fill="#919191"/>
<path d="M7.30307 5.73832C7.68757 5.75678 7.88017 5.76616 7.94924 5.92028C8.01816 6.07437 7.88389 6.24022 7.61639 6.57089C6.90548 7.44971 6.21943 8.45763 5.5678 9.6065C5.43207 9.8458 5.36365 9.96531 5.25536 9.99615C5.14708 10.0269 5.02236 9.95903 4.7734 9.82307C4.17435 9.49593 3.54351 9.24556 2.92363 9.14494C2.68188 9.10558 2.4794 8.94061 2.39196 8.71179C2.30458 8.48297 2.34542 8.22508 2.49936 8.03455L2.50113 8.03189C2.60096 7.84605 2.92421 7.56037 3.07364 7.44074C3.42858 7.11611 3.94778 6.70392 4.59854 6.36586C5.34407 5.97857 6.26868 5.68866 7.30307 5.73832Z" fill="#919191"/>
</svg>
