<svg width="25" height="24" viewBox="0 0 25 24" fill="none" xmlns="http://www.w3.org/2000/svg">
<path d="M17.7099 14.5466C17.8143 14.6087 17.9432 14.6815 18.0892 14.7638C18.729 15.1248 19.696 15.6704 20.3585 16.3188C20.7729 16.7244 21.1666 17.2588 21.2381 17.9136C21.3142 18.6099 21.0105 19.2634 20.4011 19.844C19.3497 20.8456 18.088 21.6483 16.4561 21.6483H8.54164C6.90971 21.6483 5.64801 20.8456 4.59664 19.844C3.98722 19.2634 3.68345 18.6099 3.75956 17.9136C3.83113 17.2588 4.22482 16.7244 4.63917 16.3188C5.30168 15.6704 6.26875 15.1248 6.9085 14.7638C7.05448 14.6815 7.18344 14.6087 7.28783 14.5466C10.4776 12.6472 14.5201 12.6472 17.7099 14.5466Z" fill="#919191"/>
<path d="M7.78696 7.06394C7.78696 4.46163 9.89655 2.35205 12.4988 2.35205C15.1012 2.35205 17.2107 4.46163 17.2107 7.06394C17.2107 9.66624 15.1012 11.7758 12.4988 11.7758C9.89655 11.7758 7.78696 9.66624 7.78696 7.06394Z" fill="#919191"/>
</svg>
