<svg width="24" height="24" viewBox="0 0 24 24" fill="none" xmlns="http://www.w3.org/2000/svg">
<path d="M9.57031 14C10.1225 14.0002 10.5703 14.4478 10.5703 15C10.5703 15.5522 10.1225 15.9998 9.57031 16H7C6.44772 16 6 15.5523 6 15C6 14.4477 6.44772 14 7 14H9.57031Z" fill="#0F0F0F"/>
<path d="M18 4C20.2093 4 22 5.79072 22 8V16C22 18.2093 20.2093 20 18 20H6C3.79072 20 2 18.2093 2 16V8C2 5.79072 3.79072 4 6 4H18ZM4 16C4 17.1047 4.89528 18 6 18H18C19.1047 18 20 17.1047 20 16V10H4V16ZM6 6C4.89528 6 4 6.89528 4 8H20C20 6.89528 19.1047 6 18 6H6Z" fill="#0F0F0F"/>
</svg>
