<svg width="24" height="24" viewBox="0 0 24 24" fill="none" xmlns="http://www.w3.org/2000/svg">
<path d="M12.7156 5.98099L13.9538 8.4779C14.1227 8.82548 14.5729 9.15887 14.9528 9.22271L17.1971 9.59867C18.6323 9.83985 18.97 10.8897 17.9358 11.9253L16.1911 13.6845C15.8956 13.9824 15.7338 14.557 15.8252 14.9684L16.3247 17.1461C16.7187 18.8699 15.8111 19.5367 14.2985 18.6358L12.195 17.3802C11.8151 17.1532 11.1889 17.1532 10.802 17.3802L8.6984 18.6358C7.19283 19.5367 6.27824 18.8628 6.67222 17.1461L7.17173 14.9684C7.26319 14.557 7.10137 13.9824 6.80589 13.6845L5.06112 11.9253C4.03396 10.8897 4.36462 9.83985 5.79983 9.59867L8.04411 9.22271C8.41699 9.15887 8.86725 8.82548 9.0361 8.4779L10.2743 5.98099C10.9497 4.62613 12.0472 4.62613 12.7156 5.98099Z" stroke="#919191" stroke-width="1.5" stroke-linecap="round" stroke-linejoin="round"/>
</svg>
