<svg width="16" height="16" viewBox="0 0 16 16" fill="none" xmlns="http://www.w3.org/2000/svg">
<path d="M8.00098 1.5C10.5876 1.50011 12.7149 3.49715 12.8613 6.03125C13.7838 6.16999 14.5009 6.95472 14.501 7.91992V9.85156C14.5009 10.9164 13.6287 11.7646 12.5703 11.7646H12.543V11.7832C12.543 12.8479 11.6706 13.6961 10.6123 13.6963H9.70312C9.46781 14.1747 8.97318 14.501 8.4082 14.501H7.59277C6.80537 14.5009 6.15143 13.8688 6.15137 13.0713C6.15148 12.2738 6.8054 11.6417 7.59277 11.6416H8.4082C8.9732 11.6416 9.46782 11.9678 9.70312 12.4463H10.6123C10.9966 12.4461 11.293 12.1413 11.293 11.7832V11.6006C10.9058 11.3842 10.6396 10.9741 10.6396 10.4951V7.27539C10.6399 6.67519 11.0571 6.18273 11.6084 6.0459C11.471 4.20986 9.91672 2.75011 8.00098 2.75C6.08513 2.75004 4.52989 4.20978 4.39258 6.0459C4.94398 6.18255 5.36104 6.67501 5.36133 7.27539V10.4951C5.36133 11.2037 4.78119 11.7644 4.08398 11.7646H3.43066C2.37233 11.7646 1.50007 10.9163 1.5 9.85156V7.91992C1.50012 6.95434 2.21765 6.16856 3.14062 6.03027C3.28749 3.49659 5.41463 1.50004 8.00098 1.5ZM7.59277 12.8916C7.47938 12.8916 7.40149 12.9804 7.40137 13.0713C7.40144 13.1622 7.47934 13.2509 7.59277 13.251H8.4082C8.52168 13.251 8.59954 13.1622 8.59961 13.0713C8.59949 12.9804 8.52165 12.8916 8.4082 12.8916H7.59277ZM3.43066 7.25684C3.04634 7.25692 2.75014 7.56187 2.75 7.91992V9.85156C2.75007 10.2097 3.0463 10.5146 3.43066 10.5146H4.08398C4.08968 10.5146 4.09368 10.5129 4.09668 10.5117C4.10005 10.5103 4.10387 10.5084 4.10645 10.5059C4.10899 10.5033 4.11133 10.499 4.11133 10.499V7.27148C4.11133 7.27148 4.10896 7.26812 4.10645 7.26562C4.1038 7.26303 4.10014 7.26024 4.09668 7.25879C4.0937 7.25761 4.08956 7.25688 4.08398 7.25684H3.7666C3.76337 7.25689 3.76007 7.25781 3.75684 7.25781C3.75357 7.25781 3.75032 7.25689 3.74707 7.25684H3.43066ZM11.9043 7.25879C11.9009 7.26023 11.8972 7.26304 11.8945 7.26562C11.8923 7.26787 11.8906 7.27148 11.8906 7.27148L11.8896 7.27539V10.4951L11.8906 10.499C11.8906 10.499 11.892 10.5033 11.8945 10.5059C11.8972 10.5085 11.9008 10.5103 11.9043 10.5117C11.9074 10.513 11.9119 10.5146 11.918 10.5146H12.5703C12.9548 10.5146 13.2509 10.2097 13.251 9.85156V7.91992C13.2508 7.56182 12.9547 7.25684 12.5703 7.25684H12.2549C12.2517 7.25689 12.2484 7.25781 12.2451 7.25781C12.2419 7.25781 12.2386 7.25689 12.2354 7.25684H11.918C11.9121 7.25684 11.9074 7.25756 11.9043 7.25879Z" fill="#0F0F0F"/>
</svg>
