<svg width="28" height="28" viewBox="0 0 28 28" fill="none" xmlns="http://www.w3.org/2000/svg">
<path d="M11.249 4.35978C11.7405 3.8754 12.532 3.88125 13.0166 4.37248C13.5009 4.86406 13.4952 5.65549 13.0039 6.14006L6.29785 12.7514H24.75C25.4401 12.7515 25.9998 13.3113 26 14.0014C25.9997 14.6914 25.4401 15.2513 24.75 15.2514H6.29883L13.0039 21.8617C13.4952 22.3464 13.501 23.1387 13.0166 23.6303C12.532 24.1214 11.7406 24.1271 11.249 23.643L2.37207 14.891C2.13429 14.6563 2.00016 14.3355 2 14.0014C2.00012 13.667 2.13402 13.3455 2.37207 13.1108L11.249 4.35978Z" fill="#0F0F0F"/>
</svg>
