<svg width="16" height="16" viewBox="0 0 16 16" fill="none" xmlns="http://www.w3.org/2000/svg">
<path d="M7.49316 2.99902C9.97494 2.99922 11.9873 5.01131 11.9873 7.49316C11.9873 8.50867 11.6492 9.44469 11.0811 10.1973L12.8164 11.9346C13.0603 12.1788 13.0606 12.5754 12.8164 12.8193C12.5722 13.0633 12.1756 13.0626 11.9316 12.8184L10.1973 11.0811C9.44467 11.6492 8.50863 11.9872 7.49316 11.9873C5.01126 11.9873 2.9991 9.97508 2.99902 7.49316C2.99902 5.01119 5.01122 2.99902 7.49316 2.99902ZM7.49316 4.24902C5.70161 4.24902 4.24902 5.70151 4.24902 7.49316C4.2491 9.28476 5.70166 10.7373 7.49316 10.7373C9.28451 10.7371 10.7372 9.28464 10.7373 7.49316C10.7373 5.70163 9.28455 4.24922 7.49316 4.24902Z" fill="#0F0F0F"/>
</svg>
