<svg width="20" height="20" viewBox="0 0 20 20" fill="none" xmlns="http://www.w3.org/2000/svg">
<path d="M9.24707 2.99707C12.6988 2.99707 15.497 5.79539 15.4971 9.24707C15.4971 10.7026 14.9974 12.0402 14.1631 13.1025L16.7803 15.7197C17.0732 16.0126 17.0732 16.4874 16.7803 16.7803C16.4874 17.0732 16.0126 17.0732 15.7197 16.7803L13.1025 14.1631C12.0402 14.9974 10.7026 15.4971 9.24707 15.4971C5.7954 15.4969 2.99707 12.6988 2.99707 9.24707C2.99719 5.79547 5.79547 2.99719 9.24707 2.99707ZM9.24707 4.49707C6.6239 4.49719 4.49719 6.6239 4.49707 9.24707C4.49707 11.8703 6.62382 13.9969 9.24707 13.9971C11.8704 13.9971 13.9971 11.8704 13.9971 9.24707C13.997 6.62382 11.8703 4.49707 9.24707 4.49707Z" fill="#0F0F0F"/>
</svg>
