<svg width="24" height="24" viewBox="0 0 24 24" fill="none" xmlns="http://www.w3.org/2000/svg">
<path d="M11 3C15.4183 3 19 6.58172 19 11C19 12.8486 18.3703 14.5487 17.3174 15.9033L20.707 19.293C21.0976 19.6835 21.0976 20.3165 20.707 20.707C20.3165 21.0976 19.6835 21.0976 19.293 20.707L15.9033 17.3174C14.5487 18.3703 12.8486 19 11 19C6.58172 19 3 15.4183 3 11C3 6.58172 6.58172 3 11 3ZM11 5C7.68629 5 5 7.68629 5 11C5 14.3137 7.68629 17 11 17C14.3137 17 17 14.3137 17 11C17 7.68629 14.3137 5 11 5Z" fill="#0F0F0F"/>
</svg>
