<svg width="25" height="24" viewBox="0 0 25 24" fill="none" xmlns="http://www.w3.org/2000/svg">
<path fill-rule="evenodd" clip-rule="evenodd" d="M12.5 2.45898C17.7693 2.45907 22.041 6.7307 22.041 12C22.041 17.2693 17.7693 21.5409 12.5 21.541C7.23064 21.541 2.95898 17.2694 2.95898 12C2.95898 6.73064 7.23064 2.45898 12.5 2.45898ZM12.5 7.56232C12.0098 7.56232 11.6125 7.95968 11.6125 8.44985V12C11.6125 12.2354 11.706 12.4611 11.8725 12.6275L13.6476 14.4026C13.9942 14.7492 14.556 14.7492 14.9026 14.4026C15.2492 14.056 15.2492 13.4942 14.9026 13.1476L13.3875 11.6325V8.44985C13.3875 7.95968 12.9902 7.56232 12.5 7.56232Z" fill="#919191"/>
</svg>
