<svg width="20" height="20" viewBox="0 0 20 20" fill="none" xmlns="http://www.w3.org/2000/svg">
<path d="M10.3564 5.3584C10.7706 5.3585 11.1064 5.69425 11.1064 6.1084V10.25C11.1064 10.6641 10.7705 10.9999 10.3564 11H7.25C6.83594 10.9998 6.50004 10.6641 6.5 10.25C6.50004 9.83591 6.83594 9.50015 7.25 9.5H9.60645V6.1084C9.60645 5.69428 9.94236 5.35855 10.3564 5.3584Z" fill="#0F0F0F"/>
<path fill-rule="evenodd" clip-rule="evenodd" d="M10.4092 2.01074C14.6352 2.2248 17.996 5.71889 17.9961 9.99805C17.996 14.4151 14.4151 17.996 9.99805 17.9961C5.581 17.996 2.00007 14.4151 2 9.99805C2.00005 5.58099 5.58099 2.00005 9.99805 2L10.4092 2.01074ZM9.99805 3.5C6.40942 3.50005 3.50005 6.40942 3.5 9.99805C3.50007 13.5867 6.40943 16.496 9.99805 16.4961C13.5867 16.496 16.496 13.5867 16.4961 9.99805C16.496 6.40943 13.5867 3.50007 9.99805 3.5Z" fill="#0F0F0F"/>
</svg>
