<svg width="24" height="24" viewBox="0 0 24 24" fill="none" xmlns="http://www.w3.org/2000/svg">
<path d="M12.5 6C13.0523 6 13.5 6.44772 13.5 7V12.5C13.5 13.0523 13.0523 13.5 12.5 13.5H8.5C7.94772 13.5 7.5 13.0523 7.5 12.5C7.5 11.9477 7.94772 11.5 8.5 11.5H11.5V7C11.5 6.44772 11.9477 6 12.5 6Z" fill="#0F0F0F"/>
<path d="M12 2C17.5228 2 22 6.47715 22 12C22 17.5228 17.5228 22 12 22C6.47715 22 2 17.5228 2 12C2 6.47715 6.47715 2 12 2ZM12 4C7.58172 4 4 7.58172 4 12C4 16.4183 7.58172 20 12 20C16.4183 20 20 16.4183 20 12C20 7.58172 16.4183 4 12 4Z" fill="#0F0F0F"/>
</svg>
