<svg width="37" height="16" viewBox="0 0 37 16" fill="none" xmlns="http://www.w3.org/2000/svg">
<g clip-path="url(#clip0_32076_108665)">
<path d="M9.13663 6.29004H6.83315C6.83315 5.91543 6.78882 5.66407 6.70017 5.53594C6.56316 5.34663 6.18501 5.25192 5.56571 5.25182C4.9644 5.25182 4.56628 5.30636 4.37134 5.41543C4.17686 5.52503 4.07956 5.76319 4.07946 6.12991C4.07946 6.46181 4.16578 6.68025 4.3384 6.78526C4.46226 6.85958 4.62597 6.90327 4.82952 6.91633L5.29397 6.9488C6.28967 7.01411 6.91142 7.06007 7.15922 7.08668C7.9466 7.16535 8.51736 7.37283 8.8715 7.70911C9.15008 7.97153 9.316 8.31442 9.36927 8.73778C9.40209 9.02282 9.41759 9.30956 9.4157 9.59644C9.4157 10.3307 9.34503 10.8682 9.20369 11.2088C8.94737 11.834 8.37106 12.2294 7.47475 12.3948C7.0991 12.4648 6.52478 12.4998 5.75177 12.4999C4.46173 12.4999 3.56293 12.4236 3.05536 12.2709C2.43252 12.0835 2.02172 11.704 1.82298 11.1324C1.71216 10.8141 1.657 10.2839 1.65747 9.54188H3.96073V9.7317C3.96073 10.1277 4.07542 10.3823 4.30481 10.4957C4.48516 10.5785 4.68174 10.6209 4.88052 10.6198H5.72744C6.15951 10.6198 6.4351 10.5978 6.55423 10.5538C6.76604 10.4715 6.90509 10.3384 6.97138 10.1548C7.01042 10.0117 7.02824 9.86383 7.02427 9.71571C7.02427 9.31437 6.87663 9.06995 6.58136 8.98247C6.47054 8.94792 5.95695 8.89992 5.04059 8.83848C4.30439 8.78638 3.79311 8.73607 3.50678 8.68757C2.75269 8.54776 2.25023 8.25975 1.99941 7.82356C1.77876 7.45264 1.66856 6.89163 1.66881 6.14051C1.66881 5.56895 1.72837 5.11068 1.8475 4.7657C1.96663 4.42073 2.15862 4.15876 2.42347 3.97981C2.81207 3.70471 3.30872 3.5432 3.91343 3.49527C4.41697 3.45178 4.97551 3.42984 5.58906 3.42947C6.55567 3.42947 7.2445 3.48429 7.65555 3.59394C8.65795 3.86087 9.15915 4.6086 9.15915 5.8371C9.15915 5.93784 9.15167 6.08888 9.1367 6.29023M19.2652 12.5V3.38135H23.878C24.5106 3.38135 24.993 3.43253 25.3252 3.53489C26.0838 3.77039 26.5932 4.25274 26.8535 4.98193C26.988 5.3647 27.0554 5.94084 27.0555 6.71033C27.0555 7.6353 26.9813 8.30006 26.833 8.70461C26.5371 9.50478 25.9289 9.96502 25.0085 10.0853C24.9004 10.1034 24.4402 10.119 23.6278 10.1322L23.217 10.1458H21.741V12.5H19.2652ZM21.7412 8.03057H23.2847C23.7741 8.01309 24.0721 7.97541 24.1788 7.91751C24.3251 7.83779 24.4234 7.67784 24.4723 7.43851C24.5036 7.27925 24.5193 7.04219 24.5192 6.72733C24.5192 6.34161 24.488 6.05552 24.4257 5.86905C24.3366 5.60733 24.1233 5.44773 23.7856 5.39023C23.7187 5.38154 23.5586 5.37709 23.3054 5.37686H21.7414L21.7412 8.03057ZM32.3404 10.9241H29.0301L28.5852 12.5H26.0238L28.788 3.38135H32.5226L35.3205 12.5H32.8127L32.3404 10.9241ZM31.8487 9.14781L30.6886 5.19501L29.5628 9.14781H31.8487Z" fill="#656565"/>
<path d="M15.8479 4.6641C16.3331 4.66387 16.8123 4.77121 17.2503 4.97825C17.6884 5.1853 18.0741 5.48681 18.3794 5.86073L18.9131 4.72645C18.0416 3.91122 16.8878 3.4586 15.6895 3.46193C13.7386 3.46193 12.0698 4.63006 11.3851 6.28345H10.3444L9.72974 7.58927H11.0685C11.0578 7.71098 11.0523 7.83296 11.0518 7.95522C11.0518 8.10341 11.0594 8.25151 11.0745 8.39895H10.4018L9.78739 9.70515H11.4168C12.1211 11.3167 13.7691 12.448 15.6893 12.448C16.6178 12.4502 17.526 12.1792 18.2989 11.6694V10.0687C17.9676 10.444 17.5531 10.7382 17.0879 10.9282C16.6226 11.1181 16.1193 11.1986 15.6174 11.1634C15.1156 11.1282 14.6287 10.9782 14.1951 10.7252C13.7615 10.4722 13.3929 10.123 13.1183 9.70515H16.53L17.1444 8.39895H12.6164C12.5764 8.13082 12.5699 7.85882 12.5971 7.58912H17.5255L18.1398 6.28345H13.0229C13.3089 5.79143 13.7206 5.38274 14.2165 5.09845C14.7124 4.81416 15.2751 4.66431 15.8479 4.66395" fill="#656565"/>
<path d="M15.8478 4.7033C16.3273 4.70286 16.8007 4.80882 17.2335 5.01342C17.6663 5.21801 18.0473 5.51605 18.3488 5.88566L18.3885 5.93435L18.4155 5.87754L18.9491 4.74322L18.961 4.71735L18.9405 4.69791C18.1561 3.96938 17.1459 3.52563 16.0745 3.43897C15.0031 3.35231 13.9337 3.62784 13.0405 4.22067C12.2842 4.7221 11.6953 5.43497 11.3486 6.2688L11.385 6.24449H10.3189L10.3084 6.26696L9.69393 7.57305L9.66748 7.62881H11.0685L11.0291 7.58627C11.0184 7.70908 11.0129 7.83216 11.0124 7.95551C11.0124 8.10209 11.02 8.253 11.0351 8.40325L11.0745 8.36018H10.3769L10.3663 8.38265L9.75154 9.68874L9.72543 9.7445H11.4169L11.3806 9.72087C12.115 11.4013 13.8065 12.4873 15.6894 12.4873C16.6255 12.4898 17.5413 12.2166 18.3206 11.7025L18.3379 11.691V9.96488L18.2689 10.043C17.9416 10.4138 17.5321 10.7044 17.0725 10.892C16.6129 11.0796 16.1157 11.1591 15.6199 11.1243C15.1241 11.0895 14.6432 10.9414 14.2148 10.6915C13.7865 10.4415 13.4224 10.0967 13.151 9.68387L13.1181 9.74465H16.5552L16.5658 9.72218L17.1802 8.41579L17.2066 8.36022H12.6161L12.6554 8.39392C12.6158 8.12891 12.6094 7.86007 12.6363 7.5935L12.5969 7.62874H17.5506L17.5611 7.60627L18.1754 6.30025L18.2019 6.24449H13.0228L13.0568 6.30336C13.3405 5.81826 13.7475 5.41529 14.2371 5.13456C14.7268 4.85383 15.2821 4.70515 15.8478 4.7033ZM13.0228 6.3228H18.1395L18.1036 6.26704L17.4895 7.57305L17.5252 7.55058H12.5611L12.5573 7.58601C12.5303 7.85886 12.5369 8.13396 12.5769 8.40523L12.5822 8.43893H17.1443L17.1086 8.38302L16.4943 9.68904L16.5299 9.66657H13.0447L13.085 9.72701C13.3631 10.1499 13.7362 10.5031 14.175 10.7592C14.6139 11.0152 15.1066 11.167 15.6146 11.2026C16.1225 11.2383 16.6319 11.1569 17.1028 10.9647C17.5737 10.7726 17.9933 10.475 18.3287 10.0952L18.2593 10.0693V11.6701L18.2768 11.6377C17.5105 12.1431 16.61 12.4117 15.6896 12.4094C13.838 12.4094 12.1753 11.3418 11.4535 9.68997L11.443 9.66653H9.78747L9.82354 9.7227L10.4376 8.41572L10.4016 8.43863H11.1183L11.1138 8.39523C11.0989 8.24761 11.0911 8.09939 11.0911 7.95548C11.0911 7.84485 11.0967 7.72607 11.1078 7.59286L11.1113 7.55047H9.72982L9.76537 7.60623L10.3798 6.30022L10.3443 6.32269H11.4113L11.4212 6.29838C11.7624 5.47894 12.3413 4.77836 13.0846 4.28549C13.963 3.70279 15.0144 3.43201 16.0678 3.51724C17.1212 3.60248 18.1145 4.03871 18.8859 4.75491L18.8771 4.70974L18.3438 5.84432L18.4103 5.83597C18.0732 5.42363 17.6398 5.09884 17.1477 4.88966C16.6556 4.68048 16.1195 4.59319 15.5857 4.63534C15.0519 4.67748 14.5365 4.8478 14.084 5.13156C13.6315 5.41533 13.2555 5.80403 12.9885 6.26408L12.9541 6.32295L13.0228 6.3228Z" fill="#656565"/>
</g>
<defs>
<clipPath id="clip0_32076_108665">
<rect width="34.9773" height="9.5" fill="white" transform="translate(1 3)"/>
</clipPath>
</defs>
</svg>
