<svg width="36" height="36" viewBox="0 0 36 36" fill="none" xmlns="http://www.w3.org/2000/svg">
<circle opacity="0.1" cx="18" cy="18" r="18" fill="#0099FF"/>
<rect x="6.36133" y="10.0742" width="23.2783" height="15.8537" rx="3" fill="#0099FF"/>
<path fill-rule="evenodd" clip-rule="evenodd" d="M13.051 20.5817H11.5016L10.3397 16.4997C10.2846 16.3119 10.1675 16.1459 9.99524 16.0677C9.5654 15.8711 9.09174 15.7146 8.57503 15.6357V15.4785H11.071C11.4155 15.4785 11.6738 15.7146 11.7169 15.9888L12.3197 18.9333L13.8683 15.4785H15.3747L13.051 20.5817ZM16.2348 20.5798H14.7715L15.9764 15.4766H17.4397L16.2348 20.5798ZM19.3351 16.8908C19.3781 16.616 19.6365 16.4588 19.9379 16.4588C20.4116 16.4193 20.9275 16.4983 21.3581 16.6942L21.6165 15.5955C21.1859 15.4383 20.7122 15.3594 20.2824 15.3594C18.8622 15.3594 17.8287 16.0662 17.8287 17.0473C17.8287 17.7936 18.5608 18.1855 19.0775 18.4216C19.6365 18.657 19.8518 18.8141 19.8087 19.0495C19.8087 19.4026 19.3781 19.5598 18.9483 19.5598C18.4316 19.5598 17.9149 19.4421 17.442 19.2455L17.1836 20.3449C17.7003 20.5408 18.2593 20.6197 18.776 20.6197C20.3685 20.6585 21.3581 19.9523 21.3581 18.8924C21.3581 17.5575 19.3351 17.4793 19.3351 16.8908ZM26.4796 20.5798L25.3177 15.4766H24.0697C23.8114 15.4766 23.553 15.6337 23.4669 15.8691L21.3154 20.5798H22.8218L23.1224 19.8341H24.9732L25.1455 20.5798H26.4796ZM24.2831 16.8516L24.7129 18.7749H23.508L24.2831 16.8516Z" fill="white"/>
</svg>
