<svg width="25" height="24" viewBox="0 0 25 24" fill="none" xmlns="http://www.w3.org/2000/svg">
<path d="M4.92865 11.9194L8.24512 9.91626C8.80166 9.58065 9.07994 9.41283 9.27203 9.18267C10.1034 8.18658 9.37127 6.71537 9.49523 5.55703C9.62355 4.35802 10.7758 2.71812 11.9374 2.2097C12.2948 2.05323 12.7049 2.05323 13.0624 2.2097C14.2239 2.71812 15.3762 4.35802 15.5045 5.55703C15.6285 6.71537 14.8964 8.18658 15.7277 9.18267C15.9198 9.41283 16.1981 9.58065 16.7546 9.91626L20.0714 11.9193C21.0865 12.5323 21.4863 13.1866 21.4863 14.4174C21.4863 15.0872 21.1876 15.2668 20.5852 15.1301L14.7692 13.8097L14.508 16.0774C14.4133 16.8997 14.366 17.3108 14.5029 17.6874C14.8236 18.5694 15.9123 19.2917 16.5772 19.9333C16.9447 20.2878 17.3457 21.3073 16.9267 21.771C16.668 22.0572 16.2478 21.8248 15.9586 21.7132L13.1741 20.6386C12.8412 20.5101 12.6747 20.4458 12.4999 20.4458C12.3251 20.4458 12.1586 20.5101 11.8256 20.6386L9.04117 21.7132C8.75196 21.8248 8.33174 22.0572 8.07304 21.771C7.65402 21.3073 8.05507 20.2878 8.42254 19.9333C9.08746 19.2917 10.1762 18.5694 10.4968 17.6874C10.6337 17.3108 10.5864 16.8997 10.4917 16.0774L10.2306 13.8097L4.4149 15.13C3.81224 15.2668 3.51349 15.0872 3.51367 14.417C3.51401 13.1864 3.91377 12.5324 4.92865 11.9194Z" fill="#919191"/>
</svg>
