<svg width="24" height="24" viewBox="0 0 24 24" fill="none" xmlns="http://www.w3.org/2000/svg">
<path d="M5.93635 8.31922C9.2847 5.17226 14.7152 5.17226 18.0635 8.31922L18.4661 8.69543C18.6357 8.85304 18.6357 9.10723 18.4661 9.26484L17.0887 10.5612C17.0039 10.6375 16.8714 10.6375 16.7867 10.5612L16.2304 10.0376C13.894 7.84133 10.1059 7.84133 7.76946 10.0376L7.17609 10.5968C7.09132 10.6731 6.95887 10.6731 6.8741 10.5968L5.49132 9.30551C5.32179 9.14791 5.32179 8.89371 5.49132 8.73611L5.93635 8.31922ZM20.9138 10.9985L22.143 12.1525C22.3125 12.3101 22.3125 12.5643 22.143 12.7219L16.6065 17.9228C16.437 18.0804 16.1668 18.0804 16.0026 17.9228L12.0767 14.2319C12.0344 14.1912 11.9655 14.1912 11.9231 14.2319L7.99728 17.9228C7.82774 18.0804 7.55755 18.0804 7.39331 17.9228L1.85689 12.7219C1.68735 12.5643 1.68735 12.3101 1.85689 12.1525L3.08603 10.9985C3.25556 10.8409 3.52576 10.8409 3.69 10.9985L7.61582 14.6894C7.65821 14.7301 7.72708 14.7301 7.76946 14.6894L11.6953 10.9985C11.8648 10.8409 12.135 10.8409 12.2993 10.9985L16.2251 14.6894C16.2675 14.7301 16.3363 14.7301 16.3787 14.6894L20.3046 10.9985C20.4741 10.8409 20.7443 10.8409 20.9138 10.9985Z" fill="#1E1E1E"/>
</svg>
