<svg width="16" height="16" viewBox="0 0 16 16" fill="none" xmlns="http://www.w3.org/2000/svg">
<path d="M7.4997 2.66669L7.4997 12.4597L3.02021 7.98016C2.82494 7.7849 2.50844 7.7849 2.31318 7.98016C2.11808 8.17544 2.11797 8.49199 2.31318 8.68719L7.64618 14.0202C7.73987 14.1139 7.86721 14.1666 7.9997 14.1667C8.13223 14.1667 8.25946 14.1139 8.35321 14.0202L13.6872 8.6872C13.8824 8.49204 13.8821 8.17545 13.6872 7.98017C13.4919 7.7849 13.1754 7.7849 12.9802 7.98017L8.4997 12.4606L8.4997 2.66669C8.4997 2.39055 8.27584 2.16669 7.9997 2.16669C7.72371 2.16686 7.4997 2.39065 7.4997 2.66669Z" fill="#0F0F0F"/>
</svg>
