<svg width="24" height="24" viewBox="0 0 24 24" fill="none" xmlns="http://www.w3.org/2000/svg">
<path d="M11 4L11 18.0859L4.70703 11.793C4.31651 11.4024 3.6835 11.4024 3.29297 11.793C2.90245 12.1835 2.90245 12.8165 3.29297 13.207L11.293 21.207L11.3662 21.2734C11.5442 21.4193 11.7679 21.5 12 21.5C12.2652 21.5 12.5195 21.3946 12.707 21.207L20.707 13.207C21.0976 12.8165 21.0976 12.1835 20.707 11.793C20.3165 11.4024 19.6835 11.4024 19.293 11.793L13 18.0859L13 4C13 3.44772 12.5523 3 12 3C11.4477 3 11 3.44772 11 4Z" fill="#0F0F0F"/>
</svg>
