<svg width="32" height="32" viewBox="0 0 32 32" fill="none" xmlns="http://www.w3.org/2000/svg">
<path d="M14.5003 5.33331L14.5003 23.7122L6.39387 15.6058C5.80812 15.0202 4.85852 15.0202 4.27277 15.6058C3.68704 16.1915 3.68715 17.1411 4.27277 17.7269L14.9398 28.3939L15.0491 28.4935C15.3161 28.7123 15.6521 28.8333 16.0003 28.8333C16.398 28.8332 16.7796 28.6751 17.0609 28.3939L27.7269 17.7269C28.3127 17.1411 28.3127 16.1916 27.7269 15.6058C27.1411 15.0203 26.1915 15.0201 25.6058 15.6058L17.5003 23.7122L17.5003 5.33332C17.5003 4.505 16.8286 3.83349 16.0003 3.83332C15.1719 3.83331 14.5003 4.50489 14.5003 5.33331Z" fill="#0F0F0F"/>
</svg>
