<svg width="21" height="20" viewBox="0 0 21 20" fill="none" xmlns="http://www.w3.org/2000/svg">
<path fill-rule="evenodd" clip-rule="evenodd" d="M10.8184 2.72014C11.1054 2.59733 11.438 2.65747 11.6638 2.87303L18.5388 9.43553C18.693 9.58271 18.7802 9.78658 18.7802 9.99975C18.7802 10.2129 18.693 10.4168 18.5388 10.564L11.6638 17.1265C11.438 17.342 11.1054 17.4022 10.8184 17.2794C10.5314 17.1565 10.3452 16.8744 10.3452 16.5622V13.6067C8.57821 13.6748 7.37086 13.9809 6.42791 14.4684C5.35234 15.0245 4.54135 15.8562 3.61495 17.0424C3.41002 17.3047 3.06114 17.4081 2.74634 17.2998C2.43153 17.1914 2.22021 16.8952 2.22021 16.5622C2.22021 14.1724 2.61208 11.64 3.95234 9.68688C5.22484 7.83253 7.27821 6.60546 10.3452 6.42918V3.43725C10.3452 3.12506 10.5314 2.84295 10.8184 2.72014ZM11.9052 5.2601V7.18725C11.9052 7.61803 11.556 7.96725 11.1252 7.96725C8.04876 7.96725 6.2788 9.05375 5.23861 10.5695C4.51798 11.6197 4.1089 12.9315 3.917 14.3637C4.44968 13.8661 5.0321 13.4339 5.71148 13.0826C7.08692 12.3716 8.78032 12.0322 11.1252 12.0322C11.556 12.0322 11.9052 12.3815 11.9052 12.8122V14.7394L16.8706 9.99975L11.9052 5.2601Z" fill="#1E1E1E"/>
</svg>
