<?xml version="1.0" encoding="UTF-8"?>
<!--Generator: Apple Native CoreSVG 123-->
<!DOCTYPE svg
PUBLIC "-//W3C//DTD SVG 1.1//EN"
       "http://www.w3.org/Graphics/SVG/1.1/DTD/svg11.dtd">
<svg version="1.1" xmlns="http://www.w3.org/2000/svg" xmlns:xlink="http://www.w3.org/1999/xlink" width="3300" height="2200">
 <!--glyph: "uni100190.medium", point size: 100.000000, font version: "Version 15.0d7e11", template writer version: "5"-->
 <g id="Notes">
  <rect height="2200" id="artboard" style="fill:white;opacity:1" width="3300" x="0" y="0"/>
  <line id="" style="fill:none;stroke:black;opacity:1;stroke-width:0.5;" x1="263" x2="3036" y1="292" y2="292"/>
  <text style="stroke:none;fill:black;font-family:-apple-system,&quot;SF Pro Display&quot;,&quot;SF Pro Text&quot;,Helvetica,sans-serif;font-weight:bold;" transform="matrix(1 0 0 1 263 322)">Weight/Scale Variations</text>
  <text style="stroke:none;fill:black;font-family:-apple-system,&quot;SF Pro Display&quot;,&quot;SF Pro Text&quot;,Helvetica,sans-serif;text-anchor:middle;" transform="matrix(1 0 0 1 559.711 322)">Ultralight</text>
  <text style="stroke:none;fill:black;font-family:-apple-system,&quot;SF Pro Display&quot;,&quot;SF Pro Text&quot;,Helvetica,sans-serif;text-anchor:middle;" transform="matrix(1 0 0 1 856.422 322)">Thin</text>
  <text style="stroke:none;fill:black;font-family:-apple-system,&quot;SF Pro Display&quot;,&quot;SF Pro Text&quot;,Helvetica,sans-serif;text-anchor:middle;" transform="matrix(1 0 0 1 1153.13 322)">Light</text>
  <text style="stroke:none;fill:black;font-family:-apple-system,&quot;SF Pro Display&quot;,&quot;SF Pro Text&quot;,Helvetica,sans-serif;text-anchor:middle;" transform="matrix(1 0 0 1 1449.84 322)">Regular</text>
  <text style="stroke:none;fill:black;font-family:-apple-system,&quot;SF Pro Display&quot;,&quot;SF Pro Text&quot;,Helvetica,sans-serif;text-anchor:middle;" transform="matrix(1 0 0 1 1746.56 322)">Medium</text>
  <text style="stroke:none;fill:black;font-family:-apple-system,&quot;SF Pro Display&quot;,&quot;SF Pro Text&quot;,Helvetica,sans-serif;text-anchor:middle;" transform="matrix(1 0 0 1 2043.27 322)">Semibold</text>
  <text style="stroke:none;fill:black;font-family:-apple-system,&quot;SF Pro Display&quot;,&quot;SF Pro Text&quot;,Helvetica,sans-serif;text-anchor:middle;" transform="matrix(1 0 0 1 2339.98 322)">Bold</text>
  <text style="stroke:none;fill:black;font-family:-apple-system,&quot;SF Pro Display&quot;,&quot;SF Pro Text&quot;,Helvetica,sans-serif;text-anchor:middle;" transform="matrix(1 0 0 1 2636.69 322)">Heavy</text>
  <text style="stroke:none;fill:black;font-family:-apple-system,&quot;SF Pro Display&quot;,&quot;SF Pro Text&quot;,Helvetica,sans-serif;text-anchor:middle;" transform="matrix(1 0 0 1 2933.4 322)">Black</text>
  <line id="" style="fill:none;stroke:black;opacity:1;stroke-width:0.5;" x1="263" x2="3036" y1="1903" y2="1903"/>
  <g id="" transform="matrix(1 0 0 1 263 1933)">
   <path d="M 9.24805 0.830078 C 13.5547 0.830078 17.1387 -2.74414 17.1387 -7.05078 C 17.1387 -11.3574 13.5449 -14.9316 9.23828 -14.9316 C 4.94141 -14.9316 1.36719 -11.3574 1.36719 -7.05078 C 1.36719 -2.74414 4.95117 0.830078 9.24805 0.830078 Z M 9.24805 -0.654297 C 5.70312 -0.654297 2.87109 -3.49609 2.87109 -7.05078 C 2.87109 -10.6055 5.69336 -13.4473 9.23828 -13.4473 C 12.793 -13.4473 15.6348 -10.6055 15.6445 -7.05078 C 15.6543 -3.49609 12.8027 -0.654297 9.24805 -0.654297 Z M 9.22852 -3.42773 C 9.69727 -3.42773 9.9707 -3.74023 9.9707 -4.25781 L 9.9707 -6.31836 L 12.1973 -6.31836 C 12.6953 -6.31836 13.0371 -6.57227 13.0371 -7.04102 C 13.0371 -7.51953 12.7148 -7.7832 12.1973 -7.7832 L 9.9707 -7.7832 L 9.9707 -10.0098 C 9.9707 -10.5273 9.69727 -10.8496 9.22852 -10.8496 C 8.75977 -10.8496 8.50586 -10.5078 8.50586 -10.0098 L 8.50586 -7.7832 L 6.29883 -7.7832 C 5.78125 -7.7832 5.44922 -7.51953 5.44922 -7.04102 C 5.44922 -6.57227 5.80078 -6.31836 6.29883 -6.31836 L 8.50586 -6.31836 L 8.50586 -4.25781 C 8.50586 -3.75977 8.75977 -3.42773 9.22852 -3.42773 Z"/>
  </g>
  <g id="" transform="matrix(1 0 0 1 281.506 1933)">
   <path d="M 11.709 2.91016 C 17.1582 2.91016 21.6699 -1.60156 21.6699 -7.05078 C 21.6699 -12.4902 17.1484 -17.0117 11.6992 -17.0117 C 6.25977 -17.0117 1.74805 -12.4902 1.74805 -7.05078 C 1.74805 -1.60156 6.26953 2.91016 11.709 2.91016 Z M 11.709 1.25 C 7.09961 1.25 3.41797 -2.44141 3.41797 -7.05078 C 3.41797 -11.6504 7.08984 -15.3516 11.6992 -15.3516 C 16.3086 -15.3516 20 -11.6504 20.0098 -7.05078 C 20.0195 -2.44141 16.3184 1.25 11.709 1.25 Z M 11.6895 -2.41211 C 12.207 -2.41211 12.5195 -2.77344 12.5195 -3.33984 L 12.5195 -6.23047 L 15.5762 -6.23047 C 16.123 -6.23047 16.5039 -6.51367 16.5039 -7.03125 C 16.5039 -7.55859 16.1426 -7.86133 15.5762 -7.86133 L 12.5195 -7.86133 L 12.5195 -10.9277 C 12.5195 -11.5039 12.207 -11.8555 11.6895 -11.8555 C 11.1719 -11.8555 10.8789 -11.4844 10.8789 -10.9277 L 10.8789 -7.86133 L 7.83203 -7.86133 C 7.26562 -7.86133 6.89453 -7.55859 6.89453 -7.03125 C 6.89453 -6.51367 7.28516 -6.23047 7.83203 -6.23047 L 10.8789 -6.23047 L 10.8789 -3.33984 C 10.8789 -2.79297 11.1719 -2.41211 11.6895 -2.41211 Z"/>
  </g>
  <g id="" transform="matrix(1 0 0 1 304.924 1933)">
   <path d="M 14.9707 5.67383 C 21.9336 5.67383 27.6953 -0.078125 27.6953 -7.04102 C 27.6953 -14.0039 21.9238 -19.7559 14.9609 -19.7559 C 8.00781 -19.7559 2.25586 -14.0039 2.25586 -7.04102 C 2.25586 -0.078125 8.01758 5.67383 14.9707 5.67383 Z M 14.9707 3.85742 C 8.93555 3.85742 4.08203 -1.00586 4.08203 -7.04102 C 4.08203 -13.0762 8.92578 -17.9395 14.9609 -17.9395 C 21.0059 -17.9395 25.8594 -13.0762 25.8691 -7.04102 C 25.8789 -1.00586 21.0156 3.85742 14.9707 3.85742 Z M 14.9512 -1.06445 C 15.5176 -1.06445 15.8691 -1.45508 15.8691 -2.06055 L 15.8691 -6.13281 L 20.1074 -6.13281 C 20.6934 -6.13281 21.1133 -6.46484 21.1133 -7.02148 C 21.1133 -7.59766 20.7227 -7.93945 20.1074 -7.93945 L 15.8691 -7.93945 L 15.8691 -12.1875 C 15.8691 -12.8027 15.5176 -13.1934 14.9512 -13.1934 C 14.3848 -13.1934 14.0625 -12.7832 14.0625 -12.1875 L 14.0625 -7.93945 L 9.83398 -7.93945 C 9.21875 -7.93945 8.80859 -7.59766 8.80859 -7.02148 C 8.80859 -6.46484 9.23828 -6.13281 9.83398 -6.13281 L 14.0625 -6.13281 L 14.0625 -2.06055 C 14.0625 -1.47461 14.3848 -1.06445 14.9512 -1.06445 Z"/>
  </g>
  <text style="stroke:none;fill:black;font-family:-apple-system,&quot;SF Pro Display&quot;,&quot;SF Pro Text&quot;,Helvetica,sans-serif;font-weight:bold;" transform="matrix(1 0 0 1 263 1953)">Design Variations</text>
  <text style="stroke:none;fill:black;font-family:-apple-system,&quot;SF Pro Display&quot;,&quot;SF Pro Text&quot;,Helvetica,sans-serif;" transform="matrix(1 0 0 1 263 1971)">Symbols are supported in up to nine weights and three scales.</text>
  <text style="stroke:none;fill:black;font-family:-apple-system,&quot;SF Pro Display&quot;,&quot;SF Pro Text&quot;,Helvetica,sans-serif;" transform="matrix(1 0 0 1 263 1989)">For optimal layout with text and other symbols, vertically align</text>
  <text style="stroke:none;fill:black;font-family:-apple-system,&quot;SF Pro Display&quot;,&quot;SF Pro Text&quot;,Helvetica,sans-serif;" transform="matrix(1 0 0 1 263 2007)">symbols with the adjacent text.</text>
  <rect height="14" id="" style="fill:#00AEEF;stroke:none;opacity:0.4;" width="3" x="776" y="1919"/>
  <g id="" transform="matrix(1 0 0 1 779 1933)">
   <path d="M 10.5273 0 L 12.373 0 L 7.17773 -14.0918 L 5.43945 -14.0918 L 0.244141 0 L 2.08984 0 L 3.50586 -4.0332 L 9.11133 -4.0332 Z M 6.2793 -11.9531 L 6.33789 -11.9531 L 8.59375 -5.52734 L 4.02344 -5.52734 Z"/>
  </g>
  <rect height="14" id="" style="fill:#00AEEF;stroke:none;opacity:0.4;" width="3" x="791.617" y="1919"/>
  <text style="stroke:none;fill:black;font-family:-apple-system,&quot;SF Pro Display&quot;,&quot;SF Pro Text&quot;,Helvetica,sans-serif;font-weight:bold;" transform="matrix(1 0 0 1 776 1953)">Margins</text>
  <text style="stroke:none;fill:black;font-family:-apple-system,&quot;SF Pro Display&quot;,&quot;SF Pro Text&quot;,Helvetica,sans-serif;" transform="matrix(1 0 0 1 776 1971)">Leading and trailing margins on the left and right side of each symbol</text>
  <text style="stroke:none;fill:black;font-family:-apple-system,&quot;SF Pro Display&quot;,&quot;SF Pro Text&quot;,Helvetica,sans-serif;" transform="matrix(1 0 0 1 776 1989)">can be adjusted by modifying the width of the blue rectangles.</text>
  <text style="stroke:none;fill:black;font-family:-apple-system,&quot;SF Pro Display&quot;,&quot;SF Pro Text&quot;,Helvetica,sans-serif;" transform="matrix(1 0 0 1 776 2007)">Modifications are automatically applied proportionally to all</text>
  <text style="stroke:none;fill:black;font-family:-apple-system,&quot;SF Pro Display&quot;,&quot;SF Pro Text&quot;,Helvetica,sans-serif;" transform="matrix(1 0 0 1 776 2025)">scales and weights.</text>
  <g id="" transform="matrix(1 0 0 1 1289 1933)">
   <path d="M 2.83203 3.11523 L 4.375 4.6582 C 5.22461 5.48828 6.19141 5.41992 7.06055 4.46289 L 17.2754 -6.66016 C 17.7051 -6.36719 18.0957 -6.37695 18.5645 -6.47461 L 19.6094 -6.68945 L 20.3027 -5.99609 L 20.2539 -5.47852 C 20.1855 -4.95117 20.3516 -4.53125 20.8496 -4.0332 L 21.6602 -3.22266 C 22.168 -2.71484 22.8223 -2.68555 23.3008 -3.16406 L 26.5527 -6.41602 C 27.0312 -6.89453 27.0117 -7.54883 26.5039 -8.05664 L 25.6836 -8.87695 C 25.1855 -9.375 24.7754 -9.55078 24.2383 -9.47266 L 23.7109 -9.41406 L 23.0566 -10.0781 L 23.3398 -11.2207 C 23.4863 -11.7871 23.3398 -12.2559 22.7148 -12.8613 L 20.3027 -15.2539 C 16.7578 -18.7793 12.2266 -18.6719 9.11133 -15.5371 C 8.69141 -15.1074 8.64258 -14.5215 8.91602 -14.0918 C 9.15039 -13.7207 9.62891 -13.4961 10.2734 -13.6621 C 11.7871 -14.043 13.3008 -13.9258 14.7852 -12.9199 L 14.1602 -11.3379 C 13.9258 -10.752 13.9453 -10.2734 14.1797 -9.83398 L 3.01758 0.439453 C 2.08008 1.30859 1.97266 2.25586 2.83203 3.11523 Z M 10.6738 -15.1465 C 13.3398 -17.1387 16.6504 -16.8262 19.0527 -14.4141 L 21.6797 -11.8066 C 21.9141 -11.5723 21.9434 -11.3867 21.8848 -11.0938 L 21.5039 -9.53125 L 23.0762 -7.95898 L 24.043 -8.04688 C 24.3262 -8.07617 24.4141 -8.05664 24.6387 -7.83203 L 25.2637 -7.20703 L 22.5098 -4.46289 L 21.8848 -5.07812 C 21.6602 -5.30273 21.6406 -5.40039 21.6699 -5.68359 L 21.7578 -6.64062 L 20.1953 -8.20312 L 18.5742 -7.89062 C 18.291 -7.83203 18.1445 -7.83203 17.9102 -8.07617 L 15.7324 -10.2539 C 15.5078 -10.4883 15.4785 -10.625 15.6055 -10.9473 L 16.5527 -13.2227 C 14.9512 -14.7559 12.8418 -15.6055 10.8008 -14.9512 C 10.7129 -14.9219 10.6445 -14.9414 10.6152 -14.9805 C 10.5859 -15.0293 10.5859 -15.0781 10.6738 -15.1465 Z M 4.10156 2.41211 C 3.61328 1.91406 3.78906 1.61133 4.12109 1.30859 L 15.0781 -8.80859 L 16.3086 -7.57812 L 6.15234 3.34961 C 5.84961 3.68164 5.46875 3.7793 5.06836 3.37891 Z"/>
  </g>
  <text style="stroke:none;fill:black;font-family:-apple-system,&quot;SF Pro Display&quot;,&quot;SF Pro Text&quot;,Helvetica,sans-serif;font-weight:bold;" transform="matrix(1 0 0 1 1289 1953)">Exporting</text>
  <text style="stroke:none;fill:black;font-family:-apple-system,&quot;SF Pro Display&quot;,&quot;SF Pro Text&quot;,Helvetica,sans-serif;" transform="matrix(1 0 0 1 1289 1971)">Symbols should be outlined when exporting to ensure the</text>
  <text style="stroke:none;fill:black;font-family:-apple-system,&quot;SF Pro Display&quot;,&quot;SF Pro Text&quot;,Helvetica,sans-serif;" transform="matrix(1 0 0 1 1289 1989)">design is preserved when submitting to Xcode.</text>
  <text id="template-version" style="stroke:none;fill:black;font-family:-apple-system,&quot;SF Pro Display&quot;,&quot;SF Pro Text&quot;,Helvetica,sans-serif;text-anchor:end;" transform="matrix(1 0 0 1 3036 1933)">Template v.1.0</text>
  <text style="stroke:none;fill:black;font-family:-apple-system,&quot;SF Pro Display&quot;,&quot;SF Pro Text&quot;,Helvetica,sans-serif;text-anchor:end;" transform="matrix(1 0 0 1 3036 1951)">Generated from chevron.compact.up</text>
  <text style="stroke:none;fill:black;font-family:-apple-system,&quot;SF Pro Display&quot;,&quot;SF Pro Text&quot;,Helvetica,sans-serif;text-anchor:end;" transform="matrix(1 0 0 1 3036 1969)">Typeset at 100 points</text>
  <text style="stroke:none;fill:black;font-family:-apple-system,&quot;SF Pro Display&quot;,&quot;SF Pro Text&quot;,Helvetica,sans-serif;" transform="matrix(1 0 0 1 263 726)">Small</text>
  <text style="stroke:none;fill:black;font-family:-apple-system,&quot;SF Pro Display&quot;,&quot;SF Pro Text&quot;,Helvetica,sans-serif;" transform="matrix(1 0 0 1 263 1156)">Medium</text>
  <text style="stroke:none;fill:black;font-family:-apple-system,&quot;SF Pro Display&quot;,&quot;SF Pro Text&quot;,Helvetica,sans-serif;" transform="matrix(1 0 0 1 263 1586)">Large</text>
 </g>
 <g id="Guides">
  <g id="H-reference" style="fill:#27AAE1;stroke:none;" transform="matrix(1 0 0 1 339 696)">
   <path d="M 54.9316 0 L 57.666 0 L 30.5664 -70.459 L 28.0762 -70.459 L 0.976562 0 L 3.66211 0 L 12.9395 -24.4629 L 45.7031 -24.4629 Z M 29.1992 -67.0898 L 29.4434 -67.0898 L 44.8242 -26.709 L 13.8184 -26.709 Z"/>
  </g>
  <line id="Baseline-S" style="fill:none;stroke:#27AAE1;opacity:1;stroke-width:0.577;" x1="263" x2="3036" y1="696" y2="696"/>
  <line id="Capline-S" style="fill:none;stroke:#27AAE1;opacity:1;stroke-width:0.577;" x1="263" x2="3036" y1="625.541" y2="625.541"/>
  <g id="H-reference" style="fill:#27AAE1;stroke:none;" transform="matrix(1 0 0 1 339 1126)">
   <path d="M 54.9316 0 L 57.666 0 L 30.5664 -70.459 L 28.0762 -70.459 L 0.976562 0 L 3.66211 0 L 12.9395 -24.4629 L 45.7031 -24.4629 Z M 29.1992 -67.0898 L 29.4434 -67.0898 L 44.8242 -26.709 L 13.8184 -26.709 Z"/>
  </g>
  <line id="Baseline-M" style="fill:none;stroke:#27AAE1;opacity:1;stroke-width:0.577;" x1="263" x2="3036" y1="1126" y2="1126"/>
  <line id="Capline-M" style="fill:none;stroke:#27AAE1;opacity:1;stroke-width:0.577;" x1="263" x2="3036" y1="1055.54" y2="1055.54"/>
  <g id="H-reference" style="fill:#27AAE1;stroke:none;" transform="matrix(1 0 0 1 339 1556)">
   <path d="M 54.9316 0 L 57.666 0 L 30.5664 -70.459 L 28.0762 -70.459 L 0.976562 0 L 3.66211 0 L 12.9395 -24.4629 L 45.7031 -24.4629 Z M 29.1992 -67.0898 L 29.4434 -67.0898 L 44.8242 -26.709 L 13.8184 -26.709 Z"/>
  </g>
  <line id="Baseline-L" style="fill:none;stroke:#27AAE1;opacity:1;stroke-width:0.577;" x1="263" x2="3036" y1="1556" y2="1556"/>
  <line id="Capline-L" style="fill:none;stroke:#27AAE1;opacity:1;stroke-width:0.577;" x1="263" x2="3036" y1="1485.54" y2="1485.54"/>
  <rect height="119.336" id="left-margin" style="fill:#00AEEF;stroke:none;opacity:0.4;" width="12.4512" x="1393.86" y="1030.79"/>
  <rect height="119.336" id="right-margin" style="fill:#00AEEF;stroke:none;opacity:0.4;" width="12.4512" x="1493.37" y="1030.79"/>
 </g>
 <g id="Symbols">
  <g id="Black-L" transform="matrix(1 0 0 1 2857.2 1556)">
   <path d="M 23.0957 -38.5254 C 19.043 -36.6211 16.0645 -33.0566 16.0645 -28.3203 C 16.0645 -20.459 21.875 -15.4297 28.2227 -15.4297 C 31.8848 -15.4297 36.4746 -17.5781 40.4785 -19.4824 L 76.1719 -35.6445 L 111.914 -19.4824 C 115.918 -17.5781 120.508 -15.4297 124.17 -15.4297 C 130.518 -15.4297 136.328 -20.459 136.328 -28.3203 C 136.328 -33.0566 133.35 -36.6211 129.297 -38.5254 L 88.5742 -57.0801 C 83.7402 -59.3262 80.6641 -60.6934 76.1719 -60.6934 C 71.7285 -60.6934 68.7012 -59.3262 63.8184 -57.0801 Z"/>
  </g>
  <g id="Heavy-L" transform="matrix(1 0 0 1 2561.66 1556)">
   <path d="M 22.2168 -36.7188 C 18.6523 -35.1074 16.0645 -31.9336 16.0645 -27.8809 C 16.0645 -21.0938 21.0449 -16.748 26.6113 -16.748 C 29.7852 -16.748 33.7891 -18.6035 37.1582 -20.166 L 75 -36.6699 L 112.842 -20.166 C 116.26 -18.6035 120.264 -16.748 123.389 -16.748 C 129.004 -16.748 133.984 -21.0938 133.984 -27.8809 C 133.984 -31.9336 131.396 -35.1074 127.783 -36.7188 L 86.2793 -54.9805 C 82.0312 -56.9336 79.0039 -58.3008 75 -58.3008 C 71.0449 -58.3008 68.0664 -56.9336 63.7207 -54.9805 Z"/>
  </g>
  <g id="Bold-L" transform="matrix(1 0 0 1 2266.27 1556)">
   <path d="M 21.2402 -34.7168 C 18.2129 -33.3496 16.0645 -30.6641 16.0645 -27.3438 C 16.0645 -21.875 20.1172 -18.1641 24.8047 -18.1641 C 27.4414 -18.1641 30.7617 -19.7266 33.4473 -20.8984 L 73.6816 -37.8418 L 113.965 -20.8984 C 116.65 -19.7266 119.971 -18.1641 122.559 -18.1641 C 127.295 -18.1641 131.348 -21.875 131.348 -27.3438 C 131.348 -30.6641 129.199 -33.3496 126.123 -34.7168 L 83.7402 -52.6855 C 80.127 -54.2969 77.0996 -55.5664 73.6816 -55.5664 C 70.2637 -55.5664 67.334 -54.2969 63.6719 -52.6855 Z"/>
  </g>
  <g id="Semibold-L" transform="matrix(1 0 0 1 1970.46 1556)">
   <path d="M 20.5566 -33.3008 C 17.8711 -32.1777 16.0645 -29.7852 16.0645 -27.002 C 16.0645 -22.3633 19.4824 -19.1895 23.584 -19.1895 C 25.8301 -19.1895 28.7109 -20.459 30.9082 -21.4355 L 72.8027 -38.623 L 114.697 -21.4355 C 116.895 -20.459 119.775 -19.1895 121.973 -19.1895 C 126.123 -19.1895 129.541 -22.3633 129.541 -27.002 C 129.541 -29.7852 127.686 -32.1777 125 -33.3008 L 81.9824 -51.0742 C 78.8086 -52.4414 75.8301 -53.6621 72.8027 -53.6621 C 69.7754 -53.6621 66.7969 -52.4414 63.5742 -51.0742 Z"/>
  </g>
  <g id="Medium-L" transform="matrix(1 0 0 1 1674.46 1556)">
   <path d="M 20.0684 -32.2754 C 17.627 -31.25 16.0645 -29.1504 16.0645 -26.7578 C 16.0645 -22.8027 18.9941 -19.9219 22.6562 -19.9219 C 24.6094 -19.9219 27.1484 -21.0449 28.9551 -21.8262 L 72.1191 -39.209 L 115.234 -21.8262 C 117.09 -21.0449 119.629 -19.9219 121.582 -19.9219 C 125.244 -19.9219 128.125 -22.8027 128.125 -26.7578 C 128.125 -29.1504 126.562 -31.25 124.121 -32.2754 L 80.6641 -49.8535 C 77.832 -51.0742 74.8535 -52.2461 72.1191 -52.2461 C 69.3848 -52.2461 66.4551 -51.0742 63.5254 -49.8535 Z"/>
  </g>
  <g id="Regular-L" transform="matrix(1 0 0 1 1378.63 1556)">
   <path d="M 19.3848 -30.9082 C 17.334 -30.0781 16.0645 -28.2715 16.0645 -26.416 C 16.0645 -23.291 18.3594 -20.9473 21.4355 -20.9473 C 22.998 -20.9473 25.0977 -21.8262 26.416 -22.3145 L 71.1914 -39.9902 L 115.967 -22.3145 C 117.334 -21.8262 119.434 -20.9473 120.996 -20.9473 C 124.072 -20.9473 126.367 -23.291 126.367 -26.416 C 126.367 -28.2715 125.049 -30.0781 122.998 -30.9082 L 78.9062 -48.291 C 76.5137 -49.2676 73.584 -50.3906 71.1914 -50.3906 C 68.8477 -50.3906 65.9668 -49.2676 63.4766 -48.291 Z"/>
  </g>
  <g id="Light-L" transform="matrix(1 0 0 1 1083.33 1556)">
   <path d="M 18.5059 -29.5898 C 16.9434 -28.9551 16.0645 -27.6367 16.0645 -26.2695 C 16.0645 -24.0234 17.7246 -22.2656 20.0195 -22.2656 C 21.1914 -22.2656 22.7051 -22.9004 23.6816 -23.291 L 69.8242 -41.6504 L 115.918 -23.291 C 116.895 -22.9004 118.457 -22.2656 119.58 -22.2656 C 121.875 -22.2656 123.535 -24.0234 123.535 -26.2695 C 123.535 -27.6367 122.656 -28.9551 121.094 -29.5898 L 75.4883 -47.7539 C 73.7305 -48.4863 71.5332 -49.3164 69.8242 -49.3164 C 68.0664 -49.3164 65.918 -48.4863 64.1113 -47.7539 Z"/>
  </g>
  <g id="Thin-L" transform="matrix(1 0 0 1 788.478 1556)">
   <path d="M 17.334 -27.832 C 16.4551 -27.4414 16.0645 -26.7578 16.0645 -26.123 C 16.0645 -24.9512 16.9434 -24.0234 18.1641 -24.0234 C 18.7012 -24.0234 19.5312 -24.3652 20.0684 -24.5605 L 67.9688 -43.8477 L 115.82 -24.5605 C 116.357 -24.3652 117.188 -24.0234 117.725 -24.0234 C 118.945 -24.0234 119.824 -24.9512 119.824 -26.123 C 119.824 -26.7578 119.434 -27.4414 118.555 -27.832 L 70.9961 -47.0215 C 70.0195 -47.4609 68.8965 -47.8516 67.9688 -47.8516 C 66.9922 -47.8516 65.8691 -47.4609 64.8926 -47.0215 Z"/>
  </g>
  <g id="Ultralight-L" transform="matrix(1 0 0 1 492.719 1556)">
   <path d="M 16.748 -26.9531 C 16.1621 -26.709 16.0645 -26.2695 16.0645 -26.0742 C 16.0645 -25.4395 16.5039 -24.9512 17.2363 -24.9512 C 17.4805 -24.9512 17.9199 -25.0977 18.2129 -25.1953 L 66.9922 -44.9707 L 115.771 -25.1953 C 116.064 -25.0977 116.504 -24.9512 116.797 -24.9512 C 117.48 -24.9512 117.92 -25.4395 117.92 -26.0742 C 117.92 -26.2695 117.822 -26.709 117.236 -26.9531 L 68.6523 -46.6797 C 68.1641 -46.9238 67.5293 -47.1191 66.9922 -47.1191 C 66.4551 -47.1191 65.8203 -46.9238 65.332 -46.6797 Z"/>
  </g>
  <g id="Black-M" transform="matrix(1 0 0 1 2873.51 1126)">
   <path d="M 18.6035 -39.502 C 15.0879 -37.793 12.4512 -34.7168 12.4512 -30.4688 C 12.4512 -23.2422 17.7734 -18.8477 23.291 -18.8477 C 26.5625 -18.8477 30.6152 -20.8008 34.375 -22.6562 L 59.8633 -35.1074 L 85.4004 -22.6562 C 89.1602 -20.8008 93.2129 -18.8477 96.4844 -18.8477 C 102.002 -18.8477 107.324 -23.2422 107.324 -30.4688 C 107.324 -34.7168 104.688 -37.793 101.172 -39.502 L 69.873 -54.6387 C 65.6738 -56.6895 63.7207 -57.666 59.8633 -57.666 C 56.0547 -57.666 54.1016 -56.6895 49.9023 -54.6387 Z"/>
  </g>
  <g id="Heavy-M" transform="matrix(1 0 0 1 2577.73 1126)">
   <path d="M 17.8711 -37.8906 C 14.7461 -36.4258 12.4512 -33.6914 12.4512 -29.9805 C 12.4512 -23.7793 16.9922 -19.9219 21.875 -19.9219 C 24.7559 -19.9219 28.2715 -21.6309 31.4941 -23.1445 L 58.9844 -35.791 L 86.4746 -23.1445 C 89.6484 -21.6309 93.2129 -19.9219 96.0449 -19.9219 C 100.928 -19.9219 105.469 -23.7793 105.469 -29.9805 C 105.469 -33.6914 103.174 -36.4258 100.049 -37.8906 L 68.3105 -52.5391 C 64.5508 -54.2969 62.4023 -55.2734 58.9844 -55.2734 C 55.5176 -55.2734 53.3691 -54.2969 49.6582 -52.5391 Z"/>
  </g>
  <g id="Bold-M" transform="matrix(1 0 0 1 2282.04 1126)">
   <path d="M 17.0898 -36.084 C 14.3555 -34.8633 12.4512 -32.4707 12.4512 -29.4434 C 12.4512 -24.4141 16.1621 -21.1426 20.3613 -21.1426 C 22.7051 -21.1426 25.6836 -22.5098 28.2227 -23.6816 L 57.959 -36.5234 L 87.6465 -23.6816 C 90.1855 -22.5098 93.1641 -21.1426 95.5078 -21.1426 C 99.707 -21.1426 103.418 -24.4141 103.418 -29.4434 C 103.418 -32.4707 101.514 -34.8633 98.7793 -36.084 L 66.5039 -50.1465 C 63.2812 -51.6113 60.9375 -52.6367 57.959 -52.6367 C 54.9316 -52.6367 52.5879 -51.6113 49.3652 -50.1465 Z"/>
  </g>
  <g id="Semibold-M" transform="matrix(1 0 0 1 1986.04 1126)">
   <path d="M 16.5039 -34.8145 C 14.1113 -33.7891 12.4512 -31.6406 12.4512 -29.1016 C 12.4512 -24.8535 15.5762 -21.9727 19.2871 -21.9727 C 21.3379 -21.9727 23.9258 -23.1445 25.9766 -24.0234 L 57.2266 -37.0605 L 88.4766 -24.0234 C 90.5273 -23.1445 93.1641 -21.9727 95.166 -21.9727 C 98.877 -21.9727 102.002 -24.8535 102.002 -29.1016 C 102.002 -31.6406 100.342 -33.7891 97.9492 -34.8145 L 65.2832 -48.5352 C 62.4023 -49.7559 59.9121 -50.8301 57.2266 -50.8301 C 54.541 -50.8301 52.0508 -49.7559 49.1699 -48.5352 Z"/>
  </g>
  <g id="Medium-M" transform="matrix(1 0 0 1 1689.87 1126)">
   <path d="M 16.1133 -33.8379 C 13.916 -32.959 12.4512 -31.0547 12.4512 -28.8086 C 12.4512 -25.1465 15.1367 -22.5586 18.457 -22.5586 C 20.2637 -22.5586 22.5586 -23.584 24.2676 -24.3164 L 56.6895 -37.4512 L 89.1113 -24.3164 C 90.8203 -23.584 93.1641 -22.5586 94.9219 -22.5586 C 98.2422 -22.5586 100.928 -25.1465 100.928 -28.8086 C 100.928 -31.0547 99.4629 -32.959 97.2656 -33.8379 L 64.3555 -47.2656 C 61.7676 -48.3398 59.1797 -49.4141 56.6895 -49.4141 C 54.1992 -49.4141 51.6602 -48.3398 49.0234 -47.2656 Z"/>
  </g>
  <g id="Regular-M" transform="matrix(1 0 0 1 1393.86 1126)">
   <path d="M 15.5273 -32.6172 C 13.6719 -31.8848 12.4512 -30.2246 12.4512 -28.4668 C 12.4512 -25.5859 14.5508 -23.3887 17.3828 -23.3887 C 18.8965 -23.3887 20.8008 -24.2188 22.0215 -24.707 L 56.0059 -37.9883 L 89.9414 -24.707 C 91.1621 -24.2188 93.1152 -23.3887 94.5801 -23.3887 C 97.4121 -23.3887 99.5117 -25.5859 99.5117 -28.4668 C 99.5117 -30.2246 98.291 -31.8848 96.4355 -32.6172 L 63.1348 -45.6543 C 60.8887 -46.5332 58.1543 -47.6074 56.0059 -47.6074 C 53.8086 -47.6074 51.123 -46.5332 48.877 -45.6543 Z"/>
  </g>
  <g id="Light-M" transform="matrix(1 0 0 1 1098.4 1126)">
   <path d="M 14.7461 -31.4453 C 13.3301 -30.8594 12.4512 -29.6387 12.4512 -28.3691 C 12.4512 -26.2207 14.0137 -24.6094 16.1621 -24.6094 C 17.2363 -24.6094 18.6523 -25.1953 19.5801 -25.5371 L 54.7363 -39.4531 L 89.8438 -25.5371 C 90.7715 -25.1953 92.2363 -24.6094 93.3105 -24.6094 C 95.459 -24.6094 97.0215 -26.2207 97.0215 -28.3691 C 97.0215 -29.6387 96.1426 -30.8594 94.7266 -31.4453 L 60.0586 -45.166 C 58.3984 -45.8496 56.3477 -46.6309 54.7363 -46.6309 C 53.125 -46.6309 51.0742 -45.8496 49.4141 -45.166 Z"/>
  </g>
  <g id="Thin-M" transform="matrix(1 0 0 1 803.37 1126)">
   <path d="M 13.6719 -29.8828 C 12.8418 -29.541 12.4512 -28.8574 12.4512 -28.2227 C 12.4512 -27.0508 13.2812 -26.1719 14.502 -26.1719 C 15.0391 -26.1719 15.8203 -26.4648 16.3574 -26.709 L 53.0762 -41.4551 L 89.7949 -26.709 C 90.2832 -26.4648 91.1133 -26.1719 91.6504 -26.1719 C 92.8223 -26.1719 93.6523 -27.0508 93.6523 -28.2227 C 93.6523 -28.8574 93.2617 -29.541 92.4316 -29.8828 L 56.0059 -44.5312 C 55.0781 -44.9219 53.9551 -45.3613 53.0762 -45.3613 C 52.1484 -45.3613 51.0742 -44.9219 50.1465 -44.5312 Z"/>
  </g>
  <g id="Ultralight-M" transform="matrix(1 0 0 1 507.514 1126)">
   <path d="M 13.1348 -29.1016 C 12.5977 -28.8574 12.4512 -28.418 12.4512 -28.1738 C 12.4512 -27.4902 12.9395 -26.9531 13.623 -26.9531 C 13.916 -26.9531 14.4043 -27.1484 14.6973 -27.2461 L 52.1973 -42.4316 L 89.7461 -27.2461 C 90.0391 -27.1484 90.4785 -26.9531 90.7715 -26.9531 C 91.5039 -26.9531 91.9434 -27.4902 91.9434 -28.1738 C 91.9434 -28.418 91.7969 -28.8574 91.2598 -29.1016 L 53.9062 -44.1895 C 53.3691 -44.4336 52.7344 -44.6777 52.1973 -44.6777 C 51.6602 -44.6777 51.0254 -44.4336 50.4883 -44.1895 Z"/>
  </g>
  <g id="Black-S" transform="matrix(1 0 0 1 2886.53 696)">
   <path d="M 14.5508 -38.4766 C 11.8164 -37.1582 9.76562 -34.7656 9.76562 -31.4453 C 9.76562 -25.8789 13.8672 -22.4609 18.1641 -22.4609 C 20.7031 -22.4609 23.8281 -23.9746 26.7578 -25.3906 L 46.875 -35.1562 L 66.9922 -25.3906 C 69.9219 -23.9746 73.0469 -22.4609 75.5859 -22.4609 C 79.8828 -22.4609 83.9844 -25.8789 83.9844 -31.4453 C 83.9844 -34.7656 81.9336 -37.1582 79.1992 -38.4766 L 54.6875 -50.293 C 51.416 -51.8555 49.8535 -52.6367 46.875 -52.6367 C 43.8965 -52.6367 42.334 -51.8555 39.0625 -50.293 Z"/>
  </g>
  <g id="Heavy-S" transform="matrix(1 0 0 1 2590.38 696)">
   <path d="M 14.0625 -37.3535 C 11.5723 -36.1816 9.76562 -34.0332 9.76562 -31.1035 C 9.76562 -26.2207 13.3301 -23.1445 17.2363 -23.1445 C 19.4824 -23.1445 22.3145 -24.4629 24.8047 -25.6836 L 46.2891 -35.498 L 67.8223 -25.6836 C 70.3125 -24.4629 73.1445 -23.1445 75.3906 -23.1445 C 79.248 -23.1445 82.8613 -26.2207 82.8613 -31.1035 C 82.8613 -34.0332 81.0059 -36.1816 78.5156 -37.3535 L 53.8086 -48.7305 C 50.8301 -50.0977 49.0723 -50.9277 46.2891 -50.9277 C 43.5547 -50.9277 41.7969 -50.0977 38.8184 -48.7305 Z"/>
  </g>
  <g id="Bold-S" transform="matrix(1 0 0 1 2294.3 696)">
   <path d="M 13.5742 -36.1328 C 11.3281 -35.1074 9.76562 -33.2031 9.76562 -30.7129 C 9.76562 -26.6113 12.793 -23.9258 16.2109 -23.9258 C 18.1641 -23.9258 20.6055 -25.0488 22.6074 -25.9766 L 45.7031 -35.8887 L 68.75 -25.9766 C 70.752 -25.0488 73.2422 -23.9258 75.1465 -23.9258 C 78.5645 -23.9258 81.5918 -26.6113 81.5918 -30.7129 C 81.5918 -33.2031 80.0293 -35.1074 77.7832 -36.1328 L 52.832 -46.9727 C 50.1953 -48.1445 48.1445 -49.0234 45.7031 -49.0234 C 43.2129 -49.0234 41.2109 -48.1445 38.5254 -46.9727 Z"/>
  </g>
  <g id="Semibold-S" transform="matrix(1 0 0 1 1998.03 696)">
   <path d="M 13.1836 -35.2539 C 11.1816 -34.375 9.76562 -32.6172 9.76562 -30.4199 C 9.76562 -26.8555 12.3535 -24.4629 15.4785 -24.4629 C 17.2363 -24.4629 19.3848 -25.4395 21.0938 -26.1719 L 45.2637 -36.1816 L 69.3848 -26.1719 C 71.0938 -25.4395 73.291 -24.4629 75 -24.4629 C 78.125 -24.4629 80.7129 -26.8555 80.7129 -30.4199 C 80.7129 -32.6172 79.2969 -34.375 77.2949 -35.2539 L 52.1484 -45.752 C 49.707 -46.7773 47.5098 -47.7051 45.2637 -47.7051 C 42.9688 -47.7051 40.8203 -46.7773 38.3301 -45.752 Z"/>
  </g>
  <g id="Medium-S" transform="matrix(1 0 0 1 1701.63 696)">
   <path d="M 12.9395 -34.6191 C 11.0352 -33.8379 9.76562 -32.1777 9.76562 -30.2246 C 9.76562 -27.0996 12.0605 -24.8535 14.9414 -24.8535 C 16.5527 -24.8535 18.5059 -25.7324 19.9707 -26.3184 L 44.9219 -36.377 L 69.873 -26.3184 C 71.3379 -25.7324 73.3398 -24.8535 74.8535 -24.8535 C 77.7344 -24.8535 80.0781 -27.0996 80.0781 -30.2246 C 80.0781 -32.1777 78.7598 -33.8379 76.9043 -34.6191 L 51.6113 -44.8242 C 49.3652 -45.752 47.0703 -46.7285 44.9219 -46.7285 C 42.7734 -46.7285 40.4785 -45.752 38.2324 -44.8242 Z"/>
  </g>
  <g id="Regular-S" transform="matrix(1 0 0 1 1405.36 696)">
   <path d="M 12.5488 -33.7402 C 10.8887 -33.1055 9.76562 -31.5918 9.76562 -29.9805 C 9.76562 -27.3438 11.6699 -25.3906 14.2578 -25.3906 C 15.625 -25.3906 17.334 -26.123 18.457 -26.5625 L 44.4824 -36.6699 L 70.5078 -26.5625 C 71.6309 -26.123 73.3887 -25.3906 74.707 -25.3906 C 77.2949 -25.3906 79.1992 -27.3438 79.1992 -29.9805 C 79.1992 -31.5918 78.0762 -33.1055 76.416 -33.7402 L 50.9277 -43.6035 C 48.9258 -44.4336 46.4355 -45.4102 44.4824 -45.4102 C 42.5293 -45.4102 40.0879 -44.4336 38.0371 -43.6035 Z"/>
  </g>
  <g id="Light-S" transform="matrix(1 0 0 1 1109.77 696)">
   <path d="M 11.8652 -32.7148 C 10.5957 -32.1777 9.76562 -31.0547 9.76562 -29.8828 C 9.76562 -27.9297 11.1816 -26.416 13.1348 -26.416 C 14.1602 -26.416 15.4297 -27.002 16.3086 -27.2949 L 43.3594 -37.9883 L 70.459 -27.2949 C 71.2891 -27.002 72.6074 -26.416 73.584 -26.416 C 75.5371 -26.416 76.9531 -27.9297 76.9531 -29.8828 C 76.9531 -31.0547 76.1719 -32.1777 74.8535 -32.7148 L 48.2422 -43.2129 C 46.7285 -43.7988 44.873 -44.5312 43.3594 -44.5312 C 41.8945 -44.5312 40.0391 -43.7988 38.5254 -43.2129 Z"/>
  </g>
  <g id="Thin-S" transform="matrix(1 0 0 1 814.528 696)">
   <path d="M 10.9375 -31.3477 C 10.1562 -31.0059 9.76562 -30.3711 9.76562 -29.7852 C 9.76562 -28.6621 10.5469 -27.832 11.6699 -27.832 C 12.207 -27.832 12.9395 -28.125 13.4277 -28.3203 L 41.8945 -39.6973 L 70.3613 -28.3203 C 70.8496 -28.125 71.582 -27.832 72.1191 -27.832 C 73.2422 -27.832 74.0234 -28.6621 74.0234 -29.7852 C 74.0234 -30.3711 73.6328 -31.0059 72.8516 -31.3477 L 44.6289 -42.627 C 43.7988 -43.0176 42.7246 -43.4082 41.8945 -43.4082 C 41.0645 -43.4082 40.0391 -43.0176 39.1602 -42.627 Z"/>
  </g>
  <g id="Ultralight-S" transform="matrix(1 0 0 1 518.573 696)">
   <path d="M 10.4492 -30.6152 C 9.96094 -30.4199 9.76562 -30.0293 9.76562 -29.6875 C 9.76562 -29.0527 10.2539 -28.5645 10.9375 -28.5645 C 11.2305 -28.5645 11.6699 -28.7109 11.9629 -28.8574 L 41.1621 -40.625 L 70.3125 -28.8574 C 70.6055 -28.7109 71.0449 -28.5645 71.3867 -28.5645 C 72.0703 -28.5645 72.5098 -29.0527 72.5098 -29.6875 C 72.5098 -30.0293 72.3145 -30.4199 71.8262 -30.6152 L 42.8223 -42.334 C 42.2852 -42.5781 41.6504 -42.8223 41.1621 -42.8223 C 40.625 -42.8223 39.9902 -42.5781 39.4531 -42.334 Z"/>
  </g>
 </g>
</svg>
