<svg width="22" height="22" viewBox="0 0 22 22" fill="none" xmlns="http://www.w3.org/2000/svg">
<g clip-path="url(#clip0_8163_5355)">
<rect width="22" height="22" rx="11" fill="white"/>
<rect width="22" height="22" fill="#181818"/>
<path d="M8.85682 6H7.57463C7.48608 6 7.40705 6.05817 7.37667 6.14553L4.00647 15.8514C3.98141 15.9236 4.0323 16 4.10545 16H5.38763C5.47618 16 5.55521 15.9418 5.58559 15.8546L8.95579 6.14862C8.98085 6.0764 8.92997 6 8.85682 6ZM10.4163 10.0668C10.3826 9.96982 10.2521 9.96982 10.2184 10.0668L9.55367 11.9814C9.53663 12.0304 9.53663 12.0841 9.55367 12.1331L10.8459 15.8545C10.8762 15.9418 10.9552 15.9999 11.0438 15.9999H12.326C12.3992 15.9999 12.45 15.9236 12.425 15.8513L10.4163 10.0668ZM13.685 11.9408C13.7186 12.0378 13.8492 12.0378 13.8829 11.9408L15.8941 6.14862C15.9192 6.0764 15.8683 6 15.7951 6H14.5129C14.4244 6 14.3454 6.05809 14.315 6.14553L13.0202 9.87444C13.0032 9.92343 13.0032 9.9771 13.0202 10.0261L13.685 11.9408ZM11.1569 6.1445C11.1268 6.05773 11.0483 6 10.9605 6H9.67393C9.58543 6 9.50644 6.05809 9.47602 6.14546L6.1059 15.8514C6.08084 15.9236 6.13173 16 6.20488 16H7.48713C7.57568 16 7.65471 15.9419 7.68509 15.8546L10.2654 8.42315C10.2823 8.3744 10.348 8.3744 10.3648 8.42315L12.9452 15.8546C12.9755 15.9419 13.0546 16 13.1432 16H14.4254C14.4986 16 14.5495 15.9236 14.5244 15.8515L11.1569 6.1445ZM17.8946 6H16.6122C16.5238 6 16.4446 6.05809 16.4143 6.14546L14.0698 12.8975C14.0528 12.9465 14.0528 13.0002 14.0698 13.0492L14.7347 14.9639C14.7684 15.0609 14.8989 15.0609 14.9326 14.9639L17.2534 8.27998L17.9935 6.14854C18.0186 6.0764 17.9677 6 17.8946 6Z" fill="#EF8220"/>
</g>
<defs>
<clipPath id="clip0_8163_5355">
<rect width="22" height="22" rx="11" fill="white"/>
</clipPath>
</defs>
</svg>
