<svg width="16" height="16" viewBox="0 0 16 16" fill="none" xmlns="http://www.w3.org/2000/svg">
<path d="M8.03784 1.16699C9.49831 1.16698 10.6461 1.1667 11.5417 1.28711C12.4594 1.41052 13.1875 1.66914 13.7595 2.24121C14.3315 2.8133 14.5893 3.54133 14.7126 4.45898C14.833 5.35454 14.8337 6.50158 14.8337 7.96191V8.03809C14.8337 9.49854 14.8331 10.6464 14.7126 11.542C14.5892 12.4596 14.3316 13.1877 13.7595 13.7598C13.1875 14.3318 12.4593 14.5895 11.5417 14.7129C10.6461 14.8333 9.4983 14.834 8.03784 14.834H7.96167C6.50134 14.834 5.35429 14.8333 4.45874 14.7129C3.54109 14.5895 2.81306 14.3318 2.24097 13.7598C1.6689 13.1877 1.41027 12.4596 1.28687 11.542C1.16645 10.6464 1.16674 9.49856 1.16675 8.03809V7.96191C1.16674 6.50159 1.16646 5.35453 1.28687 4.45898C1.41026 3.54121 1.66883 2.81334 2.24097 2.24121C2.8131 1.66908 3.54097 1.4105 4.45874 1.28711C5.35429 1.16671 6.50135 1.16698 7.96167 1.16699H8.03784ZM4.66675 10.167C4.39061 10.167 4.16675 10.3909 4.16675 10.667V12C4.16675 12.2761 4.39061 12.5 4.66675 12.5C4.94289 12.5 5.16675 12.2761 5.16675 12V10.667C5.16675 10.3909 4.94289 10.167 4.66675 10.167ZM7.99976 9.5C7.72387 9.50018 7.49993 9.72412 7.49976 10V12C7.49976 12.276 7.72376 12.4998 7.99976 12.5C8.2759 12.5 8.49976 12.2761 8.49976 12V10C8.49958 9.72401 8.27579 9.5 7.99976 9.5ZM11.3337 8.16699C11.0576 8.16699 10.8337 8.39085 10.8337 8.66699V12C10.8337 12.2761 11.0576 12.5 11.3337 12.5C11.6097 12.4998 11.8337 12.276 11.8337 12V8.66699C11.8337 8.39096 11.6097 8.16717 11.3337 8.16699ZM10.573 3.50195C10.4368 3.50817 10.2772 3.5344 10.1189 3.56055C10.1117 3.56173 10.1046 3.56327 10.0974 3.56445L9.25171 3.70312C8.97939 3.74819 8.79467 4.00595 8.8396 4.27832C8.88455 4.55076 9.14235 4.73535 9.41479 4.69043L9.89722 4.61035C8.64223 6.37196 6.63484 7.16699 3.99976 7.16699C3.72376 7.16717 3.49976 7.39096 3.49976 7.66699C3.49976 7.94303 3.72376 8.16682 3.99976 8.16699C6.88109 8.16699 9.26549 7.27077 10.7546 5.12988L10.8523 5.47168C10.9284 5.73704 11.206 5.89049 11.4714 5.81445C11.7366 5.73833 11.89 5.46156 11.8142 5.19629L11.6023 4.45605C11.6001 4.44846 11.5977 4.4403 11.5955 4.43262C11.5568 4.29736 11.5146 4.14891 11.4597 4.02734C11.3929 3.87944 11.2868 3.72147 11.0964 3.61328C10.913 3.50905 10.7271 3.49495 10.573 3.50195Z" fill="#0099FF"/>
</svg>
