<?xml version="1.0" encoding="UTF-8"?>
<!--Generator: Apple Native CoreSVG 123-->
<!DOCTYPE svg
PUBLIC "-//W3C//DTD SVG 1.1//EN"
       "http://www.w3.org/Graphics/SVG/1.1/DTD/svg11.dtd">
<svg version="1.1" xmlns="http://www.w3.org/2000/svg" xmlns:xlink="http://www.w3.org/1999/xlink" width="3300" height="2200">
 <!--glyph: "uni10026A.medium", point size: 100.000000, font version: "Version 15.0d7e11", template writer version: "5"-->
 <g id="Notes">
  <rect height="2200" id="artboard" style="fill:white;opacity:1" width="3300" x="0" y="0"/>
  <line id="" style="fill:none;stroke:black;opacity:1;stroke-width:0.5;" x1="263" x2="3036" y1="292" y2="292"/>
  <text style="stroke:none;fill:black;font-family:-apple-system,&quot;SF Pro Display&quot;,&quot;SF Pro Text&quot;,Helvetica,sans-serif;font-weight:bold;" transform="matrix(1 0 0 1 263 322)">Weight/Scale Variations</text>
  <text style="stroke:none;fill:black;font-family:-apple-system,&quot;SF Pro Display&quot;,&quot;SF Pro Text&quot;,Helvetica,sans-serif;text-anchor:middle;" transform="matrix(1 0 0 1 559.711 322)">Ultralight</text>
  <text style="stroke:none;fill:black;font-family:-apple-system,&quot;SF Pro Display&quot;,&quot;SF Pro Text&quot;,Helvetica,sans-serif;text-anchor:middle;" transform="matrix(1 0 0 1 856.422 322)">Thin</text>
  <text style="stroke:none;fill:black;font-family:-apple-system,&quot;SF Pro Display&quot;,&quot;SF Pro Text&quot;,Helvetica,sans-serif;text-anchor:middle;" transform="matrix(1 0 0 1 1153.13 322)">Light</text>
  <text style="stroke:none;fill:black;font-family:-apple-system,&quot;SF Pro Display&quot;,&quot;SF Pro Text&quot;,Helvetica,sans-serif;text-anchor:middle;" transform="matrix(1 0 0 1 1449.84 322)">Regular</text>
  <text style="stroke:none;fill:black;font-family:-apple-system,&quot;SF Pro Display&quot;,&quot;SF Pro Text&quot;,Helvetica,sans-serif;text-anchor:middle;" transform="matrix(1 0 0 1 1746.56 322)">Medium</text>
  <text style="stroke:none;fill:black;font-family:-apple-system,&quot;SF Pro Display&quot;,&quot;SF Pro Text&quot;,Helvetica,sans-serif;text-anchor:middle;" transform="matrix(1 0 0 1 2043.27 322)">Semibold</text>
  <text style="stroke:none;fill:black;font-family:-apple-system,&quot;SF Pro Display&quot;,&quot;SF Pro Text&quot;,Helvetica,sans-serif;text-anchor:middle;" transform="matrix(1 0 0 1 2339.98 322)">Bold</text>
  <text style="stroke:none;fill:black;font-family:-apple-system,&quot;SF Pro Display&quot;,&quot;SF Pro Text&quot;,Helvetica,sans-serif;text-anchor:middle;" transform="matrix(1 0 0 1 2636.69 322)">Heavy</text>
  <text style="stroke:none;fill:black;font-family:-apple-system,&quot;SF Pro Display&quot;,&quot;SF Pro Text&quot;,Helvetica,sans-serif;text-anchor:middle;" transform="matrix(1 0 0 1 2933.4 322)">Black</text>
  <line id="" style="fill:none;stroke:black;opacity:1;stroke-width:0.5;" x1="263" x2="3036" y1="1903" y2="1903"/>
  <g id="" transform="matrix(1 0 0 1 263 1933)">
   <path d="M 9.24805 0.830078 C 13.5547 0.830078 17.1387 -2.74414 17.1387 -7.05078 C 17.1387 -11.3574 13.5449 -14.9316 9.23828 -14.9316 C 4.94141 -14.9316 1.36719 -11.3574 1.36719 -7.05078 C 1.36719 -2.74414 4.95117 0.830078 9.24805 0.830078 Z M 9.24805 -0.654297 C 5.70312 -0.654297 2.87109 -3.49609 2.87109 -7.05078 C 2.87109 -10.6055 5.69336 -13.4473 9.23828 -13.4473 C 12.793 -13.4473 15.6348 -10.6055 15.6445 -7.05078 C 15.6543 -3.49609 12.8027 -0.654297 9.24805 -0.654297 Z M 9.22852 -3.42773 C 9.69727 -3.42773 9.9707 -3.74023 9.9707 -4.25781 L 9.9707 -6.31836 L 12.1973 -6.31836 C 12.6953 -6.31836 13.0371 -6.57227 13.0371 -7.04102 C 13.0371 -7.51953 12.7148 -7.7832 12.1973 -7.7832 L 9.9707 -7.7832 L 9.9707 -10.0098 C 9.9707 -10.5273 9.69727 -10.8496 9.22852 -10.8496 C 8.75977 -10.8496 8.50586 -10.5078 8.50586 -10.0098 L 8.50586 -7.7832 L 6.29883 -7.7832 C 5.78125 -7.7832 5.44922 -7.51953 5.44922 -7.04102 C 5.44922 -6.57227 5.80078 -6.31836 6.29883 -6.31836 L 8.50586 -6.31836 L 8.50586 -4.25781 C 8.50586 -3.75977 8.75977 -3.42773 9.22852 -3.42773 Z"/>
  </g>
  <g id="" transform="matrix(1 0 0 1 281.506 1933)">
   <path d="M 11.709 2.91016 C 17.1582 2.91016 21.6699 -1.60156 21.6699 -7.05078 C 21.6699 -12.4902 17.1484 -17.0117 11.6992 -17.0117 C 6.25977 -17.0117 1.74805 -12.4902 1.74805 -7.05078 C 1.74805 -1.60156 6.26953 2.91016 11.709 2.91016 Z M 11.709 1.25 C 7.09961 1.25 3.41797 -2.44141 3.41797 -7.05078 C 3.41797 -11.6504 7.08984 -15.3516 11.6992 -15.3516 C 16.3086 -15.3516 20 -11.6504 20.0098 -7.05078 C 20.0195 -2.44141 16.3184 1.25 11.709 1.25 Z M 11.6895 -2.41211 C 12.207 -2.41211 12.5195 -2.77344 12.5195 -3.33984 L 12.5195 -6.23047 L 15.5762 -6.23047 C 16.123 -6.23047 16.5039 -6.51367 16.5039 -7.03125 C 16.5039 -7.55859 16.1426 -7.86133 15.5762 -7.86133 L 12.5195 -7.86133 L 12.5195 -10.9277 C 12.5195 -11.5039 12.207 -11.8555 11.6895 -11.8555 C 11.1719 -11.8555 10.8789 -11.4844 10.8789 -10.9277 L 10.8789 -7.86133 L 7.83203 -7.86133 C 7.26562 -7.86133 6.89453 -7.55859 6.89453 -7.03125 C 6.89453 -6.51367 7.28516 -6.23047 7.83203 -6.23047 L 10.8789 -6.23047 L 10.8789 -3.33984 C 10.8789 -2.79297 11.1719 -2.41211 11.6895 -2.41211 Z"/>
  </g>
  <g id="" transform="matrix(1 0 0 1 304.924 1933)">
   <path d="M 14.9707 5.67383 C 21.9336 5.67383 27.6953 -0.078125 27.6953 -7.04102 C 27.6953 -14.0039 21.9238 -19.7559 14.9609 -19.7559 C 8.00781 -19.7559 2.25586 -14.0039 2.25586 -7.04102 C 2.25586 -0.078125 8.01758 5.67383 14.9707 5.67383 Z M 14.9707 3.85742 C 8.93555 3.85742 4.08203 -1.00586 4.08203 -7.04102 C 4.08203 -13.0762 8.92578 -17.9395 14.9609 -17.9395 C 21.0059 -17.9395 25.8594 -13.0762 25.8691 -7.04102 C 25.8789 -1.00586 21.0156 3.85742 14.9707 3.85742 Z M 14.9512 -1.06445 C 15.5176 -1.06445 15.8691 -1.45508 15.8691 -2.06055 L 15.8691 -6.13281 L 20.1074 -6.13281 C 20.6934 -6.13281 21.1133 -6.46484 21.1133 -7.02148 C 21.1133 -7.59766 20.7227 -7.93945 20.1074 -7.93945 L 15.8691 -7.93945 L 15.8691 -12.1875 C 15.8691 -12.8027 15.5176 -13.1934 14.9512 -13.1934 C 14.3848 -13.1934 14.0625 -12.7832 14.0625 -12.1875 L 14.0625 -7.93945 L 9.83398 -7.93945 C 9.21875 -7.93945 8.80859 -7.59766 8.80859 -7.02148 C 8.80859 -6.46484 9.23828 -6.13281 9.83398 -6.13281 L 14.0625 -6.13281 L 14.0625 -2.06055 C 14.0625 -1.47461 14.3848 -1.06445 14.9512 -1.06445 Z"/>
  </g>
  <text style="stroke:none;fill:black;font-family:-apple-system,&quot;SF Pro Display&quot;,&quot;SF Pro Text&quot;,Helvetica,sans-serif;font-weight:bold;" transform="matrix(1 0 0 1 263 1953)">Design Variations</text>
  <text style="stroke:none;fill:black;font-family:-apple-system,&quot;SF Pro Display&quot;,&quot;SF Pro Text&quot;,Helvetica,sans-serif;" transform="matrix(1 0 0 1 263 1971)">Symbols are supported in up to nine weights and three scales.</text>
  <text style="stroke:none;fill:black;font-family:-apple-system,&quot;SF Pro Display&quot;,&quot;SF Pro Text&quot;,Helvetica,sans-serif;" transform="matrix(1 0 0 1 263 1989)">For optimal layout with text and other symbols, vertically align</text>
  <text style="stroke:none;fill:black;font-family:-apple-system,&quot;SF Pro Display&quot;,&quot;SF Pro Text&quot;,Helvetica,sans-serif;" transform="matrix(1 0 0 1 263 2007)">symbols with the adjacent text.</text>
  <rect height="14" id="" style="fill:#00AEEF;stroke:none;opacity:0.4;" width="3" x="776" y="1919"/>
  <g id="" transform="matrix(1 0 0 1 779 1933)">
   <path d="M 10.5273 0 L 12.373 0 L 7.17773 -14.0918 L 5.43945 -14.0918 L 0.244141 0 L 2.08984 0 L 3.50586 -4.0332 L 9.11133 -4.0332 Z M 6.2793 -11.9531 L 6.33789 -11.9531 L 8.59375 -5.52734 L 4.02344 -5.52734 Z"/>
  </g>
  <rect height="14" id="" style="fill:#00AEEF;stroke:none;opacity:0.4;" width="3" x="791.617" y="1919"/>
  <text style="stroke:none;fill:black;font-family:-apple-system,&quot;SF Pro Display&quot;,&quot;SF Pro Text&quot;,Helvetica,sans-serif;font-weight:bold;" transform="matrix(1 0 0 1 776 1953)">Margins</text>
  <text style="stroke:none;fill:black;font-family:-apple-system,&quot;SF Pro Display&quot;,&quot;SF Pro Text&quot;,Helvetica,sans-serif;" transform="matrix(1 0 0 1 776 1971)">Leading and trailing margins on the left and right side of each symbol</text>
  <text style="stroke:none;fill:black;font-family:-apple-system,&quot;SF Pro Display&quot;,&quot;SF Pro Text&quot;,Helvetica,sans-serif;" transform="matrix(1 0 0 1 776 1989)">can be adjusted by modifying the width of the blue rectangles.</text>
  <text style="stroke:none;fill:black;font-family:-apple-system,&quot;SF Pro Display&quot;,&quot;SF Pro Text&quot;,Helvetica,sans-serif;" transform="matrix(1 0 0 1 776 2007)">Modifications are automatically applied proportionally to all</text>
  <text style="stroke:none;fill:black;font-family:-apple-system,&quot;SF Pro Display&quot;,&quot;SF Pro Text&quot;,Helvetica,sans-serif;" transform="matrix(1 0 0 1 776 2025)">scales and weights.</text>
  <g id="" transform="matrix(1 0 0 1 1289 1933)">
   <path d="M 2.83203 3.11523 L 4.375 4.6582 C 5.22461 5.48828 6.19141 5.41992 7.06055 4.46289 L 17.2754 -6.66016 C 17.7051 -6.36719 18.0957 -6.37695 18.5645 -6.47461 L 19.6094 -6.68945 L 20.3027 -5.99609 L 20.2539 -5.47852 C 20.1855 -4.95117 20.3516 -4.53125 20.8496 -4.0332 L 21.6602 -3.22266 C 22.168 -2.71484 22.8223 -2.68555 23.3008 -3.16406 L 26.5527 -6.41602 C 27.0312 -6.89453 27.0117 -7.54883 26.5039 -8.05664 L 25.6836 -8.87695 C 25.1855 -9.375 24.7754 -9.55078 24.2383 -9.47266 L 23.7109 -9.41406 L 23.0566 -10.0781 L 23.3398 -11.2207 C 23.4863 -11.7871 23.3398 -12.2559 22.7148 -12.8613 L 20.3027 -15.2539 C 16.7578 -18.7793 12.2266 -18.6719 9.11133 -15.5371 C 8.69141 -15.1074 8.64258 -14.5215 8.91602 -14.0918 C 9.15039 -13.7207 9.62891 -13.4961 10.2734 -13.6621 C 11.7871 -14.043 13.3008 -13.9258 14.7852 -12.9199 L 14.1602 -11.3379 C 13.9258 -10.752 13.9453 -10.2734 14.1797 -9.83398 L 3.01758 0.439453 C 2.08008 1.30859 1.97266 2.25586 2.83203 3.11523 Z M 10.6738 -15.1465 C 13.3398 -17.1387 16.6504 -16.8262 19.0527 -14.4141 L 21.6797 -11.8066 C 21.9141 -11.5723 21.9434 -11.3867 21.8848 -11.0938 L 21.5039 -9.53125 L 23.0762 -7.95898 L 24.043 -8.04688 C 24.3262 -8.07617 24.4141 -8.05664 24.6387 -7.83203 L 25.2637 -7.20703 L 22.5098 -4.46289 L 21.8848 -5.07812 C 21.6602 -5.30273 21.6406 -5.40039 21.6699 -5.68359 L 21.7578 -6.64062 L 20.1953 -8.20312 L 18.5742 -7.89062 C 18.291 -7.83203 18.1445 -7.83203 17.9102 -8.07617 L 15.7324 -10.2539 C 15.5078 -10.4883 15.4785 -10.625 15.6055 -10.9473 L 16.5527 -13.2227 C 14.9512 -14.7559 12.8418 -15.6055 10.8008 -14.9512 C 10.7129 -14.9219 10.6445 -14.9414 10.6152 -14.9805 C 10.5859 -15.0293 10.5859 -15.0781 10.6738 -15.1465 Z M 4.10156 2.41211 C 3.61328 1.91406 3.78906 1.61133 4.12109 1.30859 L 15.0781 -8.80859 L 16.3086 -7.57812 L 6.15234 3.34961 C 5.84961 3.68164 5.46875 3.7793 5.06836 3.37891 Z"/>
  </g>
  <text style="stroke:none;fill:black;font-family:-apple-system,&quot;SF Pro Display&quot;,&quot;SF Pro Text&quot;,Helvetica,sans-serif;font-weight:bold;" transform="matrix(1 0 0 1 1289 1953)">Exporting</text>
  <text style="stroke:none;fill:black;font-family:-apple-system,&quot;SF Pro Display&quot;,&quot;SF Pro Text&quot;,Helvetica,sans-serif;" transform="matrix(1 0 0 1 1289 1971)">Symbols should be outlined when exporting to ensure the</text>
  <text style="stroke:none;fill:black;font-family:-apple-system,&quot;SF Pro Display&quot;,&quot;SF Pro Text&quot;,Helvetica,sans-serif;" transform="matrix(1 0 0 1 1289 1989)">design is preserved when submitting to Xcode.</text>
  <text id="template-version" style="stroke:none;fill:black;font-family:-apple-system,&quot;SF Pro Display&quot;,&quot;SF Pro Text&quot;,Helvetica,sans-serif;text-anchor:end;" transform="matrix(1 0 0 1 3036 1933)">Template v.1.0</text>
  <text style="stroke:none;fill:black;font-family:-apple-system,&quot;SF Pro Display&quot;,&quot;SF Pro Text&quot;,Helvetica,sans-serif;text-anchor:end;" transform="matrix(1 0 0 1 3036 1951)">Generated from person.fill</text>
  <text style="stroke:none;fill:black;font-family:-apple-system,&quot;SF Pro Display&quot;,&quot;SF Pro Text&quot;,Helvetica,sans-serif;text-anchor:end;" transform="matrix(1 0 0 1 3036 1969)">Typeset at 100 points</text>
  <text style="stroke:none;fill:black;font-family:-apple-system,&quot;SF Pro Display&quot;,&quot;SF Pro Text&quot;,Helvetica,sans-serif;" transform="matrix(1 0 0 1 263 726)">Small</text>
  <text style="stroke:none;fill:black;font-family:-apple-system,&quot;SF Pro Display&quot;,&quot;SF Pro Text&quot;,Helvetica,sans-serif;" transform="matrix(1 0 0 1 263 1156)">Medium</text>
  <text style="stroke:none;fill:black;font-family:-apple-system,&quot;SF Pro Display&quot;,&quot;SF Pro Text&quot;,Helvetica,sans-serif;" transform="matrix(1 0 0 1 263 1586)">Large</text>
 </g>
 <g id="Guides">
  <g id="H-reference" style="fill:#27AAE1;stroke:none;" transform="matrix(1 0 0 1 339 696)">
   <path d="M 54.9316 0 L 57.666 0 L 30.5664 -70.459 L 28.0762 -70.459 L 0.976562 0 L 3.66211 0 L 12.9395 -24.4629 L 45.7031 -24.4629 Z M 29.1992 -67.0898 L 29.4434 -67.0898 L 44.8242 -26.709 L 13.8184 -26.709 Z"/>
  </g>
  <line id="Baseline-S" style="fill:none;stroke:#27AAE1;opacity:1;stroke-width:0.577;" x1="263" x2="3036" y1="696" y2="696"/>
  <line id="Capline-S" style="fill:none;stroke:#27AAE1;opacity:1;stroke-width:0.577;" x1="263" x2="3036" y1="625.541" y2="625.541"/>
  <g id="H-reference" style="fill:#27AAE1;stroke:none;" transform="matrix(1 0 0 1 339 1126)">
   <path d="M 54.9316 0 L 57.666 0 L 30.5664 -70.459 L 28.0762 -70.459 L 0.976562 0 L 3.66211 0 L 12.9395 -24.4629 L 45.7031 -24.4629 Z M 29.1992 -67.0898 L 29.4434 -67.0898 L 44.8242 -26.709 L 13.8184 -26.709 Z"/>
  </g>
  <line id="Baseline-M" style="fill:none;stroke:#27AAE1;opacity:1;stroke-width:0.577;" x1="263" x2="3036" y1="1126" y2="1126"/>
  <line id="Capline-M" style="fill:none;stroke:#27AAE1;opacity:1;stroke-width:0.577;" x1="263" x2="3036" y1="1055.54" y2="1055.54"/>
  <g id="H-reference" style="fill:#27AAE1;stroke:none;" transform="matrix(1 0 0 1 339 1556)">
   <path d="M 54.9316 0 L 57.666 0 L 30.5664 -70.459 L 28.0762 -70.459 L 0.976562 0 L 3.66211 0 L 12.9395 -24.4629 L 45.7031 -24.4629 Z M 29.1992 -67.0898 L 29.4434 -67.0898 L 44.8242 -26.709 L 13.8184 -26.709 Z"/>
  </g>
  <line id="Baseline-L" style="fill:none;stroke:#27AAE1;opacity:1;stroke-width:0.577;" x1="263" x2="3036" y1="1556" y2="1556"/>
  <line id="Capline-L" style="fill:none;stroke:#27AAE1;opacity:1;stroke-width:0.577;" x1="263" x2="3036" y1="1485.54" y2="1485.54"/>
  <rect height="119.336" id="left-margin" style="fill:#00AEEF;stroke:none;opacity:0.4;" width="12.4512" x="1396.3" y="1030.79"/>
  <rect height="119.336" id="right-margin" style="fill:#00AEEF;stroke:none;opacity:0.4;" width="12.4512" x="1490.93" y="1030.79"/>
 </g>
 <g id="Symbols">
  <g id="Black-L" transform="matrix(1 0 0 1 2863.33 1556)">
   <path d="M 70.0684 -35.6934 C 84.6191 -35.6934 96.2402 -48.3398 96.2402 -64.2578 C 96.2402 -79.541 84.4727 -92.2363 70.0684 -92.2363 C 55.6152 -92.2363 43.8477 -79.4434 43.8965 -64.209 C 43.9453 -48.3398 55.5176 -35.6934 70.0684 -35.6934 Z M 31.9824 23.9258 L 108.154 23.9258 C 120.215 23.9258 124.072 19.7266 124.072 13.0371 C 124.072 -2.97852 102.734 -24.8535 70.0684 -24.8535 C 37.3535 -24.8535 16.0645 -2.97852 16.0645 13.0371 C 16.0645 19.7266 19.873 23.9258 31.9824 23.9258 Z"/>
  </g>
  <g id="Heavy-L" transform="matrix(1 0 0 1 2566.91 1556)">
   <path d="M 69.8242 -35.7422 C 84.1309 -35.7422 95.7031 -48.2422 95.7031 -64.0625 C 95.7031 -79.3945 83.9844 -91.7969 69.8242 -91.7969 C 55.6152 -91.7969 43.8477 -79.248 43.8965 -64.0137 C 43.9453 -48.2422 55.4688 -35.7422 69.8242 -35.7422 Z M 31.2012 23.4863 L 108.398 23.4863 C 119.775 23.4863 123.486 19.6777 123.486 13.2812 C 123.486 -2.7832 102.441 -24.7559 69.7754 -24.7559 C 37.1094 -24.7559 16.0645 -2.7832 16.0645 13.2812 C 16.0645 19.6777 19.8242 23.4863 31.2012 23.4863 Z"/>
  </g>
  <g id="Bold-L" transform="matrix(1 0 0 1 2270.5 1556)">
   <path d="M 69.5312 -35.7422 C 83.5938 -35.7422 95.1172 -48.0957 95.1172 -63.8672 C 95.1172 -79.1504 83.4473 -91.3574 69.5312 -91.3574 C 55.5664 -91.3574 43.8477 -79.0039 43.8965 -63.8184 C 43.9453 -48.0957 55.4688 -35.7422 69.5312 -35.7422 Z M 30.3223 23.0469 L 108.643 23.0469 C 119.238 23.0469 122.9 19.6289 122.9 13.5742 C 122.9 -2.53906 102.1 -24.6582 69.4824 -24.6582 C 36.8652 -24.6582 16.0645 -2.53906 16.0645 13.5742 C 16.0645 19.6289 19.7266 23.0469 30.3223 23.0469 Z"/>
  </g>
  <g id="Semibold-L" transform="matrix(1 0 0 1 1974 1556)">
   <path d="M 69.2871 -35.7422 C 83.2031 -35.7422 94.6777 -47.998 94.6777 -63.7207 C 94.6777 -79.0527 83.1055 -91.0156 69.2871 -91.0156 C 55.5176 -91.0156 43.8477 -78.8574 43.9453 -63.6719 C 43.9453 -47.998 55.4199 -35.7422 69.2871 -35.7422 Z M 29.6875 22.7051 L 108.838 22.7051 C 118.848 22.7051 122.461 19.6289 122.461 13.7695 C 122.461 -2.39258 101.855 -24.6094 69.2871 -24.6094 C 36.6699 -24.6094 16.0645 -2.39258 16.0645 13.7695 C 16.0645 19.6289 19.6777 22.7051 29.6875 22.7051 Z"/>
  </g>
  <g id="Medium-L" transform="matrix(1 0 0 1 1677.44 1556)">
   <path d="M 69.1406 -35.7422 C 82.9102 -35.7422 94.3848 -47.9492 94.3848 -63.623 C 94.3848 -78.9062 82.8125 -90.7715 69.1406 -90.7715 C 55.5176 -90.7715 43.8965 -78.7598 43.9453 -63.5254 C 43.9453 -47.9492 55.4199 -35.7422 69.1406 -35.7422 Z M 29.248 22.4609 L 108.984 22.4609 C 118.604 22.4609 122.168 19.5801 122.168 13.916 C 122.168 -2.29492 101.709 -24.5605 69.0918 -24.5605 C 36.5234 -24.5605 16.0645 -2.29492 16.0645 13.916 C 16.0645 19.5801 19.6289 22.4609 29.248 22.4609 Z"/>
  </g>
  <g id="Regular-L" transform="matrix(1 0 0 1 1380.95 1556)">
   <path d="M 68.9453 -35.791 C 82.5684 -35.791 93.9941 -47.8516 93.9941 -63.5254 C 93.9941 -78.8086 82.4707 -90.4785 68.9453 -90.4785 C 55.4688 -90.4785 43.8965 -78.5645 43.9453 -63.3789 C 43.9453 -47.8516 55.3711 -35.791 68.9453 -35.791 Z M 28.6133 22.168 L 109.18 22.168 C 118.213 22.168 121.729 19.5801 121.729 14.0625 C 121.729 -2.14844 101.465 -24.4629 68.8965 -24.4629 C 36.3281 -24.4629 16.0645 -2.14844 16.0645 14.0625 C 16.0645 19.5801 19.5801 22.168 28.6133 22.168 Z"/>
  </g>
  <g id="Light-L" transform="matrix(1 0 0 1 1084.48 1556)">
   <path d="M 68.75 -35.6445 C 82.4219 -35.6445 93.5059 -47.6074 93.5059 -63.1836 C 93.5059 -78.125 82.2754 -89.9902 68.75 -89.9902 C 55.2246 -89.9902 43.8965 -77.9785 43.9941 -63.0859 C 43.9941 -47.6074 55.0781 -35.6445 68.75 -35.6445 Z M 27.4414 21.8262 L 109.863 21.8262 C 117.773 21.8262 121.24 19.5312 121.24 14.0625 C 121.24 -2.05078 101.074 -24.3164 68.6523 -24.3164 C 36.2305 -24.3164 16.0645 -2.05078 16.0645 14.0625 C 16.0645 19.5312 19.5312 21.8262 27.4414 21.8262 Z"/>
  </g>
  <g id="Thin-L" transform="matrix(1 0 0 1 788.087 1556)">
   <path d="M 68.5059 -35.498 C 82.2754 -35.498 92.9199 -47.3145 92.9199 -62.7441 C 92.9199 -77.2461 82.0801 -89.4043 68.5059 -89.4043 C 54.9316 -89.4043 43.8965 -77.1973 44.043 -62.6953 C 44.043 -47.3145 54.6875 -35.498 68.5059 -35.498 Z M 25.8789 21.3379 L 110.791 21.3379 C 117.139 21.3379 120.605 19.4336 120.605 14.0137 C 120.605 -2.00195 100.537 -24.1211 68.3594 -24.1211 C 36.1328 -24.1211 16.0645 -2.00195 16.0645 14.0137 C 16.0645 19.4336 19.5312 21.3379 25.8789 21.3379 Z"/>
  </g>
  <g id="Ultralight-L" transform="matrix(1 0 0 1 491.523 1556)">
   <path d="M 68.3594 -35.4004 C 82.2266 -35.4004 92.627 -47.168 92.627 -62.5 C 92.627 -76.8066 81.9336 -89.0625 68.3594 -89.0625 C 54.7363 -89.0625 43.8965 -76.8066 44.043 -62.5 C 44.043 -47.168 54.4922 -35.4004 68.3594 -35.4004 Z M 25.0977 21.0449 L 111.279 21.0449 C 116.846 21.0449 120.312 19.3848 120.312 14.0137 C 120.312 -1.95312 100.293 -24.0234 68.1641 -24.0234 C 36.0352 -24.0234 16.0645 -1.95312 16.0645 14.0137 C 16.0645 19.3848 19.5312 21.0449 25.0977 21.0449 Z"/>
  </g>
  <g id="Black-M" transform="matrix(1 0 0 1 2878.86 1126)">
   <path d="M 54.541 -35.498 C 66.1621 -35.498 75.0488 -45.4102 75.0488 -57.7637 C 75.0488 -69.4824 66.0156 -79.7363 54.541 -79.7363 C 43.0664 -79.7363 33.9355 -69.4824 34.0332 -57.7637 C 34.082 -45.4102 42.9199 -35.498 54.541 -35.498 Z M 25.1953 10.9375 L 83.8867 10.9375 C 93.5547 10.9375 96.6309 7.37305 96.6309 1.85547 C 96.6309 -10.498 79.834 -27.2461 54.541 -27.2461 C 29.248 -27.2461 12.4512 -10.498 12.4512 1.85547 C 12.4512 7.37305 15.5273 10.9375 25.1953 10.9375 Z"/>
  </g>
  <g id="Heavy-M" transform="matrix(1 0 0 1 2582.39 1126)">
   <path d="M 54.2969 -35.5469 C 65.6738 -35.5469 74.6094 -45.3613 74.6094 -57.666 C 74.6094 -69.4336 65.5762 -79.3945 54.2969 -79.3945 C 43.0664 -79.3945 33.9844 -69.3848 34.0332 -57.6172 C 34.082 -45.3613 42.9688 -35.5469 54.2969 -35.5469 Z M 24.6582 10.5957 L 83.9355 10.5957 C 93.1641 10.5957 96.1426 7.32422 96.1426 2.14844 C 96.1426 -10.2539 79.5898 -27.1484 54.2969 -27.1484 C 29.0039 -27.1484 12.4512 -10.2539 12.4512 2.14844 C 12.4512 7.32422 15.4297 10.5957 24.6582 10.5957 Z"/>
  </g>
  <g id="Bold-M" transform="matrix(1 0 0 1 2285.95 1126)">
   <path d="M 54.0527 -35.5957 C 65.0879 -35.5957 74.0723 -45.2637 74.0723 -57.5684 C 74.0723 -69.4336 65.0391 -79.0039 54.0527 -79.0039 C 43.0664 -79.0039 33.9844 -69.3359 34.0332 -57.5195 C 34.082 -45.2637 43.0176 -35.5957 54.0527 -35.5957 Z M 24.0234 10.2051 L 84.0332 10.2051 C 92.7246 10.2051 95.6055 7.32422 95.6055 2.44141 C 95.6055 -10.0586 79.3457 -27.0996 54.0527 -27.0996 C 28.7109 -27.0996 12.4512 -10.0586 12.4512 2.44141 C 12.4512 7.32422 15.332 10.2051 24.0234 10.2051 Z"/>
  </g>
  <g id="Semibold-M" transform="matrix(1 0 0 1 1989.41 1126)">
   <path d="M 53.8574 -35.6445 C 64.6973 -35.6445 73.7305 -45.2148 73.7305 -57.4707 C 73.7305 -69.3848 64.6484 -78.7598 53.8574 -78.7598 C 43.1152 -78.7598 33.9844 -69.2871 34.0332 -57.4219 C 34.0332 -45.2148 43.0176 -35.6445 53.8574 -35.6445 Z M 23.6328 9.96094 L 84.082 9.96094 C 92.4316 9.96094 95.2637 7.27539 95.2637 2.63672 C 95.2637 -9.86328 79.1504 -27.0508 53.8574 -27.0508 C 28.5156 -27.0508 12.4512 -9.86328 12.4512 2.63672 C 12.4512 7.27539 15.2832 9.96094 23.6328 9.96094 Z"/>
  </g>
  <g id="Medium-M" transform="matrix(1 0 0 1 1692.84 1126)">
   <path d="M 53.7598 -35.6934 C 64.4043 -35.6934 73.4375 -45.166 73.4375 -57.4219 C 73.4375 -69.3848 64.3555 -78.5645 53.7598 -78.5645 C 43.1152 -78.5645 33.9844 -69.2383 34.0332 -57.3242 C 34.0332 -45.166 43.0664 -35.6934 53.7598 -35.6934 Z M 23.291 9.7168 L 84.1309 9.7168 C 92.1875 9.7168 94.9707 7.27539 94.9707 2.7832 C 94.9707 -9.76562 79.0527 -27.0508 53.7109 -27.0508 C 28.418 -27.0508 12.4512 -9.76562 12.4512 2.7832 C 12.4512 7.27539 15.2344 9.7168 23.291 9.7168 Z"/>
  </g>
  <g id="Regular-M" transform="matrix(1 0 0 1 1396.3 1126)">
   <path d="M 53.5645 -35.7422 C 64.0137 -35.7422 73.0957 -45.1172 73.0957 -57.3242 C 73.0957 -69.3848 64.0137 -78.3203 53.5645 -78.3203 C 43.1152 -78.3203 34.0332 -69.1895 34.0332 -57.2266 C 34.0332 -45.1172 43.0664 -35.7422 53.5645 -35.7422 Z M 22.8516 9.47266 L 84.1797 9.47266 C 91.8945 9.47266 94.6289 7.27539 94.6289 2.97852 C 94.6289 -9.61914 78.8574 -27.002 53.5156 -27.002 C 28.2227 -27.002 12.4512 -9.61914 12.4512 2.97852 C 12.4512 7.27539 15.1855 9.47266 22.8516 9.47266 Z"/>
  </g>
  <g id="Light-M" transform="matrix(1 0 0 1 1099.81 1126)">
   <path d="M 53.3691 -35.5957 C 63.916 -35.5957 72.7051 -44.9219 72.7051 -57.0312 C 72.7051 -68.75 63.8672 -77.8809 53.3691 -77.8809 C 42.9199 -77.8809 34.0332 -68.6523 34.082 -56.9824 C 34.082 -44.9219 42.8223 -35.5957 53.3691 -35.5957 Z M 21.8262 9.13086 L 84.8145 9.13086 C 91.4551 9.13086 94.1895 7.22656 94.1895 2.97852 C 94.1895 -9.57031 78.5156 -26.8555 53.3203 -26.8555 C 28.125 -26.8555 12.4512 -9.57031 12.4512 2.97852 C 12.4512 7.22656 15.1855 9.13086 21.8262 9.13086 Z"/>
  </g>
  <g id="Thin-M" transform="matrix(1 0 0 1 803.395 1126)">
   <path d="M 53.125 -35.4492 C 63.8184 -35.4492 72.168 -44.6777 72.168 -56.6406 C 72.168 -67.9688 63.6719 -77.3438 53.125 -77.3438 C 42.627 -77.3438 34.0332 -67.9199 34.1309 -56.5918 C 34.1309 -44.6777 42.4805 -35.4492 53.125 -35.4492 Z M 20.4102 8.69141 L 85.6445 8.69141 C 90.918 8.69141 93.6035 7.12891 93.6035 2.97852 C 93.6035 -9.47266 78.0273 -26.6602 53.0273 -26.6602 C 28.0273 -26.6602 12.4512 -9.47266 12.4512 2.97852 C 12.4512 7.12891 15.1367 8.69141 20.4102 8.69141 Z"/>
  </g>
  <g id="Ultralight-M" transform="matrix(1 0 0 1 506.83 1126)">
   <path d="M 53.0273 -35.4004 C 63.7207 -35.4004 71.875 -44.5312 71.875 -56.4453 C 71.875 -67.5781 63.5254 -77.0508 53.0273 -77.0508 C 42.4805 -77.0508 34.0332 -67.5781 34.1309 -56.4453 C 34.1309 -44.5312 42.2852 -35.4004 53.0273 -35.4004 Z M 19.6777 8.49609 L 86.084 8.49609 C 90.625 8.49609 93.3105 7.12891 93.3105 2.92969 C 93.3105 -9.47266 77.832 -26.6113 52.8809 -26.6113 C 27.9785 -26.6113 12.4512 -9.47266 12.4512 2.92969 C 12.4512 7.12891 15.1367 8.49609 19.6777 8.49609 Z"/>
  </g>
  <g id="Black-S" transform="matrix(1 0 0 1 2890.68 696)">
   <path d="M 42.7246 -35.4492 C 51.8066 -35.4492 58.7891 -43.2129 58.7891 -52.8809 C 58.7891 -62.0605 51.709 -70.0684 42.7246 -70.0684 C 33.7402 -70.0684 26.6113 -62.0605 26.6602 -52.8809 C 26.709 -43.2129 33.6426 -35.4492 42.7246 -35.4492 Z M 19.7266 0.927734 L 65.7227 0.927734 C 73.291 0.927734 75.6836 -1.85547 75.6836 -6.15234 C 75.6836 -15.8203 62.5488 -28.9551 42.7246 -28.9551 C 22.9004 -28.9551 9.76562 -15.8203 9.76562 -6.15234 C 9.76562 -1.85547 12.1582 0.927734 19.7266 0.927734 Z"/>
  </g>
  <g id="Heavy-S" transform="matrix(1 0 0 1 2594.11 696)">
   <path d="M 42.5781 -35.498 C 51.416 -35.498 58.4961 -43.1641 58.4961 -52.832 C 58.4961 -62.1094 51.3672 -69.873 42.5781 -69.873 C 33.7891 -69.873 26.6113 -62.0605 26.6602 -52.832 C 26.709 -43.1641 33.6914 -35.498 42.5781 -35.498 Z M 19.4336 0.683594 L 65.7227 0.683594 C 73.0469 0.683594 75.3906 -1.85547 75.3906 -5.95703 C 75.3906 -15.6738 62.4023 -28.9062 42.5781 -28.9062 C 22.7051 -28.9062 9.76562 -15.6738 9.76562 -5.95703 C 9.76562 -1.85547 12.1094 0.683594 19.4336 0.683594 Z"/>
  </g>
  <g id="Bold-S" transform="matrix(1 0 0 1 2297.59 696)">
   <path d="M 42.3828 -35.5469 C 51.0254 -35.5469 58.1055 -43.1641 58.1055 -52.7832 C 58.1055 -62.1582 50.9766 -69.6289 42.3828 -69.6289 C 33.8379 -69.6289 26.6602 -62.0605 26.6602 -52.7344 C 26.709 -43.1641 33.7891 -35.5469 42.3828 -35.5469 Z M 19.0918 0.439453 L 65.7227 0.439453 C 72.7539 0.439453 75 -1.9043 75 -5.71289 C 75 -15.4785 62.2559 -28.9062 42.3828 -28.9062 C 22.5098 -28.9062 9.76562 -15.4785 9.76562 -5.71289 C 9.76562 -1.9043 12.0117 0.439453 19.0918 0.439453 Z"/>
  </g>
  <g id="Semibold-S" transform="matrix(1 0 0 1 2001.01 696)">
   <path d="M 42.2852 -35.5957 C 50.7324 -35.5957 57.8613 -43.1152 57.8613 -52.7344 C 57.8613 -62.207 50.6836 -69.4824 42.2852 -69.4824 C 33.8379 -69.4824 26.6602 -62.0605 26.6602 -52.6855 C 26.6602 -43.1152 33.8379 -35.5957 42.2852 -35.5957 Z M 18.8477 0.244141 L 65.6738 0.244141 C 72.5586 0.244141 74.7559 -1.9043 74.7559 -5.56641 C 74.7559 -15.3809 62.1582 -28.8574 42.2852 -28.8574 C 22.4121 -28.8574 9.76562 -15.3809 9.76562 -5.56641 C 9.76562 -1.9043 12.0117 0.244141 18.8477 0.244141 Z"/>
  </g>
  <g id="Medium-S" transform="matrix(1 0 0 1 1704.37 696)">
   <path d="M 42.1875 -35.6445 C 50.5371 -35.6445 57.7148 -43.1152 57.7148 -52.7344 C 57.7148 -62.207 50.4883 -69.3359 42.1875 -69.3359 C 33.8867 -69.3359 26.6602 -62.0605 26.6602 -52.6367 C 26.6602 -43.1152 33.8379 -35.6445 42.1875 -35.6445 Z M 18.6523 0.146484 L 65.6738 0.146484 C 72.4121 0.146484 74.6094 -1.9043 74.6094 -5.41992 C 74.6094 -15.2832 62.0605 -28.8574 42.1875 -28.8574 C 22.2656 -28.8574 9.76562 -15.2832 9.76562 -5.41992 C 9.76562 -1.9043 11.9629 0.146484 18.6523 0.146484 Z"/>
  </g>
  <g id="Regular-S" transform="matrix(1 0 0 1 1407.78 696)">
   <path d="M 42.041 -35.6934 C 50.2441 -35.6934 57.4707 -43.0664 57.4707 -52.6855 C 57.4707 -62.2559 50.2441 -69.1895 42.041 -69.1895 C 33.8867 -69.1895 26.6602 -62.0605 26.6602 -52.5879 C 26.6602 -43.0664 33.8867 -35.6934 42.041 -35.6934 Z M 18.457 -0.0488281 L 65.6738 -0.0488281 C 72.2168 -0.0488281 74.3652 -1.9043 74.3652 -5.27344 C 74.3652 -15.1855 61.9629 -28.8574 42.041 -28.8574 C 22.168 -28.8574 9.76562 -15.1855 9.76562 -5.27344 C 9.76562 -1.9043 11.9141 -0.0488281 18.457 -0.0488281 Z"/>
  </g>
  <g id="Light-S" transform="matrix(1 0 0 1 1111.26 696)">
   <path d="M 41.8945 -35.5957 C 50.1465 -35.5957 57.1289 -42.9199 57.1289 -52.4414 C 57.1289 -61.7188 50.0977 -68.7988 41.8945 -68.7988 C 33.6914 -68.7988 26.6602 -61.6211 26.709 -52.3438 C 26.709 -42.9199 33.6426 -35.5957 41.8945 -35.5957 Z M 17.4805 -0.341797 L 66.2109 -0.341797 C 71.8262 -0.341797 73.9746 -1.95312 73.9746 -5.27344 C 73.9746 -15.1367 61.6699 -28.7109 41.8457 -28.7109 C 22.0703 -28.7109 9.76562 -15.1367 9.76562 -5.27344 C 9.76562 -1.95312 11.9141 -0.341797 17.4805 -0.341797 Z"/>
  </g>
  <g id="Thin-S" transform="matrix(1 0 0 1 814.796 696)">
   <path d="M 41.6992 -35.4492 C 50.0488 -35.4492 56.6406 -42.6758 56.6406 -52.0996 C 56.6406 -61.0352 49.9023 -68.3105 41.6992 -68.3105 C 33.4473 -68.3105 26.6602 -60.9863 26.709 -52.0508 C 26.709 -42.6758 33.3496 -35.4492 41.6992 -35.4492 Z M 16.2598 -0.732422 L 66.9434 -0.732422 C 71.3379 -0.732422 73.4863 -2.00195 73.4863 -5.32227 C 73.4863 -15.0879 61.2305 -28.5645 41.6016 -28.5645 C 21.9727 -28.5645 9.76562 -15.0879 9.76562 -5.32227 C 9.76562 -2.00195 11.8652 -0.732422 16.2598 -0.732422 Z"/>
  </g>
  <g id="Ultralight-S" transform="matrix(1 0 0 1 518.232 696)">
   <path d="M 41.6016 -35.3516 C 49.9512 -35.3516 56.3965 -42.5781 56.3965 -51.9043 C 56.3965 -60.6934 49.8047 -68.0664 41.6016 -68.0664 C 33.3496 -68.0664 26.6602 -60.6445 26.7578 -51.9043 C 26.7578 -42.5781 33.2031 -35.3516 41.6016 -35.3516 Z M 15.625 -0.927734 L 67.334 -0.927734 C 71.0938 -0.927734 73.1934 -2.05078 73.1934 -5.32227 C 73.1934 -15.0391 61.0352 -28.4668 41.5039 -28.4668 C 21.9238 -28.4668 9.76562 -15.0391 9.76562 -5.32227 C 9.76562 -2.05078 11.8652 -0.927734 15.625 -0.927734 Z"/>
  </g>
 </g>
</svg>
