<svg width="96" height="20" viewBox="0 0 96 20" fill="none" xmlns="http://www.w3.org/2000/svg">
<path d="M5.19102 7.95176C5.00056 7.95176 4.85339 7.82191 4.83608 7.61414C4.55905 5.33734 4.46382 5.26808 2.12642 4.90448C1.90134 4.86986 1.77148 4.74866 1.77148 4.54955C1.77148 4.35909 1.90134 4.22923 2.08314 4.19461C4.45517 3.7531 4.55905 3.7531 4.83608 1.4763C4.85339 1.27718 5.00056 1.13867 5.19102 1.13867C5.38147 1.13867 5.51998 1.27718 5.5373 1.46764C5.84029 3.79638 5.90955 3.86564 8.29024 4.19461C8.46338 4.22058 8.60189 4.35909 8.60189 4.54955C8.60189 4.74 8.47203 4.86986 8.29024 4.90448C5.90089 5.34599 5.84029 5.35465 5.5373 7.64011C5.51998 7.82191 5.37281 7.95176 5.19102 7.95176ZM11.2683 17.5697C10.9739 17.5697 10.7402 17.3533 10.6882 17.0503C10.0043 12.4015 9.39834 11.8041 4.84473 11.1895C4.52442 11.1462 4.308 10.9125 4.308 10.6095C4.308 10.3065 4.53308 10.0641 4.84473 10.0295C9.40699 9.51869 10.0649 8.82612 10.6882 4.17729C10.7402 3.86564 10.9653 3.64921 11.2683 3.64921C11.5626 3.64921 11.7877 3.86564 11.8396 4.17729C12.5062 8.82612 13.1295 9.48406 17.6831 10.0295C18.0034 10.0727 18.2285 10.3065 18.2285 10.6095C18.2285 10.9125 18.0034 11.1549 17.6831 11.1895C13.1209 11.7003 12.4629 12.4015 11.8396 17.0503C11.7877 17.3533 11.5626 17.5697 11.2683 17.5697Z" fill="#1E1E1E"/>
<path d="M5.19102 7.95176C5.00056 7.95176 4.85339 7.82191 4.83608 7.61414C4.55905 5.33734 4.46382 5.26808 2.12642 4.90448C1.90134 4.86986 1.77148 4.74866 1.77148 4.54955C1.77148 4.35909 1.90134 4.22923 2.08314 4.19461C4.45517 3.7531 4.55905 3.7531 4.83608 1.4763C4.85339 1.27718 5.00056 1.13867 5.19102 1.13867C5.38147 1.13867 5.51998 1.27718 5.5373 1.46764C5.84029 3.79638 5.90955 3.86564 8.29024 4.19461C8.46338 4.22058 8.60189 4.35909 8.60189 4.54955C8.60189 4.74 8.47203 4.86986 8.29024 4.90448C5.90089 5.34599 5.84029 5.35465 5.5373 7.64011C5.51998 7.82191 5.37281 7.95176 5.19102 7.95176ZM11.2683 17.5697C10.9739 17.5697 10.7402 17.3533 10.6882 17.0503C10.0043 12.4015 9.39834 11.8041 4.84473 11.1895C4.52442 11.1462 4.308 10.9125 4.308 10.6095C4.308 10.3065 4.53308 10.0641 4.84473 10.0295C9.40699 9.51869 10.0649 8.82612 10.6882 4.17729C10.7402 3.86564 10.9653 3.64921 11.2683 3.64921C11.5626 3.64921 11.7877 3.86564 11.8396 4.17729C12.5062 8.82612 13.1295 9.48406 17.6831 10.0295C18.0034 10.0727 18.2285 10.3065 18.2285 10.6095C18.2285 10.9125 18.0034 11.1549 17.6831 11.1895C13.1209 11.7003 12.4629 12.4015 11.8396 17.0503C11.7877 17.3533 11.5626 17.5697 11.2683 17.5697Z" fill="#6B5EEC"/>
<path d="M26.0063 15V5.84473H22.6812V4.43115H30.9648V5.84473H27.647V15H26.0063ZM33.2344 15.1318C31.7183 15.1318 30.5977 14.209 30.5977 12.7661V12.7515C30.5977 11.3306 31.667 10.5029 33.564 10.3857L35.7173 10.2612V9.55811C35.7173 8.68652 35.168 8.20312 34.0913 8.20312C33.2124 8.20312 32.6338 8.52539 32.4434 9.08936L32.436 9.11865H30.9053L30.9126 9.06738C31.103 7.76367 32.3555 6.89209 34.1646 6.89209C36.1641 6.89209 37.292 7.88818 37.292 9.55811V15H35.7173V13.8721H35.5928C35.124 14.6777 34.2891 15.1318 33.2344 15.1318ZM32.1797 12.7002C32.1797 13.4326 32.8022 13.8647 33.6592 13.8647C34.8457 13.8647 35.7173 13.0884 35.7173 12.063V11.3818L33.7764 11.5063C32.6777 11.5723 32.1797 11.9678 32.1797 12.6855V12.7002ZM39.2832 15V7.0459H40.8726V8.25439H40.9897C41.3779 7.40479 42.1396 6.89209 43.2969 6.89209C45.0767 6.89209 46.0581 7.9541 46.0581 9.85107V15H44.4761V10.2246C44.4761 8.90625 43.9268 8.25439 42.7622 8.25439C41.5977 8.25439 40.8726 9.05273 40.8726 10.3345V15H39.2832ZM51.3892 17.8052C49.3677 17.8052 48.1226 16.9189 47.9321 15.5933L47.9468 15.5786H49.5508L49.5581 15.5933C49.6899 16.1426 50.3345 16.5308 51.4111 16.5308C52.7222 16.5308 53.4985 15.9155 53.4985 14.8315V13.2642H53.3813C52.8979 14.1284 52.019 14.6118 50.9277 14.6118C48.8843 14.6118 47.6245 13.0371 47.6245 10.7959V10.7812C47.6245 8.51074 48.8916 6.90674 50.957 6.90674C52.0703 6.90674 52.9346 7.45605 53.396 8.34961H53.4912V7.0459H55.0732V14.8389C55.0732 16.6479 53.645 17.8052 51.3892 17.8052ZM51.3672 13.3008C52.7148 13.3008 53.5278 12.2754 53.5278 10.7886V10.7739C53.5278 9.29443 52.7075 8.25439 51.3672 8.25439C50.0122 8.25439 49.2505 9.29443 49.2505 10.7739V10.7886C49.2505 12.2681 50.0122 13.3008 51.3672 13.3008ZM60.4482 15.1538C58.1191 15.1538 56.7129 13.5645 56.7129 11.0449V11.0376C56.7129 8.55469 58.1484 6.89209 60.3677 6.89209C62.5869 6.89209 63.9492 8.49609 63.9492 10.8838V11.4404H58.3096C58.3389 12.9639 59.1738 13.8501 60.4849 13.8501C61.5029 13.8501 62.1108 13.3447 62.3013 12.9346L62.3306 12.876L63.8613 12.8687L63.8467 12.9346C63.583 13.9819 62.4844 15.1538 60.4482 15.1538ZM60.375 8.1958C59.291 8.1958 58.4707 8.93555 58.3315 10.3052H62.3745C62.25 8.88428 61.4517 8.1958 60.375 8.1958ZM65.5889 15V7.0459H67.1782V8.26904H67.2954C67.647 7.39746 68.4233 6.89209 69.4634 6.89209C70.5474 6.89209 71.3164 7.45605 71.668 8.31299H71.7925C72.1953 7.45605 73.1108 6.89209 74.2168 6.89209C75.8208 6.89209 76.7583 7.85889 76.7583 9.51416V15H75.1763V9.89502C75.1763 8.79639 74.6782 8.25439 73.6382 8.25439C72.6274 8.25439 71.9609 9.00879 71.9609 9.96826V15H70.3789V9.73389C70.3789 8.82568 69.7856 8.25439 68.8481 8.25439C67.8887 8.25439 67.1782 9.07471 67.1782 10.1147V15H65.5889ZM81.9492 15L85.7651 4.43115H87.5376L91.3535 15H89.625L88.6729 12.1436H84.6299L83.6704 15H81.9492ZM86.5854 6.28418L85.0693 10.8252H88.2334L86.71 6.28418H86.5854ZM92.9419 15V4.43115H94.5825V15H92.9419Z" fill="#1E1E1E"/>
<path d="M26.0063 15V5.84473H22.6812V4.43115H30.9648V5.84473H27.647V15H26.0063ZM33.2344 15.1318C31.7183 15.1318 30.5977 14.209 30.5977 12.7661V12.7515C30.5977 11.3306 31.667 10.5029 33.564 10.3857L35.7173 10.2612V9.55811C35.7173 8.68652 35.168 8.20312 34.0913 8.20312C33.2124 8.20312 32.6338 8.52539 32.4434 9.08936L32.436 9.11865H30.9053L30.9126 9.06738C31.103 7.76367 32.3555 6.89209 34.1646 6.89209C36.1641 6.89209 37.292 7.88818 37.292 9.55811V15H35.7173V13.8721H35.5928C35.124 14.6777 34.2891 15.1318 33.2344 15.1318ZM32.1797 12.7002C32.1797 13.4326 32.8022 13.8647 33.6592 13.8647C34.8457 13.8647 35.7173 13.0884 35.7173 12.063V11.3818L33.7764 11.5063C32.6777 11.5723 32.1797 11.9678 32.1797 12.6855V12.7002ZM39.2832 15V7.0459H40.8726V8.25439H40.9897C41.3779 7.40479 42.1396 6.89209 43.2969 6.89209C45.0767 6.89209 46.0581 7.9541 46.0581 9.85107V15H44.4761V10.2246C44.4761 8.90625 43.9268 8.25439 42.7622 8.25439C41.5977 8.25439 40.8726 9.05273 40.8726 10.3345V15H39.2832ZM51.3892 17.8052C49.3677 17.8052 48.1226 16.9189 47.9321 15.5933L47.9468 15.5786H49.5508L49.5581 15.5933C49.6899 16.1426 50.3345 16.5308 51.4111 16.5308C52.7222 16.5308 53.4985 15.9155 53.4985 14.8315V13.2642H53.3813C52.8979 14.1284 52.019 14.6118 50.9277 14.6118C48.8843 14.6118 47.6245 13.0371 47.6245 10.7959V10.7812C47.6245 8.51074 48.8916 6.90674 50.957 6.90674C52.0703 6.90674 52.9346 7.45605 53.396 8.34961H53.4912V7.0459H55.0732V14.8389C55.0732 16.6479 53.645 17.8052 51.3892 17.8052ZM51.3672 13.3008C52.7148 13.3008 53.5278 12.2754 53.5278 10.7886V10.7739C53.5278 9.29443 52.7075 8.25439 51.3672 8.25439C50.0122 8.25439 49.2505 9.29443 49.2505 10.7739V10.7886C49.2505 12.2681 50.0122 13.3008 51.3672 13.3008ZM60.4482 15.1538C58.1191 15.1538 56.7129 13.5645 56.7129 11.0449V11.0376C56.7129 8.55469 58.1484 6.89209 60.3677 6.89209C62.5869 6.89209 63.9492 8.49609 63.9492 10.8838V11.4404H58.3096C58.3389 12.9639 59.1738 13.8501 60.4849 13.8501C61.5029 13.8501 62.1108 13.3447 62.3013 12.9346L62.3306 12.876L63.8613 12.8687L63.8467 12.9346C63.583 13.9819 62.4844 15.1538 60.4482 15.1538ZM60.375 8.1958C59.291 8.1958 58.4707 8.93555 58.3315 10.3052H62.3745C62.25 8.88428 61.4517 8.1958 60.375 8.1958ZM65.5889 15V7.0459H67.1782V8.26904H67.2954C67.647 7.39746 68.4233 6.89209 69.4634 6.89209C70.5474 6.89209 71.3164 7.45605 71.668 8.31299H71.7925C72.1953 7.45605 73.1108 6.89209 74.2168 6.89209C75.8208 6.89209 76.7583 7.85889 76.7583 9.51416V15H75.1763V9.89502C75.1763 8.79639 74.6782 8.25439 73.6382 8.25439C72.6274 8.25439 71.9609 9.00879 71.9609 9.96826V15H70.3789V9.73389C70.3789 8.82568 69.7856 8.25439 68.8481 8.25439C67.8887 8.25439 67.1782 9.07471 67.1782 10.1147V15H65.5889ZM81.9492 15L85.7651 4.43115H87.5376L91.3535 15H89.625L88.6729 12.1436H84.6299L83.6704 15H81.9492ZM86.5854 6.28418L85.0693 10.8252H88.2334L86.71 6.28418H86.5854ZM92.9419 15V4.43115H94.5825V15H92.9419Z" fill="url(#paint0_linear_9006_23436)"/>
<defs>
<linearGradient id="paint0_linear_9006_23436" x1="11.9547" y1="-3.99218" x2="88.3353" y2="-16.4165" gradientUnits="userSpaceOnUse">
<stop stop-color="#635EEC"/>
<stop offset="1" stop-color="#E05AED"/>
</linearGradient>
</defs>
</svg>
