<svg width="24" height="24" viewBox="0 0 24 24" fill="none" xmlns="http://www.w3.org/2000/svg">
<path d="M10.9507 12.6994L9.50068 11.2744C9.31735 11.0911 9.08818 10.9994 8.81318 10.9994C8.53818 10.9994 8.30068 11.0994 8.10068 11.2994C7.91735 11.4827 7.82568 11.7161 7.82568 11.9994C7.82568 12.2827 7.91735 12.5161 8.10068 12.6994L10.2507 14.8494C10.4507 15.0494 10.684 15.1494 10.9507 15.1494C11.2174 15.1494 11.4507 15.0494 11.6507 14.8494L15.9007 10.5994C16.1007 10.3994 16.1965 10.1661 16.1882 9.89939C16.1799 9.63272 16.084 9.39939 15.9007 9.19939C15.7007 8.99939 15.4632 8.89522 15.1882 8.88689C14.9132 8.87855 14.6757 8.97439 14.4757 9.17439L10.9507 12.6994ZM8.15068 21.7494L6.70068 19.2994L3.95068 18.6994C3.70068 18.6494 3.50068 18.5202 3.35068 18.3119C3.20068 18.1036 3.14235 17.8744 3.17568 17.6244L3.45068 14.7994L1.57568 12.6494C1.40902 12.4661 1.32568 12.2494 1.32568 11.9994C1.32568 11.7494 1.40902 11.5327 1.57568 11.3494L3.45068 9.19939L3.17568 6.37439C3.14235 6.12439 3.20068 5.89522 3.35068 5.68689C3.50068 5.47855 3.70068 5.34939 3.95068 5.29939L6.70068 4.69939L8.15068 2.24939C8.28402 2.03272 8.46735 1.88689 8.70068 1.81189C8.93402 1.73689 9.16735 1.74939 9.40068 1.84939L12.0007 2.94939L14.6007 1.84939C14.834 1.74939 15.0674 1.73689 15.3007 1.81189C15.534 1.88689 15.7174 2.03272 15.8507 2.24939L17.3007 4.69939L20.0507 5.29939C20.3007 5.34939 20.5007 5.47855 20.6507 5.68689C20.8007 5.89522 20.859 6.12439 20.8257 6.37439L20.5507 9.19939L22.4257 11.3494C22.5924 11.5327 22.6757 11.7494 22.6757 11.9994C22.6757 12.2494 22.5924 12.4661 22.4257 12.6494L20.5507 14.7994L20.8257 17.6244C20.859 17.8744 20.8007 18.1036 20.6507 18.3119C20.5007 18.5202 20.3007 18.6494 20.0507 18.6994L17.3007 19.2994L15.8507 21.7494C15.7174 21.9661 15.534 22.1119 15.3007 22.1869C15.0674 22.2619 14.834 22.2494 14.6007 22.1494L12.0007 21.0494L9.40068 22.1494C9.16735 22.2494 8.93402 22.2619 8.70068 22.1869C8.46735 22.1119 8.28402 21.9661 8.15068 21.7494Z" fill="#1E1E1E"/>
</svg>
