<svg width="25" height="24" viewBox="0 0 25 24" fill="none" xmlns="http://www.w3.org/2000/svg">
<path fill-rule="evenodd" clip-rule="evenodd" d="M14.9943 1.99013C15.7647 1.92263 17.1056 1.80549 18.0035 2.89946C18.6619 3.70197 18.8157 4.80322 18.8105 5.72424C18.8078 6.20793 18.7609 6.69137 18.6909 7.13845C18.6493 7.40425 18.6281 7.53732 18.6855 7.62689C18.7429 7.71639 18.8769 7.75407 19.1438 7.82958C19.7466 8.00014 20.269 8.262 20.6739 8.69874C21.1934 9.25912 21.4129 9.95845 21.5157 10.784C21.6154 11.5846 21.6152 12.6042 21.6152 13.8744V15.8602C21.6153 17.1631 21.6154 18.2189 21.4929 19.0501C21.3646 19.9203 21.0896 20.6445 20.4676 21.213C19.8523 21.7753 19.1352 21.9894 18.2911 22.0393C17.4942 22.0863 16.4507 21.9844 15.2463 21.8667C12.8021 21.6279 10.0621 21.2088 7.44572 20.5018C6.01659 20.1167 4.83347 19.7979 4.10785 18.8456C3.72202 18.3392 3.54607 17.7873 3.46328 17.1457C3.3851 16.5395 3.38475 15.8022 3.38477 14.9079V6.29759C3.38494 5.1571 4.10326 4.06592 5.28925 3.71385C7.11435 3.17222 10.4376 2.37711 14.9943 1.99013ZM16.707 12.935C15.6744 12.935 14.8372 13.7721 14.8372 14.8048C14.8374 15.8373 15.6745 16.6746 16.707 16.6746C17.7396 16.6746 18.5767 15.8373 18.5768 14.8048C18.5768 13.7721 17.7397 12.935 16.707 12.935ZM16.0917 3.72754C15.8266 3.68552 15.512 3.70582 15.0627 3.74397C10.6477 4.11891 7.54153 4.87929 5.82335 5.38917C5.7466 5.41195 5.67198 5.44748 5.60332 5.49416C5.44346 5.60286 5.36392 5.65734 5.39881 5.83836C5.43386 6.01964 5.56922 6.05018 5.84069 6.10952C8.03771 6.58968 11.417 7.10464 15.3567 7.37765C15.683 7.40025 15.9966 7.42211 16.2953 7.4443C16.5303 7.46176 16.6481 7.4709 16.7335 7.40413C16.8189 7.33734 16.838 7.22614 16.8759 7.00424C16.9457 6.59592 16.9931 6.14985 16.9955 5.71419C17.0001 4.90807 16.8474 4.31138 16.5819 3.98774C16.4563 3.8346 16.3129 3.76267 16.0917 3.72754Z" fill="#919191"/>
</svg>
