<svg width="20" height="20" viewBox="0 0 20 20" fill="none" xmlns="http://www.w3.org/2000/svg">
<path d="M7.43025 5.05467C7.02415 4.64857 7.11432 3.96424 7.65086 3.75938C7.84898 3.68373 8.04895 3.61816 8.25074 3.56266C8.8063 3.40988 9.37574 3.3335 9.95907 3.3335C11.8202 3.3335 13.4035 3.97933 14.7091 5.271C16.0146 6.56266 16.6674 8.13905 16.6674 10.0002V10.146L17.4174 9.396C17.7396 9.07383 18.2619 9.07383 18.5841 9.396C18.9062 9.71816 18.9062 10.2405 18.5841 10.5627L16.5007 12.646C16.1325 13.0142 15.5356 13.0142 15.1674 12.646L13.0841 10.5627C12.7619 10.2405 12.7619 9.71816 13.0841 9.396C13.4062 9.07383 13.9286 9.07383 14.2507 9.396L15.0007 10.146V10.0002C15.0007 8.61127 14.5112 7.43072 13.532 6.4585C12.5528 5.48627 11.3619 5.00016 9.95907 5.00016C9.59796 5.00016 9.24379 5.04183 8.89657 5.12516C8.74829 5.16075 8.60127 5.20394 8.45552 5.25472C8.10023 5.37852 7.69629 5.32071 7.43025 5.05467ZM1.41741 10.6043C1.09524 10.2822 1.09524 9.75983 1.41741 9.43766L3.79704 7.05803C4.00159 6.85348 4.33323 6.85348 4.53778 7.05803L6.91741 9.43766C7.23957 9.75983 7.23957 10.2822 6.91741 10.6043C6.59524 10.9265 6.0729 10.9265 5.75074 10.6043L5.00074 9.85433V10.0002C5.00074 11.3891 5.49032 12.5696 6.46949 13.5418C7.44866 14.5141 8.63963 15.0002 10.0424 15.0002C10.4035 15.0002 10.7577 14.9585 11.1049 14.8752C11.2532 14.8396 11.4002 14.7964 11.546 14.7456C11.9012 14.6218 12.3052 14.6796 12.5712 14.9457C12.9773 15.3518 12.8872 16.0361 12.3506 16.2409C12.1525 16.3166 11.9525 16.3822 11.7507 16.4377C11.1952 16.5904 10.6257 16.6668 10.0424 16.6668C8.18129 16.6668 6.59796 16.021 5.29241 14.7293C3.98685 13.4377 3.33407 11.8613 3.33407 10.0002V9.85433L2.58407 10.6043C2.26191 10.9265 1.73957 10.9265 1.41741 10.6043Z" fill="#0099FF"/>
</svg>
