<svg width="77" height="77" viewBox="0 0 77 77" fill="none" xmlns="http://www.w3.org/2000/svg">
<g id="nft-icon">
<g id="Vector">
<path d="M26.7836 21.3996C23.6356 21.3996 21.0836 23.9515 21.0836 27.0996C21.0836 30.2476 23.6356 32.7996 26.7836 32.7996C29.9316 32.7996 32.4836 30.2476 32.4836 27.0996C32.4836 23.9515 29.9316 21.3996 26.7836 21.3996Z" fill="#C9C9C9"/>
<path fill-rule="evenodd" clip-rule="evenodd" d="M9.61796 19.4111L34.3287 5.14433C35.4612 4.49045 36.9105 4.91767 37.5072 6.08132C38.0635 7.16591 37.6713 8.49615 36.6157 9.10561L12.1022 23.2585V47.6393L21.0702 41.3345C22.3836 40.4112 24.1098 40.3217 25.5116 41.1043L36.0434 46.984L51.4109 35.6824C52.7895 34.6686 54.6468 34.5974 56.0989 35.503L64.8983 40.9902V25.5456C64.8983 24.2825 65.9223 23.2585 67.1854 23.2585C68.4485 23.2585 69.4724 24.2825 69.4724 25.5456V53.9681C69.4724 55.4614 68.6757 56.8412 67.3825 57.5879L40.5901 73.0565C39.2969 73.8031 37.7036 73.8031 36.4104 73.0565L9.61796 57.5879C8.32474 56.8412 7.52808 55.4613 7.52808 53.9681V23.0309C7.52808 21.5376 8.32474 20.1577 9.61796 19.4111ZM53.9055 39.5257L64.8983 46.3808V53.7404L38.5002 68.9814L12.1022 53.7404V53.2307L23.4982 45.2189L34.0352 51.1015C35.4652 51.8999 37.2297 51.7895 38.549 50.8192L53.9055 39.5257Z" fill="#C9C9C9"/>
</g>
<path id="Union" d="M57.3904 2.34329C56.2427 2.34329 55.3123 3.2737 55.3123 4.42142V9.76517H49.3748C48.227 9.76517 47.2966 10.6956 47.2966 11.8433C47.2966 12.991 48.227 13.9214 49.3748 13.9214H55.3123V19.2652C55.3123 20.4129 56.2427 21.3433 57.3904 21.3433C58.5381 21.3433 59.4685 20.4129 59.4685 19.2652V13.9214H65.406C66.5537 13.9214 67.4841 12.991 67.4841 11.8433C67.4841 10.6956 66.5537 9.76517 65.406 9.76517H59.4685V4.42142C59.4685 3.2737 58.5381 2.34329 57.3904 2.34329Z" fill="#C9C9C9"/>
</g>
</svg>
