<svg width="56" height="56" viewBox="0 0 56 56" fill="none" xmlns="http://www.w3.org/2000/svg">
<circle opacity="0.1" cx="28" cy="28" r="28" fill="#FF3333"/>
<path d="M28.0003 39.9667L26.067 38.2067C19.2003 31.98 14.667 27.86 14.667 22.8333C14.667 18.7133 17.8937 15.5 22.0003 15.5C22.8937 15.5 23.7603 15.66 24.587 15.94L29.3337 23.9667L24.0003 30.6333L28.0003 39.9667ZM34.0003 15.5C38.107 15.5 41.3337 18.7133 41.3337 22.8333C41.3337 27.86 36.8003 31.98 29.9337 38.2067L28.0003 39.9667L26.667 30.6333L32.667 23.9667L29.1337 17.1933C30.4937 16.1267 32.227 15.5 34.0003 15.5Z" fill="#FF3333"/>
</svg>
