<svg width="22" height="22" viewBox="0 0 22 22" fill="none" xmlns="http://www.w3.org/2000/svg">
<g clip-path="url(#clip0_12215_3748)">
<path d="M7.47242 21.4221C7.78401 20.3676 8.13425 19.3197 8.48482 18.2707C9.39303 15.5532 10.3035 12.8292 10.5497 9.96792C10.6217 9.13228 10.6604 8.28982 10.6991 7.45008C10.7089 7.23704 10.7187 7.02417 10.729 6.81164C10.8269 4.83677 10.8992 2.8607 10.9459 0.883975C10.9462 0.87065 10.9473 0.835957 10.9488 0.787164C10.9548 0.59549 10.9677 0.186236 10.9685 5.36798e-05L10.2965 0.0221289C10.2911 0.147584 10.2962 0.274734 10.2954 0.399771L10.2936 1.38768L10.29 4.32002L10.2806 8.00882L10.2782 9.09551L10.2781 9.12506C10.2767 9.508 10.2754 9.88738 10.2197 10.2674C9.8253 12.9573 7.2583 15.7513 5.45025 17.7193L5.40004 17.7739L4.17414 19.1058C4.09102 19.1965 4.00861 19.2881 3.92617 19.3796L3.90339 19.4049L5.40659 20.4737L5.54747 20.2365C5.80614 19.8071 6.06871 19.38 6.33507 18.9554C6.49513 18.6982 6.65655 18.4412 6.81821 18.1837C7.90564 16.4519 9.00381 14.7029 9.77054 12.8064C9.96221 12.3324 10.1457 11.8386 10.2672 11.3413C10.2858 11.2677 10.3054 11.1946 10.3279 11.122C10.319 11.2059 10.3037 11.2864 10.2857 11.3687C10.2572 11.4806 10.232 11.5934 10.2068 11.7062C10.1842 11.8074 10.1616 11.9085 10.1366 12.009C10.04 12.3933 9.93246 12.7747 9.8141 13.1528C9.29039 14.8289 8.57951 16.4426 7.86792 18.0456C7.49255 18.8807 7.12526 19.7195 6.76627 20.5618C6.69538 20.7292 6.62531 20.8971 6.55606 21.0652L7.47242 21.4221Z" fill="#919191"/>
<path d="M11.0312 5.36798e-05C11.0321 0.181623 11.0443 0.575454 11.0505 0.772637C11.0523 0.829072 11.0535 0.869398 11.0539 0.88403C11.1006 2.86075 11.1729 4.83684 11.2708 6.81169C11.2811 7.02441 11.2909 7.23746 11.3007 7.45069C11.3394 8.29026 11.3781 9.13256 11.45 9.96798C11.6964 12.8292 12.6068 15.5533 13.5149 18.2708C13.8655 19.3198 14.2157 20.3677 14.5273 21.4222L15.4437 21.0653C15.3745 20.8971 15.3045 20.7292 15.2335 20.5619C14.8746 19.7195 14.5074 18.8808 14.1319 18.0457C13.4203 16.4428 12.7095 14.829 12.1857 13.1529C12.0674 12.7748 11.9599 12.3933 11.8632 12.0091C11.8382 11.9085 11.8155 11.8073 11.7928 11.7061C11.7735 11.6203 11.7542 11.5345 11.7335 11.449L11.7137 11.3693C11.6956 11.2869 11.6804 11.2061 11.6715 11.1222C11.6884 11.1765 11.7037 11.2311 11.7181 11.2859L11.7324 11.341C11.8539 11.8384 12.0375 12.3323 12.2292 12.8065C12.9958 14.7027 14.0938 16.4514 15.181 18.183C15.3429 18.4407 15.5044 18.6981 15.6647 18.9555C15.9311 19.3801 16.1937 19.8072 16.4524 20.2366L16.5932 20.4739L18.0964 19.405L18.0686 19.3741C17.9878 19.2844 17.9071 19.1948 17.8256 19.1059L16.5997 17.774L16.5493 17.719C14.7413 15.7511 12.1744 12.9572 11.78 10.2675C11.7244 9.88779 11.7231 9.50881 11.7217 9.12625L11.7216 9.09562L11.7192 8.00888L11.7098 4.32008L11.7062 1.38773L11.7043 0.399824C11.704 0.355379 11.7045 0.310664 11.705 0.265853C11.7058 0.184588 11.7067 0.103005 11.7032 0.0221289L11.0312 5.36798e-05Z" fill="#919191"/>
</g>
<defs>
<clipPath id="clip0_12215_3748">
<rect width="22" height="22" fill="white"/>
</clipPath>
</defs>
</svg>
