<svg width="24" height="24" viewBox="0 0 24 24" fill="none" xmlns="http://www.w3.org/2000/svg">
<path d="M7.75977 13C8.13521 13 8.47716 12.9993 8.76074 13.0225C9.05602 13.0466 9.37526 13.1016 9.68946 13.2617C10.141 13.4918 10.5082 13.859 10.7383 14.3105C10.8984 14.6247 10.9534 14.944 10.9775 15.2393C11.0007 15.5228 11 15.8648 11 16.2402V18.7598C11 19.1352 11.0007 19.4772 10.9775 19.7607C10.9534 20.056 10.8984 20.3753 10.7383 20.6895C10.5082 21.141 10.141 21.5082 9.68946 21.7383C9.37526 21.8984 9.05602 21.9534 8.76074 21.9775C8.47716 22.0007 8.13521 22 7.75977 22H5.24024C4.86479 22 4.52284 22.0007 4.23926 21.9775C3.94398 21.9534 3.62474 21.8984 3.31055 21.7383C2.85896 21.5082 2.49182 21.141 2.26172 20.6895C2.10164 20.3753 2.04659 20.056 2.02246 19.7607C1.99931 19.4772 2 19.1352 2 18.7598V16.2402C2 15.8648 1.99931 15.5228 2.02246 15.2393C2.04659 14.944 2.10164 14.6247 2.26172 14.3105C2.49182 13.859 2.85896 13.4918 3.31055 13.2617C3.62474 13.1016 3.94398 13.0466 4.23926 13.0225C4.52284 12.9993 4.86479 13 5.24024 13H7.75977ZM5.24024 15C4.83202 15 4.58559 15.0007 4.40235 15.0156C4.28086 15.0256 4.23169 15.0395 4.21875 15.0439C4.14349 15.0823 4.0823 15.1435 4.04395 15.2188C4.03952 15.2317 4.02555 15.2809 4.01563 15.4023C4.00069 15.5856 4 15.832 4 16.2402V18.7598C4 19.168 4.00069 19.4144 4.01563 19.5977C4.02555 19.7191 4.03952 19.7683 4.04395 19.7813C4.0823 19.8565 4.14349 19.9177 4.21875 19.9561C4.23169 19.9605 4.28086 19.9745 4.40235 19.9844C4.58559 19.9993 4.83202 20 5.24024 20H7.75977C8.16798 20 8.41442 19.9993 8.59766 19.9844C8.71914 19.9745 8.76832 19.9605 8.78125 19.9561C8.85652 19.9177 8.91771 19.8565 8.95606 19.7813C8.96049 19.7683 8.97445 19.7191 8.98438 19.5977C8.99932 19.4144 9 19.168 9 18.7598V16.2402C9 15.832 8.99932 15.5856 8.98438 15.4023C8.97445 15.2809 8.96049 15.2317 8.95606 15.2188C8.91771 15.1435 8.85652 15.0823 8.78125 15.0439C8.76831 15.0395 8.71914 15.0256 8.59766 15.0156C8.41442 15.0007 8.16798 15 7.75977 15H5.24024Z" fill="#0F0F0F"/>
<path d="M14.8633 18.9512C15.5189 18.9513 16.0498 19.483 16.0498 20.1387C16.0498 20.7943 15.5188 21.326 14.8633 21.3262C14.2076 21.3262 13.6758 20.7944 13.6758 20.1387C13.6758 19.4829 14.2076 18.9512 14.8633 18.9512Z" fill="#0F0F0F"/>
<path d="M20.1367 18.9512C20.7925 18.9512 21.3242 19.4829 21.3242 20.1387C21.3242 20.7944 20.7924 21.3262 20.1367 21.3262C19.4812 21.326 18.9503 20.7943 18.9502 20.1387C18.9502 19.483 19.4811 18.9513 20.1367 18.9512Z" fill="#0F0F0F"/>
<path d="M17.499 16.3125C18.1545 16.3127 18.6855 16.8445 18.6855 17.5C18.6855 18.1556 18.1545 18.6873 17.499 18.6875C16.8433 18.6875 16.3115 18.1557 16.3115 17.5C16.3116 16.8443 16.8433 16.3125 17.499 16.3125Z" fill="#0F0F0F"/>
<path d="M14.8633 13.6738C15.5188 13.674 16.0497 14.2058 16.0498 14.8613C16.0498 15.517 15.5189 16.0487 14.8633 16.0488C14.2076 16.0488 13.6758 15.5171 13.6758 14.8613C13.6759 14.2057 14.2076 13.6738 14.8633 13.6738Z" fill="#0F0F0F"/>
<path d="M20.1289 13.6738C20.7845 13.6738 21.3163 14.2057 21.3164 14.8613C21.3164 15.5171 20.7846 16.0488 20.1289 16.0488C19.4732 16.0488 18.9414 15.5171 18.9414 14.8613C18.9415 14.2057 19.4733 13.6738 20.1289 13.6738Z" fill="#0F0F0F"/>
<path d="M7.75977 2C8.13521 2 8.47716 1.99931 8.76074 2.02246C9.05602 2.04659 9.37526 2.10164 9.68946 2.26172C10.141 2.49182 10.5082 2.85896 10.7383 3.31055C10.8984 3.62474 10.9534 3.94398 10.9775 4.23926C11.0007 4.52284 11 4.86479 11 5.24024V7.75977C11 8.13521 11.0007 8.47716 10.9775 8.76074C10.9534 9.05602 10.8984 9.37526 10.7383 9.68946C10.5082 10.141 10.141 10.5082 9.68946 10.7383C9.37526 10.8984 9.05602 10.9534 8.76074 10.9775C8.47716 11.0007 8.13521 11 7.75977 11H5.24024C4.86479 11 4.52284 11.0007 4.23926 10.9775C3.94398 10.9534 3.62474 10.8984 3.31055 10.7383C2.85896 10.5082 2.49182 10.141 2.26172 9.68946C2.10164 9.37526 2.04659 9.05602 2.02246 8.76074C1.99931 8.47716 2 8.13521 2 7.75977V5.24024C2 4.86479 1.99931 4.52284 2.02246 4.23926C2.04659 3.94398 2.10164 3.62474 2.26172 3.31055C2.49182 2.85896 2.85896 2.49182 3.31055 2.26172C3.62474 2.10164 3.94398 2.04659 4.23926 2.02246C4.52284 1.99931 4.86479 2 5.24024 2H7.75977ZM5.24024 4C4.83202 4 4.58559 4.00069 4.40235 4.01563C4.28086 4.02555 4.23169 4.03952 4.21875 4.04395C4.14349 4.0823 4.0823 4.14349 4.04395 4.21875C4.03952 4.23169 4.02555 4.28086 4.01563 4.40235C4.00069 4.58559 4 4.83202 4 5.24024V7.75977C4 8.16798 4.00069 8.41442 4.01563 8.59766C4.02555 8.71914 4.03952 8.76831 4.04395 8.78125C4.0823 8.85652 4.14349 8.91771 4.21875 8.95606C4.23169 8.96049 4.28086 8.97445 4.40235 8.98438C4.58559 8.99932 4.83202 9 5.24024 9H7.75977C8.16798 9 8.41442 8.99932 8.59766 8.98438C8.71914 8.97445 8.76832 8.96049 8.78125 8.95606C8.85652 8.91771 8.91771 8.85652 8.95606 8.78125C8.96049 8.76832 8.97445 8.71914 8.98438 8.59766C8.99932 8.41442 9 8.16798 9 7.75977V5.24024C9 4.83202 8.99932 4.58559 8.98438 4.40235C8.97445 4.28086 8.96049 4.23169 8.95606 4.21875C8.91771 4.14349 8.85652 4.0823 8.78125 4.04395C8.76831 4.03952 8.71914 4.02555 8.59766 4.01563C8.41442 4.00069 8.16798 4 7.75977 4H5.24024Z" fill="#0F0F0F"/>
<path d="M18.7598 2C19.1352 2 19.4772 1.99931 19.7607 2.02246C20.056 2.04659 20.3753 2.10164 20.6895 2.26172C21.141 2.49182 21.5082 2.85896 21.7383 3.31055C21.8984 3.62474 21.9534 3.94398 21.9775 4.23926C22.0007 4.52284 22 4.86479 22 5.24024V7.75977C22 8.13521 22.0007 8.47716 21.9775 8.76074C21.9534 9.05602 21.8984 9.37526 21.7383 9.68946C21.5082 10.141 21.141 10.5082 20.6895 10.7383C20.3753 10.8984 20.056 10.9534 19.7607 10.9775C19.4772 11.0007 19.1352 11 18.7598 11H16.2402C15.8648 11 15.5228 11.0007 15.2393 10.9775C14.944 10.9534 14.6247 10.8984 14.3105 10.7383C13.859 10.5082 13.4918 10.141 13.2617 9.68946C13.1016 9.37526 13.0466 9.05602 13.0225 8.76074C12.9993 8.47716 13 8.13521 13 7.75977V5.24024C13 4.86479 12.9993 4.52284 13.0225 4.23926C13.0466 3.94398 13.1016 3.62474 13.2617 3.31055C13.4918 2.85896 13.859 2.49182 14.3105 2.26172C14.6247 2.10164 14.944 2.04659 15.2393 2.02246C15.5228 1.99931 15.8648 2 16.2402 2H18.7598ZM16.2402 4C15.832 4 15.5856 4.00069 15.4023 4.01563C15.2809 4.02555 15.2317 4.03952 15.2188 4.04395C15.1435 4.0823 15.0823 4.14349 15.0439 4.21875C15.0395 4.23169 15.0256 4.28086 15.0156 4.40235C15.0007 4.58559 15 4.83202 15 5.24024V7.75977C15 8.16798 15.0007 8.41442 15.0156 8.59766C15.0256 8.71914 15.0395 8.76831 15.0439 8.78125C15.0823 8.85652 15.1435 8.91771 15.2188 8.95606C15.2317 8.96049 15.2809 8.97445 15.4023 8.98438C15.5856 8.99932 15.832 9 16.2402 9H18.7598C19.168 9 19.4144 8.99932 19.5977 8.98438C19.7191 8.97445 19.7683 8.96049 19.7813 8.95606C19.8565 8.91771 19.9177 8.85652 19.9561 8.78125C19.9605 8.76832 19.9745 8.71914 19.9844 8.59766C19.9993 8.41442 20 8.16798 20 7.75977V5.24024C20 4.83202 19.9993 4.58559 19.9844 4.40235C19.9745 4.28086 19.9605 4.23169 19.9561 4.21875C19.9177 4.14349 19.8565 4.0823 19.7813 4.04395C19.7683 4.03952 19.7191 4.02555 19.5977 4.01563C19.4144 4.00069 19.168 4 18.7598 4H16.2402Z" fill="#0F0F0F"/>
</svg>
