<svg width="28" height="28" viewBox="0 0 28 28" fill="none" xmlns="http://www.w3.org/2000/svg">
<path d="M9.34375 15.292C9.71698 15.292 10.0648 15.2908 10.3545 15.3145C10.6196 15.3361 10.9111 15.3832 11.2041 15.5088L11.3301 15.5674L11.5039 15.665C11.8992 15.9076 12.2209 16.2554 12.4326 16.6709C12.6031 17.0055 12.6608 17.3426 12.6855 17.6455C12.7092 17.9354 12.708 18.2838 12.708 18.6572V22.6367C12.708 23.0099 12.7092 23.3577 12.6855 23.6475C12.6608 23.9504 12.6031 24.2884 12.4326 24.6231C12.1906 25.0977 11.8046 25.4836 11.3301 25.7256C10.9954 25.8961 10.6574 25.9538 10.3545 25.9785C10.0648 26.0022 9.71698 26.001 9.34375 26.001H5.36426C4.99085 26.001 4.6424 26.0022 4.35254 25.9785C4.04962 25.9538 3.71254 25.8961 3.37793 25.7256C2.90297 25.4836 2.51651 25.098 2.27441 24.6231C2.10388 24.2883 2.04624 23.9505 2.02148 23.6475C1.99782 23.3577 1.99902 23.01 1.99902 22.6367V18.6572C1.99902 18.2838 1.9978 17.9354 2.02148 17.6455C2.04626 17.3427 2.10398 17.0054 2.27441 16.6709L2.37207 16.4971C2.61467 16.1016 2.96227 15.7792 3.37793 15.5674L3.50293 15.5088C3.79588 15.3832 4.08741 15.3361 4.35254 15.3145C4.64239 15.2908 4.99086 15.292 5.36426 15.292H9.34375ZM5.36426 17.542C4.9538 17.542 4.71313 17.5432 4.53613 17.5576C4.38957 17.5696 4.36743 17.5866 4.38965 17.5772C4.34541 17.6019 4.30898 17.6384 4.28418 17.6826C4.29326 17.6611 4.27655 17.6836 4.26465 17.8291C4.25019 18.0061 4.24902 18.2467 4.24902 18.6572V22.6367C4.24902 23.0467 4.25022 23.287 4.26465 23.4639C4.2715 23.5477 4.27998 23.591 4.28418 23.6084C4.30943 23.6542 4.34663 23.6917 4.39258 23.7168C4.41059 23.721 4.45382 23.7296 4.53613 23.7363C4.71313 23.7508 4.95381 23.751 5.36426 23.751H9.34375C9.75372 23.751 9.994 23.7508 10.1709 23.7363C10.2547 23.7295 10.2981 23.72 10.3154 23.7158C10.3608 23.6908 10.3978 23.6538 10.4229 23.6084C10.427 23.5909 10.4365 23.5474 10.4434 23.4639C10.4578 23.287 10.458 23.0467 10.458 22.6367V18.6572C10.458 18.2468 10.4578 18.0061 10.4434 17.8291C10.4366 17.7467 10.428 17.7035 10.4238 17.6856C10.3991 17.6403 10.3623 17.6034 10.3174 17.5781C10.3017 17.5742 10.2586 17.5648 10.1709 17.5576C9.994 17.5432 9.75376 17.542 9.34375 17.542H5.36426Z" fill="#0F0F0F"/>
<path d="M17.46 22.4004C18.2523 22.4005 18.8944 23.0427 18.8945 23.835C18.8945 24.6274 18.2523 25.2695 17.46 25.2695C16.6675 25.2695 16.0254 24.6274 16.0254 23.835C16.0255 23.0427 16.6676 22.4004 17.46 22.4004Z" fill="#0F0F0F"/>
<path d="M23.833 22.4004C24.6254 22.4004 25.2684 23.0427 25.2686 23.835C25.2686 24.6274 24.6254 25.2695 23.833 25.2695C23.0407 25.2694 22.3984 24.6273 22.3984 23.835C22.3986 23.0428 23.0408 22.4006 23.833 22.4004Z" fill="#0F0F0F"/>
<path d="M20.6445 19.2129C21.4369 19.2129 22.0799 19.8552 22.0801 20.6475C22.0801 21.4399 21.437 22.083 20.6445 22.083C19.8522 22.0829 19.21 21.4398 19.21 20.6475C19.2101 19.8553 19.8523 19.2131 20.6445 19.2129Z" fill="#0F0F0F"/>
<path d="M17.46 16.0244C18.2523 16.0245 18.8945 16.6666 18.8945 17.459C18.8944 18.2513 18.2523 18.8935 17.46 18.8936C16.6676 18.8936 16.0255 18.2513 16.0254 17.459C16.0254 16.6666 16.6675 16.0244 17.46 16.0244Z" fill="#0F0F0F"/>
<path d="M23.8232 16.0244C24.6157 16.0244 25.2588 16.6666 25.2588 17.459C25.2587 18.2513 24.6156 18.8936 23.8232 18.8936C23.031 18.8934 22.3888 18.2513 22.3887 17.459C22.3887 16.6667 23.0309 16.0246 23.8232 16.0244Z" fill="#0F0F0F"/>
<path d="M9.34375 1.99903C9.71698 1.99903 10.0648 1.99782 10.3545 2.0215C10.6196 2.04317 10.9111 2.09026 11.2041 2.21583L11.3301 2.27442L11.5039 2.37208C11.8991 2.61462 12.2209 2.9625 12.4326 3.37794C12.603 3.71243 12.6608 4.04972 12.6855 4.35255C12.7092 4.64233 12.708 4.99095 12.708 5.36427V9.34376C12.708 9.71687 12.7092 10.0648 12.6855 10.3545C12.6608 10.6574 12.603 10.9955 12.4326 11.3301C12.1907 11.8047 11.8046 12.1906 11.3301 12.4326C10.9954 12.6031 10.6574 12.6608 10.3545 12.6856C10.0648 12.7092 9.71698 12.708 9.34375 12.708H5.36426C4.99084 12.708 4.6424 12.7092 4.35254 12.6856C4.0496 12.6608 3.71257 12.6031 3.37793 12.4326C2.90299 12.1906 2.5165 11.805 2.27441 11.3301C2.10396 10.9954 2.04624 10.6574 2.02148 10.3545C1.99784 10.0648 1.99902 9.71688 1.99902 9.34376V5.36427C1.99902 4.99095 1.99781 4.64233 2.02148 4.35255C2.04627 4.04975 2.10403 3.71239 2.27441 3.37794L2.37207 3.20411C2.61467 2.80874 2.96233 2.48618 3.37793 2.27442L3.50293 2.21583C3.79585 2.0903 4.08743 2.04317 4.35254 2.0215C4.64239 1.99783 4.99087 1.99903 5.36426 1.99903H9.34375ZM5.36426 4.24903C4.95381 4.24903 4.71313 4.25021 4.53613 4.26466C4.38938 4.27665 4.36729 4.29374 4.38965 4.28419C4.34543 4.30889 4.309 4.34552 4.28418 4.38966C4.29307 4.3685 4.27651 4.39133 4.26465 4.53614C4.25019 4.7131 4.24902 4.95392 4.24902 5.36427V9.34376C4.24902 9.75357 4.25024 9.99402 4.26465 10.1709C4.27147 10.2544 4.27996 10.2979 4.28418 10.3154C4.30942 10.3613 4.34659 10.3987 4.39258 10.4238C4.41056 10.4281 4.45374 10.4366 4.53613 10.4434C4.71313 10.4578 4.9538 10.458 5.36426 10.458H9.34375C9.75372 10.458 9.994 10.4578 10.1709 10.4434C10.2547 10.4365 10.2981 10.427 10.3154 10.4229C10.3607 10.3978 10.3978 10.3608 10.4229 10.3154C10.427 10.2978 10.4366 10.2541 10.4434 10.1709C10.4578 9.99403 10.458 9.7535 10.458 9.34376V5.36427C10.458 4.95396 10.4578 4.71309 10.4434 4.53614C10.4366 4.45391 10.428 4.41051 10.4238 4.39259C10.3989 4.34701 10.3618 4.3094 10.3164 4.28419C10.34 4.29443 10.3192 4.27678 10.1709 4.26466C9.994 4.25022 9.75376 4.24904 9.34375 4.24903H5.36426Z" fill="#0F0F0F"/>
<path d="M22.6367 1.99903C23.01 1.99903 23.3577 1.99782 23.6475 2.0215C23.9126 2.04316 24.2041 2.09027 24.4971 2.21583L24.623 2.27442L24.7969 2.37208C25.1921 2.61461 25.5139 2.96252 25.7256 3.37794C25.896 3.71243 25.9537 4.04972 25.9785 4.35255C26.0022 4.64233 26.001 4.99095 26.001 5.36427V9.34376C26.001 9.71688 26.0022 10.0648 25.9785 10.3545C25.9538 10.6574 25.896 10.9955 25.7256 11.3301C25.4836 11.8047 25.0976 12.1906 24.623 12.4326C24.2883 12.6032 23.9504 12.6608 23.6475 12.6856C23.3577 12.7092 23.01 12.708 22.6367 12.708H18.6572C18.2838 12.708 17.9354 12.7092 17.6455 12.6856C17.3426 12.6608 17.0055 12.6031 16.6709 12.4326C16.196 12.1906 15.8095 11.805 15.5674 11.3301C15.3969 10.9954 15.3392 10.6574 15.3145 10.3545C15.2908 10.0648 15.292 9.71688 15.292 9.34376V5.36427C15.292 4.99095 15.2908 4.64233 15.3145 4.35255C15.3392 4.04975 15.397 3.7124 15.5674 3.37794L15.665 3.20411C15.9076 2.80871 16.2553 2.48619 16.6709 2.27442L16.7959 2.21583C17.0889 2.09027 17.3804 2.04318 17.6455 2.0215C17.9354 1.99782 18.2838 1.99903 18.6572 1.99903H22.6367ZM18.6572 4.24903C18.2467 4.24903 18.0061 4.2502 17.8291 4.26466C17.6825 4.27663 17.6604 4.29366 17.6826 4.28419C17.6388 4.30868 17.6029 4.34507 17.5781 4.38868C17.5744 4.4031 17.565 4.44595 17.5576 4.53614C17.5432 4.7131 17.542 4.95392 17.542 5.36427V9.34376C17.542 9.75356 17.5432 9.99402 17.5576 10.1709C17.5646 10.2558 17.573 10.2994 17.5771 10.3164C17.6024 10.362 17.6398 10.3988 17.6855 10.4238C17.7035 10.428 17.7466 10.4366 17.8291 10.4434C18.0061 10.4578 18.2467 10.458 18.6572 10.458H22.6367C23.0468 10.458 23.287 10.4578 23.4639 10.4434C23.5477 10.4365 23.591 10.427 23.6084 10.4229C23.6538 10.3978 23.6908 10.3608 23.7158 10.3154C23.72 10.2978 23.7295 10.2542 23.7363 10.1709C23.7507 9.99403 23.751 9.75351 23.751 9.34376V5.36427C23.751 4.95396 23.7508 4.71309 23.7363 4.53614C23.7296 4.45391 23.721 4.41051 23.7168 4.39259C23.6918 4.347 23.6548 4.30939 23.6094 4.28419C23.6331 4.29451 23.6124 4.2768 23.4639 4.26466C23.287 4.25022 23.0468 4.24903 22.6367 4.24903H18.6572Z" fill="#0F0F0F"/>
</svg>
