<svg width="20" height="20" viewBox="0 0 20 20" fill="none" xmlns="http://www.w3.org/2000/svg">
<path d="M6.17578 10.7061C6.55312 10.7061 6.8888 10.7059 7.16602 10.7285C7.45355 10.752 7.75521 10.8045 8.04883 10.9541C8.4767 11.1722 8.82492 11.5203 9.04297 11.9482C9.19247 12.2417 9.24505 12.5427 9.26855 12.8301C9.29121 13.1074 9.29102 13.4438 9.29102 13.8213V14.8809C9.29102 15.2584 9.2912 15.5948 9.26855 15.8721C9.24507 16.1595 9.19239 16.4604 9.04297 16.7539C8.82496 17.1818 8.47662 17.5299 8.04883 17.748C7.75522 17.8976 7.45354 17.9511 7.16602 17.9746C6.88881 17.9972 6.55309 17.9961 6.17578 17.9961H5.11523C4.73768 17.9961 4.40135 17.9973 4.12402 17.9746C3.83652 17.9511 3.53577 17.8976 3.24219 17.748C2.81417 17.5299 2.46614 17.1819 2.24805 16.7539C2.09853 16.4603 2.04595 16.1595 2.02246 15.8721C1.99981 15.5948 2 15.2584 2 14.8809V13.8213C2 13.4438 1.9998 13.1074 2.02246 12.8301C2.04597 12.5426 2.0985 12.2417 2.24805 11.9482C2.46616 11.5203 2.8142 11.1722 3.24219 10.9541C3.5357 10.8046 3.83659 10.752 4.12402 10.7285C4.40135 10.7059 4.73769 10.7061 5.11523 10.7061H6.17578ZM5.11523 12.4561C4.70885 12.4561 4.45614 12.4572 4.2666 12.4727C4.09068 12.487 4.04426 12.51 4.03711 12.5137C3.93839 12.564 3.85796 12.6445 3.80762 12.7432C3.80425 12.7498 3.7811 12.7955 3.7666 12.9727C3.75112 13.1622 3.75 13.4149 3.75 13.8213V14.8809C3.75 15.2872 3.75113 15.54 3.7666 15.7295C3.78118 15.9079 3.80446 15.9538 3.80762 15.96C3.85796 16.0586 3.93845 16.1392 4.03711 16.1895C4.04478 16.1933 4.0919 16.2162 4.2666 16.2305C4.45615 16.2459 4.70883 16.2461 5.11523 16.2461H6.17578C6.58176 16.2461 6.83398 16.2459 7.02344 16.2305C7.20093 16.216 7.24737 16.1928 7.25391 16.1895C7.35254 16.1392 7.43308 16.0586 7.4834 15.96C7.48673 15.9534 7.5099 15.9071 7.52441 15.7295C7.53988 15.54 7.54102 15.2871 7.54102 14.8809V13.8213C7.54102 13.4149 7.5399 13.1622 7.52441 12.9727C7.51003 12.7969 7.48704 12.7503 7.4834 12.7432C7.43309 12.6445 7.3526 12.564 7.25391 12.5137C7.24808 12.5107 7.2027 12.4873 7.02344 12.4727C6.83397 12.4572 6.5818 12.4561 6.17578 12.4561H5.11523Z" fill="#0F0F0F"/>
<path d="M12.2646 15.5C12.7836 15.5 13.204 15.9205 13.2041 16.4395C13.2041 16.9584 12.7836 17.3789 12.2646 17.3789C11.7457 17.3789 11.3252 16.9584 11.3252 16.4395C11.3253 15.9205 11.7457 15.5 12.2646 15.5Z" fill="#0F0F0F"/>
<path d="M16.4395 15.5C16.9582 15.5002 17.3788 15.9206 17.3789 16.4395C17.3789 16.9583 16.9583 17.3787 16.4395 17.3789C15.9205 17.3789 15.499 16.9584 15.499 16.4395C15.4991 15.9205 15.9205 15.5 16.4395 15.5Z" fill="#0F0F0F"/>
<path d="M14.3506 13.4111C14.8695 13.4111 15.2899 13.8317 15.29 14.3506C15.29 14.8696 14.8696 15.291 14.3506 15.291C13.8317 15.2909 13.4111 14.8695 13.4111 14.3506C13.4113 13.8318 13.8318 13.4112 14.3506 13.4111Z" fill="#0F0F0F"/>
<path d="M12.2646 11.3232C12.7836 11.3233 13.2041 11.7437 13.2041 12.2627C13.2041 12.7816 12.7836 13.2021 12.2646 13.2021C11.7457 13.2021 11.3252 12.7816 11.3252 12.2627C11.3252 11.7437 11.7457 11.3232 12.2646 11.3232Z" fill="#0F0F0F"/>
<path d="M16.4326 11.3232C16.9516 11.3232 17.3721 11.7437 17.3721 12.2627C17.372 12.7816 16.9516 13.2021 16.4326 13.2021C15.9137 13.2021 15.4932 12.7816 15.4932 12.2627C15.4932 11.7437 15.9137 11.3233 16.4326 11.3232Z" fill="#0F0F0F"/>
<path d="M6.17578 2C6.55312 2 6.8888 1.99983 7.16602 2.02246C7.45354 2.04596 7.75523 2.09845 8.04883 2.24805C8.47665 2.46618 8.82495 2.8143 9.04297 3.24219C9.19239 3.53563 9.24506 3.83666 9.26855 4.12402C9.29119 4.40132 9.29102 4.73777 9.29102 5.11523V6.1748C9.29102 6.55228 9.29121 6.88874 9.26855 7.16602C9.24506 7.45339 9.19241 7.7544 9.04297 8.04785C8.82492 8.47569 8.47664 8.8239 8.04883 9.04199C7.75522 9.19159 7.45354 9.24506 7.16602 9.26855C6.88881 9.29118 6.55309 9.29004 6.17578 9.29004H5.11523C4.7377 9.29004 4.40135 9.2912 4.12402 9.26855C3.83658 9.24506 3.53571 9.1915 3.24219 9.04199C2.81426 8.82392 2.46615 8.47576 2.24805 8.04785C2.09854 7.75436 2.04596 7.45343 2.02246 7.16602C1.99981 6.88874 2 6.55229 2 6.1748V5.11523C2 4.73776 1.99982 4.40132 2.02246 4.12402C2.04596 3.83659 2.09854 3.53569 2.24805 3.24219C2.46615 2.81415 2.81415 2.46616 3.24219 2.24805C3.53575 2.09847 3.83653 2.04597 4.12402 2.02246C4.40136 1.99981 4.73768 2 5.11523 2H6.17578ZM5.11523 3.75C4.70882 3.75 4.45615 3.75112 4.2666 3.7666C4.08932 3.7811 4.04371 3.80425 4.03711 3.80762C3.93834 3.85795 3.85795 3.93833 3.80762 4.03711C3.80394 4.04434 3.78097 4.09087 3.7666 4.2666C3.75114 4.45613 3.75 4.70896 3.75 5.11523V6.1748C3.75 6.58106 3.75112 6.83393 3.7666 7.02344C3.78126 7.20253 3.80465 7.24808 3.80762 7.25391C3.85797 7.35239 3.93854 7.43318 4.03711 7.4834C4.04533 7.48755 4.09325 7.51024 4.2666 7.52441C4.45614 7.53989 4.70886 7.54004 5.11523 7.54004H6.17578C6.58176 7.54004 6.83398 7.53986 7.02344 7.52441C7.20072 7.50992 7.24728 7.48678 7.25391 7.4834C7.35256 7.43313 7.43305 7.35251 7.4834 7.25391C7.48637 7.24808 7.50976 7.20255 7.52441 7.02344C7.53989 6.83394 7.54102 6.58104 7.54102 6.1748V5.11523C7.54102 4.70897 7.53988 4.45613 7.52441 4.2666C7.5102 4.09279 7.48745 4.04513 7.4834 4.03711C7.43312 3.93843 7.35254 3.85796 7.25391 3.80762C7.24808 3.80465 7.20267 3.78126 7.02344 3.7666C6.83397 3.75115 6.5818 3.75 6.17578 3.75H5.11523Z" fill="#0F0F0F"/>
<path d="M14.8828 2C15.26 2 15.5959 1.99984 15.873 2.02246C16.1605 2.04598 16.4624 2.09851 16.7559 2.24805C17.1835 2.46619 17.532 2.8144 17.75 3.24219C17.8994 3.53558 17.9521 3.83671 17.9756 4.12402C17.9982 4.40131 17.998 4.73778 17.998 5.11523V6.1748C17.998 6.55228 17.9982 6.88874 17.9756 7.16602C17.9521 7.4534 17.8995 7.75439 17.75 8.04785C17.532 8.47567 17.1836 8.82386 16.7559 9.04199C16.4624 9.19153 16.1605 9.24504 15.873 9.26855C15.5959 9.29117 15.26 9.29004 14.8828 9.29004H13.8223C13.4449 9.29004 13.1083 9.29117 12.8311 9.26855C12.5437 9.24507 12.2426 9.19139 11.9492 9.04199C11.5213 8.82395 11.1732 8.47569 10.9551 8.04785C10.8056 7.75437 10.753 7.45342 10.7295 7.16602C10.7068 6.88874 10.707 6.55229 10.707 6.1748V5.11523C10.707 4.73775 10.7069 4.40133 10.7295 4.12402C10.753 3.83654 10.8055 3.53574 10.9551 3.24219C11.1732 2.81414 11.5212 2.46616 11.9492 2.24805C12.2427 2.09857 12.5437 2.04596 12.8311 2.02246C13.1083 1.99984 13.4449 2 13.8223 2H14.8828ZM13.8223 3.75C13.4161 3.75 13.1631 3.75115 12.9736 3.7666C12.7986 3.78092 12.7516 3.80381 12.7441 3.80762C12.6454 3.85795 12.565 3.93832 12.5146 4.03711C12.5112 4.04383 12.4881 4.08962 12.4736 4.2666C12.4582 4.45613 12.457 4.70894 12.457 5.11523V6.1748C12.457 6.58106 12.4582 6.83393 12.4736 7.02344C12.4883 7.20251 12.5117 7.24808 12.5146 7.25391C12.565 7.35232 12.6456 7.4332 12.7441 7.4834C12.7532 7.48791 12.8022 7.5104 12.9736 7.52441C13.1631 7.53986 13.4161 7.54004 13.8223 7.54004H14.8828C15.2886 7.54004 15.5411 7.53986 15.7305 7.52441C15.9077 7.5099 15.9544 7.48673 15.9609 7.4834C16.0595 7.4331 16.1401 7.35248 16.1904 7.25391C16.1934 7.24808 16.2168 7.20258 16.2314 7.02344C16.2469 6.83394 16.248 6.58104 16.248 6.1748V5.11523C16.248 4.70899 16.2469 4.45612 16.2314 4.2666C16.2173 4.09382 16.1947 4.04555 16.1904 4.03711C16.1402 3.93853 16.0594 3.85797 15.9609 3.80762C15.9551 3.80465 15.9094 3.78126 15.7305 3.7666C15.5411 3.75115 15.2886 3.75 14.8828 3.75H13.8223Z" fill="#0F0F0F"/>
</svg>
