<svg width="16" height="16" viewBox="0 0 16 16" fill="none" xmlns="http://www.w3.org/2000/svg">
<path d="M4.88574 8.56885C5.21105 8.56885 5.49332 8.56856 5.72461 8.5874C5.96327 8.6069 6.20351 8.65039 6.43457 8.76807C6.77784 8.94302 7.05748 9.22167 7.23242 9.56494C7.35017 9.79607 7.3926 10.0362 7.41211 10.2749C7.43099 10.5063 7.43066 10.7882 7.43066 11.1138V11.4536C7.43067 11.779 7.43101 12.0612 7.41211 12.2925C7.39259 12.5309 7.34995 12.7706 7.23242 13.0015C7.05745 13.3446 6.7778 13.6244 6.43457 13.7993C6.20359 13.9169 5.96319 13.9605 5.72461 13.98C5.49333 13.9988 5.21102 13.9985 4.88574 13.9985H4.54688C4.22145 13.9985 3.93931 13.9989 3.70801 13.98C3.4694 13.9605 3.22904 13.917 2.99805 13.7993C2.65492 13.6243 2.37605 13.3447 2.20117 13.0015C2.08352 12.7705 2.04003 12.531 2.02051 12.2925C2.00161 12.0612 2.00195 11.779 2.00195 11.4536V11.1138C2.00195 10.7883 2.00164 10.5063 2.02051 10.2749C2.04 10.0363 2.08357 9.79595 2.20117 9.56494C2.376 9.22205 2.65522 8.94299 2.99805 8.76807C3.22902 8.65038 3.46942 8.60693 3.70801 8.5874C3.93931 8.56851 4.22144 8.56885 4.54688 8.56885H4.88574ZM4.54688 9.81885C4.20085 9.81885 3.97823 9.81972 3.80957 9.8335C3.64862 9.84669 3.59095 9.86834 3.56543 9.88135C3.45771 9.93645 3.36945 10.0245 3.31445 10.1323C3.30141 10.1581 3.27972 10.216 3.2666 10.3765C3.25284 10.5452 3.25195 10.7677 3.25195 11.1138V11.4536C3.25195 11.7996 3.25282 12.0223 3.2666 12.1909C3.27976 12.3514 3.30144 12.4085 3.31445 12.4341C3.36951 12.5421 3.45746 12.6309 3.56543 12.686C3.59095 12.699 3.64856 12.7207 3.80957 12.7339C3.97823 12.7477 4.20085 12.7485 4.54688 12.7485H4.88574C5.23161 12.7485 5.45438 12.7476 5.62305 12.7339C5.78329 12.7208 5.84135 12.6991 5.86719 12.686C5.97523 12.631 6.06302 12.5421 6.11816 12.4341C6.13117 12.4085 6.15381 12.3516 6.16699 12.1909C6.18077 12.0223 6.18066 11.7996 6.18066 11.4536V11.1138C6.18066 10.7677 6.18076 10.5452 6.16699 10.3765C6.15381 10.2152 6.13119 10.1579 6.11816 10.1323C6.06303 10.0244 5.97521 9.9364 5.86719 9.88135C5.84151 9.86831 5.78396 9.84664 5.62305 9.8335C5.45437 9.81976 5.23166 9.81885 4.88574 9.81885H4.54688Z" fill="#0F0F0F"/>
<path d="M9.70996 12.1499C10.1051 12.1501 10.4258 12.4705 10.4258 12.8657C10.4257 13.2608 10.1051 13.5814 9.70996 13.5815C9.31473 13.5815 8.99427 13.2609 8.99414 12.8657C8.99414 12.4704 9.31465 12.1499 9.70996 12.1499Z" fill="#0F0F0F"/>
<path d="M12.8584 12.1499C13.2498 12.15 13.5674 12.4674 13.5674 12.8589C13.5672 13.2502 13.2497 13.5678 12.8584 13.5679C12.467 13.5679 12.1496 13.2502 12.1494 12.8589C12.1494 12.4674 12.4669 12.1499 12.8584 12.1499Z" fill="#0F0F0F"/>
<path d="M11.2832 10.5747C11.6747 10.5747 11.9922 10.8922 11.9922 11.2837C11.9921 11.6751 11.6746 11.9926 11.2832 11.9927C10.8918 11.9927 10.5743 11.6751 10.5742 11.2837C10.5742 10.8922 10.8917 10.5747 11.2832 10.5747Z" fill="#0F0F0F"/>
<path d="M9.70996 8.99854C10.1012 8.99878 10.4179 9.31623 10.418 9.70752C10.418 10.0988 10.1012 10.4163 9.70996 10.4165C9.31849 10.4165 9.00098 10.099 9.00098 9.70752C9.00102 9.31608 9.31851 8.99854 9.70996 8.99854Z" fill="#0F0F0F"/>
<path d="M12.8535 8.99854C13.2449 8.99857 13.5624 9.31617 13.5625 9.70752C13.5625 10.099 13.245 10.4165 12.8535 10.4165C12.462 10.4165 12.1445 10.099 12.1445 9.70752C12.1447 9.31615 12.4621 8.99854 12.8535 8.99854Z" fill="#0F0F0F"/>
<path d="M4.88574 2.00147C5.21104 2.00147 5.49332 2.00118 5.72461 2.02002C5.96321 2.03951 6.20357 2.08309 6.43457 2.20068C6.77773 2.37558 7.05747 2.65444 7.23242 2.99756C7.35016 3.22863 7.3926 3.46883 7.41211 3.70752C7.43101 3.93891 7.43066 4.22081 7.43066 4.54639V4.88623C7.43067 5.21172 7.431 5.49376 7.41211 5.7251C7.3926 5.96364 7.35001 6.20314 7.23242 6.43408C7.05746 6.77744 6.77793 7.05697 6.43457 7.23193C6.20353 7.34959 5.96325 7.3931 5.72461 7.4126C5.49332 7.43143 5.21104 7.43115 4.88574 7.43115H4.54688C4.22145 7.43115 3.93931 7.43149 3.70801 7.4126C3.46942 7.39307 3.22903 7.34962 2.99805 7.23193C2.65499 7.05694 2.37602 6.77723 2.20117 6.43408C2.0836 6.20315 2.04001 5.96363 2.02051 5.7251C2.00162 5.49377 2.00195 5.21169 2.00195 4.88623V4.54639C2.00195 4.22082 2.00161 3.9389 2.02051 3.70752C2.04002 3.46883 2.08345 3.22864 2.20117 2.99756C2.37603 2.6546 2.65513 2.37561 2.99805 2.20068C3.22904 2.08299 3.46941 2.03955 3.70801 2.02002C3.93931 2.00113 4.22144 2.00146 4.54688 2.00147H4.88574ZM4.54688 3.25147C4.20085 3.25147 3.97823 3.25233 3.80957 3.26611C3.64859 3.27931 3.59095 3.30096 3.56543 3.31397C3.45763 3.36906 3.36948 3.4571 3.31445 3.56494C3.30144 3.59051 3.27979 3.64797 3.2666 3.80908C3.25282 3.97779 3.25195 4.20018 3.25195 4.54639V4.88623C3.25195 5.23221 3.25284 5.45488 3.2666 5.62354C3.27971 5.7835 3.30141 5.84091 3.31445 5.8667C3.36947 5.97468 3.45753 6.0635 3.56543 6.11865C3.59095 6.13166 3.64859 6.15331 3.80957 6.1665C3.97823 6.18028 4.20085 6.18115 4.54688 6.18115H4.88574C5.23164 6.18115 5.45438 6.18024 5.62305 6.1665C5.78369 6.15338 5.84145 6.1317 5.86719 6.11865C5.97536 6.06354 6.06304 5.97486 6.11816 5.8667C6.13118 5.84113 6.15381 5.7845 6.16699 5.62354C6.18076 5.45487 6.18066 5.23226 6.18066 4.88623V4.54639C6.18066 4.20018 6.18078 3.97779 6.16699 3.80908C6.1538 3.64786 6.13118 3.59048 6.11816 3.56494C6.06302 3.45712 5.9751 3.36896 5.86719 3.31397C5.84141 3.30092 5.78356 3.27923 5.62305 3.26611C5.45438 3.25238 5.23164 3.25147 4.88574 3.25147H4.54688Z" fill="#0F0F0F"/>
<path d="M11.4531 2.00147C11.7786 2.00147 12.0606 2.00116 12.292 2.02002C12.5307 2.03952 12.7709 2.08298 13.002 2.20068C13.3452 2.3756 13.6249 2.65438 13.7998 2.99756C13.9175 3.22864 13.96 3.46883 13.9795 3.70752C13.9984 3.93891 13.998 4.22081 13.998 4.54639V4.88623C13.998 5.21171 13.9984 5.49376 13.9795 5.7251C13.96 5.96362 13.9174 6.20316 13.7998 6.43408C13.6248 6.77747 13.3453 7.05696 13.002 7.23193C12.7708 7.34969 12.5307 7.39309 12.292 7.4126C12.0606 7.43146 11.7786 7.43115 11.4531 7.43115H11.1143C10.7887 7.43115 10.5068 7.43149 10.2754 7.4126C10.0367 7.39309 9.79652 7.34968 9.56543 7.23193C9.22225 7.05695 8.94344 6.77732 8.76856 6.43408C8.65093 6.2031 8.6074 5.96368 8.58789 5.7251C8.569 5.49377 8.56934 5.2117 8.56934 4.88623V4.54639C8.56934 4.22082 8.56899 3.9389 8.58789 3.70752C8.6074 3.46882 8.65081 3.22865 8.76856 2.99756C8.94346 2.65455 9.22241 2.37558 9.56543 2.20068C9.79653 2.08293 10.0367 2.03953 10.2754 2.02002C10.5068 2.00112 10.7887 2.00147 11.1143 2.00147H11.4531ZM11.1143 3.25147C10.768 3.25147 10.5457 3.25233 10.377 3.26611C10.2157 3.27931 10.1584 3.30095 10.1328 3.31397C10.0249 3.36904 9.93692 3.45704 9.88184 3.56494C9.86882 3.59048 9.84718 3.64786 9.83398 3.80908C9.8202 3.97779 9.81934 4.20018 9.81934 4.54639V4.88623C9.81934 5.23223 9.82022 5.45487 9.83398 5.62354C9.84711 5.78379 9.8688 5.84098 9.88184 5.8667C9.9369 5.97477 10.0248 6.06351 10.1328 6.11865C10.1584 6.13167 10.2157 6.15331 10.377 6.1665C10.5457 6.18029 10.768 6.18115 11.1143 6.18115H11.4531C11.7993 6.18115 12.0217 6.18027 12.1904 6.1665C12.3516 6.15333 12.409 6.13168 12.4346 6.11865C12.5428 6.06353 12.6304 5.97489 12.6855 5.8667C12.6986 5.84109 12.7212 5.78434 12.7344 5.62354C12.7481 5.45487 12.748 5.23224 12.748 4.88623V4.54639C12.748 4.20018 12.7482 3.97779 12.7344 3.80908C12.7212 3.64784 12.6986 3.59048 12.6855 3.56494C12.6304 3.45706 12.5425 3.36899 12.4346 3.31397C12.4089 3.30093 12.3515 3.27927 12.1904 3.26611C12.0217 3.25235 11.7993 3.25147 11.4531 3.25147H11.1143Z" fill="#0F0F0F"/>
</svg>
