<svg width="25" height="24" viewBox="0 0 25 24" fill="none" xmlns="http://www.w3.org/2000/svg">
<path d="M10.3069 9.91674C10.9291 9.91696 11.4221 10.4139 11.4223 11.0133C11.4221 11.6126 10.9291 12.1104 10.3069 12.1107C9.68459 12.1107 9.19094 11.6128 9.1907 11.0133C9.19078 10.8183 9.24378 10.6338 9.33559 10.474L9.34159 10.4629L9.34245 10.462C9.53479 10.1374 9.89238 9.91674 10.3069 9.91674Z" fill="#919191"/>
<path fill-rule="evenodd" clip-rule="evenodd" d="M13.4276 2.45367C15.2476 2.45366 16.6812 2.45403 17.8009 2.60456C18.9495 2.75904 19.866 3.08279 20.5872 3.80397C21.3082 4.52513 21.6321 5.4418 21.7866 6.5903C21.9371 7.70987 21.9375 9.14384 21.9375 10.9635V11.063C21.9375 12.8827 21.9371 14.3167 21.7866 15.4362C21.6321 16.5847 21.3083 17.5015 20.5872 18.2226C20.0475 18.7622 19.3979 19.0784 18.6239 19.2685C18.631 19.2668 18.6383 19.266 18.6453 19.2642V20.6694C18.6453 21.1542 18.2523 21.5473 17.7674 21.5473C17.2826 21.5473 16.8896 21.1542 16.8895 20.6694V19.5094C16.8927 19.5092 16.8958 19.5088 16.899 19.5086C15.9386 19.5721 14.7917 19.5729 13.4276 19.5729H11.5724C10.2079 19.5729 9.06075 19.5721 8.10018 19.5086C8.1036 19.5088 8.10703 19.5092 8.11047 19.5094V20.6694C8.11041 21.1542 7.71738 21.5473 7.23256 21.5473C6.74774 21.5473 6.3547 21.1542 6.35465 20.6694V19.2642C6.36144 19.2659 6.36842 19.2668 6.37523 19.2685C5.60162 19.0784 4.9523 18.762 4.4128 18.2226C3.6917 17.5015 3.36789 16.5847 3.21339 15.4362C3.06287 14.3167 3.06249 12.8827 3.0625 11.063V10.9635C3.06249 9.14384 3.06292 7.70987 3.21339 6.5903C3.36785 5.4418 3.69176 4.52513 4.4128 3.80397C5.13397 3.08279 6.05053 2.75904 7.19912 2.60456C8.31876 2.45403 9.75244 2.45366 11.5724 2.45367H13.4276ZM10.3061 6.84407C9.94261 6.84425 9.64766 7.13897 9.64766 7.5025V8.68904C9.25167 8.7995 8.89575 9.00724 8.60857 9.28489L7.56092 8.68647C7.24532 8.50613 6.84296 8.61538 6.66243 8.93081C6.48227 9.24649 6.59201 9.64894 6.90763 9.82929L7.94671 10.4234C7.89915 10.6118 7.87388 10.8098 7.87384 11.0133C7.87388 11.2168 7.89909 11.4155 7.94671 11.604L6.90677 12.1981C6.59149 12.3787 6.48212 12.781 6.66243 13.0966C6.84302 13.4117 7.24547 13.521 7.56092 13.3409L8.60857 12.7425C8.89574 13.0201 9.25172 13.2279 9.64766 13.3384V14.5249C9.64789 14.8882 9.94275 15.1831 10.3061 15.1833C10.6696 15.1833 10.9643 14.8883 10.9645 14.5249V13.3384C11.3606 13.2279 11.7172 13.0202 12.0045 12.7425L13.0521 13.3409C13.3676 13.5211 13.77 13.4117 13.9506 13.0966C14.1309 12.7811 14.0215 12.3787 13.7063 12.1981L12.6655 11.604C12.7131 11.4155 12.7392 11.2168 12.7392 11.0133C12.7392 10.8098 12.713 10.6118 12.6655 10.4234L13.7054 9.82929C14.021 9.64894 14.1308 9.24649 13.9506 8.93081C13.7701 8.61536 13.3677 8.50612 13.0521 8.68647L12.0045 9.28489C11.7172 9.00713 11.3607 8.79949 10.9645 8.68904V7.5025C10.9645 7.13886 10.6697 6.84407 10.3061 6.84407ZM17.2007 6.92037C16.8796 6.74991 16.4805 6.87268 16.31 7.19386C16.1401 7.51492 16.2625 7.91341 16.5835 8.08377C16.8528 8.22682 16.9561 8.37556 17.0216 8.63417C17.1063 8.96913 17.1116 9.43491 17.1116 10.2185V11.8097C17.1116 12.593 17.1063 13.0584 17.0216 13.3932C16.956 13.6516 16.8527 13.8006 16.5835 13.9436C16.2624 14.1142 16.1395 14.5133 16.31 14.8344C16.4805 15.1553 16.8797 15.2773 17.2007 15.107C17.8089 14.7842 18.1441 14.324 18.2981 13.7164C18.4282 13.2026 18.4286 12.5686 18.4284 11.88V10.1474C18.4286 9.45883 18.4282 8.82483 18.2981 8.31096C18.1442 7.70324 17.8089 7.24326 17.2007 6.92037Z" fill="#919191"/>
</svg>
