<svg width="16" height="16" viewBox="0 0 16 16" fill="none" xmlns="http://www.w3.org/2000/svg">
<path d="M8.00194 2C8.34688 2.00028 8.62694 2.27999 8.62694 2.625V3.2793L8.88475 3.02734C9.13122 2.78571 9.52786 2.78969 9.76952 3.03613C10.0108 3.28256 10.0069 3.67834 9.76073 3.91992L8.62694 5.03027V6.92871L10.3242 5.96777L10.7392 4.4502C10.8306 4.11776 11.1741 3.92181 11.5068 4.0127C11.8393 4.10384 12.0349 4.44763 11.9443 4.78027L11.8564 5.10059L12.5703 4.69727C12.8707 4.52727 13.2519 4.6332 13.4219 4.93359C13.5918 5.23398 13.4859 5.61516 13.1855 5.78516L12.5039 6.16992L12.8223 6.25391C13.1556 6.34163 13.3546 6.68313 13.2676 7.0166C13.18 7.35036 12.8386 7.5503 12.5049 7.46289L10.9433 7.05273L9.26854 8L10.9443 8.94824L12.5049 8.53906C12.8386 8.45165 13.18 8.65159 13.2676 8.98535C13.3546 9.31882 13.1556 9.66033 12.8223 9.74805L12.5039 9.83105L13.1855 10.2168C13.4858 10.3868 13.5917 10.768 13.4219 11.0684C13.2518 11.3687 12.8707 11.4747 12.5703 11.3047L11.8564 10.9004L11.9443 11.2217C12.0349 11.5543 11.8393 11.8981 11.5068 11.9893C11.1742 12.0801 10.8306 11.8842 10.7392 11.5518L10.3242 10.0332L8.62694 9.07227V10.9707L9.76073 12.082C10.0068 12.3237 10.0109 12.7194 9.76952 12.9658C9.52787 13.2123 9.13123 13.2163 8.88475 12.9746L8.62694 12.7207V13.3779C8.62666 13.7227 8.34671 14.0027 8.00194 14.0029C7.65698 14.0029 7.37722 13.7228 7.37694 13.3779V12.7188L7.11717 12.9746C6.87072 13.2161 6.475 13.2122 6.23338 12.9658C5.99199 12.7193 5.99585 12.3236 6.24217 12.082L7.37694 10.9688V9.07227L5.68065 10.0322L5.26561 11.5518C5.1745 11.8841 4.83056 12.0796 4.49803 11.9893C4.16516 11.8983 3.9688 11.5546 4.05956 11.2217L4.14647 10.8994L3.4326 11.3047C3.13222 11.4746 2.75104 11.3687 2.58104 11.0684C2.4113 10.768 2.51708 10.3867 2.81737 10.2168L3.49901 9.83008L3.1826 9.74805C2.84898 9.66048 2.64917 9.31899 2.73631 8.98535C2.82391 8.65163 3.16528 8.45171 3.49901 8.53906L5.0576 8.94727L6.73143 8L5.05858 7.05273L3.49901 7.46289C3.16528 7.55024 2.82391 7.35033 2.73631 7.0166C2.64915 6.68295 2.84897 6.34147 3.1826 6.25391L3.49803 6.16992L2.81737 5.78516C2.51703 5.61518 2.41118 5.23397 2.58104 4.93359C2.75102 4.63325 3.13223 4.52739 3.4326 4.69727L4.14647 5.10059L4.05956 4.78027C3.96879 4.44739 4.16515 4.10363 4.49803 4.0127C4.83057 3.92234 5.17451 4.11782 5.26561 4.4502L5.67967 5.96875L7.37694 6.92871V5.03223L6.24217 3.91992C5.99581 3.67834 5.99198 3.28262 6.23338 3.03613C6.47502 2.78969 6.8707 2.78575 7.11717 3.02734L7.37694 3.28125V2.625C7.37694 2.27985 7.65681 2.00005 8.00194 2Z" fill="#0F0F0F"/>
</svg>
