<svg width="12" height="12" viewBox="0 0 12 12" fill="none" xmlns="http://www.w3.org/2000/svg">
<path d="M5.99906 1C6.27506 1.00001 6.49884 1.22406 6.49906 1.5V2.08887L6.73051 1.85742C6.92576 1.66235 7.24232 1.66227 7.43754 1.85742C7.6325 2.05264 7.63257 2.36925 7.43754 2.56445L6.49906 3.50293V5.13379L7.91215 4.31738L8.2559 3.03711C8.32749 2.77082 8.60177 2.61155 8.86821 2.68262C9.13442 2.75409 9.29343 3.0286 9.2227 3.29492L9.13774 3.61035L9.74906 3.25781C9.9882 3.11974 10.2946 3.2013 10.4327 3.44043C10.5703 3.67948 10.488 3.98506 10.2491 4.12305L9.63676 4.47559L9.95219 4.56055C10.2186 4.63207 10.3768 4.90637 10.3057 5.17285C10.2341 5.4392 9.95988 5.59754 9.6934 5.52637L8.41215 5.18262L6.99809 5.99902L8.41117 6.81445L9.6934 6.47168C9.95995 6.40059 10.2343 6.55966 10.3057 6.82617C10.3769 7.09266 10.2185 7.36687 9.95219 7.43848L9.63676 7.52246L10.2491 7.87598C10.4879 8.01413 10.5706 8.32055 10.4327 8.55957C10.2946 8.79848 9.9881 8.87999 9.74906 8.74219L9.13774 8.38965L9.2227 8.70312C9.29384 8.96959 9.13454 9.24383 8.86821 9.31543C8.60169 9.38654 8.3274 9.22834 8.2559 8.96191L7.91313 7.68164L6.49906 6.86523V8.49609L7.43754 9.43457C7.63246 9.62978 7.63246 9.94642 7.43754 10.1416C7.24232 10.3368 6.92575 10.3367 6.73051 10.1416L6.49906 9.91016V10.498C6.49906 10.7742 6.27519 10.998 5.99906 10.998C5.72305 10.9979 5.49906 10.7741 5.49906 10.498V9.91211L5.26957 10.1416C5.07441 10.3368 4.75785 10.3366 4.56254 10.1416C4.36745 9.94636 4.36738 9.6298 4.56254 9.43457L5.49906 8.49805V6.86523L4.085 7.68164L3.7432 8.96191C3.67158 9.22831 3.39743 9.38671 3.1309 9.31543C2.86449 9.24388 2.70621 8.96964 2.77738 8.70312L2.86039 8.38867L2.25004 8.74219C2.01109 8.88016 1.70567 8.79826 1.56742 8.55957C1.42933 8.32043 1.5109 8.01406 1.75004 7.87598L2.36137 7.52246L2.04789 7.43848C1.78131 7.36709 1.6223 7.09276 1.6934 6.82617C1.7649 6.55977 2.03921 6.40061 2.3057 6.47168L3.58695 6.81445L4.99906 5.99902L3.58598 5.18262L2.3057 5.52637C2.03919 5.59746 1.7649 5.43928 1.6934 5.17285C1.62219 4.90621 1.78126 4.63195 2.04789 4.56055L2.36137 4.47559L1.75004 4.12305C1.51106 3.98495 1.42949 3.6795 1.56742 3.44043C1.70555 3.2014 2.01095 3.11975 2.25004 3.25781L2.86137 3.61035L2.77738 3.29492C2.70652 3.02854 2.86462 2.75411 3.1309 2.68262C3.39744 2.61143 3.67167 2.77067 3.7432 3.03711L4.08598 4.31641L5.49906 5.13281V3.50098L4.56254 2.56445C4.36733 2.36918 4.3673 2.05265 4.56254 1.85742C4.75782 1.66228 5.07436 1.66221 5.26957 1.85742L5.49906 2.08691V1.5C5.49929 1.22414 5.72318 1.00015 5.99906 1Z" fill="#0F0F0F"/>
</svg>
