<svg width="20" height="20" viewBox="0 0 20 20" fill="none" xmlns="http://www.w3.org/2000/svg">
<path d="M10.0011 2.5C10.4149 2.50024 10.7509 2.83611 10.7511 3.25V4.18066L11.1749 3.77441C11.4736 3.48781 11.9486 3.49748 12.2354 3.7959C12.5221 4.0946 12.5124 4.56958 12.2139 4.85645L10.7511 6.25977V8.72461L13.0245 7.46387L13.5597 5.54785C13.6712 5.14923 14.0847 4.91518 14.4835 5.02637C14.882 5.13773 15.1148 5.55155 15.004 5.9502L14.8653 6.44336L15.8878 5.87793C16.2499 5.67781 16.7066 5.80896 16.9073 6.1709C17.1077 6.53284 16.9768 6.98943 16.6153 7.19043L15.672 7.71191L16.1632 7.83887C16.5639 7.94204 16.8057 8.35115 16.7032 8.75195C16.6002 9.15291 16.1911 9.39467 15.7901 9.29199L13.7618 8.77051L11.547 9.99707L13.7647 11.2256L15.7901 10.7061C16.1911 10.6034 16.6002 10.8452 16.7032 11.2461C16.8059 11.647 16.5639 12.056 16.1632 12.1592L15.6729 12.2842L16.6153 12.8066C16.9768 13.0076 17.1075 13.4642 16.9073 13.8262C16.7065 14.1882 16.2499 14.3186 15.8878 14.1182L14.8653 13.5508L15.004 14.0479C15.1149 14.4465 14.8821 14.8603 14.4835 14.9717C14.0847 15.0829 13.6711 14.8489 13.5597 14.4502L13.0235 12.5303L10.7511 11.2705V13.7354L12.2139 15.1396C12.5125 15.4264 12.522 15.9014 12.2354 16.2002C11.9486 16.4989 11.4737 16.5085 11.1749 16.2217L10.7511 15.8145V16.7461C10.7511 17.1602 10.4151 17.4958 10.0011 17.4961C9.58685 17.4961 9.25106 17.1603 9.25106 16.7461V15.8135L8.82625 16.2217C8.5275 16.5085 8.05259 16.4989 7.7657 16.2002C7.47919 15.9014 7.48855 15.4264 7.78719 15.1396L9.25106 13.7344V11.2715L6.9786 12.5303L6.44344 14.4502C6.33208 14.8488 5.91835 15.0826 5.51961 14.9717C5.12084 14.8604 4.88724 14.4466 4.99813 14.0479L5.13582 13.5508L4.11434 14.1182C3.75214 14.3188 3.29465 14.1883 3.09383 13.8262C2.89345 13.464 3.02566 13.0073 3.38778 12.8066L4.32918 12.2842L3.83992 12.1592C3.4389 12.0561 3.19708 11.6471 3.29988 11.2461C3.403 10.845 3.81187 10.6031 4.21297 10.7061L6.23836 11.2256L8.4532 9.99805L6.23934 8.77051L4.21297 9.29199C3.81187 9.39498 3.403 9.15304 3.29988 8.75195C3.19723 8.351 3.43898 7.94192 3.83992 7.83887L4.33016 7.71191L3.38778 7.19043C3.0256 6.9897 2.8933 6.53313 3.09383 6.1709C3.29462 5.80887 3.75216 5.67744 4.11434 5.87793L5.13582 6.44336L4.99813 5.9502C4.88739 5.55148 5.12092 5.13759 5.51961 5.02637C5.91827 4.91548 6.33201 5.14932 6.44344 5.54785L6.9786 7.46484L9.25106 8.72461V6.26074L7.78719 4.85645C7.48874 4.56953 7.47893 4.09457 7.7657 3.7959C8.05251 3.49741 8.52752 3.4879 8.82625 3.77441L9.25106 4.18164V3.25C9.25126 2.83596 9.58697 2.5 10.0011 2.5Z" fill="#0F0F0F"/>
</svg>
