<svg width="28" height="28" viewBox="0 0 28 28" fill="none" xmlns="http://www.w3.org/2000/svg">
<path d="M13.9993 2C14.6894 2.00029 15.2493 2.55982 15.2493 3.25V4.55957L15.7659 4.05371C16.2588 3.57068 17.0502 3.57868 17.5335 4.07129C18.0166 4.56423 18.0087 5.35561 17.5159 5.83887L15.2493 8.05957V11.8555L18.6399 9.93555L19.47 6.90137C19.6519 6.23549 20.3393 5.84266 21.0051 6.02441C21.671 6.20634 22.0629 6.89369 21.8811 7.55957L21.7053 8.20117L23.1331 7.39355C23.7337 7.05386 24.4961 7.26486 24.8362 7.86523C25.1758 8.46585 24.9649 9.22929 24.3645 9.56934L23.0012 10.3398L23.635 10.5068C24.3027 10.6822 24.7019 11.3655 24.5266 12.0332C24.3511 12.7006 23.6678 13.1 23.0003 12.9248L19.8821 12.1055L16.5364 13.999L19.8821 15.8926L23.0003 15.0742C23.668 14.8989 24.3513 15.2981 24.5266 15.9658C24.7017 16.6335 24.3026 17.3169 23.635 17.4922L23.0012 17.6582L24.3645 18.4297C24.9648 18.7699 25.1761 19.5332 24.8362 20.1338C24.4961 20.734 23.7336 20.9449 23.1331 20.6055L21.7053 19.7969L21.8811 20.4385C22.0628 21.1043 21.6709 21.7917 21.0051 21.9736C20.3394 22.1553 19.652 21.7633 19.47 21.0977L18.6399 18.0615L15.2493 16.1426V19.9365L17.5159 22.1582C18.0088 22.6414 18.0165 23.4328 17.5335 23.9258C17.0502 24.4186 16.2588 24.4266 15.7659 23.9434L15.2493 23.4365V24.749C15.249 25.439 14.6892 25.9987 13.9993 25.999C13.3091 25.999 12.7495 25.4392 12.7493 24.749V23.4355L12.2317 23.9434C11.7387 24.4264 10.9473 24.4187 10.4641 23.9258C9.98108 23.4329 9.98898 22.6414 10.4817 22.1582L12.7493 19.9346V16.1436L9.35572 18.0635L8.5276 21.0977C8.34549 21.7633 7.65824 22.1555 6.99244 21.9736C6.32674 21.7917 5.93482 21.1042 6.11647 20.4385L6.29029 19.7988L4.86647 20.6055C4.26592 20.9454 3.50263 20.734 3.16236 20.1338C2.82236 19.5331 3.03346 18.7698 3.63404 18.4297L4.99635 17.6582L4.36256 17.4922C3.69497 17.3169 3.29593 16.6334 3.47096 15.9658C3.64625 15.2981 4.32961 14.899 4.99733 15.0742L8.11549 15.8926L11.4612 13.999L8.11549 12.1055L4.99733 12.9248C4.3298 13.0999 3.64641 12.7006 3.47096 12.0332C3.29571 11.3656 3.69498 10.6822 4.36256 10.5068L4.99635 10.3398L3.63404 9.56934C3.03358 9.22922 2.82255 8.46588 3.16236 7.86523C3.50252 7.2647 4.26579 7.05356 4.86647 7.39355L6.29029 8.19922L6.11647 7.55957C5.93469 6.89373 6.32666 6.20639 6.99244 6.02441C7.6584 5.8425 8.34569 6.23541 8.5276 6.90137L9.35572 9.93457L12.7493 11.8545V8.06152L10.4817 5.83887C9.98904 5.35556 9.98096 4.56416 10.4641 4.07129C10.9473 3.57847 11.7387 3.57077 12.2317 4.05371L12.7493 4.56055V3.25C12.7493 2.55964 13.3089 2 13.9993 2Z" fill="#0F0F0F"/>
</svg>
