<svg width="28" height="28" viewBox="0 0 28 28" fill="none" xmlns="http://www.w3.org/2000/svg">
<path d="M13.9993 2C14.6894 2.00029 15.2493 2.55982 15.2493 3.25V4.55957L15.7659 4.05371C16.2588 3.57068 17.0503 3.57868 17.5335 4.07129C18.0167 4.56423 18.0088 5.35561 17.5159 5.83887L15.2493 8.05957V11.8555L18.64 9.93555L19.47 6.90137C19.6519 6.23549 20.3393 5.84266 21.0052 6.02441C21.6711 6.20634 22.063 6.89369 21.8812 7.55957L21.7054 8.20117L23.1331 7.39355C23.7337 7.05386 24.4962 7.26486 24.8363 7.86523C25.1758 8.46585 24.965 9.22929 24.3646 9.56934L23.0013 10.3398L23.6351 10.5068C24.3027 10.6822 24.7019 11.3655 24.5267 12.0332C24.3512 12.7006 23.6678 13.1 23.0003 12.9248L19.8822 12.1055L16.5364 13.999L19.8822 15.8926L23.0003 15.0742C23.668 14.8989 24.3514 15.2981 24.5267 15.9658C24.7018 16.6335 24.3027 17.3169 23.6351 17.4922L23.0013 17.6582L24.3646 18.4297C24.9649 18.7699 25.1762 19.5332 24.8363 20.1338C24.4962 20.734 23.7337 20.9449 23.1331 20.6055L21.7054 19.7969L21.8812 20.4385C22.0629 21.1043 21.6709 21.7917 21.0052 21.9736C20.3395 22.1553 19.6521 21.7633 19.47 21.0977L18.64 18.0615L15.2493 16.1426V19.9365L17.5159 22.1582C18.0089 22.6414 18.0166 23.4328 17.5335 23.9258C17.0502 24.4186 16.2589 24.4266 15.7659 23.9434L15.2493 23.4365V24.749C15.2491 25.439 14.6893 25.9987 13.9993 25.999C13.3091 25.999 12.7496 25.4392 12.7493 24.749V23.4355L12.2318 23.9434C11.7388 24.4264 10.9474 24.4187 10.4642 23.9258C9.98114 23.4329 9.98904 22.6414 10.4818 22.1582L12.7493 19.9346V16.1436L9.35579 18.0635L8.52766 21.0977C8.34555 21.7633 7.6583 22.1555 6.9925 21.9736C6.3268 21.7917 5.93488 21.1042 6.11653 20.4385L6.29036 19.7988L4.86653 20.6055C4.26598 20.9454 3.50269 20.734 3.16243 20.1338C2.82242 19.5331 3.03352 18.7698 3.63411 18.4297L4.99641 17.6582L4.36262 17.4922C3.69504 17.3169 3.29599 16.6334 3.47102 15.9658C3.64631 15.2981 4.32967 14.899 4.99739 15.0742L8.11555 15.8926L11.4613 13.999L8.11555 12.1055L4.99739 12.9248C4.32986 13.0999 3.64647 12.7006 3.47102 12.0332C3.29577 11.3656 3.69504 10.6822 4.36262 10.5068L4.99641 10.3398L3.63411 9.56934C3.03364 9.22922 2.82261 8.46588 3.16243 7.86523C3.50258 7.2647 4.26585 7.05356 4.86653 7.39355L6.29036 8.19922L6.11653 7.55957C5.93475 6.89373 6.32672 6.20639 6.9925 6.02441C7.65846 5.8425 8.34575 6.23541 8.52766 6.90137L9.35579 9.93457L12.7493 11.8545V8.06152L10.4818 5.83887C9.9891 5.35556 9.98102 4.56416 10.4642 4.07129C10.9474 3.57847 11.7388 3.57077 12.2318 4.05371L12.7493 4.56055V3.25C12.7493 2.55964 13.309 2 13.9993 2Z" fill="#0F0F0F"/>
</svg>
