<svg width="24" height="24" viewBox="0 0 24 24" fill="none" xmlns="http://www.w3.org/2000/svg">
<path d="M11.9998 2C12.5521 2.00006 12.9998 2.44775 12.9998 3V4.1748L13.4608 3.71387C13.8511 3.32351 14.4843 3.3237 14.8748 3.71387C15.2652 4.1043 15.2651 4.73737 14.8748 5.12793L12.9998 7.00293V10.2666L15.8279 8.63281L16.5135 6.07422C16.6564 5.54089 17.2047 5.22438 17.7381 5.36719C18.2713 5.5102 18.5879 6.05848 18.4451 6.5918L18.2762 7.21973L19.4998 6.51367C19.978 6.23773 20.5898 6.40187 20.866 6.87988C21.142 7.35808 20.9779 7.96992 20.4998 8.24609L19.2752 8.95215L19.9061 9.12207C20.4393 9.26507 20.7559 9.81333 20.6131 10.3467C20.4702 10.88 19.9219 11.1964 19.3885 11.0537L16.826 10.3672L13.9988 11.999L16.826 13.6318L19.3885 12.9463C19.9219 12.8036 20.4702 13.12 20.6131 13.6533C20.7558 14.1866 20.4393 14.7349 19.9061 14.8779L19.2752 15.0459L20.4998 15.7539C20.978 16.0301 21.1422 16.6419 20.866 17.1201C20.5899 17.5982 19.978 17.7622 19.4998 17.4863L18.2762 16.7793L18.4451 17.4082C18.5878 17.9415 18.2713 18.4898 17.7381 18.6328C17.2047 18.7756 16.6564 18.4591 16.5135 17.9258L15.8279 15.3652L12.9998 13.7324V16.9961L14.8748 18.8721C15.2651 19.2626 15.2652 19.8957 14.8748 20.2861C14.4842 20.6763 13.8511 20.6765 13.4608 20.2861L12.9998 19.8242V21C12.9998 21.5522 12.5521 21.9999 11.9998 22C11.4477 21.9998 10.9998 21.5522 10.9998 21V19.8242L10.5389 20.2861C10.1484 20.6764 9.51533 20.6764 9.12482 20.2861C8.73455 19.8957 8.73468 19.2626 9.12482 18.8721L10.9998 16.9961V13.7324L8.1717 15.3643L7.48713 17.9258C7.34426 18.4591 6.79586 18.7754 6.26252 18.6328C5.7292 18.4899 5.41272 17.9416 5.55549 17.4082L5.72346 16.7793L4.49982 17.4863C4.02164 17.7622 3.40974 17.5982 3.13361 17.1201C2.85762 16.6419 3.02176 16.0301 3.49982 15.7539L4.72346 15.0459L4.09455 14.8779C3.56116 14.735 3.2447 14.1867 3.38752 13.6533C3.53045 13.1199 4.07869 12.8034 4.61213 12.9463L7.17267 13.6318L9.99885 11.999L7.17365 10.3672L4.61213 11.0537C4.07867 11.1966 3.53043 10.8801 3.38752 10.3467C3.24465 9.81323 3.56112 9.26498 4.09455 9.12207L4.72346 8.95312L3.49982 8.24609C3.02183 7.96986 2.85763 7.35803 3.13361 6.87988C3.40974 6.4018 4.02164 6.23784 4.49982 6.51367L5.72346 7.21973L5.55549 6.5918C5.41268 6.05838 5.72916 5.51011 6.26252 5.36719C6.79585 5.22457 7.34424 5.54095 7.48713 6.07422L8.1717 8.63379L10.9998 10.2666V7.00293L9.12482 5.12793C8.73467 4.73738 8.73452 4.10425 9.12482 3.71387C9.51532 3.32361 10.1484 3.32364 10.5389 3.71387L10.9998 4.1748V3C10.9998 2.44781 11.4477 2.00015 11.9998 2Z" fill="#0F0F0F"/>
</svg>
