<svg width="12" height="12" viewBox="0 0 12 12" fill="none" xmlns="http://www.w3.org/2000/svg">
<path d="M6.00488 2.00488C6.28098 2.00488 6.50482 2.2288 6.50488 2.50488V5.5H9.5C9.77614 5.5 10 5.72386 10 6C10 6.27614 9.77614 6.5 9.5 6.5H6.50488V9.50488C6.50488 9.78103 6.28103 10.0049 6.00488 10.0049C5.7288 10.0048 5.50488 9.78098 5.50488 9.50488V6.5H2.5C2.22386 6.5 2 6.27614 2 6C2 5.72386 2.22386 5.5 2.5 5.5H5.50488V2.50488C5.50495 2.22884 5.72884 2.00495 6.00488 2.00488Z" fill="#0F0F0F"/>
</svg>
