<svg width="28" height="28" viewBox="0 0 28 28" fill="none" xmlns="http://www.w3.org/2000/svg">
<path d="M14.0049 4.75488C14.6952 4.75488 15.2548 5.31458 15.2549 6.00488V12.75H22C22.6904 12.75 23.25 13.3096 23.25 14C23.25 14.6904 22.6904 15.25 22 15.25H15.2549V22.0049C15.2549 22.6952 14.6952 23.2549 14.0049 23.2549C13.3146 23.2548 12.7549 22.6952 12.7549 22.0049V15.25H6C5.30964 15.25 4.75 14.6904 4.75 14C4.75 13.3096 5.30964 12.75 6 12.75H12.7549V6.00488C12.7549 5.31462 13.3146 4.75495 14.0049 4.75488Z" fill="#0F0F0F"/>
</svg>
