<svg width="16" height="16" viewBox="0 0 16 16" fill="none" xmlns="http://www.w3.org/2000/svg">
<path d="M8.00488 2.87988C8.35002 2.87988 8.62982 3.15976 8.62988 3.50488V7.375H12.5C12.8452 7.375 13.125 7.65482 13.125 8C13.125 8.34518 12.8452 8.625 12.5 8.625H8.62988V12.5049C8.62988 12.8501 8.35006 13.1299 8.00488 13.1299C7.65976 13.1298 7.37988 12.85 7.37988 12.5049V8.625H3.5C3.15482 8.625 2.875 8.34518 2.875 8C2.875 7.65482 3.15482 7.375 3.5 7.375H7.37988V3.50488C7.37995 3.1598 7.6598 2.87995 8.00488 2.87988Z" fill="#0F0F0F"/>
</svg>
