<svg width="25" height="24" viewBox="0 0 25 24" fill="none" xmlns="http://www.w3.org/2000/svg">
<path d="M17.4668 13.5625C17.4666 14.2695 16.8578 14.8025 16.042 14.8027C15.4436 14.8027 15.0138 14.5035 15.0137 13.9922C15.0137 13.4971 15.3669 13.2199 16.123 13.1709L17.4668 13.0781V13.5625Z" fill="#919191"/>
<path d="M9.37793 9.36719L10.4443 12.6318H8.20801L9.28516 9.36719H9.37793Z" fill="#919191"/>
<path fill-rule="evenodd" clip-rule="evenodd" d="M12.501 1.71484C17.3494 1.71484 19.774 1.71445 21.2803 3.2207C22.7865 4.72697 22.7861 7.15156 22.7861 12C22.7861 16.8487 22.7866 19.274 21.2803 20.7803C19.774 22.2865 17.3494 22.2861 12.501 22.2861C7.65224 22.2861 5.22701 22.2866 3.7207 20.7803C2.2144 19.274 2.21484 16.8487 2.21484 12C2.21484 7.15162 2.2145 4.72697 3.7207 3.2207C5.22701 1.7144 7.65224 1.71484 12.501 1.71484ZM16.4111 9.68262C14.9968 9.68274 14.0122 10.3467 13.9033 11.3857H15.1768C15.302 10.9778 15.7265 10.7549 16.3467 10.7549C17.0755 10.755 17.4668 11.0868 17.4668 11.6797V12.1914L15.9326 12.2832C14.4854 12.3648 13.6748 12.9912 13.6748 14.0576C13.675 15.1456 14.4966 15.8418 15.6445 15.8418C16.4225 15.8417 17.0754 15.5044 17.4072 14.9277H17.5V15.7441H18.7998V11.6797C18.7998 10.4229 17.94 9.68262 16.4111 9.68262ZM8.57324 7.89258L5.78711 15.7441H7.20703L7.88184 13.7148H10.7705L11.4346 15.7441H12.9414L10.1504 7.89258H8.57324Z" fill="#919191"/>
</svg>
