<svg width="20" height="20" viewBox="0 0 20 20" fill="none" xmlns="http://www.w3.org/2000/svg">
<path d="M6.57617 11.0615C7.88022 11.0617 8.93652 12.1188 8.93652 13.4229V15.6377C8.93616 16.9415 7.88 17.9978 6.57617 17.998H4.36133C3.05744 17.9979 2.00036 16.9415 2 15.6377V13.4229C2 12.1187 3.05722 11.0616 4.36133 11.0615H6.57617ZM4.36133 12.5615C3.88564 12.5616 3.5 12.9471 3.5 13.4229V15.6377C3.50036 16.1131 3.88587 16.4979 4.36133 16.498H6.57617C7.05157 16.4978 7.43616 16.1131 7.43652 15.6377V13.4229C7.43652 12.9472 7.05179 12.5617 6.57617 12.5615H4.36133Z" fill="#0F0F0F"/>
<path d="M15.6377 11.0615C16.9417 11.0618 17.998 12.1188 17.998 13.4229V15.6377C17.9977 16.9414 16.9415 17.9978 15.6377 17.998H13.4229C12.1189 17.998 11.0619 16.9416 11.0615 15.6377V13.4229C11.0615 12.1186 12.1186 11.0615 13.4229 11.0615H15.6377ZM13.4229 12.5615C12.9471 12.5615 12.5615 12.9471 12.5615 13.4229V15.6377C12.5619 16.1132 12.9473 16.498 13.4229 16.498H15.6377C16.113 16.4978 16.4977 16.113 16.498 15.6377V13.4229C16.498 12.9472 16.1133 12.5618 15.6377 12.5615H13.4229Z" fill="#0F0F0F"/>
<path d="M6.57617 2C7.88017 2.0002 8.93645 3.0573 8.93652 4.36133V6.57617C8.93633 7.8801 7.8801 8.93633 6.57617 8.93652H4.36133C3.05734 8.9364 2.0002 7.88014 2 6.57617V4.36133C2.00007 3.05725 3.05726 2.00012 4.36133 2H6.57617ZM4.36133 3.5C3.88569 3.50012 3.50007 3.88568 3.5 4.36133V6.57617C3.5002 7.05172 3.88577 7.4364 4.36133 7.43652H6.57617C7.05167 7.43633 7.43633 7.05167 7.43652 6.57617V4.36133C7.43645 3.88572 7.05175 3.5002 6.57617 3.5H4.36133Z" fill="#0F0F0F"/>
<path d="M15.6377 2C16.9416 2.00026 17.998 3.05734 17.998 4.36133V6.57617C17.9978 7.88006 16.9416 8.93626 15.6377 8.93652H13.4229C12.1188 8.93652 11.0617 7.88022 11.0615 6.57617V4.36133C11.0616 3.05718 12.1187 2 13.4229 2H15.6377ZM13.4229 3.5C12.9471 3.5 12.5616 3.8856 12.5615 4.36133V6.57617C12.5617 7.05179 12.9472 7.43652 13.4229 7.43652H15.6377C16.1131 7.43626 16.4978 7.05163 16.498 6.57617V4.36133C16.498 3.88576 16.1132 3.50026 15.6377 3.5H13.4229Z" fill="#0F0F0F"/>
</svg>
