<svg width="28" height="28" viewBox="0 0 28 28" fill="none" xmlns="http://www.w3.org/2000/svg">
<path d="M9.39648 15.1885C11.2838 15.1886 12.8124 16.7181 12.8125 18.6055V21.585C12.8123 23.4722 11.2837 25.0008 9.39648 25.001H6.41699C4.52965 25.0009 3.00017 23.4723 3 21.585V18.6055C3.00008 16.7181 4.5296 15.1886 6.41699 15.1885H9.39648ZM6.41699 17.6885C5.91031 17.6886 5.50008 18.0988 5.5 18.6055V21.585C5.50017 22.0916 5.91037 22.5009 6.41699 22.501H9.39648C9.90303 22.5008 10.3123 22.0915 10.3125 21.585V18.6055C10.3124 18.0988 9.90309 17.6886 9.39648 17.6885H6.41699Z" fill="#0F0F0F"/>
<path d="M21.585 15.1885C23.4722 15.1887 25.0009 16.7182 25.001 18.6055V21.585C25.0008 23.4722 23.4721 25.0007 21.585 25.001H18.6055C16.7181 25.001 15.1887 23.4723 15.1885 21.585V18.6055C15.1886 16.718 16.718 15.1885 18.6055 15.1885H21.585ZM18.6055 17.6885C18.0987 17.6885 17.6886 18.0987 17.6885 18.6055V21.585C17.6886 22.0916 18.0988 22.501 18.6055 22.501H21.585C22.0914 22.5007 22.5008 22.0915 22.501 21.585V18.6055C22.5009 18.0989 22.0915 17.6887 21.585 17.6885H18.6055Z" fill="#0F0F0F"/>
<path d="M9.39648 3C11.2837 3.00017 12.8123 4.52974 12.8125 6.41699V9.39648C12.8123 11.2837 11.2837 12.8123 9.39648 12.8125H6.41699C4.52965 12.8124 3.00017 11.2838 3 9.39648V6.41699C3.00018 4.52968 4.52966 3.00008 6.41699 3H9.39648ZM6.41699 5.5C5.91037 5.50008 5.50018 5.9104 5.5 6.41699V9.39648C5.50017 9.90309 5.91037 10.3124 6.41699 10.3125H9.39648C9.90303 10.3123 10.3123 9.90303 10.3125 9.39648V6.41699C10.3123 5.91045 9.90303 5.50017 9.39648 5.5H6.41699Z" fill="#0F0F0F"/>
<path d="M21.585 3C23.4721 3.00026 25.0008 4.52979 25.001 6.41699V9.39648C25.0008 11.2837 23.4721 12.8122 21.585 12.8125H18.6055C16.7181 12.8125 15.1887 11.2839 15.1885 9.39648V6.41699C15.1887 4.52963 16.7181 3 18.6055 3H21.585ZM18.6055 5.5C18.0988 5.5 17.6887 5.91034 17.6885 6.41699V9.39648C17.6886 9.90314 18.0988 10.3125 18.6055 10.3125H21.585C22.0914 10.3122 22.5008 9.90298 22.501 9.39648V6.41699C22.5008 5.9105 22.0914 5.50026 21.585 5.5H18.6055Z" fill="#0F0F0F"/>
</svg>
