<?xml version="1.0" encoding="UTF-8"?>
<!--Generator: Apple Native CoreSVG 149-->
<!DOCTYPE svg
PUBLIC "-//W3C//DTD SVG 1.1//EN"
       "http://www.w3.org/Graphics/SVG/1.1/DTD/svg11.dtd">
<svg version="1.1" xmlns="http://www.w3.org/2000/svg" xmlns:xlink="http://www.w3.org/1999/xlink" width="3300" height="2200">
 <!--glyph: "uni100185.medium", point size: 100.000000, font version: "Version 16.0d18e1", template writer version: "8"-->
 <g id="Notes">
  <rect height="2200" id="artboard" style="fill:white;opacity:1" width="3300" x="0" y="0"/>
  <line id="" style="fill:none;stroke:black;opacity:1;stroke-width:0.5;" x1="263" x2="3036" y1="292" y2="292"/>
  <text style="stroke:none;fill:black;font-family:-apple-system,&quot;SF Pro Display&quot;,&quot;SF Pro Text&quot;,Helvetica,sans-serif;font-weight:bold;" transform="matrix(1 0 0 1 263 322)">Weight/Scale Variations</text>
  <text style="stroke:none;fill:black;font-family:-apple-system,&quot;SF Pro Display&quot;,&quot;SF Pro Text&quot;,Helvetica,sans-serif;text-anchor:middle;" transform="matrix(1 0 0 1 559.711 322)">Ultralight</text>
  <text style="stroke:none;fill:black;font-family:-apple-system,&quot;SF Pro Display&quot;,&quot;SF Pro Text&quot;,Helvetica,sans-serif;text-anchor:middle;" transform="matrix(1 0 0 1 856.422 322)">Thin</text>
  <text style="stroke:none;fill:black;font-family:-apple-system,&quot;SF Pro Display&quot;,&quot;SF Pro Text&quot;,Helvetica,sans-serif;text-anchor:middle;" transform="matrix(1 0 0 1 1153.13 322)">Light</text>
  <text style="stroke:none;fill:black;font-family:-apple-system,&quot;SF Pro Display&quot;,&quot;SF Pro Text&quot;,Helvetica,sans-serif;text-anchor:middle;" transform="matrix(1 0 0 1 1449.84 322)">Regular</text>
  <text style="stroke:none;fill:black;font-family:-apple-system,&quot;SF Pro Display&quot;,&quot;SF Pro Text&quot;,Helvetica,sans-serif;text-anchor:middle;" transform="matrix(1 0 0 1 1746.56 322)">Medium</text>
  <text style="stroke:none;fill:black;font-family:-apple-system,&quot;SF Pro Display&quot;,&quot;SF Pro Text&quot;,Helvetica,sans-serif;text-anchor:middle;" transform="matrix(1 0 0 1 2043.27 322)">Semibold</text>
  <text style="stroke:none;fill:black;font-family:-apple-system,&quot;SF Pro Display&quot;,&quot;SF Pro Text&quot;,Helvetica,sans-serif;text-anchor:middle;" transform="matrix(1 0 0 1 2339.98 322)">Bold</text>
  <text style="stroke:none;fill:black;font-family:-apple-system,&quot;SF Pro Display&quot;,&quot;SF Pro Text&quot;,Helvetica,sans-serif;text-anchor:middle;" transform="matrix(1 0 0 1 2636.69 322)">Heavy</text>
  <text style="stroke:none;fill:black;font-family:-apple-system,&quot;SF Pro Display&quot;,&quot;SF Pro Text&quot;,Helvetica,sans-serif;text-anchor:middle;" transform="matrix(1 0 0 1 2933.4 322)">Black</text>
  <line id="" style="fill:none;stroke:black;opacity:1;stroke-width:0.5;" x1="263" x2="3036" y1="1903" y2="1903"/>
  <g id="" transform="matrix(1 0 0 1 263 1933)">
   <path d="M9.24805 0.830078C13.5547 0.830078 17.1387-2.74414 17.1387-7.05078C17.1387-11.3574 13.5449-14.9316 9.23828-14.9316C4.94141-14.9316 1.36719-11.3574 1.36719-7.05078C1.36719-2.74414 4.95117 0.830078 9.24805 0.830078ZM9.24805-0.654297C5.70312-0.654297 2.87109-3.49609 2.87109-7.05078C2.87109-10.6055 5.69336-13.4473 9.23828-13.4473C12.793-13.4473 15.6348-10.6055 15.6445-7.05078C15.6543-3.49609 12.8027-0.654297 9.24805-0.654297ZM6.39648-6.31836L8.50586-6.31836L8.50586-4.19922C8.50586-3.75977 8.79883-3.45703 9.22852-3.45703C9.67773-3.45703 9.9707-3.75977 9.9707-4.19922L9.9707-6.31836L12.0996-6.31836C12.5391-6.31836 12.8418-6.61133 12.8418-7.04102C12.8418-7.48047 12.5391-7.7832 12.0996-7.7832L9.9707-7.7832L9.9707-9.89258C9.9707-10.3418 9.67773-10.6445 9.22852-10.6445C8.79883-10.6445 8.50586-10.3418 8.50586-9.89258L8.50586-7.7832L6.39648-7.7832C5.94727-7.7832 5.64453-7.48047 5.64453-7.04102C5.64453-6.61133 5.94727-6.31836 6.39648-6.31836Z"/>
  </g>
  <g id="" transform="matrix(1 0 0 1 281.506 1933)">
   <path d="M11.709 2.91016C17.1582 2.91016 21.6699-1.61133 21.6699-7.05078C21.6699-12.5 17.1484-17.0117 11.6992-17.0117C6.25977-17.0117 1.74805-12.5 1.74805-7.05078C1.74805-1.61133 6.26953 2.91016 11.709 2.91016ZM11.709 1.25C7.09961 1.25 3.41797-2.44141 3.41797-7.05078C3.41797-11.6602 7.08984-15.3516 11.6992-15.3516C16.3086-15.3516 20-11.6602 20.0098-7.05078C20.0195-2.44141 16.3184 1.25 11.709 1.25ZM7.98828-6.23047L10.8789-6.23047L10.8789-3.32031C10.8789-2.83203 11.2109-2.5 11.6895-2.5C12.1777-2.5 12.5195-2.83203 12.5195-3.32031L12.5195-6.23047L15.4297-6.23047C15.918-6.23047 16.25-6.5625 16.25-7.04102C16.25-7.5293 15.918-7.87109 15.4297-7.87109L12.5195-7.87109L12.5195-10.7617C12.5195-11.2695 12.1777-11.6016 11.6895-11.6016C11.2109-11.6016 10.8789-11.2598 10.8789-10.7617L10.8789-7.87109L7.98828-7.87109C7.48047-7.87109 7.14844-7.5293 7.14844-7.04102C7.14844-6.5625 7.49023-6.23047 7.98828-6.23047Z"/>
  </g>
  <g id="" transform="matrix(1 0 0 1 304.924 1933)">
   <path d="M14.9707 5.66406C21.9336 5.66406 27.6953-0.0976562 27.6953-7.05078C27.6953-14.0137 21.9238-19.7754 14.9609-19.7754C8.00781-19.7754 2.25586-14.0137 2.25586-7.05078C2.25586-0.0976562 8.01758 5.66406 14.9707 5.66406ZM14.9707 3.84766C8.93555 3.84766 4.08203-1.01562 4.08203-7.05078C4.08203-13.0957 8.92578-17.9492 14.9609-17.9492C21.0059-17.9492 25.8594-13.0957 25.8691-7.05078C25.8789-1.01562 21.0156 3.84766 14.9707 3.84766ZM10.0586-6.14258L14.0625-6.14258L14.0625-2.12891C14.0625-1.5918 14.4336-1.2207 14.9512-1.2207C15.4883-1.2207 15.8594-1.5918 15.8594-2.12891L15.8594-6.14258L19.8828-6.14258C20.4102-6.14258 20.791-6.51367 20.791-7.03125C20.791-7.56836 20.4199-7.94922 19.8828-7.94922L15.8594-7.94922L15.8594-11.9531C15.8594-12.5098 15.4883-12.8809 14.9512-12.8809C14.4336-12.8809 14.0625-12.5 14.0625-11.9531L14.0625-7.94922L10.0586-7.94922C9.50195-7.94922 9.13086-7.56836 9.13086-7.03125C9.13086-6.51367 9.51172-6.14258 10.0586-6.14258Z"/>
  </g>
  <text style="stroke:none;fill:black;font-family:-apple-system,&quot;SF Pro Display&quot;,&quot;SF Pro Text&quot;,Helvetica,sans-serif;font-weight:bold;" transform="matrix(1 0 0 1 263 1953)">Design Variations</text>
  <text style="stroke:none;fill:black;font-family:-apple-system,&quot;SF Pro Display&quot;,&quot;SF Pro Text&quot;,Helvetica,sans-serif;" transform="matrix(1 0 0 1 263 1971)">Symbols are supported in up to nine weights and three scales.</text>
  <text style="stroke:none;fill:black;font-family:-apple-system,&quot;SF Pro Display&quot;,&quot;SF Pro Text&quot;,Helvetica,sans-serif;" transform="matrix(1 0 0 1 263 1989)">For optimal layout with text and other symbols, vertically align</text>
  <text style="stroke:none;fill:black;font-family:-apple-system,&quot;SF Pro Display&quot;,&quot;SF Pro Text&quot;,Helvetica,sans-serif;" transform="matrix(1 0 0 1 263 2007)">symbols with the adjacent text.</text>
  <line id="" style="fill:none;stroke:#00AEEF;stroke-width:0.5;opacity:1.0;" x1="776" x2="776" y1="1919" y2="1933"/>
  <g id="" transform="matrix(1 0 0 1 776 1933)">
   <path d="M3.31055 0.126953C3.82812 0.126953 4.08203-0.0683594 4.26758-0.605469L5.52734-4.0625L11.2891-4.0625L12.5488-0.605469C12.7344-0.0683594 12.9883 0.126953 13.4961 0.126953C14.0137 0.126953 14.3457-0.185547 14.3457-0.673828C14.3457-0.839844 14.3164-0.986328 14.2383-1.20117L9.6582-13.3887C9.43359-13.9941 9.0332-14.2871 8.4082-14.2871C7.80273-14.2871 7.39258-13.9941 7.17773-13.3984L2.59766-1.19141C2.51953-0.976562 2.49023-0.830078 2.49023-0.664062C2.49023-0.175781 2.80273 0.126953 3.31055 0.126953ZM6.00586-5.53711L8.37891-12.1094L8.42773-12.1094L10.8008-5.53711Z"/>
  </g>
  <line id="" style="fill:none;stroke:#00AEEF;stroke-width:0.5;opacity:1.0;" x1="792.836" x2="792.836" y1="1919" y2="1933"/>
  <text style="stroke:none;fill:black;font-family:-apple-system,&quot;SF Pro Display&quot;,&quot;SF Pro Text&quot;,Helvetica,sans-serif;font-weight:bold;" transform="matrix(1 0 0 1 776 1953)">Margins</text>
  <text style="stroke:none;fill:black;font-family:-apple-system,&quot;SF Pro Display&quot;,&quot;SF Pro Text&quot;,Helvetica,sans-serif;" transform="matrix(1 0 0 1 776 1971)">Leading and trailing margins on the left and right side of each symbol</text>
  <text style="stroke:none;fill:black;font-family:-apple-system,&quot;SF Pro Display&quot;,&quot;SF Pro Text&quot;,Helvetica,sans-serif;" transform="matrix(1 0 0 1 776 1989)">can be adjusted by modifying the x-location of the margin guidelines.</text>
  <text style="stroke:none;fill:black;font-family:-apple-system,&quot;SF Pro Display&quot;,&quot;SF Pro Text&quot;,Helvetica,sans-serif;" transform="matrix(1 0 0 1 776 2007)">Modifications are automatically applied proportionally to all</text>
  <text style="stroke:none;fill:black;font-family:-apple-system,&quot;SF Pro Display&quot;,&quot;SF Pro Text&quot;,Helvetica,sans-serif;" transform="matrix(1 0 0 1 776 2025)">scales and weights.</text>
  <g id="" transform="matrix(1 0 0 1 1289 1933)">
   <path d="M2.8418 1.86523L4.54102 3.57422C5.40039 4.44336 6.38672 4.38477 7.31445 3.35938L17.4902-7.85156C17.7539-7.76367 18.0273-7.7832 18.3398-7.8418L19.4043-8.03711L20.0684-7.36328L20.0293-6.80664C19.9902-6.30859 20.1172-5.92773 20.6055-5.44922L21.3672-4.70703C21.8457-4.22852 22.4609-4.19922 22.9297-4.66797L25.8398-7.58789C26.3086-8.05664 26.2891-8.65234 25.8105-9.13086L25.0391-9.89258C24.5605-10.3711 24.1895-10.5273 23.7109-10.4883L23.1348-10.4395L22.4902-11.0742L22.7344-12.1973C22.8613-12.7637 22.7051-13.2031 22.1191-13.7891L19.9219-15.9766C16.582-19.2969 12.1484-19.2188 9.25781-16.3281C8.83789-15.918 8.80859-15.3418 9.04297-14.9512C9.27734-14.5898 9.73633-14.3555 10.3809-14.5215C11.8457-14.8633 13.3691-14.9219 14.7949-13.9844L14.209-12.5293C14.0137-12.0508 13.9844-11.6504 14.1113-11.2891L3.04688-0.898438C2.06055 0.0195312 1.98242 0.996094 2.8418 1.86523ZM10.752-15.957C13.1836-17.7344 16.4746-17.4316 18.7012-15.2051L21.1328-12.793C21.3672-12.5586 21.4062-12.373 21.3379-12.0312L21.0156-10.5469L22.5195-9.0625L23.5059-9.12109C23.7598-9.13086 23.8379-9.11133 24.0332-8.91602L24.6094-8.33984L22.168-5.89844L21.5918-6.47461C21.3965-6.66992 21.3672-6.74805 21.377-7.01172L21.4453-7.98828L19.9512-9.47266L18.4277-9.21875C18.1055-9.15039 17.959-9.17969 17.7148-9.41406L15.7129-11.416C15.459-11.6504 15.4297-11.8164 15.5859-12.1875L16.4648-14.2773C14.9023-15.7324 12.8711-16.3574 10.8398-15.7617C10.6836-15.7227 10.625-15.8496 10.752-15.957ZM5.27344 2.30469L4.10156 1.14258C3.63281 0.683594 3.74023 0.341797 4.14062-0.0195312L14.9512-10.1953L16.416-8.71094L6.42578 2.27539C6.07422 2.67578 5.74219 2.77344 5.27344 2.30469Z"/>
  </g>
  <text style="stroke:none;fill:black;font-family:-apple-system,&quot;SF Pro Display&quot;,&quot;SF Pro Text&quot;,Helvetica,sans-serif;font-weight:bold;" transform="matrix(1 0 0 1 1289 1953)">Exporting</text>
  <text style="stroke:none;fill:black;font-family:-apple-system,&quot;SF Pro Display&quot;,&quot;SF Pro Text&quot;,Helvetica,sans-serif;" transform="matrix(1 0 0 1 1289 1971)">Symbols should be outlined when exporting to ensure the</text>
  <text style="stroke:none;fill:black;font-family:-apple-system,&quot;SF Pro Display&quot;,&quot;SF Pro Text&quot;,Helvetica,sans-serif;" transform="matrix(1 0 0 1 1289 1989)">design is preserved when submitting to Xcode.</text>
  <text id="template-version" style="stroke:none;fill:black;font-family:-apple-system,&quot;SF Pro Display&quot;,&quot;SF Pro Text&quot;,Helvetica,sans-serif;text-anchor:end;" transform="matrix(1 0 0 1 3036 1933)">Template v.2.0</text>
  <text style="stroke:none;fill:black;font-family:-apple-system,&quot;SF Pro Display&quot;,&quot;SF Pro Text&quot;,Helvetica,sans-serif;text-anchor:end;" transform="matrix(1 0 0 1 3036 1951)">Requires Xcode 12 or greater</text>
  <text style="stroke:none;fill:black;font-family:-apple-system,&quot;SF Pro Display&quot;,&quot;SF Pro Text&quot;,Helvetica,sans-serif;text-anchor:end;" transform="matrix(1 0 0 1 3036 1969)">Generated from checkmark</text>
  <text style="stroke:none;fill:black;font-family:-apple-system,&quot;SF Pro Display&quot;,&quot;SF Pro Text&quot;,Helvetica,sans-serif;text-anchor:end;" transform="matrix(1 0 0 1 3036 1987)">Typeset at 100 points</text>
  <text style="stroke:none;fill:black;font-family:-apple-system,&quot;SF Pro Display&quot;,&quot;SF Pro Text&quot;,Helvetica,sans-serif;" transform="matrix(1 0 0 1 263 726)">Small</text>
  <text style="stroke:none;fill:black;font-family:-apple-system,&quot;SF Pro Display&quot;,&quot;SF Pro Text&quot;,Helvetica,sans-serif;" transform="matrix(1 0 0 1 263 1156)">Medium</text>
  <text style="stroke:none;fill:black;font-family:-apple-system,&quot;SF Pro Display&quot;,&quot;SF Pro Text&quot;,Helvetica,sans-serif;" transform="matrix(1 0 0 1 263 1586)">Large</text>
 </g>
 <g id="Guides">
  <g id="H-reference" style="fill:#27AAE1;stroke:none;" transform="matrix(1 0 0 1 339 696)">
   <path d="M0.976562 0L3.66211 0L12.9883-24.4629L45.752-24.4629L55.127 0L57.7637 0L30.6152-70.459L28.125-70.459ZM29.3457-67.1387L29.4434-67.1387L44.873-26.709L13.8672-26.709Z"/>
  </g>
  <line id="Baseline-S" style="fill:none;stroke:#27AAE1;opacity:1;stroke-width:0.5;" x1="263" x2="3036" y1="696" y2="696"/>
  <line id="Capline-S" style="fill:none;stroke:#27AAE1;opacity:1;stroke-width:0.5;" x1="263" x2="3036" y1="625.541" y2="625.541"/>
  <g id="H-reference" style="fill:#27AAE1;stroke:none;" transform="matrix(1 0 0 1 339 1126)">
   <path d="M0.976562 0L3.66211 0L12.9883-24.4629L45.752-24.4629L55.127 0L57.7637 0L30.6152-70.459L28.125-70.459ZM29.3457-67.1387L29.4434-67.1387L44.873-26.709L13.8672-26.709Z"/>
  </g>
  <line id="Baseline-M" style="fill:none;stroke:#27AAE1;opacity:1;stroke-width:0.5;" x1="263" x2="3036" y1="1126" y2="1126"/>
  <line id="Capline-M" style="fill:none;stroke:#27AAE1;opacity:1;stroke-width:0.5;" x1="263" x2="3036" y1="1055.54" y2="1055.54"/>
  <g id="H-reference" style="fill:#27AAE1;stroke:none;" transform="matrix(1 0 0 1 339 1556)">
   <path d="M0.976562 0L3.66211 0L12.9883-24.4629L45.752-24.4629L55.127 0L57.7637 0L30.6152-70.459L28.125-70.459ZM29.3457-67.1387L29.4434-67.1387L44.873-26.709L13.8672-26.709Z"/>
  </g>
  <line id="Baseline-L" style="fill:none;stroke:#27AAE1;opacity:1;stroke-width:0.5;" x1="263" x2="3036" y1="1556" y2="1556"/>
  <line id="Capline-L" style="fill:none;stroke:#27AAE1;opacity:1;stroke-width:0.5;" x1="263" x2="3036" y1="1485.54" y2="1485.54"/>
  <line id="left-margin" style="fill:none;stroke:#00AEEF;stroke-width:0.5;opacity:1.0;" x1="1395.33" x2="1395.33" y1="1030.79" y2="1150.12"/>
  <line id="right-margin" style="fill:none;stroke:#00AEEF;stroke-width:0.5;opacity:1.0;" x1="1504.36" x2="1504.36" y1="1030.79" y2="1150.12"/>
 </g>
 <g id="Symbols">
  <g id="Black-L" transform="matrix(1 0 0 1 2856.67 1556)">
   <path d="M64.3066 23.0469C69.6289 23.0469 73.7793 21.0938 76.6602 16.8945L134.57-70.3613C136.572-73.3398 137.402-76.3184 137.402-79.0039C137.402-86.4746 131.641-91.9922 123.975-91.9922C118.75-91.9922 115.43-90.1367 112.256-85.1562L64.0625-9.375L39.7949-38.5254C37.0117-41.8457 33.7891-43.3105 29.4434-43.3105C21.7285-43.3105 16.0645-37.7441 16.0645-30.2246C16.0645-26.8555 17.041-24.0234 19.9219-20.7031L52.4414 17.6758C55.6641 21.3867 59.4238 23.0469 64.3066 23.0469Z"/>
  </g>
  <g id="Heavy-L" transform="matrix(1 0 0 1 2561.69 1556)">
   <path d="M62.2559 22.168C66.8457 22.168 70.459 20.459 72.9004 16.7969L131.445-72.2168C133.203-74.8535 133.936-77.4414 133.936-79.7852C133.936-86.1328 129.053-90.8691 122.51-90.8691C118.018-90.8691 115.234-89.2578 112.5-84.9609L62.0117-5.46875L36.4746-36.6211C34.0332-39.5508 31.2988-40.918 27.4902-40.918C20.8984-40.918 16.0645-36.1816 16.0645-29.7363C16.0645-26.8555 16.8945-24.3652 19.3848-21.5332L51.9043 17.334C54.7363 20.7031 58.0078 22.168 62.2559 22.168Z"/>
  </g>
  <g id="Bold-L" transform="matrix(1 0 0 1 2266.93 1556)">
   <path d="M59.9609 21.1914C63.7695 21.1914 66.6992 19.7266 68.75 16.6504L127.93-74.3164C129.443-76.6113 130.029-78.6621 130.029-80.6152C130.029-85.791 126.172-89.5508 120.85-89.5508C117.236-89.5508 114.941-88.2324 112.744-84.7656L59.7168-1.12305L32.7637-34.5215C30.7129-37.0605 28.4668-38.1836 25.293-38.1836C19.9707-38.1836 16.0645-34.375 16.0645-29.1504C16.0645-26.8066 16.7969-24.7559 18.75-22.4609L51.2695 16.9922C53.6621 19.873 56.3477 21.1914 59.9609 21.1914Z"/>
  </g>
  <g id="Semibold-L" transform="matrix(1 0 0 1 1971.56 1556)">
   <path d="M58.3496 20.5078C61.6211 20.5078 64.1113 19.1895 65.8691 16.6016L125.537-75.7812C126.807-77.7832 127.344-79.541 127.344-81.2012C127.344-85.5469 124.17-88.6719 119.727-88.6719C116.65-88.6719 114.795-87.5488 112.891-84.6191L58.1055 1.9043L30.2246-33.0566C28.418-35.3027 26.5137-36.3281 23.7793-36.3281C19.2871-36.3281 16.0645-33.1543 16.0645-28.7598C16.0645-26.8066 16.6992-25 18.3594-23.0469L50.8301 16.748C52.9785 19.3359 55.2734 20.5078 58.3496 20.5078Z"/>
  </g>
  <g id="Medium-L" transform="matrix(1 0 0 1 1675.88 1556)">
   <path d="M57.1289 20.0195C59.9609 20.0195 62.1582 18.8477 63.6719 16.5039L123.682-76.8555C124.854-78.6621 125.293-80.1758 125.293-81.6406C125.293-85.4004 122.656-87.9883 118.848-87.9883C116.211-87.9883 114.648-87.0605 113.037-84.5215L56.9336 4.15039L28.2715-31.9336C26.6602-33.9844 25.0488-34.9121 22.6562-34.9121C18.7988-34.9121 16.0645-32.2266 16.0645-28.4668C16.0645-26.8066 16.6504-25.1953 18.0176-23.5352L50.5371 16.6016C52.4414 18.9453 54.3945 20.0195 57.1289 20.0195Z"/>
  </g>
  <g id="Regular-L" transform="matrix(1 0 0 1 1380.48 1556)">
   <path d="M55.5664 19.3359C57.8613 19.3359 59.5703 18.3105 60.8398 16.4551L121.289-78.3203C122.266-79.834 122.656-81.0059 122.656-82.1777C122.656-85.1562 120.703-87.1094 117.725-87.1094C115.674-87.1094 114.453-86.377 113.232-84.375L55.3223 7.12891L25.7324-30.4688C24.4141-32.2754 23.1445-33.0566 21.1426-33.0566C18.1641-33.0566 16.0645-31.0059 16.0645-28.0762C16.0645-26.8066 16.5527-25.4883 17.627-24.1699L50.0977 16.3574C51.709 18.4082 53.3203 19.3359 55.5664 19.3359Z"/>
  </g>
  <g id="Light-L" transform="matrix(1 0 0 1 1085.14 1556)">
   <path d="M53.418 17.9688C55.0781 17.9688 56.3477 17.1875 57.2266 15.8691L118.945-80.2246C119.678-81.3965 119.922-82.2754 119.922-83.1055C119.922-85.3027 118.408-86.7676 116.211-86.7676C114.697-86.7676 113.77-86.2305 112.891-84.8145L53.2715 8.59375L23.3398-27.9297C22.3633-29.248 21.3867-29.834 19.873-29.834C17.6758-29.834 16.0645-28.2715 16.0645-26.0742C16.0645-25.1465 16.4551-24.1699 17.2363-23.1445L49.4141 15.8203C50.6348 17.2852 51.7578 17.9688 53.418 17.9688Z"/>
  </g>
  <g id="Thin-L" transform="matrix(1 0 0 1 790.211 1556)">
   <path d="M50.5859 16.1133C51.4648 16.1133 52.002 15.7227 52.4902 15.1367L115.82-82.7637C116.211-83.4473 116.357-83.8867 116.357-84.2773C116.357-85.498 115.43-86.377 114.209-86.377C113.379-86.377 112.891-86.084 112.451-85.4004L50.4883 10.5469L20.1172-24.5117C19.5801-25.1465 19.0918-25.5371 18.2129-25.5371C16.9922-25.5371 16.0645-24.6582 16.0645-23.4375C16.0645-22.9004 16.2598-22.3633 16.748-21.7773L48.5352 15.0879C49.1699 15.8691 49.7559 16.1133 50.5859 16.1133Z"/>
  </g>
  <g id="Ultralight-L" transform="matrix(1 0 0 1 494.428 1556)">
   <path d="M49.1211 15.1855C49.5605 15.1855 49.8047 14.9414 50.0488 14.7461L114.209-84.082C114.453-84.5215 114.502-84.7168 114.502-84.8633C114.502-85.5957 113.916-86.1328 113.184-86.1328C112.744-86.1328 112.402-85.9863 112.207-85.6934L49.0723 11.5234L18.5059-22.7539C18.2129-23.0957 17.9199-23.3398 17.334-23.3398C16.6016-23.3398 16.0645-22.8027 16.0645-22.0703C16.0645-21.7773 16.1621-21.4844 16.5039-21.0938L48.0957 14.7461C48.4375 15.1367 48.6816 15.1855 49.1211 15.1855Z"/>
  </g>
  <g id="Black-M" transform="matrix(1 0 0 1 2872.29 1126)">
   <path d="M51.4648 10.4004C56.25 10.4004 59.9609 8.69141 62.5 4.98047L107.227-60.9375C108.984-63.5254 109.766-66.2109 109.766-68.6035C109.766-75.4395 104.297-80.6152 97.2656-80.6152C92.5293-80.6152 89.4043-78.9062 86.5234-74.3652L51.2695-19.6777L34.0332-38.9648C31.5918-41.748 28.6621-43.0664 24.7559-43.0664C17.6758-43.0664 12.4512-37.8906 12.4512-31.0059C12.4512-27.832 13.2812-25.3906 15.9668-22.3633L41.0156 5.9082C43.7988 9.0332 47.2168 10.4004 51.4648 10.4004Z"/>
  </g>
  <g id="Heavy-M" transform="matrix(1 0 0 1 2577.14 1126)">
   <path d="M49.7559 9.81445C53.9551 9.81445 57.1777 8.30078 59.375 5.0293L104.443-62.5C106.006-64.7949 106.641-67.1387 106.641-69.1895C106.641-75.0488 102.051-79.4434 96.0449-79.4434C91.9434-79.4434 89.3555-77.9785 86.8652-74.0723L49.6094-15.7715L31.0547-37.5488C28.8574-40.0879 26.3672-41.2598 22.9492-41.2598C16.8945-41.2598 12.4512-36.8652 12.4512-30.957C12.4512-28.2715 13.1836-26.123 15.4785-23.4863L40.5762 5.66406C43.0664 8.54492 45.9961 9.81445 49.7559 9.81445Z"/>
  </g>
  <g id="Bold-M" transform="matrix(1 0 0 1 2282.17 1126)">
   <path d="M47.9004 9.13086C51.3184 9.13086 54.0039 7.8125 55.8594 5.07812L101.318-64.209C102.637-66.2109 103.174-68.1152 103.174-69.873C103.174-74.6094 99.5605-78.125 94.6777-78.125C91.3574-78.125 89.2578-76.9043 87.207-73.7305L47.7051-11.4258L27.6855-35.9863C25.8301-38.2324 23.7793-39.209 20.9473-39.209C16.0156-39.209 12.4512-35.6934 12.4512-30.9082C12.4512-28.7598 13.0859-26.9043 14.9414-24.8047L40.1367 5.46875C42.2363 7.95898 44.6777 9.13086 47.9004 9.13086Z"/>
  </g>
  <g id="Semibold-M" transform="matrix(1 0 0 1 1986.65 1126)">
   <path d="M46.582 8.64258C49.5117 8.64258 51.8066 7.4707 53.418 5.07812L99.1211-65.4297C100.293-67.1875 100.781-68.7988 100.781-70.3125C100.781-74.3164 97.8516-77.1973 93.75-77.1973C90.918-77.1973 89.209-76.2207 87.5-73.4863L46.3867-8.44727L25.3906-34.9121C23.7305-36.9141 22.0215-37.8418 19.5801-37.8418C15.4297-37.8418 12.4512-34.9121 12.4512-30.8594C12.4512-29.1016 13.0371-27.4414 14.5508-25.6836L39.7949 5.32227C41.6992 7.61719 43.7988 8.64258 46.582 8.64258Z"/>
  </g>
  <g id="Medium-M" transform="matrix(1 0 0 1 1690.84 1126)">
   <path d="M45.6055 8.30078C48.1934 8.30078 50.1953 7.22656 51.6113 5.12695L97.5098-66.3574C98.5352-67.9688 98.9746-69.3359 98.9746-70.6543C98.9746-74.1211 96.5332-76.5137 93.0176-76.5137C90.625-76.5137 89.1602-75.6348 87.6953-73.3398L45.3613-6.20117L23.6328-34.082C22.168-35.9863 20.6543-36.7676 18.5059-36.7676C14.9902-36.7676 12.4512-34.2773 12.4512-30.8594C12.4512-29.3457 12.9883-27.8809 14.2578-26.3672L39.5508 5.17578C41.2598 7.32422 43.0664 8.30078 45.6055 8.30078Z"/>
  </g>
  <g id="Regular-M" transform="matrix(1 0 0 1 1395.33 1126)">
   <path d="M44.2871 7.86133C46.3867 7.86133 48.0469 6.93359 49.2188 5.12695L95.3613-67.5293C96.2402-68.9453 96.582-70.0195 96.582-71.1426C96.582-73.8281 94.8242-75.5859 92.1387-75.5859C90.1855-75.5859 89.1113-74.9512 87.9395-73.0957L44.0918-3.22266L21.3379-33.0078C20.1172-34.7168 18.8965-35.4004 17.1387-35.4004C14.3555-35.4004 12.4512-33.4961 12.4512-30.8105C12.4512-29.6875 12.9395-28.418 13.8672-27.2461L39.209 5.0293C40.6738 6.93359 42.1875 7.86133 44.2871 7.86133Z"/>
  </g>
  <g id="Light-M" transform="matrix(1 0 0 1 1099.84 1126)">
   <path d="M42.3828 6.5918C43.9453 6.5918 45.1172 5.9082 45.9473 4.63867L93.2129-69.2383C93.8965-70.3125 94.1406-71.1426 94.1406-71.9238C94.1406-73.9746 92.7734-75.3418 90.7715-75.3418C89.3066-75.3418 88.4766-74.8047 87.6465-73.4863L42.1875-1.9043L19.1895-30.7129C18.2617-31.9336 17.334-32.4707 15.9668-32.4707C13.916-32.4707 12.4512-31.0547 12.4512-29.0039C12.4512-28.1738 12.793-27.2461 13.5254-26.3184L38.623 4.54102C39.6973 5.95703 40.8203 6.5918 42.3828 6.5918Z"/>
  </g>
  <g id="Thin-M" transform="matrix(1 0 0 1 804.738 1126)">
   <path d="M39.8438 4.98047C40.6738 4.98047 41.2598 4.58984 41.6992 3.95508L90.4297-71.5332C90.8203-72.168 90.918-72.6074 90.918-72.9492C90.918-74.1211 90.1367-74.9512 88.9648-74.9512C88.1836-74.9512 87.6953-74.6582 87.2559-73.9746L39.7461-0.195312L16.3086-27.6367C15.7715-28.3203 15.2832-28.6621 14.4531-28.6621C13.2812-28.6621 12.4512-27.832 12.4512-26.6602C12.4512-26.1719 12.6465-25.6348 13.0859-25.0977L37.793 3.90625C38.4277 4.6875 38.9648 4.98047 39.8438 4.98047Z"/>
  </g>
  <g id="Ultralight-M" transform="matrix(1 0 0 1 508.832 1126)">
   <path d="M38.5254 4.10156C39.0137 4.10156 39.2578 3.90625 39.502 3.61328L89.0137-72.7051C89.209-73.0957 89.3066-73.3398 89.3066-73.4863C89.3066-74.2188 88.7695-74.7559 88.0371-74.7559C87.5488-74.7559 87.2559-74.5605 87.0605-74.2188L38.4766 0.732422L14.8438-26.0742C14.5508-26.4648 14.2578-26.709 13.7207-26.709C12.9883-26.709 12.4512-26.1719 12.4512-25.4395C12.4512-25.1465 12.5488-24.8535 12.8906-24.5117L37.4023 3.61328C37.7441 4.00391 38.0371 4.10156 38.5254 4.10156Z"/>
  </g>
  <g id="Black-S" transform="matrix(1 0 0 1 2885.62 696)">
   <path d="M40.2344 0.488281C43.9453 0.488281 46.8262-0.830078 48.7793-3.71094L83.8379-55.4688C85.2051-57.4707 85.791-59.5703 85.791-61.4258C85.791-66.6992 81.5918-70.7031 76.123-70.7031C72.4609-70.7031 70.0684-69.3848 67.8223-65.8691L40.0879-22.7539L26.4648-38.0859C24.5605-40.2344 22.3145-41.2598 19.2871-41.2598C13.8184-41.2598 9.76562-37.2559 9.76562-31.9336C9.76562-29.4922 10.4004-27.5879 12.5-25.2441L32.1289-3.02734C34.2773-0.585938 36.9141 0.488281 40.2344 0.488281Z"/>
  </g>
  <g id="Heavy-S" transform="matrix(1 0 0 1 2589.96 696)">
   <path d="M39.1602 0.146484C42.4316 0.146484 44.9707-1.02539 46.7285-3.61328L81.9336-56.4453C83.1543-58.3008 83.6914-60.1074 83.6914-61.7676C83.6914-66.4062 80.0781-69.8242 75.3418-69.8242C72.1191-69.8242 70.0684-68.7012 68.1152-65.5762L39.0137-19.9219L24.4141-37.2559C22.7051-39.2578 20.7031-40.1855 18.0176-40.1855C13.2812-40.1855 9.76562-36.7188 9.76562-32.0801C9.76562-29.9805 10.3516-28.2715 12.1582-26.2207L31.8848-3.125C33.8379-0.830078 36.1816 0.146484 39.1602 0.146484Z"/>
  </g>
  <g id="Bold-S" transform="matrix(1 0 0 1 2294.42 696)">
   <path d="M37.9395-0.195312C40.7715-0.195312 42.9199-1.26953 44.4336-3.51562L79.7852-57.5684C80.8594-59.2285 81.3477-60.7422 81.3477-62.207C81.3477-66.0645 78.418-68.8477 74.4629-68.8477C71.7773-68.8477 70.1172-67.8711 68.457-65.2832L37.793-16.748L22.1191-36.3281C20.6055-38.1836 18.9453-39.0137 16.6504-39.0137C12.6465-39.0137 9.76562-36.1816 9.76562-32.2754C9.76562-30.5664 10.3027-29.0527 11.7676-27.3438L31.5918-3.22266C33.3008-1.17188 35.3027-0.195312 37.9395-0.195312Z"/>
  </g>
  <g id="Semibold-S" transform="matrix(1 0 0 1 1998.54 696)">
   <path d="M37.1094-0.439453C39.5996-0.439453 41.5039-1.41602 42.8711-3.4668L78.3203-58.3496C79.2969-59.8633 79.6875-61.1816 79.6875-62.5C79.6875-65.8203 77.2949-68.1641 73.877-68.1641C71.5332-68.1641 70.1172-67.334 68.6523-65.0879L36.9141-14.5996L20.5566-35.6934C19.1895-37.4512 17.7246-38.1836 15.6738-38.1836C12.2559-38.1836 9.76562-35.7422 9.76562-32.4219C9.76562-30.9082 10.2539-29.541 11.5234-28.0762L31.3477-3.32031C32.959-1.36719 34.7168-0.439453 37.1094-0.439453Z"/>
  </g>
  <g id="Medium-S" transform="matrix(1 0 0 1 1702.44 696)">
   <path d="M36.4746-0.634766C38.7207-0.634766 40.4297-1.5625 41.6992-3.41797L77.1973-58.9355C78.125-60.3516 78.4668-61.5234 78.4668-62.6953C78.4668-65.625 76.416-67.6758 73.4375-67.6758C71.3379-67.6758 70.1172-66.9434 68.8477-64.8926L36.2793-12.9395L19.3359-35.2539C18.0664-36.8652 16.7969-37.5488 14.9414-37.5488C11.9141-37.5488 9.76562-35.4492 9.76562-32.5195C9.76562-31.2012 10.2051-29.9805 11.2793-28.6621L31.2012-3.36914C32.7148-1.51367 34.2773-0.634766 36.4746-0.634766Z"/>
  </g>
  <g id="Regular-S" transform="matrix(1 0 0 1 1406.53 696)">
   <path d="M35.6445-0.878906C37.5488-0.878906 39.0625-1.70898 40.1367-3.36914L75.7324-59.668C76.5625-60.9375 76.8555-61.9629 76.8555-62.9883C76.8555-65.3809 75.293-66.9922 72.8516-66.9922C71.0938-66.9922 70.1172-66.4062 69.043-64.6973L35.4492-10.791L17.7734-34.6191C16.6504-36.1328 15.5762-36.7676 13.9648-36.7676C11.5234-36.7676 9.76562-35.0586 9.76562-32.6172C9.76562-31.5918 10.2051-30.4688 11.0352-29.3945L31.0059-3.4668C32.373-1.70898 33.7402-0.878906 35.6445-0.878906Z"/>
  </g>
  <g id="Light-S" transform="matrix(1 0 0 1 1110.9 696)">
   <path d="M33.9355-1.95312C35.3516-1.95312 36.4746-2.63672 37.2559-3.80859L73.877-61.2305C74.4629-62.207 74.707-62.9395 74.707-63.6719C74.707-65.5273 73.4863-66.748 71.6309-66.748C70.3125-66.748 69.5801-66.3086 68.7988-65.0391L33.7891-9.61914L15.8691-32.5684C14.9902-33.6914 14.209-34.1797 12.9883-34.1797C11.084-34.1797 9.76562-32.9102 9.76562-31.0547C9.76562-30.2734 10.1074-29.4434 10.7422-28.6133L30.4688-3.85742C31.4941-2.58789 32.5195-1.95312 33.9355-1.95312Z"/>
  </g>
  <g id="Thin-S" transform="matrix(1 0 0 1 815.602 696)">
   <path d="M31.6895-3.41797C32.4707-3.41797 33.0566-3.80859 33.4961-4.39453L71.3867-63.2324C71.7285-63.8184 71.875-64.209 71.875-64.5996C71.875-65.6738 71.1426-66.4062 70.0684-66.4062C69.2871-66.4062 68.8477-66.1621 68.457-65.4785L31.5918-8.10547L13.3301-29.8828C12.8418-30.5176 12.4023-30.8105 11.6211-30.8105C10.5469-30.8105 9.76562-30.0293 9.76562-28.9551C9.76562-28.5156 9.96094-28.0273 10.3516-27.5391L29.7852-4.44336C30.3711-3.71094 30.9082-3.41797 31.6895-3.41797Z"/>
  </g>
  <g id="Ultralight-S" transform="matrix(1 0 0 1 519.623 696)">
   <path d="M30.5176-4.15039C31.0059-4.15039 31.2988-4.39453 31.543-4.73633L70.1172-64.2578C70.3613-64.6484 70.4102-64.8926 70.4102-65.0879C70.4102-65.7715 69.9219-66.2598 69.2383-66.2598C68.75-66.2598 68.5059-66.0645 68.2617-65.7227L30.4688-7.32422L12.0117-28.4668C11.7188-28.8574 11.4258-29.0527 10.9375-29.0527C10.2539-29.0527 9.76562-28.5645 9.76562-27.8809C9.76562-27.5879 9.86328-27.2949 10.1562-27.002L29.4434-4.73633C29.7852-4.29688 30.0781-4.15039 30.5176-4.15039Z"/>
  </g>
 </g>
</svg>
