<svg width="24" height="24" viewBox="0 0 24 24" fill="none" xmlns="http://www.w3.org/2000/svg">
<path d="M12 11C12.5523 11 13 11.4477 13 12V17C13 17.5523 12.5523 18 12 18C11.4477 18 11 17.5523 11 17V13C10.4477 13 10 12.5523 10 12C10 11.4477 10.4477 11 11 11H12Z" fill="#0F0F0F"/>
<path d="M11.8662 7.10547C12.4453 7.16403 12.9004 7.65237 12.9004 8.25C12.9004 8.88506 12.3851 9.40039 11.75 9.40039C11.1545 9.40039 10.6642 8.94723 10.6055 8.36719L10.5996 8.25C10.5985 7.61163 11.1174 7.09961 11.749 7.09961L11.8662 7.10547Z" fill="#0F0F0F"/>
<path d="M12 2C17.5233 2 22 6.47672 22 12C22 17.5233 17.5233 22 12 22C6.47672 22 2 17.5233 2 12C2 6.47672 6.47672 2 12 2ZM12 4C7.58128 4 4 7.58128 4 12C4 16.4187 7.58128 20 12 20C16.4187 20 20 16.4187 20 12C20 7.58128 16.4187 4 12 4Z" fill="#0F0F0F"/>
</svg>
