<svg width="16" height="16" viewBox="0 0 16 16" fill="none" xmlns="http://www.w3.org/2000/svg">
<path d="M8.00098 11.9463C8.34606 11.9463 8.62584 12.2262 8.62598 12.5713V13.877C8.62598 14.2221 8.34614 14.5019 8.00098 14.502C7.65592 14.5018 7.37598 14.222 7.37598 13.877V12.5713C7.37611 12.2263 7.656 11.9464 8.00098 11.9463Z" fill="#0F0F0F"/>
<path d="M4.32715 10.791C4.57115 10.547 4.96685 10.5471 5.21094 10.791C5.45472 11.0351 5.45488 11.4308 5.21094 11.6748L4.28711 12.5977C4.04304 12.8417 3.64737 12.8417 3.40332 12.5977C3.15975 12.3536 3.1595 11.9578 3.40332 11.7139L4.32715 10.791Z" fill="#0F0F0F"/>
<path d="M10.791 10.791C11.0351 10.5471 11.4308 10.547 11.6748 10.791L12.5986 11.7139C12.8423 11.9578 12.8422 12.3536 12.5986 12.5977C12.3546 12.8417 11.9579 12.8417 11.7139 12.5977L10.791 11.6748C10.547 11.4308 10.5472 11.0351 10.791 10.791Z" fill="#0F0F0F"/>
<path d="M8.00098 5.41699C9.42763 5.41721 10.5839 6.57431 10.584 8.00098C10.5838 9.42764 9.42763 10.5838 8.00098 10.584C6.5743 10.5838 5.41713 9.42766 5.41699 8.00098C5.41712 6.57429 6.5743 5.41718 8.00098 5.41699ZM8.00098 6.66699C7.26474 6.66718 6.66712 7.26456 6.66699 8.00098C6.66713 8.73739 7.26474 9.3338 8.00098 9.33398C8.73718 9.33377 9.33385 8.73737 9.33398 8.00098C9.33385 7.26458 8.73719 6.66721 8.00098 6.66699Z" fill="#0F0F0F"/>
<path d="M3.43066 7.37598C3.77566 7.37608 4.05551 7.65599 4.05566 8.00098C4.05552 8.34597 3.77566 8.62587 3.43066 8.62598H2.125C1.77991 8.62598 1.50014 8.34603 1.5 8.00098C1.50015 7.65593 1.77992 7.37598 2.125 7.37598H3.43066Z" fill="#0F0F0F"/>
<path d="M13.877 7.37598C14.222 7.37598 14.5018 7.65593 14.502 8.00098C14.5018 8.34604 14.222 8.62598 13.877 8.62598H12.5713C12.2262 8.62592 11.9464 8.34601 11.9463 8.00098C11.9464 7.65596 12.2263 7.37603 12.5713 7.37598H13.877Z" fill="#0F0F0F"/>
<path d="M3.4043 3.40332C3.64836 3.1597 4.04415 3.1595 4.28809 3.40332L5.21094 4.32715C5.45494 4.57117 5.45481 4.96684 5.21094 5.21094C4.96685 5.45484 4.57116 5.45496 4.32715 5.21094L3.4043 4.28711C3.16038 4.04301 3.16028 3.64735 3.4043 3.40332Z" fill="#0F0F0F"/>
<path d="M11.7139 3.40332C11.9578 3.15963 12.3536 3.15979 12.5977 3.40332C12.8417 3.6474 12.8417 4.04401 12.5977 4.28809L11.6748 5.21094C11.4308 5.45495 11.0351 5.45481 10.791 5.21094C10.5471 4.96684 10.547 4.57116 10.791 4.32715L11.7139 3.40332Z" fill="#0F0F0F"/>
<path d="M8.00098 1.5C8.34614 1.50001 8.62598 1.77983 8.62598 2.125V3.43066C8.62598 3.77583 8.34614 4.05565 8.00098 4.05566C7.65592 4.05552 7.37598 3.77576 7.37598 3.43066V2.125C7.37598 1.77991 7.65592 1.50014 8.00098 1.5Z" fill="#0F0F0F"/>
</svg>
