<svg width="24" height="24" viewBox="0 0 24 24" fill="none" xmlns="http://www.w3.org/2000/svg">
<path d="M12 18C12.5523 18 13 18.4477 13 19V21C13 21.5523 12.5523 22 12 22C11.4477 22 11 21.5523 11 21V19C11 18.4477 11.4477 18 12 18Z" fill="#0F0F0F"/>
<path d="M6.34277 16.2422C6.7333 15.8517 7.3673 15.8517 7.75781 16.2422C8.1483 16.6327 8.1483 17.2667 7.75781 17.6572L6.34277 19.0713C5.95223 19.4615 5.31914 19.4617 4.92871 19.0713C4.53829 18.6809 4.53849 18.0478 4.92871 17.6572L6.34277 16.2422Z" fill="#0F0F0F"/>
<path d="M16.2422 16.2422C16.6327 15.8517 17.2667 15.8517 17.6572 16.2422L19.0713 17.6572C19.4615 18.0478 19.4617 18.6809 19.0713 19.0713C18.6809 19.4617 18.0478 19.4615 17.6572 19.0713L16.2422 17.6572C15.8517 17.2667 15.8517 16.6327 16.2422 16.2422Z" fill="#0F0F0F"/>
<path d="M12 8C14.2091 8 16 9.79086 16 12C16 14.2091 14.2091 16 12 16C9.79086 16 8 14.2091 8 12C8 9.79086 9.79086 8 12 8ZM12 10C10.8954 10 10 10.8954 10 12C10 13.1046 10.8954 14 12 14C13.1046 14 14 13.1046 14 12C14 10.8954 13.1046 10 12 10Z" fill="#0F0F0F"/>
<path d="M5 11C5.55228 11 6 11.4477 6 12C6 12.5523 5.55228 13 5 13H3C2.44772 13 2 12.5523 2 12C2 11.4477 2.44772 11 3 11H5Z" fill="#0F0F0F"/>
<path d="M21 11C21.5523 11 22 11.4477 22 12C22 12.5523 21.5523 13 21 13H19C18.4477 13 18 12.5523 18 12C18 11.4477 18.4477 11 19 11H21Z" fill="#0F0F0F"/>
<path d="M4.92871 4.92871C5.31916 4.53831 5.95224 4.53844 6.34277 4.92871L7.75684 6.34277C8.14736 6.7333 8.14736 7.36729 7.75684 7.75781C7.36631 8.14786 6.73316 8.14809 6.34277 7.75781L4.92871 6.34277C4.53843 5.95223 4.53827 5.31915 4.92871 4.92871Z" fill="#0F0F0F"/>
<path d="M17.6572 4.92871C18.0478 4.53846 18.6809 4.53828 19.0713 4.92871C19.4617 5.31914 19.4615 5.95223 19.0713 6.34277L17.6572 7.75684C17.2667 8.14736 16.6327 8.14736 16.2422 7.75684C15.8521 7.36629 15.8519 6.73315 16.2422 6.34277L17.6572 4.92871Z" fill="#0F0F0F"/>
<path d="M12 2C12.5523 2 13 2.44772 13 3V5C13 5.55228 12.5523 6 12 6C11.4477 6 11 5.55228 11 5V3C11 2.44772 11.4477 2 12 2Z" fill="#0F0F0F"/>
</svg>
