<svg width="28" height="28" viewBox="0 0 28 28" fill="none" xmlns="http://www.w3.org/2000/svg">
<path d="M13.999 21.1104C14.6892 21.1104 15.2488 21.6702 15.249 22.3604V24.749C15.2488 25.4392 14.6892 25.999 13.999 25.999C13.309 25.9988 12.7493 25.439 12.749 24.749V22.3604C12.7493 21.6704 13.309 21.1106 13.999 21.1104Z" fill="#0F0F0F"/>
<path d="M7.20312 19.0264C7.69107 18.5388 8.48261 18.539 8.9707 19.0264C9.45874 19.5144 9.45853 20.3067 8.9707 20.7949L7.28223 22.4834C6.79408 22.9716 6.00279 22.9716 5.51465 22.4834C5.02677 21.9952 5.02659 21.2039 5.51465 20.7158L7.20312 19.0264Z" fill="#0F0F0F"/>
<path d="M19.0273 19.0264C19.5155 18.5385 20.3078 18.5383 20.7959 19.0264L22.4844 20.7158C22.9721 21.2039 22.9721 21.9953 22.4844 22.4834C21.9963 22.9715 21.205 22.9712 20.7168 22.4834L19.0273 20.7949C18.5393 20.3068 18.5392 19.5145 19.0273 19.0264Z" fill="#0F0F0F"/>
<path fill-rule="evenodd" clip-rule="evenodd" d="M14 9.16602C16.669 9.16628 18.8329 11.33 18.833 13.999C18.8329 16.6681 16.669 18.8318 14 18.832C11.3308 18.832 9.16707 16.6682 9.16699 13.999C9.1671 11.3299 11.3308 9.16605 14 9.16602ZM14 11.666C12.7116 11.666 11.6671 12.7105 11.667 13.999C11.6671 15.2876 12.7116 16.332 14 16.332C15.2882 16.3318 16.3329 15.2874 16.333 13.999C16.3329 12.7106 15.2882 11.6663 14 11.666Z" fill="#0F0F0F"/>
<path d="M5.63867 12.748C6.32858 12.7483 6.88828 13.3082 6.88867 13.998C6.88867 14.6883 6.32882 15.2478 5.63867 15.248H3.25C2.55976 15.2479 2 14.6883 2 13.998C2.00039 13.3081 2.56 12.7482 3.25 12.748H5.63867Z" fill="#0F0F0F"/>
<path d="M24.749 12.748C25.4388 12.7484 25.9986 13.3083 25.999 13.998C25.999 14.6882 25.4391 15.2477 24.749 15.248H22.3604C21.67 15.248 21.1104 14.6884 21.1104 13.998C21.1107 13.308 21.6702 12.748 22.3604 12.748H24.749Z" fill="#0F0F0F"/>
<path d="M5.51465 5.51367C6.00282 5.02577 6.79515 5.0256 7.2832 5.51367L8.97168 7.20312C9.45925 7.69124 9.4594 8.48268 8.97168 8.9707C8.48367 9.45856 7.69223 9.45836 7.2041 8.9707L5.51465 7.28125C5.02685 6.79314 5.02682 6.00177 5.51465 5.51367Z" fill="#0F0F0F"/>
<path d="M20.7158 5.51367C21.2038 5.02598 21.9953 5.02608 22.4834 5.51367C22.9714 6.00173 22.9712 6.79306 22.4834 7.28125L20.7949 8.9707C20.3068 9.4588 19.5155 9.45865 19.0273 8.9707C18.5395 8.48252 18.5393 7.6912 19.0273 7.20312L20.7158 5.51367Z" fill="#0F0F0F"/>
<path d="M13.999 2C14.6892 2 15.2488 2.55985 15.249 3.25V5.63867C15.2488 6.32888 14.6893 6.88867 13.999 6.88867C13.309 6.8884 12.7492 6.32871 12.749 5.63867V3.25C12.7493 2.56002 13.309 2.00027 13.999 2Z" fill="#0F0F0F"/>
</svg>
