<svg width="20" height="20" viewBox="0 0 20 20" fill="none" xmlns="http://www.w3.org/2000/svg">
<path d="M10.002 14.8926C10.4158 14.8928 10.7517 15.2287 10.752 15.6426V17.2539C10.752 17.668 10.416 18.0037 10.002 18.0039C9.58792 18.0037 9.25195 17.668 9.25195 17.2539V15.6426C9.25216 15.2287 9.58805 14.8928 10.002 14.8926Z" fill="#0F0F0F"/>
<path d="M5.4834 13.4609C5.77629 13.1681 6.25106 13.1681 6.54395 13.4609C6.8364 13.7539 6.83666 14.2287 6.54395 14.5215L5.4043 15.6611C5.11153 15.9536 4.6366 15.9535 4.34375 15.6611C4.05094 15.3683 4.05109 14.8935 4.34375 14.6006L5.4834 13.4609Z" fill="#0F0F0F"/>
<path d="M13.46 13.46C13.7528 13.1674 14.2277 13.1674 14.5205 13.46L15.6602 14.5996C15.9529 14.8924 15.9527 15.3673 15.6602 15.6602C15.3673 15.9527 14.8924 15.9529 14.5996 15.6602L13.46 14.5215C13.1672 14.2287 13.1674 13.7529 13.46 13.46Z" fill="#0F0F0F"/>
<path d="M10.001 6.83496C11.7502 6.83496 13.1687 8.25283 13.1689 10.002C13.1687 11.7511 11.7502 13.1699 10.001 13.1699C8.25219 13.1694 6.83421 11.7508 6.83398 10.002C6.83423 8.25313 8.25221 6.83545 10.001 6.83496ZM10.001 8.33496C9.08064 8.33545 8.33423 9.08156 8.33398 10.002C8.33421 10.9224 9.08062 11.6694 10.001 11.6699C10.9217 11.6699 11.6687 10.9227 11.6689 10.002C11.6687 9.08126 10.9217 8.33496 10.001 8.33496Z" fill="#0F0F0F"/>
<path d="M4.36133 9.25195C4.77523 9.25216 5.11111 9.58805 5.11133 10.002C5.11111 10.4158 4.77523 10.7517 4.36133 10.752H2.75C2.33592 10.752 2.00022 10.416 2 10.002C2.00022 9.58792 2.33592 9.25195 2.75 9.25195H4.36133Z" fill="#0F0F0F"/>
<path d="M17.2539 9.25195C17.668 9.25195 18.0037 9.58792 18.0039 10.002C18.0037 10.416 17.668 10.752 17.2539 10.752H15.6426C15.2285 10.7519 14.8928 10.416 14.8926 10.002C14.8928 9.58793 15.2285 9.25197 15.6426 9.25195H17.2539Z" fill="#0F0F0F"/>
<path d="M4.34277 4.34375C4.63559 4.05094 5.11041 4.05109 5.40332 4.34375L6.54297 5.4834C6.83583 5.77629 6.83585 6.25106 6.54297 6.54395C6.25005 6.8364 5.77517 6.83666 5.48242 6.54395L4.34277 5.4043C4.05026 5.11153 4.05039 4.6366 4.34277 4.34375Z" fill="#0F0F0F"/>
<path d="M14.5996 4.34375C14.8924 4.05095 15.3672 4.05114 15.6602 4.34375C15.9528 4.63667 15.953 5.1115 15.6602 5.4043L14.5215 6.54395C14.2288 6.83667 13.7539 6.83634 13.4609 6.54395C13.168 6.25105 13.168 5.77629 13.4609 5.4834L14.5996 4.34375Z" fill="#0F0F0F"/>
<path d="M10.002 2C10.416 2.00022 10.752 2.33592 10.752 2.75V4.36133C10.7519 4.77533 10.4159 5.11111 10.002 5.11133C9.58797 5.11111 9.25204 4.77534 9.25195 4.36133V2.75C9.25195 2.33592 9.58792 2.00022 10.002 2Z" fill="#0F0F0F"/>
</svg>
