<?xml version="1.0" encoding="UTF-8"?>
<!--Generator: Apple Native CoreSVG 123-->
<!DOCTYPE svg
PUBLIC "-//W3C//DTD SVG 1.1//EN"
       "http://www.w3.org/Graphics/SVG/1.1/DTD/svg11.dtd">
<svg version="1.1" xmlns="http://www.w3.org/2000/svg" xmlns:xlink="http://www.w3.org/1999/xlink" width="3300" height="2200">
 <!--glyph: "uni100405.medium", point size: 100.000000, font version: "Version 15.0d7e11", template writer version: "5"-->
 <g id="Notes">
  <rect height="2200" id="artboard" style="fill:white;opacity:1" width="3300" x="0" y="0"/>
  <line id="" style="fill:none;stroke:black;opacity:1;stroke-width:0.5;" x1="263" x2="3036" y1="292" y2="292"/>
  <text style="stroke:none;fill:black;font-family:-apple-system,&quot;SF Pro Display&quot;,&quot;SF Pro Text&quot;,Helvetica,sans-serif;font-weight:bold;" transform="matrix(1 0 0 1 263 322)">Weight/Scale Variations</text>
  <text style="stroke:none;fill:black;font-family:-apple-system,&quot;SF Pro Display&quot;,&quot;SF Pro Text&quot;,Helvetica,sans-serif;text-anchor:middle;" transform="matrix(1 0 0 1 559.711 322)">Ultralight</text>
  <text style="stroke:none;fill:black;font-family:-apple-system,&quot;SF Pro Display&quot;,&quot;SF Pro Text&quot;,Helvetica,sans-serif;text-anchor:middle;" transform="matrix(1 0 0 1 856.422 322)">Thin</text>
  <text style="stroke:none;fill:black;font-family:-apple-system,&quot;SF Pro Display&quot;,&quot;SF Pro Text&quot;,Helvetica,sans-serif;text-anchor:middle;" transform="matrix(1 0 0 1 1153.13 322)">Light</text>
  <text style="stroke:none;fill:black;font-family:-apple-system,&quot;SF Pro Display&quot;,&quot;SF Pro Text&quot;,Helvetica,sans-serif;text-anchor:middle;" transform="matrix(1 0 0 1 1449.84 322)">Regular</text>
  <text style="stroke:none;fill:black;font-family:-apple-system,&quot;SF Pro Display&quot;,&quot;SF Pro Text&quot;,Helvetica,sans-serif;text-anchor:middle;" transform="matrix(1 0 0 1 1746.56 322)">Medium</text>
  <text style="stroke:none;fill:black;font-family:-apple-system,&quot;SF Pro Display&quot;,&quot;SF Pro Text&quot;,Helvetica,sans-serif;text-anchor:middle;" transform="matrix(1 0 0 1 2043.27 322)">Semibold</text>
  <text style="stroke:none;fill:black;font-family:-apple-system,&quot;SF Pro Display&quot;,&quot;SF Pro Text&quot;,Helvetica,sans-serif;text-anchor:middle;" transform="matrix(1 0 0 1 2339.98 322)">Bold</text>
  <text style="stroke:none;fill:black;font-family:-apple-system,&quot;SF Pro Display&quot;,&quot;SF Pro Text&quot;,Helvetica,sans-serif;text-anchor:middle;" transform="matrix(1 0 0 1 2636.69 322)">Heavy</text>
  <text style="stroke:none;fill:black;font-family:-apple-system,&quot;SF Pro Display&quot;,&quot;SF Pro Text&quot;,Helvetica,sans-serif;text-anchor:middle;" transform="matrix(1 0 0 1 2933.4 322)">Black</text>
  <line id="" style="fill:none;stroke:black;opacity:1;stroke-width:0.5;" x1="263" x2="3036" y1="1903" y2="1903"/>
  <g id="" transform="matrix(1 0 0 1 263 1933)">
   <path d="M 9.24805 0.830078 C 13.5547 0.830078 17.1387 -2.74414 17.1387 -7.05078 C 17.1387 -11.3574 13.5449 -14.9316 9.23828 -14.9316 C 4.94141 -14.9316 1.36719 -11.3574 1.36719 -7.05078 C 1.36719 -2.74414 4.95117 0.830078 9.24805 0.830078 Z M 9.24805 -0.654297 C 5.70312 -0.654297 2.87109 -3.49609 2.87109 -7.05078 C 2.87109 -10.6055 5.69336 -13.4473 9.23828 -13.4473 C 12.793 -13.4473 15.6348 -10.6055 15.6445 -7.05078 C 15.6543 -3.49609 12.8027 -0.654297 9.24805 -0.654297 Z M 9.22852 -3.42773 C 9.69727 -3.42773 9.9707 -3.74023 9.9707 -4.25781 L 9.9707 -6.31836 L 12.1973 -6.31836 C 12.6953 -6.31836 13.0371 -6.57227 13.0371 -7.04102 C 13.0371 -7.51953 12.7148 -7.7832 12.1973 -7.7832 L 9.9707 -7.7832 L 9.9707 -10.0098 C 9.9707 -10.5273 9.69727 -10.8496 9.22852 -10.8496 C 8.75977 -10.8496 8.50586 -10.5078 8.50586 -10.0098 L 8.50586 -7.7832 L 6.29883 -7.7832 C 5.78125 -7.7832 5.44922 -7.51953 5.44922 -7.04102 C 5.44922 -6.57227 5.80078 -6.31836 6.29883 -6.31836 L 8.50586 -6.31836 L 8.50586 -4.25781 C 8.50586 -3.75977 8.75977 -3.42773 9.22852 -3.42773 Z"/>
  </g>
  <g id="" transform="matrix(1 0 0 1 281.506 1933)">
   <path d="M 11.709 2.91016 C 17.1582 2.91016 21.6699 -1.60156 21.6699 -7.05078 C 21.6699 -12.4902 17.1484 -17.0117 11.6992 -17.0117 C 6.25977 -17.0117 1.74805 -12.4902 1.74805 -7.05078 C 1.74805 -1.60156 6.26953 2.91016 11.709 2.91016 Z M 11.709 1.25 C 7.09961 1.25 3.41797 -2.44141 3.41797 -7.05078 C 3.41797 -11.6504 7.08984 -15.3516 11.6992 -15.3516 C 16.3086 -15.3516 20 -11.6504 20.0098 -7.05078 C 20.0195 -2.44141 16.3184 1.25 11.709 1.25 Z M 11.6895 -2.41211 C 12.207 -2.41211 12.5195 -2.77344 12.5195 -3.33984 L 12.5195 -6.23047 L 15.5762 -6.23047 C 16.123 -6.23047 16.5039 -6.51367 16.5039 -7.03125 C 16.5039 -7.55859 16.1426 -7.86133 15.5762 -7.86133 L 12.5195 -7.86133 L 12.5195 -10.9277 C 12.5195 -11.5039 12.207 -11.8555 11.6895 -11.8555 C 11.1719 -11.8555 10.8789 -11.4844 10.8789 -10.9277 L 10.8789 -7.86133 L 7.83203 -7.86133 C 7.26562 -7.86133 6.89453 -7.55859 6.89453 -7.03125 C 6.89453 -6.51367 7.28516 -6.23047 7.83203 -6.23047 L 10.8789 -6.23047 L 10.8789 -3.33984 C 10.8789 -2.79297 11.1719 -2.41211 11.6895 -2.41211 Z"/>
  </g>
  <g id="" transform="matrix(1 0 0 1 304.924 1933)">
   <path d="M 14.9707 5.67383 C 21.9336 5.67383 27.6953 -0.078125 27.6953 -7.04102 C 27.6953 -14.0039 21.9238 -19.7559 14.9609 -19.7559 C 8.00781 -19.7559 2.25586 -14.0039 2.25586 -7.04102 C 2.25586 -0.078125 8.01758 5.67383 14.9707 5.67383 Z M 14.9707 3.85742 C 8.93555 3.85742 4.08203 -1.00586 4.08203 -7.04102 C 4.08203 -13.0762 8.92578 -17.9395 14.9609 -17.9395 C 21.0059 -17.9395 25.8594 -13.0762 25.8691 -7.04102 C 25.8789 -1.00586 21.0156 3.85742 14.9707 3.85742 Z M 14.9512 -1.06445 C 15.5176 -1.06445 15.8691 -1.45508 15.8691 -2.06055 L 15.8691 -6.13281 L 20.1074 -6.13281 C 20.6934 -6.13281 21.1133 -6.46484 21.1133 -7.02148 C 21.1133 -7.59766 20.7227 -7.93945 20.1074 -7.93945 L 15.8691 -7.93945 L 15.8691 -12.1875 C 15.8691 -12.8027 15.5176 -13.1934 14.9512 -13.1934 C 14.3848 -13.1934 14.0625 -12.7832 14.0625 -12.1875 L 14.0625 -7.93945 L 9.83398 -7.93945 C 9.21875 -7.93945 8.80859 -7.59766 8.80859 -7.02148 C 8.80859 -6.46484 9.23828 -6.13281 9.83398 -6.13281 L 14.0625 -6.13281 L 14.0625 -2.06055 C 14.0625 -1.47461 14.3848 -1.06445 14.9512 -1.06445 Z"/>
  </g>
  <text style="stroke:none;fill:black;font-family:-apple-system,&quot;SF Pro Display&quot;,&quot;SF Pro Text&quot;,Helvetica,sans-serif;font-weight:bold;" transform="matrix(1 0 0 1 263 1953)">Design Variations</text>
  <text style="stroke:none;fill:black;font-family:-apple-system,&quot;SF Pro Display&quot;,&quot;SF Pro Text&quot;,Helvetica,sans-serif;" transform="matrix(1 0 0 1 263 1971)">Symbols are supported in up to nine weights and three scales.</text>
  <text style="stroke:none;fill:black;font-family:-apple-system,&quot;SF Pro Display&quot;,&quot;SF Pro Text&quot;,Helvetica,sans-serif;" transform="matrix(1 0 0 1 263 1989)">For optimal layout with text and other symbols, vertically align</text>
  <text style="stroke:none;fill:black;font-family:-apple-system,&quot;SF Pro Display&quot;,&quot;SF Pro Text&quot;,Helvetica,sans-serif;" transform="matrix(1 0 0 1 263 2007)">symbols with the adjacent text.</text>
  <rect height="14" id="" style="fill:#00AEEF;stroke:none;opacity:0.4;" width="3" x="776" y="1919"/>
  <g id="" transform="matrix(1 0 0 1 779 1933)">
   <path d="M 10.5273 0 L 12.373 0 L 7.17773 -14.0918 L 5.43945 -14.0918 L 0.244141 0 L 2.08984 0 L 3.50586 -4.0332 L 9.11133 -4.0332 Z M 6.2793 -11.9531 L 6.33789 -11.9531 L 8.59375 -5.52734 L 4.02344 -5.52734 Z"/>
  </g>
  <rect height="14" id="" style="fill:#00AEEF;stroke:none;opacity:0.4;" width="3" x="791.617" y="1919"/>
  <text style="stroke:none;fill:black;font-family:-apple-system,&quot;SF Pro Display&quot;,&quot;SF Pro Text&quot;,Helvetica,sans-serif;font-weight:bold;" transform="matrix(1 0 0 1 776 1953)">Margins</text>
  <text style="stroke:none;fill:black;font-family:-apple-system,&quot;SF Pro Display&quot;,&quot;SF Pro Text&quot;,Helvetica,sans-serif;" transform="matrix(1 0 0 1 776 1971)">Leading and trailing margins on the left and right side of each symbol</text>
  <text style="stroke:none;fill:black;font-family:-apple-system,&quot;SF Pro Display&quot;,&quot;SF Pro Text&quot;,Helvetica,sans-serif;" transform="matrix(1 0 0 1 776 1989)">can be adjusted by modifying the width of the blue rectangles.</text>
  <text style="stroke:none;fill:black;font-family:-apple-system,&quot;SF Pro Display&quot;,&quot;SF Pro Text&quot;,Helvetica,sans-serif;" transform="matrix(1 0 0 1 776 2007)">Modifications are automatically applied proportionally to all</text>
  <text style="stroke:none;fill:black;font-family:-apple-system,&quot;SF Pro Display&quot;,&quot;SF Pro Text&quot;,Helvetica,sans-serif;" transform="matrix(1 0 0 1 776 2025)">scales and weights.</text>
  <g id="" transform="matrix(1 0 0 1 1289 1933)">
   <path d="M 2.83203 3.11523 L 4.375 4.6582 C 5.22461 5.48828 6.19141 5.41992 7.06055 4.46289 L 17.2754 -6.66016 C 17.7051 -6.36719 18.0957 -6.37695 18.5645 -6.47461 L 19.6094 -6.68945 L 20.3027 -5.99609 L 20.2539 -5.47852 C 20.1855 -4.95117 20.3516 -4.53125 20.8496 -4.0332 L 21.6602 -3.22266 C 22.168 -2.71484 22.8223 -2.68555 23.3008 -3.16406 L 26.5527 -6.41602 C 27.0312 -6.89453 27.0117 -7.54883 26.5039 -8.05664 L 25.6836 -8.87695 C 25.1855 -9.375 24.7754 -9.55078 24.2383 -9.47266 L 23.7109 -9.41406 L 23.0566 -10.0781 L 23.3398 -11.2207 C 23.4863 -11.7871 23.3398 -12.2559 22.7148 -12.8613 L 20.3027 -15.2539 C 16.7578 -18.7793 12.2266 -18.6719 9.11133 -15.5371 C 8.69141 -15.1074 8.64258 -14.5215 8.91602 -14.0918 C 9.15039 -13.7207 9.62891 -13.4961 10.2734 -13.6621 C 11.7871 -14.043 13.3008 -13.9258 14.7852 -12.9199 L 14.1602 -11.3379 C 13.9258 -10.752 13.9453 -10.2734 14.1797 -9.83398 L 3.01758 0.439453 C 2.08008 1.30859 1.97266 2.25586 2.83203 3.11523 Z M 10.6738 -15.1465 C 13.3398 -17.1387 16.6504 -16.8262 19.0527 -14.4141 L 21.6797 -11.8066 C 21.9141 -11.5723 21.9434 -11.3867 21.8848 -11.0938 L 21.5039 -9.53125 L 23.0762 -7.95898 L 24.043 -8.04688 C 24.3262 -8.07617 24.4141 -8.05664 24.6387 -7.83203 L 25.2637 -7.20703 L 22.5098 -4.46289 L 21.8848 -5.07812 C 21.6602 -5.30273 21.6406 -5.40039 21.6699 -5.68359 L 21.7578 -6.64062 L 20.1953 -8.20312 L 18.5742 -7.89062 C 18.291 -7.83203 18.1445 -7.83203 17.9102 -8.07617 L 15.7324 -10.2539 C 15.5078 -10.4883 15.4785 -10.625 15.6055 -10.9473 L 16.5527 -13.2227 C 14.9512 -14.7559 12.8418 -15.6055 10.8008 -14.9512 C 10.7129 -14.9219 10.6445 -14.9414 10.6152 -14.9805 C 10.5859 -15.0293 10.5859 -15.0781 10.6738 -15.1465 Z M 4.10156 2.41211 C 3.61328 1.91406 3.78906 1.61133 4.12109 1.30859 L 15.0781 -8.80859 L 16.3086 -7.57812 L 6.15234 3.34961 C 5.84961 3.68164 5.46875 3.7793 5.06836 3.37891 Z"/>
  </g>
  <text style="stroke:none;fill:black;font-family:-apple-system,&quot;SF Pro Display&quot;,&quot;SF Pro Text&quot;,Helvetica,sans-serif;font-weight:bold;" transform="matrix(1 0 0 1 1289 1953)">Exporting</text>
  <text style="stroke:none;fill:black;font-family:-apple-system,&quot;SF Pro Display&quot;,&quot;SF Pro Text&quot;,Helvetica,sans-serif;" transform="matrix(1 0 0 1 1289 1971)">Symbols should be outlined when exporting to ensure the</text>
  <text style="stroke:none;fill:black;font-family:-apple-system,&quot;SF Pro Display&quot;,&quot;SF Pro Text&quot;,Helvetica,sans-serif;" transform="matrix(1 0 0 1 1289 1989)">design is preserved when submitting to Xcode.</text>
  <text id="template-version" style="stroke:none;fill:black;font-family:-apple-system,&quot;SF Pro Display&quot;,&quot;SF Pro Text&quot;,Helvetica,sans-serif;text-anchor:end;" transform="matrix(1 0 0 1 3036 1933)">Template v.1.0</text>
  <text style="stroke:none;fill:black;font-family:-apple-system,&quot;SF Pro Display&quot;,&quot;SF Pro Text&quot;,Helvetica,sans-serif;text-anchor:end;" transform="matrix(1 0 0 1 3036 1951)">Generated from square.on.square</text>
  <text style="stroke:none;fill:black;font-family:-apple-system,&quot;SF Pro Display&quot;,&quot;SF Pro Text&quot;,Helvetica,sans-serif;text-anchor:end;" transform="matrix(1 0 0 1 3036 1969)">Typeset at 100 points</text>
  <text style="stroke:none;fill:black;font-family:-apple-system,&quot;SF Pro Display&quot;,&quot;SF Pro Text&quot;,Helvetica,sans-serif;" transform="matrix(1 0 0 1 263 726)">Small</text>
  <text style="stroke:none;fill:black;font-family:-apple-system,&quot;SF Pro Display&quot;,&quot;SF Pro Text&quot;,Helvetica,sans-serif;" transform="matrix(1 0 0 1 263 1156)">Medium</text>
  <text style="stroke:none;fill:black;font-family:-apple-system,&quot;SF Pro Display&quot;,&quot;SF Pro Text&quot;,Helvetica,sans-serif;" transform="matrix(1 0 0 1 263 1586)">Large</text>
 </g>
 <g id="Guides">
  <g id="H-reference" style="fill:#27AAE1;stroke:none;" transform="matrix(1 0 0 1 339 696)">
   <path d="M 54.9316 0 L 57.666 0 L 30.5664 -70.459 L 28.0762 -70.459 L 0.976562 0 L 3.66211 0 L 12.9395 -24.4629 L 45.7031 -24.4629 Z M 29.1992 -67.0898 L 29.4434 -67.0898 L 44.8242 -26.709 L 13.8184 -26.709 Z"/>
  </g>
  <line id="Baseline-S" style="fill:none;stroke:#27AAE1;opacity:1;stroke-width:0.577;" x1="263" x2="3036" y1="696" y2="696"/>
  <line id="Capline-S" style="fill:none;stroke:#27AAE1;opacity:1;stroke-width:0.577;" x1="263" x2="3036" y1="625.541" y2="625.541"/>
  <g id="H-reference" style="fill:#27AAE1;stroke:none;" transform="matrix(1 0 0 1 339 1126)">
   <path d="M 54.9316 0 L 57.666 0 L 30.5664 -70.459 L 28.0762 -70.459 L 0.976562 0 L 3.66211 0 L 12.9395 -24.4629 L 45.7031 -24.4629 Z M 29.1992 -67.0898 L 29.4434 -67.0898 L 44.8242 -26.709 L 13.8184 -26.709 Z"/>
  </g>
  <line id="Baseline-M" style="fill:none;stroke:#27AAE1;opacity:1;stroke-width:0.577;" x1="263" x2="3036" y1="1126" y2="1126"/>
  <line id="Capline-M" style="fill:none;stroke:#27AAE1;opacity:1;stroke-width:0.577;" x1="263" x2="3036" y1="1055.54" y2="1055.54"/>
  <g id="H-reference" style="fill:#27AAE1;stroke:none;" transform="matrix(1 0 0 1 339 1556)">
   <path d="M 54.9316 0 L 57.666 0 L 30.5664 -70.459 L 28.0762 -70.459 L 0.976562 0 L 3.66211 0 L 12.9395 -24.4629 L 45.7031 -24.4629 Z M 29.1992 -67.0898 L 29.4434 -67.0898 L 44.8242 -26.709 L 13.8184 -26.709 Z"/>
  </g>
  <line id="Baseline-L" style="fill:none;stroke:#27AAE1;opacity:1;stroke-width:0.577;" x1="263" x2="3036" y1="1556" y2="1556"/>
  <line id="Capline-L" style="fill:none;stroke:#27AAE1;opacity:1;stroke-width:0.577;" x1="263" x2="3036" y1="1485.54" y2="1485.54"/>
  <rect height="119.336" id="left-margin" style="fill:#00AEEF;stroke:none;opacity:0.4;" width="12.4512" x="1383.8" y="1030.79"/>
  <rect height="119.336" id="right-margin" style="fill:#00AEEF;stroke:none;opacity:0.4;" width="12.4512" x="1503.43" y="1030.79"/>
 </g>
 <g id="Symbols">
  <g id="Black-L" transform="matrix(1 0 0 1 2841.55 1556)">
   <path d="M 39.9902 5.37109 L 51.1719 5.37109 L 51.1719 15.2832 C 51.1719 30.4688 59.8145 39.1113 75.0488 39.1113 L 143.701 39.1113 C 158.936 39.1113 167.627 30.4688 167.627 15.2832 L 167.627 -52.4902 C 167.627 -67.6758 158.936 -76.3184 143.701 -76.3184 L 132.52 -76.3184 L 132.52 -85.9375 C 132.52 -101.172 123.877 -109.766 108.643 -109.766 L 39.9902 -109.766 C 24.707 -109.766 16.0645 -101.172 16.0645 -85.9375 L 16.0645 -18.4082 C 16.0645 -3.22266 24.707 5.37109 39.9902 5.37109 Z M 42.6758 -14.8438 C 38.4766 -14.8438 36.3281 -16.748 36.3281 -21.2891 L 36.3281 -83.1055 C 36.3281 -87.6465 38.4766 -89.5508 42.6758 -89.5508 L 105.908 -89.5508 C 110.107 -89.5508 112.305 -87.6465 112.305 -83.1055 L 112.305 -76.3184 L 75.0488 -76.3184 C 59.8145 -76.3184 51.1719 -67.6758 51.1719 -52.4902 L 51.1719 -14.8438 Z M 77.7832 18.8477 C 73.5352 18.8477 71.3867 16.9434 71.3867 12.4023 L 71.3867 -49.6094 C 71.3867 -54.1504 73.5352 -56.0547 77.7832 -56.0547 L 140.967 -56.0547 C 145.215 -56.0547 147.363 -54.1504 147.363 -49.6094 L 147.363 12.4023 C 147.363 16.9434 145.215 18.8477 140.967 18.8477 Z"/>
  </g>
  <g id="Heavy-L" transform="matrix(1 0 0 1 2546.63 1556)">
   <path d="M 38.8184 4.54102 L 50.1465 4.54102 L 50.1465 14.5996 C 50.1465 29.1504 58.3008 37.2559 72.9004 37.2559 L 141.309 37.2559 C 155.957 37.2559 164.062 29.1504 164.062 14.5996 L 164.062 -53.0273 C 164.062 -67.5781 155.957 -75.6348 141.309 -75.6348 L 129.98 -75.6348 L 129.98 -85.4492 C 129.98 -100 121.826 -108.057 107.227 -108.057 L 38.8184 -108.057 C 24.1699 -108.057 16.0645 -100 16.0645 -85.4492 L 16.0645 -18.1152 C 16.0645 -3.56445 24.1699 4.54102 38.8184 4.54102 Z M 40.918 -12.9883 C 36.084 -12.9883 33.5938 -15.2832 33.5938 -20.4102 L 33.5938 -83.1543 C 33.5938 -88.2812 36.084 -90.5762 40.918 -90.5762 L 105.078 -90.5762 C 109.912 -90.5762 112.451 -88.2812 112.451 -83.1543 L 112.451 -75.6348 L 72.9004 -75.6348 C 58.3008 -75.6348 50.1465 -67.5781 50.1465 -53.0273 L 50.1465 -12.9883 Z M 75.0488 19.7266 C 70.2148 19.7266 67.6758 17.4316 67.6758 12.3047 L 67.6758 -50.7324 C 67.6758 -55.8594 70.2148 -58.1543 75.0488 -58.1543 L 139.209 -58.1543 C 143.994 -58.1543 146.582 -55.8594 146.582 -50.7324 L 146.582 12.3047 C 146.582 17.4316 143.994 19.7266 139.209 19.7266 Z"/>
  </g>
  <g id="Bold-L" transform="matrix(1 0 0 1 2251.89 1556)">
   <path d="M 37.5 3.56445 L 49.0723 3.56445 L 49.0723 13.8672 C 49.0723 27.6855 56.5918 35.1562 70.5078 35.1562 L 138.672 35.1562 C 152.588 35.1562 160.107 27.6855 160.107 13.8672 L 160.107 -53.6133 C 160.107 -67.4316 152.588 -74.9512 138.672 -74.9512 L 127.1 -74.9512 L 127.1 -84.8633 C 127.1 -98.6816 119.58 -106.201 105.664 -106.201 L 37.5 -106.201 C 23.584 -106.201 16.0645 -98.6816 16.0645 -84.8633 L 16.0645 -17.7246 C 16.0645 -3.90625 23.584 3.56445 37.5 3.56445 Z M 38.9648 -10.8887 C 33.4473 -10.8887 30.5176 -13.623 30.5176 -19.3848 L 30.5176 -83.2031 C 30.5176 -88.9648 33.4473 -91.748 38.9648 -91.748 L 104.199 -91.748 C 109.668 -91.748 112.646 -88.9648 112.646 -83.2031 L 112.646 -74.9512 L 70.5078 -74.9512 C 56.5918 -74.9512 49.0723 -67.4805 49.0723 -53.6133 L 49.0723 -10.8887 Z M 71.9727 20.752 C 66.4551 20.752 63.5254 17.9688 63.5254 12.207 L 63.5254 -51.9531 C 63.5254 -57.7148 66.4551 -60.498 71.9727 -60.498 L 137.207 -60.498 C 142.676 -60.498 145.654 -57.7148 145.654 -51.9531 L 145.654 12.207 C 145.654 18.0176 142.676 20.752 137.207 20.752 Z"/>
  </g>
  <g id="Semibold-L" transform="matrix(1 0 0 1 1956.55 1556)">
   <path d="M 36.6211 2.92969 L 48.291 2.92969 L 48.291 13.3301 C 48.291 26.709 55.4199 33.7402 68.8965 33.7402 L 136.816 33.7402 C 150.244 33.7402 157.373 26.6602 157.373 13.3789 L 157.373 -54.0527 C 157.373 -67.334 150.244 -74.4629 136.816 -74.4629 L 125.146 -74.4629 L 125.146 -84.4727 C 125.146 -97.7539 118.018 -104.883 104.541 -104.883 L 36.6211 -104.883 C 23.1445 -104.883 16.0645 -97.8027 16.0645 -84.4727 L 16.0645 -17.4805 C 16.0645 -4.15039 23.1445 2.92969 36.6211 2.92969 Z M 37.5977 -9.42383 C 31.6406 -9.42383 28.418 -12.5 28.418 -18.7012 L 28.418 -83.252 C 28.418 -89.4531 31.6406 -92.5293 37.5977 -92.5293 L 103.564 -92.5293 C 109.473 -92.5293 112.793 -89.4531 112.793 -83.252 L 112.793 -74.4629 L 68.8965 -74.4629 C 55.4199 -74.4629 48.291 -67.3828 48.291 -54.0527 L 48.291 -9.42383 Z M 69.873 21.4355 C 63.8672 21.4355 60.6445 18.3105 60.6445 12.1094 L 60.6445 -52.832 C 60.6445 -59.0332 63.8672 -62.1094 69.873 -62.1094 L 135.84 -62.1094 C 141.748 -62.1094 145.068 -59.0332 145.068 -52.832 L 145.068 12.1582 C 145.068 18.3594 141.748 21.4355 135.84 21.4355 Z"/>
  </g>
  <g id="Medium-L" transform="matrix(1 0 0 1 1660.86 1556)">
   <path d="M 35.9375 2.39258 L 47.7539 2.39258 L 47.7539 12.9395 C 47.7539 25.9277 54.541 32.666 67.627 32.666 L 135.4 32.666 C 148.486 32.666 155.322 25.9277 155.322 12.9883 L 155.322 -54.3457 C 155.322 -67.2852 148.486 -74.0723 135.4 -74.0723 L 123.633 -74.0723 L 123.633 -84.1797 C 123.633 -97.0703 116.797 -103.857 103.76 -103.857 L 35.9375 -103.857 C 22.8516 -103.857 16.0645 -97.1191 16.0645 -84.1797 L 16.0645 -17.2852 C 16.0645 -4.3457 22.8516 2.39258 35.9375 2.39258 Z M 36.5723 -8.30078 C 30.2246 -8.30078 26.8066 -11.6211 26.8066 -18.2129 L 26.8066 -83.252 C 26.8066 -89.8438 30.2246 -93.1152 36.5723 -93.1152 L 103.125 -93.1152 C 109.375 -93.1152 112.891 -89.8438 112.891 -83.252 L 112.891 -74.0723 L 67.627 -74.0723 C 54.541 -74.0723 47.7539 -67.334 47.7539 -54.3457 L 47.7539 -8.30078 Z M 68.2617 21.9238 C 61.8652 21.9238 58.4961 18.6035 58.4961 12.0605 L 58.4961 -53.4668 C 58.4961 -60.0098 61.9141 -63.3301 68.2617 -63.3301 L 134.814 -63.3301 C 141.016 -63.3301 144.58 -60.0098 144.58 -53.4668 L 144.58 12.1094 C 144.58 18.6523 141.016 21.9238 134.814 21.9238 Z"/>
  </g>
  <g id="Regular-L" transform="matrix(1 0 0 1 1365.52 1556)">
   <path d="M 35.0586 1.75781 L 46.9727 1.75781 L 46.9727 12.4512 C 46.9727 24.9512 53.3691 31.25 66.0156 31.25 L 133.594 31.25 C 146.191 31.25 152.588 24.9023 152.588 12.5 L 152.588 -54.7363 C 152.588 -67.1875 146.191 -73.584 133.594 -73.584 L 121.68 -73.584 L 121.68 -83.7891 C 121.68 -96.1914 115.283 -102.588 102.686 -102.588 L 35.0586 -102.588 C 22.4121 -102.588 16.0645 -96.2402 16.0645 -83.7891 L 16.0645 -17.041 C 16.0645 -4.54102 22.4121 1.75781 35.0586 1.75781 Z M 35.2539 -6.88477 C 28.418 -6.88477 24.707 -10.498 24.707 -17.5293 L 24.707 -83.3008 C 24.707 -90.332 28.418 -93.9453 35.2539 -93.9453 L 102.49 -93.9453 C 109.18 -93.9453 113.037 -90.332 113.037 -83.3008 L 113.037 -73.584 L 66.0156 -73.584 C 53.3691 -73.584 46.9727 -67.2363 46.9727 -54.7363 L 46.9727 -6.88477 Z M 66.1621 22.6074 C 59.3262 22.6074 55.6641 18.9453 55.6641 12.0117 L 55.6641 -54.2969 C 55.6641 -61.3281 59.375 -64.9414 66.1621 -64.9414 L 133.447 -64.9414 C 140.137 -64.9414 143.945 -61.3281 143.945 -54.2969 L 143.945 12.0117 C 143.945 19.043 140.137 22.6074 133.447 22.6074 Z"/>
  </g>
  <g id="Light-L" transform="matrix(1 0 0 1 1070 1556)">
   <path d="M 34.0332 1.70898 L 46.2402 1.70898 L 46.2402 12.207 C 46.2402 24.0234 52.3438 30.0781 64.209 30.0781 L 132.227 30.0781 C 144.092 30.0781 150.195 23.9746 150.195 12.2559 L 150.195 -55.3711 C 150.195 -67.041 144.092 -73.1934 132.227 -73.1934 L 120.02 -73.1934 L 120.02 -83.4473 C 120.02 -95.1172 113.867 -101.27 102.051 -101.27 L 34.0332 -101.27 C 22.168 -101.27 16.0645 -95.2148 16.0645 -83.4473 L 16.0645 -16.1621 C 16.0645 -4.39453 22.168 1.70898 34.0332 1.70898 Z M 34.1797 -4.93164 C 26.709 -4.93164 22.7051 -8.88672 22.7051 -16.5039 L 22.7051 -83.1055 C 22.7051 -90.7227 26.709 -94.6777 34.1797 -94.6777 L 101.855 -94.6777 C 109.18 -94.6777 113.379 -90.7227 113.379 -83.1055 L 113.379 -73.1934 L 64.209 -73.1934 C 52.3438 -73.1934 46.2402 -67.1387 46.2402 -55.3711 L 46.2402 -4.93164 Z M 64.4043 23.4863 C 56.8359 23.4863 52.8809 19.4824 52.8809 11.8652 L 52.8809 -54.9805 C 52.8809 -62.6465 56.8848 -66.6016 64.4043 -66.6016 L 132.08 -66.6016 C 139.355 -66.6016 143.604 -62.6465 143.604 -54.9805 L 143.604 11.9141 C 143.604 19.5801 139.355 23.4863 132.08 23.4863 Z"/>
  </g>
  <g id="Thin-L" transform="matrix(1 0 0 1 774.879 1556)">
   <path d="M 32.666 1.61133 L 45.2637 1.61133 L 45.2637 11.9141 C 45.2637 22.8027 51.0254 28.5156 61.8652 28.5156 L 130.42 28.5156 C 141.309 28.5156 147.021 22.7051 147.021 12.0117 L 147.021 -56.1523 C 147.021 -66.8457 141.309 -72.7051 130.42 -72.7051 L 117.822 -72.7051 L 117.822 -83.0078 C 117.822 -93.7012 112.061 -99.5605 101.221 -99.5605 L 32.666 -99.5605 C 21.7773 -99.5605 16.0645 -93.8477 16.0645 -83.0078 L 16.0645 -14.9902 C 16.0645 -4.15039 21.7773 1.61133 32.666 1.61133 Z M 32.8125 -2.34375 C 24.4141 -2.34375 19.9707 -6.73828 19.9707 -15.1855 L 19.9707 -82.8125 C 19.9707 -91.2598 24.4141 -95.6543 32.8125 -95.6543 L 101.025 -95.6543 C 109.18 -95.6543 113.867 -91.2598 113.867 -82.8125 L 113.867 -72.7051 L 61.8652 -72.7051 C 51.0254 -72.7051 45.2637 -66.9922 45.2637 -56.1523 L 45.2637 -2.34375 Z M 62.0605 24.6094 C 53.5156 24.6094 49.2188 20.1172 49.2188 11.7188 L 49.2188 -55.957 C 49.2188 -64.4043 53.6133 -68.7988 62.0605 -68.7988 L 130.273 -68.7988 C 138.379 -68.7988 143.115 -64.4043 143.115 -55.957 L 143.115 11.8164 C 143.115 20.2637 138.379 24.6094 130.273 24.6094 Z"/>
  </g>
  <g id="Ultralight-L" transform="matrix(1 0 0 1 478.974 1556)">
   <path d="M 31.9824 1.5625 L 44.7754 1.5625 L 44.7754 11.7676 C 44.7754 22.168 50.293 27.7344 60.6934 27.7344 L 129.492 27.7344 C 139.844 27.7344 145.41 22.0703 145.41 11.8652 L 145.41 -56.543 C 145.41 -66.748 139.844 -72.4609 129.492 -72.4609 L 116.699 -72.4609 L 116.699 -82.7637 C 116.699 -92.9688 111.133 -98.6816 100.781 -98.6816 L 31.9824 -98.6816 C 21.582 -98.6816 16.0645 -93.1641 16.0645 -82.7637 L 16.0645 -14.4043 C 16.0645 -4.00391 21.582 1.5625 31.9824 1.5625 Z M 32.1289 -1.02539 C 23.1934 -1.02539 18.6035 -5.61523 18.6035 -14.502 L 18.6035 -82.666 C 18.6035 -91.5527 23.1934 -96.1426 32.1289 -96.1426 L 100.635 -96.1426 C 109.18 -96.1426 114.16 -91.5527 114.16 -82.666 L 114.16 -72.4609 L 60.6934 -72.4609 C 50.293 -72.4609 44.7754 -66.8945 44.7754 -56.543 L 44.7754 -1.02539 Z M 60.8398 25.1465 C 51.8555 25.1465 47.3145 20.459 47.3145 11.6699 L 47.3145 -56.3965 C 47.3145 -65.2832 51.9043 -69.9219 60.8398 -69.9219 L 129.346 -69.9219 C 137.891 -69.9219 142.822 -65.2832 142.822 -56.3965 L 142.822 11.7676 C 142.822 20.6543 137.891 25.1465 129.346 25.1465 Z"/>
  </g>
  <g id="Black-M" transform="matrix(1 0 0 1 2860.48 1126)">
   <path d="M 31.9824 -2.63672 L 40.5762 -2.63672 L 40.5762 4.6875 C 40.5762 16.9434 47.8516 24.2188 60.1074 24.2188 L 113.867 24.2188 C 126.123 24.2188 133.398 16.9434 133.398 4.6875 L 133.398 -48.1934 C 133.398 -60.4492 126.123 -67.7246 113.867 -67.7246 L 105.273 -67.7246 L 105.273 -75.0488 C 105.273 -87.3047 97.998 -94.5801 85.7422 -94.5801 L 31.9824 -94.5801 C 19.7266 -94.5801 12.4512 -87.3047 12.4512 -75.0488 L 12.4512 -22.168 C 12.4512 -9.91211 19.7266 -2.63672 31.9824 -2.63672 Z M 34.9121 -20.9473 C 32.0801 -20.9473 30.7617 -22.0215 30.7617 -25.0977 L 30.7617 -72.1191 C 30.7617 -75.2441 32.0801 -76.3184 34.9121 -76.3184 L 82.8125 -76.3184 C 85.6445 -76.3184 87.0117 -75.2441 87.0117 -72.1191 L 87.0117 -67.7246 L 60.1074 -67.7246 C 47.8516 -67.7246 40.5762 -60.4492 40.5762 -48.1934 L 40.5762 -20.9473 Z M 63.0371 5.95703 C 60.2051 5.95703 58.8379 4.83398 58.8379 1.75781 L 58.8379 -45.2637 C 58.8379 -48.3398 60.2051 -49.4141 63.0371 -49.4141 L 110.938 -49.4141 C 113.77 -49.4141 115.088 -48.3398 115.088 -45.2637 L 115.088 1.75781 C 115.088 4.83398 113.77 5.95703 110.938 5.95703 Z"/>
  </g>
  <g id="Heavy-M" transform="matrix(1 0 0 1 2565.4 1126)">
   <path d="M 31.0059 -3.56445 L 39.6973 -3.56445 L 39.6973 4.00391 C 39.6973 15.7715 46.4355 22.5098 58.2031 22.5098 L 111.621 22.5098 C 123.389 22.5098 130.127 15.7715 130.127 4.00391 L 130.127 -48.6328 C 130.127 -60.3516 123.389 -67.1387 111.621 -67.1387 L 102.93 -67.1387 L 102.93 -74.6094 C 102.93 -86.3281 96.1426 -93.0664 84.375 -93.0664 L 31.0059 -93.0664 C 19.1895 -93.0664 12.4512 -86.3281 12.4512 -74.6094 L 12.4512 -22.0703 C 12.4512 -10.3027 19.1895 -3.56445 31.0059 -3.56445 Z M 33.252 -19.3848 C 29.9316 -19.3848 28.2715 -20.8496 28.2715 -24.3652 L 28.2715 -72.2656 C 28.2715 -75.7812 29.9316 -77.2461 33.252 -77.2461 L 82.0801 -77.2461 C 85.4004 -77.2461 87.0605 -75.7812 87.0605 -72.2656 L 87.0605 -67.1387 L 58.2031 -67.1387 C 46.4355 -67.1387 39.6973 -60.3516 39.6973 -48.6328 L 39.6973 -19.3848 Z M 60.498 6.68945 C 57.1777 6.68945 55.5176 5.22461 55.5176 1.70898 L 55.5176 -46.2891 C 55.5176 -49.8535 57.1777 -51.2695 60.498 -51.2695 L 109.326 -51.2695 C 112.646 -51.2695 114.307 -49.8535 114.307 -46.2891 L 114.307 1.70898 C 114.307 5.22461 112.646 6.68945 109.326 6.68945 Z"/>
  </g>
  <g id="Bold-M" transform="matrix(1 0 0 1 2270.5 1126)">
   <path d="M 29.8828 -4.58984 L 38.7207 -4.58984 L 38.7207 3.27148 C 38.7207 14.4531 44.873 20.6055 56.1523 20.6055 L 109.082 20.6055 C 120.312 20.6055 126.514 14.4531 126.514 3.27148 L 126.514 -49.1211 C 126.514 -60.2539 120.312 -66.4551 109.082 -66.4551 L 100.244 -66.4551 L 100.244 -74.0723 C 100.244 -85.2051 94.043 -91.3574 82.8125 -91.3574 L 29.8828 -91.3574 C 18.6523 -91.3574 12.4512 -85.2051 12.4512 -74.0723 L 12.4512 -21.9238 C 12.4512 -10.7422 18.6523 -4.58984 29.8828 -4.58984 Z M 31.3965 -17.6758 C 27.5391 -17.6758 25.5371 -19.4824 25.5371 -23.584 L 25.5371 -72.3633 C 25.5371 -76.4648 27.5391 -78.3203 31.3965 -78.3203 L 81.2988 -78.3203 C 85.1562 -78.3203 87.207 -76.4648 87.207 -72.3633 L 87.207 -66.4551 L 56.1523 -66.4551 C 44.873 -66.4551 38.7207 -60.2539 38.7207 -49.1211 L 38.7207 -17.6758 Z M 57.666 7.51953 C 53.8086 7.51953 51.7578 5.66406 51.7578 1.61133 L 51.7578 -47.4609 C 51.7578 -51.5137 53.8086 -53.3691 57.666 -53.3691 L 107.568 -53.3691 C 111.377 -53.3691 113.428 -51.5137 113.428 -47.4609 L 113.428 1.61133 C 113.428 5.66406 111.377 7.51953 107.568 7.51953 Z"/>
  </g>
  <g id="Semibold-M" transform="matrix(1 0 0 1 1975.03 1126)">
   <path d="M 29.1016 -5.27344 L 38.0371 -5.27344 L 38.0371 2.73438 C 38.0371 13.5254 43.7988 19.2871 54.6875 19.2871 L 107.373 19.2871 C 118.213 19.2871 124.023 13.5254 124.023 2.7832 L 124.023 -49.4629 C 124.023 -60.2051 118.213 -65.9668 107.373 -65.9668 L 98.4375 -65.9668 L 98.4375 -73.6816 C 98.4375 -84.4238 92.627 -90.1855 81.7871 -90.1855 L 29.1016 -90.1855 C 18.2617 -90.1855 12.4512 -84.4727 12.4512 -73.6816 L 12.4512 -21.8262 C 12.4512 -11.0352 18.2617 -5.27344 29.1016 -5.27344 Z M 30.127 -16.4551 C 25.8789 -16.4551 23.6328 -18.6035 23.6328 -23.0469 L 23.6328 -72.4609 C 23.6328 -76.9043 25.8789 -79.0527 30.127 -79.0527 L 80.7617 -79.0527 C 84.9609 -79.0527 87.2559 -76.9043 87.2559 -72.4609 L 87.2559 -65.9668 L 54.6875 -65.9668 C 43.7988 -65.9668 38.0371 -60.2051 38.0371 -49.4629 L 38.0371 -16.4551 Z M 55.7129 8.10547 C 51.4648 8.10547 49.2188 5.95703 49.2188 1.51367 L 49.2188 -48.2422 C 49.2188 -52.6855 51.4648 -54.7852 55.7129 -54.7852 L 106.348 -54.7852 C 110.547 -54.7852 112.842 -52.6855 112.842 -48.2422 L 112.842 1.5625 C 112.842 6.00586 110.547 8.10547 106.348 8.10547 Z"/>
  </g>
  <g id="Medium-M" transform="matrix(1 0 0 1 1679.27 1126)">
   <path d="M 28.5156 -5.81055 L 37.5 -5.81055 L 37.5 2.34375 C 37.5 12.8418 43.0176 18.2617 53.6133 18.2617 L 106.055 18.2617 C 116.602 18.2617 122.119 12.8418 122.119 2.39258 L 122.119 -49.707 C 122.119 -60.1562 116.602 -65.625 106.055 -65.625 L 97.0703 -65.625 L 97.0703 -73.3887 C 97.0703 -83.8379 91.5039 -89.3066 80.957 -89.3066 L 28.5156 -89.3066 C 17.9199 -89.3066 12.4512 -83.8867 12.4512 -73.3887 L 12.4512 -21.7285 C 12.4512 -11.2793 17.9199 -5.81055 28.5156 -5.81055 Z M 29.1504 -15.5762 C 24.6582 -15.5762 22.168 -17.9199 22.168 -22.6074 L 22.168 -72.5098 C 22.168 -77.2461 24.6582 -79.5898 29.1504 -79.5898 L 80.3223 -79.5898 C 84.8145 -79.5898 87.3047 -77.2461 87.3047 -72.5098 L 87.3047 -65.625 L 53.6133 -65.625 C 43.0176 -65.625 37.5 -60.1562 37.5 -49.707 L 37.5 -15.5762 Z M 54.1992 8.54492 C 49.707 8.54492 47.2656 6.20117 47.2656 1.51367 L 47.2656 -48.8281 C 47.2656 -53.5645 49.707 -55.8594 54.1992 -55.8594 L 105.42 -55.8594 C 109.863 -55.8594 112.354 -53.5645 112.354 -48.8281 L 112.354 1.51367 C 112.354 6.20117 109.863 8.54492 105.42 8.54492 Z"/>
  </g>
  <g id="Regular-M" transform="matrix(1 0 0 1 1383.8 1126)">
   <path d="M 27.7832 -6.54297 L 36.8164 -6.54297 L 36.8164 1.85547 C 36.8164 11.9141 41.9434 16.9922 52.1484 16.9922 L 104.297 16.9922 C 114.502 16.9922 119.629 11.9141 119.629 1.85547 L 119.629 -50.0488 C 119.629 -60.0586 114.502 -65.1367 104.297 -65.1367 L 95.2637 -65.1367 L 95.2637 -73.0469 C 95.2637 -83.1055 90.0879 -88.1836 79.9316 -88.1836 L 27.7832 -88.1836 C 17.5293 -88.1836 12.4512 -83.1055 12.4512 -73.0469 L 12.4512 -21.6309 C 12.4512 -11.5723 17.5293 -6.54297 27.7832 -6.54297 Z M 27.8809 -14.4043 C 22.998 -14.4043 20.3125 -16.9922 20.3125 -22.0703 L 20.3125 -72.6074 C 20.3125 -77.6855 22.998 -80.3223 27.8809 -80.3223 L 79.7852 -80.3223 C 84.6191 -80.3223 87.4023 -77.6855 87.4023 -72.6074 L 87.4023 -65.1367 L 52.1484 -65.1367 C 41.9434 -65.1367 36.8164 -60.1074 36.8164 -50.0488 L 36.8164 -14.4043 Z M 52.2949 9.13086 C 47.4121 9.13086 44.6777 6.49414 44.6777 1.41602 L 44.6777 -49.6094 C 44.6777 -54.6875 47.4121 -57.2754 52.2949 -57.2754 L 104.199 -57.2754 C 109.033 -57.2754 111.768 -54.6875 111.768 -49.6094 L 111.768 1.46484 C 111.768 6.49414 109.033 9.13086 104.199 9.13086 Z"/>
  </g>
  <g id="Light-M" transform="matrix(1 0 0 1 1088.17 1126)">
   <path d="M 26.8555 -6.5918 L 36.1816 -6.5918 L 36.1816 1.66016 C 36.1816 11.084 41.0156 15.918 50.5859 15.918 L 103.076 15.918 C 112.598 15.918 117.48 11.084 117.48 1.66016 L 117.48 -50.5371 C 117.48 -59.9609 112.598 -64.8438 103.076 -64.8438 L 93.75 -64.8438 L 93.75 -72.7539 C 93.75 -82.1289 88.8672 -87.0117 79.3457 -87.0117 L 26.8555 -87.0117 C 17.2852 -87.0117 12.4512 -82.1777 12.4512 -72.7539 L 12.4512 -20.8496 C 12.4512 -11.377 17.2852 -6.5918 26.8555 -6.5918 Z M 26.9531 -12.6465 C 21.4844 -12.6465 18.5059 -15.5273 18.5059 -21.1914 L 18.5059 -72.4121 C 18.5059 -78.0762 21.4844 -80.957 26.9531 -80.957 L 79.248 -80.957 C 84.6191 -80.957 87.6953 -78.0762 87.6953 -72.4121 L 87.6953 -64.8438 L 50.5859 -64.8438 C 41.0156 -64.8438 36.1816 -60.0098 36.1816 -50.5371 L 36.1816 -12.6465 Z M 50.6836 9.86328 C 45.166 9.86328 42.2363 6.93359 42.2363 1.31836 L 42.2363 -50.2441 C 42.2363 -55.8594 45.166 -58.7891 50.6836 -58.7891 L 102.979 -58.7891 C 108.35 -58.7891 111.426 -55.8594 111.426 -50.2441 L 111.426 1.36719 C 111.426 6.98242 108.35 9.86328 102.979 9.86328 Z"/>
  </g>
  <g id="Thin-M" transform="matrix(1 0 0 1 792.872 1126)">
   <path d="M 25.6348 -6.68945 L 35.3027 -6.68945 L 35.3027 1.36719 C 35.3027 10.0098 39.7949 14.502 48.4863 14.502 L 101.465 14.502 C 110.107 14.502 114.648 9.96094 114.648 1.41602 L 114.648 -51.2695 C 114.648 -59.7656 110.107 -64.4043 101.465 -64.4043 L 91.7969 -64.4043 L 91.7969 -72.3633 C 91.7969 -80.8594 87.2559 -85.4492 78.6133 -85.4492 L 25.6348 -85.4492 C 16.9922 -85.4492 12.4512 -80.957 12.4512 -72.3633 L 12.4512 -19.8242 C 12.4512 -11.1816 16.9922 -6.68945 25.6348 -6.68945 Z M 25.7324 -10.3027 C 19.3848 -10.3027 16.0645 -13.623 16.0645 -19.9707 L 16.0645 -72.168 C 16.0645 -78.5156 19.3848 -81.8359 25.7324 -81.8359 L 78.5156 -81.8359 C 84.6191 -81.8359 88.1348 -78.5156 88.1348 -72.168 L 88.1348 -64.4043 L 48.4863 -64.4043 C 39.7949 -64.4043 35.3027 -59.8633 35.3027 -51.2695 L 35.3027 -10.3027 Z M 48.584 10.8887 C 42.1875 10.8887 38.916 7.51953 38.916 1.2207 L 38.916 -51.0742 C 38.916 -57.4707 42.2363 -60.7422 48.584 -60.7422 L 101.318 -60.7422 C 107.471 -60.7422 110.986 -57.4707 110.986 -51.0742 L 110.986 1.26953 C 110.986 7.61719 107.471 10.8887 101.318 10.8887 Z"/>
  </g>
  <g id="Ultralight-M" transform="matrix(1 0 0 1 496.894 1126)">
   <path d="M 25 -6.73828 L 34.8633 -6.73828 L 34.8633 1.26953 C 34.8633 9.42383 39.209 13.7695 47.4121 13.7695 L 100.635 13.7695 C 108.838 13.7695 113.184 9.375 113.184 1.31836 L 113.184 -51.6113 C 113.184 -59.668 108.838 -64.1602 100.635 -64.1602 L 90.7715 -64.1602 L 90.7715 -72.1191 C 90.7715 -80.2246 86.4258 -84.668 78.2227 -84.668 L 25 -84.668 C 16.7969 -84.668 12.4512 -80.3223 12.4512 -72.1191 L 12.4512 -19.2383 C 12.4512 -11.084 16.7969 -6.73828 25 -6.73828 Z M 25.0977 -9.13086 C 18.3594 -9.13086 14.8438 -12.5977 14.8438 -19.3848 L 14.8438 -72.0215 C 14.8438 -78.7598 18.3594 -82.2754 25.0977 -82.2754 L 78.125 -82.2754 C 84.6191 -82.2754 88.3789 -78.7598 88.3789 -72.0215 L 88.3789 -64.1602 L 47.4121 -64.1602 C 39.209 -64.1602 34.8633 -59.8145 34.8633 -51.6113 L 34.8633 -9.13086 Z M 47.5098 11.377 C 40.6738 11.377 37.2559 7.8125 37.2559 1.12305 L 37.2559 -51.5137 C 37.2559 -58.252 40.7715 -61.7676 47.5098 -61.7676 L 100.488 -61.7676 C 107.031 -61.7676 110.791 -58.252 110.791 -51.5137 L 110.791 1.17188 C 110.791 7.95898 107.031 11.377 100.488 11.377 Z"/>
  </g>
  <g id="Black-S" transform="matrix(1 0 0 1 2876.37 696)">
   <path d="M 25 -9.76562 L 31.7383 -9.76562 L 31.7383 -4.00391 C 31.7383 5.56641 37.4023 11.2305 46.9727 11.2305 L 89.0625 11.2305 C 98.6328 11.2305 104.297 5.56641 104.297 -4.00391 L 104.297 -45.4102 C 104.297 -54.9805 98.6328 -60.6445 89.0625 -60.6445 L 82.3242 -60.6445 L 82.3242 -66.4062 C 82.3242 -75.9766 76.6602 -81.6406 67.0898 -81.6406 L 25 -81.6406 C 15.4297 -81.6406 9.76562 -75.9766 9.76562 -66.4062 L 9.76562 -25 C 9.76562 -15.4297 15.4297 -9.76562 25 -9.76562 Z M 27.2461 -23.9258 C 25 -23.9258 23.9258 -24.8047 23.9258 -27.2461 L 23.9258 -64.1602 C 23.9258 -66.6016 25 -67.4805 27.2461 -67.4805 L 64.8438 -67.4805 C 67.0898 -67.4805 68.1641 -66.6016 68.1641 -64.1602 L 68.1641 -60.6445 L 46.9727 -60.6445 C 37.4023 -60.6445 31.7383 -54.9805 31.7383 -45.4102 L 31.7383 -23.9258 Z M 49.2188 -2.92969 C 46.9727 -2.92969 45.8984 -3.80859 45.8984 -6.25 L 45.8984 -43.1641 C 45.8984 -45.6055 46.9727 -46.4844 49.2188 -46.4844 L 86.8164 -46.4844 C 89.0625 -46.4844 90.1367 -45.6055 90.1367 -43.1641 L 90.1367 -6.25 C 90.1367 -3.80859 89.0625 -2.92969 86.8164 -2.92969 Z"/>
  </g>
  <g id="Heavy-S" transform="matrix(1 0 0 1 2580.78 696)">
   <path d="M 24.3652 -10.4492 L 31.1523 -10.4492 L 31.1523 -4.49219 C 31.1523 4.73633 36.4258 10.0586 45.7031 10.0586 L 87.4512 10.0586 C 96.7285 10.0586 102.051 4.73633 102.051 -4.49219 L 102.051 -45.7031 C 102.051 -54.9316 96.7285 -60.2051 87.4512 -60.2051 L 80.6641 -60.2051 L 80.6641 -66.0645 C 80.6641 -75.3418 75.3906 -80.6152 66.1133 -80.6152 L 24.3652 -80.6152 C 15.0391 -80.6152 9.76562 -75.3418 9.76562 -66.0645 L 9.76562 -25 C 9.76562 -15.7227 15.0391 -10.4492 24.3652 -10.4492 Z M 26.0742 -22.9492 C 23.5352 -22.9492 22.2656 -24.0723 22.2656 -26.8066 L 22.2656 -64.2578 C 22.2656 -66.9922 23.5352 -68.1152 26.0742 -68.1152 L 64.3555 -68.1152 C 66.8945 -68.1152 68.2129 -66.9922 68.2129 -64.2578 L 68.2129 -60.2051 L 45.7031 -60.2051 C 36.4258 -60.2051 31.1523 -54.9316 31.1523 -45.7031 L 31.1523 -22.9492 Z M 47.4609 -2.44141 C 44.9219 -2.44141 43.6035 -3.56445 43.6035 -6.29883 L 43.6035 -43.8965 C 43.6035 -46.6309 44.9219 -47.7539 47.4609 -47.7539 L 85.7422 -47.7539 C 88.2812 -47.7539 89.5508 -46.6309 89.5508 -43.8965 L 89.5508 -6.29883 C 89.5508 -3.56445 88.2812 -2.44141 85.7422 -2.44141 Z"/>
  </g>
  <g id="Bold-S" transform="matrix(1 0 0 1 2285.31 696)">
   <path d="M 23.6328 -11.2305 L 30.4688 -11.2305 L 30.4688 -5.0293 C 30.4688 3.85742 35.3516 8.69141 44.2871 8.69141 L 85.6934 8.69141 C 94.6289 8.69141 99.5605 3.85742 99.5605 -5.0293 L 99.5605 -45.9961 C 99.5605 -54.8828 94.6289 -59.7168 85.6934 -59.7168 L 78.8574 -59.7168 L 78.8574 -65.7227 C 78.8574 -74.5605 73.9258 -79.4434 64.9902 -79.4434 L 23.6328 -79.4434 C 14.6484 -79.4434 9.76562 -74.6094 9.76562 -65.7227 L 9.76562 -25 C 9.76562 -16.1133 14.6484 -11.2305 23.6328 -11.2305 Z M 24.8047 -21.8262 C 21.9238 -21.8262 20.3613 -23.2422 20.3613 -26.3184 L 20.3613 -64.4043 C 20.3613 -67.4805 21.9238 -68.8477 24.8047 -68.8477 L 63.8184 -68.8477 C 66.6992 -68.8477 68.2617 -67.4805 68.2617 -64.4043 L 68.2617 -59.7168 L 44.2871 -59.7168 C 35.3516 -59.7168 30.4688 -54.8828 30.4688 -45.9961 L 30.4688 -21.8262 Z M 45.459 -1.9043 C 42.5781 -1.9043 41.0645 -3.27148 41.0645 -6.34766 L 41.0645 -44.6777 C 41.0645 -47.7539 42.5781 -49.1211 45.459 -49.1211 L 84.5215 -49.1211 C 87.4023 -49.1211 88.916 -47.7539 88.916 -44.6777 L 88.916 -6.34766 C 88.916 -3.27148 87.4023 -1.9043 84.5215 -1.9043 Z"/>
  </g>
  <g id="Semibold-S" transform="matrix(1 0 0 1 1989.48 696)">
   <path d="M 23.0957 -11.7676 L 29.9805 -11.7676 L 29.9805 -5.41992 C 29.9805 3.22266 34.6191 7.8125 43.3594 7.8125 L 84.4727 7.8125 C 93.1641 7.8125 97.8027 3.22266 97.8027 -5.41992 L 97.8027 -46.1914 C 97.8027 -54.834 93.1641 -59.4238 84.4727 -59.4238 L 77.5879 -59.4238 L 77.5879 -65.4297 C 77.5879 -74.0723 72.9492 -78.6621 64.209 -78.6621 L 23.0957 -78.6621 C 14.3555 -78.6621 9.76562 -74.0723 9.76562 -65.4297 L 9.76562 -25 C 9.76562 -16.3574 14.3555 -11.7676 23.0957 -11.7676 Z M 23.877 -21.0938 C 20.752 -21.0938 19.0918 -22.6562 19.0918 -25.9766 L 19.0918 -64.4531 C 19.0918 -67.7734 20.752 -69.3359 23.877 -69.3359 L 63.4277 -69.3359 C 66.5527 -69.3359 68.2617 -67.7734 68.2617 -64.4531 L 68.2617 -59.4238 L 43.3594 -59.4238 C 34.6191 -59.4238 29.9805 -54.834 29.9805 -46.1914 L 29.9805 -21.0938 Z M 44.1406 -1.51367 C 41.0156 -1.51367 39.3066 -3.07617 39.3066 -6.39648 L 39.3066 -45.2148 C 39.3066 -48.5352 41.0156 -50.0977 44.1406 -50.0977 L 83.6914 -50.0977 C 86.8164 -50.0977 88.5254 -48.5352 88.5254 -45.2148 L 88.5254 -6.39648 C 88.5254 -3.07617 86.8164 -1.51367 83.6914 -1.51367 Z"/>
  </g>
  <g id="Medium-S" transform="matrix(1 0 0 1 1693.43 696)">
   <path d="M 22.7051 -12.1582 L 29.6387 -12.1582 L 29.6387 -5.71289 C 29.6387 2.73438 34.0332 7.08008 42.627 7.08008 L 83.5449 7.08008 C 92.0898 7.08008 96.4844 2.73438 96.4844 -5.71289 L 96.4844 -46.3379 C 96.4844 -54.7852 92.0898 -59.1797 83.5449 -59.1797 L 76.6113 -59.1797 L 76.6113 -65.2344 C 76.6113 -73.6816 72.168 -78.0273 63.6719 -78.0273 L 22.7051 -78.0273 C 14.1602 -78.0273 9.76562 -73.6816 9.76562 -65.2344 L 9.76562 -25 C 9.76562 -16.5527 14.1602 -12.1582 22.7051 -12.1582 Z M 23.1934 -20.5078 C 19.9219 -20.5078 18.0664 -22.2168 18.0664 -25.6836 L 18.0664 -64.5508 C 18.0664 -68.0176 19.9219 -69.7266 23.1934 -69.7266 L 63.1836 -69.7266 C 66.4551 -69.7266 68.3105 -68.0176 68.3105 -64.5508 L 68.3105 -59.1797 L 42.627 -59.1797 C 34.0332 -59.1797 29.6387 -54.7852 29.6387 -46.3379 L 29.6387 -20.5078 Z M 43.0664 -1.2207 C 39.7949 -1.2207 37.9883 -2.92969 37.9883 -6.44531 L 37.9883 -45.6543 C 37.9883 -49.1211 39.7949 -50.8301 43.0664 -50.8301 L 83.0566 -50.8301 C 86.3281 -50.8301 88.1836 -49.1211 88.1836 -45.6543 L 88.1836 -6.39648 C 88.1836 -2.92969 86.3281 -1.2207 83.0566 -1.2207 Z"/>
  </g>
  <g id="Regular-S" transform="matrix(1 0 0 1 1397.57 696)">
   <path d="M 22.2168 -12.6953 L 29.1992 -12.6953 L 29.1992 -6.10352 C 29.1992 2.09961 33.3008 6.20117 41.6504 6.20117 L 82.3242 6.20117 C 90.625 6.20117 94.7754 2.09961 94.7754 -6.10352 L 94.7754 -46.582 C 94.7754 -54.7852 90.625 -58.8379 82.3242 -58.8379 L 75.3418 -58.8379 L 75.3418 -64.9902 C 75.3418 -73.1934 71.1914 -77.2461 62.8906 -77.2461 L 22.2168 -77.2461 C 13.8672 -77.2461 9.76562 -73.1934 9.76562 -64.9902 L 9.76562 -24.9512 C 9.76562 -16.748 13.8672 -12.6953 22.2168 -12.6953 Z M 22.3145 -19.7266 C 18.7988 -19.7266 16.7969 -21.6309 16.7969 -25.3418 L 16.7969 -64.5996 C 16.7969 -68.3105 18.7988 -70.2148 22.3145 -70.2148 L 62.793 -70.2148 C 66.3086 -70.2148 68.3105 -68.3105 68.3105 -64.5996 L 68.3105 -58.8379 L 41.6504 -58.8379 C 33.3008 -58.8379 29.1992 -54.7852 29.1992 -46.582 L 29.1992 -19.7266 Z M 41.748 -0.878906 C 38.2324 -0.878906 36.2305 -2.7832 36.2305 -6.44531 L 36.2305 -46.1914 C 36.2305 -49.9023 38.2324 -51.8066 41.748 -51.8066 L 82.2266 -51.8066 C 85.7422 -51.8066 87.7441 -49.9023 87.7441 -46.1914 L 87.7441 -6.44531 C 87.7441 -2.73438 85.7422 -0.878906 82.2266 -0.878906 Z"/>
  </g>
  <g id="Light-S" transform="matrix(1 0 0 1 1101.81 696)">
   <path d="M 21.3867 -12.7441 L 28.6133 -12.7441 L 28.6133 -6.25 C 28.6133 1.36719 32.5195 5.22461 40.2344 5.22461 L 81.25 5.22461 C 88.9648 5.22461 92.8711 1.36719 92.8711 -6.25 L 92.8711 -47.0215 C 92.8711 -54.6387 88.9648 -58.5449 81.25 -58.5449 L 74.0234 -58.5449 L 74.0234 -64.7461 C 74.0234 -72.3633 70.1172 -76.2207 62.4023 -76.2207 L 21.3867 -76.2207 C 13.6719 -76.2207 9.76562 -72.3633 9.76562 -64.7461 L 9.76562 -24.2676 C 9.76562 -16.6016 13.6719 -12.7441 21.3867 -12.7441 Z M 21.4844 -18.2129 C 17.4316 -18.2129 15.1855 -20.3613 15.1855 -24.5605 L 15.1855 -64.4531 C 15.1855 -68.6523 17.4316 -70.8008 21.4844 -70.8008 L 62.3047 -70.8008 C 66.3086 -70.8008 68.6035 -68.6523 68.6035 -64.4531 L 68.6035 -58.5449 L 40.2344 -58.5449 C 32.5195 -58.5449 28.6133 -54.6875 28.6133 -47.0215 L 28.6133 -18.2129 Z M 40.332 -0.195312 C 36.2305 -0.195312 34.0332 -2.34375 34.0332 -6.54297 L 34.0332 -46.7285 C 34.0332 -50.9277 36.2793 -53.125 40.332 -53.125 L 81.1523 -53.125 C 85.1562 -53.125 87.4512 -50.9277 87.4512 -46.7285 L 87.4512 -6.54297 C 87.4512 -2.34375 85.1562 -0.195312 81.1523 -0.195312 Z"/>
  </g>
  <g id="Thin-S" transform="matrix(1 0 0 1 806.349 696)">
   <path d="M 20.3125 -12.8418 L 27.832 -12.8418 L 27.832 -6.49414 C 27.832 0.439453 31.4453 4.00391 38.3789 4.00391 L 79.834 4.00391 C 86.7676 4.00391 90.3809 0.390625 90.3809 -6.44531 L 90.3809 -47.6562 C 90.3809 -54.4922 86.7676 -58.1543 79.834 -58.1543 L 72.3145 -58.1543 L 72.3145 -64.4043 C 72.3145 -71.2402 68.7012 -74.9023 61.7676 -74.9023 L 20.3125 -74.9023 C 13.3789 -74.9023 9.76562 -71.2891 9.76562 -64.4043 L 9.76562 -23.3398 C 9.76562 -16.4551 13.3789 -12.8418 20.3125 -12.8418 Z M 20.4102 -16.1621 C 15.625 -16.1621 13.0859 -18.6523 13.0859 -23.5352 L 13.0859 -64.209 C 13.0859 -69.043 15.625 -71.582 20.4102 -71.582 L 61.6699 -71.582 C 66.3086 -71.582 68.9941 -69.043 68.9941 -64.209 L 68.9941 -58.1543 L 38.3789 -58.1543 C 31.4453 -58.1543 27.832 -54.5898 27.832 -47.6562 L 27.832 -16.1621 Z M 38.4766 0.683594 C 33.6426 0.683594 31.1523 -1.85547 31.1523 -6.64062 L 31.1523 -47.4609 C 31.1523 -52.3438 33.6914 -54.834 38.4766 -54.834 L 79.7363 -54.834 C 84.375 -54.834 87.0605 -52.3438 87.0605 -47.4609 L 87.0605 -6.64062 C 87.0605 -1.75781 84.375 0.683594 79.7363 0.683594 Z"/>
  </g>
  <g id="Ultralight-S" transform="matrix(1 0 0 1 510.297 696)">
   <path d="M 19.7754 -12.8906 L 27.4414 -12.8906 L 27.4414 -6.5918 C 27.4414 -0.0976562 30.9082 3.36914 37.4023 3.36914 L 79.0527 3.36914 C 85.5957 3.36914 89.0625 -0.146484 89.0625 -6.54297 L 89.0625 -47.998 C 89.0625 -54.3945 85.5957 -57.959 79.0527 -57.959 L 71.3867 -57.959 L 71.3867 -64.209 C 71.3867 -70.6543 67.9199 -74.1699 61.4258 -74.1699 L 19.7754 -74.1699 C 13.2324 -74.1699 9.76562 -70.752 9.76562 -64.209 L 9.76562 -22.8516 C 9.76562 -16.3086 13.2324 -12.8906 19.7754 -12.8906 Z M 19.873 -15.0879 C 14.6484 -15.0879 11.9629 -17.7734 11.9629 -22.998 L 11.9629 -64.1113 C 11.9629 -69.2871 14.6484 -71.9727 19.873 -71.9727 L 61.3281 -71.9727 C 66.3086 -71.9727 69.1895 -69.2871 69.1895 -64.1113 L 69.1895 -57.959 L 37.4023 -57.959 C 30.9082 -57.959 27.4414 -54.4922 27.4414 -47.998 L 27.4414 -15.0879 Z M 37.5 1.17188 C 32.2754 1.17188 29.6387 -1.5625 29.6387 -6.73828 L 29.6387 -47.8516 C 29.6387 -53.0762 32.3242 -55.7617 37.5 -55.7617 L 78.9551 -55.7617 C 83.9844 -55.7617 86.8652 -53.0762 86.8652 -47.8516 L 86.8652 -6.68945 C 86.8652 -1.46484 83.9844 1.17188 78.9551 1.17188 Z"/>
  </g>
 </g>
</svg>
