<svg width="24" height="24" viewBox="0 0 24 24" fill="none" xmlns="http://www.w3.org/2000/svg">
<path d="M16.2929 14.293C16.6834 13.9025 17.3164 13.9025 17.707 14.293C18.0974 14.6835 18.0974 15.3165 17.707 15.707L12.707 20.707C12.5194 20.8945 12.2651 21 11.9999 21C11.7347 21 11.4804 20.8945 11.2929 20.707L6.29289 15.707C5.90237 15.3165 5.90237 14.6835 6.29289 14.293C6.68342 13.9025 7.31644 13.9025 7.70696 14.293L11.9999 18.5859L16.2929 14.293Z" fill="#0F0F0F"/>
<path d="M11.9999 2.99902C12.265 2.99904 12.5195 3.1046 12.707 3.29199L17.707 8.29297C18.0972 8.68352 18.0974 9.3166 17.707 9.70703C17.3164 10.0973 16.6833 10.0965 16.2929 9.70605L11.9999 5.41309L7.70696 9.70605C7.31643 10.0966 6.68342 10.0966 6.29289 9.70605C5.90258 9.31551 5.90244 8.68245 6.29289 8.29199L11.2929 3.29199C11.4804 3.10463 11.7348 2.99902 11.9999 2.99902Z" fill="#0F0F0F"/>
</svg>
