<svg width="20" height="20" viewBox="0 0 20 20" fill="none" xmlns="http://www.w3.org/2000/svg">
<path d="M13.2221 11.9663C13.5149 11.6737 13.9898 11.6737 14.2827 11.9663C14.5755 12.2591 14.5755 12.7349 14.2827 13.0278L10.5307 16.7797C10.2378 17.0726 9.76208 17.0726 9.46918 16.7797L5.71723 13.0278C5.42434 12.7349 5.42434 12.2591 5.71723 11.9663C6.01006 11.6737 6.48496 11.6737 6.77777 11.9663L10.0004 15.1889L13.2221 11.9663Z" fill="#0F0F0F"/>
<path d="M9.46918 3.22016C9.76207 2.92726 10.2378 2.92726 10.5307 3.22016L14.2827 6.97211C14.5752 7.26503 14.5754 7.74086 14.2827 8.03363C13.9899 8.32606 13.515 8.32585 13.2221 8.03363L10.0004 4.81098L6.77777 8.03363C6.48506 8.32605 6.01008 8.32585 5.71723 8.03363C5.42435 7.74075 5.42437 7.26501 5.71723 6.97211L9.46918 3.22016Z" fill="#0F0F0F"/>
</svg>
