<svg width="20" height="20" viewBox="0 0 20 20" fill="none" xmlns="http://www.w3.org/2000/svg">
<path d="M9.83186 7.4149C10.039 7.05621 10.4977 6.93355 10.8564 7.14065C11.8968 7.74136 12.7231 8.653 13.2189 9.74726C13.7146 10.8415 13.8553 12.0635 13.6209 13.2417C13.3865 14.4201 12.7888 15.4958 11.9119 16.3171C11.0351 17.1383 9.92267 17.6642 8.7316 17.821C7.54053 17.9777 6.33 17.7574 5.2705 17.1911C4.21108 16.6248 3.35557 15.7408 2.82421 14.6634C2.29287 13.586 2.11261 12.3689 2.30826 11.1836C2.50396 9.99831 3.06607 8.90406 3.91552 8.05455C4.20841 7.76165 4.68301 7.76165 4.97591 8.05455C5.26869 8.34745 5.26876 8.82207 4.97591 9.11493C4.34807 9.74283 3.9324 10.5517 3.78775 11.4278C3.64315 12.3037 3.77682 13.2031 4.16943 13.9994C4.56214 14.7957 5.19466 15.4493 5.9777 15.8679C6.76085 16.2865 7.65588 16.4493 8.53629 16.3334C9.41659 16.2174 10.2385 15.8287 10.8865 15.2217C11.5346 14.6147 11.9763 13.8196 12.1496 12.9488C12.3227 12.0779 12.219 11.1745 11.8525 10.3657C11.486 9.55698 10.8751 8.88345 10.1061 8.43948C9.74747 8.23234 9.62477 7.77359 9.83186 7.4149ZM11.4717 2.17808C12.6628 2.02127 13.8732 2.24167 14.9328 2.80797C15.9923 3.37431 16.8485 4.25811 17.3799 5.33563C17.9112 6.41312 18.0915 7.63013 17.8958 8.81545C17.7001 10.0008 17.138 11.095 16.2886 11.9445C15.9957 12.2374 15.5203 12.2374 15.2274 11.9445C14.9348 11.6517 14.9348 11.177 15.2274 10.8841C15.8552 10.2563 16.2708 9.44736 16.4155 8.57131C16.5602 7.69516 16.4266 6.79532 16.0338 5.99888C15.6411 5.20258 15.0086 4.54895 14.2256 4.13039C13.4425 3.71195 12.5481 3.54902 11.6678 3.6649C10.7875 3.78079 9.96562 4.16967 9.31754 4.77655C8.66946 5.38354 8.22779 6.17863 8.05452 7.0495C7.88129 7.9204 7.98512 8.82369 8.35156 9.63251C8.71801 10.4413 9.32821 11.1156 10.0972 11.5596C10.4559 11.7667 10.5793 12.2254 10.3722 12.5842C10.1651 12.9428 9.70631 13.0654 9.34765 12.8584C8.30719 12.2577 7.48102 11.3461 6.98518 10.2518C6.48939 9.15757 6.34886 7.93559 6.58316 6.75735C6.81755 5.57901 7.41527 4.50327 8.29215 3.68199C9.16891 2.86088 10.2807 2.33495 11.4717 2.17808Z" fill="#919191"/>
</svg>
