<svg width="24" height="24" viewBox="0 0 24 24" fill="none" xmlns="http://www.w3.org/2000/svg">
<path d="M18.6558 15.2241C18.8977 14.9204 19.3282 14.8536 19.6479 15.0591L19.7104 15.104L19.8745 15.2446C20.2471 15.5853 20.5317 16.0237 20.5317 16.6001C20.5317 17.4321 19.9471 17.9693 19.3364 18.3618C18.8683 18.6626 18.2376 18.9701 17.4829 19.3188L16.688 19.6831L15.2134 20.355C13.847 20.9776 12.9608 21.3988 12.0005 21.3989C11.2801 21.3989 10.6009 21.1619 9.72998 20.7808L8.78662 20.355L7.31201 19.6831C6.20028 19.1765 5.28773 18.7629 4.66357 18.3618C4.0529 17.9693 3.46827 17.4321 3.46826 16.6001C3.46831 15.9414 3.83961 15.4624 4.28955 15.104L4.35205 15.0591C4.67177 14.8536 5.1023 14.9204 5.34424 15.2241C5.60187 15.5481 5.54792 16.0199 5.22412 16.2778L5.13525 16.353C5.05868 16.423 5.01748 16.4769 4.99561 16.5132C4.97235 16.5519 4.96827 16.5749 4.96826 16.6001C4.96825 16.6169 4.95106 16.7633 5.4751 17.1001C5.98587 17.4283 6.77621 17.7903 7.93408 18.3179L9.40869 18.9897L10.3638 19.4185C11.1711 19.7695 11.5814 19.8989 12.0005 19.8989C12.5591 19.8988 13.1015 19.6686 14.5913 18.9897L16.0659 18.3179L16.8667 17.9517C17.6015 17.6118 18.1418 17.3463 18.5249 17.1001C19.0489 16.7633 19.0317 16.6169 19.0317 16.6001C19.0317 16.5749 19.0276 16.5519 19.0044 16.5132C18.9825 16.4769 18.9413 16.423 18.8647 16.353L18.7759 16.2778L18.7183 16.2271C18.4463 15.9615 18.4142 15.5279 18.6558 15.2241Z" fill="#0099FF"/>
<path d="M3.79053 10.7837C4.03058 10.4462 4.49887 10.3669 4.83643 10.6069C5.17383 10.8469 5.253 11.3153 5.01318 11.6528C4.97181 11.711 4.96827 11.7405 4.96826 11.7661C4.96826 11.7829 4.95088 11.9292 5.4751 12.2661C5.98587 12.5943 6.77618 12.9563 7.93408 13.4839L9.40869 14.1558L10.3638 14.5845C11.1711 14.9355 11.5814 15.0649 12.0005 15.0649C12.5591 15.0648 13.1015 14.8346 14.5913 14.1558L16.0659 13.4839L16.8667 13.1177C17.6015 12.7778 18.1418 12.5123 18.5249 12.2661C19.0491 11.9292 19.0317 11.7829 19.0317 11.7661C19.0317 11.7534 19.0308 11.7398 19.0249 11.7222L18.9868 11.6528L18.9458 11.5884C18.7579 11.2579 18.8471 10.832 19.1636 10.6069C19.4799 10.382 19.9111 10.4375 20.1616 10.7231L20.2095 10.7837L20.2817 10.8931C20.4404 11.1522 20.5317 11.4439 20.5317 11.7661C20.5317 12.5981 19.9471 13.1353 19.3364 13.5278C18.8683 13.8287 18.2378 14.137 17.4829 14.4858L16.688 14.8491L15.2134 15.521C13.847 16.1436 12.9608 16.5648 12.0005 16.5649C11.2801 16.5649 10.6009 16.328 9.72998 15.9468L8.78662 15.521L7.31201 14.8491C6.20028 14.3426 5.28773 13.9289 4.66357 13.5278C4.05289 13.1353 3.46826 12.5981 3.46826 11.7661C3.46828 11.3978 3.58756 11.0691 3.79053 10.7837Z" fill="#0099FF"/>
<path fill-rule="evenodd" clip-rule="evenodd" d="M12.0005 2.604C12.9636 2.60415 13.8518 3.03239 15.2173 3.66357L16.6909 4.34521L17.4868 4.71436C18.2416 5.06819 18.8721 5.38079 19.3403 5.68604C19.9539 6.08612 20.5317 6.62841 20.5317 7.46143C20.5316 8.29437 19.954 8.83677 19.3403 9.23682C18.8721 9.54204 18.2416 9.8537 17.4868 10.2075L16.6909 10.5767L15.2173 11.2583C13.8517 11.8895 12.9636 12.3177 12.0005 12.3179C11.278 12.3179 10.5973 12.0768 9.72607 11.6899L8.78271 11.2583L7.30908 10.5767C6.19728 10.0627 5.28407 9.64387 4.65967 9.23682C4.04603 8.83677 3.46844 8.29438 3.46826 7.46143C3.46826 6.62841 4.04606 6.08612 4.65967 5.68604C5.28407 5.27897 6.19727 4.85913 7.30908 4.34521L8.78271 3.66357L9.72607 3.23193C10.5973 2.84508 11.278 2.604 12.0005 2.604ZM12.0005 4.104C11.5834 4.104 11.1747 4.23436 10.3677 4.59033L9.41162 5.0249L7.93799 5.70654C6.77981 6.24189 5.98963 6.60902 5.479 6.94189C4.95771 7.28174 4.96826 7.43339 4.96826 7.46143C4.96818 7.49045 4.9601 7.6417 5.479 7.97998C5.98962 8.31286 6.77977 8.67997 7.93799 9.21533L9.41162 9.89697L10.3677 10.3315C11.1748 10.6875 11.5834 10.8179 12.0005 10.8179C12.5564 10.8177 13.0974 10.5862 14.5884 9.89697L16.062 9.21533L16.8628 8.84326C17.5976 8.49845 18.138 8.22967 18.521 7.97998C19.0399 7.6417 19.0318 7.49045 19.0317 7.46143C19.0317 7.43339 19.0423 7.28174 18.521 6.94189C18.138 6.69222 17.5976 6.42342 16.8628 6.07861L16.062 5.70654L14.5884 5.0249C13.0974 4.33571 12.5564 4.10414 12.0005 4.104Z" fill="#0099FF"/>
</svg>
