<svg width="24" height="24" viewBox="0 0 24 24" fill="none" xmlns="http://www.w3.org/2000/svg">
<path d="M12 2C17.5228 2 22 6.47715 22 12C22 17.5228 17.5228 22 12 22C6.47715 22 2 17.5228 2 12C2 6.47715 6.47715 2 12 2ZM16.207 7.79297C15.8165 7.40292 15.1833 7.4026 14.793 7.79297L12 10.5859L9.20703 7.79297C8.81649 7.40266 8.18342 7.40252 7.79297 7.79297C7.40261 8.18343 7.40269 8.81652 7.79297 9.20703L10.5859 12L7.79297 14.793C7.40261 15.1834 7.40269 15.8175 7.79297 16.208C8.18343 16.5978 8.81669 16.598 9.20703 16.208L12 13.4141L14.793 16.207C15.1835 16.5971 15.8166 16.5973 16.207 16.207C16.5974 15.8166 16.5972 15.1835 16.207 14.793L13.4141 12L16.207 9.20703C16.5974 8.81664 16.5972 8.18352 16.207 7.79297Z" fill="#0F0F0F"/>
</svg>
