<svg width="20" height="20" viewBox="0 0 20 20" fill="none" xmlns="http://www.w3.org/2000/svg">
<path d="M10 2C14.4183 2 18 5.58172 18 10C18 14.4183 14.4183 18 10 18C5.58172 18 2 14.4183 2 10C2 5.58172 5.58172 2 10 2ZM13.5312 6.46973C13.2384 6.17694 12.7626 6.17697 12.4697 6.46973L10 8.93945L7.53027 6.46973C7.23742 6.17694 6.76261 6.17698 6.46973 6.46973C6.17701 6.76261 6.17695 7.23743 6.46973 7.53027L8.93945 10L6.4707 12.4697C6.17799 12.7626 6.17792 13.2374 6.4707 13.5303C6.76358 13.8227 7.23849 13.8229 7.53125 13.5303L10 11.0605L12.4697 13.5303C12.7626 13.8229 13.2374 13.8229 13.5303 13.5303C13.823 13.2375 13.8229 12.7626 13.5303 12.4697L11.0605 10L13.5312 7.53027C13.8236 7.23751 13.8235 6.76254 13.5312 6.46973Z" fill="#0F0F0F"/>
</svg>
