<svg width="36" height="36" viewBox="0 0 36 36" fill="none" xmlns="http://www.w3.org/2000/svg">
<path d="M14.0906 12.1575L13.0337 8.21056L12.9045 12.2945C12.8654 13.5285 12.0227 14.5913 10.8302 14.9107L6.88322 15.9676L10.9672 16.0968C12.2012 16.1359 13.264 16.9786 13.5833 18.1711L14.6402 22.1181L14.7695 18.0341C14.8085 16.8001 15.6512 15.7373 16.8438 15.418L20.7907 14.3611L16.7068 14.2318C15.4728 14.1928 14.41 13.3501 14.0906 12.1575Z" fill="#919191"/>
<path fill-rule="evenodd" clip-rule="evenodd" d="M5.72634 5.95085C4.08043 6.14098 2.90028 7.62938 3.09041 9.27529L4.69694 23.1828C4.88707 24.8287 6.37547 26.0089 8.02138 25.8187L12.9536 25.249L12.7912 26.2814C12.5337 27.9181 13.6518 29.4537 15.2885 29.7112L27.5358 31.6381C29.1726 31.8956 30.7081 30.7775 30.9656 29.1408L32.8928 16.8915C33.1503 15.2548 32.0322 13.7192 30.3955 13.4617L23.5832 12.3899L22.9583 6.98024C22.7682 5.33433 21.2798 4.15419 19.6339 4.34432L5.72634 5.95085ZM19.7486 5.33771L5.84109 6.94424C4.74382 7.071 3.95705 8.06326 4.0838 9.16054L5.69034 23.0681C5.81709 24.1653 6.80936 24.9521 7.90663 24.8253L21.8141 23.2188C22.9114 23.0921 23.6982 22.0998 23.5714 21.0025L21.9649 7.095C21.8382 5.99772 20.8459 5.21096 19.7486 5.33771ZM13.779 26.4368L13.9847 25.1299L21.9289 24.2122C23.5748 24.0221 24.755 22.5337 24.5648 20.8878L23.7023 13.4209L30.2401 14.4495C31.3313 14.6212 32.0766 15.6449 31.905 16.7361L29.9778 28.9854C29.8061 30.0765 28.7824 30.8219 27.6912 30.6502L15.4439 28.7234C14.3528 28.5517 13.6074 27.528 13.779 26.4368Z" fill="#919191"/>
</svg>
