<svg width="24" height="24" viewBox="0 0 24 24" fill="none" xmlns="http://www.w3.org/2000/svg">
<path d="M14.2705 9.317C14.6482 8.91414 15.2807 8.89353 15.6836 9.2711C16.0862 9.64881 16.107 10.2813 15.7295 10.6842L11.9795 14.6842C11.7905 14.8857 11.5263 15.0006 11.25 15.0006C10.9737 15.0006 10.7095 14.8857 10.5205 14.6842L8.27051 12.2848C7.89285 11.8819 7.91371 11.2485 8.31641 10.8707C8.71932 10.4933 9.35187 10.5139 9.72949 10.9166L11.25 12.5387L14.2705 9.317Z" fill="white"/>
<path d="M10.0518 3.39122C11.2995 2.86957 12.6995 2.86961 13.9473 3.39122L18.3926 5.24766C19.4413 5.6863 20.1123 6.71984 20.1123 7.85118V11.0895C20.1119 15.6757 16.7573 19.9356 12.2236 20.9762C12.0765 21.0099 11.9235 21.0099 11.7764 20.9762C7.24261 19.9356 3.88806 15.6757 3.8877 11.0895V7.85118C3.8877 6.72088 4.55741 5.68573 5.60742 5.24766L10.0518 3.39122ZM13.1758 5.23595C12.4216 4.92079 11.5774 4.92068 10.8232 5.23595L6.37793 7.09337C6.09145 7.21295 5.8877 7.50761 5.8877 7.85118V11.0895C5.88806 14.6714 8.49112 18.0511 12 18.9703C15.5088 18.051 18.1119 14.6713 18.1123 11.0895V7.85118C18.1123 7.50832 17.9094 7.21397 17.6211 7.09337L13.1758 5.23595Z" fill="white"/>
</svg>
