<svg width="121" height="120" viewBox="0 0 121 120" fill="none" xmlns="http://www.w3.org/2000/svg">
<g opacity="0.1">
<path fill-rule="evenodd" clip-rule="evenodd" d="M63.5499 5.43594C61.508 4.25703 58.9922 4.25703 56.9503 5.43594L14.6465 29.86C12.6046 31.039 11.3467 33.2177 11.3467 35.5755V84.4237C11.3467 86.7815 12.6046 88.9602 14.6465 90.1392L56.9503 114.563C58.9922 115.742 61.508 115.742 63.5499 114.563L105.854 90.1392C107.896 88.9603 109.154 86.7815 109.154 84.4237V35.5755C109.154 33.2177 107.896 31.0389 105.854 29.86L63.5499 5.43594ZM18.5689 35.935L60.2501 11.8703L101.931 35.935V63.9324L88.0375 55.2683C85.7447 53.8385 82.8121 53.9508 80.6353 55.5516L56.3709 73.3963L39.7417 64.1125C37.5283 62.8768 34.8028 63.0181 32.729 64.476L18.5689 74.431V35.935ZM84.5741 61.62L101.931 72.4438V84.0642L60.2501 108.129L18.5689 84.0642V83.2594L36.5627 70.6093L53.2001 79.8976C55.4579 81.1581 58.2439 80.9839 60.3271 79.4518L84.5741 61.62Z" fill="#1E1E1E"/>
<path d="M41.7502 32.9998C36.7796 32.9998 32.7502 37.0292 32.7502 41.9998C32.7502 46.9703 36.7796 50.9998 41.7502 50.9998C46.7207 50.9998 50.7502 46.9703 50.7502 41.9998C50.7502 37.0292 46.7207 32.9998 41.7502 32.9998Z" fill="#1E1E1E"/>
</g>
</svg>
