<svg width="20" height="20" viewBox="0 0 20 20" fill="none" xmlns="http://www.w3.org/2000/svg">
<path fill-rule="evenodd" clip-rule="evenodd" d="M2 10C2 9.74709 2.01174 9.49692 2.03469 9.25C2.41279 5.18341 5.83463 2 10 2C14.1654 2 17.5872 5.18341 17.9653 9.25C17.9883 9.49692 18 9.74709 18 10C18 10.2529 17.9883 10.5031 17.9653 10.75C17.5872 14.8166 14.1654 18 10 18C5.83463 18 2.41279 14.8166 2.03469 10.75C2.01174 10.5031 2 10.2529 2 10ZM8.02658 16.195C5.63102 15.4326 3.83797 13.3191 3.5428 10.75H6.51728C6.62205 13.0113 7.19553 14.9771 8.02658 16.195ZM11.9734 16.195C14.369 15.4326 16.162 13.3191 16.4572 10.75H13.4827C13.3779 13.0113 12.8045 14.9771 11.9734 16.195ZM13.4827 9.25H16.4572C16.162 6.68089 14.369 4.56742 11.9734 3.80498C12.8045 5.02292 13.3779 6.98873 13.4827 9.25ZM8.02657 3.80498C5.63102 4.56742 3.83797 6.68089 3.5428 9.25H6.51728C6.62205 6.98873 7.19553 5.02293 8.02657 3.80498ZM8.01904 9.25C8.10005 7.66542 8.43278 6.2988 8.8844 5.33103C9.4627 4.09182 9.96246 4 10 4C10.0375 4 10.5373 4.09182 11.1156 5.33103C11.5672 6.2988 11.9 7.66542 11.981 9.25H8.01904ZM8.01904 10.75H11.981C11.9 12.3346 11.5672 13.7012 11.1156 14.669C10.5373 15.9082 10.0375 16 10 16C9.96246 16 9.4627 15.9082 8.8844 14.669C8.43278 13.7012 8.10005 12.3346 8.01904 10.75Z" fill="#1E1E1E"/>
</svg>
