<svg width="28" height="28" viewBox="0 0 28 28" fill="none" xmlns="http://www.w3.org/2000/svg">
<path d="M19.7578 5.00391C21.6512 5.08382 23.2755 6.39977 23.751 8.24805L25.7334 15.9453C25.9024 16.4714 25.9951 17.028 25.9951 17.5996C25.995 19.7768 24.6902 21.7452 22.6816 22.5811C20.6717 23.4172 18.3597 22.9512 16.8262 21.4053C15.9614 20.5334 15.4557 19.438 15.3076 18.3047H12.6846C12.6248 18.7649 12.509 19.2228 12.3272 19.665C11.499 21.679 9.54216 22.9979 7.36622 22.998C5.19023 22.998 3.23354 21.679 2.40528 19.665C1.95365 18.5664 1.8872 17.377 2.16797 16.2725L2.18067 16.2168C2.18644 16.1951 2.19123 16.173 2.19727 16.1514L4.23438 8.24902C4.72469 6.34088 6.43972 5.00092 8.41114 5.00098C10.4237 5.00098 12.1068 6.38144 12.5879 8.24219H15.3984C15.8795 6.38135 17.5618 5.00015 19.5742 5L19.7578 5.00391ZM9.38868 15.5566C8.27017 14.4341 6.46227 14.4341 5.34376 15.5566C4.52086 16.3827 4.27211 17.6296 4.71778 18.7139C5.1632 19.7968 6.21056 20.498 7.36622 20.498C8.52184 20.4979 9.5693 19.7969 10.0147 18.7139C10.1716 18.3321 10.2405 17.9298 10.2305 17.5332H10.2256V17.4111C10.1795 16.7245 9.89192 16.0619 9.38868 15.5566ZM21.7207 14.9268C20.6517 14.4821 19.4204 14.7281 18.6006 15.5547C17.4807 16.684 17.4808 18.5152 18.6006 19.6445C19.4204 20.4709 20.6518 20.7179 21.7207 20.2734C22.7909 19.8282 23.495 18.774 23.4951 17.5996C23.4951 17.3576 23.4631 17.121 23.4063 16.8936L23.3975 16.8965L23.334 16.6504C23.0688 15.8823 22.4904 15.2471 21.7207 14.9268ZM12.7256 10.7422V15.8047H15.2598V10.7422H12.7256ZM8.41114 7.5C7.59 7.49995 6.86494 8.05939 6.65626 8.87109L5.72852 12.4717C7.21662 11.9941 8.87032 12.1841 10.2256 13.043V9.33301C10.2254 8.31386 9.40615 7.5 8.41114 7.5ZM19.5742 7.5C18.5794 7.50017 17.7599 8.31397 17.7598 9.33301V13.041C19.0875 12.1979 20.7338 11.9753 22.2549 12.4619L21.3301 8.87207C21.1214 8.06026 20.3955 7.49981 19.5742 7.5Z" fill="#0F0F0F"/>
</svg>
