<svg width="16" height="16" viewBox="0 0 16 16" fill="none" xmlns="http://www.w3.org/2000/svg">
<path d="M11.3098 3C12.4041 2.99991 13.3878 3.71042 13.673 4.7666L14.8517 9.12207C14.9489 9.4116 15.0021 9.71899 15.0021 10.0361C15.002 11.2515 14.2373 12.3277 13.0978 12.7793C11.9618 13.2292 10.6505 12.9823 9.77264 12.1396C9.25299 11.6407 8.95822 11.0064 8.88592 10.3535H7.11639C7.08557 10.6333 7.01479 10.9125 6.89862 11.1816C6.41743 12.296 5.29383 13.0036 4.06854 13.0039C2.84301 13.0039 1.7188 12.2962 1.23749 11.1816C0.96398 10.548 0.931868 9.86125 1.11639 9.23145L2.32538 4.7666C2.61062 3.71043 3.59427 2.99986 4.68866 3C5.82805 3.00037 6.8141 3.76776 7.06659 4.83105H8.93182C9.18435 3.76767 10.1702 3.00021 11.3098 3ZM5.36151 8.83496C4.64998 8.1551 3.48724 8.15532 2.77557 8.83496C2.2609 9.32689 2.11299 10.0565 2.38495 10.6865C2.65921 11.3213 3.31782 11.7539 4.06854 11.7539C4.81898 11.7536 5.47699 11.3211 5.75116 10.6865C5.84681 10.4649 5.88978 10.2306 5.88397 9.99902H5.88104V9.93262C5.85436 9.52928 5.6775 9.13717 5.36151 8.83496ZM12.6379 8.45508C11.9478 8.1817 11.157 8.33688 10.6389 8.83398C9.94391 9.50125 9.9439 10.57 10.6389 11.2373C11.157 11.7346 11.9477 11.8906 12.6379 11.6172C13.3244 11.345 13.752 10.7139 13.7521 10.0361C13.7521 9.89577 13.7326 9.7576 13.6974 9.62402L13.6926 9.62598L13.6535 9.48438C13.4905 9.03322 13.1319 8.65095 12.6379 8.45508ZM7.13104 9.10352H8.86737V6.08105H7.13104V9.10352ZM4.68768 4.25C4.12579 4.25014 3.66195 4.61281 3.53241 5.09277L2.93963 7.28223C3.90342 6.91459 5.01956 7.03899 5.88104 7.65137V5.36621C5.88089 4.77496 5.37151 4.25042 4.68768 4.25ZM11.3098 4.25C10.6257 4.25024 10.1175 4.77485 10.1174 5.36621V7.64746C10.9608 7.04783 12.0712 6.90363 13.0568 7.27832L12.466 5.09375C12.3365 4.61377 11.8716 4.25019 11.3098 4.25Z" fill="#0F0F0F"/>
</svg>
