<svg width="24" height="24" viewBox="0 0 24 24" fill="none" xmlns="http://www.w3.org/2000/svg">
<path d="M7.32502 4.5C9.00231 4.5 10.4008 5.66143 10.786 7.21875H13.2127C13.5978 5.66204 14.9949 4.50145 16.6717 4.50098C18.3023 4.5006 19.7197 5.61008 20.1248 7.18848L21.786 13.6494C21.9253 14.085 22.0018 14.5455 22.0018 15.0186C22.0018 16.8243 20.9214 18.4575 19.2567 19.1514C17.5906 19.8456 15.6748 19.4587 14.4041 18.1758C13.6771 17.4416 13.2569 16.5166 13.1414 15.5615H10.8621C10.8145 15.9573 10.7164 16.3513 10.5604 16.7314C9.87445 18.4023 8.25312 19.498 6.44905 19.498C4.64512 19.4979 3.02456 18.4022 2.33869 16.7314C1.96487 15.8205 1.91034 14.8347 2.1424 13.9189L3.87287 7.18848C4.27794 5.61028 5.69469 4.49991 7.32502 4.5ZM8.17561 13.2705C7.2209 12.3108 5.67819 12.3108 4.72346 13.2705C4.42591 13.5697 4.21642 13.9336 4.10237 14.3242L4.07893 14.417L4.07795 14.416C3.95074 14.9225 3.98128 15.4682 4.1883 15.9727C4.56882 16.8992 5.46342 17.4979 6.44905 17.498C7.43474 17.498 8.32916 16.8992 8.70979 15.9727C8.84366 15.6465 8.90257 15.3028 8.89436 14.9639H8.89143V14.873C8.85546 14.2798 8.6092 13.7065 8.17561 13.2705ZM18.4871 12.7314C17.5754 12.3518 16.5249 12.5622 15.825 13.2686C14.8683 14.2348 14.8683 15.8024 15.825 16.7686C16.5249 17.4751 17.5752 17.6854 18.4871 17.3057C19.4003 16.925 20.0018 16.0238 20.0018 15.0186C20.0018 14.8116 19.9741 14.6095 19.9256 14.415L19.9188 14.417L19.866 14.2119C19.6405 13.5521 19.1457 13.006 18.4871 12.7314ZM10.8914 13.5615H13.1063V9.21875H10.8914V13.5615ZM16.6727 6.5C15.815 6.50019 15.1063 7.20318 15.1063 8.08594V11.2861C16.2422 10.5321 17.6731 10.3358 18.9842 10.7842L18.1873 7.68652C18.007 6.98349 17.3808 6.49986 16.6727 6.5ZM7.32502 6.5C6.61698 6.49999 5.99062 6.98355 5.81037 7.68652L5.01057 10.79C6.29071 10.351 7.73079 10.515 8.89143 11.2832V8.08594C8.89143 7.25828 8.26878 6.58831 7.4842 6.50781L7.32502 6.5Z" fill="#0F0F0F"/>
</svg>
