<svg width="20" height="20" viewBox="0 0 20 20" fill="none" xmlns="http://www.w3.org/2000/svg">
<path d="M14.0039 4.00977C15.1905 4.11079 16.1926 4.9581 16.4922 6.12891L17.8301 11.3438C17.942 11.6918 18.0029 12.0603 18.003 12.4385C18.0029 13.8728 17.1461 15.1718 15.8252 15.7236C14.5031 16.2758 12.9824 15.9674 11.9746 14.9473C11.3857 14.3509 11.0504 13.596 10.9678 12.8193H9.03421C8.99921 13.151 8.91846 13.4814 8.78812 13.7998C8.24446 15.1274 6.95919 15.999 5.52737 15.999C4.0957 15.9988 2.81018 15.1273 2.26663 13.7998C1.95711 13.0436 1.9221 12.2218 2.13577 11.4668L3.50589 6.12891L3.57523 5.89941C3.96607 4.77373 5.02469 4.00095 6.23343 4.00098C7.57474 4.00112 8.68641 4.94236 8.97562 6.19531H11.0225C11.3115 4.94204 12.4232 4.00006 13.7647 4L14.0039 4.00977ZM6.95706 10.9854C6.1663 10.1885 4.8895 10.1886 4.09866 10.9854C3.83288 11.2533 3.653 11.5841 3.56448 11.9375L3.56351 11.9365C3.45788 12.3577 3.48348 12.8117 3.6553 13.2314C3.97079 14.0019 4.71161 14.4988 5.52737 14.499C6.34329 14.499 7.08483 14.002 7.40042 13.2314C7.5112 12.9608 7.56039 12.6757 7.55374 12.3945H7.55179V12.3242C7.52331 11.8285 7.31823 11.3494 6.95706 10.9854ZM15.2471 10.5381C14.492 10.2227 13.622 10.3972 13.042 10.9844C12.2492 11.7875 12.249 13.0906 13.042 13.8936C13.6219 14.4805 14.4921 14.6551 15.2471 14.3398C16.0034 14.0239 16.5029 13.2747 16.503 12.4385C16.5029 12.2661 16.4808 12.0974 16.4405 11.9355L16.4346 11.9375L16.3916 11.7705C16.2049 11.2207 15.7936 10.7664 15.2471 10.5381ZM9.05179 11.3193H10.9473V7.69531H9.05179V11.3193ZM6.23343 5.5C5.6386 5.49997 5.11095 5.90695 4.95901 6.50098L4.28812 9.11328C5.35974 8.7088 6.58737 8.84774 7.55179 9.53027V6.83887C7.55179 6.09257 6.9538 5.50017 6.23343 5.5ZM13.7647 5.5C13.0442 5.50007 12.4473 6.09251 12.4473 6.83887V9.53027C13.3896 8.86279 14.6082 8.69601 15.708 9.11035L15.0391 6.50195C14.8871 5.90798 14.3595 5.5 13.7647 5.5Z" fill="#0F0F0F"/>
</svg>
