<svg width="30" height="28" viewBox="0 0 30 28" fill="none" xmlns="http://www.w3.org/2000/svg">
<path d="M11.0906 8.15749L10.0337 4.21056L9.90447 8.29451C9.86542 9.52851 9.02275 10.5913 7.83016 10.9107L3.88322 11.9676L7.96718 12.0968C9.20117 12.1359 10.264 12.9786 10.5833 14.1711L11.6402 18.1181L11.7695 14.0341C11.8085 12.8001 12.6512 11.7373 13.8438 11.418L17.7907 10.3611L13.7068 10.2318C12.4728 10.1928 11.41 9.35008 11.0906 8.15749Z" fill="#919191"/>
<path fill-rule="evenodd" clip-rule="evenodd" d="M2.72634 1.95085C1.08043 2.14098 -0.099717 3.62938 0.0904108 5.27529L1.69694 19.1828C1.88707 20.8287 3.37547 22.0089 5.02138 21.8187L9.95363 21.249L9.79119 22.2814C9.53369 23.9181 10.6518 25.4537 12.2885 25.7112L24.5358 27.6381C26.1726 27.8956 27.7081 26.7775 27.9656 25.1408L29.8928 12.8915C30.1503 11.2548 29.0322 9.71918 27.3955 9.46168L20.5832 8.38989L19.9583 2.98024C19.7682 1.33433 18.2798 0.154189 16.6339 0.344317L2.72634 1.95085ZM16.7486 1.33771L2.84109 2.94424C1.74382 3.071 0.957053 4.06326 1.0838 5.16054L2.69034 19.0681C2.81709 20.1653 3.80936 20.9521 4.90663 20.8253L18.8141 19.2188C19.9114 19.0921 20.6982 18.0998 20.5714 17.0025L18.9649 3.095C18.8382 1.99772 17.8459 1.21096 16.7486 1.33771ZM10.779 22.4368L10.9847 21.1299L18.9289 20.2122C20.5748 20.0221 21.755 18.5337 21.5648 16.8878L20.7023 9.42093L27.2401 10.4495C28.3313 10.6212 29.0766 11.6449 28.905 12.7361L26.9778 24.9854C26.8061 26.0765 25.7824 26.8219 24.6912 26.6502L12.4439 24.7234C11.3528 24.5517 10.6074 23.528 10.779 22.4368Z" fill="#919191"/>
</svg>
