<svg width="22" height="22" viewBox="0 0 22 22" fill="none" xmlns="http://www.w3.org/2000/svg">
<g clip-path="url(#clip0_12432_3732)">
<rect width="22" height="22" rx="11" fill="white"/>
<rect width="22" height="22" fill="#CCFF00"/>
<path d="M8.35428 13.6708C8.38827 13.6053 8.544 13.3062 8.5791 13.2396L8.58569 13.2277C9.62974 11.2683 10.9019 9.41929 12.3659 7.73396L12.4065 7.68702C12.4186 7.67283 12.4208 7.651 12.412 7.63462C12.4022 7.61716 12.3835 7.60843 12.3648 7.61061L12.3034 7.61934C11.3428 7.75142 10.37 7.93371 9.41151 8.16184C9.31606 8.18803 9.25467 8.25025 9.24149 8.26444C8.52423 9.11911 7.8454 10.0185 7.22248 10.9409C7.19182 10.9878 7.18079 11.049 7.18849 11.0992C7.19508 11.1483 7.34533 12.2998 7.57341 13.184C7.00758 14.805 6.50196 16.9411 6.50196 16.9411C6.49759 16.9552 6.50085 16.9694 6.50855 16.9815C6.51736 16.9934 6.53047 17 6.54587 17H6.86829C6.8891 17 6.90665 16.988 6.91435 16.9694L6.93627 16.9094C7.26528 16.0165 7.64035 15.1345 8.05489 14.2744C8.15027 14.0746 8.35428 13.6708 8.35428 13.6708Z" fill="#1C180C"/>
<path d="M12.8386 8.08436L12.8375 8.02323C12.8364 8.00359 12.8243 7.98721 12.8068 7.98066C12.7892 7.97411 12.7684 7.97957 12.7552 7.99376L12.7147 8.0396C11.0072 10.0055 9.57163 12.1863 8.44864 14.5233L8.42228 14.5779C8.41354 14.5954 8.4168 14.6161 8.42998 14.6303C8.43872 14.639 8.45079 14.6445 8.46286 14.6445C8.46834 14.6445 8.47493 14.6434 8.48152 14.6412L8.53743 14.6183C9.49706 14.2232 10.4764 13.8804 11.4491 13.5999C11.5073 13.5835 11.5566 13.542 11.584 13.4886C12.0106 12.6612 13.0009 11.0588 13.0009 11.0588C13.0261 11.0228 13.0195 10.9693 13.0195 10.9693C13.0195 10.9693 12.8496 9.05364 12.8386 8.08436Z" fill="#1C180C"/>
<path d="M15.0462 5.32058C14.8039 5.111 14.4518 5.01277 13.9057 5.00076C13.41 4.98984 12.8211 5.09681 12.1532 5.31512C12.0534 5.35005 11.9733 5.40572 11.902 5.47448C11.2232 6.10867 10.563 6.78214 9.93899 7.47636L9.89071 7.52875C9.8776 7.54403 9.87538 7.56587 9.88523 7.58224C9.89515 7.5997 9.91596 7.60844 9.93566 7.60407L10.0059 7.58879C11.0116 7.37485 12.0271 7.21112 13.024 7.10306C13.0897 7.09542 13.1578 7.11725 13.206 7.162C13.2554 7.20675 13.2828 7.27115 13.2817 7.33773C13.2652 8.3223 13.3014 9.31123 13.3891 10.2772L13.3946 10.3406C13.3968 10.3602 13.41 10.3755 13.4297 10.3809C13.433 10.382 13.4363 10.382 13.4407 10.3831C13.4549 10.3831 13.4703 10.3766 13.4802 10.3635L13.5163 10.3122C14.0779 9.51535 14.6887 8.74036 15.3313 8.00684C15.4038 7.92498 15.4224 7.87368 15.4355 7.79946C15.6373 6.51362 15.3259 5.56181 15.0462 5.32058Z" fill="#1C180C"/>
</g>
<defs>
<clipPath id="clip0_12432_3732">
<rect width="22" height="22" rx="11" fill="white"/>
</clipPath>
</defs>
</svg>
