<svg width="28" height="28" viewBox="0 0 28 28" fill="none" xmlns="http://www.w3.org/2000/svg">
<path d="M16.4788 20.4993C16.7273 19.8557 17.4512 19.5356 18.095 19.7835C18.739 20.032 19.0602 20.7557 18.8118 21.3997C18.4171 22.4224 17.9462 23.4154 17.4036 24.3695C17.0622 24.9692 16.2985 25.1794 15.6985 24.8382C15.0992 24.4969 14.8893 23.7339 15.2298 23.1341C15.7112 22.2876 16.1288 21.4062 16.4788 20.4993Z" fill="#0F0F0F"/>
<path d="M14.3557 12.265C15.0458 12.265 15.6064 12.8249 15.6067 13.515C15.6075 17.3631 14.3141 21.1017 11.9329 24.1439C11.5073 24.6871 10.7215 24.783 10.178 24.3577C9.63466 23.9323 9.53905 23.1464 9.96413 22.6029C12.0029 19.9982 13.1075 16.8013 13.1067 13.515C13.1069 12.8252 13.666 12.2656 14.3557 12.265Z" fill="#0F0F0F"/>
<path d="M14.3557 7.63312C17.6231 7.63312 20.3017 10.2506 20.302 13.515C20.3016 14.5089 20.2329 15.5028 20.0969 16.4876C20.0024 17.1712 19.3713 17.6491 18.6878 17.555C18.0042 17.4604 17.5262 16.8294 17.6204 16.1458C17.7401 15.2785 17.8001 14.4039 17.801 13.5286C17.801 13.5245 17.801 13.5201 17.801 13.5159C17.801 11.6638 16.2746 10.1331 14.3557 10.1331C12.4381 10.1335 10.9119 11.6622 10.9104 13.513L10.8987 14.0765C10.7769 16.8843 9.72096 19.5791 7.88893 21.7386C7.44228 22.2646 6.6535 22.3295 6.12721 21.8831C5.6011 21.4366 5.53654 20.6478 5.98268 20.1214C7.55523 18.2677 8.41329 15.9288 8.41042 13.5169V13.513C8.41185 10.2498 11.0893 7.63352 14.3557 7.63312Z" fill="#0F0F0F"/>
<path d="M8.5071 4.73469C11.7718 2.60862 15.9538 2.42468 19.3967 4.25324C22.8417 6.08322 24.9992 9.6388 24.9973 13.5159C24.9963 15.6138 24.7443 17.7045 24.2493 19.7445C24.0864 20.415 23.4111 20.8269 22.7405 20.6644C22.0703 20.5013 21.6574 19.826 21.8196 19.1556C22.2679 17.308 22.4955 15.4137 22.4964 13.514C22.4964 13.5095 22.4963 13.5048 22.4964 13.5003C22.4923 10.5665 20.859 7.86073 18.2249 6.46125C15.5843 5.05872 12.3739 5.20062 9.87233 6.82941C9.2939 7.2058 8.51853 7.04249 8.14186 6.46418C7.76562 5.88595 7.92927 5.11149 8.5071 4.73469Z" fill="#0F0F0F"/>
<path d="M4.78444 8.93977C5.08961 8.32075 5.83917 8.06657 6.45827 8.37141C7.07747 8.67666 7.33188 9.42603 7.02663 10.0452C6.49388 11.1262 6.21669 12.3124 6.2151 13.513V13.5159C6.21404 14.7615 5.92428 15.9907 5.3694 17.1077C5.06208 17.7255 4.31165 17.9772 3.69362 17.6702C3.07597 17.363 2.82364 16.6134 3.13014 15.9954C3.51404 15.2226 3.71435 14.3733 3.7151 13.514C3.71664 11.9288 4.08254 10.3638 4.78444 8.93977Z" fill="#0F0F0F"/>
</svg>
