<svg width="20" height="20" viewBox="0 0 20 20" fill="none" xmlns="http://www.w3.org/2000/svg">
<path d="M12.0124 14.8955C12.1618 14.5097 12.5961 14.318 12.9821 14.4668C13.3681 14.6161 13.5598 15.0503 13.4108 15.4365C13.1205 16.1883 12.7739 16.9187 12.3747 17.6201C12.1697 17.9796 11.712 18.1051 11.3523 17.9004C10.9927 17.6953 10.8672 17.2377 11.072 16.8779C11.4345 16.241 11.7489 15.5779 12.0124 14.8955Z" fill="#0F0F0F"/>
<path d="M10.2644 8.88865C10.6784 8.88868 11.0142 9.22459 11.0144 9.63865C11.015 12.4596 10.0677 15.2001 8.32198 17.4306C8.06683 17.7565 7.59537 17.8142 7.26924 17.5596C6.94342 17.3042 6.88526 16.8319 7.14034 16.5058C8.68058 14.5378 9.51494 12.1225 9.51436 9.63865C9.51444 9.22477 9.85051 8.88904 10.2644 8.88865Z" fill="#0F0F0F"/>
<path d="M10.2653 5.44432C12.5975 5.44453 14.5055 7.31162 14.5065 9.6367V9.63865C14.5063 10.3695 14.4562 11.1001 14.3562 11.8242C14.2993 12.2343 13.9206 12.5204 13.5105 12.4638C13.1007 12.4069 12.8135 12.029 12.8698 11.6191C12.9605 10.963 13.0063 10.3009 13.0065 9.63865V9.6367C13.0055 8.15931 11.7885 6.94453 10.2653 6.94432C8.74176 6.94469 7.52324 8.16057 7.52315 9.63865C7.52315 9.64975 7.52169 9.66087 7.5212 9.67185C7.5158 11.8542 6.73697 13.965 5.31905 15.6367C5.05109 15.9523 4.57722 15.9914 4.26143 15.7236C3.94624 15.4558 3.9073 14.9827 4.17452 14.667C5.37107 13.2564 6.02442 11.476 6.02217 9.63963C6.02217 9.62597 6.02342 9.61209 6.02413 9.59861C6.04586 7.29137 7.94609 5.44469 10.2653 5.44432Z" fill="#0F0F0F"/>
<path d="M6.01339 3.26072C8.3863 1.71559 11.4267 1.58123 13.9294 2.91014C16.4329 4.23982 17.9996 6.82266 17.9987 9.63768C17.998 11.1835 17.8129 12.7254 17.448 14.2285C17.3502 14.6307 16.945 14.8777 16.5427 14.7803C16.1406 14.6824 15.8935 14.2772 15.9909 13.875C16.3278 12.4875 16.498 11.0652 16.4987 9.63865C16.4995 7.38607 15.2453 5.30815 13.2253 4.23533C11.2039 3.16206 8.74676 3.27059 6.83174 4.51756C6.48474 4.7431 6.0196 4.64562 5.79366 4.29881C5.56802 3.9519 5.6668 3.4868 6.01339 3.26072Z" fill="#0F0F0F"/>
<path d="M3.30831 6.31541C3.49148 5.94415 3.94185 5.79178 4.31319 5.97459C4.68465 6.15786 4.83728 6.60801 4.65401 6.97947C4.24545 7.8077 4.03204 8.71657 4.03096 9.6367V9.63963C4.03015 10.5378 3.82117 11.4239 3.42061 12.2295C3.23614 12.5999 2.78639 12.7513 2.41573 12.5674C2.04534 12.3828 1.89373 11.9322 2.07784 11.5615C2.37574 10.9623 2.53042 10.3031 2.53096 9.6367C2.53201 8.48565 2.79812 7.34958 3.30831 6.31541Z" fill="#0F0F0F"/>
</svg>
