<svg width="24" height="24" viewBox="0 0 24 24" fill="none" xmlns="http://www.w3.org/2000/svg">
<path d="M14.248 17.6972C14.447 17.1821 15.0259 16.9261 15.541 17.1249C16.056 17.324 16.3131 17.9028 16.1143 18.4179C15.7714 19.3054 15.3621 20.167 14.8906 20.995C14.6173 21.4747 14.0062 21.6421 13.5264 21.369C13.0468 21.0958 12.8796 20.4855 13.1523 20.0058C13.5747 19.264 13.941 18.4919 14.248 17.6972Z" fill="#0F0F0F"/>
<path d="M12.3125 10.577C12.8648 10.5769 13.3133 11.0248 13.3135 11.577C13.3141 14.9115 12.1924 18.1508 10.1279 20.787C9.78744 21.2213 9.15925 21.2979 8.72461 20.9579C8.28999 20.6175 8.21372 19.9894 8.55371 19.5546C10.3441 17.2684 11.314 14.4619 11.3135 11.577C11.3135 11.025 11.7605 10.5774 12.3125 10.577Z" fill="#0F0F0F"/>
<path d="M12.3125 6.53799C15.1124 6.5382 17.406 8.78108 17.4062 11.5761C17.4062 11.5837 17.4045 11.5919 17.4043 11.5995C17.4029 12.4545 17.3446 13.31 17.2275 14.1571C17.1513 14.7034 16.6471 15.086 16.1006 15.0106C15.5539 14.9349 15.1719 14.4294 15.2471 13.8827C15.3527 13.1188 15.4049 12.348 15.4053 11.577C15.4052 9.9121 14.0338 8.5382 12.3125 8.53799C10.5915 8.53805 9.21956 9.91066 9.21875 11.5751C9.22189 14.177 8.29513 16.6955 6.60449 18.6874C6.24706 19.1082 5.6153 19.1599 5.19433 18.8026C4.77367 18.4452 4.72197 17.8134 5.0791 17.3925C6.46441 15.7603 7.22136 13.701 7.21875 11.577V11.5751C7.21956 8.78046 9.51277 6.53805 12.3125 6.53799Z" fill="#0F0F0F"/>
<path d="M7.26171 3.99697C10.0807 2.16144 13.6922 2.00299 16.665 3.58193C19.6387 5.16151 21.5008 8.22979 21.5 11.5751V11.577C21.4991 13.3989 21.2809 15.2157 20.8506 16.9872C20.7198 17.5231 20.1797 17.8526 19.6436 17.7226C19.1071 17.5922 18.7773 17.051 18.9072 16.5145C19.3001 14.8974 19.4991 13.2398 19.5 11.577V11.5751C19.5008 8.97936 18.0558 6.58469 15.7266 5.34756C13.3954 4.10951 10.562 4.23575 8.35351 5.67373C7.89075 5.97493 7.27108 5.84344 6.96972 5.38076C6.66861 4.91803 6.79913 4.29833 7.26171 3.99697Z" fill="#0F0F0F"/>
<path d="M4.04785 7.62685C4.29225 7.13188 4.89258 6.92872 5.38769 7.17275C5.88258 7.41721 6.08586 8.01655 5.84179 8.51162C5.37056 9.46652 5.12528 10.5144 5.12402 11.5751V11.578C5.12301 12.6499 4.8735 13.7076 4.3955 14.6688C4.14934 15.1627 3.5489 15.3647 3.05468 15.119C2.56055 14.8732 2.35915 14.2725 2.60449 13.7782C2.94563 13.0922 3.12336 12.3378 3.12402 11.5751C3.12528 10.2067 3.44122 8.85619 4.04785 7.62685Z" fill="#0F0F0F"/>
</svg>
