<svg width="28" height="28" viewBox="0 0 28 28" fill="none" xmlns="http://www.w3.org/2000/svg">
<path d="M16.4788 20.4991C16.7273 19.8554 17.4512 19.5353 18.095 19.7833C18.739 20.0318 19.0602 20.7555 18.8118 21.3995C18.4171 22.4222 17.9462 23.4151 17.4036 24.3692C17.0622 24.969 16.2985 25.1792 15.6985 24.838C15.0992 24.4967 14.8893 23.7336 15.2298 23.1339C15.7112 22.2874 16.1288 21.406 16.4788 20.4991Z" fill="#0F0F0F"/>
<path d="M14.3557 12.2647C15.0458 12.2647 15.6064 12.8246 15.6067 13.5147C15.6075 17.3629 14.3141 21.1014 11.9329 24.1436C11.5073 24.6868 10.7215 24.7828 10.178 24.3575C9.63466 23.9321 9.53905 23.1462 9.96413 22.6026C12.0029 19.9979 13.1075 16.8011 13.1067 13.5147C13.1069 12.8249 13.666 12.2653 14.3557 12.2647Z" fill="#0F0F0F"/>
<path d="M14.3557 7.63288C17.6231 7.63288 20.3017 10.2504 20.302 13.5147C20.3016 14.5087 20.2329 15.5026 20.0969 16.4874C20.0024 17.1709 19.3713 17.6489 18.6878 17.5548C18.0042 17.4602 17.5262 16.8292 17.6204 16.1456C17.7401 15.2782 17.8001 14.4037 17.801 13.5284C17.801 13.5242 17.801 13.5198 17.801 13.5157C17.801 11.6635 16.2746 10.1329 14.3557 10.1329C12.4381 10.1333 10.9119 11.662 10.9104 13.5128L10.8987 14.0762C10.7769 16.8841 9.72096 19.5788 7.88893 21.7383C7.44228 22.2644 6.6535 22.3293 6.12721 21.8829C5.6011 21.4364 5.53654 20.6475 5.98268 20.1212C7.55523 18.2675 8.41329 15.9286 8.41042 13.5167V13.5128C8.41185 10.2496 11.0893 7.63327 14.3557 7.63288Z" fill="#0F0F0F"/>
<path d="M8.5071 4.73444C11.7718 2.60837 15.9538 2.42444 19.3967 4.253C22.8417 6.08298 24.9992 9.63856 24.9973 13.5157C24.9963 15.6135 24.7443 17.7043 24.2493 19.7442C24.0864 20.4148 23.4111 20.8267 22.7405 20.6641C22.0703 20.5011 21.6574 19.8257 21.8196 19.1553C22.2679 17.3077 22.4955 15.4134 22.4964 13.5137C22.4964 13.5093 22.4963 13.5045 22.4964 13.5001C22.4923 10.5662 20.859 7.86048 18.2249 6.46101C15.5843 5.05847 12.3739 5.20038 9.87233 6.82917C9.2939 7.20555 8.51853 7.04224 8.14186 6.46394C7.76562 5.8857 7.92927 5.11125 8.5071 4.73444Z" fill="#0F0F0F"/>
<path d="M4.78444 8.93952C5.08961 8.3205 5.83917 8.06632 6.45827 8.37116C7.07747 8.67642 7.33188 9.42579 7.02663 10.045C6.49388 11.1259 6.21669 12.3121 6.2151 13.5128V13.5157C6.21404 14.7613 5.92428 15.9905 5.3694 17.1075C5.06208 17.7253 4.31165 17.9769 3.69362 17.67C3.07597 17.3628 2.82364 16.6131 3.13014 15.9952C3.51404 15.2223 3.71435 14.373 3.7151 13.5137C3.71664 11.9286 4.08254 10.3636 4.78444 8.93952Z" fill="#0F0F0F"/>
</svg>
