<svg width="24" height="24" viewBox="0 0 24 24" fill="none" xmlns="http://www.w3.org/2000/svg">
<path d="M14.248 17.6974C14.447 17.1823 15.0259 16.9263 15.541 17.1251C16.056 17.3242 16.3131 17.9031 16.1143 18.4181C15.7714 19.3057 15.3621 20.1673 14.8906 20.9953C14.6173 21.475 14.0062 21.6423 13.5264 21.3693C13.0468 21.096 12.8796 20.4858 13.1523 20.006C13.5747 19.2642 13.941 18.4922 14.248 17.6974Z" fill="#0F0F0F"/>
<path d="M12.3125 10.5773C12.8648 10.5772 13.3133 11.025 13.3135 11.5773C13.3141 14.9117 12.1924 18.1511 10.1279 20.7873C9.78744 21.2215 9.15925 21.2982 8.72461 20.9582C8.28999 20.6178 8.21372 19.9896 8.55371 19.5548C10.3441 17.2686 11.314 14.4621 11.3135 11.5773C11.3135 11.0252 11.7605 10.5776 12.3125 10.5773Z" fill="#0F0F0F"/>
<path d="M12.3125 6.53823C15.1124 6.53844 17.406 8.78132 17.4062 11.5763C17.4062 11.584 17.4045 11.5921 17.4043 11.5998C17.4029 12.4548 17.3446 13.3102 17.2275 14.1574C17.1513 14.7037 16.6471 15.0862 16.1006 15.0109C15.5539 14.9351 15.1719 14.4296 15.2471 13.883C15.3527 13.119 15.4049 12.3482 15.4053 11.5773C15.4052 9.91234 14.0338 8.53844 12.3125 8.53823C10.5915 8.53829 9.21956 9.9109 9.21875 11.5753C9.22189 14.1772 8.29513 16.6958 6.60449 18.6876C6.24706 19.1084 5.6153 19.1602 5.19433 18.8029C4.77367 18.4455 4.72197 17.8137 5.0791 17.3927C6.46441 15.7606 7.22136 13.7013 7.21875 11.5773V11.5753C7.21956 8.78071 9.51277 6.53829 12.3125 6.53823Z" fill="#0F0F0F"/>
<path d="M7.26171 3.99721C10.0807 2.16169 13.6922 2.00324 16.665 3.58218C19.6387 5.16176 21.5008 8.23004 21.5 11.5753V11.5773C21.4991 13.3991 21.2809 15.2159 20.8506 16.9874C20.7198 17.5233 20.1797 17.8528 19.6436 17.7228C19.1071 17.5925 18.7773 17.0512 18.9072 16.5148C19.3001 14.8976 19.4991 13.24 19.5 11.5773V11.5753C19.5008 8.97961 18.0558 6.58493 15.7266 5.3478C13.3954 4.10975 10.562 4.236 8.35351 5.67397C7.89075 5.97518 7.27108 5.84368 6.96972 5.381C6.66861 4.91828 6.79913 4.29857 7.26171 3.99721Z" fill="#0F0F0F"/>
<path d="M4.04785 7.6271C4.29225 7.13212 4.89258 6.92896 5.38769 7.173C5.88258 7.41745 6.08586 8.01679 5.84179 8.51186C5.37056 9.46676 5.12528 10.5147 5.12402 11.5753V11.5783C5.12301 12.6501 4.8735 13.7079 4.3955 14.6691C4.14934 15.163 3.5489 15.365 3.05468 15.1193C2.56055 14.8734 2.35915 14.2728 2.60449 13.7785C2.94563 13.0925 3.12336 12.3381 3.12402 11.5753C3.12528 10.2069 3.44122 8.85644 4.04785 7.6271Z" fill="#0F0F0F"/>
</svg>
