<svg width="20" height="20" viewBox="0 0 20 20" fill="none" xmlns="http://www.w3.org/2000/svg">
<path d="M7.38184 10.7007C8.66712 10.7008 9.30077 11.3259 9.30078 12.647V16.3784C9.30078 17.7084 8.66714 18.3334 7.38184 18.3335H3.58789C2.30241 18.3335 1.66797 17.7085 1.66797 16.3784V12.647C1.66798 11.3258 2.30242 10.7007 3.58789 10.7007H7.38184ZM12.9072 15.8872C13.0501 15.8872 13.1035 15.9503 13.1035 16.1021V17.6372C13.1035 17.7979 13.0501 17.8608 12.9072 17.8608H11.3184C11.1845 17.8608 11.1397 17.7979 11.1396 17.6372V16.1021C11.1396 15.9503 11.1845 15.8872 11.3184 15.8872H12.9072ZM17.6924 15.8872C17.8262 15.8873 17.8799 15.9504 17.8799 16.1021V17.6372C17.8799 17.7978 17.8262 17.8608 17.6924 17.8608H16.1035C15.9607 17.8608 15.916 17.7979 15.916 17.6372V16.1021C15.916 15.9503 15.9607 15.8872 16.1035 15.8872H17.6924ZM3.55176 12.1118C3.23058 12.1119 3.0792 12.2631 3.0791 12.6021V16.4321C3.07912 16.7623 3.2305 16.9233 3.55176 16.9233H7.4082C7.72955 16.9233 7.8906 16.7624 7.89062 16.4321V12.6021C7.89052 12.2631 7.72947 12.1118 7.4082 12.1118H3.55176ZM6.27441 13.5308C6.40824 13.5308 6.47063 13.5843 6.4707 13.7358V15.2808C6.47063 15.4412 6.40824 15.4946 6.27441 15.4946H4.68555C4.54286 15.4946 4.4981 15.4412 4.49805 15.2808V13.7358C4.4981 13.5843 4.54286 13.5308 4.68555 13.5308H6.27441ZM15.3262 13.5044C15.4601 13.5044 15.5137 13.5577 15.5137 13.7095V15.2534C15.5137 15.4141 15.4601 15.4683 15.3262 15.4683H13.7285C13.5947 15.4682 13.5498 15.4141 13.5498 15.2534V13.7095C13.5498 13.5578 13.5947 13.5044 13.7285 13.5044H15.3262ZM12.9072 11.1118C13.0501 11.1118 13.1035 11.1741 13.1035 11.3169V12.8608C13.1035 13.0215 13.0501 13.0845 12.9072 13.0845H11.3184C11.1845 13.0845 11.1396 13.0215 11.1396 12.8608V11.3169C11.1396 11.1741 11.1845 11.1118 11.3184 11.1118H12.9072ZM17.6924 11.1118C17.8262 11.1119 17.8799 11.1741 17.8799 11.3169V12.8608C17.8799 13.0215 17.8262 13.0844 17.6924 13.0845H16.1035C15.9607 13.0845 15.916 13.0215 15.916 12.8608V11.3169C15.916 11.1741 15.9607 11.1118 16.1035 11.1118H17.6924ZM7.38184 1.6665C8.6671 1.66659 9.30074 2.29178 9.30078 3.61279V7.35303C9.30078 8.67413 8.66714 9.29923 7.38184 9.29932H3.58789C2.30241 9.29932 1.66797 8.67422 1.66797 7.35303V3.61279C1.66801 2.29168 2.30245 1.6665 3.58789 1.6665H7.38184ZM16.416 1.6665C17.7012 1.66662 18.3349 2.2918 18.335 3.61279V7.35303C18.335 8.6741 17.7013 9.2992 16.416 9.29932H12.6221C11.3277 9.29932 10.7021 8.67422 10.7021 7.35303V3.61279C10.7022 2.29168 11.3277 1.6665 12.6221 1.6665H16.416ZM3.55176 3.07764C3.23061 3.07768 3.07923 3.2379 3.0791 3.56787V7.39795C3.0791 7.7282 3.23048 7.88912 3.55176 7.88916H7.4082C7.72957 7.88916 7.89062 7.72825 7.89062 7.39795V3.56787C7.89049 3.23785 7.72944 3.07764 7.4082 3.07764H3.55176ZM12.5859 3.07764C12.2647 3.07766 12.1036 3.23787 12.1035 3.56787V7.39795C12.1035 7.72823 12.2646 7.88914 12.5859 7.88916H16.4512C16.7725 7.88916 16.9248 7.72825 16.9248 7.39795V3.56787C16.9247 3.23785 16.7724 3.07764 16.4512 3.07764H12.5859ZM6.27441 4.49658C6.40818 4.49658 6.47057 4.55904 6.4707 4.71045V6.24658C6.47065 6.40711 6.40826 6.46924 6.27441 6.46924H4.68555C4.54283 6.46922 4.49809 6.40709 4.49805 6.24658V4.71045C4.49814 4.55907 4.54292 4.4966 4.68555 4.49658H6.27441ZM15.3447 4.49658C15.4872 4.49667 15.5409 4.55915 15.541 4.71045V6.24658C15.541 6.407 15.4873 6.46915 15.3447 6.46924H13.7559C13.622 6.46924 13.5772 6.40711 13.5771 6.24658V4.71045C13.5772 4.55904 13.6221 4.49658 13.7559 4.49658H15.3447Z" fill="#0099FF"/>
</svg>
