<svg width="18" height="24" viewBox="0 0 18 24" fill="none" xmlns="http://www.w3.org/2000/svg">
<path fill-rule="evenodd" clip-rule="evenodd" d="M4.47016 13.5971C4.76305 13.3042 5.23793 13.3042 5.53082 13.5971L9.00049 17.0668L12.4702 13.5971C12.7631 13.3042 13.2379 13.3042 13.5308 13.5971C13.8237 13.89 13.8237 14.3649 13.5308 14.6578L9.53082 18.6578C9.23793 18.9507 8.76305 18.9507 8.47016 18.6578L4.47016 14.6578C4.17726 14.3649 4.17726 13.89 4.47016 13.5971Z" fill="#1E1E1E"/>
<path fill-rule="evenodd" clip-rule="evenodd" d="M4.47016 10.4044C4.76305 10.6972 5.23793 10.6972 5.53082 10.4044L9.00049 6.93468L12.4702 10.4044C12.7631 10.6972 13.2379 10.6972 13.5308 10.4044C13.8237 10.1115 13.8237 9.63659 13.5308 9.34369L9.53082 5.34369C9.23793 5.0508 8.76305 5.0508 8.47016 5.34369L4.47016 9.34369C4.17726 9.63659 4.17726 10.1115 4.47016 10.4044Z" fill="#1E1E1E"/>
</svg>
