<svg width="25" height="24" viewBox="0 0 25 24" fill="none" xmlns="http://www.w3.org/2000/svg">
<path fill-rule="evenodd" clip-rule="evenodd" d="M12.5001 2.25C13.8587 2.25 14.9472 3.39953 15.8956 4.22949L21.755 9.35645C22.2643 9.80213 22.3619 10.4592 22.1339 10.9883C21.9571 11.398 21.5945 11.7184 21.1329 11.8359C20.9256 11.8887 20.8215 11.9148 20.7794 11.9688C20.7375 12.0227 20.737 12.1097 20.7364 12.2822C20.7335 13.1021 20.7276 14.9216 20.7276 15.1396C20.7277 16.4848 20.7278 17.5766 20.6026 18.4365C20.4716 19.3368 20.1895 20.0908 19.5479 20.6836C18.9145 21.2687 18.1223 21.5183 17.1769 21.6357C16.258 21.7498 15.0868 21.75 13.6202 21.75H11.381C9.91436 21.75 8.74312 21.7498 7.82432 21.6357C6.87886 21.5183 6.08667 21.2687 5.45322 20.6836C4.81161 20.0908 4.52961 19.3368 4.39854 18.4365C4.27336 17.5766 4.27351 16.4848 4.27354 15.1396C4.27354 14.9216 4.2677 13.1021 4.26475 12.2822C4.26412 12.1097 4.26361 12.0227 4.22178 11.9688C4.17971 11.9148 4.07554 11.8887 3.86826 11.8359C3.40669 11.7185 3.04406 11.398 2.86728 10.9883C2.63924 10.4592 2.73686 9.80213 3.24619 9.35645L9.10557 4.22949C10.0538 3.39962 11.1417 2.25025 12.5001 2.25ZM12.5011 14.75C11.8107 14.75 11.2511 15.3096 11.2511 16C11.2511 16.6904 11.8107 17.25 12.5011 17.25H12.5099C13.2002 17.25 13.7599 16.6904 13.7599 16C13.7599 15.3096 13.2002 14.75 12.5099 14.75H12.5011Z" fill="#919191"/>
</svg>
