<svg width="40" height="40" viewBox="0 0 40 40" fill="none" xmlns="http://www.w3.org/2000/svg">
<path d="M18.2126 4.90421C19.5343 4.04983 21.2347 4.04983 22.5564 4.90421L34.8718 12.8651C36.7003 14.0471 36.7003 16.7222 34.8718 17.9042L31.8083 19.8847L34.8718 21.8651C36.7003 23.0471 36.7003 25.7222 34.8718 26.9042L23.0994 34.5146C21.4474 35.5825 19.3227 35.5824 17.6706 34.5146L5.89721 26.9042C4.06877 25.7222 4.06877 23.0471 5.89721 21.8651L8.96069 19.8847L5.89721 17.9042C4.06877 16.7222 4.06877 14.0471 5.89721 12.8651L18.2126 4.90421Z" fill="#0099FF" fill-opacity="0.2"/>
<path d="M18.4839 5.32397C19.6402 4.57645 21.1283 4.57656 22.2847 5.32397L34.6001 13.2849C36.1238 14.2699 36.1238 16.4991 34.6001 17.4841L31.5366 19.4646L30.8872 19.8845L31.5366 20.3044L34.6001 22.2849C36.1238 23.2699 36.1238 25.4991 34.6001 26.4841L22.8276 34.0945C21.3409 35.0555 19.4287 35.0555 17.9419 34.0945L6.16846 26.4841C4.645 25.4991 4.64491 23.2699 6.16846 22.2849L9.23193 20.3044L9.88135 19.8845L9.23193 19.4646L6.16846 17.4841C4.645 16.4991 4.64491 14.2699 6.16846 13.2849L18.4839 5.32397Z" stroke="#7ECBFF" stroke-opacity="0.15"/>
<path d="M5.89721 17.9041C4.06877 16.7221 4.06877 14.0473 5.89721 12.8653L18.2131 4.90372C19.5348 4.04935 21.2346 4.04935 22.5562 4.90372L34.8721 12.8653C36.7006 14.0473 36.7006 16.7221 34.8721 17.9041L23.0991 25.5147C21.447 26.5827 19.3223 26.5827 17.6702 25.5147L5.89721 17.9041Z" fill="#0099FF"/>
<path d="M5.89721 17.9041C4.06877 16.7221 4.06877 14.0473 5.89721 12.8653L18.2131 4.90372C19.5348 4.04935 21.2346 4.04935 22.5562 4.90372L34.8721 12.8653C36.7006 14.0473 36.7006 16.7221 34.8721 17.9041L23.0991 25.5147C21.447 26.5827 19.3223 26.5827 17.6702 25.5147L5.89721 17.9041Z" fill="url(#paint0_linear_7099_42022)" fill-opacity="0.4"/>
<path d="M18.4849 5.32349C19.6412 4.57612 21.1283 4.57606 22.2847 5.32349L34.6011 13.2854C36.1244 14.2705 36.1245 16.4997 34.6011 17.4846L22.8276 25.095C21.3409 26.056 19.4287 26.056 17.9419 25.095L6.16846 17.4846C4.64483 16.4997 4.64499 14.2705 6.16846 13.2854L18.4849 5.32349Z" stroke="white" stroke-opacity="0.15"/>
<defs>
<linearGradient id="paint0_linear_7099_42022" x1="11.1924" y1="6.19226" x2="29.5772" y2="24.577" gradientUnits="userSpaceOnUse">
<stop stop-color="white" stop-opacity="0"/>
<stop offset="1" stop-color="white"/>
</linearGradient>
</defs>
</svg>
