<svg width="25" height="24" viewBox="0 0 25 24" fill="none" xmlns="http://www.w3.org/2000/svg">
<path fill-rule="evenodd" clip-rule="evenodd" d="M17.2456 3.22009C15.3393 3.22009 13.5724 3.59456 12.1988 4.2361C11.0429 4.77597 9.48713 5.11835 7.75436 5.11835C6.79384 5.11835 5.88447 5.01306 5.06591 4.82558C3.80694 4.53722 2.29688 5.40003 2.29688 6.8875V17.1116C2.29688 17.9046 2.42256 18.6512 2.8345 19.2592C3.26047 19.8879 3.91693 20.2599 4.74805 20.4503C5.67528 20.6626 6.69149 20.779 7.75436 20.779C9.66068 20.779 11.4276 20.4045 12.8012 19.763C13.9571 19.2231 15.5129 18.8807 17.2456 18.8807C18.2062 18.8807 19.1155 18.986 19.9341 19.1735C21.1931 19.4618 22.7031 18.599 22.7031 17.1116V6.8875C22.7031 6.13118 22.6014 5.3884 22.2018 4.77424C21.7849 4.13331 21.1224 3.74816 20.252 3.5488C19.3247 3.33642 18.3085 3.22009 17.2456 3.22009ZM12.5 14.8469C14.0726 14.8469 15.3474 13.5721 15.3474 11.9995C15.3474 10.427 14.0726 9.15214 12.5 9.15214C10.9274 9.15214 9.65262 10.427 9.65262 11.9995C9.65262 13.5721 10.9274 14.8469 12.5 14.8469ZM6.33067 11.9995C6.85486 11.9995 7.2798 12.4245 7.2798 12.9487V12.9572C7.2798 13.4814 6.85486 13.9063 6.33067 13.9063C5.80648 13.9063 5.38154 13.4814 5.38154 12.9572V12.9487C5.38154 12.4245 5.80648 11.9995 6.33067 11.9995ZM19.6185 11.043C19.6185 10.5188 19.1935 10.0939 18.6693 10.0939C18.1451 10.0939 17.7202 10.5188 17.7202 11.043V11.0515C17.7202 11.5757 18.1451 12.0006 18.6693 12.0006C19.1935 12.0006 19.6185 11.5757 19.6185 11.0515V11.043Z" fill="#919191"/>
</svg>
