<svg width="20" height="20" viewBox="0 0 20 20" fill="none" xmlns="http://www.w3.org/2000/svg">
<path d="M14.167 5.00065C14.167 4.54041 14.5401 4.16732 15.0003 4.16732C15.4606 4.16732 15.8337 4.54041 15.8337 5.00065L15.8337 15.0007C15.8337 15.4609 15.4606 15.834 15.0003 15.834C14.5401 15.834 14.167 15.4609 14.167 15.0007L14.167 5.00065Z" fill="#0099FF"/>
<path d="M9.16699 8.33398C9.16699 7.87375 9.54009 7.50065 10.0003 7.50065C10.4606 7.50065 10.8337 7.87375 10.8337 8.33398L10.8337 15.0007C10.8337 15.4609 10.4606 15.834 10.0003 15.834C9.54009 15.834 9.16699 15.4609 9.16699 15.0007L9.16699 8.33398Z" fill="#0099FF"/>
<path d="M4.16699 11.6673C4.16699 11.2071 4.54009 10.834 5.00033 10.834C5.46056 10.834 5.83366 11.2071 5.83366 11.6673L5.83366 15.0007C5.83366 15.4609 5.46056 15.834 5.00033 15.834C4.54009 15.834 4.16699 15.4609 4.16699 15.0007L4.16699 11.6673Z" fill="#0099FF"/>
</svg>
