<svg width="16" height="16" viewBox="0 0 16 16" fill="none" xmlns="http://www.w3.org/2000/svg">
<path d="M3.65039 7.375C3.99521 7.37526 4.27518 7.65516 4.27539 8V11.7256H8C8.34495 11.7258 8.625 12.0056 8.625 12.3506C8.6247 12.6953 8.34477 12.9753 8 12.9756H4.15039C3.52926 12.9756 3.02472 12.4716 3.02441 11.8506V8C3.02463 7.655 3.30534 7.375 3.65039 7.375ZM11.8506 3.02539C12.4716 3.02576 12.9756 3.5293 12.9756 4.15039V8C12.9754 8.34478 12.6953 8.62463 12.3506 8.625C12.0055 8.625 11.7258 8.34501 11.7256 8V4.27539H8C7.65512 4.27518 7.3752 3.99527 7.375 3.65039C7.375 3.30534 7.655 3.0256 8 3.02539H11.8506Z" fill="#0F0F0F"/>
</svg>
