<svg width="28" height="28" viewBox="0 0 28 28" fill="none" xmlns="http://www.w3.org/2000/svg">
<path d="M4 12.75C4.69036 12.75 5.25 13.3096 5.25 14V22.5C5.25 22.6381 5.36193 22.75 5.5 22.75H14C14.6904 22.75 15.25 23.3096 15.25 24C15.25 24.6904 14.6904 25.25 14 25.25H5.5C3.98122 25.25 2.75 24.0188 2.75 22.5V14C2.75 13.3096 3.30964 12.75 4 12.75ZM22.5 2.75C24.0188 2.75 25.25 3.98122 25.25 5.5V14C25.25 14.6904 24.6904 15.25 24 15.25C23.3096 15.25 22.75 14.6904 22.75 14V5.5C22.75 5.36193 22.6381 5.25 22.5 5.25H14C13.3096 5.25 12.75 4.69036 12.75 4C12.75 3.30964 13.3096 2.75 14 2.75H22.5Z" fill="#0F0F0F"/>
</svg>
