<svg width="20" height="20" viewBox="0 0 20 20" fill="none" xmlns="http://www.w3.org/2000/svg">
<path d="M3.75 9.25C4.16421 9.25 4.5 9.58579 4.5 10V15.5H10C10.4142 15.5 10.75 15.8358 10.75 16.25C10.75 16.6642 10.4142 17 10 17H4.5C3.67157 17 3 16.3284 3 15.5V10C3 9.58579 3.33579 9.25 3.75 9.25ZM15.5 3C16.3284 3 17 3.67157 17 4.5V10C17 10.4142 16.6642 10.75 16.25 10.75C15.8358 10.75 15.5 10.4142 15.5 10V4.5H10C9.58579 4.5 9.25 4.16421 9.25 3.75C9.25 3.33579 9.58579 3 10 3H15.5Z" fill="#0F0F0F"/>
</svg>
