<svg width="14" height="16" viewBox="0 0 14 16" fill="none" xmlns="http://www.w3.org/2000/svg">
<path d="M9.34375 10.8779C9.75795 10.8779 10.0937 11.2137 10.0938 11.6279C10.0935 12.0419 9.75782 12.3779 9.34375 12.3779H4.65625C4.24229 12.3778 3.90649 12.0419 3.90625 11.6279C3.90627 11.2138 4.24216 10.8781 4.65625 10.8779H9.34375Z" fill="white"/>
<path d="M6.21973 8.13867C6.63394 8.13867 6.96973 8.47446 6.96973 8.88867C6.96927 9.3025 6.63366 9.63867 6.21973 9.63867H4.65625C4.24243 9.63854 3.90671 9.30242 3.90625 8.88867C3.90625 8.47454 4.24215 8.1388 4.65625 8.13867H6.21973Z" fill="white"/>
<path d="M9.1543 0C9.98227 6.68589e-05 10.7723 0.33929 11.3506 0.935547L13.1025 2.74316C13.6799 3.33876 14.001 4.14209 14.001 4.97461V12.8369C14.0006 14.5636 12.637 16.0036 10.9072 16.0039H3.09375C1.36374 16.0038 0.000425958 14.5638 0 12.8369V3.16699C0.000166112 1.4399 1.36358 8.18718e-05 3.09375 0H9.1543ZM3.09375 1.5C2.23526 1.50008 1.50016 2.2244 1.5 3.16699V12.8369C1.50042 13.7793 2.23541 14.5038 3.09375 14.5039H10.9072C11.7654 14.5036 12.5006 13.7791 12.501 12.8369V5.93164H10.5166C9.21799 5.93159 8.20439 4.85231 8.2041 3.57031V1.5H3.09375ZM9.7041 3.57031C9.70439 4.06777 10.0896 4.43158 10.5166 4.43164H12.4121C12.3323 4.18985 12.2012 3.96857 12.0254 3.78711L10.2734 1.98047C10.1094 1.81133 9.91431 1.68453 9.7041 1.60352V3.57031Z" fill="white"/>
</svg>
