<svg width="21" height="20" viewBox="0 0 21 20" fill="none" xmlns="http://www.w3.org/2000/svg">
<path d="M18.0829 12.5C18.0829 11.3002 18.0815 10.4759 17.9983 9.85673C17.9179 9.25911 17.7746 8.96571 17.571 8.76217C17.3675 8.55863 17.0741 8.41527 16.4765 8.33492C15.8573 8.25167 15.0329 8.25029 13.8332 8.25029H12.9999C11.8002 8.25029 10.9759 8.25167 10.3567 8.33492C9.75905 8.41527 9.46565 8.55863 9.26211 8.76217C9.05857 8.96571 8.91521 9.25911 8.83486 9.85673C8.75161 10.4759 8.75022 11.3002 8.75022 12.5V13.3333C8.75022 14.533 8.75161 15.3573 8.83486 15.9765C8.91521 16.5741 9.05857 16.8675 9.26211 17.0711C9.46565 17.2746 9.75905 17.418 10.3567 17.4983C10.9759 17.5816 11.8002 17.583 12.9999 17.583H13.8332C15.0329 17.583 15.8573 17.5816 16.4765 17.4983C17.0741 17.418 17.3675 17.2746 17.571 17.0711C17.7746 16.8675 17.9179 16.5741 17.9983 15.9765C18.0815 15.3573 18.0829 14.533 18.0829 13.3333V12.5ZM19.5836 13.3333C19.5836 14.4906 19.5849 15.4343 19.4851 16.1767C19.3824 16.9405 19.16 17.6028 18.6314 18.1315C18.1028 18.6601 17.4405 18.8824 16.6767 18.9851C15.9343 19.085 14.9905 19.0836 13.8332 19.0836H12.9999C11.8426 19.0836 10.8989 19.085 10.1565 18.9851C9.39265 18.8824 8.73035 18.6601 8.20172 18.1315C7.6731 17.6028 7.45077 16.9405 7.34804 16.1767C7.24823 15.4343 7.24957 14.4906 7.24957 13.3333V12.5C7.24957 11.3427 7.24823 10.3989 7.34804 9.65654C7.45077 8.89271 7.6731 8.23041 8.20172 7.70178C8.73035 7.17316 9.39265 6.95083 10.1565 6.8481C10.8989 6.74829 11.8426 6.74963 12.9999 6.74963H13.8332C14.9905 6.74963 15.9343 6.74829 16.6767 6.8481C17.4405 6.95083 18.1028 7.17316 18.6314 7.70178C19.16 8.23041 19.3824 8.89271 19.4851 9.65654C19.5849 10.3989 19.5836 11.3427 19.5836 12.5V13.3333Z" fill="#1E1E1E"/>
<path d="M2.24902 8.33268V7.49935L2.24902 7.45399C2.24901 6.31736 2.24899 5.38858 2.34749 4.65593C2.45022 3.8921 2.67255 3.2298 3.20117 2.70117C3.7298 2.17255 4.3921 1.95022 5.15593 1.84749C5.88858 1.74899 6.81736 1.74901 7.954 1.74902L7.99935 1.74902H8.83268L8.87804 1.74902C10.0147 1.74901 10.9435 1.74899 11.6761 1.84749C12.4399 1.95022 13.1022 2.17255 13.6309 2.70117C13.8152 2.88554 13.9666 3.09119 14.089 3.31885C14.285 3.6836 14.1485 4.13832 13.7839 4.33447C13.4192 4.53059 12.9645 4.39383 12.7682 4.0293C12.7136 3.9277 12.6492 3.84032 12.5705 3.76156C12.3669 3.55802 12.0735 3.41466 11.4759 3.33431C10.8567 3.25106 10.0324 3.24968 8.83268 3.24968H7.99935C6.79964 3.24968 5.97531 3.25106 5.35612 3.33431C4.7585 3.41466 4.4651 3.55802 4.26156 3.76156C4.05802 3.9651 3.91466 4.2585 3.83431 4.85612C3.75106 5.47531 3.74968 6.29964 3.74968 7.49935V8.33268C3.74968 9.5324 3.75106 10.3567 3.83431 10.9759C3.91466 11.5735 4.05802 11.8669 4.26156 12.0705C4.41044 12.2194 4.60248 12.3307 4.91016 12.4123C5.31039 12.5184 5.5491 12.9292 5.4432 13.3294C5.34367 13.7047 4.97626 13.9385 4.60091 13.8787L4.52604 13.8625L4.33805 13.8079C3.90813 13.6698 3.52761 13.4573 3.20117 13.1309C2.67255 12.6022 2.45022 11.9399 2.34749 11.1761C2.24899 10.4435 2.24901 9.51467 2.24902 8.37804L2.24902 8.33268Z" fill="#1E1E1E"/>
</svg>
