<svg width="361" height="236" viewBox="0 0 361 236" fill="none" xmlns="http://www.w3.org/2000/svg">
<g clip-path="url(#clip0_54550_237757)">
<rect width="361" height="236" fill="#12151F"/>
<mask id="mask0_54550_237757" style="mask-type:alpha" maskUnits="userSpaceOnUse" x="1" y="0" width="360" height="236">
<rect x="1" width="360" height="236" fill="url(#paint0_linear_54550_237757)"/>
</mask>
<g mask="url(#mask0_54550_237757)">
<g opacity="0.8">
<path fill-rule="evenodd" clip-rule="evenodd" d="M376.639 -6.922H-15.6392V242.922H376.639V-6.922ZM111.172 241.906H118.266V-5.58693H111.172V241.906ZM133.03 144.463C133.03 153.047 133.275 161.286 133.705 167.356C133.997 171.479 134.361 174.332 134.758 175.771V241.906H127.663V-5.58693H134.758V57.7338C134.361 58.4372 133.997 59.844 133.705 61.8696C133.275 64.8526 133.03 68.9038 133.03 73.1243C133.03 77.3448 133.275 81.396 133.705 84.379C133.997 86.4046 134.361 87.8114 134.758 88.5149V113.161C134.361 114.593 133.997 117.453 133.705 121.569C133.275 127.639 133.03 135.878 133.03 144.463ZM126.512 241.906H119.418V-5.58693H126.512V241.906ZM110.014 241.906H102.919V-5.58693H110.014V241.906ZM101.768 241.906H94.6734V-5.58693H101.768V241.906ZM156.616 147.758C156.616 157.802 156.98 167.435 157.629 174.534C158.145 180.129 158.8 183.783 159.502 185.085V241.906H152.407V-5.58693H159.502V50.9145C158.794 51.5919 158.138 53.4872 157.629 56.4051C156.98 60.1111 156.616 65.1327 156.616 70.3758C156.616 75.6189 156.98 80.6405 157.629 84.3465C158.145 87.2643 158.8 89.1597 159.502 89.837V110.432C158.794 111.734 158.138 115.388 157.629 120.983C156.98 128.082 156.616 137.715 156.616 147.758ZM181.36 70.3758C181.36 75.6189 181.724 80.6405 182.373 84.3465C182.882 87.2643 183.538 89.1597 184.239 89.837V241.906H177.145V-5.58693H184.239V50.9145C183.538 51.5919 182.882 53.4872 182.373 56.4051C181.724 60.1111 181.36 65.1327 181.36 70.3758ZM173.108 70.3758C173.108 75.6189 173.472 80.6405 174.12 84.3465C174.63 87.2643 175.285 89.1597 175.987 89.837V241.906H168.892V-5.58693H175.987V50.9145C175.285 51.5919 174.63 53.4872 174.12 56.4051C173.472 60.1111 173.108 65.1327 173.108 70.3758ZM164.862 147.758C164.862 157.802 165.226 167.435 165.875 174.534C166.384 180.129 167.039 183.783 167.741 185.085V241.906H160.647V-5.58693H167.741V50.9145C167.039 51.5919 166.384 53.4872 165.875 56.4051C165.226 60.1111 164.862 65.1327 164.862 70.3758C164.862 75.6189 165.226 80.6405 165.875 84.3465C166.384 87.2643 167.039 89.1597 167.741 89.837V110.432C167.039 111.734 166.384 115.388 165.875 120.983C165.226 128.082 164.862 137.715 164.862 147.758ZM93.5219 241.906H86.4276V-5.58693H93.5219V241.906ZM148.37 147.758C148.37 157.802 148.734 167.435 149.383 174.534C149.893 180.129 150.548 183.783 151.249 185.085V241.906H144.155V-5.58693H151.249V50.9145C150.548 51.5919 149.893 53.4872 149.383 56.4051C148.734 60.1111 148.37 65.1327 148.37 70.3758C148.37 75.6189 148.734 80.6405 149.383 84.3465C149.893 87.2643 150.548 89.1597 151.249 89.837V110.432C150.548 111.734 149.893 115.388 149.383 120.983C148.734 128.082 148.37 137.715 148.37 147.758ZM140.125 144.463C140.125 153.633 140.489 162.426 141.137 168.913C141.647 174.019 142.302 177.328 143.003 178.52V241.906H135.909V-5.58693H143.003V55.2653C142.302 55.871 141.647 57.5514 141.137 60.1436C140.489 63.4393 140.125 67.9008 140.125 72.5642C140.125 77.2276 140.489 81.6891 141.137 84.9847C141.647 87.577 142.302 89.2574 143.003 89.8631V110.406C142.302 111.597 141.647 114.906 141.137 120.012C140.489 126.499 140.125 135.292 140.125 144.463ZM27.5488 241.906H20.4545V-5.58693H27.5488V241.906ZM44.0404 241.906H36.9461V-5.58693H44.0404V241.906ZM35.7946 241.906H28.7003V-5.58693H35.7946V241.906ZM19.2964 241.906H12.2021V-5.58693H19.2964V241.906ZM85.2761 241.906H78.1818V-5.58693H85.2761V241.906ZM11.0506 241.906H3.95626V-5.58693H11.0506V241.906ZM68.7845 241.906H61.6902V-5.58693H68.7845V241.906ZM52.2863 241.906H45.1919V-5.58693H52.2863V241.906ZM77.0303 241.906H69.936V-5.58693H77.0303V241.906ZM60.5321 241.906H53.4378V-5.58693H60.5321V241.906ZM2.80477 241.906H-13.6141V-5.58693H2.80477V241.906ZM307.946 241.906H300.852V-5.58693H307.946V241.906ZM316.192 241.906H309.098V-5.58693H316.192V241.906ZM189.606 70.3758C189.606 75.6189 189.97 80.6405 190.619 84.3465C191.128 87.2643 191.783 89.1597 192.485 89.837V241.906H185.391V-5.58693H192.485V50.9145C191.783 51.5919 191.128 53.4872 190.619 56.4051C189.97 60.1111 189.606 65.1327 189.606 70.3758ZM291.455 241.906H284.36V-5.58693H291.455V241.906ZM299.7 241.906H292.606V-5.58693H299.7V241.906ZM349.182 241.906H342.088V-5.58693H349.182V241.906ZM332.684 241.906H325.589V-5.58693H332.684V241.906ZM357.428 241.906H350.333V-5.58693H357.428V241.906ZM374.998 241.906H358.579V-5.58693H374.998V241.906ZM283.202 241.906H276.108V-5.58693H283.202V241.906ZM340.936 241.906H333.842V-5.58693H340.936V241.906ZM324.438 241.906H317.343V-5.58693H324.438V241.906ZM222.596 144.463C222.596 153.633 222.96 162.426 223.609 168.913C224.118 174.019 224.773 177.328 225.475 178.52V241.906H218.38V-5.58693H225.475V55.2653C224.773 55.871 224.118 57.5514 223.609 60.1436C222.96 63.4393 222.596 67.9008 222.596 72.5642C222.596 77.2276 222.96 81.6891 223.609 84.9847C224.118 87.577 224.773 89.2574 225.475 89.8631V110.406C224.773 111.597 224.118 114.906 223.609 120.012C222.96 126.499 222.596 135.292 222.596 144.463ZM214.344 147.758C214.344 157.802 214.708 167.435 215.356 174.534C215.866 180.129 216.521 183.783 217.222 185.085V241.906H210.128V-5.58693H217.222V50.9145C216.521 51.5919 215.866 53.4872 215.356 56.4051C214.708 60.1111 214.344 65.1327 214.344 70.3758C214.344 75.6189 214.708 80.6405 215.356 84.3465C215.866 87.2643 216.521 89.1597 217.222 89.837V110.432C216.521 111.734 215.866 115.388 215.356 120.983C214.708 128.082 214.344 137.715 214.344 147.758ZM206.098 147.758C206.098 157.802 206.462 167.435 207.11 174.534C207.62 180.129 208.275 183.783 208.977 185.085V241.906H201.882V-5.58693H208.977V50.9145C208.275 51.5919 207.62 53.4872 207.11 56.4051C206.462 60.1111 206.098 65.1327 206.098 70.3758C206.098 75.6189 206.462 80.6405 207.11 84.3465C207.62 87.2643 208.275 89.1597 208.977 89.837V110.432C208.275 111.734 207.62 115.388 207.11 120.983C206.462 128.082 206.098 137.715 206.098 147.758ZM197.852 147.758C197.852 157.802 198.216 167.435 198.865 174.534C199.381 180.129 200.036 183.783 200.737 185.085V241.906H193.643V-5.58693H200.737V50.9145C200.029 51.5919 199.374 53.4872 198.865 56.4051C198.216 60.1111 197.852 65.1327 197.852 70.3758C197.852 75.6189 198.216 80.6405 198.865 84.3465C199.381 87.2643 200.036 89.1597 200.737 89.837V110.432C200.029 111.734 199.374 115.388 198.865 120.983C198.216 128.082 197.852 137.715 197.852 147.758ZM274.956 241.906H267.862V-5.58693H274.956V241.906ZM231.993 144.463C231.993 153.047 232.238 161.286 232.668 167.356C232.96 171.479 233.324 174.338 233.721 175.771V241.906H226.626V-5.58693H233.721V57.7273C233.324 58.4307 232.96 59.8375 232.668 61.8631C232.238 64.8461 231.993 68.8973 231.993 73.1178C231.993 77.3383 232.238 81.3895 232.668 84.3725C232.96 86.3981 233.324 87.8049 233.721 88.5083V113.154C233.324 114.593 232.96 117.453 232.668 121.569C232.238 127.639 231.993 135.878 231.993 144.463ZM258.465 241.906H251.37V-5.58693H258.465V241.906ZM266.71 241.906H259.616V-5.58693H266.71V241.906ZM250.219 241.906H243.125V-5.58693H250.219V241.906ZM241.966 241.906H234.872V-5.58693H241.966V241.906Z" fill="url(#paint1_linear_54550_237757)"/>
<path fill-rule="evenodd" clip-rule="evenodd" d="M376.639 -6.922H-15.6392V242.922H376.639V-6.922ZM111.172 241.906H118.266V-5.58693H111.172V241.906ZM133.03 144.463C133.03 153.047 133.275 161.286 133.705 167.356C133.997 171.479 134.361 174.332 134.758 175.771V241.906H127.663V-5.58693H134.758V57.7338C134.361 58.4372 133.997 59.844 133.705 61.8696C133.275 64.8526 133.03 68.9038 133.03 73.1243C133.03 77.3448 133.275 81.396 133.705 84.379C133.997 86.4046 134.361 87.8114 134.758 88.5149V113.161C134.361 114.593 133.997 117.453 133.705 121.569C133.275 127.639 133.03 135.878 133.03 144.463ZM126.512 241.906H119.418V-5.58693H126.512V241.906ZM110.014 241.906H102.919V-5.58693H110.014V241.906ZM101.768 241.906H94.6734V-5.58693H101.768V241.906ZM156.616 147.758C156.616 157.802 156.98 167.435 157.629 174.534C158.145 180.129 158.8 183.783 159.502 185.085V241.906H152.407V-5.58693H159.502V50.9145C158.794 51.5919 158.138 53.4872 157.629 56.4051C156.98 60.1111 156.616 65.1327 156.616 70.3758C156.616 75.6189 156.98 80.6405 157.629 84.3465C158.145 87.2643 158.8 89.1597 159.502 89.837V110.432C158.794 111.734 158.138 115.388 157.629 120.983C156.98 128.082 156.616 137.715 156.616 147.758ZM181.36 70.3758C181.36 75.6189 181.724 80.6405 182.373 84.3465C182.882 87.2643 183.538 89.1597 184.239 89.837V241.906H177.145V-5.58693H184.239V50.9145C183.538 51.5919 182.882 53.4872 182.373 56.4051C181.724 60.1111 181.36 65.1327 181.36 70.3758ZM173.108 70.3758C173.108 75.6189 173.472 80.6405 174.12 84.3465C174.63 87.2643 175.285 89.1597 175.987 89.837V241.906H168.892V-5.58693H175.987V50.9145C175.285 51.5919 174.63 53.4872 174.12 56.4051C173.472 60.1111 173.108 65.1327 173.108 70.3758ZM164.862 147.758C164.862 157.802 165.226 167.435 165.875 174.534C166.384 180.129 167.039 183.783 167.741 185.085V241.906H160.647V-5.58693H167.741V50.9145C167.039 51.5919 166.384 53.4872 165.875 56.4051C165.226 60.1111 164.862 65.1327 164.862 70.3758C164.862 75.6189 165.226 80.6405 165.875 84.3465C166.384 87.2643 167.039 89.1597 167.741 89.837V110.432C167.039 111.734 166.384 115.388 165.875 120.983C165.226 128.082 164.862 137.715 164.862 147.758ZM93.5219 241.906H86.4276V-5.58693H93.5219V241.906ZM148.37 147.758C148.37 157.802 148.734 167.435 149.383 174.534C149.893 180.129 150.548 183.783 151.249 185.085V241.906H144.155V-5.58693H151.249V50.9145C150.548 51.5919 149.893 53.4872 149.383 56.4051C148.734 60.1111 148.37 65.1327 148.37 70.3758C148.37 75.6189 148.734 80.6405 149.383 84.3465C149.893 87.2643 150.548 89.1597 151.249 89.837V110.432C150.548 111.734 149.893 115.388 149.383 120.983C148.734 128.082 148.37 137.715 148.37 147.758ZM140.125 144.463C140.125 153.633 140.489 162.426 141.137 168.913C141.647 174.019 142.302 177.328 143.003 178.52V241.906H135.909V-5.58693H143.003V55.2653C142.302 55.871 141.647 57.5514 141.137 60.1436C140.489 63.4393 140.125 67.9008 140.125 72.5642C140.125 77.2276 140.489 81.6891 141.137 84.9847C141.647 87.577 142.302 89.2574 143.003 89.8631V110.406C142.302 111.597 141.647 114.906 141.137 120.012C140.489 126.499 140.125 135.292 140.125 144.463ZM27.5488 241.906H20.4545V-5.58693H27.5488V241.906ZM44.0404 241.906H36.9461V-5.58693H44.0404V241.906ZM35.7946 241.906H28.7003V-5.58693H35.7946V241.906ZM19.2964 241.906H12.2021V-5.58693H19.2964V241.906ZM85.2761 241.906H78.1818V-5.58693H85.2761V241.906ZM11.0506 241.906H3.95626V-5.58693H11.0506V241.906ZM68.7845 241.906H61.6902V-5.58693H68.7845V241.906ZM52.2863 241.906H45.1919V-5.58693H52.2863V241.906ZM77.0303 241.906H69.936V-5.58693H77.0303V241.906ZM60.5321 241.906H53.4378V-5.58693H60.5321V241.906ZM2.80477 241.906H-13.6141V-5.58693H2.80477V241.906ZM307.946 241.906H300.852V-5.58693H307.946V241.906ZM316.192 241.906H309.098V-5.58693H316.192V241.906ZM189.606 70.3758C189.606 75.6189 189.97 80.6405 190.619 84.3465C191.128 87.2643 191.783 89.1597 192.485 89.837V241.906H185.391V-5.58693H192.485V50.9145C191.783 51.5919 191.128 53.4872 190.619 56.4051C189.97 60.1111 189.606 65.1327 189.606 70.3758ZM291.455 241.906H284.36V-5.58693H291.455V241.906ZM299.7 241.906H292.606V-5.58693H299.7V241.906ZM349.182 241.906H342.088V-5.58693H349.182V241.906ZM332.684 241.906H325.589V-5.58693H332.684V241.906ZM357.428 241.906H350.333V-5.58693H357.428V241.906ZM374.998 241.906H358.579V-5.58693H374.998V241.906ZM283.202 241.906H276.108V-5.58693H283.202V241.906ZM340.936 241.906H333.842V-5.58693H340.936V241.906ZM324.438 241.906H317.343V-5.58693H324.438V241.906ZM222.596 144.463C222.596 153.633 222.96 162.426 223.609 168.913C224.118 174.019 224.773 177.328 225.475 178.52V241.906H218.38V-5.58693H225.475V55.2653C224.773 55.871 224.118 57.5514 223.609 60.1436C222.96 63.4393 222.596 67.9008 222.596 72.5642C222.596 77.2276 222.96 81.6891 223.609 84.9847C224.118 87.577 224.773 89.2574 225.475 89.8631V110.406C224.773 111.597 224.118 114.906 223.609 120.012C222.96 126.499 222.596 135.292 222.596 144.463ZM214.344 147.758C214.344 157.802 214.708 167.435 215.356 174.534C215.866 180.129 216.521 183.783 217.222 185.085V241.906H210.128V-5.58693H217.222V50.9145C216.521 51.5919 215.866 53.4872 215.356 56.4051C214.708 60.1111 214.344 65.1327 214.344 70.3758C214.344 75.6189 214.708 80.6405 215.356 84.3465C215.866 87.2643 216.521 89.1597 217.222 89.837V110.432C216.521 111.734 215.866 115.388 215.356 120.983C214.708 128.082 214.344 137.715 214.344 147.758ZM206.098 147.758C206.098 157.802 206.462 167.435 207.11 174.534C207.62 180.129 208.275 183.783 208.977 185.085V241.906H201.882V-5.58693H208.977V50.9145C208.275 51.5919 207.62 53.4872 207.11 56.4051C206.462 60.1111 206.098 65.1327 206.098 70.3758C206.098 75.6189 206.462 80.6405 207.11 84.3465C207.62 87.2643 208.275 89.1597 208.977 89.837V110.432C208.275 111.734 207.62 115.388 207.11 120.983C206.462 128.082 206.098 137.715 206.098 147.758ZM197.852 147.758C197.852 157.802 198.216 167.435 198.865 174.534C199.381 180.129 200.036 183.783 200.737 185.085V241.906H193.643V-5.58693H200.737V50.9145C200.029 51.5919 199.374 53.4872 198.865 56.4051C198.216 60.1111 197.852 65.1327 197.852 70.3758C197.852 75.6189 198.216 80.6405 198.865 84.3465C199.381 87.2643 200.036 89.1597 200.737 89.837V110.432C200.029 111.734 199.374 115.388 198.865 120.983C198.216 128.082 197.852 137.715 197.852 147.758ZM274.956 241.906H267.862V-5.58693H274.956V241.906ZM231.993 144.463C231.993 153.047 232.238 161.286 232.668 167.356C232.96 171.479 233.324 174.338 233.721 175.771V241.906H226.626V-5.58693H233.721V57.7273C233.324 58.4307 232.96 59.8375 232.668 61.8631C232.238 64.8461 231.993 68.8973 231.993 73.1178C231.993 77.3383 232.238 81.3895 232.668 84.3725C232.96 86.3981 233.324 87.8049 233.721 88.5083V113.154C233.324 114.593 232.96 117.453 232.668 121.569C232.238 127.639 231.993 135.878 231.993 144.463ZM258.465 241.906H251.37V-5.58693H258.465V241.906ZM266.71 241.906H259.616V-5.58693H266.71V241.906ZM250.219 241.906H243.125V-5.58693H250.219V241.906ZM241.966 241.906H234.872V-5.58693H241.966V241.906Z" fill="url(#paint2_linear_54550_237757)" fill-opacity="0.8"/>
</g>
</g>
</g>
<rect x="0.864811" y="0.864811" width="359.27" height="234.27" stroke="url(#paint3_linear_54550_237757)" stroke-opacity="0.09" stroke-width="1.72962"/>
<defs>
<linearGradient id="paint0_linear_54550_237757" x1="-7.89754" y1="85.5544" x2="345.235" y2="114.51" gradientUnits="userSpaceOnUse">
<stop offset="0.00287194" stop-color="#D9D9D9" stop-opacity="0"/>
<stop offset="0.350332" stop-color="#D9D9D9"/>
<stop offset="0.534777" stop-color="#737373"/>
<stop offset="1" stop-color="#737373" stop-opacity="0"/>
</linearGradient>
<linearGradient id="paint1_linear_54550_237757" x1="180.5" y1="-6.922" x2="180.5" y2="242.922" gradientUnits="userSpaceOnUse">
<stop stop-color="white" stop-opacity="0"/>
<stop offset="0.375" stop-color="#A1ECFE"/>
<stop offset="0.706731" stop-color="#5B9CFD"/>
<stop offset="1" stop-color="white" stop-opacity="0"/>
</linearGradient>
<linearGradient id="paint2_linear_54550_237757" x1="180.5" y1="-6.922" x2="339.897" y2="314.195" gradientUnits="userSpaceOnUse">
<stop stop-opacity="0"/>
<stop offset="1"/>
</linearGradient>
<linearGradient id="paint3_linear_54550_237757" x1="384.865" y1="29.4831" x2="-42.3248" y2="221.108" gradientUnits="userSpaceOnUse">
<stop stop-color="white"/>
<stop offset="1" stop-color="white" stop-opacity="0"/>
</linearGradient>
<clipPath id="clip0_54550_237757">
<rect width="361" height="236" fill="white"/>
</clipPath>
</defs>
</svg>
