<svg width="361" height="236" viewBox="0 0 361 236" fill="none" xmlns="http://www.w3.org/2000/svg">
<g clip-path="url(#clip0_44170_175122)">
<mask id="mask0_44170_175122" style="mask-type:alpha" maskUnits="userSpaceOnUse" x="-6" y="-10" width="379" height="246">
<rect x="-5.86523" y="-10" width="378" height="246" fill="url(#paint0_linear_44170_175122)"/>
</mask>
<g mask="url(#mask0_44170_175122)">
<path fill-rule="evenodd" clip-rule="evenodd" d="M378.886 -7.75049H-26.1143V250.196H378.886V-7.75049ZM104.809 249.147H112.133V-6.37213H104.809V249.147ZM127.377 148.544C127.377 157.406 127.629 165.913 128.074 172.18C128.374 176.436 128.75 179.382 129.16 180.868V249.147H121.836V-6.37213H129.16V59.0021C128.75 59.7283 128.374 61.1808 128.074 63.2721C127.629 66.3518 127.377 70.5344 127.377 74.8918C127.377 79.2491 127.629 83.4317 128.074 86.5115C128.374 88.6027 128.75 90.0552 129.16 90.7814V116.226C128.75 117.706 128.374 120.658 128.074 124.908C127.629 131.175 127.377 139.681 127.377 148.544ZM120.647 249.147H113.322V-6.37213H120.647V249.147ZM103.613 249.147H96.289V-6.37213H103.613V249.147ZM95.1002 249.147H87.7758V-6.37213H95.1002V249.147ZM151.727 151.946C151.727 162.315 152.103 172.26 152.773 179.59C153.306 185.366 153.982 189.139 154.706 190.483V249.147H147.382V-6.37213H154.706V51.9617C153.975 52.661 153.299 54.6178 152.773 57.6303C152.103 61.4565 151.727 66.641 151.727 72.0541C151.727 77.4672 152.103 82.6517 152.773 86.4778C153.306 89.4903 153.982 91.4471 154.706 92.1465V113.409C153.975 114.754 153.299 118.526 152.773 124.302C152.103 131.632 151.727 141.577 151.727 151.946ZM177.274 72.0541C177.274 77.4672 177.65 82.6517 178.319 86.4778C178.845 89.4903 179.522 91.4471 180.246 92.1465V249.147H172.922V-6.37213H180.246V51.9617C179.522 52.661 178.845 54.6178 178.319 57.6303C177.65 61.4565 177.274 66.641 177.274 72.0541ZM168.754 72.0541C168.754 77.4672 169.13 82.6517 169.799 86.4778C170.325 89.4903 171.002 91.4471 171.726 92.1465V249.147H164.402V-6.37213H171.726V51.9617C171.002 52.661 170.325 54.6178 169.799 57.6303C169.13 61.4565 168.754 66.641 168.754 72.0541ZM160.241 151.946C160.241 162.315 160.617 172.26 161.286 179.59C161.812 185.366 162.489 189.139 163.213 190.483V249.147H155.888V-6.37213H163.213V51.9617C162.489 52.661 161.812 54.6178 161.286 57.6303C160.617 61.4565 160.241 66.641 160.241 72.0541C160.241 77.4672 160.617 82.6517 161.286 86.4778C161.812 89.4903 162.489 91.4471 163.213 92.1465V113.409C162.489 114.754 161.812 118.526 161.286 124.302C160.617 131.632 160.241 141.577 160.241 151.946ZM86.587 249.147H79.2626V-6.37213H86.587V249.147ZM143.214 151.946C143.214 162.315 143.59 172.26 144.26 179.59C144.786 185.366 145.462 189.139 146.186 190.483V249.147H138.862V-6.37213H146.186V51.9617C145.462 52.661 144.786 54.6178 144.26 57.6303C143.59 61.4565 143.214 66.641 143.214 72.0541C143.214 77.4672 143.59 82.6517 144.26 86.4778C144.786 89.4903 145.462 91.4471 146.186 92.1465V113.409C145.462 114.754 144.786 118.526 144.26 124.302C143.59 131.632 143.214 141.577 143.214 151.946ZM134.701 148.544C134.701 158.012 135.077 167.089 135.746 173.787C136.273 179.059 136.949 182.475 137.673 183.705V249.147H130.349V-6.37213H137.673V56.4536C136.949 57.0789 136.273 58.8138 135.746 61.4901C135.077 64.8926 134.701 69.4988 134.701 74.3135C134.701 79.1281 135.077 83.7343 135.746 87.1368C136.273 89.8131 136.949 91.548 137.673 92.1734V113.382C136.949 114.613 136.273 118.029 135.746 123.3C135.077 129.998 134.701 139.076 134.701 148.544ZM18.4743 249.147H11.1499V-6.37213H18.4743V249.147ZM35.5008 249.147H28.1764V-6.37213H35.5008V249.147ZM26.9875 249.147H19.6632V-6.37213H26.9875V249.147ZM9.95426 249.147H2.62988V-6.37213H9.95426V249.147ZM78.0738 249.147H70.7494V-6.37213H78.0738V249.147ZM1.44103 249.147H-5.88335V-6.37213H1.44103V249.147ZM61.0473 249.147H53.7229V-6.37213H61.0473V249.147ZM44.014 249.147H36.6896V-6.37213H44.014V249.147ZM69.5605 249.147H62.2361V-6.37213H69.5605V249.147ZM52.5272 249.147H45.2028V-6.37213H52.5272V249.147ZM-7.07219 249.147H-24.0235V-6.37213H-7.07219V249.147ZM307.965 249.147H300.641V-6.37213H307.965V249.147ZM316.478 249.147H309.154V-6.37213H316.478V249.147ZM185.787 72.0541C185.787 77.4672 186.163 82.6517 186.833 86.4778C187.359 89.4903 188.035 91.4471 188.759 92.1465V249.147H181.435V-6.37213H188.759V51.9617C188.035 52.661 187.359 54.6178 186.833 57.6303C186.163 61.4565 185.787 66.641 185.787 72.0541ZM290.939 249.147H283.614V-6.37213H290.939V249.147ZM299.452 249.147H292.127V-6.37213H299.452V249.147ZM350.538 249.147H343.214V-6.37213H350.538V249.147ZM333.505 249.147H326.18V-6.37213H333.505V249.147ZM359.051 249.147H351.727V-6.37213H359.051V249.147ZM377.191 249.147H360.24V-6.37213H377.191V249.147ZM282.418 249.147H275.094V-6.37213H282.418V249.147ZM342.025 249.147H334.7V-6.37213H342.025V249.147ZM324.991 249.147H317.667V-6.37213H324.991V249.147ZM219.847 148.544C219.847 158.012 220.223 167.089 220.892 173.787C221.418 179.059 222.095 182.475 222.819 183.705V249.147H215.495V-6.37213H222.819V56.4536C222.095 57.0789 221.418 58.8138 220.892 61.4901C220.223 64.8926 219.847 69.4988 219.847 74.3135C219.847 79.1281 220.223 83.7343 220.892 87.1368C221.418 89.8131 222.095 91.548 222.819 92.1734V113.382C222.095 114.613 221.418 118.029 220.892 123.3C220.223 129.998 219.847 139.076 219.847 148.544ZM211.327 151.946C211.327 162.315 211.703 172.26 212.372 179.59C212.898 185.366 213.575 189.139 214.299 190.483V249.147H206.975V-6.37213H214.299V51.9617C213.575 52.661 212.898 54.6178 212.372 57.6303C211.703 61.4565 211.327 66.641 211.327 72.0541C211.327 77.4672 211.703 82.6517 212.372 86.4778C212.898 89.4903 213.575 91.4471 214.299 92.1465V113.409C213.575 114.754 212.898 118.526 212.372 124.302C211.703 131.632 211.327 141.577 211.327 151.946ZM202.814 151.946C202.814 162.315 203.189 172.26 203.859 179.59C204.385 185.366 205.062 189.139 205.786 190.483V249.147H198.461V-6.37213H205.786V51.9617C205.062 52.661 204.385 54.6178 203.859 57.6303C203.189 61.4565 202.814 66.641 202.814 72.0541C202.814 77.4672 203.189 82.6517 203.859 86.4778C204.385 89.4903 205.062 91.4471 205.786 92.1465V113.409C205.062 114.754 204.385 118.526 203.859 124.302C203.189 131.632 202.814 141.577 202.814 151.946ZM194.3 151.946C194.3 162.315 194.676 172.26 195.346 179.59C195.879 185.366 196.555 189.139 197.279 190.483V249.147H189.955V-6.37213H197.279V51.9617C196.548 52.661 195.872 54.6178 195.346 57.6303C194.676 61.4565 194.3 66.641 194.3 72.0541C194.3 77.4672 194.676 82.6517 195.346 86.4778C195.879 89.4903 196.555 91.4471 197.279 92.1465V113.409C196.548 114.754 195.872 118.526 195.346 124.302C194.676 131.632 194.3 141.577 194.3 151.946ZM273.905 249.147H266.581V-6.37213H273.905V249.147ZM229.549 148.544C229.549 157.406 229.802 165.913 230.246 172.18C230.547 176.436 230.922 179.388 231.332 180.868V249.147H224.008V-6.37213H231.332V58.9954C230.922 59.7216 230.547 61.1741 230.246 63.2653C229.802 66.3451 229.549 70.5276 229.549 74.885C229.549 79.2424 229.802 83.425 230.246 86.5047C230.547 88.596 230.922 90.0485 231.332 90.7747V116.22C230.922 117.706 230.547 120.658 230.246 124.908C229.802 131.175 229.549 139.681 229.549 148.544ZM256.879 249.147H249.554V-6.37213H256.879V249.147ZM265.392 249.147H258.068V-6.37213H265.392V249.147ZM248.366 249.147H241.041V-6.37213H248.366V249.147ZM239.846 249.147H232.521V-6.37213H239.846V249.147Z" fill="url(#paint1_linear_44170_175122)"/>
<path fill-rule="evenodd" clip-rule="evenodd" d="M378.886 -7.75049H-26.1143V250.196H378.886V-7.75049ZM104.809 249.147H112.133V-6.37213H104.809V249.147ZM127.377 148.544C127.377 157.406 127.629 165.913 128.074 172.18C128.374 176.436 128.75 179.382 129.16 180.868V249.147H121.836V-6.37213H129.16V59.0021C128.75 59.7283 128.374 61.1808 128.074 63.2721C127.629 66.3518 127.377 70.5344 127.377 74.8918C127.377 79.2491 127.629 83.4317 128.074 86.5115C128.374 88.6027 128.75 90.0552 129.16 90.7814V116.226C128.75 117.706 128.374 120.658 128.074 124.908C127.629 131.175 127.377 139.681 127.377 148.544ZM120.647 249.147H113.322V-6.37213H120.647V249.147ZM103.613 249.147H96.289V-6.37213H103.613V249.147ZM95.1002 249.147H87.7758V-6.37213H95.1002V249.147ZM151.727 151.946C151.727 162.315 152.103 172.26 152.773 179.59C153.306 185.366 153.982 189.139 154.706 190.483V249.147H147.382V-6.37213H154.706V51.9617C153.975 52.661 153.299 54.6178 152.773 57.6303C152.103 61.4565 151.727 66.641 151.727 72.0541C151.727 77.4672 152.103 82.6517 152.773 86.4778C153.306 89.4903 153.982 91.4471 154.706 92.1465V113.409C153.975 114.754 153.299 118.526 152.773 124.302C152.103 131.632 151.727 141.577 151.727 151.946ZM177.274 72.0541C177.274 77.4672 177.65 82.6517 178.319 86.4778C178.845 89.4903 179.522 91.4471 180.246 92.1465V249.147H172.922V-6.37213H180.246V51.9617C179.522 52.661 178.845 54.6178 178.319 57.6303C177.65 61.4565 177.274 66.641 177.274 72.0541ZM168.754 72.0541C168.754 77.4672 169.13 82.6517 169.799 86.4778C170.325 89.4903 171.002 91.4471 171.726 92.1465V249.147H164.402V-6.37213H171.726V51.9617C171.002 52.661 170.325 54.6178 169.799 57.6303C169.13 61.4565 168.754 66.641 168.754 72.0541ZM160.241 151.946C160.241 162.315 160.617 172.26 161.286 179.59C161.812 185.366 162.489 189.139 163.213 190.483V249.147H155.888V-6.37213H163.213V51.9617C162.489 52.661 161.812 54.6178 161.286 57.6303C160.617 61.4565 160.241 66.641 160.241 72.0541C160.241 77.4672 160.617 82.6517 161.286 86.4778C161.812 89.4903 162.489 91.4471 163.213 92.1465V113.409C162.489 114.754 161.812 118.526 161.286 124.302C160.617 131.632 160.241 141.577 160.241 151.946ZM86.587 249.147H79.2626V-6.37213H86.587V249.147ZM143.214 151.946C143.214 162.315 143.59 172.26 144.26 179.59C144.786 185.366 145.462 189.139 146.186 190.483V249.147H138.862V-6.37213H146.186V51.9617C145.462 52.661 144.786 54.6178 144.26 57.6303C143.59 61.4565 143.214 66.641 143.214 72.0541C143.214 77.4672 143.59 82.6517 144.26 86.4778C144.786 89.4903 145.462 91.4471 146.186 92.1465V113.409C145.462 114.754 144.786 118.526 144.26 124.302C143.59 131.632 143.214 141.577 143.214 151.946ZM134.701 148.544C134.701 158.012 135.077 167.089 135.746 173.787C136.273 179.059 136.949 182.475 137.673 183.705V249.147H130.349V-6.37213H137.673V56.4536C136.949 57.0789 136.273 58.8138 135.746 61.4901C135.077 64.8926 134.701 69.4988 134.701 74.3135C134.701 79.1281 135.077 83.7343 135.746 87.1368C136.273 89.8131 136.949 91.548 137.673 92.1734V113.382C136.949 114.613 136.273 118.029 135.746 123.3C135.077 129.998 134.701 139.076 134.701 148.544ZM18.4743 249.147H11.1499V-6.37213H18.4743V249.147ZM35.5008 249.147H28.1764V-6.37213H35.5008V249.147ZM26.9875 249.147H19.6632V-6.37213H26.9875V249.147ZM9.95426 249.147H2.62988V-6.37213H9.95426V249.147ZM78.0738 249.147H70.7494V-6.37213H78.0738V249.147ZM1.44103 249.147H-5.88335V-6.37213H1.44103V249.147ZM61.0473 249.147H53.7229V-6.37213H61.0473V249.147ZM44.014 249.147H36.6896V-6.37213H44.014V249.147ZM69.5605 249.147H62.2361V-6.37213H69.5605V249.147ZM52.5272 249.147H45.2028V-6.37213H52.5272V249.147ZM-7.07219 249.147H-24.0235V-6.37213H-7.07219V249.147ZM307.965 249.147H300.641V-6.37213H307.965V249.147ZM316.478 249.147H309.154V-6.37213H316.478V249.147ZM185.787 72.0541C185.787 77.4672 186.163 82.6517 186.833 86.4778C187.359 89.4903 188.035 91.4471 188.759 92.1465V249.147H181.435V-6.37213H188.759V51.9617C188.035 52.661 187.359 54.6178 186.833 57.6303C186.163 61.4565 185.787 66.641 185.787 72.0541ZM290.939 249.147H283.614V-6.37213H290.939V249.147ZM299.452 249.147H292.127V-6.37213H299.452V249.147ZM350.538 249.147H343.214V-6.37213H350.538V249.147ZM333.505 249.147H326.18V-6.37213H333.505V249.147ZM359.051 249.147H351.727V-6.37213H359.051V249.147ZM377.191 249.147H360.24V-6.37213H377.191V249.147ZM282.418 249.147H275.094V-6.37213H282.418V249.147ZM342.025 249.147H334.7V-6.37213H342.025V249.147ZM324.991 249.147H317.667V-6.37213H324.991V249.147ZM219.847 148.544C219.847 158.012 220.223 167.089 220.892 173.787C221.418 179.059 222.095 182.475 222.819 183.705V249.147H215.495V-6.37213H222.819V56.4536C222.095 57.0789 221.418 58.8138 220.892 61.4901C220.223 64.8926 219.847 69.4988 219.847 74.3135C219.847 79.1281 220.223 83.7343 220.892 87.1368C221.418 89.8131 222.095 91.548 222.819 92.1734V113.382C222.095 114.613 221.418 118.029 220.892 123.3C220.223 129.998 219.847 139.076 219.847 148.544ZM211.327 151.946C211.327 162.315 211.703 172.26 212.372 179.59C212.898 185.366 213.575 189.139 214.299 190.483V249.147H206.975V-6.37213H214.299V51.9617C213.575 52.661 212.898 54.6178 212.372 57.6303C211.703 61.4565 211.327 66.641 211.327 72.0541C211.327 77.4672 211.703 82.6517 212.372 86.4778C212.898 89.4903 213.575 91.4471 214.299 92.1465V113.409C213.575 114.754 212.898 118.526 212.372 124.302C211.703 131.632 211.327 141.577 211.327 151.946ZM202.814 151.946C202.814 162.315 203.189 172.26 203.859 179.59C204.385 185.366 205.062 189.139 205.786 190.483V249.147H198.461V-6.37213H205.786V51.9617C205.062 52.661 204.385 54.6178 203.859 57.6303C203.189 61.4565 202.814 66.641 202.814 72.0541C202.814 77.4672 203.189 82.6517 203.859 86.4778C204.385 89.4903 205.062 91.4471 205.786 92.1465V113.409C205.062 114.754 204.385 118.526 203.859 124.302C203.189 131.632 202.814 141.577 202.814 151.946ZM194.3 151.946C194.3 162.315 194.676 172.26 195.346 179.59C195.879 185.366 196.555 189.139 197.279 190.483V249.147H189.955V-6.37213H197.279V51.9617C196.548 52.661 195.872 54.6178 195.346 57.6303C194.676 61.4565 194.3 66.641 194.3 72.0541C194.3 77.4672 194.676 82.6517 195.346 86.4778C195.879 89.4903 196.555 91.4471 197.279 92.1465V113.409C196.548 114.754 195.872 118.526 195.346 124.302C194.676 131.632 194.3 141.577 194.3 151.946ZM273.905 249.147H266.581V-6.37213H273.905V249.147ZM229.549 148.544C229.549 157.406 229.802 165.913 230.246 172.18C230.547 176.436 230.922 179.388 231.332 180.868V249.147H224.008V-6.37213H231.332V58.9954C230.922 59.7216 230.547 61.1741 230.246 63.2653C229.802 66.3451 229.549 70.5276 229.549 74.885C229.549 79.2424 229.802 83.425 230.246 86.5047C230.547 88.596 230.922 90.0485 231.332 90.7747V116.22C230.922 117.706 230.547 120.658 230.246 124.908C229.802 131.175 229.549 139.681 229.549 148.544ZM256.879 249.147H249.554V-6.37213H256.879V249.147ZM265.392 249.147H258.068V-6.37213H265.392V249.147ZM248.366 249.147H241.041V-6.37213H248.366V249.147ZM239.846 249.147H232.521V-6.37213H239.846V249.147Z" fill="url(#paint2_linear_44170_175122)" fill-opacity="0.8"/>
<path fill-rule="evenodd" clip-rule="evenodd" d="M378.886 -7.75049H-26.1143V250.196H378.886V-7.75049ZM104.809 249.147H112.133V-6.37213H104.809V249.147ZM127.377 148.544C127.377 157.406 127.629 165.913 128.074 172.18C128.374 176.436 128.75 179.382 129.16 180.868V249.147H121.836V-6.37213H129.16V59.0021C128.75 59.7283 128.374 61.1808 128.074 63.2721C127.629 66.3518 127.377 70.5344 127.377 74.8918C127.377 79.2491 127.629 83.4317 128.074 86.5115C128.374 88.6027 128.75 90.0552 129.16 90.7814V116.226C128.75 117.706 128.374 120.658 128.074 124.908C127.629 131.175 127.377 139.681 127.377 148.544ZM120.647 249.147H113.322V-6.37213H120.647V249.147ZM103.613 249.147H96.289V-6.37213H103.613V249.147ZM95.1002 249.147H87.7758V-6.37213H95.1002V249.147ZM151.727 151.946C151.727 162.315 152.103 172.26 152.773 179.59C153.306 185.366 153.982 189.139 154.706 190.483V249.147H147.382V-6.37213H154.706V51.9617C153.975 52.661 153.299 54.6178 152.773 57.6303C152.103 61.4565 151.727 66.641 151.727 72.0541C151.727 77.4672 152.103 82.6517 152.773 86.4778C153.306 89.4903 153.982 91.4471 154.706 92.1465V113.409C153.975 114.754 153.299 118.526 152.773 124.302C152.103 131.632 151.727 141.577 151.727 151.946ZM177.274 72.0541C177.274 77.4672 177.65 82.6517 178.319 86.4778C178.845 89.4903 179.522 91.4471 180.246 92.1465V249.147H172.922V-6.37213H180.246V51.9617C179.522 52.661 178.845 54.6178 178.319 57.6303C177.65 61.4565 177.274 66.641 177.274 72.0541ZM168.754 72.0541C168.754 77.4672 169.13 82.6517 169.799 86.4778C170.325 89.4903 171.002 91.4471 171.726 92.1465V249.147H164.402V-6.37213H171.726V51.9617C171.002 52.661 170.325 54.6178 169.799 57.6303C169.13 61.4565 168.754 66.641 168.754 72.0541ZM160.241 151.946C160.241 162.315 160.617 172.26 161.286 179.59C161.812 185.366 162.489 189.139 163.213 190.483V249.147H155.888V-6.37213H163.213V51.9617C162.489 52.661 161.812 54.6178 161.286 57.6303C160.617 61.4565 160.241 66.641 160.241 72.0541C160.241 77.4672 160.617 82.6517 161.286 86.4778C161.812 89.4903 162.489 91.4471 163.213 92.1465V113.409C162.489 114.754 161.812 118.526 161.286 124.302C160.617 131.632 160.241 141.577 160.241 151.946ZM86.587 249.147H79.2626V-6.37213H86.587V249.147ZM143.214 151.946C143.214 162.315 143.59 172.26 144.26 179.59C144.786 185.366 145.462 189.139 146.186 190.483V249.147H138.862V-6.37213H146.186V51.9617C145.462 52.661 144.786 54.6178 144.26 57.6303C143.59 61.4565 143.214 66.641 143.214 72.0541C143.214 77.4672 143.59 82.6517 144.26 86.4778C144.786 89.4903 145.462 91.4471 146.186 92.1465V113.409C145.462 114.754 144.786 118.526 144.26 124.302C143.59 131.632 143.214 141.577 143.214 151.946ZM134.701 148.544C134.701 158.012 135.077 167.089 135.746 173.787C136.273 179.059 136.949 182.475 137.673 183.705V249.147H130.349V-6.37213H137.673V56.4536C136.949 57.0789 136.273 58.8138 135.746 61.4901C135.077 64.8926 134.701 69.4988 134.701 74.3135C134.701 79.1281 135.077 83.7343 135.746 87.1368C136.273 89.8131 136.949 91.548 137.673 92.1734V113.382C136.949 114.613 136.273 118.029 135.746 123.3C135.077 129.998 134.701 139.076 134.701 148.544ZM18.4743 249.147H11.1499V-6.37213H18.4743V249.147ZM35.5008 249.147H28.1764V-6.37213H35.5008V249.147ZM26.9875 249.147H19.6632V-6.37213H26.9875V249.147ZM9.95426 249.147H2.62988V-6.37213H9.95426V249.147ZM78.0738 249.147H70.7494V-6.37213H78.0738V249.147ZM1.44103 249.147H-5.88335V-6.37213H1.44103V249.147ZM61.0473 249.147H53.7229V-6.37213H61.0473V249.147ZM44.014 249.147H36.6896V-6.37213H44.014V249.147ZM69.5605 249.147H62.2361V-6.37213H69.5605V249.147ZM52.5272 249.147H45.2028V-6.37213H52.5272V249.147ZM-7.07219 249.147H-24.0235V-6.37213H-7.07219V249.147ZM307.965 249.147H300.641V-6.37213H307.965V249.147ZM316.478 249.147H309.154V-6.37213H316.478V249.147ZM185.787 72.0541C185.787 77.4672 186.163 82.6517 186.833 86.4778C187.359 89.4903 188.035 91.4471 188.759 92.1465V249.147H181.435V-6.37213H188.759V51.9617C188.035 52.661 187.359 54.6178 186.833 57.6303C186.163 61.4565 185.787 66.641 185.787 72.0541ZM290.939 249.147H283.614V-6.37213H290.939V249.147ZM299.452 249.147H292.127V-6.37213H299.452V249.147ZM350.538 249.147H343.214V-6.37213H350.538V249.147ZM333.505 249.147H326.18V-6.37213H333.505V249.147ZM359.051 249.147H351.727V-6.37213H359.051V249.147ZM377.191 249.147H360.24V-6.37213H377.191V249.147ZM282.418 249.147H275.094V-6.37213H282.418V249.147ZM342.025 249.147H334.7V-6.37213H342.025V249.147ZM324.991 249.147H317.667V-6.37213H324.991V249.147ZM219.847 148.544C219.847 158.012 220.223 167.089 220.892 173.787C221.418 179.059 222.095 182.475 222.819 183.705V249.147H215.495V-6.37213H222.819V56.4536C222.095 57.0789 221.418 58.8138 220.892 61.4901C220.223 64.8926 219.847 69.4988 219.847 74.3135C219.847 79.1281 220.223 83.7343 220.892 87.1368C221.418 89.8131 222.095 91.548 222.819 92.1734V113.382C222.095 114.613 221.418 118.029 220.892 123.3C220.223 129.998 219.847 139.076 219.847 148.544ZM211.327 151.946C211.327 162.315 211.703 172.26 212.372 179.59C212.898 185.366 213.575 189.139 214.299 190.483V249.147H206.975V-6.37213H214.299V51.9617C213.575 52.661 212.898 54.6178 212.372 57.6303C211.703 61.4565 211.327 66.641 211.327 72.0541C211.327 77.4672 211.703 82.6517 212.372 86.4778C212.898 89.4903 213.575 91.4471 214.299 92.1465V113.409C213.575 114.754 212.898 118.526 212.372 124.302C211.703 131.632 211.327 141.577 211.327 151.946ZM202.814 151.946C202.814 162.315 203.189 172.26 203.859 179.59C204.385 185.366 205.062 189.139 205.786 190.483V249.147H198.461V-6.37213H205.786V51.9617C205.062 52.661 204.385 54.6178 203.859 57.6303C203.189 61.4565 202.814 66.641 202.814 72.0541C202.814 77.4672 203.189 82.6517 203.859 86.4778C204.385 89.4903 205.062 91.4471 205.786 92.1465V113.409C205.062 114.754 204.385 118.526 203.859 124.302C203.189 131.632 202.814 141.577 202.814 151.946ZM194.3 151.946C194.3 162.315 194.676 172.26 195.346 179.59C195.879 185.366 196.555 189.139 197.279 190.483V249.147H189.955V-6.37213H197.279V51.9617C196.548 52.661 195.872 54.6178 195.346 57.6303C194.676 61.4565 194.3 66.641 194.3 72.0541C194.3 77.4672 194.676 82.6517 195.346 86.4778C195.879 89.4903 196.555 91.4471 197.279 92.1465V113.409C196.548 114.754 195.872 118.526 195.346 124.302C194.676 131.632 194.3 141.577 194.3 151.946ZM273.905 249.147H266.581V-6.37213H273.905V249.147ZM229.549 148.544C229.549 157.406 229.802 165.913 230.246 172.18C230.547 176.436 230.922 179.388 231.332 180.868V249.147H224.008V-6.37213H231.332V58.9954C230.922 59.7216 230.547 61.1741 230.246 63.2653C229.802 66.3451 229.549 70.5276 229.549 74.885C229.549 79.2424 229.802 83.425 230.246 86.5047C230.547 88.596 230.922 90.0485 231.332 90.7747V116.22C230.922 117.706 230.547 120.658 230.246 124.908C229.802 131.175 229.549 139.681 229.549 148.544ZM256.879 249.147H249.554V-6.37213H256.879V249.147ZM265.392 249.147H258.068V-6.37213H265.392V249.147ZM248.366 249.147H241.041V-6.37213H248.366V249.147ZM239.846 249.147H232.521V-6.37213H239.846V249.147Z" fill="url(#paint3_linear_44170_175122)" fill-opacity="0.5"/>
</g>
</g>
<defs>
<linearGradient id="paint0_linear_44170_175122" x1="7.3768" y1="113" x2="355.281" y2="113" gradientUnits="userSpaceOnUse">
<stop offset="0.00287194" stop-color="#D9D9D9" stop-opacity="0"/>
<stop offset="0.456355" stop-color="#D9D9D9"/>
<stop offset="0.534777" stop-color="#737373"/>
<stop offset="1" stop-color="#737373" stop-opacity="0"/>
</linearGradient>
<linearGradient id="paint1_linear_44170_175122" x1="176.386" y1="-7.75049" x2="176.386" y2="250.196" gradientUnits="userSpaceOnUse">
<stop stop-color="white" stop-opacity="0"/>
<stop offset="0.375" stop-color="#A1ECFE"/>
<stop offset="0.706731" stop-color="#5B9CFD"/>
<stop offset="1" stop-color="white" stop-opacity="0"/>
</linearGradient>
<linearGradient id="paint2_linear_44170_175122" x1="176.386" y1="-7.75049" x2="176.386" y2="250.196" gradientUnits="userSpaceOnUse">
<stop stop-opacity="0"/>
<stop offset="1"/>
</linearGradient>
<linearGradient id="paint3_linear_44170_175122" x1="176.386" y1="-7.75049" x2="176.386" y2="250.196" gradientUnits="userSpaceOnUse">
<stop offset="0.16257"/>
<stop offset="0.640217" stop-opacity="0"/>
</linearGradient>
<clipPath id="clip0_44170_175122">
<rect width="361" height="236" fill="white"/>
</clipPath>
</defs>
</svg>
