<svg width="16" height="16" viewBox="0 0 16 16" fill="none" xmlns="http://www.w3.org/2000/svg">
<path d="M2.66797 8.00004C2.66797 5.05452 5.05578 2.66671 8.0013 2.66671C10.9468 2.66671 13.3346 5.05452 13.3346 8.00004C13.3346 10.9456 10.9468 13.3334 8.0013 13.3334C5.05578 13.3334 2.66797 10.9456 2.66797 8.00004ZM1.33463 8.00004C1.33463 11.6819 4.3194 14.6667 8.0013 14.6667C11.6832 14.6667 14.668 11.6819 14.668 8.00004C14.668 4.31814 11.6832 1.33337 8.0013 1.33337C4.3194 1.33337 1.33463 4.31814 1.33463 8.00004Z" fill="#919191"/>
<path d="M5.0336 11.2965C4.98575 11.2867 4.9416 11.2631 4.90703 11.2286C4.87244 11.194 4.84812 11.1499 4.83828 11.102C4.82846 11.0541 4.83344 11.0044 4.85156 10.9591L6.31641 7.29655C6.417 7.04501 6.56782 6.81624 6.75938 6.62468C6.95086 6.43321 7.17905 6.28228 7.43047 6.18171L11.093 4.71686C11.1384 4.69868 11.1888 4.69453 11.2367 4.70436C11.2845 4.71424 11.3288 4.73781 11.3633 4.77233C11.3978 4.8069 11.4214 4.85105 11.4313 4.89889C11.441 4.94678 11.4361 4.99648 11.418 5.04186L9.95313 8.70436C9.85253 8.95589 9.70171 9.18468 9.51016 9.37624C9.31872 9.56759 9.09037 9.71789 8.83906 9.81843L5.17656 11.284C5.13123 11.3022 5.08144 11.3063 5.0336 11.2965ZM8.28125 8.73561C8.42655 8.70668 8.56003 8.63562 8.66484 8.53092C8.76973 8.42604 8.84138 8.29204 8.87031 8.14655C8.89923 8.00109 8.88488 7.84998 8.82813 7.71296C8.77138 7.57605 8.67477 7.45939 8.55156 7.37702C8.42831 7.29467 8.28339 7.25052 8.13516 7.25046C7.93629 7.25046 7.74533 7.3294 7.60469 7.46999C7.46404 7.61064 7.38516 7.80155 7.38516 8.00046C7.38518 8.14865 7.42866 8.29361 7.51094 8.41686C7.59333 8.54017 7.71065 8.63666 7.84766 8.69343C7.9847 8.75019 8.13577 8.76455 8.28125 8.73561Z" fill="#919191"/>
</svg>
