<svg width="24" height="24" viewBox="0 0 24 24" fill="none" xmlns="http://www.w3.org/2000/svg">
<path d="M11.9989 1.25C13.6801 1.25 15.0474 1.818 16.2401 2.43555C16.6005 2.62213 16.9358 2.80702 17.2557 2.9834C18.0386 3.41503 18.7331 3.79707 19.495 4.04004C19.9422 4.18264 20.3381 4.3099 20.619 4.41992C20.8834 4.5235 21.1978 4.66537 21.4208 4.91309C21.6209 5.13551 21.7237 5.38517 21.7919 5.62402C21.8538 5.84102 21.9071 6.13515 21.9579 6.41699C23.1961 13.2824 20.492 19.7874 13.8817 22.3184C13.232 22.5672 12.7529 22.75 12.0018 22.75C11.2511 22.7499 10.7725 22.5671 10.1229 22.3184C3.51247 19.7875 0.805883 13.2827 2.04382 6.41699C2.0946 6.13521 2.14694 5.84097 2.20886 5.62402C2.27708 5.38512 2.38076 5.13556 2.58093 4.91309C2.80377 4.66554 3.11745 4.5235 3.38171 4.41992C3.66264 4.30984 4.05943 4.18274 4.50671 4.04004C5.26815 3.79705 5.96169 3.41496 6.74402 2.9834L7.23621 2.71289C7.40482 2.62139 7.57861 2.52883 7.75867 2.43555C8.95078 1.81795 10.3177 1.25002 11.9989 1.25ZM17.9423 8.66602C17.7577 8.14572 17.1863 7.87329 16.6659 8.05762C15.7879 8.36862 14.9484 8.96148 14.2118 9.60742C13.4649 10.2624 12.7669 11.0233 12.1737 11.7344C11.7345 12.2609 11.3453 12.7685 11.0302 13.1992C10.7415 12.8535 10.4537 12.6008 10.1796 12.418C9.90519 12.2351 9.55205 12 8.99988 12C8.44771 12 8.00003 12.4479 7.99988 13C7.99988 13.5207 8.39782 13.9488 8.90613 13.9961C9.11016 14.015 9.66468 14.566 10.1053 15.4473C10.2665 15.7696 10.5892 15.9806 10.9491 15.999C11.3088 16.0173 11.6504 15.8401 11.8436 15.5361C11.8486 15.5286 12.1933 15.0126 12.3573 14.7803C12.6883 14.3113 13.157 13.6771 13.7089 13.0156C14.2626 12.3519 14.8875 11.6749 15.5302 11.1113C16.1832 10.5386 16.8002 10.1324 17.3339 9.94336C17.8545 9.75898 18.1266 9.18661 17.9423 8.66602Z" fill="#0099FF"/>
</svg>
