<svg width="20" height="20" viewBox="0 0 20 20" fill="none" xmlns="http://www.w3.org/2000/svg">
<path fill-rule="evenodd" clip-rule="evenodd" d="M10.0023 11.6453C9.55558 11.6453 9.30643 11.3875 9.29784 10.9322L9.18615 6.25839C9.17756 5.80303 9.51262 5.47656 9.99375 5.47656C10.4577 5.47656 10.8185 5.81163 10.8099 6.26698L10.6811 10.9322C10.6725 11.3961 10.4233 11.6453 10.0023 11.6453ZM10.0023 14.5234C9.48685 14.5234 9.04009 14.1111 9.04009 13.6041C9.04009 13.0887 9.47826 12.6763 10.0023 12.6763C10.5178 12.6763 10.956 13.0801 10.956 13.6041C10.956 14.1196 10.5092 14.5234 10.0023 14.5234Z" fill="#FF3333"/>
<path fill-rule="evenodd" clip-rule="evenodd" d="M9.99805 1.45508C5.27882 1.45508 1.45312 5.28077 1.45312 10C1.45312 14.7192 5.27882 18.5449 9.99805 18.5449C14.7173 18.5449 18.543 14.7192 18.543 10C18.543 5.28077 14.7173 1.45508 9.99805 1.45508ZM2.70312 10C2.70312 5.97113 5.96917 2.70508 9.99805 2.70508C14.0269 2.70508 17.293 5.97113 17.293 10C17.293 14.0289 14.0269 17.2949 9.99805 17.2949C5.96917 17.2949 2.70312 14.0289 2.70312 10Z" fill="#FF3333"/>
</svg>
