<svg width="57" height="56" viewBox="0 0 57 56" fill="none" xmlns="http://www.w3.org/2000/svg">
<g clip-path="url(#clip0_33720_47775)">
<rect opacity="0.1" x="0.5" width="56" height="56" fill="#FFB71B"/>
<path fill-rule="evenodd" clip-rule="evenodd" d="M41.8346 27.9993C41.8346 35.2804 35.7954 41.3327 28.5013 41.3327C21.2203 41.3327 15.168 35.2804 15.168 27.9993C15.168 20.7052 21.2072 14.666 28.4882 14.666C35.7823 14.666 41.8346 20.7052 41.8346 27.9993ZM28.5143 30.7077C27.8372 30.7077 27.4596 30.3171 27.4466 29.627L27.2773 22.5436C27.2643 21.8535 27.7721 21.3587 28.5013 21.3587C29.2044 21.3587 29.7513 21.8665 29.7383 22.5566L29.543 29.627C29.5299 30.3301 29.1523 30.7077 28.5143 30.7077ZM28.5143 35.0697C27.7331 35.0697 27.056 34.4447 27.056 33.6764C27.056 32.8952 27.7201 32.2702 28.5143 32.2702C29.2956 32.2702 29.9596 32.8822 29.9596 33.6764C29.9596 34.4577 29.2826 35.0697 28.5143 35.0697Z" fill="#FFB71B"/>
</g>
<defs>
<clipPath id="clip0_33720_47775">
<rect x="0.5" width="56" height="56" rx="28" fill="white"/>
</clipPath>
</defs>
</svg>
