<svg width="21" height="20" viewBox="0 0 21 20" fill="none" xmlns="http://www.w3.org/2000/svg">
<path d="M4.51351 9.34638C3.31373 9.34638 2.72217 8.76315 2.72217 7.53004V4.039C2.72217 2.80589 3.31373 2.22266 4.51351 2.22266H8.05455C9.25433 2.22266 9.8459 2.80589 9.8459 4.039V7.53004C9.8459 8.76315 9.25433 9.34638 8.05455 9.34638H4.51351ZM12.9453 9.34638C11.7372 9.34638 11.154 8.76315 11.154 7.53004V4.039C11.154 2.80589 11.7372 2.22266 12.9453 2.22266H16.4864C17.6862 2.22266 18.2777 2.80589 18.2777 4.039V7.53004C18.2777 8.76315 17.6862 9.34638 16.4864 9.34638H12.9453ZM4.48019 8.02995H8.07954C8.37949 8.02995 8.52946 7.87998 8.52946 7.5717V3.99734C8.52946 3.68906 8.37949 3.53909 8.07954 3.53909H4.48019C4.18024 3.53909 4.0386 3.68906 4.0386 3.99734V7.5717C4.0386 7.87998 4.18024 8.02995 4.48019 8.02995ZM12.912 8.02995H16.5197C16.8197 8.02995 16.9613 7.87998 16.9613 7.5717V3.99734C16.9613 3.68906 16.8197 3.53909 16.5197 3.53909H12.912C12.6121 3.53909 12.4621 3.68906 12.4621 3.99734V7.5717C12.4621 7.87998 12.6121 8.02995 12.912 8.02995ZM5.53833 6.70519C5.40502 6.70519 5.36336 6.64687 5.36336 6.49689V5.06382C5.36336 4.92217 5.40502 4.86385 5.53833 4.86385H7.0214C7.14638 4.86385 7.2047 4.92217 7.2047 5.06382V6.49689C7.2047 6.64687 7.14638 6.70519 7.0214 6.70519H5.53833ZM14.0035 6.70519C13.8785 6.70519 13.8369 6.64687 13.8369 6.49689V5.06382C13.8369 4.92217 13.8785 4.86385 14.0035 4.86385H15.4866C15.6199 4.86385 15.6699 4.92217 15.6699 5.06382V6.49689C15.6699 6.64687 15.6199 6.70519 15.4866 6.70519H14.0035ZM4.51351 17.7782C3.31373 17.7782 2.72217 17.195 2.72217 15.9535V12.4708C2.72217 11.2377 3.31373 10.6545 4.51351 10.6545H8.05455C9.25433 10.6545 9.8459 11.2377 9.8459 12.4708V15.9535C9.8459 17.195 9.25433 17.7782 8.05455 17.7782H4.51351ZM11.7289 12.8791C11.6039 12.8791 11.5623 12.8208 11.5623 12.6708V11.2294C11.5623 11.0961 11.6039 11.0377 11.7289 11.0377H13.212C13.3453 11.0377 13.3953 11.0961 13.3953 11.2294V12.6708C13.3953 12.8208 13.3453 12.8791 13.212 12.8791H11.7289ZM16.1948 12.8791C16.0615 12.8791 16.0198 12.8208 16.0198 12.6708V11.2294C16.0198 11.0961 16.0615 11.0377 16.1948 11.0377H17.6778C17.8028 11.0377 17.8528 11.0961 17.8528 11.2294V12.6708C17.8528 12.8208 17.8028 12.8791 17.6778 12.8791H16.1948ZM4.48019 16.4618H8.07954C8.37949 16.4618 8.52946 16.3118 8.52946 16.0035V12.4292C8.52946 12.1126 8.37949 11.9709 8.07954 11.9709H4.48019C4.18024 11.9709 4.0386 12.1126 4.0386 12.4292V16.0035C4.0386 16.3118 4.18024 16.4618 4.48019 16.4618ZM13.9785 15.1037C13.8535 15.1037 13.8119 15.0537 13.8119 14.9037V13.4623C13.8119 13.3207 13.8535 13.2707 13.9785 13.2707H15.4699C15.5949 13.2707 15.6449 13.3207 15.6449 13.4623V14.9037C15.6449 15.0537 15.5949 15.1037 15.4699 15.1037H13.9785ZM5.53833 15.1287C5.40502 15.1287 5.36336 15.0787 5.36336 14.9287V13.4873C5.36336 13.3457 5.40502 13.2957 5.53833 13.2957H7.0214C7.14638 13.2957 7.2047 13.3457 7.2047 13.4873V14.9287C7.2047 15.0787 7.14638 15.1287 7.0214 15.1287H5.53833ZM11.7289 17.3366C11.6039 17.3366 11.5623 17.2783 11.5623 17.1283V15.6953C11.5623 15.5536 11.6039 15.4953 11.7289 15.4953H13.212C13.3453 15.4953 13.3953 15.5536 13.3953 15.6953V17.1283C13.3953 17.2783 13.3453 17.3366 13.212 17.3366H11.7289ZM16.1948 17.3366C16.0615 17.3366 16.0198 17.2783 16.0198 17.1283V15.6953C16.0198 15.5536 16.0615 15.4953 16.1948 15.4953H17.6778C17.8028 15.4953 17.8528 15.5536 17.8528 15.6953V17.1283C17.8528 17.2783 17.8028 17.3366 17.6778 17.3366H16.1948Z" fill="#656565"/>
</svg>
