<svg width="24" height="24" viewBox="0 0 24 24" fill="none" xmlns="http://www.w3.org/2000/svg">
<path d="M14.4876 8.84202C14.9653 9.74279 15.2358 10.7702 15.2358 11.8608C15.2358 15.4245 12.3469 18.3135 8.7832 18.3135C5.21951 18.3135 2.33057 15.4245 2.33057 11.8608C2.33057 8.29715 5.21951 5.4082 8.7832 5.4082C9.39661 5.4082 9.99002 5.4938 10.5521 5.65369C10.266 5.86958 9.9936 6.10619 9.73724 6.36256C9.55658 6.54322 9.38572 6.73186 9.22502 6.92764C9.07946 6.91477 8.9321 6.9082 8.7832 6.9082C6.04794 6.9082 3.83057 9.12557 3.83057 11.8608C3.83057 14.5961 6.04794 16.8135 8.7832 16.8135C11.5185 16.8135 13.7358 14.5961 13.7358 11.8608C13.7358 11.0236 13.5281 10.2349 13.1614 9.54349C13.5417 9.20305 13.9977 8.96344 14.4876 8.84202Z" fill="#1E1E1E"/>
<path d="M9.53147 14.8797C9.05378 13.9789 8.7832 12.9515 8.7832 11.8608C8.7832 8.29715 11.6721 5.4082 15.2358 5.4082C18.7995 5.4082 21.6885 8.29715 21.6885 11.8608C21.6885 15.4245 18.7995 18.3135 15.2358 18.3135C14.6224 18.3135 14.029 18.2279 13.4669 18.068C13.753 17.8521 14.0254 17.6155 14.2818 17.3591C14.4625 17.1785 14.6333 16.9898 14.794 16.794C14.9396 16.8069 15.0869 16.8135 15.2358 16.8135C17.9711 16.8135 20.1885 14.5961 20.1885 11.8608C20.1885 9.12557 17.9711 6.9082 15.2358 6.9082C12.5006 6.9082 10.2832 9.12557 10.2832 11.8608C10.2832 12.6981 10.4909 13.4867 10.8577 14.1782C10.4774 14.5186 10.0213 14.7582 9.53147 14.8797Z" fill="#1E1E1E"/>
</svg>
