<svg width="20" height="20" viewBox="0 0 20 20" fill="none" xmlns="http://www.w3.org/2000/svg">
<path d="M5.6792 10.0073C5.6792 9.87581 5.70196 9.75444 5.74747 9.64319C5.79804 9.53193 5.87389 9.42574 5.97503 9.3246L11.8841 3.54451C12.056 3.37763 12.2633 3.29419 12.5061 3.29419C12.673 3.29419 12.8221 3.33465 12.9536 3.41556C13.0902 3.49141 13.1989 3.59508 13.2798 3.72656C13.3607 3.85804 13.4012 4.00722 13.4012 4.1741C13.4012 4.41177 13.3076 4.62417 13.1205 4.81127L7.79553 10.0073L13.1205 15.2033C13.3076 15.3904 13.4012 15.6053 13.4012 15.8481C13.4012 16.0099 13.3607 16.1565 13.2798 16.288C13.1989 16.4246 13.0902 16.5307 12.9536 16.6066C12.8221 16.6875 12.673 16.728 12.5061 16.728C12.2633 16.728 12.056 16.642 11.8841 16.4701L5.97503 10.69C5.87389 10.5888 5.79804 10.4826 5.74747 10.3714C5.70196 10.2601 5.6792 10.1388 5.6792 10.0073Z" fill="#919191"/>
</svg>
