<svg width="24" height="24" viewBox="0 0 24 24" fill="none" xmlns="http://www.w3.org/2000/svg">
<path fill-rule="evenodd" clip-rule="evenodd" d="M12.0002 3.54688C11.4067 3.54688 10.8663 3.7007 10.2824 3.95574C9.72089 4.20101 9.07245 4.56188 8.27033 5.00828L5.0727 6.7878C4.61092 7.04478 4.21353 7.37369 3.93848 7.82456C3.66179 8.27814 3.54683 8.79287 3.54683 9.35727L3.54673 9.41112C3.54622 9.60221 3.54562 9.82545 3.59926 10.0274C3.73285 10.5302 4.05498 10.8596 4.44785 11.0346C4.6628 11.1304 4.88651 11.1746 5.08785 11.1944V16.6603C4.16711 17.188 3.54683 18.1805 3.54683 19.3178C3.54683 19.9448 4.05506 20.453 4.682 20.453H11.2299C11.6441 20.453 11.9799 20.1172 11.9799 19.703C11.9799 19.2888 11.6441 18.953 11.2299 18.953H5.08969C5.25398 18.2669 5.87135 17.7568 6.60784 17.7568H11.2299C11.6441 17.7568 11.9799 17.421 11.9799 17.0068C11.9799 16.5926 11.6441 16.2568 11.2299 16.2568H9.66919V11.2096H18.5717C18.8336 11.2096 19.2045 11.1897 19.5525 11.0346C19.9454 10.8596 20.2675 10.5302 20.4011 10.0274C20.4548 9.82545 20.4542 9.60221 20.4537 9.41112L20.4536 9.35727C20.4536 8.79288 20.3386 8.27814 20.0619 7.82456C19.7869 7.37369 19.3895 7.04478 18.9277 6.7878L15.7301 5.00831C14.928 4.5619 14.2795 4.20101 13.718 3.95574C13.1341 3.7007 12.5937 3.54688 12.0002 3.54688ZM8.96763 6.33686C9.80938 5.86842 10.3952 5.54334 10.8828 5.33033C11.3556 5.12382 11.6844 5.04688 12.0002 5.04688C12.316 5.04688 12.6448 5.12382 13.1176 5.33033C13.6052 5.54334 14.191 5.86842 15.0328 6.33686L18.1983 8.0985C18.5055 8.26946 18.6784 8.43689 18.7814 8.60573C18.8827 8.77186 18.9536 9.00021 18.9536 9.35727C18.9536 9.48895 18.9534 9.56287 18.9509 9.61728C18.9501 9.63489 18.9492 9.64597 18.9486 9.65197C18.9472 9.65658 18.9459 9.66029 18.9448 9.66323L18.9421 9.66445C18.9229 9.67303 18.8841 9.68579 18.8169 9.69542C18.7501 9.70501 18.6693 9.70957 18.5717 9.70957H5.42867C5.33108 9.70957 5.25035 9.70501 5.18347 9.69542C5.11625 9.68579 5.07754 9.67303 5.05829 9.66445L5.05562 9.66323C5.05449 9.6603 5.05318 9.65658 5.05176 9.65197C5.05118 9.64597 5.05027 9.63489 5.04947 9.61728C5.04701 9.56288 5.04683 9.48895 5.04683 9.35727C5.04683 9.00021 5.11767 8.77186 5.21902 8.60573C5.32202 8.43689 5.49492 8.26946 5.80212 8.0985L8.96763 6.33686ZM6.60784 16.2568L6.58785 16.2569V11.2096H8.16919V16.2568H6.60784Z" fill="#0099FF"/>
<path d="M13.3956 18.788C13.1027 19.0809 13.1027 19.5558 13.3956 19.8487C13.6885 20.1416 14.1634 20.1416 14.4563 19.8487L19.8486 14.4563C20.1415 14.1634 20.1415 13.6886 19.8486 13.3957C19.5558 13.1028 19.0809 13.1028 18.788 13.3957L13.3956 18.788Z" fill="#0099FF"/>
<path fill-rule="evenodd" clip-rule="evenodd" d="M13.1757 14.5035C13.1757 13.7702 13.7702 13.1758 14.5035 13.1758C15.2368 13.1758 15.8312 13.7702 15.8312 14.5035C15.8312 15.2368 15.2368 15.8313 14.5035 15.8313C13.7702 15.8313 13.1757 15.2368 13.1757 14.5035ZM14.5035 14.6758C14.5986 14.6758 14.6757 14.5987 14.6757 14.5035C14.6757 14.4084 14.5986 14.3313 14.5035 14.3313C14.4084 14.3313 14.3312 14.4084 14.3312 14.5035C14.3312 14.5987 14.4084 14.6758 14.5035 14.6758Z" fill="#0099FF"/>
<path fill-rule="evenodd" clip-rule="evenodd" d="M18.7408 17.4121C18.0075 17.4121 17.413 18.0066 17.413 18.7399C17.413 19.4732 18.0075 20.0676 18.7408 20.0676C19.4741 20.0676 20.0685 19.4732 20.0685 18.7399C20.0685 18.0066 19.4741 17.4121 18.7408 17.4121ZM18.913 18.7399C18.913 18.835 18.8359 18.9121 18.7408 18.9121C18.6457 18.9121 18.5685 18.835 18.5685 18.7399C18.5685 18.6447 18.6457 18.5676 18.7408 18.5676C18.8359 18.5676 18.913 18.6447 18.913 18.7399Z" fill="#0099FF"/>
</svg>
