<svg width="20" height="20" viewBox="0 0 20 20" fill="none" xmlns="http://www.w3.org/2000/svg">
<path d="M14.4274 3.1665C14.9794 3.16671 15.4273 3.61449 15.4274 4.1665V13.4429L17.4343 11.2134C17.8038 10.8031 18.436 10.7698 18.8464 11.1392C19.2566 11.5086 19.2897 12.1408 18.9206 12.5513L15.3259 16.5454C14.8759 17.0453 14.1129 17.0765 13.6237 16.6392L13.529 16.5454L9.93427 12.5513C9.56485 12.1408 9.59808 11.5086 10.0085 11.1392C10.419 10.77 11.0512 10.803 11.4206 11.2134L13.4274 13.4429V4.1665C13.4276 3.61437 13.8753 3.1665 14.4274 3.1665ZM4.93427 3.66943C5.41427 3.13679 6.25031 3.1366 6.73017 3.66943L10.3259 7.66455C10.6949 8.07498 10.6608 8.70728 10.2507 9.07666C9.8402 9.44585 9.20797 9.41276 8.83857 9.00244L6.83173 6.77295V15.6323C6.8317 16.1845 6.38382 16.6321 5.83173 16.6323C5.27968 16.6321 4.83177 16.1844 4.83173 15.6323V6.77393L2.82588 9.00244C2.45646 9.4129 1.8233 9.44598 1.41279 9.07666C1.00259 8.70724 0.969401 8.07498 1.33857 7.66455L4.93427 3.66943Z" fill="#0099FF"/>
</svg>
