<?xml version="1.0" encoding="UTF-8"?>
<!--Generator: Apple Native CoreSVG 123-->
<!DOCTYPE svg
PUBLIC "-//W3C//DTD SVG 1.1//EN"
       "http://www.w3.org/Graphics/SVG/1.1/DTD/svg11.dtd">
<svg version="1.1" xmlns="http://www.w3.org/2000/svg" xmlns:xlink="http://www.w3.org/1999/xlink" width="3300" height="2200">
 <!--glyph: "uni100063.medium", point size: 100.000000, font version: "Version 15.0d7e11", template writer version: "5"-->
 <g id="Notes">
  <rect height="2200" id="artboard" style="fill:white;opacity:1" width="3300" x="0" y="0"/>
  <line id="" style="fill:none;stroke:black;opacity:1;stroke-width:0.5;" x1="263" x2="3036" y1="292" y2="292"/>
  <text style="stroke:none;fill:black;font-family:-apple-system,&quot;SF Pro Display&quot;,&quot;SF Pro Text&quot;,Helvetica,sans-serif;font-weight:bold;" transform="matrix(1 0 0 1 263 322)">Weight/Scale Variations</text>
  <text style="stroke:none;fill:black;font-family:-apple-system,&quot;SF Pro Display&quot;,&quot;SF Pro Text&quot;,Helvetica,sans-serif;text-anchor:middle;" transform="matrix(1 0 0 1 559.711 322)">Ultralight</text>
  <text style="stroke:none;fill:black;font-family:-apple-system,&quot;SF Pro Display&quot;,&quot;SF Pro Text&quot;,Helvetica,sans-serif;text-anchor:middle;" transform="matrix(1 0 0 1 856.422 322)">Thin</text>
  <text style="stroke:none;fill:black;font-family:-apple-system,&quot;SF Pro Display&quot;,&quot;SF Pro Text&quot;,Helvetica,sans-serif;text-anchor:middle;" transform="matrix(1 0 0 1 1153.13 322)">Light</text>
  <text style="stroke:none;fill:black;font-family:-apple-system,&quot;SF Pro Display&quot;,&quot;SF Pro Text&quot;,Helvetica,sans-serif;text-anchor:middle;" transform="matrix(1 0 0 1 1449.84 322)">Regular</text>
  <text style="stroke:none;fill:black;font-family:-apple-system,&quot;SF Pro Display&quot;,&quot;SF Pro Text&quot;,Helvetica,sans-serif;text-anchor:middle;" transform="matrix(1 0 0 1 1746.56 322)">Medium</text>
  <text style="stroke:none;fill:black;font-family:-apple-system,&quot;SF Pro Display&quot;,&quot;SF Pro Text&quot;,Helvetica,sans-serif;text-anchor:middle;" transform="matrix(1 0 0 1 2043.27 322)">Semibold</text>
  <text style="stroke:none;fill:black;font-family:-apple-system,&quot;SF Pro Display&quot;,&quot;SF Pro Text&quot;,Helvetica,sans-serif;text-anchor:middle;" transform="matrix(1 0 0 1 2339.98 322)">Bold</text>
  <text style="stroke:none;fill:black;font-family:-apple-system,&quot;SF Pro Display&quot;,&quot;SF Pro Text&quot;,Helvetica,sans-serif;text-anchor:middle;" transform="matrix(1 0 0 1 2636.69 322)">Heavy</text>
  <text style="stroke:none;fill:black;font-family:-apple-system,&quot;SF Pro Display&quot;,&quot;SF Pro Text&quot;,Helvetica,sans-serif;text-anchor:middle;" transform="matrix(1 0 0 1 2933.4 322)">Black</text>
  <line id="" style="fill:none;stroke:black;opacity:1;stroke-width:0.5;" x1="263" x2="3036" y1="1903" y2="1903"/>
  <g id="" transform="matrix(1 0 0 1 263 1933)">
   <path d="M 9.24805 0.830078 C 13.5547 0.830078 17.1387 -2.74414 17.1387 -7.05078 C 17.1387 -11.3574 13.5449 -14.9316 9.23828 -14.9316 C 4.94141 -14.9316 1.36719 -11.3574 1.36719 -7.05078 C 1.36719 -2.74414 4.95117 0.830078 9.24805 0.830078 Z M 9.24805 -0.654297 C 5.70312 -0.654297 2.87109 -3.49609 2.87109 -7.05078 C 2.87109 -10.6055 5.69336 -13.4473 9.23828 -13.4473 C 12.793 -13.4473 15.6348 -10.6055 15.6445 -7.05078 C 15.6543 -3.49609 12.8027 -0.654297 9.24805 -0.654297 Z M 9.22852 -3.42773 C 9.69727 -3.42773 9.9707 -3.74023 9.9707 -4.25781 L 9.9707 -6.31836 L 12.1973 -6.31836 C 12.6953 -6.31836 13.0371 -6.57227 13.0371 -7.04102 C 13.0371 -7.51953 12.7148 -7.7832 12.1973 -7.7832 L 9.9707 -7.7832 L 9.9707 -10.0098 C 9.9707 -10.5273 9.69727 -10.8496 9.22852 -10.8496 C 8.75977 -10.8496 8.50586 -10.5078 8.50586 -10.0098 L 8.50586 -7.7832 L 6.29883 -7.7832 C 5.78125 -7.7832 5.44922 -7.51953 5.44922 -7.04102 C 5.44922 -6.57227 5.80078 -6.31836 6.29883 -6.31836 L 8.50586 -6.31836 L 8.50586 -4.25781 C 8.50586 -3.75977 8.75977 -3.42773 9.22852 -3.42773 Z"/>
  </g>
  <g id="" transform="matrix(1 0 0 1 281.506 1933)">
   <path d="M 11.709 2.91016 C 17.1582 2.91016 21.6699 -1.60156 21.6699 -7.05078 C 21.6699 -12.4902 17.1484 -17.0117 11.6992 -17.0117 C 6.25977 -17.0117 1.74805 -12.4902 1.74805 -7.05078 C 1.74805 -1.60156 6.26953 2.91016 11.709 2.91016 Z M 11.709 1.25 C 7.09961 1.25 3.41797 -2.44141 3.41797 -7.05078 C 3.41797 -11.6504 7.08984 -15.3516 11.6992 -15.3516 C 16.3086 -15.3516 20 -11.6504 20.0098 -7.05078 C 20.0195 -2.44141 16.3184 1.25 11.709 1.25 Z M 11.6895 -2.41211 C 12.207 -2.41211 12.5195 -2.77344 12.5195 -3.33984 L 12.5195 -6.23047 L 15.5762 -6.23047 C 16.123 -6.23047 16.5039 -6.51367 16.5039 -7.03125 C 16.5039 -7.55859 16.1426 -7.86133 15.5762 -7.86133 L 12.5195 -7.86133 L 12.5195 -10.9277 C 12.5195 -11.5039 12.207 -11.8555 11.6895 -11.8555 C 11.1719 -11.8555 10.8789 -11.4844 10.8789 -10.9277 L 10.8789 -7.86133 L 7.83203 -7.86133 C 7.26562 -7.86133 6.89453 -7.55859 6.89453 -7.03125 C 6.89453 -6.51367 7.28516 -6.23047 7.83203 -6.23047 L 10.8789 -6.23047 L 10.8789 -3.33984 C 10.8789 -2.79297 11.1719 -2.41211 11.6895 -2.41211 Z"/>
  </g>
  <g id="" transform="matrix(1 0 0 1 304.924 1933)">
   <path d="M 14.9707 5.67383 C 21.9336 5.67383 27.6953 -0.078125 27.6953 -7.04102 C 27.6953 -14.0039 21.9238 -19.7559 14.9609 -19.7559 C 8.00781 -19.7559 2.25586 -14.0039 2.25586 -7.04102 C 2.25586 -0.078125 8.01758 5.67383 14.9707 5.67383 Z M 14.9707 3.85742 C 8.93555 3.85742 4.08203 -1.00586 4.08203 -7.04102 C 4.08203 -13.0762 8.92578 -17.9395 14.9609 -17.9395 C 21.0059 -17.9395 25.8594 -13.0762 25.8691 -7.04102 C 25.8789 -1.00586 21.0156 3.85742 14.9707 3.85742 Z M 14.9512 -1.06445 C 15.5176 -1.06445 15.8691 -1.45508 15.8691 -2.06055 L 15.8691 -6.13281 L 20.1074 -6.13281 C 20.6934 -6.13281 21.1133 -6.46484 21.1133 -7.02148 C 21.1133 -7.59766 20.7227 -7.93945 20.1074 -7.93945 L 15.8691 -7.93945 L 15.8691 -12.1875 C 15.8691 -12.8027 15.5176 -13.1934 14.9512 -13.1934 C 14.3848 -13.1934 14.0625 -12.7832 14.0625 -12.1875 L 14.0625 -7.93945 L 9.83398 -7.93945 C 9.21875 -7.93945 8.80859 -7.59766 8.80859 -7.02148 C 8.80859 -6.46484 9.23828 -6.13281 9.83398 -6.13281 L 14.0625 -6.13281 L 14.0625 -2.06055 C 14.0625 -1.47461 14.3848 -1.06445 14.9512 -1.06445 Z"/>
  </g>
  <text style="stroke:none;fill:black;font-family:-apple-system,&quot;SF Pro Display&quot;,&quot;SF Pro Text&quot;,Helvetica,sans-serif;font-weight:bold;" transform="matrix(1 0 0 1 263 1953)">Design Variations</text>
  <text style="stroke:none;fill:black;font-family:-apple-system,&quot;SF Pro Display&quot;,&quot;SF Pro Text&quot;,Helvetica,sans-serif;" transform="matrix(1 0 0 1 263 1971)">Symbols are supported in up to nine weights and three scales.</text>
  <text style="stroke:none;fill:black;font-family:-apple-system,&quot;SF Pro Display&quot;,&quot;SF Pro Text&quot;,Helvetica,sans-serif;" transform="matrix(1 0 0 1 263 1989)">For optimal layout with text and other symbols, vertically align</text>
  <text style="stroke:none;fill:black;font-family:-apple-system,&quot;SF Pro Display&quot;,&quot;SF Pro Text&quot;,Helvetica,sans-serif;" transform="matrix(1 0 0 1 263 2007)">symbols with the adjacent text.</text>
  <rect height="14" id="" style="fill:#00AEEF;stroke:none;opacity:0.4;" width="3" x="776" y="1919"/>
  <g id="" transform="matrix(1 0 0 1 779 1933)">
   <path d="M 10.5273 0 L 12.373 0 L 7.17773 -14.0918 L 5.43945 -14.0918 L 0.244141 0 L 2.08984 0 L 3.50586 -4.0332 L 9.11133 -4.0332 Z M 6.2793 -11.9531 L 6.33789 -11.9531 L 8.59375 -5.52734 L 4.02344 -5.52734 Z"/>
  </g>
  <rect height="14" id="" style="fill:#00AEEF;stroke:none;opacity:0.4;" width="3" x="791.617" y="1919"/>
  <text style="stroke:none;fill:black;font-family:-apple-system,&quot;SF Pro Display&quot;,&quot;SF Pro Text&quot;,Helvetica,sans-serif;font-weight:bold;" transform="matrix(1 0 0 1 776 1953)">Margins</text>
  <text style="stroke:none;fill:black;font-family:-apple-system,&quot;SF Pro Display&quot;,&quot;SF Pro Text&quot;,Helvetica,sans-serif;" transform="matrix(1 0 0 1 776 1971)">Leading and trailing margins on the left and right side of each symbol</text>
  <text style="stroke:none;fill:black;font-family:-apple-system,&quot;SF Pro Display&quot;,&quot;SF Pro Text&quot;,Helvetica,sans-serif;" transform="matrix(1 0 0 1 776 1989)">can be adjusted by modifying the width of the blue rectangles.</text>
  <text style="stroke:none;fill:black;font-family:-apple-system,&quot;SF Pro Display&quot;,&quot;SF Pro Text&quot;,Helvetica,sans-serif;" transform="matrix(1 0 0 1 776 2007)">Modifications are automatically applied proportionally to all</text>
  <text style="stroke:none;fill:black;font-family:-apple-system,&quot;SF Pro Display&quot;,&quot;SF Pro Text&quot;,Helvetica,sans-serif;" transform="matrix(1 0 0 1 776 2025)">scales and weights.</text>
  <g id="" transform="matrix(1 0 0 1 1289 1933)">
   <path d="M 2.83203 3.11523 L 4.375 4.6582 C 5.22461 5.48828 6.19141 5.41992 7.06055 4.46289 L 17.2754 -6.66016 C 17.7051 -6.36719 18.0957 -6.37695 18.5645 -6.47461 L 19.6094 -6.68945 L 20.3027 -5.99609 L 20.2539 -5.47852 C 20.1855 -4.95117 20.3516 -4.53125 20.8496 -4.0332 L 21.6602 -3.22266 C 22.168 -2.71484 22.8223 -2.68555 23.3008 -3.16406 L 26.5527 -6.41602 C 27.0312 -6.89453 27.0117 -7.54883 26.5039 -8.05664 L 25.6836 -8.87695 C 25.1855 -9.375 24.7754 -9.55078 24.2383 -9.47266 L 23.7109 -9.41406 L 23.0566 -10.0781 L 23.3398 -11.2207 C 23.4863 -11.7871 23.3398 -12.2559 22.7148 -12.8613 L 20.3027 -15.2539 C 16.7578 -18.7793 12.2266 -18.6719 9.11133 -15.5371 C 8.69141 -15.1074 8.64258 -14.5215 8.91602 -14.0918 C 9.15039 -13.7207 9.62891 -13.4961 10.2734 -13.6621 C 11.7871 -14.043 13.3008 -13.9258 14.7852 -12.9199 L 14.1602 -11.3379 C 13.9258 -10.752 13.9453 -10.2734 14.1797 -9.83398 L 3.01758 0.439453 C 2.08008 1.30859 1.97266 2.25586 2.83203 3.11523 Z M 10.6738 -15.1465 C 13.3398 -17.1387 16.6504 -16.8262 19.0527 -14.4141 L 21.6797 -11.8066 C 21.9141 -11.5723 21.9434 -11.3867 21.8848 -11.0938 L 21.5039 -9.53125 L 23.0762 -7.95898 L 24.043 -8.04688 C 24.3262 -8.07617 24.4141 -8.05664 24.6387 -7.83203 L 25.2637 -7.20703 L 22.5098 -4.46289 L 21.8848 -5.07812 C 21.6602 -5.30273 21.6406 -5.40039 21.6699 -5.68359 L 21.7578 -6.64062 L 20.1953 -8.20312 L 18.5742 -7.89062 C 18.291 -7.83203 18.1445 -7.83203 17.9102 -8.07617 L 15.7324 -10.2539 C 15.5078 -10.4883 15.4785 -10.625 15.6055 -10.9473 L 16.5527 -13.2227 C 14.9512 -14.7559 12.8418 -15.6055 10.8008 -14.9512 C 10.7129 -14.9219 10.6445 -14.9414 10.6152 -14.9805 C 10.5859 -15.0293 10.5859 -15.0781 10.6738 -15.1465 Z M 4.10156 2.41211 C 3.61328 1.91406 3.78906 1.61133 4.12109 1.30859 L 15.0781 -8.80859 L 16.3086 -7.57812 L 6.15234 3.34961 C 5.84961 3.68164 5.46875 3.7793 5.06836 3.37891 Z"/>
  </g>
  <text style="stroke:none;fill:black;font-family:-apple-system,&quot;SF Pro Display&quot;,&quot;SF Pro Text&quot;,Helvetica,sans-serif;font-weight:bold;" transform="matrix(1 0 0 1 1289 1953)">Exporting</text>
  <text style="stroke:none;fill:black;font-family:-apple-system,&quot;SF Pro Display&quot;,&quot;SF Pro Text&quot;,Helvetica,sans-serif;" transform="matrix(1 0 0 1 1289 1971)">Symbols should be outlined when exporting to ensure the</text>
  <text style="stroke:none;fill:black;font-family:-apple-system,&quot;SF Pro Display&quot;,&quot;SF Pro Text&quot;,Helvetica,sans-serif;" transform="matrix(1 0 0 1 1289 1989)">design is preserved when submitting to Xcode.</text>
  <text id="template-version" style="stroke:none;fill:black;font-family:-apple-system,&quot;SF Pro Display&quot;,&quot;SF Pro Text&quot;,Helvetica,sans-serif;text-anchor:end;" transform="matrix(1 0 0 1 3036 1933)">Template v.1.0</text>
  <text style="stroke:none;fill:black;font-family:-apple-system,&quot;SF Pro Display&quot;,&quot;SF Pro Text&quot;,Helvetica,sans-serif;text-anchor:end;" transform="matrix(1 0 0 1 3036 1951)">Generated from checkmark.circle.fill</text>
  <text style="stroke:none;fill:black;font-family:-apple-system,&quot;SF Pro Display&quot;,&quot;SF Pro Text&quot;,Helvetica,sans-serif;text-anchor:end;" transform="matrix(1 0 0 1 3036 1969)">Typeset at 100 points</text>
  <text style="stroke:none;fill:black;font-family:-apple-system,&quot;SF Pro Display&quot;,&quot;SF Pro Text&quot;,Helvetica,sans-serif;" transform="matrix(1 0 0 1 263 726)">Small</text>
  <text style="stroke:none;fill:black;font-family:-apple-system,&quot;SF Pro Display&quot;,&quot;SF Pro Text&quot;,Helvetica,sans-serif;" transform="matrix(1 0 0 1 263 1156)">Medium</text>
  <text style="stroke:none;fill:black;font-family:-apple-system,&quot;SF Pro Display&quot;,&quot;SF Pro Text&quot;,Helvetica,sans-serif;" transform="matrix(1 0 0 1 263 1586)">Large</text>
 </g>
 <g id="Guides">
  <g id="H-reference" style="fill:#27AAE1;stroke:none;" transform="matrix(1 0 0 1 339 696)">
   <path d="M 54.9316 0 L 57.666 0 L 30.5664 -70.459 L 28.0762 -70.459 L 0.976562 0 L 3.66211 0 L 12.9395 -24.4629 L 45.7031 -24.4629 Z M 29.1992 -67.0898 L 29.4434 -67.0898 L 44.8242 -26.709 L 13.8184 -26.709 Z"/>
  </g>
  <line id="Baseline-S" style="fill:none;stroke:#27AAE1;opacity:1;stroke-width:0.577;" x1="263" x2="3036" y1="696" y2="696"/>
  <line id="Capline-S" style="fill:none;stroke:#27AAE1;opacity:1;stroke-width:0.577;" x1="263" x2="3036" y1="625.541" y2="625.541"/>
  <g id="H-reference" style="fill:#27AAE1;stroke:none;" transform="matrix(1 0 0 1 339 1126)">
   <path d="M 54.9316 0 L 57.666 0 L 30.5664 -70.459 L 28.0762 -70.459 L 0.976562 0 L 3.66211 0 L 12.9395 -24.4629 L 45.7031 -24.4629 Z M 29.1992 -67.0898 L 29.4434 -67.0898 L 44.8242 -26.709 L 13.8184 -26.709 Z"/>
  </g>
  <line id="Baseline-M" style="fill:none;stroke:#27AAE1;opacity:1;stroke-width:0.577;" x1="263" x2="3036" y1="1126" y2="1126"/>
  <line id="Capline-M" style="fill:none;stroke:#27AAE1;opacity:1;stroke-width:0.577;" x1="263" x2="3036" y1="1055.54" y2="1055.54"/>
  <g id="H-reference" style="fill:#27AAE1;stroke:none;" transform="matrix(1 0 0 1 339 1556)">
   <path d="M 54.9316 0 L 57.666 0 L 30.5664 -70.459 L 28.0762 -70.459 L 0.976562 0 L 3.66211 0 L 12.9395 -24.4629 L 45.7031 -24.4629 Z M 29.1992 -67.0898 L 29.4434 -67.0898 L 44.8242 -26.709 L 13.8184 -26.709 Z"/>
  </g>
  <line id="Baseline-L" style="fill:none;stroke:#27AAE1;opacity:1;stroke-width:0.577;" x1="263" x2="3036" y1="1556" y2="1556"/>
  <line id="Capline-L" style="fill:none;stroke:#27AAE1;opacity:1;stroke-width:0.577;" x1="263" x2="3036" y1="1485.54" y2="1485.54"/>
  <rect height="119.336" id="left-margin" style="fill:#00AEEF;stroke:none;opacity:0.4;" width="8.74023" x="1391.3" y="1030.79"/>
  <rect height="119.336" id="right-margin" style="fill:#00AEEF;stroke:none;opacity:0.4;" width="8.74023" x="1499.65" y="1030.79"/>
 </g>
 <g id="Symbols">
  <g id="Black-L" transform="matrix(1 0 0 1 2854.05 1556)">
   <path d="M 79.3457 32.8613 C 116.748 32.8613 147.412 2.19727 147.412 -35.2051 C 147.412 -72.6074 116.748 -103.271 79.2969 -103.271 C 41.8945 -103.271 11.2793 -72.6074 11.2793 -35.2051 C 11.2793 2.19727 41.9434 32.8613 79.3457 32.8613 Z M 70.6543 -0.244141 C 67.3828 -0.244141 64.7461 -1.85547 62.6953 -4.19922 L 44.873 -25.1465 C 43.1152 -27.1484 42.4805 -28.9551 42.4805 -31.1035 C 42.4805 -35.7422 46.2891 -39.4043 50.8301 -39.4043 C 53.4668 -39.4043 55.4688 -38.2324 57.3242 -36.1816 L 70.5566 -20.5078 L 96.0449 -60.9375 C 98.0957 -64.0625 100.439 -65.6738 103.467 -65.6738 C 107.959 -65.6738 112.012 -62.3047 112.012 -57.7148 C 112.012 -56.0059 111.328 -54.0527 110.156 -52.1484 L 78.5645 -4.63867 C 76.709 -1.95312 73.8281 -0.244141 70.6543 -0.244141 Z"/>
  </g>
  <g id="Heavy-L" transform="matrix(1 0 0 1 2558.39 1556)">
   <path d="M 78.2715 31.7871 C 115.088 31.7871 145.312 1.61133 145.312 -35.2051 C 145.312 -72.0215 115.039 -102.197 78.2715 -102.197 C 41.4551 -102.197 11.2793 -72.0215 11.2793 -35.2051 C 11.2793 1.61133 41.5039 31.7871 78.2715 31.7871 Z M 69.8242 -0.976562 C 66.8945 -0.976562 64.502 -2.34375 62.5977 -4.58984 L 44.5312 -25.9766 C 42.9688 -27.7832 42.3828 -29.4434 42.3828 -31.3965 C 42.3828 -35.5469 45.8008 -38.7695 49.8047 -38.7695 C 52.1973 -38.7695 54.0527 -37.7441 55.7617 -35.791 L 69.6777 -19.043 L 96.3379 -61.3281 C 98.1445 -64.1113 100.244 -65.5273 102.93 -65.5273 C 106.885 -65.5273 110.547 -62.5977 110.547 -58.4961 C 110.547 -56.8848 109.863 -55.0781 108.789 -53.3691 L 76.9043 -4.93164 C 75.2441 -2.44141 72.6562 -0.976562 69.8242 -0.976562 Z"/>
  </g>
  <g id="Bold-L" transform="matrix(1 0 0 1 2262.88 1556)">
   <path d="M 77.0996 30.6152 C 113.232 30.6152 142.92 0.878906 142.92 -35.2051 C 142.92 -71.3379 113.184 -101.025 77.0508 -101.025 C 40.9668 -101.025 11.2793 -71.3379 11.2793 -35.2051 C 11.2793 0.878906 41.0156 30.6152 77.0996 30.6152 Z M 68.8477 -1.75781 C 66.3086 -1.75781 64.2578 -2.92969 62.5 -5.0293 L 44.1406 -26.9531 C 42.8711 -28.4668 42.2852 -30.0293 42.2852 -31.6895 C 42.2852 -35.3027 45.2148 -38.0859 48.6816 -38.0859 C 50.7812 -38.0859 52.4414 -37.207 54.0039 -35.4004 L 68.7012 -17.4316 L 96.6309 -61.7676 C 98.1934 -64.1602 100.049 -65.3809 102.295 -65.3809 C 105.713 -65.3809 108.887 -62.8906 108.887 -59.3262 C 108.887 -57.8613 108.252 -56.25 107.275 -54.7363 L 75.0977 -5.27344 C 73.584 -3.02734 71.3379 -1.75781 68.8477 -1.75781 Z"/>
  </g>
  <g id="Semibold-L" transform="matrix(1 0 0 1 1966.97 1556)">
   <path d="M 76.2695 29.7852 C 111.914 29.7852 141.309 0.439453 141.309 -35.2051 C 141.309 -70.8496 111.865 -100.244 76.2695 -100.244 C 40.625 -100.244 11.2793 -70.8496 11.2793 -35.2051 C 11.2793 0.439453 40.6738 29.7852 76.2695 29.7852 Z M 68.2129 -2.29492 C 65.918 -2.29492 64.1113 -3.32031 62.4023 -5.32227 L 43.8965 -27.5879 C 42.7734 -28.9062 42.2363 -30.4199 42.2363 -31.8848 C 42.2363 -35.1562 44.8242 -37.5977 47.9004 -37.5977 C 49.8047 -37.5977 51.3184 -36.8652 52.7832 -35.0586 L 68.0176 -16.3086 L 96.8262 -62.0605 C 98.1934 -64.209 99.9023 -65.2832 101.855 -65.2832 C 104.883 -65.2832 107.764 -63.1348 107.764 -59.8633 C 107.764 -58.4961 107.08 -57.0312 106.25 -55.6641 L 73.8281 -5.51758 C 72.4121 -3.41797 70.459 -2.29492 68.2129 -2.29492 Z"/>
  </g>
  <g id="Medium-L" transform="matrix(1 0 0 1 1670.87 1556)">
   <path d="M 75.6836 29.1992 C 110.938 29.1992 140.088 0.0488281 140.088 -35.2051 C 140.088 -70.459 110.889 -99.6094 75.6348 -99.6094 C 40.3809 -99.6094 11.2793 -70.459 11.2793 -35.2051 C 11.2793 0.0488281 40.3809 29.1992 75.6836 29.1992 Z M 67.7246 -2.73438 C 65.625 -2.73438 63.9648 -3.61328 62.3535 -5.56641 L 43.7012 -28.0762 C 42.6758 -29.2969 42.1875 -30.6641 42.1875 -32.0801 C 42.1875 -35.0098 44.5312 -37.2559 47.3145 -37.2559 C 49.0723 -37.2559 50.4883 -36.5723 51.8555 -34.8633 L 67.5293 -15.4297 L 96.9727 -62.3047 C 98.1934 -64.209 99.8047 -65.1855 101.514 -65.1855 C 104.297 -65.1855 106.885 -63.2812 106.885 -60.3027 C 106.885 -59.0332 106.25 -57.6172 105.469 -56.3965 L 72.8516 -5.66406 C 71.5332 -3.71094 69.7754 -2.73438 67.7246 -2.73438 Z"/>
  </g>
  <g id="Regular-L" transform="matrix(1 0 0 1 1374.97 1556)">
   <path d="M 74.8535 28.3691 C 109.668 28.3691 138.477 -0.390625 138.477 -35.2051 C 138.477 -70.0195 109.619 -98.7793 74.8047 -98.7793 C 40.0391 -98.7793 11.2793 -70.0195 11.2793 -35.2051 C 11.2793 -0.390625 40.0879 28.3691 74.8535 28.3691 Z M 67.041 -3.27148 C 65.2344 -3.27148 63.8184 -4.00391 62.2559 -5.85938 L 43.457 -28.7109 C 42.5781 -29.7363 42.0898 -31.0547 42.0898 -32.2754 C 42.0898 -34.8633 44.1406 -36.7676 46.5332 -36.7676 C 48.0957 -36.7676 49.4141 -36.1816 50.6836 -34.5703 L 66.8457 -14.3066 L 97.2168 -62.5977 C 98.2422 -64.2578 99.6582 -65.0879 101.123 -65.0879 C 103.467 -65.0879 105.762 -63.4766 105.762 -60.8887 C 105.762 -59.7168 105.127 -58.3984 104.443 -57.3242 L 71.582 -5.9082 C 70.4102 -4.10156 68.8965 -3.27148 67.041 -3.27148 Z"/>
  </g>
  <g id="Light-L" transform="matrix(1 0 0 1 1079.18 1556)">
   <path d="M 73.9258 27.4902 C 108.301 27.4902 136.621 -0.830078 136.621 -35.1562 C 136.621 -69.5312 108.252 -97.8516 73.9258 -97.8516 C 39.5508 -97.8516 11.2793 -69.5312 11.2793 -35.1562 C 11.2793 -0.830078 39.5996 27.4902 73.9258 27.4902 Z M 67.2852 -3.66211 C 65.918 -3.66211 64.8438 -4.19922 63.623 -5.66406 L 43.8477 -29.1016 C 43.1641 -29.9316 42.7734 -30.957 42.7734 -31.9336 C 42.7734 -33.9844 44.4336 -35.4492 46.2402 -35.4492 C 47.5098 -35.4492 48.4863 -34.9609 49.4629 -33.7402 L 67.0898 -12.4512 L 98.9746 -62.5488 C 99.8047 -63.8672 100.928 -64.5508 102.051 -64.5508 C 103.906 -64.5508 105.664 -63.2324 105.664 -61.1816 C 105.664 -60.3027 105.225 -59.3262 104.688 -58.4961 L 70.8008 -5.71289 C 69.873 -4.29688 68.6523 -3.66211 67.2852 -3.66211 Z"/>
  </g>
  <g id="Thin-L" transform="matrix(1 0 0 1 783.693 1556)">
   <path d="M 72.7051 26.3184 C 106.494 26.3184 134.18 -1.36719 134.18 -35.1074 C 134.18 -68.8965 106.494 -96.582 72.7051 -96.582 C 38.9648 -96.582 11.2793 -68.8965 11.2793 -35.1074 C 11.2793 -1.36719 38.9648 26.3184 72.7051 26.3184 Z M 67.5781 -4.24805 C 66.7969 -4.24805 66.1621 -4.49219 65.4297 -5.37109 L 44.4336 -29.5898 C 43.9453 -30.127 43.7012 -30.8105 43.7012 -31.4453 C 43.7012 -32.8613 44.873 -33.6426 45.8984 -33.6426 C 46.7285 -33.6426 47.3145 -33.3496 47.9004 -32.666 L 67.4805 -10.0098 L 101.367 -62.5488 C 101.855 -63.3301 102.588 -63.7695 103.369 -63.7695 C 104.443 -63.7695 105.566 -62.9395 105.566 -61.6211 C 105.566 -61.1328 105.322 -60.5469 105.029 -60.0098 L 69.7266 -5.41992 C 69.1406 -4.54102 68.3594 -4.24805 67.5781 -4.24805 Z"/>
  </g>
  <g id="Ultralight-L" transform="matrix(1 0 0 1 487.616 1556)">
   <path d="M 72.1191 25.7324 C 105.566 25.7324 132.91 -1.61133 132.91 -35.1074 C 132.91 -68.5547 105.566 -95.8984 72.1191 -95.8984 C 38.623 -95.8984 11.2793 -68.5547 11.2793 -35.1074 C 11.2793 -1.61133 38.623 25.7324 72.1191 25.7324 Z M 67.7246 -4.54102 C 67.2363 -4.54102 66.8457 -4.63867 66.3086 -5.22461 L 44.7266 -29.834 C 44.3848 -30.2734 44.1406 -30.7129 44.1406 -31.2012 C 44.1406 -32.2754 45.0684 -32.7148 45.7031 -32.7148 C 46.2891 -32.7148 46.6797 -32.5195 47.0703 -32.1289 L 67.6758 -8.78906 L 102.588 -62.5488 C 102.881 -63.0371 103.467 -63.3789 104.004 -63.3789 C 104.688 -63.3789 105.518 -62.793 105.518 -61.8164 C 105.518 -61.5234 105.42 -61.1328 105.225 -60.8398 L 69.1406 -5.27344 C 68.75 -4.6875 68.2129 -4.54102 67.7246 -4.54102 Z"/>
  </g>
  <g id="Black-M" transform="matrix(1 0 0 1 2870.97 1126)">
   <path d="M 62.4023 18.457 C 91.9922 18.457 116.113 -5.61523 116.113 -35.2051 C 116.113 -64.7949 91.9922 -88.8672 62.4023 -88.8672 C 32.8125 -88.8672 8.74023 -64.7949 8.74023 -35.2051 C 8.74023 -5.61523 32.8125 18.457 62.4023 18.457 Z M 56.0059 -7.42188 C 53.2715 -7.42188 51.0254 -8.78906 49.4629 -10.5469 L 35.4492 -26.4648 C 33.8867 -28.2227 33.3984 -29.6387 33.3984 -31.4941 C 33.3984 -35.4492 36.7188 -38.5742 40.625 -38.5742 C 42.8223 -38.5742 44.4336 -37.5488 45.8984 -36.084 L 56.0059 -24.8047 L 75.0488 -54.5898 C 76.8066 -57.3242 78.7598 -58.6914 81.4453 -58.6914 C 85.3027 -58.6914 88.7207 -55.7129 88.7207 -51.8555 C 88.7207 -50.4395 88.3301 -48.877 87.3047 -47.3145 L 62.6953 -11.0352 C 61.1816 -8.83789 58.6426 -7.42188 56.0059 -7.42188 Z"/>
  </g>
  <g id="Heavy-M" transform="matrix(1 0 0 1 2575.19 1126)">
   <path d="M 61.5234 17.5781 C 90.5273 17.5781 114.258 -6.15234 114.258 -35.2051 C 114.258 -64.2578 90.5273 -87.9883 61.4746 -87.9883 C 32.4707 -87.9883 8.74023 -64.2578 8.74023 -35.2051 C 8.74023 -6.15234 32.4707 17.5781 61.5234 17.5781 Z M 55.0293 -8.05664 C 52.5391 -8.05664 50.4883 -9.27734 48.9746 -11.0352 L 35.0098 -27.2949 C 33.5938 -28.8574 33.1055 -30.2246 33.1055 -31.8848 C 33.1055 -35.4492 36.084 -38.2324 39.5996 -38.2324 C 41.6016 -38.2324 43.1152 -37.3535 44.4824 -35.8398 L 54.9805 -23.6816 L 74.8535 -55.0293 C 76.416 -57.4707 78.2227 -58.6914 80.6152 -58.6914 C 84.0332 -58.6914 87.1582 -56.1035 87.1582 -52.5879 C 87.1582 -51.2695 86.6699 -49.8047 85.791 -48.3398 L 61.084 -11.4258 C 59.668 -9.375 57.4219 -8.05664 55.0293 -8.05664 Z"/>
  </g>
  <g id="Bold-M" transform="matrix(1 0 0 1 2279.5 1126)">
   <path d="M 60.498 16.5039 C 88.8672 16.5039 112.207 -6.78711 112.207 -35.2051 C 112.207 -63.623 88.8672 -86.9629 60.4492 -86.9629 C 32.0312 -86.9629 8.74023 -63.623 8.74023 -35.2051 C 8.74023 -6.78711 32.0801 16.5039 60.498 16.5039 Z M 53.9551 -8.78906 C 51.709 -8.78906 49.9512 -9.86328 48.4863 -11.5723 L 34.4238 -28.2227 C 33.3008 -29.541 32.8125 -30.8594 32.8125 -32.3242 C 32.8125 -35.4492 35.4004 -37.8906 38.4277 -37.8906 C 40.2344 -37.8906 41.6016 -37.1094 42.9199 -35.6445 L 53.8086 -22.4609 L 74.6582 -55.5176 C 76.0254 -57.6172 77.6367 -58.6914 79.6387 -58.6914 C 82.6172 -58.6914 85.4004 -56.4941 85.4004 -53.3691 C 85.4004 -52.1484 84.8633 -50.7812 84.0332 -49.5117 L 59.3262 -11.8164 C 58.0078 -9.91211 56.1035 -8.78906 53.9551 -8.78906 Z"/>
  </g>
  <g id="Semibold-M" transform="matrix(1 0 0 1 1983.5 1126)">
   <path d="M 59.7656 15.8203 C 87.7441 15.8203 110.791 -7.22656 110.791 -35.2051 C 110.791 -63.1836 87.6953 -86.2793 59.7656 -86.2793 C 31.7871 -86.2793 8.74023 -63.1836 8.74023 -35.2051 C 8.74023 -7.22656 31.7871 15.8203 59.7656 15.8203 Z M 53.1738 -9.32617 C 51.1719 -9.32617 49.5605 -10.2539 48.0957 -11.9629 L 34.082 -28.8574 C 33.0566 -30.0293 32.6172 -31.2988 32.6172 -32.6172 C 32.6172 -35.4492 34.8633 -37.6465 37.5977 -37.6465 C 39.2578 -37.6465 40.5762 -36.9629 41.8457 -35.4492 L 53.0273 -21.582 L 74.5605 -55.8594 C 75.7324 -57.7637 77.2461 -58.6914 78.9551 -58.6914 C 81.6406 -58.6914 84.1797 -56.7871 84.1797 -53.9551 C 84.1797 -52.7832 83.5938 -51.4648 82.8613 -50.293 L 58.1055 -12.1094 C 56.8848 -10.3027 55.127 -9.32617 53.1738 -9.32617 Z"/>
  </g>
  <g id="Medium-M" transform="matrix(1 0 0 1 1687.3 1126)">
   <path d="M 59.2285 15.2832 C 86.9141 15.2832 109.766 -7.56836 109.766 -35.2051 C 109.766 -62.8906 86.8652 -85.7422 59.1797 -85.7422 C 31.543 -85.7422 8.74023 -62.8906 8.74023 -35.2051 C 8.74023 -7.56836 31.5918 15.2832 59.2285 15.2832 Z M 52.5879 -9.7168 C 50.7324 -9.7168 49.2676 -10.5469 47.8516 -12.207 L 33.7891 -29.3457 C 32.9102 -30.4199 32.4707 -31.6406 32.4707 -32.8125 C 32.4707 -35.4492 34.5215 -37.4512 37.0117 -37.4512 C 38.5254 -37.4512 39.7949 -36.8164 41.0156 -35.3516 L 52.4414 -20.9473 L 74.4629 -56.1035 C 75.5371 -57.8613 76.9531 -58.6914 78.4668 -58.6914 C 80.9082 -58.6914 83.252 -56.9824 83.252 -54.3945 C 83.252 -53.2227 82.666 -52.002 81.9824 -50.9277 L 57.1777 -12.3535 C 56.0059 -10.5957 54.4434 -9.7168 52.5879 -9.7168 Z"/>
  </g>
  <g id="Regular-M" transform="matrix(1 0 0 1 1391.3 1126)">
   <path d="M 58.5449 14.5508 C 85.791 14.5508 108.35 -8.00781 108.35 -35.2539 C 108.35 -62.4512 85.7422 -85.0586 58.4961 -85.0586 C 31.2988 -85.0586 8.74023 -62.4512 8.74023 -35.2539 C 8.74023 -8.00781 31.3477 14.5508 58.5449 14.5508 Z M 51.8555 -10.2051 C 50.1953 -10.2051 48.877 -10.9375 47.5098 -12.5977 L 33.3984 -29.9805 C 32.666 -30.9082 32.2266 -32.0801 32.2266 -33.1543 C 32.2266 -35.4492 34.0332 -37.207 36.2305 -37.207 C 37.5977 -37.207 38.8184 -36.6699 39.9414 -35.1562 L 51.6113 -20.0684 L 74.3164 -56.4453 C 75.2441 -57.959 76.5137 -58.6914 77.832 -58.6914 C 79.9805 -58.6914 82.0312 -57.2754 82.0312 -54.9316 C 82.0312 -53.8574 81.3965 -52.6855 80.8105 -51.709 L 55.957 -12.5977 C 54.8828 -10.9863 53.5156 -10.2051 51.8555 -10.2051 Z"/>
  </g>
  <g id="Light-M" transform="matrix(1 0 0 1 1095.42 1126)">
   <path d="M 57.7148 13.7695 C 84.5215 13.7695 106.689 -8.39844 106.689 -35.2051 C 106.689 -62.0117 84.5215 -84.1797 57.666 -84.1797 C 30.8594 -84.1797 8.74023 -62.0117 8.74023 -35.2051 C 8.74023 -8.39844 30.9082 13.7695 57.7148 13.7695 Z M 52.0508 -10.5957 C 50.7812 -10.5957 49.8047 -11.084 48.6816 -12.4023 L 33.7891 -30.3223 C 33.2031 -31.0547 32.8613 -31.9824 32.8613 -32.8125 C 32.8613 -34.668 34.3262 -35.9863 35.9375 -35.9863 C 37.0605 -35.9863 37.9883 -35.5957 38.8672 -34.4238 L 51.9043 -18.4082 L 75.9277 -56.3965 C 76.6602 -57.6172 77.6367 -58.2031 78.6621 -58.2031 C 80.3223 -58.2031 81.9336 -57.0801 81.9336 -55.2246 C 81.9336 -54.3945 81.4941 -53.5156 81.0059 -52.7344 L 55.2246 -12.4512 C 54.3945 -11.1816 53.3203 -10.5957 52.0508 -10.5957 Z"/>
  </g>
  <g id="Thin-M" transform="matrix(1 0 0 1 799.806 1126)">
   <path d="M 56.6406 12.7441 C 82.9102 12.7441 104.492 -8.83789 104.492 -35.1562 C 104.492 -61.4746 82.9102 -83.0566 56.5918 -83.0566 C 30.3223 -83.0566 8.74023 -61.4746 8.74023 -35.1562 C 8.74023 -8.83789 30.3223 12.7441 56.6406 12.7441 Z M 52.2949 -11.084 C 51.5625 -11.084 50.9766 -11.3281 50.293 -12.1582 L 34.3262 -30.7617 C 33.8867 -31.25 33.6426 -31.8359 33.6426 -32.4219 C 33.6426 -33.6426 34.668 -34.375 35.6445 -34.375 C 36.377 -34.375 36.9141 -34.1309 37.4512 -33.4473 L 52.1973 -16.2109 L 78.0273 -56.3965 C 78.4668 -57.1289 79.1504 -57.5195 79.834 -57.5195 C 80.8105 -57.5195 81.8359 -56.7871 81.8359 -55.5664 C 81.8359 -55.127 81.5918 -54.5898 81.3477 -54.1016 L 54.248 -12.207 C 53.7598 -11.4258 53.0762 -11.084 52.2949 -11.084 Z"/>
  </g>
  <g id="Ultralight-M" transform="matrix(1 0 0 1 503.656 1126)">
   <path d="M 56.0547 12.207 C 82.0801 12.207 103.369 -9.08203 103.369 -35.1562 C 103.369 -61.1816 82.0801 -82.4707 56.0547 -82.4707 C 30.0293 -82.4707 8.74023 -61.1816 8.74023 -35.1562 C 8.74023 -9.08203 30.0293 12.207 56.0547 12.207 Z M 52.4414 -11.3281 C 51.9531 -11.3281 51.6113 -11.4746 51.123 -12.0117 L 34.5703 -30.957 C 34.2773 -31.3477 34.082 -31.7871 34.082 -32.1777 C 34.082 -33.1055 34.8633 -33.5938 35.4492 -33.5938 C 35.9863 -33.5938 36.377 -33.3984 36.7188 -32.959 L 52.3926 -15.0879 L 79.1504 -56.3965 C 79.4434 -56.8848 79.9316 -57.1777 80.4199 -57.1777 C 81.0547 -57.1777 81.7871 -56.6406 81.7871 -55.7617 C 81.7871 -55.4688 81.6406 -55.127 81.4941 -54.834 L 53.7598 -12.0605 C 53.418 -11.5234 52.9297 -11.3281 52.4414 -11.3281 Z"/>
  </g>
  <g id="Black-S" transform="matrix(1 0 0 1 2884.57 696)">
   <path d="M 48.8281 6.78711 C 71.9727 6.78711 90.8203 -12.0605 90.8203 -35.2051 C 90.8203 -58.3496 71.9727 -77.1973 48.8281 -77.1973 C 25.6836 -77.1973 6.83594 -58.3496 6.83594 -35.2051 C 6.83594 -12.0605 25.6836 6.78711 48.8281 6.78711 Z M 43.7988 -13.4766 C 41.6504 -13.4766 39.8926 -14.5508 38.6719 -15.918 L 27.7344 -28.418 C 26.5137 -29.7852 26.123 -30.9082 26.123 -32.3242 C 26.123 -35.4004 28.7109 -37.8418 31.7383 -37.8418 C 33.4473 -37.8418 34.7168 -37.0605 35.8398 -35.8887 L 43.7988 -27.002 L 58.7402 -50.4395 C 60.1074 -52.5391 61.6211 -53.6133 63.7207 -53.6133 C 66.6992 -53.6133 69.3848 -51.3184 69.3848 -48.291 C 69.3848 -47.2168 69.043 -45.9961 68.2617 -44.7754 L 48.9746 -16.3086 C 47.8027 -14.5996 45.8496 -13.4766 43.7988 -13.4766 Z"/>
  </g>
  <g id="Heavy-S" transform="matrix(1 0 0 1 2588.47 696)">
   <path d="M 48.2422 6.15234 C 70.9961 6.15234 89.5996 -12.4512 89.5996 -35.2051 C 89.5996 -57.959 70.9961 -76.6113 48.1934 -76.6113 C 25.4395 -76.6113 6.83594 -57.959 6.83594 -35.2051 C 6.83594 -12.4512 25.4395 6.15234 48.2422 6.15234 Z M 43.0176 -13.916 C 41.0156 -13.916 39.4043 -14.8926 38.1836 -16.3086 L 27.3438 -29.0039 C 26.2207 -30.2734 25.8301 -31.3477 25.8301 -32.666 C 25.8301 -35.498 28.1738 -37.7441 30.957 -37.7441 C 32.5684 -37.7441 33.7891 -37.0117 34.9121 -35.791 L 42.9688 -26.3184 L 58.4473 -50.7812 C 59.668 -52.6855 61.084 -53.6621 62.9883 -53.6621 C 65.7227 -53.6621 68.1641 -51.6113 68.1641 -48.8281 C 68.1641 -47.7539 67.7734 -46.582 67.041 -45.459 L 47.8516 -16.6016 C 46.7285 -14.9414 44.9219 -13.916 43.0176 -13.916 Z"/>
  </g>
  <g id="Bold-S" transform="matrix(1 0 0 1 2292.44 696)">
   <path d="M 47.5586 5.46875 C 69.873 5.46875 88.2324 -12.8906 88.2324 -35.2051 C 88.2324 -57.5684 69.873 -75.9277 47.5098 -75.9277 C 25.1953 -75.9277 6.83594 -57.5684 6.83594 -35.2051 C 6.83594 -12.8906 25.1953 5.46875 47.5586 5.46875 Z M 42.1387 -14.4531 C 40.332 -14.4531 38.8672 -15.332 37.6465 -16.748 L 26.8555 -29.6875 C 25.9277 -30.7617 25.5371 -31.8359 25.5371 -33.0566 C 25.5371 -35.5957 27.5879 -37.5977 30.127 -37.5977 C 31.5918 -37.5977 32.7637 -36.9629 33.8379 -35.6934 L 42.041 -25.5859 L 58.1055 -51.123 C 59.1797 -52.8809 60.498 -53.7598 62.1094 -53.7598 C 64.5996 -53.7598 66.8457 -51.9531 66.8457 -49.4141 C 66.8457 -48.3887 66.4062 -47.2656 65.7227 -46.1914 L 46.582 -16.9434 C 45.5078 -15.3809 43.9453 -14.4531 42.1387 -14.4531 Z"/>
  </g>
  <g id="Semibold-S" transform="matrix(1 0 0 1 1996.2 696)">
   <path d="M 47.0703 4.98047 C 69.0918 4.98047 87.3047 -13.1836 87.3047 -35.2539 C 87.3047 -57.2754 69.0918 -75.4883 47.0215 -75.4883 C 25 -75.4883 6.83594 -57.2754 6.83594 -35.2539 C 6.83594 -13.1836 25.0488 4.98047 47.0703 4.98047 Z M 41.5527 -14.7949 C 39.8438 -14.7949 38.4766 -15.625 37.2559 -17.041 L 26.5625 -30.127 C 25.6836 -31.1523 25.3418 -32.1777 25.3418 -33.3008 C 25.3418 -35.6445 27.1973 -37.5 29.4922 -37.5 C 30.9082 -37.5 32.0312 -36.9629 33.1055 -35.6445 L 41.4062 -25.0488 L 57.8613 -51.416 C 58.8379 -52.9785 60.1074 -53.8086 61.5234 -53.8086 C 63.8184 -53.8086 65.918 -52.1973 65.918 -49.8047 C 65.918 -48.8281 65.4297 -47.7051 64.7949 -46.7285 L 45.7031 -17.1875 C 44.6777 -15.6738 43.2129 -14.7949 41.5527 -14.7949 Z"/>
  </g>
  <g id="Medium-S" transform="matrix(1 0 0 1 1699.83 696)">
   <path d="M 46.7285 4.63867 C 68.5547 4.63867 86.6211 -13.4277 86.6211 -35.2539 C 86.6211 -57.0312 68.5059 -75.1465 46.6797 -75.1465 C 24.8535 -75.1465 6.83594 -57.0312 6.83594 -35.2539 C 6.83594 -13.4277 24.9023 4.63867 46.7285 4.63867 Z M 41.1133 -15.0879 C 39.502 -15.0879 38.1836 -15.8203 36.9629 -17.2852 L 26.3184 -30.5176 C 25.5371 -31.3965 25.1465 -32.4707 25.1465 -33.4961 C 25.1465 -35.6934 26.9043 -37.4512 29.0527 -37.4512 C 30.3711 -37.4512 31.4941 -36.9141 32.5195 -35.5957 L 40.9668 -24.6582 L 57.666 -51.6113 C 58.5938 -53.0762 59.8145 -53.8086 61.084 -53.8086 C 63.2324 -53.8086 65.2344 -52.3926 65.2344 -50.1465 C 65.2344 -49.1211 64.6973 -48.0469 64.1113 -47.1191 L 45.0195 -17.3828 C 44.043 -15.8691 42.7246 -15.0879 41.1133 -15.0879 Z"/>
  </g>
  <g id="Regular-S" transform="matrix(1 0 0 1 1403.58 696)">
   <path d="M 46.2402 4.15039 C 67.7734 4.15039 85.6934 -13.7207 85.6934 -35.2539 C 85.6934 -56.7871 67.7246 -74.6582 46.1914 -74.6582 C 24.707 -74.6582 6.83594 -56.7871 6.83594 -35.2539 C 6.83594 -13.7207 24.7559 4.15039 46.2402 4.15039 Z M 40.5273 -15.4297 C 39.0137 -15.4297 37.8418 -16.1133 36.6211 -17.5781 L 25.9766 -30.957 C 25.3418 -31.7383 24.9512 -32.8125 24.9512 -33.7402 C 24.9512 -35.791 26.5137 -37.3535 28.4668 -37.3535 C 29.6875 -37.3535 30.7617 -36.9141 31.8359 -35.5469 L 40.332 -24.1699 L 57.4219 -51.8555 C 58.252 -53.2227 59.4238 -53.8574 60.5469 -53.8574 C 62.4512 -53.8574 64.3066 -52.5879 64.3066 -50.5371 C 64.3066 -49.5605 63.7207 -48.5352 63.1836 -47.6074 L 44.1895 -17.5781 C 43.2129 -16.1621 41.9922 -15.4297 40.5273 -15.4297 Z"/>
  </g>
  <g id="Light-S" transform="matrix(1 0 0 1 1107.6 696)">
   <path d="M 45.5078 3.4668 C 66.6992 3.4668 84.2285 -14.0625 84.2285 -35.2051 C 84.2285 -56.3965 66.6504 -73.9258 45.5078 -73.9258 C 24.3164 -73.9258 6.83594 -56.3965 6.83594 -35.2051 C 6.83594 -14.0625 24.3652 3.4668 45.5078 3.4668 Z M 40.6738 -15.7715 C 39.5508 -15.7715 38.623 -16.2598 37.6953 -17.4316 L 26.3184 -31.25 C 25.7812 -31.8848 25.4883 -32.7148 25.4883 -33.4473 C 25.4883 -35.0586 26.7578 -36.2793 28.2715 -36.2793 C 29.248 -36.2793 30.0781 -35.9375 30.8594 -34.8633 L 40.5273 -22.7051 L 58.8379 -51.8555 C 59.5215 -52.8809 60.4004 -53.418 61.2793 -53.418 C 62.793 -53.418 64.209 -52.3926 64.209 -50.7812 C 64.209 -50.0488 63.8184 -49.2188 63.3789 -48.5352 L 43.5059 -17.4316 C 42.7734 -16.3086 41.8457 -15.7715 40.6738 -15.7715 Z"/>
  </g>
  <g id="Thin-S" transform="matrix(1 0 0 1 811.867 696)">
   <path d="M 44.5801 2.53906 C 65.2832 2.53906 82.2754 -14.4531 82.2754 -35.2051 C 82.2754 -55.9082 65.2344 -72.9004 44.5312 -72.9004 C 23.8281 -72.9004 6.83594 -55.9082 6.83594 -35.2051 C 6.83594 -14.4531 23.877 2.53906 44.5801 2.53906 Z M 40.918 -16.2109 C 40.2344 -16.2109 39.6973 -16.4551 39.1113 -17.1875 L 26.7578 -31.6406 C 26.416 -32.0801 26.2207 -32.6172 26.2207 -33.1055 C 26.2207 -34.1797 27.0996 -34.8633 27.9785 -34.8633 C 28.6133 -34.8633 29.1016 -34.668 29.5898 -34.0332 L 40.8203 -20.752 L 60.7422 -51.8066 C 61.1328 -52.4902 61.7188 -52.832 62.3047 -52.832 C 63.1836 -52.832 64.1113 -52.1484 64.1113 -51.123 C 64.1113 -50.6836 63.916 -50.1953 63.623 -49.7559 L 42.6758 -17.2363 C 42.2363 -16.5039 41.6016 -16.2109 40.918 -16.2109 Z"/>
  </g>
  <g id="Ultralight-S" transform="matrix(1 0 0 1 515.644 696)">
   <path d="M 44.043 2.05078 C 64.502 2.05078 81.2988 -14.6973 81.2988 -35.1562 C 81.2988 -55.6152 64.502 -72.3633 44.043 -72.3633 C 23.584 -72.3633 6.83594 -55.6152 6.83594 -35.1562 C 6.83594 -14.6973 23.584 2.05078 44.043 2.05078 Z M 41.0156 -16.4551 C 40.5762 -16.4551 40.2344 -16.5527 39.8438 -17.0898 L 27.002 -31.8359 C 26.7578 -32.1777 26.5625 -32.5195 26.5625 -32.9102 C 26.5625 -33.6914 27.2461 -34.1309 27.832 -34.1309 C 28.2715 -34.1309 28.6133 -33.9844 28.9551 -33.5938 L 40.9668 -19.7754 L 61.6699 -51.8066 C 61.9629 -52.2461 62.4023 -52.4902 62.8418 -52.4902 C 63.4277 -52.4902 64.0625 -52.0508 64.0625 -51.2695 C 64.0625 -50.9766 63.9648 -50.6836 63.7695 -50.3906 L 42.2363 -17.1387 C 41.8945 -16.6016 41.5039 -16.4551 41.0156 -16.4551 Z"/>
  </g>
 </g>
</svg>
