<svg width="56" height="56" viewBox="0 0 56 56" fill="none" xmlns="http://www.w3.org/2000/svg">
<g clip-path="url(#clip0_33731_61843)">
<rect opacity="0.1" width="56" height="56" fill="#0099FF"/>
<path d="M28.001 13.668C35.9171 13.668 42.334 20.0849 42.334 28.001C42.334 35.9171 35.9171 42.334 28.001 42.334C20.0849 42.334 13.668 35.9171 13.668 28.001C13.668 20.0849 20.0849 13.668 28.001 13.668ZM34.2354 23.0186C33.6926 22.5211 32.8492 22.5571 32.3516 23.0996L25.959 30.0732L23.6104 27.7246C23.0896 27.2041 22.2453 27.204 21.7246 27.7246C21.204 28.2453 21.2041 29.0896 21.7246 29.6104L25.0586 32.9434C25.3157 33.2005 25.6667 33.3419 26.0303 33.334C26.3935 33.326 26.7378 33.1701 26.9834 32.9023L34.3174 24.9023C34.8149 24.3596 34.7779 23.5162 34.2354 23.0186Z" fill="#0099FF"/>
</g>
<defs>
<clipPath id="clip0_33731_61843">
<rect width="56" height="56" rx="28" fill="white"/>
</clipPath>
</defs>
</svg>
