<svg width="16" height="22" viewBox="0 0 16 22" fill="none" xmlns="http://www.w3.org/2000/svg">
<path d="M9.60764 0.147228C10.3143 0.448425 10.7969 1.16259 10.7969 2.01681L10.7976 8.78474C10.7976 8.89519 10.8871 8.98472 10.9976 8.98472H14.0993C14.9851 8.98472 15.5954 9.58256 15.8466 10.2101C16.0974 10.8369 16.0636 11.642 15.5628 12.2849L8.56453 21.2678C8.00319 21.9883 7.12053 22.1629 6.39172 21.8523C5.68508 21.5511 5.20248 20.8369 5.20248 19.9827L5.20181 13.2148C5.2018 13.1043 5.11226 13.0148 5.00181 13.0148H1.90003C1.01422 13.0148 0.40394 12.4169 0.152805 11.7894C-0.0980654 11.1626 -0.0642564 10.3575 0.43658 9.71462L7.43483 0.731687C7.99617 0.011151 8.87883 -0.16342 9.60764 0.147228Z" fill="#0099FF"/>
</svg>
