<svg width="16" height="16" viewBox="0 0 16 16" fill="none" xmlns="http://www.w3.org/2000/svg">
<path d="M8.00008 13.3332C5.08301 13.3332 2.66675 10.9221 2.66675 7.99984C2.66675 5.08277 5.07785 2.6665 7.99492 2.6665C10.9172 2.6665 13.3334 5.08277 13.3334 7.99984C13.3334 10.9221 10.9172 13.3332 8.00008 13.3332ZM8.00008 12.2851C10.375 12.2851 12.2853 10.3748 12.2853 7.99984C12.2853 5.62488 10.3699 3.71975 7.99492 3.71975C5.61996 3.71975 3.71999 5.62488 3.71999 7.99984C3.71999 10.3748 5.62512 12.2851 8.00008 12.2851ZM5.38763 8.64004C5.15529 8.64004 4.97975 8.45934 4.97975 8.23217C4.97975 7.99984 5.15529 7.8243 5.38763 7.8243H7.58704V4.84527C7.58704 4.6181 7.76775 4.4374 7.99492 4.4374C8.22725 4.4374 8.40795 4.6181 8.40795 4.84527V8.23217C8.40795 8.45934 8.22725 8.64004 7.99492 8.64004H5.38763Z" fill="#919191"/>
</svg>
