<svg width="48" height="48" viewBox="0 0 48 48" fill="none" xmlns="http://www.w3.org/2000/svg">
<g clip-path="url(#clip0_9006_23593)">
<rect opacity="0.1" width="48" height="48" rx="24" fill="#0099FF"/>
<path d="M15.7817 24.0052C15.7815 23.5081 16.1843 23.105 16.6813 23.1048L29.1285 23.0993L23.9203 17.8912C23.5689 17.5397 23.5689 16.9699 23.9203 16.6184C24.2718 16.2669 24.8417 16.2669 25.1931 16.6184L31.9431 23.3684C32.2946 23.7199 32.2946 24.2897 31.9431 24.6412L25.1931 31.3912C24.8417 31.7427 24.2718 31.7427 23.9203 31.3912C23.5689 31.0397 23.5689 30.4699 23.9203 30.1184L29.1394 24.8993L16.6821 24.9048C16.1851 24.905 15.782 24.5022 15.7817 24.0052Z" fill="#0099FF"/>
</g>
<defs>
<clipPath id="clip0_9006_23593">
<rect width="48" height="48" rx="24" fill="white"/>
</clipPath>
</defs>
</svg>
