<svg width="28" height="28" viewBox="0 0 28 28" fill="none" xmlns="http://www.w3.org/2000/svg">
<path d="M14 2.33301C14.1561 2.33301 14.3126 2.3482 14.4688 2.37793C14.6247 2.40765 14.7772 2.44469 14.9258 2.48926C15.1858 2.57842 15.5387 2.70475 15.9844 2.86816C16.4378 3.02425 16.9359 3.20362 17.4785 3.4043C18.0286 3.60501 18.5755 3.80515 19.1182 4.00586C19.6681 4.20652 20.1697 4.39254 20.623 4.56348C21.0763 4.73437 21.4332 4.87582 21.6934 4.9873C22.1616 5.18056 22.5151 5.40354 22.7529 5.65625C22.9982 5.90894 23.121 6.32135 23.1211 6.89355V15.3018C23.1211 16.3051 22.9797 17.1862 22.6973 17.9443C22.4148 18.695 21.9503 19.3977 21.3037 20.0518C20.6644 20.7059 19.8054 21.3671 18.7275 22.0361C17.6571 22.7051 16.327 23.4566 14.7363 24.2891C14.5951 24.3634 14.457 24.4146 14.3232 24.4443C14.1969 24.4815 14.0892 24.501 14 24.501C13.9108 24.501 13.7988 24.4815 13.665 24.4443C13.5388 24.4146 13.4047 24.3633 13.2637 24.2891C11.7101 23.4045 10.3943 22.6237 9.31641 21.9473C8.24605 21.2708 7.38362 20.6162 6.72949 19.9844C6.08292 19.3452 5.61078 18.6577 5.31348 17.9219C5.0236 17.1786 4.87894 16.3051 4.87891 15.3018V6.89355C4.87896 6.32135 5.00181 5.90894 5.24707 5.65625C5.49238 5.3961 5.8458 5.17313 6.30664 4.9873C6.56679 4.88325 6.92371 4.74511 7.37695 4.57422C7.83029 4.39586 8.32861 4.20651 8.87109 4.00586C9.42099 3.79779 9.9673 3.59751 10.5098 3.4043C11.0599 3.20359 11.5622 3.02427 12.0156 2.86816C12.4688 2.70471 12.8259 2.57843 13.0859 2.48926C13.2344 2.44474 13.3828 2.40763 13.5312 2.37793C13.6874 2.3482 13.8439 2.33301 14 2.33301ZM15.9961 5.14355C15.8103 5.13612 15.6352 5.23289 15.4717 5.43359L9.17188 13.3389C9.0455 13.4801 8.98242 13.629 8.98242 13.7852C8.98248 13.9337 9.03037 14.0567 9.12695 14.1533C9.23101 14.2425 9.35819 14.2871 9.50684 14.2871H13.4092L11.3242 19.873C11.2276 20.1184 11.2309 20.3195 11.335 20.4756C11.4464 20.6315 11.5989 20.7132 11.792 20.7207C11.9853 20.7207 12.1603 20.6197 12.3164 20.4189L18.6162 12.5137C18.7426 12.365 18.8057 12.2161 18.8057 12.0674C18.8056 11.9189 18.7534 11.7968 18.6494 11.7002C18.5529 11.6037 18.4307 11.5548 18.2822 11.5547H14.3789L16.4639 5.96875C16.5604 5.72372 16.5535 5.52654 16.4424 5.37793C16.3383 5.22187 16.1893 5.1436 15.9961 5.14355Z" fill="white"/>
</svg>
