<svg width="32" height="32" viewBox="0 0 32 32" fill="none" xmlns="http://www.w3.org/2000/svg">
<path d="M16 6.5251C16.8091 6.5251 17.4656 7.1816 17.4656 7.99072V15.3938L21.1156 19.0438C21.687 19.616 21.6875 20.5439 21.1156 21.1157C20.5437 21.6876 19.6159 21.6871 19.0437 21.1157L15.0125 17.0845C14.7204 16.8167 14.5344 16.4338 14.5344 16.0063V7.99072C14.5344 7.1816 15.1909 6.5251 16 6.5251Z" fill="#656565"/>
<path fill-rule="evenodd" clip-rule="evenodd" d="M16 1.20947C24.1684 1.20947 30.7906 7.83167 30.7906 16.0001C30.7906 24.1685 24.1684 30.7907 16 30.7907C7.83155 30.7907 1.20935 24.1685 1.20935 16.0001C1.20938 7.83169 7.83157 1.2095 16 1.20947ZM16 4.05947C9.40548 4.0595 4.05938 9.4056 4.05935 16.0001C4.05935 22.5946 9.40547 27.9407 16 27.9407C22.5945 27.9407 27.9406 22.5946 27.9406 16.0001C27.9406 9.40559 22.5945 4.05947 16 4.05947Z" fill="#656565"/>
</svg>
