<svg width="24" height="24" viewBox="0 0 24 24" fill="none" xmlns="http://www.w3.org/2000/svg">
<path d="M19.7048 9.29199C20.0948 9.68237 20.0947 10.3156 19.7048 10.7061C19.3144 11.0963 18.6813 11.0961 18.2908 10.7061L12.9988 5.41406L12.9988 20.999C12.9986 21.5509 12.5506 21.9986 11.9988 21.999C11.4466 21.999 10.9989 21.5512 10.9988 20.999L10.9988 5.41406L5.70679 10.7061C5.31639 11.0963 4.68324 11.0961 4.29272 10.7061C3.9024 10.3156 3.90237 9.68247 4.29272 9.29199L11.2917 2.29297C11.4792 2.10579 11.7338 2.00001 11.9988 2C12.2637 2.00021 12.5185 2.1057 12.7058 2.29297L19.7048 9.29199Z" fill="#0F0F0F"/>
</svg>
