<svg width="24" height="24" viewBox="0 0 24 24" fill="none" xmlns="http://www.w3.org/2000/svg">
<path d="M3 16C3.55228 16 4 16.4477 4 17V18C4 19.1046 4.89543 20 6 20H7C7.55228 20 8 20.4477 8 21C8 21.5523 7.55228 22 7 22H6C3.79086 22 2 20.2091 2 18V17C2 16.4477 2.44772 16 3 16Z" fill="#0F0F0F"/>
<path d="M21 16C21.5523 16 22 16.4477 22 17V18C22 20.2091 20.2091 22 18 22H17C16.4477 22 16 21.5523 16 21C16 20.4477 16.4477 20 17 20H18C19.1046 20 20 19.1046 20 18V17C20 16.4477 20.4477 16 21 16Z" fill="#0F0F0F"/>
<path d="M14.5352 15.4502C14.9257 15.0599 15.5588 15.0597 15.9492 15.4502C16.3395 15.8407 16.3395 16.4738 15.9492 16.8643C13.7687 19.0445 10.2322 19.0447 8.05176 16.8643C7.66131 16.4738 7.66148 15.8407 8.05176 15.4502C8.44228 15.0597 9.0753 15.0597 9.46582 15.4502C10.8652 16.8496 13.1357 16.8494 14.5352 15.4502Z" fill="#0F0F0F"/>
<path d="M12.5 8.09668C13.0522 8.09668 13.4998 8.54454 13.5 9.09668V12.5967C13.5 13.701 12.6043 14.5967 11.5 14.5967H11C10.4477 14.5967 10 14.149 10 13.5967C10.0002 13.0445 10.4478 12.5967 11 12.5967H11.5V9.09668C11.5002 8.54454 11.9478 8.09668 12.5 8.09668Z" fill="#0F0F0F"/>
<path d="M7.5 8.08008C8.05228 8.08008 8.5 8.52779 8.5 9.08008V10.5801C8.49997 11.1323 8.05226 11.5801 7.5 11.5801C6.94774 11.5801 6.50003 11.1323 6.5 10.5801V9.08008C6.5 8.52779 6.94772 8.08008 7.5 8.08008Z" fill="#0F0F0F"/>
<path d="M16.5 8.08008C17.0523 8.08008 17.5 8.52779 17.5 9.08008V10.5801C17.5 11.1323 17.0523 11.5801 16.5 11.5801C15.9477 11.5801 15.5 11.1323 15.5 10.5801V9.08008C15.5 8.52779 15.9477 8.08008 16.5 8.08008Z" fill="#0F0F0F"/>
<path d="M7 2C7.55228 2 8 2.44772 8 3C8 3.55228 7.55228 4 7 4H6C4.89543 4 4 4.89543 4 6V7C4 7.55228 3.55228 8 3 8C2.44772 8 2 7.55228 2 7V6C2 3.79086 3.79086 2 6 2H7Z" fill="#0F0F0F"/>
<path d="M18 2C20.2091 2 22 3.79086 22 6V7C22 7.55228 21.5523 8 21 8C20.4477 8 20 7.55228 20 7V6C20 4.89543 19.1046 4 18 4H17C16.4477 4 16 3.55228 16 3C16 2.44772 16.4477 2 17 2H18Z" fill="#0F0F0F"/>
</svg>
