<svg width="28" height="28" viewBox="0 0 28 28" fill="none" xmlns="http://www.w3.org/2000/svg">
<path d="M3.24902 18.7217C3.93928 18.7217 4.49886 19.2815 4.49902 19.9717V21.166C4.49929 22.4541 5.54377 23.4987 6.83203 23.499H8.02637C8.71653 23.499 9.27606 24.0589 9.27637 24.749C9.2761 25.4392 8.71656 25.999 8.02637 25.999H6.83203C4.16315 25.9987 1.99929 23.8349 1.99902 21.166V19.9717C1.99918 19.2816 2.55891 18.7218 3.24902 18.7217Z" fill="#0F0F0F"/>
<path d="M24.749 18.7217C25.4393 18.7217 25.9989 19.2815 25.999 19.9717V21.166C25.9988 23.8351 23.8352 25.999 21.166 25.999H19.9717C19.2815 25.999 18.7219 25.4392 18.7217 24.749C18.722 24.0589 19.2815 23.499 19.9717 23.499H21.166C22.4546 23.499 23.4988 22.4543 23.499 21.166V19.9717C23.4992 19.2816 24.059 18.7219 24.749 18.7217Z" fill="#0F0F0F"/>
<path d="M16.9873 18.0811C17.4754 17.593 18.2677 17.5932 18.7559 18.0811C19.2434 18.5692 19.2436 19.3606 18.7559 19.8486C16.1297 22.4744 11.8703 22.4744 9.24414 19.8486C8.75638 19.3605 8.75635 18.5691 9.24414 18.0811C9.73219 17.593 10.5235 17.5932 11.0117 18.0811C12.6615 19.7305 15.3374 19.7303 16.9873 18.0811Z" fill="#0F0F0F"/>
<path d="M14.5967 9.28223C15.2868 9.2824 15.8465 9.84216 15.8467 10.5322V14.7129C15.8463 16.0621 14.7515 17.157 13.4023 17.1572H12.8047C12.1146 17.1571 11.555 16.5972 11.5547 15.9072C11.5549 15.2171 12.1146 14.6573 12.8047 14.6572H13.3467V10.5322C13.3469 9.84212 13.9065 9.28233 14.5967 9.28223Z" fill="#0F0F0F"/>
<path d="M8.62402 9.2627C9.31438 9.2627 9.87402 9.82234 9.87402 10.5127V12.3037C9.87354 12.9937 9.31408 13.5537 8.62402 13.5537C7.93415 13.5535 7.37451 12.9935 7.37402 12.3037V10.5127C7.37402 9.82248 7.93385 9.26292 8.62402 9.2627Z" fill="#0F0F0F"/>
<path d="M19.374 9.2627C20.0644 9.2627 20.624 9.82234 20.624 10.5127V12.3037C20.6235 12.9937 20.0641 13.5537 19.374 13.5537C18.6842 13.5534 18.1245 12.9935 18.124 12.3037V10.5127C18.124 9.82254 18.6839 9.26301 19.374 9.2627Z" fill="#0F0F0F"/>
<path d="M8.02637 1.99902C8.7166 1.99902 9.27616 2.55982 9.27637 3.25C9.2761 3.94013 8.71656 4.5 8.02637 4.5H6.83203C5.5438 4.50035 4.49934 5.54494 4.49902 6.83301V8.02734C4.49876 8.71748 3.93922 9.27734 3.24902 9.27734C2.55897 9.27718 1.99929 8.71737 1.99902 8.02734V6.83301C1.99934 4.16414 4.16318 1.99938 6.83203 1.99902H8.02637Z" fill="#0F0F0F"/>
<path d="M21.166 1.99902C23.8352 1.99903 25.9987 4.16392 25.999 6.83301V8.02734C25.9988 8.71747 25.4392 9.27734 24.749 9.27734C24.059 9.27709 23.4993 8.71732 23.499 8.02734V6.83301C23.4987 5.54473 22.4545 4.5 21.166 4.5H19.9717C19.2815 4.5 18.7219 3.94013 18.7217 3.25C18.7219 2.55982 19.2814 1.99902 19.9717 1.99902H21.166Z" fill="#0F0F0F"/>
</svg>
