<svg width="20" height="20" viewBox="0 0 20 20" fill="none" xmlns="http://www.w3.org/2000/svg">
<path d="M2.75 13.2812C3.16403 13.2815 3.5 13.6172 3.5 14.0312V14.8369C3.50011 15.7576 4.24636 16.5046 5.16699 16.5049H5.97363C6.3875 16.5053 6.72363 16.8409 6.72363 17.2549C6.72333 17.6686 6.38731 18.0045 5.97363 18.0049H5.16699C3.41794 18.0046 2.00011 16.586 2 14.8369V14.0312C2 13.617 2.33579 13.2812 2.75 13.2812Z" fill="#0F0F0F"/>
<path d="M17.2549 13.2812C17.6689 13.2815 18.0049 13.6172 18.0049 14.0312V14.8369C18.0048 16.5861 16.5861 18.0048 14.8369 18.0049H14.0312C13.6172 18.0049 13.2816 17.6688 13.2812 17.2549C13.2812 16.8407 13.617 16.5049 14.0312 16.5049H14.8369C15.7577 16.5048 16.5048 15.7577 16.5049 14.8369V14.0312C16.5049 13.617 16.8407 13.2812 17.2549 13.2812Z" fill="#0F0F0F"/>
<path d="M12.084 12.8213C12.3769 12.5287 12.8527 12.5285 13.1455 12.8213C13.4378 13.114 13.4377 13.589 13.1455 13.8818C11.4102 15.6171 8.59567 15.617 6.86035 13.8818C6.56746 13.5889 6.56746 13.1142 6.86035 12.8213C7.15327 12.5287 7.62811 12.5285 7.9209 12.8213C9.07035 13.9706 10.9345 13.9705 12.084 12.8213Z" fill="#0F0F0F"/>
<path d="M10.4053 6.91309C10.8193 6.91332 11.1553 7.24902 11.1553 7.66309V10.4834C11.155 11.342 10.4582 12.0387 9.59961 12.0391H9.19629C8.78223 12.0391 8.44653 11.7031 8.44629 11.2891C8.4464 10.8749 8.78214 10.5391 9.19629 10.5391H9.59961C9.62979 10.5387 9.65503 10.5136 9.65527 10.4834V7.66309C9.65527 7.24887 9.99106 6.91309 10.4053 6.91309Z" fill="#0F0F0F"/>
<path d="M6.37598 6.89941C6.79 6.89964 7.12598 7.23534 7.12598 7.64941V8.8584C7.12558 9.27214 6.78976 9.60818 6.37598 9.6084C5.96204 9.60835 5.62637 9.27225 5.62598 8.8584V7.64941C5.62598 7.23523 5.9618 6.89946 6.37598 6.89941Z" fill="#0F0F0F"/>
<path d="M13.6279 6.89941C14.042 6.89964 14.3779 7.23534 14.3779 7.64941V8.8584C14.3775 9.27214 14.0417 9.60818 13.6279 9.6084C13.2142 9.60814 12.8783 9.27212 12.8779 8.8584V7.64941C12.8779 7.23536 13.2139 6.89967 13.6279 6.89941Z" fill="#0F0F0F"/>
<path d="M5.97363 2C6.3875 2.0004 6.72363 2.33604 6.72363 2.75C6.72342 3.16378 6.38737 3.4996 5.97363 3.5H5.16699C4.24645 3.50025 3.50025 4.24645 3.5 5.16699V5.97363C3.4996 6.38737 3.16378 6.72342 2.75 6.72363C2.33604 6.72363 2.0004 6.3875 2 5.97363V5.16699C2.00025 3.41802 3.41802 2.00025 5.16699 2H5.97363Z" fill="#0F0F0F"/>
<path d="M14.8369 2C16.5861 2.00004 18.0046 3.4179 18.0049 5.16699V5.97363C18.0045 6.38736 17.6686 6.72339 17.2549 6.72363C16.8409 6.72363 16.5053 6.3875 16.5049 5.97363V5.16699C16.5046 4.24632 15.7576 3.50004 14.8369 3.5H14.0312C13.6172 3.5 13.2815 3.16403 13.2812 2.75C13.2812 2.33579 13.617 2 14.0312 2H14.8369Z" fill="#0F0F0F"/>
</svg>
