<svg width="20" height="20" viewBox="0 0 20 20" fill="none" xmlns="http://www.w3.org/2000/svg">
<path fill-rule="evenodd" clip-rule="evenodd" d="M4.47619 1.25L4.47397 1.25001C3.6197 1.25253 2.80114 1.59301 2.19707 2.19707C1.59301 2.80114 1.25252 3.6197 1.25 4.47398V12.8333L1.25 12.8355C1.2522 13.6078 1.55997 14.3478 2.10608 14.8939C2.65218 15.44 3.39223 15.7478 4.16453 15.75L4.16667 15.75H4.25V15.7946C4.25 17.4268 5.57316 18.75 7.20536 18.75H15.7946C17.4268 18.75 18.75 17.4268 18.75 15.7946V7.20536C18.75 5.57316 17.4268 4.25 15.7946 4.25H15.75V4.16667L15.75 4.16454C15.7478 3.39223 15.44 2.65218 14.8939 2.10608C14.3478 1.55997 13.6078 1.2522 12.8355 1.25L4.47619 1.25ZM14.9977 5.75C14.9985 5.75 14.9992 5.75 15 5.75C15.0008 5.75 15.0015 5.75 15.0023 5.75H15.7946C16.5984 5.75 17.25 6.40159 17.25 7.20536V15.7946C17.25 16.5984 16.5984 17.25 15.7946 17.25H7.20536C6.40159 17.25 5.75 16.5984 5.75 15.7946V15V7.20536C5.75 6.40159 6.40159 5.75 7.20536 5.75H14.9977ZM14.25 4.25V4.1679C14.2487 3.79226 14.0989 3.43237 13.8333 3.16674C13.5676 2.90112 13.2078 2.75132 12.8322 2.75H4.4774C4.01978 2.75162 3.58134 2.93413 3.25773 3.25774C2.93412 3.58134 2.75162 4.01978 2.75 4.4774V12.8322C2.75132 13.2078 2.90112 13.5676 3.16674 13.8333C3.43237 14.0989 3.79226 14.2487 4.1679 14.25H4.25V7.20536C4.25 5.57316 5.57316 4.25 7.20536 4.25H14.25Z" fill="#1E1E1E"/>
</svg>
