<svg width="56" height="56" viewBox="0 0 56 56" fill="none" xmlns="http://www.w3.org/2000/svg">
<circle opacity="0.1" cx="28" cy="28" r="28" fill="#FF3333"/>
<path fill-rule="evenodd" clip-rule="evenodd" d="M28.0069 30.6324C27.2921 30.6324 26.8934 30.2201 26.8797 29.4915L26.701 22.0134C26.6872 21.2849 27.2233 20.7625 27.9931 20.7625C28.7354 20.7625 29.3128 21.2986 29.299 22.0272L29.0928 29.4915C29.0791 30.2338 28.6804 30.6324 28.0069 30.6324ZM28.0069 35.2375C27.1821 35.2375 26.4673 34.5777 26.4673 33.7666C26.4673 32.9419 27.1683 32.282 28.0069 32.282C28.8317 32.282 29.5327 32.9281 29.5327 33.7666C29.5327 34.5914 28.8179 35.2375 28.0069 35.2375Z" fill="#FF3333"/>
<path fill-rule="evenodd" clip-rule="evenodd" d="M28 14.3281C20.4492 14.3281 14.3281 20.4492 14.3281 28C14.3281 35.5508 20.4492 41.6719 28 41.6719C35.5508 41.6719 41.6719 35.5508 41.6719 28C41.6719 20.4492 35.5508 14.3281 28 14.3281ZM16.3281 28C16.3281 21.5538 21.5538 16.3281 28 16.3281C34.4462 16.3281 39.6719 21.5538 39.6719 28C39.6719 34.4462 34.4462 39.6719 28 39.6719C21.5538 39.6719 16.3281 34.4462 16.3281 28Z" fill="#FF3333"/>
</svg>
