<svg width="56" height="56" viewBox="0 0 56 56" fill="none" xmlns="http://www.w3.org/2000/svg">
<circle opacity="0.1" cx="28" cy="28" r="28" fill="#656565"/>
<path d="M28.0001 18.525C28.8092 18.525 29.4657 19.1815 29.4657 19.9906V27.3937L33.1157 31.0437C33.6871 31.6159 33.6876 32.5437 33.1157 33.1156C32.5439 33.6875 31.616 33.687 31.0438 33.1156L27.0126 29.0844C26.7205 28.8165 26.5345 28.4337 26.5345 28.0062V19.9906C26.5345 19.1815 27.191 18.525 28.0001 18.525Z" fill="#656565"/>
<path fill-rule="evenodd" clip-rule="evenodd" d="M28.0001 13.2094C36.1685 13.2094 42.7907 19.8316 42.7907 28C42.7907 36.1684 36.1685 42.7906 28.0001 42.7906C19.8317 42.7906 13.2095 36.1684 13.2095 28C13.2095 19.8316 19.8317 13.2094 28.0001 13.2094ZM28.0001 16.0594C21.4056 16.0594 16.0595 21.4055 16.0595 28C16.0595 34.5945 21.4056 39.9406 28.0001 39.9406C34.5946 39.9406 39.9407 34.5945 39.9407 28C39.9407 21.4055 34.5946 16.0594 28.0001 16.0594Z" fill="#656565"/>
</svg>
