<svg width="33" height="16" viewBox="0 0 33 16" fill="none" xmlns="http://www.w3.org/2000/svg">
<g clip-path="url(#clip0_32076_109206)">
<mask id="mask0_32076_109206" style="mask-type:luminance" maskUnits="userSpaceOnUse" x="2" y="3" width="30" height="12">
<path d="M31.1157 3.2002H2V14.7002H31.1157V3.2002Z" fill="white"/>
</mask>
<g mask="url(#mask0_32076_109206)">
<path d="M3.66618 5.40771H2V12.1452H3.66618V5.40771Z" fill="#656565"/>
<path d="M8.89126 5.79297C8.89126 4.36333 7.72707 3.2002 6.29601 3.2002H2V4.63904H6.09175C6.73937 4.63904 7.27583 5.14784 7.28769 5.77317C7.29361 6.08628 7.17609 6.3818 6.9568 6.60524C6.73741 6.82878 6.44429 6.95195 6.13144 6.95195H4.53751C4.48092 6.95195 4.43485 6.99793 4.43485 7.05452V8.33331C4.43485 8.35507 4.44157 8.37584 4.45422 8.39335L7.15859 12.1452H9.13823L6.42758 8.3831C7.79268 8.31457 8.89126 7.16761 8.89126 5.79297Z" fill="#656565"/>
<path d="M18.5199 5.94964C18.5199 7.6231 17.3446 8.70899 15.5563 8.70899H13.2312V12.1453H12.1199V3.20312H15.5563C17.3446 3.20312 18.5199 4.27618 18.5199 5.94964ZM15.4539 7.68706C16.6293 7.68706 17.3829 7.00988 17.3829 5.94964C17.3829 4.88941 16.6421 4.22505 15.4668 4.22505H13.2312V7.68706H15.4539Z" fill="#656565"/>
<path d="M18.801 10.3181C18.801 9.01523 19.7081 8.28709 21.4198 8.28709H23.3362V7.83992C23.3362 6.99686 22.7358 6.4859 21.7136 6.4859C20.794 6.4859 20.1808 6.92008 20.053 7.58443H19.0054C19.1588 6.30702 20.1936 5.55322 21.7648 5.55322C23.4256 5.55322 24.3836 6.38363 24.3836 7.90387V12.145H23.4766L23.3871 11.1231C22.9784 11.7106 22.3269 12.2216 21.2027 12.2216C19.7719 12.2216 18.801 11.5063 18.801 10.3181ZM21.2793 11.3274C22.5823 11.3274 23.3362 10.5738 23.3362 9.4879V9.16847H21.3178C20.3852 9.16847 19.8613 9.51339 19.8613 10.2544C19.8613 10.8931 20.4108 11.3274 21.2793 11.3274Z" fill="#656565"/>
<path d="M26.0572 5.62988L28.0626 10.8293L30.0044 5.62988H31.1158L28.1138 13.2436C27.705 14.2911 27.4622 14.7 26.5425 14.7H25.2907V13.7419H26.2232C26.8236 13.7419 26.9259 13.5885 27.1685 12.9754L27.4878 12.1833L24.9458 5.62989L26.0572 5.62988Z" fill="#656565"/>
</g>
</g>
<defs>
<clipPath id="clip0_32076_109206">
<rect width="29.2727" height="11.5" fill="white" transform="translate(2 3.2002)"/>
</clipPath>
</defs>
</svg>
