<svg width="36" height="36" viewBox="0 0 36 36" fill="none" xmlns="http://www.w3.org/2000/svg">
<circle opacity="0.1" cx="18" cy="18" r="18" fill="#919191"/>
<path fill-rule="evenodd" clip-rule="evenodd" d="M18.0566 7.74609C20.2472 7.74608 21.9681 7.74618 23.3115 7.92676C24.6881 8.11184 25.7805 8.49929 26.6387 9.35742C27.4969 10.2156 27.8842 11.3079 28.0693 12.6846C28.2499 14.028 28.25 15.7488 28.25 17.9395V18.0537C28.25 20.2444 28.25 21.9652 28.0693 23.3086C27.8842 24.6852 27.4968 25.7776 26.6387 26.6357C25.7805 27.4938 24.6881 27.8804 23.3115 28.0654C21.9681 28.246 20.2472 28.2461 18.0566 28.2461H17.9424C15.7518 28.2461 14.0309 28.246 12.6875 28.0654C11.311 27.8803 10.2185 27.4939 9.36035 26.6357C8.50226 25.7776 8.11575 24.6851 7.93066 23.3086C7.75005 21.9652 7.74999 20.2444 7.75 18.0537V17.9395C7.74999 15.7488 7.75005 14.028 7.93066 12.6846C8.11574 11.308 8.50229 10.2156 9.36035 9.35742C10.2185 8.49928 11.311 8.11186 12.6875 7.92676C14.0309 7.74615 15.7518 7.74608 17.9424 7.74609H18.0566ZM13 21.249C12.5858 21.249 12.25 21.5848 12.25 21.999V23.999C12.2501 24.4131 12.5859 24.749 13 24.749C13.4141 24.7489 13.7499 24.4131 13.75 23.999V21.999C13.75 21.5849 13.4141 21.2491 13 21.249ZM18 20.248C17.5858 20.248 17.25 20.5838 17.25 20.998V23.998C17.25 24.4123 17.5858 24.748 18 24.748C18.4141 24.7479 18.75 24.4122 18.75 23.998V20.998C18.75 20.5839 18.4141 20.2482 18 20.248ZM23 18.2461C22.5859 18.2461 22.2502 18.5821 22.25 18.9961V23.9961C22.25 24.4103 22.5858 24.7461 23 24.7461C23.4141 24.746 23.75 24.4102 23.75 23.9961V18.9961C23.7498 18.5821 23.414 18.2462 23 18.2461ZM21.8584 11.248C21.6542 11.2574 21.416 11.2967 21.1787 11.3359C21.1677 11.3378 21.1565 11.34 21.1455 11.3418L19.8779 11.5508C19.4694 11.6182 19.1926 12.0036 19.2598 12.4121C19.3272 12.8208 19.7134 13.0977 20.1221 13.0303L20.8457 12.9111C18.9632 15.5535 15.9525 16.7461 12 16.7461C11.5858 16.7461 11.25 17.0819 11.25 17.4961C11.2502 17.9101 11.5859 18.2461 12 18.2461C16.3218 18.2461 19.8981 16.9016 22.1318 13.6904L22.2783 14.2021C22.3924 14.6002 22.808 14.8307 23.2061 14.7168C23.6042 14.6027 23.8348 14.1873 23.7207 13.7891L23.4023 12.6787C23.3991 12.6674 23.3959 12.656 23.3926 12.6445C23.3346 12.4417 23.2708 12.2195 23.1885 12.0371C23.0883 11.8152 22.9302 11.5774 22.6445 11.415C22.3691 11.2585 22.0897 11.2375 21.8584 11.248Z" fill="#C9C9C9"/>
</svg>
