<?xml version="1.0" encoding="UTF-8"?>
<!--Generator: Apple Native CoreSVG 123-->
<!DOCTYPE svg
PUBLIC "-//W3C//DTD SVG 1.1//EN"
       "http://www.w3.org/Graphics/SVG/1.1/DTD/svg11.dtd">
<svg version="1.1" xmlns="http://www.w3.org/2000/svg" xmlns:xlink="http://www.w3.org/1999/xlink" width="3300" height="2200">
 <!--glyph: "uni100128.medium", point size: 100.000000, font version: "Version 15.0d7e11", template writer version: "5"-->
 <g id="Notes">
  <rect height="2200" id="artboard" style="fill:white;opacity:1" width="3300" x="0" y="0"/>
  <line id="" style="fill:none;stroke:black;opacity:1;stroke-width:0.5;" x1="263" x2="3036" y1="292" y2="292"/>
  <text style="stroke:none;fill:black;font-family:-apple-system,&quot;SF Pro Display&quot;,&quot;SF Pro Text&quot;,Helvetica,sans-serif;font-weight:bold;" transform="matrix(1 0 0 1 263 322)">Weight/Scale Variations</text>
  <text style="stroke:none;fill:black;font-family:-apple-system,&quot;SF Pro Display&quot;,&quot;SF Pro Text&quot;,Helvetica,sans-serif;text-anchor:middle;" transform="matrix(1 0 0 1 559.711 322)">Ultralight</text>
  <text style="stroke:none;fill:black;font-family:-apple-system,&quot;SF Pro Display&quot;,&quot;SF Pro Text&quot;,Helvetica,sans-serif;text-anchor:middle;" transform="matrix(1 0 0 1 856.422 322)">Thin</text>
  <text style="stroke:none;fill:black;font-family:-apple-system,&quot;SF Pro Display&quot;,&quot;SF Pro Text&quot;,Helvetica,sans-serif;text-anchor:middle;" transform="matrix(1 0 0 1 1153.13 322)">Light</text>
  <text style="stroke:none;fill:black;font-family:-apple-system,&quot;SF Pro Display&quot;,&quot;SF Pro Text&quot;,Helvetica,sans-serif;text-anchor:middle;" transform="matrix(1 0 0 1 1449.84 322)">Regular</text>
  <text style="stroke:none;fill:black;font-family:-apple-system,&quot;SF Pro Display&quot;,&quot;SF Pro Text&quot;,Helvetica,sans-serif;text-anchor:middle;" transform="matrix(1 0 0 1 1746.56 322)">Medium</text>
  <text style="stroke:none;fill:black;font-family:-apple-system,&quot;SF Pro Display&quot;,&quot;SF Pro Text&quot;,Helvetica,sans-serif;text-anchor:middle;" transform="matrix(1 0 0 1 2043.27 322)">Semibold</text>
  <text style="stroke:none;fill:black;font-family:-apple-system,&quot;SF Pro Display&quot;,&quot;SF Pro Text&quot;,Helvetica,sans-serif;text-anchor:middle;" transform="matrix(1 0 0 1 2339.98 322)">Bold</text>
  <text style="stroke:none;fill:black;font-family:-apple-system,&quot;SF Pro Display&quot;,&quot;SF Pro Text&quot;,Helvetica,sans-serif;text-anchor:middle;" transform="matrix(1 0 0 1 2636.69 322)">Heavy</text>
  <text style="stroke:none;fill:black;font-family:-apple-system,&quot;SF Pro Display&quot;,&quot;SF Pro Text&quot;,Helvetica,sans-serif;text-anchor:middle;" transform="matrix(1 0 0 1 2933.4 322)">Black</text>
  <line id="" style="fill:none;stroke:black;opacity:1;stroke-width:0.5;" x1="263" x2="3036" y1="1903" y2="1903"/>
  <g id="" transform="matrix(1 0 0 1 263 1933)">
   <path d="M 9.24805 0.830078 C 13.5547 0.830078 17.1387 -2.74414 17.1387 -7.05078 C 17.1387 -11.3574 13.5449 -14.9316 9.23828 -14.9316 C 4.94141 -14.9316 1.36719 -11.3574 1.36719 -7.05078 C 1.36719 -2.74414 4.95117 0.830078 9.24805 0.830078 Z M 9.24805 -0.654297 C 5.70312 -0.654297 2.87109 -3.49609 2.87109 -7.05078 C 2.87109 -10.6055 5.69336 -13.4473 9.23828 -13.4473 C 12.793 -13.4473 15.6348 -10.6055 15.6445 -7.05078 C 15.6543 -3.49609 12.8027 -0.654297 9.24805 -0.654297 Z M 9.22852 -3.42773 C 9.69727 -3.42773 9.9707 -3.74023 9.9707 -4.25781 L 9.9707 -6.31836 L 12.1973 -6.31836 C 12.6953 -6.31836 13.0371 -6.57227 13.0371 -7.04102 C 13.0371 -7.51953 12.7148 -7.7832 12.1973 -7.7832 L 9.9707 -7.7832 L 9.9707 -10.0098 C 9.9707 -10.5273 9.69727 -10.8496 9.22852 -10.8496 C 8.75977 -10.8496 8.50586 -10.5078 8.50586 -10.0098 L 8.50586 -7.7832 L 6.29883 -7.7832 C 5.78125 -7.7832 5.44922 -7.51953 5.44922 -7.04102 C 5.44922 -6.57227 5.80078 -6.31836 6.29883 -6.31836 L 8.50586 -6.31836 L 8.50586 -4.25781 C 8.50586 -3.75977 8.75977 -3.42773 9.22852 -3.42773 Z"/>
  </g>
  <g id="" transform="matrix(1 0 0 1 281.506 1933)">
   <path d="M 11.709 2.91016 C 17.1582 2.91016 21.6699 -1.60156 21.6699 -7.05078 C 21.6699 -12.4902 17.1484 -17.0117 11.6992 -17.0117 C 6.25977 -17.0117 1.74805 -12.4902 1.74805 -7.05078 C 1.74805 -1.60156 6.26953 2.91016 11.709 2.91016 Z M 11.709 1.25 C 7.09961 1.25 3.41797 -2.44141 3.41797 -7.05078 C 3.41797 -11.6504 7.08984 -15.3516 11.6992 -15.3516 C 16.3086 -15.3516 20 -11.6504 20.0098 -7.05078 C 20.0195 -2.44141 16.3184 1.25 11.709 1.25 Z M 11.6895 -2.41211 C 12.207 -2.41211 12.5195 -2.77344 12.5195 -3.33984 L 12.5195 -6.23047 L 15.5762 -6.23047 C 16.123 -6.23047 16.5039 -6.51367 16.5039 -7.03125 C 16.5039 -7.55859 16.1426 -7.86133 15.5762 -7.86133 L 12.5195 -7.86133 L 12.5195 -10.9277 C 12.5195 -11.5039 12.207 -11.8555 11.6895 -11.8555 C 11.1719 -11.8555 10.8789 -11.4844 10.8789 -10.9277 L 10.8789 -7.86133 L 7.83203 -7.86133 C 7.26562 -7.86133 6.89453 -7.55859 6.89453 -7.03125 C 6.89453 -6.51367 7.28516 -6.23047 7.83203 -6.23047 L 10.8789 -6.23047 L 10.8789 -3.33984 C 10.8789 -2.79297 11.1719 -2.41211 11.6895 -2.41211 Z"/>
  </g>
  <g id="" transform="matrix(1 0 0 1 304.924 1933)">
   <path d="M 14.9707 5.67383 C 21.9336 5.67383 27.6953 -0.078125 27.6953 -7.04102 C 27.6953 -14.0039 21.9238 -19.7559 14.9609 -19.7559 C 8.00781 -19.7559 2.25586 -14.0039 2.25586 -7.04102 C 2.25586 -0.078125 8.01758 5.67383 14.9707 5.67383 Z M 14.9707 3.85742 C 8.93555 3.85742 4.08203 -1.00586 4.08203 -7.04102 C 4.08203 -13.0762 8.92578 -17.9395 14.9609 -17.9395 C 21.0059 -17.9395 25.8594 -13.0762 25.8691 -7.04102 C 25.8789 -1.00586 21.0156 3.85742 14.9707 3.85742 Z M 14.9512 -1.06445 C 15.5176 -1.06445 15.8691 -1.45508 15.8691 -2.06055 L 15.8691 -6.13281 L 20.1074 -6.13281 C 20.6934 -6.13281 21.1133 -6.46484 21.1133 -7.02148 C 21.1133 -7.59766 20.7227 -7.93945 20.1074 -7.93945 L 15.8691 -7.93945 L 15.8691 -12.1875 C 15.8691 -12.8027 15.5176 -13.1934 14.9512 -13.1934 C 14.3848 -13.1934 14.0625 -12.7832 14.0625 -12.1875 L 14.0625 -7.93945 L 9.83398 -7.93945 C 9.21875 -7.93945 8.80859 -7.59766 8.80859 -7.02148 C 8.80859 -6.46484 9.23828 -6.13281 9.83398 -6.13281 L 14.0625 -6.13281 L 14.0625 -2.06055 C 14.0625 -1.47461 14.3848 -1.06445 14.9512 -1.06445 Z"/>
  </g>
  <text style="stroke:none;fill:black;font-family:-apple-system,&quot;SF Pro Display&quot;,&quot;SF Pro Text&quot;,Helvetica,sans-serif;font-weight:bold;" transform="matrix(1 0 0 1 263 1953)">Design Variations</text>
  <text style="stroke:none;fill:black;font-family:-apple-system,&quot;SF Pro Display&quot;,&quot;SF Pro Text&quot;,Helvetica,sans-serif;" transform="matrix(1 0 0 1 263 1971)">Symbols are supported in up to nine weights and three scales.</text>
  <text style="stroke:none;fill:black;font-family:-apple-system,&quot;SF Pro Display&quot;,&quot;SF Pro Text&quot;,Helvetica,sans-serif;" transform="matrix(1 0 0 1 263 1989)">For optimal layout with text and other symbols, vertically align</text>
  <text style="stroke:none;fill:black;font-family:-apple-system,&quot;SF Pro Display&quot;,&quot;SF Pro Text&quot;,Helvetica,sans-serif;" transform="matrix(1 0 0 1 263 2007)">symbols with the adjacent text.</text>
  <rect height="14" id="" style="fill:#00AEEF;stroke:none;opacity:0.4;" width="3" x="776" y="1919"/>
  <g id="" transform="matrix(1 0 0 1 779 1933)">
   <path d="M 10.5273 0 L 12.373 0 L 7.17773 -14.0918 L 5.43945 -14.0918 L 0.244141 0 L 2.08984 0 L 3.50586 -4.0332 L 9.11133 -4.0332 Z M 6.2793 -11.9531 L 6.33789 -11.9531 L 8.59375 -5.52734 L 4.02344 -5.52734 Z"/>
  </g>
  <rect height="14" id="" style="fill:#00AEEF;stroke:none;opacity:0.4;" width="3" x="791.617" y="1919"/>
  <text style="stroke:none;fill:black;font-family:-apple-system,&quot;SF Pro Display&quot;,&quot;SF Pro Text&quot;,Helvetica,sans-serif;font-weight:bold;" transform="matrix(1 0 0 1 776 1953)">Margins</text>
  <text style="stroke:none;fill:black;font-family:-apple-system,&quot;SF Pro Display&quot;,&quot;SF Pro Text&quot;,Helvetica,sans-serif;" transform="matrix(1 0 0 1 776 1971)">Leading and trailing margins on the left and right side of each symbol</text>
  <text style="stroke:none;fill:black;font-family:-apple-system,&quot;SF Pro Display&quot;,&quot;SF Pro Text&quot;,Helvetica,sans-serif;" transform="matrix(1 0 0 1 776 1989)">can be adjusted by modifying the width of the blue rectangles.</text>
  <text style="stroke:none;fill:black;font-family:-apple-system,&quot;SF Pro Display&quot;,&quot;SF Pro Text&quot;,Helvetica,sans-serif;" transform="matrix(1 0 0 1 776 2007)">Modifications are automatically applied proportionally to all</text>
  <text style="stroke:none;fill:black;font-family:-apple-system,&quot;SF Pro Display&quot;,&quot;SF Pro Text&quot;,Helvetica,sans-serif;" transform="matrix(1 0 0 1 776 2025)">scales and weights.</text>
  <g id="" transform="matrix(1 0 0 1 1289 1933)">
   <path d="M 2.83203 3.11523 L 4.375 4.6582 C 5.22461 5.48828 6.19141 5.41992 7.06055 4.46289 L 17.2754 -6.66016 C 17.7051 -6.36719 18.0957 -6.37695 18.5645 -6.47461 L 19.6094 -6.68945 L 20.3027 -5.99609 L 20.2539 -5.47852 C 20.1855 -4.95117 20.3516 -4.53125 20.8496 -4.0332 L 21.6602 -3.22266 C 22.168 -2.71484 22.8223 -2.68555 23.3008 -3.16406 L 26.5527 -6.41602 C 27.0312 -6.89453 27.0117 -7.54883 26.5039 -8.05664 L 25.6836 -8.87695 C 25.1855 -9.375 24.7754 -9.55078 24.2383 -9.47266 L 23.7109 -9.41406 L 23.0566 -10.0781 L 23.3398 -11.2207 C 23.4863 -11.7871 23.3398 -12.2559 22.7148 -12.8613 L 20.3027 -15.2539 C 16.7578 -18.7793 12.2266 -18.6719 9.11133 -15.5371 C 8.69141 -15.1074 8.64258 -14.5215 8.91602 -14.0918 C 9.15039 -13.7207 9.62891 -13.4961 10.2734 -13.6621 C 11.7871 -14.043 13.3008 -13.9258 14.7852 -12.9199 L 14.1602 -11.3379 C 13.9258 -10.752 13.9453 -10.2734 14.1797 -9.83398 L 3.01758 0.439453 C 2.08008 1.30859 1.97266 2.25586 2.83203 3.11523 Z M 10.6738 -15.1465 C 13.3398 -17.1387 16.6504 -16.8262 19.0527 -14.4141 L 21.6797 -11.8066 C 21.9141 -11.5723 21.9434 -11.3867 21.8848 -11.0938 L 21.5039 -9.53125 L 23.0762 -7.95898 L 24.043 -8.04688 C 24.3262 -8.07617 24.4141 -8.05664 24.6387 -7.83203 L 25.2637 -7.20703 L 22.5098 -4.46289 L 21.8848 -5.07812 C 21.6602 -5.30273 21.6406 -5.40039 21.6699 -5.68359 L 21.7578 -6.64062 L 20.1953 -8.20312 L 18.5742 -7.89062 C 18.291 -7.83203 18.1445 -7.83203 17.9102 -8.07617 L 15.7324 -10.2539 C 15.5078 -10.4883 15.4785 -10.625 15.6055 -10.9473 L 16.5527 -13.2227 C 14.9512 -14.7559 12.8418 -15.6055 10.8008 -14.9512 C 10.7129 -14.9219 10.6445 -14.9414 10.6152 -14.9805 C 10.5859 -15.0293 10.5859 -15.0781 10.6738 -15.1465 Z M 4.10156 2.41211 C 3.61328 1.91406 3.78906 1.61133 4.12109 1.30859 L 15.0781 -8.80859 L 16.3086 -7.57812 L 6.15234 3.34961 C 5.84961 3.68164 5.46875 3.7793 5.06836 3.37891 Z"/>
  </g>
  <text style="stroke:none;fill:black;font-family:-apple-system,&quot;SF Pro Display&quot;,&quot;SF Pro Text&quot;,Helvetica,sans-serif;font-weight:bold;" transform="matrix(1 0 0 1 1289 1953)">Exporting</text>
  <text style="stroke:none;fill:black;font-family:-apple-system,&quot;SF Pro Display&quot;,&quot;SF Pro Text&quot;,Helvetica,sans-serif;" transform="matrix(1 0 0 1 1289 1971)">Symbols should be outlined when exporting to ensure the</text>
  <text style="stroke:none;fill:black;font-family:-apple-system,&quot;SF Pro Display&quot;,&quot;SF Pro Text&quot;,Helvetica,sans-serif;" transform="matrix(1 0 0 1 1289 1989)">design is preserved when submitting to Xcode.</text>
  <text id="template-version" style="stroke:none;fill:black;font-family:-apple-system,&quot;SF Pro Display&quot;,&quot;SF Pro Text&quot;,Helvetica,sans-serif;text-anchor:end;" transform="matrix(1 0 0 1 3036 1933)">Template v.1.0</text>
  <text style="stroke:none;fill:black;font-family:-apple-system,&quot;SF Pro Display&quot;,&quot;SF Pro Text&quot;,Helvetica,sans-serif;text-anchor:end;" transform="matrix(1 0 0 1 3036 1951)">Generated from arrow.up</text>
  <text style="stroke:none;fill:black;font-family:-apple-system,&quot;SF Pro Display&quot;,&quot;SF Pro Text&quot;,Helvetica,sans-serif;text-anchor:end;" transform="matrix(1 0 0 1 3036 1969)">Typeset at 100 points</text>
  <text style="stroke:none;fill:black;font-family:-apple-system,&quot;SF Pro Display&quot;,&quot;SF Pro Text&quot;,Helvetica,sans-serif;" transform="matrix(1 0 0 1 263 726)">Small</text>
  <text style="stroke:none;fill:black;font-family:-apple-system,&quot;SF Pro Display&quot;,&quot;SF Pro Text&quot;,Helvetica,sans-serif;" transform="matrix(1 0 0 1 263 1156)">Medium</text>
  <text style="stroke:none;fill:black;font-family:-apple-system,&quot;SF Pro Display&quot;,&quot;SF Pro Text&quot;,Helvetica,sans-serif;" transform="matrix(1 0 0 1 263 1586)">Large</text>
 </g>
 <g id="Guides">
  <g id="H-reference" style="fill:#27AAE1;stroke:none;" transform="matrix(1 0 0 1 339 696)">
   <path d="M 54.9316 0 L 57.666 0 L 30.5664 -70.459 L 28.0762 -70.459 L 0.976562 0 L 3.66211 0 L 12.9395 -24.4629 L 45.7031 -24.4629 Z M 29.1992 -67.0898 L 29.4434 -67.0898 L 44.8242 -26.709 L 13.8184 -26.709 Z"/>
  </g>
  <line id="Baseline-S" style="fill:none;stroke:#27AAE1;opacity:1;stroke-width:0.577;" x1="263" x2="3036" y1="696" y2="696"/>
  <line id="Capline-S" style="fill:none;stroke:#27AAE1;opacity:1;stroke-width:0.577;" x1="263" x2="3036" y1="625.541" y2="625.541"/>
  <g id="H-reference" style="fill:#27AAE1;stroke:none;" transform="matrix(1 0 0 1 339 1126)">
   <path d="M 54.9316 0 L 57.666 0 L 30.5664 -70.459 L 28.0762 -70.459 L 0.976562 0 L 3.66211 0 L 12.9395 -24.4629 L 45.7031 -24.4629 Z M 29.1992 -67.0898 L 29.4434 -67.0898 L 44.8242 -26.709 L 13.8184 -26.709 Z"/>
  </g>
  <line id="Baseline-M" style="fill:none;stroke:#27AAE1;opacity:1;stroke-width:0.577;" x1="263" x2="3036" y1="1126" y2="1126"/>
  <line id="Capline-M" style="fill:none;stroke:#27AAE1;opacity:1;stroke-width:0.577;" x1="263" x2="3036" y1="1055.54" y2="1055.54"/>
  <g id="H-reference" style="fill:#27AAE1;stroke:none;" transform="matrix(1 0 0 1 339 1556)">
   <path d="M 54.9316 0 L 57.666 0 L 30.5664 -70.459 L 28.0762 -70.459 L 0.976562 0 L 3.66211 0 L 12.9395 -24.4629 L 45.7031 -24.4629 Z M 29.1992 -67.0898 L 29.4434 -67.0898 L 44.8242 -26.709 L 13.8184 -26.709 Z"/>
  </g>
  <line id="Baseline-L" style="fill:none;stroke:#27AAE1;opacity:1;stroke-width:0.577;" x1="263" x2="3036" y1="1556" y2="1556"/>
  <line id="Capline-L" style="fill:none;stroke:#27AAE1;opacity:1;stroke-width:0.577;" x1="263" x2="3036" y1="1485.54" y2="1485.54"/>
  <rect height="119.336" id="left-margin" style="fill:#00AEEF;stroke:none;opacity:0.4;" width="12.4512" x="1400.38" y="1030.79"/>
  <rect height="119.336" id="right-margin" style="fill:#00AEEF;stroke:none;opacity:0.4;" width="12.4512" x="1486.86" y="1030.79"/>
 </g>
 <g id="Symbols">
  <g id="Black-L" transform="matrix(1 0 0 1 2864.99 1556)">
   <path d="M 68.4082 25.6348 C 75.2441 25.6348 79.834 20.8984 79.834 13.6719 L 79.834 -47.8027 L 79.1992 -61.377 L 88.5254 -50.1953 L 101.807 -36.8652 C 103.906 -34.7168 106.494 -33.1543 110.01 -33.1543 C 116.113 -33.1543 120.752 -37.6465 120.752 -44.1406 C 120.752 -47.1191 119.531 -49.9512 117.236 -52.2949 L 76.8066 -92.7734 C 74.7559 -94.8242 71.4844 -96.0938 68.4082 -96.0938 C 65.332 -96.0938 62.0117 -94.8242 60.0098 -92.7734 L 19.6289 -52.2949 C 17.2852 -49.9512 16.0645 -47.1191 16.0645 -44.1406 C 16.0645 -37.6465 20.7031 -33.1543 26.8555 -33.1543 C 30.3711 -33.1543 32.959 -34.7168 35.0098 -36.8652 L 48.2422 -50.1953 L 57.5684 -61.377 L 56.9824 -47.8027 L 56.9824 13.6719 C 56.9824 20.8984 61.5234 25.6348 68.4082 25.6348 Z"/>
  </g>
  <g id="Heavy-L" transform="matrix(1 0 0 1 2569.48 1556)">
   <path d="M 67.1875 25.2441 C 73.0957 25.2441 77.0508 21.1426 77.0508 14.9902 L 77.0508 -52.2461 L 76.4648 -65.918 L 87.7441 -52.7344 L 102.002 -38.5254 C 103.809 -36.6699 106.055 -35.3516 109.033 -35.3516 C 114.355 -35.3516 118.359 -39.2578 118.359 -44.8242 C 118.359 -47.4121 117.334 -49.8535 115.332 -51.9043 L 74.4629 -92.8223 C 72.6562 -94.6289 69.873 -95.7031 67.1875 -95.7031 C 64.5508 -95.7031 61.7188 -94.6289 59.9609 -92.8223 L 19.1406 -51.9043 C 17.0898 -49.8535 16.0645 -47.4121 16.0645 -44.8242 C 16.0645 -39.2578 20.0684 -35.3516 25.3906 -35.3516 C 28.3691 -35.3516 30.6641 -36.6699 32.4219 -38.5254 L 46.6309 -52.7344 L 57.9102 -65.918 L 57.3242 -52.2461 L 57.3242 14.9902 C 57.3242 21.1426 61.2793 25.2441 67.1875 25.2441 Z"/>
  </g>
  <g id="Bold-L" transform="matrix(1 0 0 1 2274.11 1556)">
   <path d="M 65.8691 24.8047 C 70.6543 24.8047 73.9258 21.4355 73.9258 16.4551 L 73.9258 -57.1777 L 73.3887 -70.8984 L 86.9141 -55.5664 L 102.197 -40.332 C 103.662 -38.8184 105.615 -37.8418 108.008 -37.8418 C 112.354 -37.8418 115.674 -41.0645 115.674 -45.6543 C 115.674 -47.7539 114.844 -49.7559 113.184 -51.4648 L 71.8262 -92.8223 C 70.3125 -94.3848 68.0664 -95.2637 65.8691 -95.2637 C 63.6719 -95.2637 61.4258 -94.3848 59.9121 -92.8223 L 18.5547 -51.4648 C 16.8945 -49.7559 16.0645 -47.7539 16.0645 -45.6543 C 16.0645 -41.0645 19.3848 -37.8418 23.7305 -37.8418 C 26.123 -37.8418 28.0762 -38.8184 29.541 -40.332 L 44.8242 -55.5664 L 58.3008 -70.8984 L 57.7637 -57.1777 L 57.7637 16.4551 C 57.7637 21.4355 61.0352 24.8047 65.8691 24.8047 Z"/>
  </g>
  <g id="Semibold-L" transform="matrix(1 0 0 1 1978.33 1556)">
   <path d="M 64.9414 24.5117 C 68.9941 24.5117 71.8262 21.6797 71.8262 17.4805 L 71.8262 -60.5957 L 71.2891 -74.2676 L 86.3281 -57.4707 L 102.344 -41.6016 C 103.613 -40.332 105.273 -39.502 107.275 -39.502 C 111.035 -39.502 113.818 -42.334 113.818 -46.1914 C 113.818 -47.998 113.135 -49.6582 111.719 -51.123 L 70.0195 -92.8223 C 68.7012 -94.1895 66.7969 -94.9707 64.9414 -94.9707 C 63.0371 -94.9707 61.1816 -94.1895 59.8633 -92.8223 L 18.2129 -51.123 C 16.748 -49.6582 16.0645 -47.998 16.0645 -46.1914 C 16.0645 -42.334 18.8965 -39.502 22.6074 -39.502 C 24.6094 -39.502 26.3184 -40.332 27.5391 -41.6016 L 43.5547 -57.4707 L 58.5938 -74.2676 L 58.0566 -60.5957 L 58.0566 17.4805 C 58.0566 21.6797 60.8887 24.5117 64.9414 24.5117 Z"/>
  </g>
  <g id="Medium-L" transform="matrix(1 0 0 1 1682.3 1556)">
   <path d="M 64.2578 24.2676 C 67.7246 24.2676 70.166 21.8262 70.166 18.2617 L 70.166 -63.1836 L 69.7266 -76.7578 L 85.8887 -58.9844 L 102.49 -42.5293 C 103.516 -41.4551 105.029 -40.8203 106.738 -40.8203 C 109.961 -40.8203 112.451 -43.2617 112.451 -46.582 C 112.451 -48.1934 111.816 -49.6094 110.596 -50.9277 L 68.6523 -92.8223 C 67.4805 -94.043 65.8691 -94.7266 64.2578 -94.7266 C 62.5977 -94.7266 61.0352 -94.043 59.8145 -92.8223 L 17.9199 -50.9277 C 16.6504 -49.6094 16.0645 -48.1934 16.0645 -46.582 C 16.0645 -43.2617 18.5059 -40.8203 21.7773 -40.8203 C 23.4375 -40.8203 24.9512 -41.4551 26.0254 -42.5293 L 42.627 -58.9844 L 58.7891 -76.8066 L 58.3008 -63.1836 L 58.3008 18.2617 C 58.3008 21.8262 60.7422 24.2676 64.2578 24.2676 Z"/>
  </g>
  <g id="Regular-L" transform="matrix(1 0 0 1 1386.51 1556)">
   <path d="M 63.3301 23.9746 C 66.1133 23.9746 68.0664 22.0215 68.0664 19.2871 L 68.0664 -66.6016 L 67.627 -80.0293 L 85.3027 -60.8887 L 102.637 -43.75 C 103.467 -42.9199 104.736 -42.4805 106.006 -42.4805 C 108.643 -42.4805 110.596 -44.4824 110.596 -47.168 C 110.596 -48.4375 110.156 -49.5117 109.131 -50.5859 L 66.8945 -92.8223 C 65.8691 -93.8965 64.6484 -94.4336 63.3301 -94.4336 C 62.0117 -94.4336 60.791 -93.8965 59.7656 -92.8223 L 17.5293 -50.5859 C 16.5039 -49.5117 16.0645 -48.4375 16.0645 -47.168 C 16.0645 -44.4824 18.0176 -42.4805 20.6543 -42.4805 C 21.9238 -42.4805 23.1934 -42.9199 24.0234 -43.75 L 41.3574 -60.8887 L 59.0332 -80.0781 L 58.5938 -66.6016 L 58.5938 19.2871 C 58.5938 22.0215 60.5469 23.9746 63.3301 23.9746 Z"/>
  </g>
  <g id="Light-L" transform="matrix(1 0 0 1 1090.49 1556)">
   <path d="M 62.6465 23.5352 C 64.6973 23.5352 66.1621 22.0215 66.1621 20.0195 L 66.1621 -69.7754 L 65.8691 -83.2031 L 81.8359 -66.2109 L 103.223 -44.9707 C 103.809 -44.3359 104.785 -43.9941 105.762 -43.9941 C 107.715 -43.9941 109.229 -45.5078 109.229 -47.5098 C 109.229 -48.4863 108.887 -49.3164 108.105 -50.0977 L 65.2832 -92.8223 C 64.5508 -93.6035 63.6719 -93.9941 62.6465 -93.9941 C 61.6211 -93.9941 60.7422 -93.6035 60.0098 -92.8223 L 17.1875 -50.0977 C 16.4062 -49.3164 16.0645 -48.4863 16.0645 -47.5098 C 16.0645 -45.5078 17.5781 -43.9941 19.5312 -43.9941 C 20.5078 -43.9941 21.4844 -44.3359 22.0703 -44.9707 L 43.457 -66.2109 L 59.4238 -83.252 L 59.1309 -69.7754 L 59.1309 20.0195 C 59.1309 22.0215 60.5957 23.5352 62.6465 23.5352 Z"/>
  </g>
  <g id="Thin-L" transform="matrix(1 0 0 1 794.679 1556)">
   <path d="M 61.7188 22.9492 C 62.8906 22.9492 63.6719 22.0703 63.6719 20.9961 L 63.6719 -73.9746 L 63.4766 -87.3535 L 77.2461 -73.2422 L 104.004 -46.5332 C 104.297 -46.1914 104.883 -45.9961 105.469 -45.9961 C 106.543 -45.9961 107.422 -46.8262 107.422 -47.998 C 107.422 -48.584 107.227 -49.0234 106.787 -49.4141 L 63.1836 -92.7734 C 62.793 -93.2129 62.3535 -93.4082 61.7188 -93.4082 C 61.1328 -93.4082 60.6934 -93.2129 60.3027 -92.7734 L 16.6992 -49.4141 C 16.2598 -49.0234 16.0645 -48.584 16.0645 -47.998 C 16.0645 -46.8262 16.9434 -45.9961 18.0176 -45.9961 C 18.6035 -45.9961 19.1895 -46.1914 19.4824 -46.5332 L 46.1914 -73.2422 L 60.0098 -87.3535 L 59.8145 -73.9746 L 59.8145 20.9961 C 59.8145 22.0703 60.5957 22.9492 61.7188 22.9492 Z"/>
  </g>
  <g id="Ultralight-L" transform="matrix(1 0 0 1 498.432 1556)">
   <path d="M 61.2793 22.6562 C 61.9141 22.6562 62.4023 22.0703 62.4023 21.4844 L 62.4023 -76.123 L 62.3047 -89.4043 L 74.9512 -76.8066 L 104.395 -47.3145 C 104.59 -47.168 104.932 -47.0215 105.322 -47.0215 C 105.908 -47.0215 106.494 -47.5098 106.494 -48.2422 C 106.494 -48.6328 106.348 -48.877 106.152 -49.1211 L 62.1094 -92.7734 C 61.8652 -93.0176 61.6699 -93.1152 61.2793 -93.1152 C 60.8887 -93.1152 60.6934 -93.0176 60.4492 -92.7734 L 16.4062 -49.1211 C 16.2109 -48.877 16.0645 -48.6328 16.0645 -48.2422 C 16.0645 -47.5098 16.6504 -47.0215 17.2363 -47.0215 C 17.627 -47.0215 17.9688 -47.168 18.1641 -47.3145 L 47.6074 -76.8066 L 60.2539 -89.4043 L 60.1562 -76.123 L 60.1562 21.4844 C 60.1562 22.0703 60.6445 22.6562 61.2793 22.6562 Z"/>
  </g>
  <g id="Black-M" transform="matrix(1 0 0 1 2879.13 1126)">
   <path d="M 54.248 12.2559 C 60.498 12.2559 64.5996 7.91016 64.5996 1.26953 L 64.5996 -40.7227 L 64.1113 -50.9277 L 67.7734 -46.2402 L 78.9551 -34.9609 C 80.8594 -33.0078 83.1055 -31.4453 86.377 -31.4453 C 91.8945 -31.4453 96.0938 -35.4492 96.0938 -41.3574 C 96.0938 -44.0918 94.9707 -46.6797 92.8711 -48.7305 L 61.8164 -79.834 C 60.0586 -81.5918 57.0312 -82.7148 54.248 -82.7148 C 51.4648 -82.7148 48.4375 -81.5918 46.6797 -79.834 L 15.6738 -48.7305 C 13.5742 -46.6797 12.4512 -44.0918 12.4512 -41.3574 C 12.4512 -35.4492 16.6992 -31.4453 22.168 -31.4453 C 25.4395 -31.4453 27.7344 -33.0078 29.5898 -34.9609 L 40.7227 -46.2402 L 44.3848 -50.9277 L 43.8965 -40.7227 L 43.8965 1.26953 C 43.8965 7.91016 47.998 12.2559 54.248 12.2559 Z"/>
  </g>
  <g id="Heavy-M" transform="matrix(1 0 0 1 2583.54 1126)">
   <path d="M 53.125 11.9141 C 58.4961 11.9141 62.0605 8.20312 62.0605 2.53906 L 62.0605 -44.7266 L 61.5723 -55.2246 L 67.8711 -47.6074 L 79.0039 -36.4258 C 80.6641 -34.7168 82.666 -33.4961 85.4492 -33.4961 C 90.1855 -33.4961 93.8477 -36.9629 93.8477 -42.041 C 93.8477 -44.3848 92.8711 -46.6309 91.0645 -48.4375 L 59.668 -79.834 C 58.1055 -81.3965 55.5176 -82.373 53.125 -82.373 C 50.7324 -82.373 48.1445 -81.3965 46.582 -79.834 L 15.2344 -48.4375 C 13.4277 -46.6309 12.4512 -44.3848 12.4512 -42.041 C 12.4512 -36.9629 16.1133 -33.4961 20.8496 -33.4961 C 23.6328 -33.4961 25.6348 -34.7168 27.2949 -36.4258 L 38.3789 -47.6074 L 44.6777 -55.2246 L 44.1895 -44.7266 L 44.1895 2.53906 C 44.1895 8.20312 47.7539 11.9141 53.125 11.9141 Z"/>
  </g>
  <g id="Bold-M" transform="matrix(1 0 0 1 2288.1 1126)">
   <path d="M 51.8555 11.5723 C 56.25 11.5723 59.2285 8.49609 59.2285 3.95508 L 59.2285 -49.2188 L 58.7402 -59.8145 L 67.9199 -49.1699 L 79.0527 -38.0371 C 80.4199 -36.7188 82.1289 -35.7422 84.3262 -35.7422 C 88.2812 -35.7422 91.3086 -38.623 91.3086 -42.8223 C 91.3086 -44.7266 90.5273 -46.5332 89.0137 -48.0957 L 57.2754 -79.834 C 55.9082 -81.2012 53.8574 -82.0312 51.8555 -82.0312 C 49.8535 -82.0312 47.8027 -81.2012 46.4355 -79.834 L 14.7461 -48.0957 C 13.2324 -46.5332 12.4512 -44.7266 12.4512 -42.8223 C 12.4512 -38.623 15.4785 -35.7422 19.4336 -35.7422 C 21.6309 -35.7422 23.3398 -36.7188 24.6582 -38.0371 L 35.791 -49.1699 L 44.9707 -59.8145 L 44.5312 -49.2188 L 44.5312 3.95508 C 44.5312 8.49609 47.4609 11.5723 51.8555 11.5723 Z"/>
  </g>
  <g id="Semibold-M" transform="matrix(1 0 0 1 1992.27 1126)">
   <path d="M 50.9766 11.3281 C 54.6875 11.3281 57.2266 8.74023 57.2266 4.88281 L 57.2266 -52.2949 L 56.8359 -62.8906 L 67.9688 -50.2441 L 79.1016 -39.209 C 80.2246 -38.0371 81.7383 -37.2559 83.5938 -37.2559 C 87.0117 -37.2559 89.5508 -39.7949 89.5508 -43.3594 C 89.5508 -44.9707 88.916 -46.5332 87.5977 -47.8516 L 55.6152 -79.834 C 54.4434 -81.1035 52.6855 -81.7871 50.9766 -81.7871 C 49.2676 -81.7871 47.5586 -81.1035 46.3379 -79.834 L 14.4043 -47.8516 C 13.0859 -46.5332 12.4512 -44.9707 12.4512 -43.3594 C 12.4512 -39.7949 14.9902 -37.2559 18.4082 -37.2559 C 20.2637 -37.2559 21.7285 -38.0371 22.9004 -39.209 L 33.9844 -50.2441 L 45.166 -62.8906 L 44.7266 -52.2949 L 44.7266 4.88281 C 44.7266 8.74023 47.2656 11.3281 50.9766 11.3281 Z"/>
  </g>
  <g id="Medium-M" transform="matrix(1 0 0 1 1696.21 1126)">
   <path d="M 50.3418 11.1328 C 53.5156 11.1328 55.7617 8.88672 55.7617 5.66406 L 55.7617 -54.6387 L 55.3711 -65.1855 L 68.0176 -51.0742 L 79.1504 -40.0391 C 80.127 -39.0625 81.4941 -38.4277 83.0078 -38.4277 C 85.9863 -38.4277 88.2324 -40.6738 88.2324 -43.75 C 88.2324 -45.166 87.6953 -46.4844 86.5234 -47.6562 L 54.3457 -79.8828 C 53.2715 -81.0059 51.8066 -81.5918 50.3418 -81.5918 C 48.8281 -81.5918 47.3633 -81.0059 46.2891 -79.8828 L 14.1602 -47.6562 C 12.9883 -46.4844 12.4512 -45.166 12.4512 -43.75 C 12.4512 -40.6738 14.6484 -38.4277 17.627 -38.4277 C 19.1895 -38.4277 20.5566 -39.0625 21.5332 -40.0391 L 32.6172 -51.0742 L 45.3125 -65.2344 L 44.873 -54.6387 L 44.873 5.66406 C 44.873 8.88672 47.1191 11.1328 50.3418 11.1328 Z"/>
  </g>
  <g id="Regular-M" transform="matrix(1 0 0 1 1400.38 1126)">
   <path d="M 49.4629 10.8887 C 52.002 10.8887 53.8086 9.13086 53.8086 6.5918 L 53.8086 -57.7148 L 53.4668 -68.1152 L 68.0664 -52.0996 L 79.1992 -41.1621 C 79.9805 -40.3809 81.1035 -39.9902 82.2754 -39.9902 C 84.7168 -39.9902 86.4746 -41.8457 86.4746 -44.2383 C 86.4746 -45.4102 86.084 -46.4355 85.1562 -47.4121 L 52.7344 -79.8828 C 51.8066 -80.8594 50.6836 -81.3477 49.4629 -81.3477 C 48.2422 -81.3477 47.1191 -80.8594 46.1914 -79.8828 L 13.8184 -47.4121 C 12.8906 -46.4355 12.4512 -45.4102 12.4512 -44.2383 C 12.4512 -41.8457 14.209 -39.9902 16.6504 -39.9902 C 17.8223 -39.9902 18.9941 -40.3809 19.7266 -41.1621 L 30.8594 -52.0996 L 45.5078 -68.1641 L 45.1172 -57.7148 L 45.1172 6.5918 C 45.1172 9.13086 46.9238 10.8887 49.4629 10.8887 Z"/>
  </g>
  <g id="Light-M" transform="matrix(1 0 0 1 1104.28 1126)">
   <path d="M 48.877 10.498 C 50.7812 10.498 52.1484 9.13086 52.1484 7.27539 L 52.1484 -60.5469 L 51.8555 -70.9961 L 64.9902 -56.8848 L 79.7363 -42.2363 C 80.3223 -41.6504 81.2012 -41.3574 82.0801 -41.3574 C 83.8867 -41.3574 85.2539 -42.7246 85.2539 -44.5801 C 85.2539 -45.459 84.9609 -46.2402 84.2285 -46.9727 L 51.3184 -79.834 C 50.5859 -80.5664 49.7559 -80.957 48.877 -80.957 C 47.9492 -80.957 47.1191 -80.5664 46.3867 -79.834 L 13.4766 -46.9727 C 12.793 -46.2402 12.4512 -45.459 12.4512 -44.5801 C 12.4512 -42.7246 13.8184 -41.3574 15.625 -41.3574 C 16.5039 -41.3574 17.4316 -41.6504 17.9688 -42.2363 L 32.7637 -56.8848 L 45.8984 -71.0449 L 45.5566 -60.5469 L 45.5566 7.27539 C 45.5566 9.13086 46.9238 10.498 48.877 10.498 Z"/>
  </g>
  <g id="Thin-M" transform="matrix(1 0 0 1 808.375 1126)">
   <path d="M 48.0469 9.96094 C 49.1211 9.96094 49.9023 9.17969 49.9023 8.1543 L 49.9023 -64.3555 L 49.707 -74.7559 L 60.8887 -63.1348 L 80.4199 -43.6523 C 80.7617 -43.3105 81.2988 -43.1641 81.8359 -43.1641 C 82.8125 -43.1641 83.6426 -43.9453 83.6426 -45.0195 C 83.6426 -45.5566 83.4473 -45.9961 83.0566 -46.3867 L 49.4141 -79.834 C 49.0234 -80.2246 48.584 -80.4199 48.0469 -80.4199 C 47.5098 -80.4199 47.0703 -80.2246 46.6797 -79.834 L 13.0371 -46.3867 C 12.6465 -45.9961 12.4512 -45.5566 12.4512 -45.0195 C 12.4512 -43.9453 13.2812 -43.1641 14.2578 -43.1641 C 14.7949 -43.1641 15.332 -43.3105 15.6738 -43.6523 L 35.2051 -63.1348 L 46.3867 -74.7559 L 46.1914 -64.3555 L 46.1914 8.1543 C 46.1914 9.17969 46.9727 9.96094 48.0469 9.96094 Z"/>
  </g>
  <g id="Ultralight-M" transform="matrix(1 0 0 1 512.079 1126)">
   <path d="M 47.6074 9.7168 C 48.291 9.7168 48.7793 9.17969 48.7793 8.59375 L 48.7793 -66.2598 L 48.6328 -76.6113 L 58.7891 -66.3574 L 80.8105 -44.3359 C 80.957 -44.1895 81.2988 -44.043 81.6895 -44.043 C 82.2754 -44.043 82.8125 -44.5312 82.8125 -45.2637 C 82.8125 -45.6055 82.7148 -45.8496 82.4707 -46.0938 L 48.4375 -79.834 C 48.2422 -80.0781 47.998 -80.1758 47.6074 -80.1758 C 47.2656 -80.1758 47.0215 -80.0781 46.8262 -79.834 L 12.793 -46.0938 C 12.5488 -45.8496 12.4512 -45.6055 12.4512 -45.2637 C 12.4512 -44.5312 12.9883 -44.043 13.5742 -44.043 C 13.916 -44.043 14.3066 -44.1895 14.4531 -44.3359 L 36.4746 -66.3574 L 46.6309 -76.6113 L 46.4844 -66.2598 L 46.4844 8.59375 C 46.4844 9.17969 46.9727 9.7168 47.6074 9.7168 Z"/>
  </g>
  <g id="Black-S" transform="matrix(1 0 0 1 2890.94 696)">
   <path d="M 42.4316 1.95312 C 47.2656 1.95312 50.4395 -1.41602 50.4395 -6.54297 L 50.4395 -39.7949 L 50.0488 -47.8516 L 53.1738 -43.8965 L 61.8652 -35.1074 C 63.3301 -33.5938 65.0879 -32.4219 67.627 -32.4219 C 71.875 -32.4219 75.1465 -35.498 75.1465 -40.0879 C 75.1465 -42.1875 74.2676 -44.1895 72.6562 -45.8008 L 48.291 -70.166 C 46.9238 -71.5332 44.5801 -72.4121 42.4316 -72.4121 C 40.2832 -72.4121 37.9395 -71.5332 36.5723 -70.166 L 12.2559 -45.8008 C 10.6445 -44.1895 9.76562 -42.1875 9.76562 -40.0879 C 9.76562 -35.498 13.0371 -32.4219 17.2852 -32.4219 C 19.8242 -32.4219 21.582 -33.5938 23.0469 -35.1074 L 31.6895 -43.8965 L 34.8145 -47.8516 L 34.4238 -39.7949 L 34.4238 -6.54297 C 34.4238 -1.41602 37.5977 1.95312 42.4316 1.95312 Z"/>
  </g>
  <g id="Heavy-S" transform="matrix(1 0 0 1 2595.04 696)">
   <path d="M 41.6504 1.75781 C 45.8496 1.75781 48.6816 -1.2207 48.6816 -5.66406 L 48.6816 -42.5293 L 48.291 -50.7812 L 53.5645 -44.4336 L 61.8652 -36.1328 C 63.1348 -34.8145 64.6973 -33.7891 66.8945 -33.7891 C 70.6543 -33.7891 73.5352 -36.5723 73.5352 -40.5762 C 73.5352 -42.4316 72.8027 -44.1895 71.3379 -45.6055 L 46.8262 -70.166 C 45.5566 -71.4355 43.5547 -72.2168 41.6504 -72.2168 C 39.7461 -72.2168 37.6953 -71.4355 36.4746 -70.166 L 11.9629 -45.6055 C 10.5469 -44.1895 9.76562 -42.4316 9.76562 -40.5762 C 9.76562 -36.5723 12.6465 -33.7891 16.4062 -33.7891 C 18.6035 -33.7891 20.166 -34.8145 21.4844 -36.1328 L 29.6875 -44.4336 L 34.9609 -50.7812 L 34.5703 -42.5293 L 34.5703 -5.66406 C 34.5703 -1.2207 37.4023 1.75781 41.6504 1.75781 Z"/>
  </g>
  <g id="Bold-S" transform="matrix(1 0 0 1 2299.21 696)">
   <path d="M 40.7715 1.51367 C 44.3359 1.51367 46.7285 -0.927734 46.7285 -4.63867 L 46.7285 -45.6543 L 46.3379 -53.9062 L 54.0039 -45.0195 L 61.8164 -37.2559 C 62.9395 -36.1328 64.3066 -35.3516 66.1133 -35.3516 C 69.3359 -35.3516 71.7773 -37.7441 71.7773 -41.1133 C 71.7773 -42.6758 71.1426 -44.1406 69.9219 -45.4102 L 45.166 -70.166 C 44.043 -71.3379 42.3828 -71.9727 40.7715 -71.9727 C 39.1113 -71.9727 37.4512 -71.3379 36.3281 -70.166 L 11.6211 -45.4102 C 10.4004 -44.1406 9.76562 -42.6758 9.76562 -41.1133 C 9.76562 -37.7441 12.207 -35.3516 15.4297 -35.3516 C 17.1875 -35.3516 18.6035 -36.1328 19.6777 -37.2559 L 27.4902 -45.0195 L 35.1562 -53.9062 L 34.7656 -45.6543 L 34.7656 -4.63867 C 34.7656 -0.927734 37.207 1.51367 40.7715 1.51367 Z"/>
  </g>
  <g id="Semibold-S" transform="matrix(1 0 0 1 2003.13 696)">
   <path d="M 40.1367 1.36719 C 43.2617 1.36719 45.3613 -0.78125 45.3613 -3.95508 L 45.3613 -47.7539 L 45.0195 -56.0059 L 54.2969 -45.4102 L 61.8164 -38.0371 C 62.7441 -37.0605 64.0137 -36.4258 65.5273 -36.4258 C 68.4082 -36.4258 70.5078 -38.5742 70.5078 -41.5039 C 70.5078 -42.8711 69.9707 -44.1406 68.8965 -45.2637 L 43.9941 -70.2148 C 43.0176 -71.2402 41.5527 -71.8262 40.1367 -71.8262 C 38.7207 -71.8262 37.2559 -71.2402 36.2793 -70.2148 L 11.377 -45.2637 C 10.3027 -44.1406 9.76562 -42.8711 9.76562 -41.5039 C 9.76562 -38.5742 11.9141 -36.4258 14.7461 -36.4258 C 16.2598 -36.4258 17.5293 -37.0605 18.457 -38.0371 L 25.9766 -45.4102 L 35.2539 -56.0547 L 34.9121 -47.7539 L 34.9121 -3.95508 C 34.9121 -0.78125 37.0117 1.36719 40.1367 1.36719 Z"/>
  </g>
  <g id="Medium-S" transform="matrix(1 0 0 1 1706.88 696)">
   <path d="M 39.6484 1.26953 C 42.4316 1.26953 44.3359 -0.634766 44.3359 -3.4668 L 44.3359 -49.3652 L 43.9941 -57.5684 L 54.541 -45.752 L 61.8164 -38.623 C 62.6465 -37.7441 63.8184 -37.2559 65.1367 -37.2559 C 67.6758 -37.2559 69.5801 -39.1602 69.5801 -41.748 C 69.5801 -43.0176 69.1406 -44.1406 68.1152 -45.166 L 43.1641 -70.2148 C 42.1875 -71.1914 40.9668 -71.7285 39.6484 -71.7285 C 38.3789 -71.7285 37.1582 -71.1914 36.1816 -70.2148 L 11.2305 -45.166 C 10.2539 -44.1406 9.76562 -43.0176 9.76562 -41.748 C 9.76562 -39.1602 11.6699 -37.2559 14.209 -37.2559 C 15.5273 -37.2559 16.6992 -37.7441 17.5293 -38.623 L 24.8047 -45.752 L 35.3516 -57.6172 L 35.0098 -49.3652 L 35.0098 -3.4668 C 35.0098 -0.634766 36.9141 1.26953 39.6484 1.26953 Z"/>
  </g>
  <g id="Regular-S" transform="matrix(1 0 0 1 1410.78 696)">
   <path d="M 39.0625 1.12305 C 41.3574 1.12305 43.0176 -0.488281 43.0176 -2.7832 L 43.0176 -51.4648 L 42.6758 -59.6191 L 54.834 -46.1426 L 61.8164 -39.3555 C 62.5 -38.6719 63.5254 -38.2812 64.5508 -38.2812 C 66.748 -38.2812 68.3594 -39.9902 68.3594 -42.1387 C 68.3594 -43.1641 67.9688 -44.0918 67.1387 -45.0195 L 41.9922 -70.2148 C 41.1621 -71.0938 40.1367 -71.582 39.0625 -71.582 C 37.9883 -71.582 36.9629 -71.0938 36.1328 -70.2148 L 10.9863 -45.0195 C 10.1562 -44.0918 9.76562 -43.1641 9.76562 -42.1387 C 9.76562 -39.9902 11.377 -38.2812 13.5742 -38.2812 C 14.5996 -38.2812 15.625 -38.6719 16.3086 -39.3555 L 23.291 -46.1426 L 35.4492 -59.6191 L 35.1074 -51.4648 L 35.1074 -2.7832 C 35.1074 -0.488281 36.7676 1.12305 39.0625 1.12305 Z"/>
  </g>
  <g id="Light-S" transform="matrix(1 0 0 1 1114.61 696)">
   <path d="M 38.5254 0.78125 C 40.2832 0.78125 41.5039 -0.488281 41.5039 -2.19727 L 41.5039 -54.0039 L 41.2598 -62.1582 L 52.0996 -50.3418 L 62.2559 -40.332 C 62.793 -39.7949 63.5742 -39.502 64.4043 -39.502 C 66.0645 -39.502 67.2852 -40.7715 67.2852 -42.4316 C 67.2852 -43.2129 66.9922 -43.9453 66.3574 -44.5801 L 40.7715 -70.2148 C 40.1367 -70.8496 39.3555 -71.2402 38.5254 -71.2402 C 37.6953 -71.2402 36.9141 -70.8496 36.2793 -70.2148 L 10.6934 -44.5801 C 10.0586 -43.9453 9.76562 -43.2129 9.76562 -42.4316 C 9.76562 -40.7715 10.9863 -39.502 12.6465 -39.502 C 13.4277 -39.502 14.2578 -39.7949 14.7949 -40.332 L 24.9512 -50.3418 L 35.791 -62.207 L 35.5469 -54.0039 L 35.5469 -2.19727 C 35.5469 -0.488281 36.7676 0.78125 38.5254 0.78125 Z"/>
  </g>
  <g id="Thin-S" transform="matrix(1 0 0 1 818.605 696)">
   <path d="M 37.793 0.292969 C 38.8184 0.292969 39.5508 -0.439453 39.5508 -1.41602 L 39.5508 -57.3242 L 39.3555 -65.4785 L 48.4863 -55.9082 L 62.8906 -41.5527 C 63.1836 -41.2598 63.6719 -41.0645 64.1602 -41.0645 C 65.0879 -41.0645 65.8691 -41.7969 65.8691 -42.8223 C 65.8691 -43.3105 65.6738 -43.7012 65.332 -44.0918 L 39.1113 -70.166 C 38.7207 -70.5566 38.3301 -70.752 37.793 -70.752 C 37.3047 -70.752 36.9141 -70.5566 36.5234 -70.166 L 10.3027 -44.0918 C 9.96094 -43.7012 9.76562 -43.3105 9.76562 -42.8223 C 9.76562 -41.7969 10.498 -41.0645 11.4746 -41.0645 C 11.9629 -41.0645 12.4512 -41.2598 12.7441 -41.5527 L 27.1484 -55.9082 L 36.2305 -65.4785 L 36.084 -57.3242 L 36.084 -1.41602 C 36.084 -0.439453 36.8164 0.292969 37.793 0.292969 Z"/>
  </g>
  <g id="Ultralight-S" transform="matrix(1 0 0 1 522.284 696)">
   <path d="M 37.4512 0.0488281 C 38.0859 0.0488281 38.5254 -0.439453 38.5254 -1.02539 L 38.5254 -59.0332 L 38.4277 -67.1387 L 46.6309 -58.7891 L 63.2324 -42.1875 C 63.3789 -41.9922 63.7207 -41.8945 64.0625 -41.8945 C 64.5996 -41.8945 65.0879 -42.334 65.0879 -43.0176 C 65.0879 -43.3594 64.9902 -43.6035 64.7949 -43.7988 L 38.2324 -70.166 C 37.9883 -70.4102 37.793 -70.5078 37.4512 -70.5078 C 37.1094 -70.5078 36.8652 -70.4102 36.6211 -70.166 L 10.1074 -43.7988 C 9.86328 -43.6035 9.76562 -43.3594 9.76562 -43.0176 C 9.76562 -42.334 10.2539 -41.8945 10.8398 -41.8945 C 11.1816 -41.8945 11.4746 -41.9922 11.6699 -42.1875 L 28.2715 -58.7891 L 36.4746 -67.1387 L 36.377 -59.0332 L 36.377 -1.02539 C 36.377 -0.439453 36.8164 0.0488281 37.4512 0.0488281 Z"/>
  </g>
 </g>
</svg>
