<svg width="24" height="24" viewBox="0 0 24 24" fill="none" xmlns="http://www.w3.org/2000/svg">
<path d="M15.1709 2C15.9664 2 16.7297 2.31661 17.292 2.87891L21.1191 6.70605L21.3193 6.92578C21.7579 7.45976 22 8.13194 22 8.82812V15.1709C22 15.9664 21.6834 16.7297 21.1211 17.292L16.707 21.707C16.5195 21.8946 16.2652 22 16 22H8.82812C8.03264 22 7.26935 21.6834 6.70703 21.1211L2.87891 17.293C2.31662 16.7307 2 15.9674 2 15.1719V8.82812C2 8.03264 2.31662 7.26935 2.87891 6.70703L6.70703 2.87891C7.26935 2.31662 8.03264 2 8.82812 2H15.1709ZM12 6.5C11.4477 6.5 11 6.94772 11 7.5V12.5C11 13.0523 11.4477 13.5 12 13.5C12.5523 13.5 13 13.0523 13 12.5V7.5C13 6.94772 12.5523 6.5 12 6.5ZM12.1064 15.0059L12.1016 15.0049L11.999 15C11.9624 15 11.9262 15.002 11.8906 15.0059C11.2542 15.0608 10.749 15.593 10.75 16.25L10.7568 16.3779C10.8209 17.0081 11.3529 17.5 12 17.5C12.6903 17.5 13.25 16.9403 13.25 16.25C13.25 15.5936 12.7452 15.0603 12.1064 15.0059Z" fill="#0F0F0F"/>
</svg>
