<svg width="16" height="16" viewBox="0 0 16 16" fill="none" xmlns="http://www.w3.org/2000/svg">
<path d="M9.89453 2C10.377 2.00003 10.8396 2.19223 11.1807 2.5332L13.4678 4.81934C13.8096 5.16044 14.0009 5.62319 14.001 6.10547V9.89453C14.0009 10.377 13.8088 10.8396 13.4678 11.1807L10.832 13.8184C10.7148 13.9356 10.5554 14.001 10.3896 14.001H6.10547C5.62316 14.0009 5.16028 13.8087 4.81934 13.4678L2.5332 11.1816C2.19226 10.8407 2.00013 10.3778 2 9.89551V6.10547C2.00013 5.62313 2.19226 5.16028 2.5332 4.81934L4.81934 2.5332C5.16028 2.19226 5.62313 2.00013 6.10547 2H9.89453ZM8 4.5C7.65524 4.50037 7.37516 4.78019 7.375 5.125V8.37207C7.37527 8.71679 7.6553 8.9967 8 8.99707C8.34501 8.99707 8.62473 8.71702 8.625 8.37207V5.125C8.62484 4.77996 8.34508 4.5 8 4.5ZM8.7793 10.7783C8.77901 10.3735 8.47125 10.0427 8.0791 10.0029L8 9.99902C7.57225 9.99916 7.22033 10.3459 7.2207 10.7783L7.22461 10.8584C7.26459 11.2512 7.59677 11.5574 8 11.5576C8.43035 11.5576 8.77927 11.2087 8.7793 10.7783Z" fill="#0F0F0F"/>
</svg>
