<svg width="20" height="20" viewBox="0 0 20 20" fill="none" xmlns="http://www.w3.org/2000/svg">
<path fill-rule="evenodd" clip-rule="evenodd" d="M9.99967 6.33333C12.0247 6.33333 13.6667 7.97528 13.6667 10.0003C13.6667 12.0254 12.0247 13.6673 9.99967 13.6673C7.97463 13.6673 6.33268 12.0254 6.33268 10.0003C6.33268 7.97528 7.97463 6.33333 9.99967 6.33333ZM9.99967 7.83399C8.80306 7.83399 7.83333 8.80371 7.83333 10.0003C7.83333 11.1969 8.80306 12.1667 9.99967 12.1667C11.1963 12.1667 12.166 11.1969 12.166 10.0003C12.166 8.80371 11.1963 7.83399 9.99967 7.83399Z" fill="#919191"/>
<path fill-rule="evenodd" clip-rule="evenodd" d="M11.6143 1.75C12.2675 1.75 12.8112 1.74913 13.259 1.79313C13.7231 1.83874 14.1428 1.93678 14.5423 2.16667C14.9419 2.3966 15.2369 2.71051 15.5091 3.08871C15.7717 3.45349 16.0437 3.9236 16.3709 4.48763L17.9741 7.25049C18.3027 7.81689 18.5767 8.28853 18.7635 8.69906C18.9572 9.12457 19.0833 9.53775 19.0833 10.0003C19.0833 10.4629 18.9572 10.8761 18.7635 11.3016C18.5767 11.7121 18.3027 12.1838 17.9741 12.7502L16.3709 15.513C16.0437 16.0771 15.7717 16.5472 15.5091 16.9119C15.2369 17.2901 14.9419 17.6041 14.5423 17.834C14.1428 18.0639 13.7231 18.1619 13.259 18.2075C12.8112 18.2515 12.2675 18.2507 11.6143 18.2507H8.38509C7.73184 18.2507 7.18815 18.2515 6.7404 18.2075C6.27628 18.1619 5.8566 18.0639 5.45703 17.834C5.05747 17.6041 4.76249 17.2901 4.49023 16.9119C4.22766 16.5472 3.95565 16.0771 3.62842 15.513L2.02523 12.7502C1.69663 12.1838 1.42269 11.7121 1.23584 11.3016C1.04219 10.8761 0.916016 10.4629 0.916016 10.0003C0.916016 9.53775 1.04219 9.12457 1.23584 8.69906C1.4227 8.28853 1.69663 7.81689 2.02523 7.25049L3.62842 4.48763C3.95565 3.9236 4.22766 3.45349 4.49023 3.08871C4.76249 2.71052 5.05747 2.3966 5.45703 2.16667C5.8566 1.93678 6.27628 1.83874 6.7404 1.79313C7.18815 1.74913 7.73184 1.75 8.38509 1.75L11.6143 1.75ZM8.38509 3.25065C7.70278 3.25065 7.2445 3.25132 6.88688 3.28646C6.54588 3.31999 6.35637 3.38049 6.20573 3.46712C6.05515 3.55376 5.90748 3.68686 5.70768 3.96436C5.49813 4.25545 5.26755 4.65102 4.92562 5.2404L3.32324 8.00326C2.97995 8.59498 2.74968 8.99242 2.60059 9.31999C2.45836 9.63248 2.41667 9.82686 2.41667 10.0003C2.41667 10.1738 2.45836 10.3682 2.60059 10.6807C2.74968 11.0082 2.97995 11.4057 3.32324 11.9974L4.92562 14.7603C5.26755 15.3496 5.49813 15.7452 5.70768 16.0363C5.90748 16.3138 6.05515 16.4469 6.20573 16.5335C6.35637 16.6202 6.54588 16.6807 6.88688 16.7142C7.2445 16.7493 7.70277 16.75 8.38509 16.75H11.6143C12.2966 16.75 12.7549 16.7493 13.1125 16.7142C13.4535 16.6807 13.643 16.6202 13.7936 16.5335C13.9442 16.4469 14.0919 16.3138 14.2917 16.0363C14.5012 15.7452 14.7318 15.3496 15.0737 14.7603L16.6761 11.9974C17.0194 11.4057 17.2497 11.0082 17.3988 10.6807C17.541 10.3682 17.5827 10.1738 17.5827 10.0003C17.5827 9.82686 17.541 9.63248 17.3988 9.31999C17.2497 8.99242 17.0194 8.59498 16.6761 8.00326L15.0737 5.2404C14.7318 4.65102 14.5012 4.25545 14.2917 3.96436C14.0919 3.68686 13.9442 3.55376 13.7936 3.46712C13.643 3.38049 13.4535 3.31999 13.1125 3.28646C12.7549 3.25132 12.2966 3.25065 11.6143 3.25065L8.38509 3.25065Z" fill="#919191"/>
</svg>
