<svg width="24" height="24" viewBox="0 0 24 24" fill="none" xmlns="http://www.w3.org/2000/svg">
<path d="M3 16C3.55228 16 4 16.4477 4 17V18C4 19.1046 4.89543 20 6 20H7C7.55228 20 8 20.4477 8 21C8 21.5523 7.55228 22 7 22H6C3.79086 22 2 20.2091 2 18V17C2 16.4477 2.44772 16 3 16Z" fill="#0F0F0F"/>
<path d="M21 16C21.5523 16 22 16.4477 22 17V18C22 20.2091 20.2091 22 18 22H17C16.4477 22 16 21.5523 16 21C16 20.4477 16.4477 20 17 20H18C19.1046 20 20 19.1046 20 18V17C20 16.4477 20.4477 16 21 16Z" fill="#0F0F0F"/>
<path d="M12.8428 16.2881C13.2333 15.8976 13.8663 15.8977 14.2568 16.2881L14.2617 16.293C14.6522 16.6835 14.6522 17.3165 14.2617 17.707L14.2568 17.7119C13.8663 18.1023 13.2333 18.1024 12.8428 17.7119L12.8379 17.707C12.4475 17.3165 12.4475 16.6835 12.8379 16.293L12.8428 16.2881Z" fill="#0F0F0F"/>
<path d="M16.2432 16.2881C16.6337 15.8977 17.2667 15.8976 17.6572 16.2881L17.6621 16.293C18.0525 16.6835 18.0525 17.3165 17.6621 17.707L17.6572 17.7119C17.2667 18.1024 16.6337 18.1023 16.2432 17.7119L16.2383 17.707C15.8478 17.3165 15.8478 16.6835 16.2383 16.293L16.2432 16.2881Z" fill="#0F0F0F"/>
<path d="M10 12.5C10.8284 12.5 11.5 13.1716 11.5 14V17C11.5 17.5523 11.0523 18 10.5 18H7.5C6.67157 18 6 17.3284 6 16.5V14C6 13.1716 6.67157 12.5 7.5 12.5H10ZM8 16H9.5V14.5H8V16Z" fill="#0F0F0F"/>
<path d="M14.543 14.5381C14.9335 14.1476 15.5665 14.1476 15.957 14.5381L15.9619 14.543C16.3524 14.9335 16.3524 15.5665 15.9619 15.957L15.957 15.9619C15.5665 16.3524 14.9335 16.3524 14.543 15.9619L14.5381 15.957C14.1476 15.5665 14.1476 14.9335 14.5381 14.543L14.543 14.5381Z" fill="#0F0F0F"/>
<path d="M12.8428 12.7881C13.2333 12.3976 13.8663 12.3977 14.2568 12.7881L14.2617 12.793C14.6522 13.1835 14.6522 13.8165 14.2617 14.207L14.2568 14.2119C13.8663 14.6023 13.2333 14.6024 12.8428 14.2119L12.8379 14.207C12.4475 13.8165 12.4475 13.1835 12.8379 12.793L12.8428 12.7881Z" fill="#0F0F0F"/>
<path d="M16.2432 12.7881C16.6337 12.3977 17.2667 12.3976 17.6572 12.7881L17.6621 12.793C18.0525 13.1835 18.0525 13.8165 17.6621 14.207L17.6572 14.2119C17.2667 14.6024 16.6337 14.6023 16.2432 14.2119L16.2383 14.207C15.8478 13.8165 15.8478 13.1835 16.2383 12.793L16.2432 12.7881Z" fill="#0F0F0F"/>
<path d="M10 6C10.8284 6 11.5 6.67157 11.5 7.5V10.5C11.5 11.0523 11.0523 11.5 10.5 11.5H7.5C6.67157 11.5 6 10.8284 6 10V7.5C6 6.67157 6.67157 6 7.5 6H10ZM8 9.5H9.5V8H8V9.5Z" fill="#0F0F0F"/>
<path d="M16.5 6C17.3284 6 18 6.67157 18 7.5V10.5C18 11.0523 17.5523 11.5 17 11.5H14C13.1716 11.5 12.5 10.8284 12.5 10V7.5C12.5 6.67157 13.1716 6 14 6H16.5ZM14.5 9.5H16V8H14.5V9.5Z" fill="#0F0F0F"/>
<path d="M7 2C7.55228 2 8 2.44772 8 3C8 3.55228 7.55228 4 7 4H6C4.89543 4 4 4.89543 4 6V7C4 7.55228 3.55228 8 3 8C2.44772 8 2 7.55228 2 7V6C2 3.79086 3.79086 2 6 2H7Z" fill="#0F0F0F"/>
<path d="M18 2C20.2091 2 22 3.79086 22 6V7C22 7.55228 21.5523 8 21 8C20.4477 8 20 7.55228 20 7V6C20 4.89543 19.1046 4 18 4H17C16.4477 4 16 3.55228 16 3C16 2.44772 16.4477 2 17 2H18Z" fill="#0F0F0F"/>
</svg>
