<svg width="20" height="20" viewBox="0 0 20 20" fill="none" xmlns="http://www.w3.org/2000/svg">
<path d="M2.75 13.2812C3.16403 13.2815 3.5 13.6172 3.5 14.0312V14.8369C3.50011 15.7576 4.24636 16.5046 5.16699 16.5049H5.97363C6.3875 16.5053 6.72363 16.8409 6.72363 17.2549C6.72333 17.6686 6.38731 18.0045 5.97363 18.0049H5.16699C3.41794 18.0046 2.00011 16.586 2 14.8369V14.0312C2 13.617 2.33579 13.2812 2.75 13.2812Z" fill="#0F0F0F"/>
<path d="M17.2549 13.2812C17.6689 13.2815 18.0049 13.6172 18.0049 14.0312V14.8369C18.0048 16.5861 16.5861 18.0048 14.8369 18.0049H14.0312C13.6172 18.0049 13.2816 17.6688 13.2812 17.2549C13.2812 16.8407 13.617 16.5049 14.0312 16.5049H14.8369C15.7577 16.5048 16.5048 15.7577 16.5049 14.8369V14.0312C16.5049 13.617 16.8407 13.2812 17.2549 13.2812Z" fill="#0F0F0F"/>
<path d="M10.7773 13.4453C11.0718 13.2051 11.5066 13.2217 11.7812 13.4961L11.7852 13.501C12.0777 13.7939 12.0779 14.2687 11.7852 14.5615L11.7812 14.5654C11.4885 14.8581 11.0136 14.858 10.7207 14.5654L10.7158 14.5615C10.4234 14.2688 10.4235 13.7938 10.7158 13.501L10.7207 13.4961L10.7773 13.4453Z" fill="#0F0F0F"/>
<path d="M13.5176 13.4453C13.8121 13.2051 14.2469 13.2216 14.5215 13.4961L14.5254 13.501C14.8179 13.7939 14.818 14.2687 14.5254 14.5615L14.5215 14.5654C14.2287 14.8582 13.7539 14.858 13.4609 14.5654L13.4561 14.5615C13.1634 14.2688 13.1636 13.7939 13.4561 13.501L13.4609 13.4961L13.5176 13.4453Z" fill="#0F0F0F"/>
<path d="M8.29297 10.4609C8.98333 10.4609 9.54297 11.0206 9.54297 11.7109V14.0312C9.54282 14.4453 9.20709 14.7812 8.79297 14.7812H6.47266C5.78243 14.7812 5.22281 14.2214 5.22266 13.5312V11.7109C5.22266 11.0206 5.78234 10.461 6.47266 10.4609H8.29297ZM6.72266 13.2812H8.04297V11.9609H6.72266V13.2812Z" fill="#0F0F0F"/>
<path d="M12.1475 12.0352C12.4419 11.7949 12.8767 11.8116 13.1514 12.0859L13.1553 12.0908C13.4478 12.3837 13.4481 12.8586 13.1553 13.1514L13.1514 13.1553C12.8586 13.448 12.3837 13.4478 12.0908 13.1553L12.0859 13.1514C11.7935 12.8586 11.7937 12.3837 12.0859 12.0908L12.0908 12.0859L12.1475 12.0352Z" fill="#0F0F0F"/>
<path d="M10.7773 10.625C11.0718 10.3847 11.5066 10.4014 11.7812 10.6758L11.7852 10.6807C12.0777 10.9736 12.0779 11.4484 11.7852 11.7412L11.7812 11.7451C11.4885 12.0378 11.0136 12.0376 10.7207 11.7451L10.7158 11.7412C10.4233 11.4485 10.4235 10.9735 10.7158 10.6807L10.7207 10.6758L10.7773 10.625Z" fill="#0F0F0F"/>
<path d="M13.5176 10.625C13.8121 10.3848 14.2469 10.4012 14.5215 10.6758L14.5254 10.6807C14.8179 10.9736 14.8181 11.4484 14.5254 11.7412L14.5215 11.7451C14.2287 12.0379 13.7539 12.0377 13.4609 11.7451L13.4561 11.7412C13.1633 11.4485 13.1636 10.9736 13.4561 10.6807L13.4609 10.6758L13.5176 10.625Z" fill="#0F0F0F"/>
<path d="M8.29297 5.22266C8.98326 5.22266 9.54286 5.78239 9.54297 6.47266V8.79297C9.54297 9.20718 9.20718 9.54297 8.79297 9.54297H6.47266C5.78234 9.54292 5.22266 8.9833 5.22266 8.29297V6.47266C5.22277 5.78242 5.78241 5.2227 6.47266 5.22266H8.29297ZM6.72266 8.04297H8.04297V6.72266H6.72266V8.04297Z" fill="#0F0F0F"/>
<path d="M13.5312 5.22266C14.2214 5.22278 14.7811 5.78247 14.7812 6.47266V8.79297C14.7812 9.20711 14.4454 9.54285 14.0312 9.54297H11.7109C11.0206 9.54297 10.4609 8.98332 10.4609 8.29297V6.47266C10.461 5.78239 11.0207 5.22266 11.7109 5.22266H13.5312ZM11.9609 8.04297H13.2812V6.72266H11.9609V8.04297Z" fill="#0F0F0F"/>
<path d="M5.97363 2C6.3875 2.0004 6.72363 2.33604 6.72363 2.75C6.72342 3.16378 6.38737 3.4996 5.97363 3.5H5.16699C4.24645 3.50025 3.50025 4.24645 3.5 5.16699V5.97363C3.4996 6.38737 3.16378 6.72342 2.75 6.72363C2.33604 6.72363 2.0004 6.3875 2 5.97363V5.16699C2.00025 3.41802 3.41802 2.00025 5.16699 2H5.97363Z" fill="#0F0F0F"/>
<path d="M14.8369 2C16.5861 2.00004 18.0046 3.4179 18.0049 5.16699V5.97363C18.0045 6.38736 17.6686 6.72339 17.2549 6.72363C16.8409 6.72363 16.5053 6.3875 16.5049 5.97363V5.16699C16.5046 4.24632 15.7576 3.50004 14.8369 3.5H14.0312C13.6172 3.5 13.2815 3.16403 13.2812 2.75C13.2812 2.33579 13.617 2 14.0312 2H14.8369Z" fill="#0F0F0F"/>
</svg>
