<svg width="25" height="24" viewBox="0 0 25 24" fill="none" xmlns="http://www.w3.org/2000/svg">
<path fill-rule="evenodd" clip-rule="evenodd" d="M12.7401 1.5672C15.7925 1.5672 18.2945 3.91603 18.5411 6.90476L19.7438 6.90476C20.2214 6.9047 20.6568 6.905 21.0052 6.95593C21.3881 7.01194 21.7958 7.14583 22.0998 7.51698C22.4005 7.88412 22.4568 8.30923 22.4457 8.69594C22.4354 9.05321 22.3624 9.49056 22.2808 9.97726L21.0971 17.0378C20.9102 18.1531 20.7584 19.0552 20.5503 19.7606C20.3341 20.4933 20.0337 21.1009 19.4926 21.5698C18.9492 22.0406 18.3092 22.2446 17.5621 22.3403C16.8474 22.4318 15.9541 22.4322 14.8564 22.4322H10.1434C9.0458 22.4322 8.15231 22.4317 7.43763 22.3403C6.69056 22.2446 6.05058 22.0406 5.50712 21.5698C4.96587 21.1008 4.66474 20.4935 4.44852 19.7606C4.24044 19.0552 4.08958 18.153 3.90264 17.0378L2.71893 9.97726C2.63729 9.49055 2.5643 9.05321 2.55403 8.69594C2.54293 8.30934 2.59857 7.88405 2.899 7.51698C3.20302 7.14578 3.61156 7.01193 3.99456 6.95593C4.34289 6.90502 4.77836 6.9047 5.25598 6.90476H6.93913C7.18576 3.91607 9.6878 1.56728 12.7401 1.5672ZM12.7401 3.50813C10.7607 3.50821 9.12837 4.98999 8.88953 6.90476L16.5907 6.90476C16.3518 4.98996 14.7196 3.50813 12.7401 3.50813Z" fill="#919191"/>
</svg>
