<svg width="16" height="16" viewBox="0 0 16 16" fill="none" xmlns="http://www.w3.org/2000/svg">
<path d="M7.99804 11.043C8.52574 11.0432 8.95859 11.4704 8.95897 12.001C8.95897 12.5294 8.52836 12.9597 7.99999 12.96C7.50476 12.9597 7.09614 12.5821 7.04687 12.0996L7.04198 12.001C7.04028 11.4694 7.47347 11.0432 7.99804 11.043Z" fill="#0F0F0F"/>
<path d="M7.99804 7.04199C8.52582 7.04225 8.95872 7.46936 8.95897 8C8.95871 8.5282 8.5282 8.95872 7.99999 8.95898C7.50494 8.95873 7.09639 8.58085 7.04687 8.09863L7.04198 8C7.04015 7.46831 7.47339 7.04223 7.99804 7.04199Z" fill="#0F0F0F"/>
<path d="M7.99804 3.04004C8.52582 3.0403 8.95872 3.46741 8.95897 3.99805C8.95891 4.52642 8.52832 4.95677 7.99999 4.95703C7.50482 4.95678 7.09622 4.57907 7.04687 4.09668L7.04198 3.99805C7.04015 3.46635 7.47339 3.04028 7.99804 3.04004Z" fill="#0F0F0F"/>
</svg>
