<svg width="12" height="12" viewBox="0 0 12 12" fill="none" xmlns="http://www.w3.org/2000/svg">
<path d="M6.07519 8.25488C6.45278 8.29316 6.74988 8.61143 6.75 9.00098C6.75 9.41468 6.4137 9.75098 6 9.75098C5.61237 9.75091 5.29258 9.45571 5.2539 9.07812L5.25 9.00098C5.24855 8.58461 5.58827 8.25099 5.99902 8.25098L6.07519 8.25488Z" fill="#0F0F0F"/>
<path d="M6.07519 5.25391C6.45282 5.29219 6.74994 5.6104 6.75 6C6.74993 6.41364 6.41366 6.75 6 6.75C5.61241 6.74993 5.29263 6.45467 5.2539 6.07715L5.25 6C5.24848 5.58358 5.58823 5.25001 5.99902 5.25L6.07519 5.25391Z" fill="#0F0F0F"/>
<path d="M6.07519 2.25293C6.45281 2.29123 6.74994 2.60943 6.75 2.99902C6.7498 3.41256 6.41358 3.74902 6 3.74902C5.61249 3.74896 5.29274 3.45358 5.2539 3.07617L5.25 2.99902C5.24848 2.5826 5.58823 2.24903 5.99902 2.24902L6.07519 2.25293Z" fill="#0F0F0F"/>
</svg>
