<svg width="21" height="22" viewBox="0 0 21 22" fill="none" xmlns="http://www.w3.org/2000/svg">
<path d="M2.78543 5.5L2.83563 5.50001L17.7146 5.5C18.2068 5.49994 18.6552 5.49989 19.0142 5.55237C19.4088 5.61006 19.8292 5.74805 20.1425 6.13056C20.4523 6.50888 20.5101 6.94716 20.4987 7.34566C20.4881 7.71381 20.4125 8.16437 20.3284 8.6659L19.1088 15.941L19.1088 15.9411C18.9161 17.0904 18.7603 18.0201 18.5459 18.747C18.3231 19.5022 18.0132 20.1281 17.4554 20.6113C16.8954 21.0965 16.2364 21.3072 15.4666 21.4057C14.7301 21.5 13.8096 21.5 12.6785 21.5H7.82149C6.69034 21.5 5.76991 21.5 5.03342 21.4057C4.26361 21.3072 3.60455 21.0965 3.04455 20.6113C2.48682 20.1281 2.17692 19.5022 1.95412 18.747C1.73969 18.0201 1.58385 17.0904 1.3912 15.9411L0.179643 8.71382L0.171612 8.66593C0.0874844 8.16439 0.0119057 7.71382 0.00133056 7.34566C-0.0101163 6.94716 0.0476421 6.50888 0.357492 6.13055C0.670759 5.74805 1.09115 5.61006 1.48581 5.55237C1.84476 5.49989 2.29322 5.49994 2.78543 5.5Z" fill="#0099FF"/>
<path fill-rule="evenodd" clip-rule="evenodd" d="M10.25 2C8.04086 2 6.25 3.79086 6.25 6V6.5C6.25 7.05228 5.80228 7.5 5.25 7.5C4.69772 7.5 4.25 7.05228 4.25 6.5V6C4.25 2.68629 6.93629 0 10.25 0C13.5637 0 16.25 2.68629 16.25 6V6.5C16.25 7.05228 15.8023 7.5 15.25 7.5C14.6977 7.5 14.25 7.05228 14.25 6.5V6C14.25 3.79086 12.4591 2 10.25 2Z" fill="#0099FF"/>
</svg>
