<svg width="28" height="28" viewBox="0 0 28 28" fill="none" xmlns="http://www.w3.org/2000/svg">
<path d="M14.5876 1.00452C15.2777 1.0047 15.8374 1.56443 15.8376 2.25452V3.48694C17.4125 3.71559 18.8499 4.23337 20.0066 4.98108C21.5882 6.00358 22.7849 7.56465 22.7849 9.4762C22.7847 10.1664 22.2251 10.7262 21.5349 10.7262C20.8448 10.7259 20.285 10.1663 20.2849 9.4762C20.2849 8.69699 19.7951 7.82152 18.6491 7.08069C17.5158 6.34805 15.875 5.85414 13.9987 5.85413C12.1226 5.85417 10.4817 6.3481 9.34836 7.08069C8.20259 7.82148 7.71262 8.69705 7.71262 9.4762C7.71265 9.98868 7.80915 10.3732 7.96945 10.6715C8.12684 10.9642 8.38265 11.2443 8.81027 11.4967C9.71464 12.0305 11.3222 12.402 13.9987 12.402C16.7945 12.402 19.1225 12.748 20.7849 13.6979C21.6414 14.1873 22.3326 14.8434 22.8005 15.6901C23.2656 16.5317 23.4704 17.489 23.4704 18.524C23.4703 20.8176 22.2069 22.4177 20.3943 23.3717C19.1089 24.0481 17.5276 24.4184 15.8376 24.567V25.7448C15.8376 26.435 15.2778 26.9946 14.5876 26.9948C13.8973 26.9948 13.3376 26.4351 13.3376 25.7448V24.6295C11.1355 24.5341 9.10475 23.9673 7.54758 23.0446C5.86321 22.0463 4.52718 20.4885 4.52707 18.524C4.52719 17.8339 5.08691 17.2742 5.77707 17.274C6.46735 17.274 7.02695 17.8338 7.02707 18.524C7.02718 19.25 7.53132 20.1292 8.82199 20.8942C10.0856 21.643 11.9134 22.1461 13.9987 22.1461C16.1739 22.1461 17.9978 21.8073 19.2302 21.1588C20.3929 20.5468 20.9703 19.7102 20.9704 18.524C20.9704 17.8194 20.832 17.2971 20.612 16.899C20.3948 16.5062 20.0581 16.1622 19.5446 15.8688C18.4665 15.2527 16.6837 14.902 13.9987 14.902C11.1946 14.902 9.03328 14.5314 7.53976 13.65C6.76873 13.1949 6.16753 12.5984 5.76828 11.8561C5.37214 11.1194 5.21265 10.3086 5.21262 9.4762C5.21262 7.56476 6.4094 6.00359 7.99094 4.98108C9.4303 4.05062 11.3048 3.47495 13.3376 3.3717V2.25452C13.3378 1.56431 13.8974 1.00452 14.5876 1.00452Z" fill="#0F0F0F"/>
</svg>
