<svg width="20" height="20" viewBox="0 0 20 20" fill="none" xmlns="http://www.w3.org/2000/svg">
<path d="M10.4081 1.00348C10.8683 1.00348 11.2411 1.37625 11.2411 1.83649V2.80719C12.3279 2.96265 13.3175 3.31918 14.1103 3.8316C15.1888 4.52891 15.9882 5.58131 15.9882 6.85602C15.9879 7.26976 15.6519 7.60563 15.2382 7.60602C14.8241 7.60602 14.4885 7.27 14.4882 6.85602C14.4882 6.26079 14.1135 5.61958 13.2968 5.09137C12.4873 4.56804 11.3233 4.21942 9.99991 4.2193C8.67639 4.2193 7.51269 4.56803 6.70303 5.09137C5.88581 5.61968 5.51163 6.26061 5.51163 6.85602C5.51169 7.22745 5.5823 7.51456 5.70499 7.74274C5.8259 7.9675 6.01936 8.17779 6.33292 8.36285C6.98959 8.75026 8.13378 9.00836 9.99991 9.00836C11.9375 9.00842 13.5296 9.24892 14.6571 9.89313C15.236 10.224 15.7003 10.6652 16.0136 11.232C16.3251 11.7957 16.4637 12.4406 16.4638 13.1441C16.4637 14.6856 15.6185 15.7619 14.3896 16.4088C13.5074 16.873 12.4148 17.1273 11.2411 17.2281V18.1636C11.241 18.6238 10.8683 18.9966 10.4081 18.9966C9.94794 18.9966 9.57519 18.6238 9.5751 18.1636V17.2711C8.04947 17.2094 6.64609 16.8181 5.57608 16.1841C4.42409 15.5014 3.53512 14.4506 3.53506 13.1441C3.53531 12.7301 3.871 12.3941 4.28506 12.3941C4.69899 12.3943 5.03482 12.7302 5.03506 13.1441C5.03512 13.7076 5.42489 14.3513 6.34073 14.8941C7.24034 15.4271 8.53299 15.7808 9.99991 15.7808C11.5206 15.7808 12.8106 15.5441 13.6913 15.0806C14.53 14.639 14.9637 14.021 14.9638 13.1441C14.9637 12.6389 14.8645 12.2552 14.7001 11.9576C14.5372 11.663 14.2861 11.4091 13.913 11.1959C13.136 10.7519 11.8711 10.5084 9.99991 10.5084C8.05697 10.5084 6.58032 10.2499 5.57022 9.65387C5.0509 9.34727 4.64965 8.94802 4.3837 8.45367C4.11961 7.96253 4.01169 7.41927 4.01163 6.85602C4.01163 5.5812 4.80993 4.52891 5.88858 3.8316C6.87612 3.19325 8.16901 2.79688 9.5751 2.73004V1.83649C9.5751 1.37626 9.94789 1.0035 10.4081 1.00348Z" fill="#0F0F0F"/>
</svg>
