<svg width="12" height="12" viewBox="0 0 12 12" fill="none" xmlns="http://www.w3.org/2000/svg">
<path d="M6.22491 1.00171C6.50104 1.00173 6.72491 1.22558 6.72491 1.50171V1.95581C7.32383 2.04523 7.87142 2.24274 8.31281 2.52808C8.922 2.92211 9.38605 3.52582 9.38605 4.26733C9.38596 4.54329 9.16198 4.76715 8.88605 4.76733C8.61015 4.76711 8.38613 4.54327 8.38605 4.26733C8.38605 3.97864 8.20463 3.64919 7.76984 3.36792C7.3398 3.08992 6.71518 2.90126 6.00031 2.90112C5.28524 2.90112 4.65998 3.0899 4.2298 3.36792C3.7949 3.64921 3.61359 3.9786 3.61359 4.26733C3.61361 4.46099 3.64984 4.60501 3.70929 4.71558C3.76755 4.82372 3.86303 4.92834 4.02374 5.02319C4.36525 5.2245 4.97678 5.36694 6.00031 5.36694C7.07179 5.36701 7.96815 5.49938 8.60968 5.86597C8.94049 6.05507 9.20867 6.30941 9.38995 6.63745C9.56995 6.96344 9.64874 7.33411 9.64874 7.73315C9.64859 8.62074 9.15885 9.2399 8.45929 9.60815C7.96874 9.86629 7.3669 10.0071 6.72491 10.0652V10.4988C6.72474 10.7748 6.50094 10.9988 6.22491 10.9988C5.94888 10.9988 5.72508 10.7748 5.72491 10.4988V10.0896C4.88657 10.0503 4.11279 9.83465 3.51788 9.48218C2.86962 9.0979 2.35108 8.49581 2.35089 7.73315C2.35089 7.45701 2.57475 7.23315 2.85089 7.23315C3.12688 7.23334 3.35089 7.45713 3.35089 7.73315C3.35109 8.00058 3.53712 8.331 4.02765 8.62183C4.50783 8.9063 5.20484 9.09839 6.00031 9.09839C6.8314 9.09831 7.52592 8.96936 7.99347 8.72339C8.43306 8.49196 8.64861 8.17782 8.64874 7.73315C8.64874 7.46609 8.59611 7.26954 8.51398 7.12085C8.43295 6.97427 8.30721 6.84484 8.11359 6.73413C7.70571 6.50106 7.02738 6.36701 6.00031 6.36694C4.92527 6.36694 4.09201 6.22403 3.51495 5.88354C3.21689 5.70754 2.98334 5.47626 2.82843 5.18823C2.6749 4.90248 2.61361 4.58867 2.61359 4.26733C2.61359 3.52576 3.07755 2.92211 3.68683 2.52808C4.23673 2.17265 4.95099 1.95251 5.72491 1.90991V1.50171C5.72491 1.22557 5.94877 1.00171 6.22491 1.00171Z" fill="#0F0F0F"/>
</svg>
