<svg width="20" height="20" viewBox="0 0 20 20" fill="none" xmlns="http://www.w3.org/2000/svg">
<path d="M10.3625 2.00452C10.7765 2.00471 11.1125 2.34045 11.1125 2.75452V3.53381C12.0883 3.67328 12.9785 3.99324 13.6936 4.45569C14.6656 5.0844 15.3985 6.04176 15.3987 7.21155C15.3985 7.62556 15.0627 7.96141 14.6487 7.96155C14.2346 7.96145 13.8988 7.62558 13.8987 7.21155C13.8985 6.72075 13.5896 6.17496 12.8791 5.71545C12.1761 5.26075 11.1601 4.95475 9.99924 4.95471C8.83836 4.95474 7.82143 5.26073 7.11838 5.71545C6.40835 6.17488 6.09995 6.72089 6.09982 7.21155C6.09985 7.5308 6.15993 7.7726 6.26096 7.96057C6.36011 8.14493 6.52096 8.31978 6.78732 8.47717C7.35018 8.80955 8.34699 9.03966 9.99924 9.03967C11.723 9.03969 13.1544 9.25312 14.175 9.83655C14.7005 10.137 15.1239 10.5395 15.4104 11.0582C15.6951 11.5738 15.8215 12.1606 15.8215 12.7965C15.8214 14.2024 15.0476 15.1832 13.9348 15.7692C13.1401 16.1875 12.1604 16.4151 11.1125 16.5055V17.2535C11.1124 17.6675 10.7765 18.0033 10.3625 18.0035C9.9484 18.0035 9.61267 17.6676 9.61252 17.2535V16.5436C8.24926 16.4875 6.99244 16.1382 6.03049 15.568C4.99455 14.9538 4.17709 13.9982 4.17697 12.7965C4.177 12.3824 4.51286 12.0466 4.92697 12.0465C5.34117 12.0465 5.67694 12.3823 5.67697 12.7965C5.67709 13.2555 5.9956 13.8039 6.79514 14.278C7.57844 14.7423 8.70979 15.0533 9.99924 15.0533C11.3426 15.0533 12.472 14.8445 13.2365 14.442C13.9591 14.0615 14.3214 13.5382 14.3215 12.7965C14.3215 12.3587 14.2357 12.0324 14.0979 11.7828C13.9617 11.5364 13.7506 11.3211 13.4309 11.1383C12.7609 10.7553 11.6564 10.5397 9.99924 10.5397C8.27032 10.5397 6.94106 10.3103 6.02463 9.76917C5.55195 9.48998 5.18383 9.12477 4.93967 8.67053C4.69734 8.21964 4.59986 7.72248 4.59982 7.21155C4.59995 6.0419 5.33204 5.0844 6.30392 4.45569C7.19314 3.88056 8.35378 3.52526 9.61252 3.46448V2.75452C9.61255 2.34033 9.94833 2.00452 10.3625 2.00452Z" fill="#0F0F0F"/>
</svg>
