<svg width="12" height="12" viewBox="0 0 12 12" fill="none" xmlns="http://www.w3.org/2000/svg">
<path d="M6.22491 1.00195C6.50104 1.00197 6.72491 1.22582 6.72491 1.50195V1.95605C7.32383 2.04548 7.87142 2.24298 8.31281 2.52832C8.922 2.92235 9.38605 3.52607 9.38605 4.26758C9.38596 4.54353 9.16198 4.76739 8.88605 4.76758C8.61015 4.76736 8.38613 4.54351 8.38605 4.26758C8.38605 3.97888 8.20463 3.64944 7.76984 3.36816C7.3398 3.09016 6.71518 2.9015 6.00031 2.90137C5.28524 2.90137 4.65998 3.09014 4.2298 3.36816C3.7949 3.64946 3.61359 3.97885 3.61359 4.26758C3.61361 4.46123 3.64984 4.60526 3.70929 4.71582C3.76755 4.82397 3.86303 4.92858 4.02374 5.02344C4.36525 5.22475 4.97678 5.36719 6.00031 5.36719C7.07179 5.36725 7.96815 5.49962 8.60968 5.86621C8.94049 6.05532 9.20867 6.30966 9.38995 6.6377C9.56995 6.96369 9.64874 7.33435 9.64874 7.7334C9.64859 8.62099 9.15885 9.24014 8.45929 9.6084C7.96874 9.86654 7.3669 10.0073 6.72491 10.0654V10.499C6.72474 10.775 6.50094 10.999 6.22491 10.999C5.94888 10.999 5.72508 10.775 5.72491 10.499V10.0898C4.88657 10.0506 4.11279 9.83489 3.51788 9.48242C2.86962 9.09814 2.35108 8.49606 2.35089 7.7334C2.35089 7.45726 2.57475 7.2334 2.85089 7.2334C3.12688 7.23358 3.35089 7.45737 3.35089 7.7334C3.35109 8.00082 3.53712 8.33125 4.02765 8.62207C4.50783 8.90655 5.20484 9.09863 6.00031 9.09863C6.8314 9.09855 7.52592 8.9696 7.99347 8.72363C8.43306 8.49221 8.64861 8.17807 8.64874 7.7334C8.64874 7.46634 8.59611 7.26978 8.51398 7.12109C8.43295 6.97452 8.30721 6.84509 8.11359 6.73438C7.70571 6.5013 7.02738 6.36725 6.00031 6.36719C4.92527 6.36719 4.09201 6.22427 3.51495 5.88379C3.21689 5.70779 2.98334 5.4765 2.82843 5.18848C2.6749 4.90272 2.61361 4.58891 2.61359 4.26758C2.61359 3.526 3.07755 2.92235 3.68683 2.52832C4.23673 2.1729 4.95099 1.95275 5.72491 1.91016V1.50195C5.72491 1.22581 5.94877 1.00195 6.22491 1.00195Z" fill="#0F0F0F"/>
</svg>
