<svg width="28" height="28" viewBox="0 0 28 28" fill="none" xmlns="http://www.w3.org/2000/svg">
<path d="M14.5376 2.00049C15.2279 2.00058 15.7876 2.56019 15.7876 3.25049V4.28564C17.2071 4.50339 18.5048 4.97678 19.5552 5.65576C21.0211 6.6035 22.1468 8.06155 22.147 9.85889C22.147 10.5492 21.5872 11.1088 20.897 11.1089C20.2067 11.1088 19.647 10.5492 19.647 9.85889C19.6468 9.19378 19.2279 8.42135 18.1978 7.75537C17.1801 7.0976 15.6991 6.65001 13.9995 6.6499C12.2997 6.6499 10.8181 7.09754 9.80029 7.75537C8.77008 8.42137 8.35124 9.19376 8.35107 9.85889C8.35107 10.3148 8.43781 10.6492 8.57471 10.9038C8.70855 11.1525 8.92742 11.3953 9.3042 11.6177C10.1071 12.0915 11.5552 12.4312 13.9995 12.4312C16.563 12.4312 18.717 12.7478 20.2632 13.6313C21.0616 14.0876 21.7091 14.7015 22.1479 15.4956C22.584 16.2847 22.7739 17.1797 22.7739 18.1411C22.7738 20.2871 21.5883 21.7838 19.9019 22.6714C18.7343 23.2857 17.3079 23.6256 15.7876 23.7681V24.7505C15.7873 25.4406 15.2277 26.0004 14.5376 26.0005C13.8474 26.0005 13.2879 25.4406 13.2876 24.7505V23.8306C11.2965 23.7298 9.45885 23.2101 8.04053 22.3696C6.48214 21.4461 5.22432 19.9916 5.22412 18.1411C5.22419 17.4508 5.7838 16.8911 6.47412 16.8911C7.16433 16.8912 7.72406 17.4509 7.72412 18.1411C7.72433 18.7531 8.15059 19.5281 9.31494 20.2183C10.4525 20.8924 12.1065 21.3501 13.9995 21.3501C15.9822 21.35 17.6316 21.0407 18.7378 20.4585C19.7744 19.9129 20.2738 19.1797 20.2739 18.1411C20.2739 17.5101 20.1504 17.0501 19.9595 16.7046C19.7713 16.3643 19.4783 16.0625 19.0229 15.8022C18.061 15.2526 16.4521 14.9312 13.9995 14.9312C11.4274 14.9312 9.42567 14.5915 8.03369 13.77C7.3133 13.3448 6.74823 12.7861 6.37256 12.0874C5.99995 11.3945 5.85107 10.6344 5.85107 9.85889C5.85124 8.06151 6.97685 6.6035 8.44287 5.65576C9.75386 4.80837 11.4498 4.28033 13.2876 4.17139V3.25049C13.2876 2.56013 13.8472 2.00049 14.5376 2.00049Z" fill="#0F0F0F"/>
</svg>
