<svg width="25" height="24" viewBox="0 0 25 24" fill="none" xmlns="http://www.w3.org/2000/svg">
<path d="M12.2184 2.09408C12.7334 1.94695 13.2701 2.24513 13.4172 2.76009C13.4994 3.04772 13.5629 3.10483 13.864 3.06967C16.7632 2.73113 19.5232 4.36206 20.8204 7.03742C20.945 7.29409 21.0758 7.55222 21.1511 7.82865C21.243 8.1654 21.261 8.59808 20.9889 9.02014C20.6957 9.47482 20.2514 9.617 19.9089 9.65608C19.6423 9.6865 19.3261 9.66592 19.0585 9.64851L17.6753 9.55962C17.5399 9.55092 17.5375 9.55161 17.4266 9.62994L16.2231 10.4804C16.1164 10.5558 16.0631 10.5934 16.0424 10.6507C16.0217 10.7079 16.0385 10.771 16.0721 10.8971L17.0896 14.7126C17.1689 15.0098 17.2085 15.1584 17.1267 15.2376C17.0449 15.3169 16.8977 15.2726 16.6031 15.184L15.3975 14.8216C15.0935 14.7302 15.0846 14.721 15.0028 14.4143L14.2636 11.6424C14.229 11.5124 14.2117 11.4474 14.1634 11.4078C14.1151 11.3682 14.048 11.3639 13.9137 11.3552L11.8715 11.224C11.736 11.2153 11.7336 11.216 11.6227 11.2944L10.487 12.097C10.2582 12.2589 9.9919 12.4474 9.74407 12.5636C9.43062 12.7107 8.95807 12.8318 8.45645 12.5722C7.99009 12.3309 7.79739 11.9215 7.72022 11.5767C7.65578 11.2888 7.65102 10.9906 7.64096 10.697C7.54272 7.88475 8.98247 5.19127 11.3855 3.86597C11.6761 3.7057 11.639 3.59599 11.5524 3.2929C11.4053 2.77794 11.7035 2.24121 12.2184 2.09408Z" fill="#919191"/>
<path d="M7.35865 14.9054C9.75364 14.9054 11.9143 15.5534 14.0477 16.1933C16.1579 16.8262 18.269 17.4577 20.7278 17.5938C21.1972 17.6197 21.4319 17.6327 21.5646 17.7729C21.6973 17.9131 21.6973 18.1389 21.6973 18.5903V20.7237C21.6973 21.1809 21.6973 21.4094 21.5553 21.5514C21.4132 21.6935 21.1847 21.6935 20.7275 21.6935H3.27246C2.81533 21.6935 2.58676 21.6935 2.44475 21.5514C2.30273 21.4094 2.30273 21.1809 2.30273 20.7237V16.328C2.30273 15.9892 2.30273 15.8198 2.40163 15.6898C2.50053 15.5597 2.65459 15.5169 2.96272 15.4315C3.19436 15.3672 3.42835 15.3104 3.66557 15.2608C4.52399 15.0813 5.77077 14.9054 7.35865 14.9054Z" fill="#919191"/>
</svg>
