<svg width="16" height="16" viewBox="0 0 16 16" fill="none" xmlns="http://www.w3.org/2000/svg">
<path d="M1.87344 2.461C2.20481 2.461 2.47344 2.72963 2.47344 3.061V8.46373C2.47344 9.89967 3.6375 11.0637 5.07344 11.0637H11.8547V10.1462C11.8548 9.83077 12.2029 9.63955 12.4691 9.80865L14.8578 11.3262C15.1052 11.4834 15.1052 11.8445 14.8578 12.0016L12.4695 13.5188C12.2032 13.688 11.8547 13.4968 11.8547 13.1813V12.2637H5.07344C2.97476 12.2637 1.27344 10.5624 1.27344 8.46373V3.061C1.27344 2.72963 1.54207 2.461 1.87344 2.461Z" fill="#0099FF"/>
<path d="M9.47344 6.41334C9.80481 6.41334 10.0734 6.68197 10.0734 7.01334C10.0733 7.34462 9.80474 7.61334 9.47344 7.61334H5.67344C5.34213 7.61334 5.07354 7.34462 5.07344 7.01334C5.07344 6.68197 5.34207 6.41334 5.67344 6.41334H9.47344Z" fill="#0099FF"/>
<path d="M13.2734 2.69576C13.6048 2.69576 13.8734 2.96439 13.8734 3.29576C13.8733 3.62705 13.6047 3.89576 13.2734 3.89576H5.67344C5.34213 3.89576 5.07354 3.62705 5.07344 3.29576C5.07344 2.96439 5.34207 2.69576 5.67344 2.69576H13.2734Z" fill="#0099FF"/>
</svg>
