<svg width="22" height="8" viewBox="0 0 22 8" fill="none" xmlns="http://www.w3.org/2000/svg">
<g clip-path="url(#clip0_4613_20797)">
<path fill-rule="evenodd" clip-rule="evenodd" d="M5.50256 7.21574H3.70875L2.36362 2.08453C2.29977 1.8485 2.16421 1.63983 1.9648 1.54148C1.46716 1.29433 0.918783 1.09763 0.320557 0.998428V0.800876H3.21023C3.60905 0.800876 3.90816 1.09763 3.95802 1.44228L4.65595 5.14359L6.44887 0.800876H8.19283L5.50256 7.21574ZM9.18947 7.21574H7.49537L8.89036 0.800876H10.5845L9.18947 7.21574ZM12.7768 2.5774C12.8266 2.2319 13.1257 2.03435 13.4747 2.03435C14.0231 1.98475 14.6204 2.08395 15.119 2.33025L15.4181 0.949099C14.9195 0.751547 14.3712 0.652344 13.8735 0.652344C12.2293 0.652344 11.0328 1.5409 11.0328 2.7741C11.0328 3.71225 11.8803 4.20485 12.4785 4.50161C13.1257 4.79751 13.375 4.99506 13.3251 5.29096C13.3251 5.73481 12.8266 5.93236 12.329 5.93236C11.7307 5.93236 11.1325 5.78441 10.585 5.53726L10.2859 6.91926C10.8841 7.16556 11.5313 7.26476 12.1296 7.26476C13.9732 7.31351 15.119 6.42581 15.119 5.09341C15.119 3.4155 12.7768 3.31715 12.7768 2.5774ZM21.048 7.21574L19.7029 0.800876H18.2581C17.959 0.800876 17.6598 0.998428 17.5601 1.29433L15.0693 7.21574H16.8132L17.1613 6.27844H19.3041L19.5035 7.21574H21.048ZM18.5067 2.52779L19.0043 4.94544H17.6094L18.5067 2.52779Z" fill="white"/>
</g>
<defs>
<clipPath id="clip0_4613_20797">
<rect width="22" height="8" fill="white"/>
</clipPath>
</defs>
</svg>
