<svg width="80" height="30" viewBox="0 0 80 30" fill="none" xmlns="http://www.w3.org/2000/svg">
<path fill-rule="evenodd" clip-rule="evenodd" d="M20.0077 27.0615H13.4848L8.59339 7.81944C8.36122 6.93431 7.86826 6.1518 7.14314 5.78299C5.33352 4.85617 3.33943 4.11856 1.16406 3.74654V3.00573H11.672C13.1222 3.00573 14.2099 4.11856 14.3912 5.41098L16.9291 19.2909L23.4489 3.00573H29.7905L20.0077 27.0615ZM33.4147 27.0615H27.2543L32.327 3.00573H38.4874L33.4147 27.0615ZM46.4594 9.6677C46.6407 8.37207 47.7284 7.63125 48.9973 7.63125C50.9914 7.44524 53.1636 7.81726 54.9764 8.74088L56.0641 3.56156C54.2513 2.82074 52.2572 2.44873 50.4476 2.44873C44.4685 2.44873 40.1177 5.78081 40.1177 10.4053C40.1177 13.9234 43.1995 15.7706 45.3749 16.8835C47.7284 17.9931 48.6348 18.7339 48.4535 19.8435C48.4535 21.508 46.6407 22.2488 44.831 22.2488C42.6557 22.2488 40.4803 21.694 38.4894 20.7671L37.4017 25.9497C39.5771 26.8733 41.9305 27.2453 44.1059 27.2453C50.8101 27.4281 54.9764 24.0992 54.9764 19.1027C54.9764 12.8106 46.4594 12.4418 46.4594 9.6677ZM76.5368 27.0615L71.6454 3.00573H66.3914C65.3037 3.00573 64.216 3.74654 63.8535 4.85617L54.7958 27.0615H61.1374L62.4032 23.5466H70.1951L70.9202 27.0615H76.5368ZM67.2955 9.48164L69.1051 18.5479H64.0324L67.2955 9.48164Z" fill="white"/>
</svg>
