<svg width="76" height="38" viewBox="0 0 76 38" fill="none" xmlns="http://www.w3.org/2000/svg">
<g clip-path="url(#clip0_4111_6345)">
<path d="M28.8562 0.429975L18.9066 23.921H12.4145L7.51851 5.17274C7.21912 4.01879 6.9625 3.59553 6.05758 3.10989C4.58314 2.31683 2.14525 1.57278 0 1.11165L0.146318 0.429975H10.5957C11.9283 0.429975 13.1259 1.30546 13.4275 2.82475L16.014 16.4204L22.4025 0.429975H28.8562ZM54.2931 16.2511C54.3179 10.0514 45.6266 9.70832 45.6896 6.9393C45.7053 6.095 46.5202 5.19947 48.2918 4.97002C49.1742 4.8564 51.5964 4.7673 54.3494 6.02149L55.4254 1.04036C53.9487 0.507945 52.0466 -0.00219727 49.6807 -0.00219727C43.6119 -0.00219727 39.3394 3.19232 39.3034 7.76577C39.2651 11.1452 42.3535 13.032 44.6811 14.1593C47.074 15.3087 47.8754 16.0483 47.8664 17.0775C47.8506 18.6547 45.9575 19.3476 44.1926 19.3765C41.1042 19.4255 39.3124 18.5523 37.8829 17.8929L36.7709 23.0411C38.2048 23.6938 40.8521 24.2596 43.6029 24.2886C50.0521 24.2886 54.2729 21.1342 54.2931 16.2511ZM70.3206 23.921H76L71.0432 0.429975H65.7982C64.6209 0.429975 63.626 1.10942 63.1848 2.15421L53.9735 23.9232H60.4182L61.6991 20.4168H69.5778L70.3184 23.9232L70.3206 23.921ZM63.4684 15.5983L66.7009 6.77445L68.5603 15.5983H63.4684ZM37.6308 0.429975L32.5525 23.921H26.4116L31.49 0.429975H37.6308Z" fill="white"/>
<path d="M33.1494 37.8617V30.3811H35.6458C36.454 30.3811 37.0978 30.5727 37.575 30.9514C38.0522 31.3323 38.2908 31.9048 38.2908 32.6734C38.2908 33.442 38.0522 34.0234 37.575 34.3999C37.0978 34.7763 36.454 34.9679 35.6458 34.9679H34.1241V37.8617H33.1494ZM35.5063 31.1608H34.1241V34.2216H35.5063C36.0758 34.2216 36.5147 34.1058 36.8186 33.8719C37.1248 33.6402 37.2756 33.2437 37.2756 32.6868C37.2756 32.1298 37.1225 31.7445 36.8186 31.5105C36.5147 31.2766 36.0758 31.1608 35.5063 31.1608Z" fill="white"/>
<path d="M40.4989 30.0872V37.8618H39.6143V30.0872H40.4989Z" fill="white"/>
<path d="M42.1694 33.5311L42.2685 32.6735C42.4801 32.5287 42.7457 32.4084 43.0631 32.3104C43.3805 32.2123 43.7294 32.1633 44.1076 32.1633C44.8302 32.1633 45.3682 32.3037 45.7193 32.5866C46.0705 32.8673 46.2461 33.3351 46.2461 33.9834V37.8618H45.3997V36.7992H45.3592C45.2129 37.2135 44.9878 37.5165 44.6839 37.7103C44.3777 37.9041 43.9973 37.9999 43.5403 37.9999C43.2297 37.9999 42.9416 37.942 42.6804 37.8284C42.4193 37.7125 42.2077 37.541 42.0501 37.3071C41.8903 37.0732 41.8115 36.7769 41.8115 36.416C41.8115 36.0551 41.8881 35.7655 42.0411 35.545C42.1919 35.3244 42.4058 35.1573 42.6827 35.0393C42.9596 34.9212 43.2882 34.8299 43.6731 34.763C44.1436 34.6851 44.5173 34.6116 44.7919 34.547C45.0665 34.4824 45.2646 34.3933 45.3839 34.2819V34.0257C45.3839 33.6202 45.2894 33.324 45.1003 33.1391C44.9112 32.9564 44.5578 32.8651 44.0401 32.8651C43.7092 32.8651 43.3828 32.9207 43.0609 33.0321C42.739 33.1435 42.4486 33.3106 42.1919 33.5334H42.1717L42.1694 33.5311ZM45.3727 35.9927V34.841C45.2669 34.9324 45.08 35.0148 44.8099 35.0816C44.5398 35.1484 44.2089 35.222 43.8105 35.2932C43.4728 35.3445 43.2004 35.4447 42.9911 35.5895C42.7817 35.7343 42.6782 35.9905 42.6782 36.3581C42.6782 36.6922 42.775 36.9395 42.9708 37.0999C43.1667 37.2625 43.4368 37.3405 43.7812 37.3405C44.1256 37.3405 44.398 37.2714 44.6366 37.1355C44.8752 36.9974 45.0575 36.8259 45.1836 36.6187C45.3097 36.4138 45.3727 36.2044 45.3727 35.995V35.9927Z" fill="white"/>
<path d="M49.1005 36.3669C49.1005 36.7234 49.177 36.9595 49.3301 37.0798C49.4809 37.2023 49.6813 37.2625 49.9266 37.2625C50.1518 37.2625 50.3476 37.2424 50.5142 37.2023C50.6785 37.1622 50.8158 37.1177 50.9216 37.0642H50.9509L50.8721 37.8038C50.773 37.855 50.6222 37.9018 50.4241 37.9419C50.226 37.982 50.0234 38.0021 49.8163 38.0021C49.3189 38.0021 48.9272 37.8862 48.6435 37.6523C48.3577 37.4184 48.2158 37.0375 48.2158 36.5051V33.0321H47.1826L47.3019 32.4507L48.2158 32.3215V31.1319L49.1005 31.0049V32.3036H50.8203L50.71 33.0321H49.0983V36.3669H49.1005Z" fill="white"/>
<path d="M51.8643 30.9448C51.8643 30.8 51.916 30.682 52.0173 30.5862C52.1209 30.4904 52.2514 30.4436 52.4113 30.4436C52.5711 30.4436 52.7017 30.4926 52.8097 30.5862C52.9155 30.682 52.9695 30.8023 52.9695 30.9448C52.9695 31.0874 52.9178 31.2188 52.8097 31.3146C52.7039 31.4104 52.5711 31.4572 52.4113 31.4572C52.2514 31.4572 52.1209 31.4082 52.0173 31.3146C51.9138 31.2188 51.8643 31.0963 51.8643 30.9448ZM52.8592 32.3015V37.8618H51.9746V32.3015H52.8592Z" fill="white"/>
<path d="M57.4251 32.1658C58.0352 32.1658 58.5124 32.3195 58.8568 32.6291C59.2012 32.9366 59.3745 33.42 59.3745 34.0749V37.8642H58.4989V34.3222C58.4989 33.8544 58.3976 33.5068 58.195 33.2729C57.9924 33.0413 57.6255 32.9232 57.0965 32.9232C56.7858 32.9232 56.5022 32.9856 56.2456 33.1103C55.989 33.2351 55.7886 33.4133 55.64 33.6427C55.4915 33.8722 55.4149 34.144 55.4149 34.4603V37.8642H54.5303V32.3039H55.3767V33.4846H55.4262C55.532 33.1705 55.6941 32.9165 55.9079 32.7227C56.124 32.5289 56.3649 32.3885 56.6328 32.2994C56.9006 32.2126 57.164 32.168 57.4229 32.168L57.4251 32.1658Z" fill="white"/>
<path d="M63.2527 37.2426C63.5588 37.2426 63.8379 37.1802 64.0923 37.0554C64.3467 36.9329 64.5515 36.7525 64.7046 36.523C64.8554 36.2936 64.932 36.024 64.932 35.7166V32.3015H65.8166V37.8619H64.9725V36.6901H64.932C64.8194 37.0042 64.6573 37.2604 64.4457 37.4542C64.2341 37.648 63.9955 37.7861 63.7299 37.8708C63.4643 37.9554 63.2032 37.9978 62.9443 37.9978C62.3342 37.9978 61.8548 37.8418 61.5014 37.5255C61.1502 37.2114 60.9746 36.7257 60.9746 36.0686V32.2993H61.8593V35.8725C61.8593 36.3448 61.9583 36.6901 62.1587 36.9106C62.3568 37.1312 62.7214 37.2403 63.2527 37.2403V37.2426Z" fill="white"/>
<path d="M72.113 33.5022H72.1535C72.2593 33.1792 72.4191 32.923 72.6307 32.7292C72.8423 32.5354 73.0787 32.3928 73.342 32.3014C73.6032 32.2101 73.8643 32.1633 74.1232 32.1633C74.7264 32.1633 75.1902 32.3237 75.5143 32.6445C75.8385 32.9653 76.0005 33.4509 76.0005 34.1014V37.8618H75.1159V34.2796C75.1159 33.8074 75.0281 33.4621 74.8525 33.246C74.6769 33.0299 74.3235 32.923 73.7923 32.923C73.3353 32.923 72.9526 33.0522 72.6442 33.3106C72.3358 33.569 72.1805 33.9455 72.1805 34.4378V37.8618H71.2958V34.2796C71.2958 33.8074 71.2058 33.4621 71.0257 33.246C70.8456 33.0299 70.4922 32.923 69.9632 32.923C69.6638 32.923 69.3914 32.9831 69.1483 33.1034C68.903 33.2259 68.7094 33.4019 68.5653 33.6314C68.4235 33.8608 68.3515 34.1304 68.3515 34.4378V37.8618H67.4668V32.3014H68.3132V33.5022H68.3627C68.4685 33.1792 68.6238 32.923 68.8309 32.7292C69.0358 32.5354 69.2676 32.3928 69.522 32.3014C69.7764 32.2101 70.033 32.1633 70.2919 32.1633C70.7961 32.1633 71.2013 32.2725 71.5097 32.493C71.8181 32.7136 72.0184 33.05 72.1107 33.5022H72.113Z" fill="white"/>
</g>
<defs>
<clipPath id="clip0_4111_6345">
<rect width="76" height="38" fill="white"/>
</clipPath>
</defs>
</svg>
