<svg width="24" height="24" viewBox="0 0 24 24" fill="none" xmlns="http://www.w3.org/2000/svg">
<path d="M3.99609 5.99495C6.41337 2.76817 10.6219 1.23895 14.6621 2.36019C19.5051 3.70437 22.5956 8.43713 21.8799 13.4119C21.1639 18.3865 16.8642 22.055 11.8389 21.9793C6.81373 21.9033 2.62718 18.1069 2.06152 13.1131C1.99942 12.5645 2.39376 12.0689 2.94238 12.0067C3.49104 11.9447 3.98568 12.3398 4.04785 12.8885C4.50046 16.8826 7.84993 19.9195 11.8691 19.9803C15.8887 20.0409 19.3278 17.1058 19.9004 13.1268C20.4729 9.14772 18.0006 5.36306 14.127 4.28792C10.7712 3.35671 7.26974 4.71056 5.37891 7.49788H5.99707C6.54913 7.49788 6.9967 7.94591 6.99707 8.49788C6.99707 9.05017 6.54936 9.49788 5.99707 9.49788H2.99609C2.44392 9.49775 1.99609 9.05009 1.99609 8.49788V5.49691C1.99631 4.94489 2.44406 4.49704 2.99609 4.49691C3.54824 4.49691 3.99587 4.94481 3.99609 5.49691V5.99495Z" fill="#0F0F0F"/>
<path d="M14.126 13.0018C14.3867 13.0017 14.6388 13.091 14.8389 13.2547L14.9219 13.3299L14.9971 13.4129C15.1608 13.6131 15.251 13.865 15.251 14.1258C15.251 14.7471 14.7472 15.2507 14.126 15.2508C13.5047 15.2508 13.001 14.7471 13.001 14.1258C13.0011 13.5059 13.5026 13.0039 14.1221 13.0018H14.126Z" fill="#0F0F0F"/>
<path d="M13.293 9.29183C13.6835 8.90172 14.3166 8.90162 14.707 9.29183C15.0973 9.68225 15.0972 10.3154 14.707 10.7059L10.7051 14.7078C10.3146 15.0982 9.6815 15.0982 9.29102 14.7078C8.90074 14.3174 8.9007 13.6843 9.29102 13.2938L13.293 9.29183Z" fill="#0F0F0F"/>
<path d="M9.98926 8.75472C10.5565 8.81231 10.9988 9.29151 10.999 9.87386C10.999 10.4943 10.497 10.9964 9.87695 10.9979L9.87793 10.9989L9.875 10.9979L9.87402 10.9989C9.57573 10.9989 9.28912 10.8808 9.07812 10.6698C8.86639 10.4579 8.74791 10.1695 8.74902 9.86995C8.75133 9.25065 9.25419 8.74897 9.87402 8.74886L9.98926 8.75472Z" fill="#0F0F0F"/>
</svg>
