<svg width="20" height="20" viewBox="0 0 20 20" fill="none" xmlns="http://www.w3.org/2000/svg">
<path d="M3.43652 5.25519C5.38141 2.58767 8.83162 1.31596 12.1387 2.23078C16.0566 3.31492 18.5609 7.13256 17.9814 11.1487C17.4017 15.1645 13.9203 18.1234 9.85547 18.0628C5.79026 18.0018 2.39957 14.9393 1.94141 10.9075C1.895 10.4963 2.19037 10.1253 2.60156 10.0784C3.01288 10.0319 3.38479 10.3273 3.43164 10.7386C3.80423 14.0171 6.56323 16.513 9.87793 16.5628C13.1923 16.6122 16.0256 14.2005 16.4971 10.9349C16.9683 7.6695 14.9326 4.55986 11.7393 3.67609C8.89484 2.88915 5.92548 4.08851 4.40137 6.50812H5.42969C5.8435 6.50859 6.17969 6.8442 6.17969 7.25812C6.1791 7.67155 5.84314 8.00766 5.42969 8.00812H2.68652C2.27267 8.00812 1.93711 7.67184 1.93652 7.25812V4.51496C1.93652 4.10075 2.27231 3.76496 2.68652 3.76496C3.10054 3.76519 3.43652 4.10089 3.43652 4.51496V5.25519Z" fill="#0F0F0F"/>
<path d="M11.4697 7.47004C11.7626 7.17715 12.2374 7.17715 12.5303 7.47004C12.823 7.76295 12.8231 8.23775 12.5303 8.53059L8.53027 12.5306C8.23743 12.8232 7.76257 12.8232 7.46973 12.5306C7.1769 12.2378 7.17702 11.7629 7.46973 11.47L11.4697 7.47004Z" fill="#0F0F0F"/>
<path d="M11.5 10.6253C11.9832 10.6253 12.375 11.0171 12.375 11.5003C12.3748 11.9827 11.9842 12.3733 11.502 12.3743L11.5 12.3753C11.268 12.3754 11.045 12.2835 10.8809 12.1195C10.7161 11.9547 10.6242 11.7303 10.625 11.4974C10.6266 11.0155 11.0177 10.6253 11.5 10.6253Z" fill="#0F0F0F"/>
<path d="M8.5 7.62531C8.98325 7.62531 9.375 8.01706 9.375 8.50031C9.3748 8.98274 8.98418 9.37328 8.50195 9.37434L8.5 9.37531C8.26802 9.37544 8.04499 9.28348 7.88086 9.11945C7.71615 8.95474 7.62424 8.73031 7.625 8.49738C7.62658 8.01548 8.01773 7.62531 8.5 7.62531Z" fill="#0F0F0F"/>
</svg>
