<svg width="28" height="28" viewBox="0 0 28 28" fill="none" xmlns="http://www.w3.org/2000/svg">
<path d="M4.46853 6.57514C7.41041 2.83144 12.3988 1.08053 17.1873 2.40521C23.0311 4.02238 26.7667 9.71769 25.9021 15.7089C25.0373 21.6995 19.8439 26.1119 13.781 26.0214C7.71767 25.9303 2.65982 21.3638 1.97634 15.3496C1.89856 14.6639 2.39131 14.0439 3.07692 13.9658C3.76242 13.8884 4.3827 14.3818 4.46071 15.0673C5.00158 19.8262 9.0057 23.4501 13.8181 23.5224C18.6304 23.5942 22.7432 20.092 23.4275 15.3515C24.1114 10.6119 21.1572 6.09756 16.5213 4.81439C12.4311 3.68283 8.16238 5.38006 5.93142 8.82514H7.13845C7.82803 8.82585 8.38818 9.38545 8.38845 10.0751C8.38823 10.7649 7.82806 11.3244 7.13845 11.3251H3.21853C2.52833 11.3251 1.96875 10.7653 1.96853 10.0751V6.15521C1.9688 5.4651 2.52836 4.90524 3.21853 4.90521C3.9083 4.9057 4.46825 5.46539 4.46853 6.15521V6.57514Z" fill="#0F0F0F"/>
<path d="M16.4998 15.1249C17.2591 15.1249 17.8747 15.7406 17.8748 16.4999C17.8747 17.258 17.2612 17.8719 16.5037 17.874H16.5017L16.4998 17.8749C16.1352 17.875 15.785 17.7305 15.5271 17.4726C15.2682 17.2136 15.1235 16.8613 15.1248 16.4951C15.1274 15.738 15.7422 15.1251 16.4998 15.1249Z" fill="#0F0F0F"/>
<path d="M15.1131 11.1113C15.6012 10.6232 16.3925 10.6232 16.8806 11.1113C17.3683 11.5994 17.3686 12.3908 16.8806 12.8788L12.8806 16.8788C12.3926 17.3669 11.6012 17.3666 11.1131 16.8788C10.625 16.3907 10.6249 15.5994 11.1131 15.1113L15.1131 11.1113Z" fill="#0F0F0F"/>
<path d="M11.4968 10.1201C12.256 10.1203 12.8718 10.7359 12.8718 11.4951C12.8716 12.2528 12.258 12.8667 11.5008 12.8691H11.4988L11.4968 12.8701C11.1324 12.8702 10.7821 12.7254 10.5242 12.4677C10.2653 12.2088 10.1206 11.8563 10.1218 11.4902C10.1245 10.7331 10.7391 10.1201 11.4968 10.1201Z" fill="#0F0F0F"/>
</svg>
