<svg width="24" height="24" viewBox="0 0 24 24" fill="none" xmlns="http://www.w3.org/2000/svg">
<g transform="translate(1.383, 2.3705)">
<path d="M5.456 8.725C6.274 8.725 6.937 9.389 6.937 10.206V17.778C6.937 18.596 6.274 19.259 5.456 19.259H1.481C0.663 19.259 0 18.596 0 17.778V10.206C0 9.389 0.663 8.725 1.481 8.725H5.456ZM12.681 0C13.448 0 14.018 2.08616e-07 14.511 0.132C15.844 0.488 16.885 1.527 17.242 2.856C17.326 3.17 17.357 3.515 17.368 3.921C17.512 3.934 17.651 3.949 17.784 3.967C18.679 4.087 19.47 4.349 20.103 4.981C20.736 5.613 20.999 6.402 21.12 7.295C21.235 8.146 21.234 9.221 21.234 10.525V12.587C21.234 13.891 21.235 14.966 21.12 15.817C20.999 16.71 20.737 17.499 20.103 18.131C19.47 18.763 18.679 19.025 17.784 19.145C16.931 19.259 15.853 19.259 14.546 19.259H8.616C8.604 19.259 8.592 19.258 8.58 19.258C8.793 18.81 8.914 18.308 8.914 17.779V10.207C8.914 8.298 7.366 6.75 5.457 6.75H1.482C0.952 6.75 0.449 6.87 0 7.083V2.889C0 1.294 1.296 0 2.895 0H12.681ZM17.023 10.066C16.085 10.066 15.324 10.826 15.324 11.764C15.324 12.703 16.085 13.463 17.023 13.463C17.962 13.463 18.722 12.703 18.722 11.764C18.722 10.826 17.961 10.066 17.023 10.066ZM2.776 10.203C2.34 10.203 1.986 10.556 1.986 10.993C1.986 11.429 2.34 11.783 2.776 11.783H4.159C4.595 11.783 4.949 11.429 4.949 10.993C4.949 10.556 4.595 10.203 4.159 10.203H2.776ZM2.895 1.926C2.362 1.926 1.93 2.357 1.93 2.889C1.93 3.421 2.362 3.852 2.895 3.852H14.546C14.854 3.852 15.15 3.852 15.433 3.854C15.425 3.605 15.408 3.469 15.377 3.354C15.198 2.689 14.678 2.17 14.011 1.992C13.797 1.934 13.506 1.926 12.547 1.926H2.895Z" fill="#0099FF"/>
</g>
</svg>
