<svg width="20" height="20" viewBox="0 0 20 20" fill="none" xmlns="http://www.w3.org/2000/svg">
<path fill-rule="evenodd" clip-rule="evenodd" d="M14.0785 10.6534C15.9648 10.6534 17.4941 12.1877 17.4941 14.0801C17.4941 15.9726 15.9649 17.5068 14.0785 17.5068C12.1921 17.5068 10.6628 15.9726 10.6628 14.0801C10.6629 12.1877 12.1922 10.6534 14.0785 10.6534ZM14.0785 12.1115C12.9948 12.1115 12.1163 12.9929 12.1162 14.0801C12.1162 15.1674 12.9947 16.0487 14.0785 16.0487C15.1622 16.0487 16.0407 15.1674 16.0407 14.0801C16.0407 12.9929 15.1622 12.1115 14.0785 12.1115Z" fill="#919191"/>
<path d="M15.4217 3.2158C15.7555 2.88088 16.2967 2.88088 16.6305 3.2158C16.9644 3.55072 16.9644 4.09361 16.6305 4.42853L4.50981 16.5881C4.17596 16.923 3.63483 16.923 3.30099 16.5881C2.96717 16.2531 2.96715 15.7103 3.30099 15.3753L15.4217 3.2158Z" fill="#919191"/>
<path fill-rule="evenodd" clip-rule="evenodd" d="M5.9098 2.50684C7.79616 2.50684 9.32545 4.04108 9.32545 5.93355C9.32537 7.82596 7.79611 9.36027 5.9098 9.36027C4.02348 9.36027 2.49423 7.82596 2.49414 5.93355C2.49414 4.04108 4.02343 2.50684 5.9098 2.50684ZM5.9098 3.96496C4.82604 3.96496 3.94756 4.84628 3.94756 5.93355C3.94764 7.02075 4.82609 7.90215 5.9098 7.90215C6.9935 7.90215 7.87195 7.02075 7.87204 5.93355C7.87204 4.84628 6.99356 3.96496 5.9098 3.96496Z" fill="#919191"/>
</svg>
