<svg width="24" height="24" viewBox="0 0 24 24" fill="none" xmlns="http://www.w3.org/2000/svg">
<path fill-rule="evenodd" clip-rule="evenodd" d="M11.9982 1.25098C10.3599 1.25098 9.03747 1.83572 7.91778 2.44726C7.56472 2.64009 7.24437 2.82643 6.94325 3.00157C6.23127 3.41569 5.62681 3.76728 4.95164 3.99438C4.84996 4.02859 4.74425 4.06187 4.63651 4.0958C4.06097 4.27703 3.4275 4.47651 3.03932 4.93132C2.68697 5.34415 2.59533 5.88418 2.50737 6.40259L2.49502 6.47521C1.41519 12.7926 3.89154 19.7822 10.1827 22.3228C10.7807 22.5643 11.2428 22.751 12.0012 22.751C12.7596 22.751 13.2217 22.5643 13.8197 22.3228C20.111 19.7822 22.5856 12.7984 21.5043 6.47511L21.492 6.40241C21.404 5.88398 21.3123 5.34391 20.9599 4.93109C20.5716 4.47631 19.9382 4.27692 19.3626 4.09577L19.3621 4.09561C19.2546 4.06176 19.149 4.02855 19.0475 3.99442C18.372 3.7673 17.7669 3.41557 17.0543 3.00136C16.7531 2.82625 16.4327 2.63997 16.0796 2.44722C14.9593 1.83572 13.6363 1.25098 11.9982 1.25098ZM11 16.2252C11 15.6729 11.4477 15.2252 12 15.2252H12.009C12.5613 15.2252 13.009 15.6729 13.009 16.2252C13.009 16.7775 12.5613 17.2252 12.009 17.2252H12C11.4477 17.2252 11 16.7775 11 16.2252ZM11.2502 13.2252C11.2502 13.6394 11.586 13.9752 12.0002 13.9752C12.4144 13.9752 12.7502 13.6394 12.7502 13.2252V7.22521C12.7502 6.81099 12.4144 6.47521 12.0002 6.47521C11.586 6.47521 11.2502 6.81099 11.2502 7.22521V13.2252Z" fill="#1E1E1E"/>
</svg>
