<svg width="24" height="24" viewBox="0 0 24 24" fill="none" xmlns="http://www.w3.org/2000/svg">
<path d="M9.66602 11.6797V20H8.31836C7.15663 20 6.57607 19.9997 6.13184 19.793C5.74164 19.6121 5.42574 19.3216 5.22656 18.9648C5.00041 18.5587 5 18.028 5 16.9658V11.6797H9.66602Z" fill="#0F0F0F"/>
<path d="M19 16.9658C19 18.028 18.9996 18.5587 18.7734 18.9648C18.5743 19.3216 18.2583 19.612 17.8682 19.793C17.4239 19.9997 16.8434 20 15.6816 20H14.334V12.2705L14.333 11.6797H19V16.9658Z" fill="#0F0F0F"/>
<path d="M15.6816 4C16.8434 4 17.4239 4.00026 17.8682 4.20703C18.2584 4.38795 18.5743 4.67839 18.7734 5.03516C18.9996 5.44131 19 5.97203 19 7.03418V8.16016H5V7.03418C5 5.97203 5.00041 5.44131 5.22656 5.03516C5.4244 4.67839 5.74164 4.38917 6.13184 4.20703C6.57607 4.00026 7.15663 4 8.31836 4H15.6816Z" fill="#0F0F0F"/>
</svg>
