<svg width="16" height="16" viewBox="0 0 16 16" fill="none" xmlns="http://www.w3.org/2000/svg">
<path d="M6.66602 7.82031V12.5H5.89648C5.23264 12.5 4.90033 12.5001 4.64648 12.3838C4.42356 12.282 4.2427 12.1186 4.12891 11.918C3.99971 11.6896 4 11.3911 4 10.7939V7.82031H6.66602Z" fill="#0F0F0F"/>
<path d="M12 10.7939C12 11.3911 12.0003 11.6896 11.8711 11.918C11.7572 12.1187 11.5756 12.282 11.3525 12.3838C11.0987 12.4999 10.767 12.5 10.1035 12.5H9.33398V8.15234L9.33301 7.82031H12V10.7939Z" fill="#0F0F0F"/>
<path d="M10.1035 3.5C10.7674 3.5 11.0997 3.4999 11.3535 3.61621C11.5764 3.71799 11.7573 3.88137 11.8711 4.08203C12.0003 4.31043 12 4.60892 12 5.20605V5.83984H4V5.20605C4 4.60892 3.99971 4.31043 4.12891 4.08203C4.24193 3.88137 4.42356 3.71868 4.64648 3.61621C4.90033 3.4999 5.23264 3.5 5.89648 3.5H10.1035Z" fill="#0F0F0F"/>
</svg>
