<svg width="20" height="20" viewBox="0 0 20 20" fill="none" xmlns="http://www.w3.org/2000/svg">
<path d="M8.33301 9.75977V16H7.37012C6.54036 16 6.12589 15.9998 5.80859 15.8447C5.52981 15.709 5.30342 15.4913 5.16113 15.2236C4.99971 14.919 5 14.521 5 13.7246V9.75977H8.33301Z" fill="#0F0F0F"/>
<path d="M15 13.7246C15 14.5212 14.9994 14.919 14.8379 15.2236C14.6956 15.4912 14.4701 15.7091 14.1914 15.8447C13.8741 15.9998 13.4596 16 12.6299 16H11.667V10.2031L11.666 9.75977H15V13.7246Z" fill="#0F0F0F"/>
<path d="M12.6299 4C13.4596 4 13.8741 4.0002 14.1914 4.15527C14.4702 4.29097 14.6966 4.50872 14.8389 4.77637C15.0003 5.08095 15 5.47896 15 6.27539V7.12012H5V6.27539C5 5.47896 4.99971 5.08095 5.16113 4.77637C5.30246 4.50872 5.52981 4.29189 5.80859 4.15527C6.12589 4.0002 6.54036 4 7.37012 4H12.6299Z" fill="#0F0F0F"/>
</svg>
