<svg width="20" height="21" viewBox="0 0 20 21" fill="none" xmlns="http://www.w3.org/2000/svg">
<path d="M5.16667 11.9286C6.57094 11.9286 7.27292 11.9285 7.77734 12.2655C7.99572 12.4114 8.18319 12.5989 8.3291 12.8172C8.66614 13.3217 8.66683 14.0236 8.66683 15.4279C8.66683 16.8324 8.66616 17.535 8.3291 18.0394C8.18321 18.2577 7.99565 18.4453 7.77734 18.5912C7.27293 18.9281 6.5708 18.9281 5.16667 18.9281C3.7622 18.9281 3.05962 18.9282 2.55518 18.5912C2.33684 18.4453 2.14931 18.2578 2.00342 18.0394C1.66636 17.535 1.6665 16.8324 1.6665 15.4279C1.6665 14.0238 1.66652 13.3216 2.00342 12.8172C2.14928 12.5989 2.3369 12.4114 2.55518 12.2655C3.05962 11.9284 3.7622 11.9286 5.16667 11.9286Z" fill="#919191"/>
<path d="M14.8363 11.9286C16.2407 11.9286 16.9433 11.9284 17.4478 12.2655C17.666 12.4114 17.8537 12.599 17.9995 12.8172C18.3364 13.3216 18.3364 14.0239 18.3364 15.4279C18.3364 16.8323 18.3365 17.535 17.9995 18.0394C17.8536 18.2577 17.6661 18.4453 17.4478 18.5912C16.9433 18.9282 16.2407 18.9281 14.8363 18.9281C13.4318 18.9281 12.7292 18.9282 12.2248 18.5912C12.0065 18.4453 11.8189 18.2577 11.673 18.0394C11.336 17.535 11.3361 16.8323 11.3361 15.4279C11.3361 14.0239 11.3362 13.3216 11.673 12.8172C11.8188 12.599 12.0066 12.4114 12.2248 12.2655C12.7292 11.9284 13.4318 11.9286 14.8363 11.9286Z" fill="#919191"/>
<path d="M5.16667 2.26141C6.57077 2.26141 7.27294 2.26146 7.77734 2.59833C7.99563 2.74418 8.18321 2.93183 8.3291 3.15009C8.66616 3.65453 8.66683 4.35711 8.66683 5.76158C8.66683 7.16588 8.66612 7.86783 8.3291 8.37225C8.18318 8.59063 7.99572 8.77809 7.77734 8.92401C7.27292 9.26103 6.57097 9.26174 5.16667 9.26174C3.7622 9.26174 3.05962 9.26107 2.55518 8.92401C2.33692 8.77812 2.14927 8.59054 2.00342 8.37225C1.66655 7.86785 1.6665 7.16567 1.6665 5.76158C1.6665 4.35711 1.66636 3.65453 2.00342 3.15009C2.14932 2.93175 2.33684 2.74422 2.55518 2.59833C3.05962 2.26127 3.7622 2.26141 5.16667 2.26141Z" fill="#919191"/>
<path d="M14.8363 2.26141C16.2407 2.26141 16.9433 2.26127 17.4478 2.59833C17.6661 2.74423 17.8536 2.93176 17.9995 3.15009C18.3366 3.65453 18.3364 4.35711 18.3364 5.76158C18.3364 7.16562 18.3363 7.86785 17.9995 8.37225C17.8537 8.59051 17.666 8.77813 17.4478 8.92401C16.9433 9.26107 16.2407 9.26174 14.8363 9.26174C13.4318 9.26174 12.7292 9.26107 12.2248 8.92401C12.0066 8.77814 11.8188 8.59049 11.673 8.37225C11.3362 7.86785 11.3361 7.16559 11.3361 5.76158C11.3361 4.35714 11.336 3.65453 11.673 3.15009C11.8189 2.93177 12.0065 2.74423 12.2248 2.59833C12.7292 2.26127 13.4318 2.26141 14.8363 2.26141Z" fill="#919191"/>
</svg>
