<svg width="20" height="20" viewBox="0 0 20 20" fill="none" xmlns="http://www.w3.org/2000/svg">
<path d="M6.77734 10.8604C8.08152 10.8604 9.1377 11.9175 9.1377 13.2217V15.6377C9.1374 16.9416 8.08134 17.998 6.77734 17.998H4.36133C3.05738 17.9979 2.00029 16.9416 2 15.6377V13.2217C2 11.9175 3.0572 10.8605 4.36133 10.8604H6.77734ZM4.36133 12.3604C3.88563 12.3605 3.5 12.746 3.5 13.2217V15.6377C3.50029 16.1132 3.88581 16.4979 4.36133 16.498H6.77734C7.25292 16.498 7.63741 16.1132 7.6377 15.6377V13.2217C7.6377 12.7459 7.2531 12.3604 6.77734 12.3604H4.36133Z" fill="#0F0F0F"/>
<path d="M14.4287 11.665C14.8427 11.6652 15.1785 12.001 15.1787 12.415V13.6787H16.4424C16.8564 13.6788 17.1922 14.0147 17.1924 14.4287C17.1923 14.8428 16.8565 15.1786 16.4424 15.1787H15.1787V16.4424C15.1787 16.8565 14.8428 17.1923 14.4287 17.1924C14.0147 17.1922 13.6788 16.8564 13.6787 16.4424V15.1787H12.415C12.0009 15.1786 11.6651 14.8428 11.665 14.4287C11.6652 14.0147 12.001 13.6788 12.415 13.6787H13.6787V12.415C13.6789 12.0011 14.0148 11.6652 14.4287 11.665Z" fill="#0F0F0F"/>
<path d="M6.77734 2C8.08152 2.00006 9.13769 3.05714 9.1377 4.36133V6.77734C9.13764 8.08149 8.08149 9.13763 6.77734 9.1377H4.36133C3.05724 9.13757 2.00006 8.08145 2 6.77734V4.36133C2.00001 3.05718 3.05721 2.00012 4.36133 2H6.77734ZM4.36133 3.5C3.88564 3.50012 3.50001 3.88561 3.5 4.36133V6.77734C3.50006 7.25302 3.88567 7.63757 4.36133 7.6377H6.77734C7.25306 7.63763 7.63764 7.25306 7.6377 6.77734V4.36133C7.63769 3.88557 7.25309 3.50006 6.77734 3.5H4.36133Z" fill="#0F0F0F"/>
<path d="M15.6377 2C16.9418 2.00013 17.998 3.05719 17.998 4.36133V6.77734C17.998 8.08144 16.9418 9.13756 15.6377 9.1377H13.2217C11.9175 9.1377 10.8604 8.08153 10.8604 6.77734V4.36133C10.8604 3.0571 11.9175 2 13.2217 2H15.6377ZM13.2217 3.5C12.7459 3.5 12.3604 3.88553 12.3604 4.36133V6.77734C12.3604 7.2531 12.7459 7.6377 13.2217 7.6377H15.6377C16.1133 7.63756 16.498 7.25302 16.498 6.77734V4.36133C16.498 3.88561 16.1134 3.50013 15.6377 3.5H13.2217Z" fill="#0F0F0F"/>
</svg>
