<svg width="28" height="28" viewBox="0 0 28 28" fill="none" xmlns="http://www.w3.org/2000/svg">
<path d="M9.66699 14.918C11.5545 14.918 13.084 16.4474 13.084 18.335V21.585C13.0839 23.4725 11.5545 25.0019 9.66699 25.002H6.41699C4.52948 25.002 3.00007 23.4725 3 21.585V18.335C3 16.4474 4.52944 14.918 6.41699 14.918H9.66699ZM6.41699 17.418C5.91015 17.418 5.5 17.8281 5.5 18.335V21.585C5.50007 22.0917 5.91019 22.502 6.41699 22.502H9.66699C10.1738 22.5019 10.5839 22.0917 10.584 21.585V18.335C10.584 17.8281 10.1738 17.418 9.66699 17.418H6.41699Z" fill="#0F0F0F"/>
<path d="M19.96 16.001C20.6501 16.0011 21.2098 16.5609 21.21 17.251V18.71H22.668C23.3583 18.71 23.9179 19.2697 23.918 19.96C23.9178 20.6502 23.3582 21.21 22.668 21.21H21.21V22.668C21.21 23.3582 20.6502 23.9178 19.96 23.918C19.2696 23.9179 18.71 23.3583 18.71 22.668V21.21H17.251C16.5609 21.2098 16.0011 20.6501 16.001 19.96C16.0011 19.2698 16.5608 18.7101 17.251 18.71H18.71V17.251C18.7101 16.5608 19.2697 16.001 19.96 16.001Z" fill="#0F0F0F"/>
<path d="M9.66699 3C11.5545 3.00001 13.084 4.52945 13.084 6.41699V9.66699C13.084 11.5545 11.5545 13.084 9.66699 13.084H6.41699C4.52944 13.084 3 11.5545 3 9.66699V6.41699C3.00001 4.52945 4.52944 3 6.41699 3H9.66699ZM6.41699 5.5C5.91016 5.5 5.50001 5.91016 5.5 6.41699V9.66699C5.5 10.1738 5.91015 10.584 6.41699 10.584H9.66699C10.1738 10.584 10.584 10.1738 10.584 9.66699V6.41699C10.584 5.91017 10.1738 5.50001 9.66699 5.5H6.41699Z" fill="#0F0F0F"/>
<path d="M21.585 3C23.4724 3.00014 25.0019 4.52954 25.002 6.41699V9.66699C25.002 11.5545 23.4724 13.0838 21.585 13.084H18.335C16.4474 13.084 14.918 11.5545 14.918 9.66699V6.41699C14.918 4.52945 16.4474 3 18.335 3H21.585ZM18.335 5.5C17.8281 5.5 17.418 5.91016 17.418 6.41699V9.66699C17.418 10.1738 17.8281 10.584 18.335 10.584H21.585C22.0917 10.5838 22.502 10.1737 22.502 9.66699V6.41699C22.5019 5.91025 22.0917 5.50014 21.585 5.5H18.335Z" fill="#0F0F0F"/>
</svg>
