<svg width="16" height="16" viewBox="0 0 16 16" fill="none" xmlns="http://www.w3.org/2000/svg">
<path d="M5.61133 8.56934C6.61611 8.56962 7.43047 9.38387 7.43066 10.3887V12.1807C7.43063 13.1856 6.61621 13.9997 5.61133 14H3.81934C2.81429 13.9999 2.00003 13.1857 2 12.1807V10.3887C2.00019 9.38375 2.81439 8.56943 3.81934 8.56934H5.61133ZM3.81934 9.81934C3.50475 9.81943 3.25019 10.0741 3.25 10.3887V12.1807C3.25003 12.4954 3.50465 12.7499 3.81934 12.75H5.61133C5.92585 12.7497 6.18063 12.4953 6.18066 12.1807V10.3887C6.18047 10.0742 5.92575 9.81962 5.61133 9.81934H3.81934Z" fill="#0F0F0F"/>
<path d="M11.2852 9.16699C11.6301 9.16722 11.9102 9.44696 11.9102 9.79199V10.6602H12.7783C13.1233 10.6604 13.4033 10.9401 13.4033 11.2852C13.4032 11.6301 13.1232 11.9099 12.7783 11.9102H11.9102V12.7783C11.91 13.1232 11.63 13.4031 11.2852 13.4033C10.9401 13.4033 10.6603 13.1234 10.6602 12.7783V11.9102H9.79199C9.4469 11.9102 9.16713 11.6302 9.16699 11.2852C9.16699 10.94 9.44681 10.6602 9.79199 10.6602H10.6602V9.79199C10.6602 9.44681 10.94 9.16699 11.2852 9.16699Z" fill="#0F0F0F"/>
<path d="M5.61133 2C6.61617 2.00028 7.43057 2.81445 7.43066 3.81934V5.61133C7.43048 6.61614 6.61612 7.43038 5.61133 7.43066H3.81934C2.81438 7.43057 2.00018 6.61626 2 5.61133V3.81934C2.00009 2.81433 2.81433 2.00009 3.81934 2H5.61133ZM3.81934 3.25C3.50469 3.25009 3.25009 3.50468 3.25 3.81934V5.61133C3.25018 5.9259 3.50474 6.18057 3.81934 6.18066H5.61133C5.92576 6.18038 6.18048 5.92579 6.18066 5.61133V3.81934C6.18057 3.5048 5.92582 3.25028 5.61133 3.25H3.81934Z" fill="#0F0F0F"/>
<path d="M12.1807 2C13.1857 2.00003 13.9999 2.81429 14 3.81934V5.61133C13.9998 6.6163 13.1857 7.43063 12.1807 7.43066H10.3887C9.38377 7.43052 8.56952 6.61623 8.56934 5.61133V3.81934C8.56943 2.81436 9.38371 2.00015 10.3887 2H12.1807ZM10.3887 3.25C10.0741 3.25015 9.81943 3.50472 9.81934 3.81934V5.61133C9.81952 5.92587 10.0741 6.18052 10.3887 6.18066H12.1807C12.4953 6.18063 12.7498 5.92594 12.75 5.61133V3.81934C12.7499 3.50465 12.4954 3.25003 12.1807 3.25H10.3887Z" fill="#0F0F0F"/>
</svg>
