<svg width="25" height="24" viewBox="0 0 25 24" fill="none" xmlns="http://www.w3.org/2000/svg">
<path d="M5.49685 4.29306C8.15442 2.6629 10.5385 3.31259 11.9788 4.3942C12.2157 4.57214 12.3784 4.69392 12.4994 4.77616C12.6205 4.69392 12.7831 4.57214 13.02 4.3942C14.4603 3.31259 16.8444 2.6629 19.502 4.29306C21.3396 5.42025 22.3736 7.77481 22.0108 10.4801C21.6462 13.1985 19.8867 16.273 16.1605 19.0309C14.8666 19.9892 13.917 20.6925 12.4994 20.6925C11.0819 20.6925 10.1322 19.9892 8.83827 19.0309C5.11211 16.273 3.35264 13.1985 2.98806 10.4801C2.62523 7.77481 3.65923 5.42025 5.49685 4.29306Z" fill="#919191"/>
</svg>
