<svg width="25" height="24" viewBox="0 0 25 24" fill="none" xmlns="http://www.w3.org/2000/svg">
<path fill-rule="evenodd" clip-rule="evenodd" d="M12.501 1.41229C13.6556 1.41229 14.7115 1.91283 16.2522 2.64365L19.3179 4.09572C20.0317 4.43382 20.6613 4.7328 21.1041 5.02563C21.5474 5.31883 22.1045 5.79938 22.1045 6.58296L22.1045 17.0827C22.1045 18.1862 21.2988 18.9212 20.308 19.5157C19.305 20.1176 17.6209 20.8282 15.7566 21.6157L14.793 22.0173C13.9054 22.3736 13.2188 22.5875 12.501 22.5875C11.5438 22.5874 10.6425 22.2064 9.24527 21.6157C7.38102 20.8282 5.69685 20.1176 4.69386 19.5157C3.7031 18.9212 2.89844 18.1861 2.89844 17.0827L2.89844 6.58296C2.89844 5.79949 3.45457 5.31884 3.89783 5.02563C4.34062 4.73281 4.97025 4.4338 5.68406 4.09572L8.74967 2.64365C10.2904 1.9128 11.3463 1.41233 12.501 1.41229ZM6.92154 11.3387C6.55677 11.1565 6.1128 11.3042 5.93033 11.6688C5.74788 12.0337 5.89652 12.4776 6.26141 12.66L8.23056 13.6451C8.59529 13.8272 9.03931 13.6796 9.22177 13.315C9.40409 12.9503 9.25623 12.5064 8.89171 12.3238L6.92154 11.3387ZM9.82774 8.9445C11.3134 9.64278 11.8973 9.87435 12.501 9.8744C13.1606 9.8744 13.7971 9.59765 15.6115 8.73808L18.4166 7.40965C19.2148 7.03151 19.7145 6.79119 20.0281 6.58398C19.7145 6.37681 19.2145 6.13734 18.4166 5.75933L17.3579 5.25759L9.82774 8.9445ZM12.501 3.29356C11.8414 3.29361 11.2055 3.57046 9.3914 4.42988L6.58637 5.75933C5.78795 6.13757 5.2874 6.37673 4.97386 6.58398C5.2874 6.79123 5.78791 7.03139 6.58637 7.40965L7.644 7.91037L15.1752 4.22448C13.689 3.52593 13.1047 3.29356 12.501 3.29356Z" fill="#919191"/>
</svg>
