<svg width="24" height="24" viewBox="0 0 24 24" fill="none" xmlns="http://www.w3.org/2000/svg">
<path d="M3.35645 11.999C3.35645 7.92441 3.35645 5.88711 4.62226 4.62129C5.88808 3.35547 7.92539 3.35547 12 3.35547C16.0746 3.35547 18.1119 3.35547 19.3777 4.62129C20.6436 5.88711 20.6436 7.92441 20.6436 11.999C20.6436 16.0736 20.6436 18.1109 19.3777 19.3768C18.1119 20.6426 16.0746 20.6426 12 20.6426C7.92539 20.6426 5.88808 20.6426 4.62226 19.3768C3.35645 18.1109 3.35645 16.0736 3.35645 11.999Z" stroke="#0F9FFF" stroke-width="1.5"/>
<path d="M7.90625 16.5477C10.0277 14.3257 13.9506 14.2211 16.0949 16.5477M14.2707 9.72384C14.2707 10.9801 13.2509 11.9985 11.9929 11.9985C10.7348 11.9985 9.715 10.9801 9.715 9.72384C9.715 8.4676 10.7348 7.44922 11.9929 7.44922C13.2509 7.44922 14.2707 8.4676 14.2707 9.72384Z" stroke="#0F9FFF" stroke-width="1.5" stroke-linecap="round"/>
</svg>
