<svg width="24" height="24" viewBox="0 0 24 24" fill="none" xmlns="http://www.w3.org/2000/svg">
<path fill-rule="evenodd" clip-rule="evenodd" d="M11.9929 6.70093C10.3216 6.70093 8.965 8.05409 8.965 9.72555C8.965 11.397 10.3216 12.7502 11.9929 12.7502C13.6641 12.7502 15.0207 11.397 15.0207 9.72555C15.0207 8.05409 13.6641 6.70093 11.9929 6.70093ZM10.465 9.72555C10.465 8.88453 11.148 8.20093 11.9929 8.20093C12.8377 8.20093 13.5207 8.88453 13.5207 9.72555C13.5207 10.5666 12.8377 11.2502 11.9929 11.2502C11.148 11.2502 10.465 10.5666 10.465 9.72555Z" fill="#1E1E1E"/>
<path d="M8.44871 17.0673C10.2889 15.1399 13.7097 15.0681 15.5434 17.0577C15.8241 17.3623 16.2986 17.3816 16.6032 17.1009C16.9077 16.8202 16.9271 16.3457 16.6464 16.0411C14.1915 13.3775 9.76658 13.5149 7.36379 16.0315C7.07776 16.3311 7.08874 16.8058 7.38833 17.0919C7.68792 17.3779 8.16267 17.3669 8.44871 17.0673Z" fill="#1E1E1E"/>
<path fill-rule="evenodd" clip-rule="evenodd" d="M12.0568 2.60645H11.9432C9.95407 2.60643 8.38472 2.60642 7.1579 2.77136C5.89785 2.94077 4.88742 3.29645 4.09194 4.09194C3.29645 4.88742 2.94077 5.89785 2.77136 7.1579C2.60642 8.38472 2.60643 9.95406 2.60645 11.9432V12.0568C2.60643 14.0459 2.60642 15.6153 2.77136 16.8421C2.94077 18.1021 3.29645 19.1126 4.09194 19.9081C4.88742 20.7036 5.89785 21.0592 7.1579 21.2286C8.38473 21.3936 9.95407 21.3936 11.9432 21.3936H12.0568C14.0459 21.3936 15.6153 21.3936 16.8421 21.2286C18.1021 21.0592 19.1126 20.7036 19.9081 19.9081C20.7036 19.1126 21.0592 18.1021 21.2286 16.8421C21.3936 15.6153 21.3936 14.0459 21.3936 12.0568V11.9432C21.3936 9.95407 21.3936 8.38473 21.2286 7.1579C21.0592 5.89785 20.7036 4.88742 19.9081 4.09194C19.1126 3.29645 18.1021 2.94077 16.8421 2.77136C15.6153 2.60642 14.0459 2.60643 12.0568 2.60645ZM5.1526 5.1526C5.62293 4.68226 6.26406 4.40503 7.35777 4.25799C8.47306 4.10804 9.94149 4.10645 12 4.10645C14.0585 4.10645 15.5269 4.10804 16.6422 4.25799C17.7359 4.40503 18.3771 4.68226 18.8474 5.1526C19.3177 5.62293 19.595 6.26406 19.742 7.35777C19.892 8.47306 19.8936 9.94149 19.8936 12C19.8936 14.0585 19.892 15.5269 19.742 16.6422C19.595 17.7359 19.3177 18.3771 18.8474 18.8474C18.3771 19.3177 17.7359 19.595 16.6422 19.742C15.5269 19.892 14.0585 19.8936 12 19.8936C9.94149 19.8936 8.47306 19.892 7.35777 19.742C6.26406 19.595 5.62293 19.3177 5.1526 18.8474C4.68226 18.3771 4.40503 17.7359 4.25799 16.6422C4.10804 15.5269 4.10645 14.0585 4.10645 12C4.10645 9.94149 4.10804 8.47306 4.25799 7.35777C4.40503 6.26406 4.68226 5.62293 5.1526 5.1526Z" fill="#1E1E1E"/>
</svg>
