<svg width="22" height="22" viewBox="0 0 22 22" fill="none" xmlns="http://www.w3.org/2000/svg">
<g clip-path="url(#clip0_8783_4822)">
<path d="M0 11C0 4.92487 4.92487 0 11 0C17.0751 0 22 4.92487 22 11C22 17.0751 17.0751 22 11 22C4.92487 22 0 17.0751 0 11Z" fill="white"/>
<path d="M0 11C0 4.92487 4.92487 0 11 0C17.0751 0 22 4.92487 22 11C22 17.0751 17.0751 22 11 22C4.92487 22 0 17.0751 0 11Z" fill="#1E1E1E" fill-opacity="0.1"/>
<path d="M19.4219 11.0451C19.4219 11.1305 19.4207 11.2159 19.4182 11.3013H19.4085H15.3219V11.1147H11.3794C11.3794 11.0756 11.3806 11.0366 11.3806 10.9988C11.3806 10.9609 11.3806 10.9207 11.3794 10.8829H15.3219V10.6975H15.328H19.4145C19.4194 10.8134 19.4219 10.9292 19.4219 11.0451ZM11.3098 10.2047L15.1683 9.73014L15.1915 9.91558L19.2658 9.41417C19.2267 9.21415 19.1803 9.01652 19.1279 8.82256L15.117 9.31663L15.1402 9.50198L11.2635 9.97902C11.2806 10.0546 11.2964 10.1303 11.3098 10.2071V10.2047ZM11.1085 9.45808L14.7962 8.53711L14.8413 8.71766L18.7546 7.74055C18.6741 7.55147 18.5875 7.36483 18.4948 7.18307L14.6962 8.13213L14.7413 8.31266L11.0232 9.2422C11.0537 9.31416 11.0818 9.38612 11.1085 9.45936V9.45808ZM10.7816 8.75913L14.229 7.45754L14.2949 7.63198L17.9422 6.25477C17.8239 6.08154 17.6995 5.91321 17.5677 5.74975L14.0814 7.06597L14.1472 7.24041L10.6585 8.55785C10.7012 8.62372 10.7426 8.69082 10.7816 8.75913ZM10.3291 8.1126L13.3738 6.52558L13.4592 6.69147L16.8261 4.9361C16.6711 4.78606 16.5101 4.64334 16.3442 4.5055L13.1799 6.15474L13.2653 6.32064L10.1693 7.9345C10.2229 7.99306 10.2767 8.05161 10.3279 8.1126H10.3291ZM9.59475 7.41484L12.3516 5.66192L12.4516 5.81928L15.494 3.88459C15.3025 3.76261 15.1072 3.64916 14.906 3.54303L12.1283 5.30938L12.2284 5.46674L9.39226 7.26968C9.46174 7.31604 9.52884 7.36483 9.59594 7.41484H9.59475ZM8.94332 7.00741L11.2537 5.11298L11.3721 5.25693L13.974 3.12218C13.7532 3.03801 13.5263 2.96238 13.297 2.89651L10.989 4.78972L11.1073 4.93367L8.71277 6.89763C8.79084 6.93179 8.8677 6.96838 8.94332 7.00741ZM8.08088 6.67196L9.90578 4.85559L10.0363 4.98734L12.3553 2.68303C12.1039 2.64156 11.849 2.61106 11.5904 2.59155L9.61299 4.55917L9.74353 4.69091L7.81618 6.60853C7.90523 6.62682 7.99306 6.64756 8.08088 6.67196ZM7.07207 6.51947L8.52736 4.75557L8.6713 4.87389L10.5658 2.57812C10.2779 2.59155 9.99359 2.6196 9.71428 2.66107L8.20531 4.48964L8.34926 4.60796L6.7732 6.51825C6.81712 6.51703 6.86225 6.51581 6.90617 6.51581C6.96228 6.51581 7.01718 6.51581 7.07207 6.51825V6.51947ZM6.19988 6.57193L7.32092 4.8373L7.47706 4.93854L8.83232 2.84039C8.52248 2.9209 8.21995 3.01849 7.92475 3.13194L6.97082 4.60918L7.12696 4.71043L5.88515 6.63292C5.98884 6.60853 6.09374 6.58779 6.19988 6.57071V6.57193ZM5.23131 6.84151L6.03763 5.33011L6.20109 5.41795L7.26846 3.41861C6.92568 3.58572 6.59632 3.77481 6.28161 3.98461L5.66802 5.13372L5.8327 5.22155L4.88365 7.0001C4.99588 6.94276 5.11176 6.89031 5.23009 6.84273L5.23131 6.84151ZM4.53599 7.19649L4.87877 6.22305L5.05443 6.28526L5.72047 4.39449C5.38258 4.66285 5.06541 4.95562 4.77142 5.27157L4.48475 6.08521L4.66042 6.14742L4.21151 7.42095C4.31642 7.34166 4.42377 7.26724 4.53477 7.19771L4.53599 7.19649ZM3.68087 7.89303L3.83213 7.18551L4.01389 7.22455L4.31886 5.79976C3.99803 6.20719 3.71381 6.64512 3.47106 7.10745L3.60646 7.13672L3.32833 8.30778C3.4369 8.16261 3.55523 8.02356 3.68087 7.89303ZM3.05265 8.72009V7.78324C2.82575 8.38219 2.66473 9.12752 2.57812 9.8582C2.68426 9.45322 2.84527 9.07141 3.05265 8.72009ZM2.58422 12.1637C2.67327 12.787 2.82941 13.3885 3.04655 13.9606V13.2689C2.8465 12.9274 2.68913 12.5565 2.58422 12.1637ZM3.35761 13.7312L3.60036 14.8633L3.46496 14.8925C3.70771 15.3561 3.99194 15.7928 4.31276 16.2002L4.0078 14.7755L3.82604 14.8145L3.67233 14.0984C3.56132 13.9814 3.4552 13.8594 3.35761 13.73V13.7312ZM4.20297 14.573L4.65432 15.8538L4.47866 15.916L4.76533 16.7296C5.05931 17.0456 5.37647 17.3384 5.71437 17.6067L5.04833 15.716L4.87267 15.7781L4.52867 14.7999C4.41766 14.7291 4.30909 14.6547 4.20419 14.5754L4.20297 14.573ZM4.87633 14.9962L5.82782 16.7797L5.66314 16.8675L6.27672 18.0166C6.59145 18.2264 6.92081 18.4155 7.26358 18.5826L6.19622 16.5832L6.03153 16.6711L5.22277 15.1561C5.10444 15.1085 4.98855 15.0548 4.87511 14.9975L4.87633 14.9962ZM5.87783 15.3646L7.12086 17.2895L6.96472 17.3908L7.91864 18.868C8.21386 18.9815 8.51637 19.0791 8.82622 19.1596L7.47096 17.0615L7.31482 17.1627L6.19255 15.4257C6.08643 15.4085 5.9803 15.3878 5.87661 15.3634L5.87783 15.3646ZM6.76589 15.4818L8.34193 17.392L8.198 17.5104L9.70695 19.3389C9.98626 19.3804 10.2705 19.4085 10.5584 19.4219L8.66398 17.1249L8.52003 17.2432L7.06475 15.4793C7.0123 15.4818 6.95862 15.4818 6.90495 15.4818C6.85859 15.4818 6.81102 15.4818 6.76466 15.4793L6.76589 15.4818ZM7.8113 15.3915L9.73747 17.3079L9.60694 17.4396L11.5843 19.4072C11.8429 19.3877 12.0979 19.3573 12.3492 19.3157L10.0314 17.0102L9.89973 17.1432L8.07601 15.328C7.9894 15.3512 7.90035 15.3731 7.8113 15.3915ZM8.70911 15.1048L11.1013 17.0676L10.983 17.2115L13.2908 19.1047C13.5202 19.0388 13.7471 18.9632 13.9679 18.879L11.3647 16.7443L11.2464 16.8882L8.93844 14.995C8.86281 15.0341 8.78597 15.0706 8.70789 15.1048H8.70911ZM9.38731 14.7316L12.2198 16.5333L12.1198 16.6906L14.8974 18.457C15.0987 18.3508 15.2951 18.2362 15.4854 18.1154L12.4431 16.1807L12.3431 16.3381L9.58989 14.5876C9.52279 14.6376 9.45569 14.6864 9.38612 14.7328L9.38731 14.7316ZM10.168 14.0679L13.2604 15.6794L13.175 15.8452L16.3393 17.4945C16.5052 17.3566 16.6662 17.2139 16.8211 17.0639L13.4544 15.3085L13.3689 15.4744L10.3279 13.8898C10.2767 13.9508 10.2241 14.0106 10.1693 14.0679H10.168ZM10.6573 13.4434L14.1411 14.7596L14.0752 14.9341L17.5616 16.2502C17.6921 16.0868 17.8165 15.9185 17.9361 15.7452L14.2887 14.368L14.2228 14.5425L10.7805 13.2421C10.7414 13.3104 10.6999 13.3775 10.6573 13.4434ZM11.022 12.7603L14.7339 13.6873L14.6889 13.8679L18.4874 14.8169C18.5814 14.6351 18.668 14.4485 18.7485 14.2595L14.8352 13.2823L14.79 13.4629L11.1073 12.5431C11.0805 12.6163 11.0512 12.6883 11.022 12.7603ZM11.2635 12.0235L15.1341 12.4992L15.1109 12.6847L19.1218 13.1786C19.1743 12.9835 19.2206 12.7859 19.2596 12.587L15.1853 12.0857L15.1621 12.271L11.3098 11.7966C11.2964 11.8734 11.2806 11.949 11.2635 12.0246V12.0235Z" fill="#919191"/>
</g>
<defs>
<clipPath id="clip0_8783_4822">
<path d="M0 11C0 4.92487 4.92487 0 11 0C17.0751 0 22 4.92487 22 11C22 17.0751 17.0751 22 11 22C4.92487 22 0 17.0751 0 11Z" fill="white"/>
</clipPath>
</defs>
</svg>
