<svg width="24" height="24" viewBox="0 0 24 24" fill="none" xmlns="http://www.w3.org/2000/svg">
<path d="M12.0008 14.7499C12.6909 14.7502 13.2508 15.3098 13.2508 15.9999C13.2506 16.69 12.6908 17.2496 12.0008 17.2499C11.3105 17.2499 10.7509 16.6902 10.7508 15.9999C10.7508 15.3096 11.3104 14.7499 12.0008 14.7499Z" fill="#0F0F0F"/>
<path d="M11.9998 7.99992C12.552 7.99997 12.9997 8.44774 12.9998 8.99992V12.4999C12.9996 13.052 12.5519 13.4999 11.9998 13.4999C11.4478 13.4997 11 13.0519 10.9998 12.4999V8.99992C10.9999 8.44784 11.4477 8.00013 11.9998 7.99992Z" fill="#0F0F0F"/>
<path d="M9.30546 4.29484C10.4964 2.20901 13.5032 2.20901 14.6941 4.29484L21.5857 16.3554L21.6883 16.5507C22.6724 18.582 21.1993 20.9979 18.8914 20.998H5.10819C2.72588 20.9976 1.23178 18.4239 2.41386 16.3554L9.30546 4.29484ZM12.9568 5.28605C12.5334 4.54518 11.4662 4.54522 11.0428 5.28605L11.0418 5.28703L4.15018 17.3476C3.73099 18.0823 4.26143 18.9976 5.10819 18.998H18.8914C19.7373 18.9979 20.2682 18.0831 19.8484 17.3476L12.9568 5.28605Z" fill="#0F0F0F"/>
</svg>
