<svg width="28" height="28" viewBox="0 0 28 28" fill="none" xmlns="http://www.w3.org/2000/svg">
<path d="M10.8757 4.16696C12.4036 1.87027 15.8683 1.94686 17.2673 4.39645L25.4997 18.8047L25.6247 19.042C26.8174 21.5046 25.0311 24.4334 22.2331 24.4336H5.76828C2.87959 24.4333 1.06801 21.3127 2.50168 18.8047L10.7341 4.39645L10.8757 4.16696ZM14.0017 8.9863C13.3115 8.9863 12.752 9.54623 12.7517 10.2363V14.248C12.752 14.9381 13.3115 15.498 14.0017 15.498C14.6915 15.4975 15.2514 14.9378 15.2517 14.248V10.2363C15.2513 9.54652 14.6914 8.98677 14.0017 8.9863ZM15.4587 18.458C15.4586 17.6529 14.8057 17.0003 14.0007 17C13.1954 17 12.5419 17.6527 12.5417 18.458C12.5418 19.2634 13.1953 19.917 14.0007 19.917C14.8058 19.9166 15.4587 19.2632 15.4587 18.458Z" fill="#0F0F0F"/>
</svg>
