<svg width="25" height="24" viewBox="0 0 25 24" fill="none" xmlns="http://www.w3.org/2000/svg">
<path d="M12.4963 1.92285C13.4799 1.92285 14.2547 2.66579 14.7493 3.66824L16.4011 6.99912C16.4512 7.1022 16.5699 7.24737 16.7484 7.38016C16.9267 7.51281 17.1013 7.58599 17.2162 7.6053L20.2062 8.10618C21.2863 8.28767 22.1915 8.81708 22.4854 9.73895C22.779 10.66 22.3488 11.6173 21.5722 12.3953L21.5714 12.3961L19.2486 14.7382C19.1565 14.831 19.0534 15.0059 18.9887 15.2337C18.9244 15.4599 18.9187 15.666 18.9479 15.7992L18.9483 15.8011L19.6128 18.6983C19.8885 19.9042 19.7971 21.0999 18.9467 21.725C18.0933 22.3523 16.9271 22.0743 15.8677 21.4433L13.0648 19.7704C12.9471 19.7 12.745 19.6431 12.501 19.6431C12.2588 19.6431 12.0524 19.6993 11.9271 19.7722L11.9253 19.7733L9.12797 21.4429C8.06978 22.0761 6.90503 22.3492 6.05157 21.7213C5.2017 21.0961 5.10575 19.9026 5.38226 18.6977L6.04669 15.8011L6.0471 15.7992C6.07623 15.666 6.07053 15.4599 6.00629 15.2337C5.94161 15.0059 5.83848 14.831 5.74642 14.7382L3.42188 12.3944C2.65019 11.6163 2.22138 10.66 2.51267 9.74022C2.80482 8.81779 3.70833 8.28773 4.78908 8.10612L7.77662 7.60566L7.77757 7.60549C7.8871 7.5865 8.05914 7.51413 8.23704 7.38114C8.41527 7.24789 8.53431 7.10242 8.58449 6.99912L8.58702 6.99397L10.2367 3.66736L10.2373 3.66605C10.7367 2.66442 11.5138 1.92285 12.4963 1.92285Z" fill="#919191"/>
</svg>
