<svg width="16" height="16" viewBox="0 0 16 16" fill="none" xmlns="http://www.w3.org/2000/svg">
<g clip-path="url(#clip0_32076_109205)">
<path d="M8.10872 9.78255C8.38477 9.78266 8.60872 10.0065 8.60872 10.2826C8.60872 10.5586 8.38477 10.7824 8.10872 10.7826H7.26497C6.98883 10.7826 6.76497 10.5587 6.76497 10.2826C6.76497 10.0064 6.98883 9.78255 7.26497 9.78255H8.10872Z" fill="#656565"/>
<path d="M11.6712 9.78255C11.9473 9.78264 12.1712 10.0065 12.1712 10.2826C12.1712 10.5586 11.9473 10.7825 11.6712 10.7826H9.73112C9.45507 10.7824 9.23112 10.5586 9.23112 10.2826C9.23112 10.0065 9.45507 9.78266 9.73112 9.78255H11.6712Z" fill="#656565"/>
<path fill-rule="evenodd" clip-rule="evenodd" d="M11.0658 3.15625C11.8427 3.15625 12.2316 3.15711 12.5488 3.2487C13.3185 3.47109 13.9201 4.07278 14.1426 4.84245C14.2342 5.15966 14.2344 5.54869 14.2344 6.32552V9.08268L14.2305 9.94792C14.2185 10.706 14.1711 11.1674 13.9805 11.5417L13.89 11.7025C13.6658 12.0678 13.3443 12.3662 12.9603 12.5618L12.8652 12.6061C12.5075 12.7598 12.0618 12.8009 11.3665 12.8118L10.5013 12.8158H5.4987C4.27403 12.8158 3.62317 12.8156 3.13542 12.6061L3.03971 12.5618C2.6556 12.3661 2.3342 12.0679 2.11003 11.7025L2.02018 11.5417C1.82951 11.1674 1.78146 10.7062 1.76953 9.94792L1.76563 9.08268V6.32552C1.76563 5.64582 1.76548 5.26298 1.82682 4.96549L1.85742 4.84245C2.06594 4.12093 2.60819 3.54713 3.30924 3.29492L3.45117 3.2487C3.76839 3.15707 4.15742 3.15625 4.93424 3.15625H11.0658ZM2.76562 9.08268C2.76563 9.75235 2.76659 10.195 2.79427 10.5339C2.82101 10.8607 2.86748 11.0028 2.91081 11.0879C3.0386 11.3386 3.24276 11.5428 3.49349 11.6706C3.57856 11.7139 3.72111 11.761 4.04818 11.7878C4.38696 11.8154 4.82933 11.8158 5.4987 11.8158H10.5013C11.1709 11.8158 11.6136 11.8154 11.9525 11.7878C12.2791 11.7611 12.4214 11.7139 12.5065 11.6706C12.7573 11.5428 12.9614 11.3386 13.0892 11.0879C13.1325 11.0028 13.179 10.8607 13.2057 10.5339C13.2334 10.195 13.2344 9.75235 13.2344 9.08268V6.82552H2.76562V9.08268ZM4.93424 4.1569C4.08867 4.1569 3.87615 4.16659 3.72917 4.20898C3.28939 4.33614 2.94475 4.68062 2.81771 5.12044C2.78538 5.23275 2.7721 5.38377 2.76758 5.82552H13.2324C13.2279 5.38353 13.2147 5.23277 13.1823 5.12044C13.0552 4.68057 12.7113 4.33611 12.2715 4.20898C12.1245 4.16656 11.9118 4.1569 11.0658 4.1569H4.93424Z" fill="#656565"/>
</g>
<defs>
<clipPath id="clip0_32076_109205">
<rect width="16" height="16" fill="white"/>
</clipPath>
</defs>
</svg>
