<svg width="24" height="24" viewBox="0 0 24 24" fill="none" xmlns="http://www.w3.org/2000/svg">
<path d="M6.87679 8.74219C6.43138 8.74219 6.07031 9.10326 6.07031 9.54866C6.07031 9.99406 6.43138 10.3551 6.87679 10.3551H10.6403C11.0857 10.3551 11.4468 9.99406 11.4468 9.54866C11.4468 9.10326 11.0857 8.74219 10.6403 8.74219H6.87679Z" fill="#1E1E1E"/>
<path fill-rule="evenodd" clip-rule="evenodd" d="M6.27734 4.68359C4.20628 4.68359 2.52734 6.36253 2.52734 8.43359V15.5661C2.52734 17.6371 4.20628 19.3161 6.27734 19.3161H17.7222C19.7932 19.3161 21.4722 17.6371 21.4722 15.5661V8.43359C21.4722 6.36253 19.7932 4.68359 17.7222 4.68359H6.27734ZM4.02734 8.43359C4.02734 7.19095 5.0347 6.18359 6.27734 6.18359H17.7222C18.9648 6.18359 19.9722 7.19095 19.9722 8.43359V15.5661C19.9722 16.8087 18.9648 17.8161 17.7222 17.8161H6.27734C5.0347 17.8161 4.02734 16.8087 4.02734 15.5661V8.43359Z" fill="#1E1E1E"/>
</svg>
