<svg width="22" height="22" viewBox="0 0 22 22" fill="none" xmlns="http://www.w3.org/2000/svg">
<path fill-rule="evenodd" clip-rule="evenodd" d="M10.8061 17.8827C10.8942 18.0391 11.1058 18.0391 11.1939 17.8827L14.9102 11.2904C15.0308 11.0765 15.0299 10.8084 14.9078 10.5955L11.193 4.11571C11.1046 3.96143 10.8954 3.96143 10.807 4.11571L7.09219 10.5955C6.97015 10.8084 6.96921 11.0765 7.08977 11.2904L10.8061 17.8827ZM12.9077 10.9422C13.1277 10.9422 13.2637 10.6851 13.1507 10.4827L11.2402 7.06214C11.1309 6.86647 10.8669 6.86502 10.7557 7.05946L8.80024 10.4801C8.68463 10.6823 8.82042 10.9422 9.04173 10.9422H12.9077Z" fill="#919191"/>
<path d="M10.9434 8.66572C10.5523 8.66572 10.2353 9.00545 10.2353 9.42453C10.2353 9.84361 10.5523 10.1833 10.9434 10.1833C11.3344 10.1833 11.6514 9.84361 11.6514 9.42453C11.6514 9.00545 11.3344 8.66572 10.9434 8.66572Z" fill="#919191"/>
<path fill-rule="evenodd" clip-rule="evenodd" d="M10.8061 17.8827C10.8942 18.0391 11.1058 18.0391 11.1939 17.8827L14.9102 11.2904C15.0308 11.0765 15.0299 10.8084 14.9078 10.5955L11.193 4.11571C11.1046 3.96143 10.8954 3.96143 10.807 4.11571L7.09219 10.5955C6.97015 10.8084 6.96921 11.0765 7.08977 11.2904L10.8061 17.8827ZM12.9077 10.9422C13.1277 10.9422 13.2637 10.6851 13.1507 10.4827L11.2402 7.06214C11.1309 6.86647 10.8669 6.86502 10.7557 7.05946L8.80024 10.4801C8.68463 10.6823 8.82042 10.9422 9.04173 10.9422H12.9077Z" fill="#919191"/>
<path d="M10.9434 8.66572C10.5523 8.66572 10.2353 9.00545 10.2353 9.42453C10.2353 9.84361 10.5523 10.1833 10.9434 10.1833C11.3344 10.1833 11.6514 9.84361 11.6514 9.42453C11.6514 9.00545 11.3344 8.66572 10.9434 8.66572Z" fill="#919191"/>
</svg>
