<svg width="16" height="16" viewBox="0 0 16 16" fill="none" xmlns="http://www.w3.org/2000/svg">
<path d="M9.82373 2.81964C10.7514 1.892 12.2552 1.8923 13.1831 2.81964L13.3462 2.99933C14.1073 3.9325 14.053 5.30919 13.1831 6.17902C12.2554 7.10648 10.7516 7.1063 9.82373 6.17902C9.79204 6.14728 9.76244 6.11242 9.73291 6.07941L6.82763 7.53156C6.88943 7.84028 6.88934 8.15835 6.82763 8.4671L9.73388 9.92023C9.76337 9.88728 9.79208 9.85324 9.82373 9.82159C10.7514 8.89395 12.2552 8.89425 13.1831 9.82159L13.3462 10.0013C14.1074 10.9345 14.053 12.3111 13.1831 13.181C12.2553 14.1086 10.7516 14.1084 9.82373 13.181C9.24157 12.5985 9.0245 11.7887 9.17334 11.0374L6.26611 9.58331C6.23753 9.61513 6.21077 9.64939 6.18017 9.67999C5.25236 10.6074 3.74858 10.6075 2.8208 9.67999C1.89346 8.75221 1.89332 7.24832 2.8208 6.32062C3.74851 5.39298 5.25228 5.39328 6.18017 6.32062L6.26611 6.41534L9.17334 4.96222C9.02478 4.21105 9.24152 3.40191 9.82373 2.81964ZM12.2144 10.6282C11.7721 10.2677 11.1197 10.2932 10.7075 10.7054C10.6345 10.7784 10.5737 10.8591 10.5249 10.9446C10.5175 10.964 10.5128 10.9853 10.5034 11.0042C10.4931 11.0249 10.4786 11.0429 10.4663 11.0618C10.2929 11.4713 10.3739 11.9632 10.7075 12.2972C11.1472 12.7365 11.8597 12.7366 12.2993 12.2972C12.7115 11.885 12.7372 11.2325 12.3765 10.7903L12.2993 10.7054L12.2144 10.6282ZM5.21142 7.12726C4.76918 6.76667 4.11679 6.79225 3.70459 7.20441C3.26528 7.64394 3.26543 8.35657 3.70459 8.7962C4.14422 9.23552 4.85673 9.23548 5.29638 8.7962C5.36974 8.72284 5.43011 8.64101 5.479 8.55499C5.48577 8.53765 5.49104 8.51924 5.49951 8.50226C5.50903 8.48329 5.5226 8.46611 5.53369 8.44855C5.65815 8.1617 5.65653 7.83358 5.53076 7.54718C5.52072 7.53112 5.50815 7.51562 5.49951 7.49835C5.49104 7.48123 5.48583 7.4621 5.479 7.44464C5.44849 7.391 5.41358 7.33845 5.37353 7.28937L5.29638 7.20441L5.21142 7.12726ZM12.2144 3.62628C11.7721 3.2657 11.1197 3.29127 10.7075 3.70343C10.3735 4.03753 10.2936 4.52909 10.4673 4.93878C10.4793 4.95749 10.4932 4.9761 10.5034 4.9964C10.5126 5.01479 10.5177 5.03519 10.5249 5.05402C10.5737 5.1398 10.6344 5.22202 10.7075 5.29523C11.1472 5.73436 11.8597 5.73454 12.2993 5.29523C12.7115 4.88306 12.7371 4.23058 12.3765 3.78839L12.2993 3.70343L12.2144 3.62628Z" fill="#0F0F0F"/>
</svg>
