<svg width="20" height="20" viewBox="0 0 20 20" fill="none" xmlns="http://www.w3.org/2000/svg">
<path d="M12.3772 3.37841C13.5488 2.20731 15.4479 2.20709 16.6194 3.37841L16.7258 3.48973C17.7901 4.66724 17.7541 6.48547 16.6194 7.62059C15.4478 8.7919 13.5487 8.79206 12.3772 7.62059C12.3273 7.57068 12.2803 7.51874 12.2346 7.4663L8.42995 9.36864C8.51871 9.78365 8.52065 10.2134 8.4319 10.6284L12.2346 12.5298C12.28 12.4777 12.3276 12.426 12.3772 12.3765C13.5487 11.2054 15.4479 11.2053 16.6194 12.3765L16.7258 12.4878C17.7901 13.6653 17.7541 15.4835 16.6194 16.6186C15.4478 17.7901 13.5488 17.7902 12.3772 16.6186C11.6315 15.8728 11.3629 14.8326 11.5667 13.8725L7.75709 11.9683C7.71291 12.0188 7.66947 12.0714 7.62135 12.1196C6.44983 13.2911 4.55077 13.291 3.37916 12.1196C2.20761 10.948 2.20758 9.049 3.37916 7.87743C4.5508 6.70653 6.44997 6.70612 7.62135 7.87743L7.7278 7.98876C7.73882 8.00095 7.74826 8.01451 7.75905 8.02684L11.5667 6.12352C11.3633 5.16383 11.6318 4.12394 12.3772 3.37841ZM15.4456 13.3335C14.8565 12.8533 13.9869 12.8883 13.4378 13.437C13.3456 13.5292 13.2685 13.6314 13.2053 13.7388C13.1944 13.771 13.1829 13.8041 13.1673 13.8354C13.1508 13.8683 13.1301 13.8989 13.1096 13.9282C12.8874 14.4707 12.9973 15.1175 13.4378 15.5581C14.0235 16.1438 14.973 16.1438 15.5589 15.5581C16.1075 15.009 16.1424 14.1403 15.6624 13.5513L15.5589 13.437L15.4456 13.3335ZM6.44752 8.83446C5.85857 8.35408 4.98896 8.38941 4.43971 8.93798C3.85392 9.52376 3.85394 10.4733 4.43971 11.0591C5.02553 11.6446 5.97507 11.6448 6.56081 11.0591C6.65438 10.9654 6.73153 10.8608 6.79518 10.7515C6.80525 10.7233 6.81762 10.6949 6.83131 10.6675C6.8454 10.6394 6.8612 10.6119 6.87819 10.5864C7.03699 10.2135 7.03917 9.78991 6.88209 9.41649C6.86365 9.38931 6.84643 9.36073 6.83131 9.33055C6.81696 9.30182 6.80458 9.2722 6.7942 9.24266C6.75582 9.17704 6.71353 9.11263 6.66432 9.05223L6.56081 8.93798L6.44752 8.83446ZM15.4456 4.33544C14.8565 3.85507 13.987 3.89021 13.4378 4.43895C12.9973 4.87963 12.8883 5.52628 13.1106 6.06884C13.1311 6.09833 13.1507 6.1295 13.1673 6.16259C13.1825 6.19307 13.1936 6.22496 13.2044 6.25634C13.2678 6.36456 13.3449 6.4672 13.4378 6.56005C14.0235 7.14574 14.973 7.14557 15.5589 6.56005C16.1075 6.01096 16.1424 5.14222 15.6624 4.55321L15.5589 4.43895L15.4456 4.33544Z" fill="#0F0F0F"/>
</svg>
