<svg width="28" height="28" viewBox="0 0 28 28" fill="none" xmlns="http://www.w3.org/2000/svg">
<path d="M16.888 5.21998C18.5153 3.59279 21.154 3.59324 22.7815 5.21998C24.409 6.84748 24.409 9.486 22.7815 11.1135C21.154 12.7411 18.5155 12.7411 16.888 11.1135C16.8705 11.096 16.8533 11.0775 16.8362 11.0598L12.2796 13.3381C12.3499 13.777 12.3498 14.2245 12.2796 14.6633L16.8362 16.9417C16.8534 16.9238 16.8704 16.9055 16.888 16.8879C18.5153 15.2607 21.154 15.2612 22.7815 16.8879C24.409 18.5155 24.409 21.154 22.7815 22.7815C21.154 24.409 18.5155 24.409 16.888 22.7815C15.9073 21.8004 15.5173 20.4517 15.719 19.179L11.1595 16.8987C11.144 16.9146 11.1293 16.9317 11.1136 16.9475C9.48602 18.5749 6.84749 18.575 5.22001 16.9475C3.59331 15.32 3.59286 12.6812 5.22001 11.054C6.84727 9.42676 9.48598 9.42726 11.1136 11.054C11.1293 11.0697 11.145 11.0869 11.1604 11.1028L15.719 8.82252C15.5176 7.54982 15.9071 6.20086 16.888 5.21998ZM21.014 18.6555C20.3627 18.005 19.3065 18.0046 18.6556 18.6555C18.5613 18.7498 18.4813 18.8534 18.4143 18.9622C18.3977 19.0084 18.3792 19.0548 18.3567 19.0999C18.3343 19.1447 18.3084 19.1869 18.2815 19.2278C18.0483 19.8255 18.1732 20.531 18.6556 21.0139C19.3068 21.6651 20.3627 21.6651 21.014 21.0139C21.6651 20.3627 21.6652 19.3067 21.014 18.6555ZM9.34598 12.8215C8.69472 12.1711 7.63854 12.1706 6.98758 12.8215C6.33675 13.4725 6.3372 14.5287 6.98758 15.1799C7.63876 15.8311 8.69475 15.831 9.34598 15.1799C9.44352 15.0824 9.52473 14.9746 9.59305 14.8616C9.608 14.8221 9.62556 14.7829 9.64481 14.7444C9.66617 14.7017 9.68972 14.6605 9.71512 14.6213C9.874 14.2242 9.87394 13.7783 9.71512 13.3811C9.68981 13.3421 9.6661 13.3006 9.64481 13.2581C9.62514 13.2187 9.60724 13.1783 9.59208 13.1379C9.52406 13.0259 9.44278 12.9183 9.34598 12.8215ZM21.014 6.98756C20.3627 6.33713 19.3065 6.33667 18.6556 6.98756C18.1726 7.47051 18.0491 8.17665 18.2825 8.77467C18.3092 8.81528 18.3344 8.85811 18.3567 8.9026C18.3786 8.94629 18.3971 8.99155 18.4134 9.03638C18.4806 9.14608 18.5607 9.25094 18.6556 9.34595C19.3068 9.99717 20.3627 9.99716 21.014 9.34595C21.6651 8.69473 21.6651 7.63874 21.014 6.98756Z" fill="#0F0F0F"/>
</svg>
