<svg width="28" height="28" viewBox="0 0 28 28" fill="none" xmlns="http://www.w3.org/2000/svg">
<path d="M16.888 5.22022C18.5153 3.59303 21.154 3.59349 22.7815 5.22022C24.409 6.84772 24.409 9.48624 22.7815 11.1138C21.154 12.7413 18.5155 12.7413 16.888 11.1138C16.8705 11.0963 16.8533 11.0778 16.8362 11.0601L12.2796 13.3384C12.3499 13.7772 12.3498 14.2248 12.2796 14.6636L16.8362 16.9419C16.8534 16.9241 16.8704 16.9058 16.888 16.8882C18.5153 15.261 21.154 15.2614 22.7815 16.8882C24.409 18.5157 24.409 21.1542 22.7815 22.7817C21.154 24.4092 18.5155 24.4093 16.888 22.7817C15.9073 21.8006 15.5173 20.4519 15.719 19.1792L11.1595 16.8989C11.144 16.9149 11.1293 16.932 11.1136 16.9478C9.48602 18.5752 6.84749 18.5752 5.22001 16.9478C3.59331 15.3202 3.59286 12.6815 5.22001 11.0542C6.84727 9.427 9.48598 9.4275 11.1136 11.0542C11.1293 11.0699 11.145 11.0871 11.1604 11.103L15.719 8.82276C15.5176 7.55006 15.9071 6.2011 16.888 5.22022ZM21.014 18.6558C20.3627 18.0053 19.3065 18.0048 18.6556 18.6558C18.5613 18.7501 18.4813 18.8536 18.4143 18.9624C18.3977 19.0086 18.3792 19.0551 18.3567 19.1001C18.3343 19.1449 18.3084 19.1872 18.2815 19.228C18.0483 19.8257 18.1732 20.5313 18.6556 21.0142C19.3068 21.6654 20.3627 21.6654 21.014 21.0142C21.6651 20.3629 21.6652 19.307 21.014 18.6558ZM9.34598 12.8218C8.69472 12.1714 7.63854 12.1709 6.98758 12.8218C6.33675 13.4727 6.3372 14.5289 6.98758 15.1802C7.63876 15.8314 8.69475 15.8313 9.34598 15.1802C9.44352 15.0826 9.52473 14.9748 9.59305 14.8618C9.608 14.8224 9.62556 14.7832 9.64481 14.7446C9.66617 14.7019 9.68972 14.6607 9.71512 14.6216C9.874 14.2244 9.87394 13.7786 9.71512 13.3814C9.68981 13.3423 9.6661 13.3009 9.64481 13.2583C9.62514 13.2189 9.60724 13.1785 9.59208 13.1382C9.52406 13.0262 9.44278 12.9186 9.34598 12.8218ZM21.014 6.9878C20.3627 6.33737 19.3065 6.33692 18.6556 6.9878C18.1726 7.47076 18.0491 8.1769 18.2825 8.77491C18.3092 8.81552 18.3344 8.85835 18.3567 8.90284C18.3786 8.94654 18.3971 8.9918 18.4134 9.03663C18.4806 9.14633 18.5607 9.25119 18.6556 9.3462C19.3068 9.99741 20.3627 9.99741 21.014 9.3462C21.6651 8.69498 21.6651 7.63899 21.014 6.9878Z" fill="#0F0F0F"/>
</svg>
