<svg width="20" height="20" viewBox="0 0 20 20" fill="none" xmlns="http://www.w3.org/2000/svg">
<path d="M12.3772 3.37816C13.5488 2.20706 15.4479 2.20684 16.6194 3.37816L16.7258 3.48949C17.7901 4.667 17.7541 6.48523 16.6194 7.62035C15.4478 8.79166 13.5487 8.79182 12.3772 7.62035C12.3273 7.57044 12.2803 7.51849 12.2346 7.46605L8.42995 9.3684C8.51871 9.78341 8.52065 10.2131 8.4319 10.6282L12.2346 12.5295C12.28 12.4774 12.3276 12.4258 12.3772 12.3762C13.5487 11.2052 15.4479 11.2051 16.6194 12.3762L16.7258 12.4875C17.7901 13.665 17.7541 15.4833 16.6194 16.6184C15.4478 17.7899 13.5488 17.7899 12.3772 16.6184C11.6315 15.8725 11.3629 14.8323 11.5667 13.8723L7.75709 11.968C7.71291 12.0185 7.66947 12.0712 7.62135 12.1194C6.44983 13.2909 4.55077 13.2907 3.37916 12.1194C2.20761 10.9478 2.20758 9.04876 3.37916 7.87719C4.5508 6.70628 6.44997 6.70588 7.62135 7.87719L7.7278 7.98851C7.73882 8.00071 7.74826 8.01427 7.75905 8.0266L11.5667 6.12328C11.3633 5.16358 11.6318 4.1237 12.3772 3.37816ZM15.4456 13.3332C14.8565 12.853 13.9869 12.8881 13.4378 13.4368C13.3456 13.5289 13.2685 13.6312 13.2053 13.7385C13.1944 13.7708 13.1829 13.8039 13.1673 13.8352C13.1508 13.8681 13.1301 13.8986 13.1096 13.928C12.8874 14.4705 12.9973 15.1172 13.4378 15.5578C14.0235 16.1436 14.973 16.1436 15.5589 15.5578C16.1075 15.0088 16.1424 14.14 15.6624 13.551L15.5589 13.4368L15.4456 13.3332ZM6.44752 8.83422C5.85857 8.35384 4.98896 8.38916 4.43971 8.93773C3.85392 9.52352 3.85394 10.473 4.43971 11.0588C5.02553 11.6444 5.97507 11.6445 6.56081 11.0588C6.65438 10.9651 6.73153 10.8605 6.79518 10.7512C6.80525 10.7231 6.81762 10.6946 6.83131 10.6672C6.8454 10.6391 6.8612 10.6117 6.87819 10.5862C7.03699 10.2133 7.03917 9.78966 6.88209 9.41625C6.86365 9.38907 6.84643 9.36048 6.83131 9.33031C6.81696 9.30158 6.80458 9.27196 6.7942 9.24242C6.75582 9.1768 6.71353 9.11238 6.66432 9.05199L6.56081 8.93773L6.44752 8.83422ZM15.4456 4.33519C14.8565 3.85483 13.987 3.88996 13.4378 4.43871C12.9973 4.87938 12.8883 5.52603 13.1106 6.06859C13.1311 6.09809 13.1507 6.12926 13.1673 6.16234C13.1825 6.19282 13.1936 6.22472 13.2044 6.25609C13.2678 6.36431 13.3449 6.46696 13.4378 6.5598C14.0235 7.14549 14.973 7.14532 15.5589 6.5598C16.1075 6.01072 16.1424 5.14197 15.6624 4.55297L15.5589 4.43871L15.4456 4.33519Z" fill="#0F0F0F"/>
</svg>
