<?xml version="1.0" encoding="UTF-8"?>
<!--Generator: Apple Native CoreSVG 123-->
<!DOCTYPE svg
PUBLIC "-//W3C//DTD SVG 1.1//EN"
       "http://www.w3.org/Graphics/SVG/1.1/DTD/svg11.dtd">
<svg version="1.1" xmlns="http://www.w3.org/2000/svg" xmlns:xlink="http://www.w3.org/1999/xlink" width="3300" height="2200">
 <!--glyph: "uni10031F.medium", point size: 100.000000, font version: "Version 15.0d7e11", template writer version: "5"-->
 <g id="Notes">
  <rect height="2200" id="artboard" style="fill:white;opacity:1" width="3300" x="0" y="0"/>
  <line id="" style="fill:none;stroke:black;opacity:1;stroke-width:0.5;" x1="263" x2="3036" y1="292" y2="292"/>
  <text style="stroke:none;fill:black;font-family:-apple-system,&quot;SF Pro Display&quot;,&quot;SF Pro Text&quot;,Helvetica,sans-serif;font-weight:bold;" transform="matrix(1 0 0 1 263 322)">Weight/Scale Variations</text>
  <text style="stroke:none;fill:black;font-family:-apple-system,&quot;SF Pro Display&quot;,&quot;SF Pro Text&quot;,Helvetica,sans-serif;text-anchor:middle;" transform="matrix(1 0 0 1 559.711 322)">Ultralight</text>
  <text style="stroke:none;fill:black;font-family:-apple-system,&quot;SF Pro Display&quot;,&quot;SF Pro Text&quot;,Helvetica,sans-serif;text-anchor:middle;" transform="matrix(1 0 0 1 856.422 322)">Thin</text>
  <text style="stroke:none;fill:black;font-family:-apple-system,&quot;SF Pro Display&quot;,&quot;SF Pro Text&quot;,Helvetica,sans-serif;text-anchor:middle;" transform="matrix(1 0 0 1 1153.13 322)">Light</text>
  <text style="stroke:none;fill:black;font-family:-apple-system,&quot;SF Pro Display&quot;,&quot;SF Pro Text&quot;,Helvetica,sans-serif;text-anchor:middle;" transform="matrix(1 0 0 1 1449.84 322)">Regular</text>
  <text style="stroke:none;fill:black;font-family:-apple-system,&quot;SF Pro Display&quot;,&quot;SF Pro Text&quot;,Helvetica,sans-serif;text-anchor:middle;" transform="matrix(1 0 0 1 1746.56 322)">Medium</text>
  <text style="stroke:none;fill:black;font-family:-apple-system,&quot;SF Pro Display&quot;,&quot;SF Pro Text&quot;,Helvetica,sans-serif;text-anchor:middle;" transform="matrix(1 0 0 1 2043.27 322)">Semibold</text>
  <text style="stroke:none;fill:black;font-family:-apple-system,&quot;SF Pro Display&quot;,&quot;SF Pro Text&quot;,Helvetica,sans-serif;text-anchor:middle;" transform="matrix(1 0 0 1 2339.98 322)">Bold</text>
  <text style="stroke:none;fill:black;font-family:-apple-system,&quot;SF Pro Display&quot;,&quot;SF Pro Text&quot;,Helvetica,sans-serif;text-anchor:middle;" transform="matrix(1 0 0 1 2636.69 322)">Heavy</text>
  <text style="stroke:none;fill:black;font-family:-apple-system,&quot;SF Pro Display&quot;,&quot;SF Pro Text&quot;,Helvetica,sans-serif;text-anchor:middle;" transform="matrix(1 0 0 1 2933.4 322)">Black</text>
  <line id="" style="fill:none;stroke:black;opacity:1;stroke-width:0.5;" x1="263" x2="3036" y1="1903" y2="1903"/>
  <g id="" transform="matrix(1 0 0 1 263 1933)">
   <path d="M 9.24805 0.830078 C 13.5547 0.830078 17.1387 -2.74414 17.1387 -7.05078 C 17.1387 -11.3574 13.5449 -14.9316 9.23828 -14.9316 C 4.94141 -14.9316 1.36719 -11.3574 1.36719 -7.05078 C 1.36719 -2.74414 4.95117 0.830078 9.24805 0.830078 Z M 9.24805 -0.654297 C 5.70312 -0.654297 2.87109 -3.49609 2.87109 -7.05078 C 2.87109 -10.6055 5.69336 -13.4473 9.23828 -13.4473 C 12.793 -13.4473 15.6348 -10.6055 15.6445 -7.05078 C 15.6543 -3.49609 12.8027 -0.654297 9.24805 -0.654297 Z M 9.22852 -3.42773 C 9.69727 -3.42773 9.9707 -3.74023 9.9707 -4.25781 L 9.9707 -6.31836 L 12.1973 -6.31836 C 12.6953 -6.31836 13.0371 -6.57227 13.0371 -7.04102 C 13.0371 -7.51953 12.7148 -7.7832 12.1973 -7.7832 L 9.9707 -7.7832 L 9.9707 -10.0098 C 9.9707 -10.5273 9.69727 -10.8496 9.22852 -10.8496 C 8.75977 -10.8496 8.50586 -10.5078 8.50586 -10.0098 L 8.50586 -7.7832 L 6.29883 -7.7832 C 5.78125 -7.7832 5.44922 -7.51953 5.44922 -7.04102 C 5.44922 -6.57227 5.80078 -6.31836 6.29883 -6.31836 L 8.50586 -6.31836 L 8.50586 -4.25781 C 8.50586 -3.75977 8.75977 -3.42773 9.22852 -3.42773 Z"/>
  </g>
  <g id="" transform="matrix(1 0 0 1 281.506 1933)">
   <path d="M 11.709 2.91016 C 17.1582 2.91016 21.6699 -1.60156 21.6699 -7.05078 C 21.6699 -12.4902 17.1484 -17.0117 11.6992 -17.0117 C 6.25977 -17.0117 1.74805 -12.4902 1.74805 -7.05078 C 1.74805 -1.60156 6.26953 2.91016 11.709 2.91016 Z M 11.709 1.25 C 7.09961 1.25 3.41797 -2.44141 3.41797 -7.05078 C 3.41797 -11.6504 7.08984 -15.3516 11.6992 -15.3516 C 16.3086 -15.3516 20 -11.6504 20.0098 -7.05078 C 20.0195 -2.44141 16.3184 1.25 11.709 1.25 Z M 11.6895 -2.41211 C 12.207 -2.41211 12.5195 -2.77344 12.5195 -3.33984 L 12.5195 -6.23047 L 15.5762 -6.23047 C 16.123 -6.23047 16.5039 -6.51367 16.5039 -7.03125 C 16.5039 -7.55859 16.1426 -7.86133 15.5762 -7.86133 L 12.5195 -7.86133 L 12.5195 -10.9277 C 12.5195 -11.5039 12.207 -11.8555 11.6895 -11.8555 C 11.1719 -11.8555 10.8789 -11.4844 10.8789 -10.9277 L 10.8789 -7.86133 L 7.83203 -7.86133 C 7.26562 -7.86133 6.89453 -7.55859 6.89453 -7.03125 C 6.89453 -6.51367 7.28516 -6.23047 7.83203 -6.23047 L 10.8789 -6.23047 L 10.8789 -3.33984 C 10.8789 -2.79297 11.1719 -2.41211 11.6895 -2.41211 Z"/>
  </g>
  <g id="" transform="matrix(1 0 0 1 304.924 1933)">
   <path d="M 14.9707 5.67383 C 21.9336 5.67383 27.6953 -0.078125 27.6953 -7.04102 C 27.6953 -14.0039 21.9238 -19.7559 14.9609 -19.7559 C 8.00781 -19.7559 2.25586 -14.0039 2.25586 -7.04102 C 2.25586 -0.078125 8.01758 5.67383 14.9707 5.67383 Z M 14.9707 3.85742 C 8.93555 3.85742 4.08203 -1.00586 4.08203 -7.04102 C 4.08203 -13.0762 8.92578 -17.9395 14.9609 -17.9395 C 21.0059 -17.9395 25.8594 -13.0762 25.8691 -7.04102 C 25.8789 -1.00586 21.0156 3.85742 14.9707 3.85742 Z M 14.9512 -1.06445 C 15.5176 -1.06445 15.8691 -1.45508 15.8691 -2.06055 L 15.8691 -6.13281 L 20.1074 -6.13281 C 20.6934 -6.13281 21.1133 -6.46484 21.1133 -7.02148 C 21.1133 -7.59766 20.7227 -7.93945 20.1074 -7.93945 L 15.8691 -7.93945 L 15.8691 -12.1875 C 15.8691 -12.8027 15.5176 -13.1934 14.9512 -13.1934 C 14.3848 -13.1934 14.0625 -12.7832 14.0625 -12.1875 L 14.0625 -7.93945 L 9.83398 -7.93945 C 9.21875 -7.93945 8.80859 -7.59766 8.80859 -7.02148 C 8.80859 -6.46484 9.23828 -6.13281 9.83398 -6.13281 L 14.0625 -6.13281 L 14.0625 -2.06055 C 14.0625 -1.47461 14.3848 -1.06445 14.9512 -1.06445 Z"/>
  </g>
  <text style="stroke:none;fill:black;font-family:-apple-system,&quot;SF Pro Display&quot;,&quot;SF Pro Text&quot;,Helvetica,sans-serif;font-weight:bold;" transform="matrix(1 0 0 1 263 1953)">Design Variations</text>
  <text style="stroke:none;fill:black;font-family:-apple-system,&quot;SF Pro Display&quot;,&quot;SF Pro Text&quot;,Helvetica,sans-serif;" transform="matrix(1 0 0 1 263 1971)">Symbols are supported in up to nine weights and three scales.</text>
  <text style="stroke:none;fill:black;font-family:-apple-system,&quot;SF Pro Display&quot;,&quot;SF Pro Text&quot;,Helvetica,sans-serif;" transform="matrix(1 0 0 1 263 1989)">For optimal layout with text and other symbols, vertically align</text>
  <text style="stroke:none;fill:black;font-family:-apple-system,&quot;SF Pro Display&quot;,&quot;SF Pro Text&quot;,Helvetica,sans-serif;" transform="matrix(1 0 0 1 263 2007)">symbols with the adjacent text.</text>
  <rect height="14" id="" style="fill:#00AEEF;stroke:none;opacity:0.4;" width="3" x="776" y="1919"/>
  <g id="" transform="matrix(1 0 0 1 779 1933)">
   <path d="M 10.5273 0 L 12.373 0 L 7.17773 -14.0918 L 5.43945 -14.0918 L 0.244141 0 L 2.08984 0 L 3.50586 -4.0332 L 9.11133 -4.0332 Z M 6.2793 -11.9531 L 6.33789 -11.9531 L 8.59375 -5.52734 L 4.02344 -5.52734 Z"/>
  </g>
  <rect height="14" id="" style="fill:#00AEEF;stroke:none;opacity:0.4;" width="3" x="791.617" y="1919"/>
  <text style="stroke:none;fill:black;font-family:-apple-system,&quot;SF Pro Display&quot;,&quot;SF Pro Text&quot;,Helvetica,sans-serif;font-weight:bold;" transform="matrix(1 0 0 1 776 1953)">Margins</text>
  <text style="stroke:none;fill:black;font-family:-apple-system,&quot;SF Pro Display&quot;,&quot;SF Pro Text&quot;,Helvetica,sans-serif;" transform="matrix(1 0 0 1 776 1971)">Leading and trailing margins on the left and right side of each symbol</text>
  <text style="stroke:none;fill:black;font-family:-apple-system,&quot;SF Pro Display&quot;,&quot;SF Pro Text&quot;,Helvetica,sans-serif;" transform="matrix(1 0 0 1 776 1989)">can be adjusted by modifying the width of the blue rectangles.</text>
  <text style="stroke:none;fill:black;font-family:-apple-system,&quot;SF Pro Display&quot;,&quot;SF Pro Text&quot;,Helvetica,sans-serif;" transform="matrix(1 0 0 1 776 2007)">Modifications are automatically applied proportionally to all</text>
  <text style="stroke:none;fill:black;font-family:-apple-system,&quot;SF Pro Display&quot;,&quot;SF Pro Text&quot;,Helvetica,sans-serif;" transform="matrix(1 0 0 1 776 2025)">scales and weights.</text>
  <g id="" transform="matrix(1 0 0 1 1289 1933)">
   <path d="M 2.83203 3.11523 L 4.375 4.6582 C 5.22461 5.48828 6.19141 5.41992 7.06055 4.46289 L 17.2754 -6.66016 C 17.7051 -6.36719 18.0957 -6.37695 18.5645 -6.47461 L 19.6094 -6.68945 L 20.3027 -5.99609 L 20.2539 -5.47852 C 20.1855 -4.95117 20.3516 -4.53125 20.8496 -4.0332 L 21.6602 -3.22266 C 22.168 -2.71484 22.8223 -2.68555 23.3008 -3.16406 L 26.5527 -6.41602 C 27.0312 -6.89453 27.0117 -7.54883 26.5039 -8.05664 L 25.6836 -8.87695 C 25.1855 -9.375 24.7754 -9.55078 24.2383 -9.47266 L 23.7109 -9.41406 L 23.0566 -10.0781 L 23.3398 -11.2207 C 23.4863 -11.7871 23.3398 -12.2559 22.7148 -12.8613 L 20.3027 -15.2539 C 16.7578 -18.7793 12.2266 -18.6719 9.11133 -15.5371 C 8.69141 -15.1074 8.64258 -14.5215 8.91602 -14.0918 C 9.15039 -13.7207 9.62891 -13.4961 10.2734 -13.6621 C 11.7871 -14.043 13.3008 -13.9258 14.7852 -12.9199 L 14.1602 -11.3379 C 13.9258 -10.752 13.9453 -10.2734 14.1797 -9.83398 L 3.01758 0.439453 C 2.08008 1.30859 1.97266 2.25586 2.83203 3.11523 Z M 10.6738 -15.1465 C 13.3398 -17.1387 16.6504 -16.8262 19.0527 -14.4141 L 21.6797 -11.8066 C 21.9141 -11.5723 21.9434 -11.3867 21.8848 -11.0938 L 21.5039 -9.53125 L 23.0762 -7.95898 L 24.043 -8.04688 C 24.3262 -8.07617 24.4141 -8.05664 24.6387 -7.83203 L 25.2637 -7.20703 L 22.5098 -4.46289 L 21.8848 -5.07812 C 21.6602 -5.30273 21.6406 -5.40039 21.6699 -5.68359 L 21.7578 -6.64062 L 20.1953 -8.20312 L 18.5742 -7.89062 C 18.291 -7.83203 18.1445 -7.83203 17.9102 -8.07617 L 15.7324 -10.2539 C 15.5078 -10.4883 15.4785 -10.625 15.6055 -10.9473 L 16.5527 -13.2227 C 14.9512 -14.7559 12.8418 -15.6055 10.8008 -14.9512 C 10.7129 -14.9219 10.6445 -14.9414 10.6152 -14.9805 C 10.5859 -15.0293 10.5859 -15.0781 10.6738 -15.1465 Z M 4.10156 2.41211 C 3.61328 1.91406 3.78906 1.61133 4.12109 1.30859 L 15.0781 -8.80859 L 16.3086 -7.57812 L 6.15234 3.34961 C 5.84961 3.68164 5.46875 3.7793 5.06836 3.37891 Z"/>
  </g>
  <text style="stroke:none;fill:black;font-family:-apple-system,&quot;SF Pro Display&quot;,&quot;SF Pro Text&quot;,Helvetica,sans-serif;font-weight:bold;" transform="matrix(1 0 0 1 1289 1953)">Exporting</text>
  <text style="stroke:none;fill:black;font-family:-apple-system,&quot;SF Pro Display&quot;,&quot;SF Pro Text&quot;,Helvetica,sans-serif;" transform="matrix(1 0 0 1 1289 1971)">Symbols should be outlined when exporting to ensure the</text>
  <text style="stroke:none;fill:black;font-family:-apple-system,&quot;SF Pro Display&quot;,&quot;SF Pro Text&quot;,Helvetica,sans-serif;" transform="matrix(1 0 0 1 1289 1989)">design is preserved when submitting to Xcode.</text>
  <text id="template-version" style="stroke:none;fill:black;font-family:-apple-system,&quot;SF Pro Display&quot;,&quot;SF Pro Text&quot;,Helvetica,sans-serif;text-anchor:end;" transform="matrix(1 0 0 1 3036 1933)">Template v.1.0</text>
  <text style="stroke:none;fill:black;font-family:-apple-system,&quot;SF Pro Display&quot;,&quot;SF Pro Text&quot;,Helvetica,sans-serif;text-anchor:end;" transform="matrix(1 0 0 1 3036 1951)">Generated from camera.fill</text>
  <text style="stroke:none;fill:black;font-family:-apple-system,&quot;SF Pro Display&quot;,&quot;SF Pro Text&quot;,Helvetica,sans-serif;text-anchor:end;" transform="matrix(1 0 0 1 3036 1969)">Typeset at 100 points</text>
  <text style="stroke:none;fill:black;font-family:-apple-system,&quot;SF Pro Display&quot;,&quot;SF Pro Text&quot;,Helvetica,sans-serif;" transform="matrix(1 0 0 1 263 726)">Small</text>
  <text style="stroke:none;fill:black;font-family:-apple-system,&quot;SF Pro Display&quot;,&quot;SF Pro Text&quot;,Helvetica,sans-serif;" transform="matrix(1 0 0 1 263 1156)">Medium</text>
  <text style="stroke:none;fill:black;font-family:-apple-system,&quot;SF Pro Display&quot;,&quot;SF Pro Text&quot;,Helvetica,sans-serif;" transform="matrix(1 0 0 1 263 1586)">Large</text>
 </g>
 <g id="Guides">
  <g id="H-reference" style="fill:#27AAE1;stroke:none;" transform="matrix(1 0 0 1 339 696)">
   <path d="M 54.9316 0 L 57.666 0 L 30.5664 -70.459 L 28.0762 -70.459 L 0.976562 0 L 3.66211 0 L 12.9395 -24.4629 L 45.7031 -24.4629 Z M 29.1992 -67.0898 L 29.4434 -67.0898 L 44.8242 -26.709 L 13.8184 -26.709 Z"/>
  </g>
  <line id="Baseline-S" style="fill:none;stroke:#27AAE1;opacity:1;stroke-width:0.577;" x1="263" x2="3036" y1="696" y2="696"/>
  <line id="Capline-S" style="fill:none;stroke:#27AAE1;opacity:1;stroke-width:0.577;" x1="263" x2="3036" y1="625.541" y2="625.541"/>
  <g id="H-reference" style="fill:#27AAE1;stroke:none;" transform="matrix(1 0 0 1 339 1126)">
   <path d="M 54.9316 0 L 57.666 0 L 30.5664 -70.459 L 28.0762 -70.459 L 0.976562 0 L 3.66211 0 L 12.9395 -24.4629 L 45.7031 -24.4629 Z M 29.1992 -67.0898 L 29.4434 -67.0898 L 44.8242 -26.709 L 13.8184 -26.709 Z"/>
  </g>
  <line id="Baseline-M" style="fill:none;stroke:#27AAE1;opacity:1;stroke-width:0.577;" x1="263" x2="3036" y1="1126" y2="1126"/>
  <line id="Capline-M" style="fill:none;stroke:#27AAE1;opacity:1;stroke-width:0.577;" x1="263" x2="3036" y1="1055.54" y2="1055.54"/>
  <g id="H-reference" style="fill:#27AAE1;stroke:none;" transform="matrix(1 0 0 1 339 1556)">
   <path d="M 54.9316 0 L 57.666 0 L 30.5664 -70.459 L 28.0762 -70.459 L 0.976562 0 L 3.66211 0 L 12.9395 -24.4629 L 45.7031 -24.4629 Z M 29.1992 -67.0898 L 29.4434 -67.0898 L 44.8242 -26.709 L 13.8184 -26.709 Z"/>
  </g>
  <line id="Baseline-L" style="fill:none;stroke:#27AAE1;opacity:1;stroke-width:0.577;" x1="263" x2="3036" y1="1556" y2="1556"/>
  <line id="Capline-L" style="fill:none;stroke:#27AAE1;opacity:1;stroke-width:0.577;" x1="263" x2="3036" y1="1485.54" y2="1485.54"/>
  <rect height="119.336" id="left-margin" style="fill:#00AEEF;stroke:none;opacity:0.4;" width="12.4512" x="1380.02" y="1030.79"/>
  <rect height="119.336" id="right-margin" style="fill:#00AEEF;stroke:none;opacity:0.4;" width="12.4512" x="1507.22" y="1030.79"/>
 </g>
 <g id="Symbols">
  <g id="Black-L" transform="matrix(1 0 0 1 2839.85 1556)">
   <path d="M 39.9902 26.5137 L 147.119 26.5137 C 162.354 26.5137 171.045 17.8711 171.045 2.68555 L 171.045 -63.8184 C 171.045 -79.0527 162.354 -87.6465 147.119 -87.6465 L 136.475 -87.6465 C 131.689 -87.6465 129.785 -88.2324 126.123 -91.5039 L 121.338 -95.8984 C 117.627 -99.2676 114.014 -100.635 107.812 -100.635 L 79.2969 -100.635 C 73.0957 -100.635 69.4824 -99.2676 65.7715 -95.8984 L 60.9863 -91.5039 C 57.3242 -88.2324 55.4199 -87.6465 50.5859 -87.6465 L 39.9902 -87.6465 C 24.7559 -87.6465 16.0645 -79.0527 16.0645 -63.8184 L 16.0645 2.68555 C 16.0645 17.8711 24.7559 26.5137 39.9902 26.5137 Z M 93.5059 2.53906 C 74.0234 2.53906 58.3984 -13.1348 58.3984 -32.666 C 58.3984 -52.1973 74.0234 -67.8711 93.5059 -67.8711 C 112.988 -67.8711 128.613 -52.1973 128.613 -32.666 C 128.613 -13.1348 112.988 2.53906 93.5059 2.53906 Z M 142.236 -44.8242 C 136.816 -44.8242 132.52 -49.1211 132.52 -54.4434 C 132.52 -59.8633 136.816 -64.1602 142.236 -64.1602 C 147.559 -64.1602 151.855 -59.8633 151.855 -54.4434 C 151.855 -49.1211 147.559 -44.8242 142.236 -44.8242 Z M 93.5059 -16.2109 C 102.637 -16.2109 109.912 -23.5352 109.912 -32.666 C 109.912 -41.8457 102.637 -49.1211 93.5059 -49.1211 C 84.4238 -49.1211 77.0996 -41.8457 77.0996 -32.666 C 77.0996 -23.5352 84.4238 -16.2109 93.5059 -16.2109 Z"/>
  </g>
  <g id="Heavy-L" transform="matrix(1 0 0 1 2544.01 1556)">
   <path d="M 38.8184 25.4883 L 146.533 25.4883 C 161.133 25.4883 169.287 17.4316 169.287 2.88086 L 169.287 -63.5742 C 169.287 -78.125 161.133 -86.1816 146.533 -86.1816 L 134.717 -86.1816 C 129.883 -86.1816 128.076 -86.8164 124.609 -90.0879 L 119.727 -94.8242 C 116.113 -98.2422 112.646 -99.6582 106.396 -99.6582 L 78.7598 -99.6582 C 72.5098 -99.6582 69.043 -98.2422 65.4785 -94.8242 L 60.5957 -90.0879 C 57.1289 -86.8164 55.2734 -86.1816 50.4395 -86.1816 L 38.8184 -86.1816 C 24.2188 -86.1816 16.0645 -78.125 16.0645 -63.5742 L 16.0645 2.88086 C 16.0645 17.4316 24.2188 25.4883 38.8184 25.4883 Z M 92.627 2.58789 C 73.2422 2.58789 57.666 -13.0371 57.666 -32.4707 C 57.666 -51.9531 73.2422 -67.5293 92.627 -67.5293 C 112.061 -67.5293 127.588 -51.9531 127.588 -32.4707 C 127.588 -13.0371 112.061 2.58789 92.627 2.58789 Z M 140.527 -45.459 C 135.449 -45.459 131.396 -49.5117 131.396 -54.541 C 131.396 -59.668 135.449 -63.7207 140.527 -63.7207 C 145.557 -63.7207 149.658 -59.668 149.658 -54.541 C 149.658 -49.5117 145.557 -45.459 140.527 -45.459 Z M 92.627 -13.6719 C 103.027 -13.6719 111.377 -22.0703 111.377 -32.4707 C 111.377 -42.9199 103.027 -51.2695 92.627 -51.2695 C 82.2754 -51.2695 73.877 -42.9199 73.877 -32.4707 C 73.877 -22.0703 82.2754 -13.6719 92.627 -13.6719 Z"/>
  </g>
  <g id="Bold-L" transform="matrix(1 0 0 1 2248.28 1556)">
   <path d="M 37.5 24.3652 L 145.85 24.3652 C 159.766 24.3652 167.334 16.8945 167.334 3.07617 L 167.334 -63.2324 C 167.334 -77.0508 159.766 -84.5703 145.85 -84.5703 L 132.764 -84.5703 C 127.881 -84.5703 126.172 -85.2539 122.852 -88.5254 L 117.871 -93.6523 C 114.453 -97.1191 111.084 -98.6328 104.834 -98.6328 L 78.1738 -98.6328 C 71.9238 -98.6328 68.5547 -97.1191 65.1367 -93.6523 L 60.1562 -88.5254 C 56.8359 -85.3027 55.127 -84.5703 50.2441 -84.5703 L 37.5 -84.5703 C 23.6328 -84.5703 16.0645 -77.0508 16.0645 -63.2324 L 16.0645 3.07617 C 16.0645 16.8945 23.6328 24.3652 37.5 24.3652 Z M 91.6504 2.63672 C 72.3633 2.63672 56.8359 -12.8906 56.8359 -32.2754 C 56.8359 -51.6602 72.3633 -67.1387 91.6504 -67.1387 C 111.035 -67.1387 126.465 -51.6602 126.465 -32.2754 C 126.465 -12.8906 110.986 2.63672 91.6504 2.63672 Z M 138.672 -46.1914 C 133.936 -46.1914 130.127 -50 130.127 -54.6875 C 130.127 -59.4238 133.936 -63.2324 138.672 -63.2324 C 143.359 -63.2324 147.168 -59.4238 147.168 -54.6875 C 147.168 -50 143.359 -46.1914 138.672 -46.1914 Z M 91.6504 -10.8398 C 103.516 -10.8398 112.988 -20.4102 112.988 -32.2754 C 112.988 -44.1406 103.516 -53.6621 91.6504 -53.6621 C 79.834 -53.6621 70.3125 -44.1406 70.3125 -32.2754 C 70.3125 -20.4102 79.8828 -10.8398 91.6504 -10.8398 Z"/>
  </g>
  <g id="Semibold-L" transform="matrix(1 0 0 1 1952.25 1556)">
   <path d="M 36.6211 23.584 L 145.41 23.584 C 158.838 23.584 165.967 16.5039 165.967 3.17383 L 165.967 -63.0371 C 165.967 -76.3672 158.838 -83.4473 145.41 -83.4473 L 131.445 -83.4473 C 126.465 -83.4473 124.854 -84.1797 121.68 -87.5 L 116.65 -92.8223 C 113.281 -96.2891 110.059 -97.9004 103.76 -97.9004 L 77.7832 -97.9004 C 71.4844 -97.9004 68.2617 -96.2891 64.8926 -92.8223 L 59.8145 -87.5 C 56.6895 -84.2285 55.0293 -83.4473 50.0977 -83.4473 L 36.6211 -83.4473 C 23.1934 -83.4473 16.0645 -76.3672 16.0645 -63.0371 L 16.0645 3.17383 C 16.0645 16.5039 23.1934 23.584 36.6211 23.584 Z M 91.0156 2.68555 C 71.7773 2.68555 56.2988 -12.793 56.2988 -32.1289 C 56.2988 -51.4648 71.7773 -66.8945 91.0156 -66.8945 C 110.303 -66.8945 125.684 -51.4648 125.684 -32.1289 C 125.684 -12.793 110.254 2.68555 91.0156 2.68555 Z M 137.354 -46.7285 C 132.861 -46.7285 129.248 -50.293 129.248 -54.7852 C 129.248 -59.2773 132.861 -62.8906 137.354 -62.8906 C 141.846 -62.8906 145.459 -59.2773 145.459 -54.7852 C 145.459 -50.293 141.846 -46.7285 137.354 -46.7285 Z M 91.0156 -8.88672 C 103.809 -8.88672 114.16 -19.2383 114.16 -32.1289 C 114.16 -45.0195 103.809 -55.3223 91.0156 -55.3223 C 78.1738 -55.3223 67.8711 -45.0195 67.8711 -32.1289 C 67.8711 -19.2383 78.2227 -8.88672 91.0156 -8.88672 Z"/>
  </g>
  <g id="Medium-L" transform="matrix(1 0 0 1 1656.05 1556)">
   <path d="M 35.9375 22.998 L 145.068 22.998 C 158.105 22.998 164.941 16.2109 164.941 3.27148 L 164.941 -62.8906 C 164.941 -75.8301 158.105 -82.6172 145.068 -82.6172 L 130.42 -82.6172 C 125.439 -82.6172 123.877 -83.3496 120.801 -86.6699 L 115.674 -92.1875 C 112.402 -95.7031 109.229 -97.3145 102.93 -97.3145 L 77.4902 -97.3145 C 71.1426 -97.3145 68.0176 -95.7031 64.6973 -92.1875 L 59.6191 -86.6699 C 56.543 -83.3984 54.9316 -82.6172 50 -82.6172 L 35.9375 -82.6172 C 22.9004 -82.6172 16.0645 -75.8301 16.0645 -62.8906 L 16.0645 3.27148 C 16.0645 16.2109 22.9004 22.998 35.9375 22.998 Z M 90.4785 2.68555 C 71.2891 2.68555 55.8594 -12.6953 55.8594 -31.9824 C 55.8594 -51.3184 71.2891 -66.6992 90.4785 -66.6992 C 109.766 -66.6992 125.098 -51.3184 125.098 -31.9824 C 125.098 -12.6953 109.668 2.68555 90.4785 2.68555 Z M 136.377 -47.0703 C 132.08 -47.0703 128.613 -50.5371 128.613 -54.834 C 128.613 -59.1797 132.08 -62.5977 136.377 -62.5977 C 140.674 -62.5977 144.189 -59.1797 144.189 -54.834 C 144.189 -50.5371 140.674 -47.0703 136.377 -47.0703 Z M 90.4785 -7.42188 C 104.053 -7.42188 114.99 -18.3594 114.99 -31.9824 C 114.99 -45.6543 104.053 -56.5918 90.4785 -56.5918 C 76.9531 -56.5918 65.9668 -45.6543 65.9668 -31.9824 C 65.9668 -18.3594 77.002 -7.42188 90.4785 -7.42188 Z"/>
  </g>
  <g id="Regular-L" transform="matrix(1 0 0 1 1360 1556)">
   <path d="M 35.0586 22.2168 L 144.58 22.2168 C 157.178 22.2168 163.623 15.8691 163.623 3.41797 L 163.623 -62.6953 C 163.623 -75.0977 157.178 -81.4941 144.58 -81.4941 L 129.053 -81.4941 C 124.023 -81.4941 122.607 -82.2754 119.629 -85.5957 L 114.453 -91.4062 C 111.23 -94.9219 108.203 -96.582 101.855 -96.582 L 77.0996 -96.582 C 70.7031 -96.582 67.6758 -94.9219 64.4531 -91.4062 L 59.2773 -85.5957 C 56.3965 -82.373 54.834 -81.4941 49.8535 -81.4941 L 35.0586 -81.4941 C 22.4609 -81.4941 16.0645 -75.0977 16.0645 -62.6953 L 16.0645 3.41797 C 16.0645 15.8691 22.4609 22.2168 35.0586 22.2168 Z M 89.8438 2.73438 C 70.7031 2.73438 55.3223 -12.5977 55.3223 -31.8359 C 55.3223 -51.123 70.7031 -66.4551 89.8438 -66.4551 C 109.033 -66.4551 124.365 -51.123 124.365 -31.8359 C 124.365 -12.5977 108.984 2.73438 89.8438 2.73438 Z M 135.107 -47.6074 C 131.055 -47.6074 127.734 -50.8301 127.734 -54.9316 C 127.734 -59.0332 131.055 -62.3047 135.107 -62.3047 C 139.16 -62.3047 142.48 -59.0332 142.48 -54.9316 C 142.48 -50.8301 139.16 -47.6074 135.107 -47.6074 Z M 89.8438 -5.51758 C 104.346 -5.51758 116.113 -17.2363 116.113 -31.8359 C 116.113 -46.4844 104.346 -58.2031 89.8438 -58.2031 C 75.293 -58.2031 63.5254 -46.4844 63.5254 -31.8359 C 63.5254 -17.2363 75.3418 -5.51758 89.8438 -5.51758 Z"/>
  </g>
  <g id="Light-L" transform="matrix(1 0 0 1 1063.68 1556)">
   <path d="M 34.0332 21.4355 L 144.873 21.4355 C 156.738 21.4355 162.842 15.2344 162.842 3.56445 L 162.842 -62.6953 C 162.842 -74.4141 156.738 -80.5664 144.873 -80.5664 L 128.223 -80.5664 C 123.145 -80.5664 121.777 -81.1035 118.604 -84.668 L 113.281 -90.625 C 109.961 -94.2383 107.178 -95.6055 101.025 -95.6055 L 76.709 -95.6055 C 70.5566 -95.6055 67.7734 -94.2383 64.4531 -90.625 L 59.1309 -84.668 C 56.0547 -81.25 54.5898 -80.5664 49.5117 -80.5664 L 34.0332 -80.5664 C 22.168 -80.5664 16.0645 -74.4141 16.0645 -62.6953 L 16.0645 3.56445 C 16.0645 15.2344 22.168 21.4355 34.0332 21.4355 Z M 89.4531 2.88086 C 70.2148 2.88086 54.7363 -12.5488 54.7363 -31.9336 C 54.7363 -51.2695 70.2148 -66.748 89.4531 -66.748 C 108.789 -66.748 124.17 -51.2695 124.17 -31.9336 C 124.17 -12.5488 108.691 2.88086 89.4531 2.88086 Z M 134.717 -48.1445 C 131.006 -48.1445 127.979 -51.123 127.979 -54.8828 C 127.979 -58.6426 131.006 -61.6699 134.717 -61.6699 C 138.477 -61.6699 141.504 -58.6426 141.504 -54.8828 C 141.504 -51.123 138.477 -48.1445 134.717 -48.1445 Z M 89.4531 -3.56445 C 105.078 -3.56445 117.725 -16.2109 117.725 -31.9336 C 117.725 -47.6562 105.078 -60.2539 89.4531 -60.2539 C 73.8281 -60.2539 61.2305 -47.6562 61.2305 -31.9336 C 61.2305 -16.2109 73.877 -3.56445 89.4531 -3.56445 Z"/>
  </g>
  <g id="Thin-L" transform="matrix(1 0 0 1 767.457 1556)">
   <path d="M 32.666 20.3613 L 145.264 20.3613 C 156.152 20.3613 161.865 14.4531 161.865 3.75977 L 161.865 -62.7441 C 161.865 -73.4863 156.152 -79.3457 145.264 -79.3457 L 127.148 -79.3457 C 121.875 -79.3457 120.654 -79.5898 117.285 -83.3984 L 111.719 -89.5996 C 108.252 -93.3105 105.859 -94.3359 99.9023 -94.3359 L 76.2695 -94.3359 C 70.3125 -94.3359 67.9199 -93.3105 64.4531 -89.5996 L 58.8867 -83.3984 C 55.6641 -79.7363 54.1992 -79.3457 49.0234 -79.3457 L 32.666 -79.3457 C 21.7773 -79.3457 16.0645 -73.4863 16.0645 -62.7441 L 16.0645 3.75977 C 16.0645 14.4531 21.7773 20.3613 32.666 20.3613 Z M 88.9648 3.02734 C 69.6289 3.02734 54.0039 -12.5 54.0039 -32.0312 C 54.0039 -51.5137 69.6289 -67.0898 88.9648 -67.0898 C 108.447 -67.0898 123.975 -51.5137 123.975 -32.0312 C 123.975 -12.5 108.301 3.02734 88.9648 3.02734 Z M 88.9648 -1.02539 C 106.055 -1.02539 119.824 -14.8926 119.824 -32.0312 C 119.824 -49.1699 106.055 -63.0371 88.9648 -63.0371 C 71.9238 -63.0371 58.1543 -49.1699 58.1543 -32.0312 C 58.1543 -14.8926 71.9238 -1.02539 88.9648 -1.02539 Z M 134.229 -48.8281 C 130.908 -48.8281 128.271 -51.5137 128.271 -54.834 C 128.271 -58.1543 130.908 -60.8398 134.229 -60.8398 C 137.598 -60.8398 140.234 -58.1543 140.234 -54.834 C 140.234 -51.5137 137.598 -48.8281 134.229 -48.8281 Z"/>
  </g>
  <g id="Ultralight-L" transform="matrix(1 0 0 1 470.99 1556)">
   <path d="M 31.9824 19.7754 L 145.459 19.7754 C 155.859 19.7754 161.377 14.0625 161.377 3.85742 L 161.377 -62.793 C 161.377 -72.998 155.859 -78.7109 145.459 -78.7109 L 126.611 -78.7109 C 121.289 -78.7109 120.117 -78.8086 116.602 -82.7148 L 110.889 -89.0625 C 107.422 -92.8711 105.176 -93.6523 99.3652 -93.6523 L 76.0254 -93.6523 C 70.2148 -93.6523 67.9688 -92.8711 64.4531 -89.0625 L 58.7891 -82.7148 C 55.4688 -78.9551 54.0039 -78.7109 48.7793 -78.7109 L 31.9824 -78.7109 C 21.582 -78.7109 16.0645 -72.998 16.0645 -62.793 L 16.0645 3.85742 C 16.0645 14.0625 21.582 19.7754 31.9824 19.7754 Z M 88.7207 3.125 C 69.3359 3.125 53.6133 -12.5 53.6133 -32.0801 C 53.6133 -51.6602 69.3359 -67.2852 88.7207 -67.2852 C 108.301 -67.2852 123.877 -51.6602 123.877 -32.0801 C 123.877 -12.5 108.154 3.125 88.7207 3.125 Z M 88.7207 0.244141 C 106.543 0.244141 120.898 -14.209 120.898 -32.0801 C 120.898 -49.9512 106.543 -64.4043 88.7207 -64.4043 C 70.8984 -64.4043 56.543 -49.9512 56.543 -32.0801 C 56.543 -14.209 70.8984 0.244141 88.7207 0.244141 Z M 133.984 -49.2188 C 130.908 -49.2188 128.418 -51.709 128.418 -54.7852 C 128.418 -57.9102 130.908 -60.4004 133.984 -60.4004 C 137.109 -60.4004 139.6 -57.9102 139.6 -54.7852 C 139.6 -51.709 137.109 -49.2188 133.984 -49.2188 Z"/>
  </g>
  <g id="Black-M" transform="matrix(1 0 0 1 2859.91 1126)">
   <path d="M 31.9824 13.5742 L 114.99 13.5742 C 127.246 13.5742 134.521 6.29883 134.521 -5.95703 L 134.521 -57.8125 C 134.521 -70.0684 127.246 -77.3438 114.99 -77.3438 L 107.715 -77.3438 C 103.955 -77.3438 102.393 -77.5391 99.2676 -80.1758 L 95.6055 -83.252 C 92.5293 -85.8887 89.6484 -86.6699 85.0098 -86.6699 L 61.9629 -86.6699 C 57.3242 -86.6699 54.4434 -85.8887 51.3672 -83.252 L 47.7051 -80.1758 C 44.5801 -77.5391 42.9688 -77.3438 39.2578 -77.3438 L 31.9824 -77.3438 C 19.7266 -77.3438 12.4512 -70.0684 12.4512 -57.8125 L 12.4512 -5.95703 C 12.4512 6.29883 19.7266 13.5742 31.9824 13.5742 Z M 73.4375 -5.95703 C 58.2031 -5.95703 45.8984 -18.2617 45.8984 -33.5449 C 45.8984 -48.8281 58.2031 -61.1328 73.4375 -61.1328 C 88.7207 -61.1328 100.928 -48.8281 100.928 -33.5449 C 100.928 -18.2617 88.7207 -5.95703 73.4375 -5.95703 Z M 112.256 -42.0898 C 107.812 -42.0898 104.346 -45.5566 104.346 -49.9512 C 104.346 -54.3945 107.812 -57.9102 112.256 -57.9102 C 116.65 -57.9102 120.166 -54.3945 120.166 -49.9512 C 120.166 -45.5566 116.65 -42.0898 112.256 -42.0898 Z M 73.4375 -22.8516 C 79.3945 -22.8516 84.0332 -27.6367 84.0332 -33.5449 C 84.0332 -39.502 79.3945 -44.1895 73.4375 -44.1895 C 67.5293 -44.1895 62.793 -39.502 62.793 -33.5449 C 62.793 -27.6367 67.5293 -22.8516 73.4375 -22.8516 Z"/>
  </g>
  <g id="Heavy-M" transform="matrix(1 0 0 1 2564.06 1126)">
   <path d="M 31.0059 12.6465 L 114.258 12.6465 C 126.025 12.6465 132.812 5.9082 132.812 -5.81055 L 132.812 -57.4707 C 132.812 -69.2383 126.025 -75.9766 114.258 -75.9766 L 106.006 -75.9766 C 102.246 -75.9766 100.781 -76.3184 97.8516 -78.9062 L 94.1406 -82.3242 C 91.2109 -84.9609 88.4277 -85.8887 83.6914 -85.8887 L 61.4746 -85.8887 C 56.7383 -85.8887 53.9551 -84.9609 51.0254 -82.3242 L 47.3145 -78.9062 C 44.3848 -76.3184 42.9199 -75.9766 39.1602 -75.9766 L 31.0059 -75.9766 C 19.2383 -75.9766 12.4512 -69.2383 12.4512 -57.4707 L 12.4512 -5.81055 C 12.4512 5.9082 19.2383 12.6465 31.0059 12.6465 Z M 72.5586 -5.95703 C 57.4707 -5.95703 45.2637 -18.1152 45.2637 -33.3008 C 45.2637 -48.4863 57.4707 -60.6934 72.5586 -60.6934 C 87.7441 -60.6934 99.8535 -48.4863 99.8535 -33.3008 C 99.8535 -18.1152 87.7441 -5.95703 72.5586 -5.95703 Z M 110.547 -42.627 C 106.348 -42.627 103.027 -45.9473 103.027 -50.0977 C 103.027 -54.2969 106.348 -57.5684 110.547 -57.5684 C 114.648 -57.5684 117.969 -54.2969 117.969 -50.0977 C 117.969 -45.9473 114.648 -42.627 110.547 -42.627 Z M 72.5586 -20.6055 C 79.6387 -20.6055 85.2051 -26.2695 85.2051 -33.3008 C 85.2051 -40.3809 79.6387 -45.9961 72.5586 -45.9961 C 65.5762 -45.9961 59.9121 -40.3809 59.9121 -33.3008 C 59.9121 -26.2695 65.5762 -20.6055 72.5586 -20.6055 Z"/>
  </g>
  <g id="Bold-M" transform="matrix(1 0 0 1 2268.32 1126)">
   <path d="M 29.8828 11.6699 L 113.428 11.6699 C 124.658 11.6699 130.859 5.46875 130.859 -5.66406 L 130.859 -57.1289 C 130.859 -68.3105 124.658 -74.4629 113.428 -74.4629 L 104.102 -74.4629 C 100.342 -74.4629 98.9258 -74.9512 96.2891 -77.4902 L 92.4805 -81.25 C 89.7461 -83.8867 87.0605 -85.0098 82.1777 -85.0098 L 60.9375 -85.0098 C 56.1035 -85.0098 53.418 -83.8867 50.6836 -81.25 L 46.875 -77.4902 C 44.2383 -74.9512 42.8223 -74.4629 39.0625 -74.4629 L 29.8828 -74.4629 C 18.6523 -74.4629 12.4512 -68.3105 12.4512 -57.1289 L 12.4512 -5.66406 C 12.4512 5.46875 18.6523 11.6699 29.8828 11.6699 Z M 71.6309 -5.9082 C 56.6406 -5.9082 44.5312 -17.9688 44.5312 -33.0566 C 44.5312 -48.1445 56.6406 -60.2051 71.6309 -60.2051 C 86.6699 -60.2051 98.6816 -48.1445 98.6816 -33.0566 C 98.6816 -17.9688 86.6699 -5.9082 71.6309 -5.9082 Z M 108.594 -43.2617 C 104.736 -43.2617 101.611 -46.3867 101.611 -50.2441 C 101.611 -54.1504 104.736 -57.2266 108.594 -57.2266 C 112.451 -57.2266 115.576 -54.1504 115.576 -50.2441 C 115.576 -46.3867 112.451 -43.2617 108.594 -43.2617 Z M 71.6309 -18.0664 C 79.9316 -18.0664 86.5723 -24.7559 86.5723 -33.0566 C 86.5723 -41.4062 79.9316 -48.0469 71.6309 -48.0469 C 63.3789 -48.0469 56.6895 -41.4062 56.6895 -33.0566 C 56.6895 -24.7559 63.3789 -18.0664 71.6309 -18.0664 Z"/>
  </g>
  <g id="Semibold-M" transform="matrix(1 0 0 1 1972.27 1126)">
   <path d="M 29.1016 10.9863 L 112.891 10.9863 C 123.73 10.9863 129.541 5.17578 129.541 -5.56641 L 129.541 -56.8848 C 129.541 -67.627 123.73 -73.4375 112.891 -73.4375 L 102.783 -73.4375 C 98.9746 -73.4375 97.7051 -74.0234 95.2148 -76.5137 L 91.3574 -80.4688 C 88.7207 -83.1543 86.084 -84.4238 81.2012 -84.4238 L 60.5957 -84.4238 C 55.6641 -84.4238 53.0762 -83.1543 50.4395 -80.4688 L 46.582 -76.5137 C 44.0918 -74.0234 42.7734 -73.4375 38.9648 -73.4375 L 29.1016 -73.4375 C 18.2617 -73.4375 12.4512 -67.627 12.4512 -56.8848 L 12.4512 -5.56641 C 12.4512 5.17578 18.2617 10.9863 29.1016 10.9863 Z M 70.9961 -5.9082 C 56.0547 -5.9082 44.043 -17.8711 44.043 -32.8613 C 44.043 -47.8516 56.0547 -59.8633 70.9961 -59.8633 C 85.9375 -59.8633 97.9004 -47.8516 97.9004 -32.8613 C 97.9004 -17.8711 85.8887 -5.9082 70.9961 -5.9082 Z M 107.275 -43.75 C 103.564 -43.75 100.586 -46.6797 100.586 -50.3418 C 100.586 -54.0527 103.564 -56.9824 107.275 -56.9824 C 110.938 -56.9824 113.916 -54.0527 113.916 -50.3418 C 113.916 -46.6797 110.938 -43.75 107.275 -43.75 Z M 70.9961 -16.3574 C 80.127 -16.3574 87.5 -23.6816 87.5 -32.8613 C 87.5 -42.0898 80.127 -49.4141 70.9961 -49.4141 C 61.8164 -49.4141 54.4434 -42.0898 54.4434 -32.8613 C 54.4434 -23.6816 61.8652 -16.3574 70.9961 -16.3574 Z"/>
  </g>
  <g id="Medium-M" transform="matrix(1 0 0 1 1676.07 1126)">
   <path d="M 28.5156 10.4492 L 112.451 10.4492 C 122.998 10.4492 128.516 4.98047 128.516 -5.46875 L 128.516 -56.7383 C 128.516 -67.1875 122.998 -72.6562 112.451 -72.6562 L 101.807 -72.6562 C 97.998 -72.6562 96.7285 -73.291 94.3848 -75.7812 L 90.4785 -79.9316 C 87.9395 -82.6172 85.4004 -83.9355 80.4199 -83.9355 L 60.3027 -83.9355 C 55.3223 -83.9355 52.7832 -82.6172 50.2441 -79.9316 L 46.3379 -75.7812 C 43.9941 -73.3398 42.7246 -72.6562 38.916 -72.6562 L 28.5156 -72.6562 C 17.9688 -72.6562 12.4512 -67.1875 12.4512 -56.7383 L 12.4512 -5.46875 C 12.4512 4.98047 17.9688 10.4492 28.5156 10.4492 Z M 70.459 -5.9082 C 55.6152 -5.9082 43.7012 -17.8223 43.7012 -32.7637 C 43.7012 -47.6562 55.6152 -59.6191 70.459 -59.6191 C 85.3516 -59.6191 97.2656 -47.6562 97.2656 -32.7637 C 97.2656 -17.8223 85.3516 -5.9082 70.459 -5.9082 Z M 106.25 -44.043 C 102.734 -44.043 99.8535 -46.875 99.8535 -50.3906 C 99.8535 -53.9551 102.734 -56.7871 106.25 -56.7871 C 109.766 -56.7871 112.646 -53.9551 112.646 -50.3906 C 112.646 -46.875 109.766 -44.043 106.25 -44.043 Z M 70.459 -14.9902 C 80.2734 -14.9902 88.1836 -22.9004 88.1836 -32.7637 C 88.1836 -42.5781 80.2734 -50.4883 70.459 -50.4883 C 60.6934 -50.4883 52.7832 -42.5781 52.7832 -32.7637 C 52.7832 -22.9004 60.7422 -14.9902 70.459 -14.9902 Z"/>
  </g>
  <g id="Regular-M" transform="matrix(1 0 0 1 1380.02 1126)">
   <path d="M 27.7832 9.76562 L 111.865 9.76562 C 122.07 9.76562 127.197 4.6875 127.197 -5.37109 L 127.197 -56.4941 C 127.197 -66.5527 122.07 -71.582 111.865 -71.582 L 100.488 -71.582 C 96.6797 -71.582 95.459 -72.3633 93.3105 -74.8047 L 89.3555 -79.1992 C 86.9141 -81.8848 84.4238 -83.3496 79.3945 -83.3496 L 59.9121 -83.3496 C 54.8828 -83.3496 52.3926 -81.8848 49.9512 -79.1992 L 46.0449 -74.8047 C 43.8965 -72.4121 42.6758 -71.582 38.8672 -71.582 L 27.7832 -71.582 C 17.5781 -71.582 12.4512 -66.5527 12.4512 -56.4941 L 12.4512 -5.37109 C 12.4512 4.6875 17.5781 9.76562 27.7832 9.76562 Z M 69.8242 -5.85938 C 55.0781 -5.85938 43.2129 -17.7246 43.2129 -32.5684 C 43.2129 -47.4121 55.0781 -59.2773 69.8242 -59.2773 C 84.6191 -59.2773 96.4844 -47.4121 96.4844 -32.5684 C 96.4844 -17.7246 84.6191 -5.85938 69.8242 -5.85938 Z M 104.932 -44.4824 C 101.611 -44.4824 98.877 -47.168 98.877 -50.4883 C 98.877 -53.8574 101.611 -56.543 104.932 -56.543 C 108.252 -56.543 110.986 -53.8574 110.986 -50.4883 C 110.986 -47.168 108.252 -44.4824 104.932 -44.4824 Z M 69.8242 -13.2812 C 80.4688 -13.2812 89.1113 -21.875 89.1113 -32.5684 C 89.1113 -43.2617 80.4688 -51.8555 69.8242 -51.8555 C 59.1797 -51.8555 50.5859 -43.2617 50.5859 -32.5684 C 50.5859 -21.875 59.2285 -13.2812 69.8242 -13.2812 Z"/>
  </g>
  <g id="Light-M" transform="matrix(1 0 0 1 1083.63 1126)">
   <path d="M 26.8555 9.0332 L 112.158 9.0332 C 121.68 9.0332 126.562 4.15039 126.562 -5.22461 L 126.562 -56.4941 C 126.562 -65.918 121.68 -70.8008 112.158 -70.8008 L 99.7559 -70.8008 C 95.8496 -70.8008 94.7266 -71.3379 92.3828 -73.9746 L 88.3301 -78.5156 C 85.791 -81.25 83.5449 -82.4707 78.6621 -82.4707 L 59.6191 -82.4707 C 54.7363 -82.4707 52.4902 -81.25 49.9512 -78.5156 L 45.8984 -73.9746 C 43.6035 -71.3867 42.4316 -70.8008 38.5254 -70.8008 L 26.8555 -70.8008 C 17.334 -70.8008 12.4512 -65.918 12.4512 -56.4941 L 12.4512 -5.22461 C 12.4512 4.15039 17.334 9.0332 26.8555 9.0332 Z M 69.4824 -5.76172 C 54.6387 -5.76172 42.6758 -17.6758 42.6758 -32.6172 C 42.6758 -47.6074 54.6387 -59.5215 69.4824 -59.5215 C 84.4238 -59.5215 96.3379 -47.6074 96.3379 -32.6172 C 96.3379 -17.6758 84.375 -5.76172 69.4824 -5.76172 Z M 104.59 -44.9707 C 101.562 -44.9707 99.0723 -47.4121 99.0723 -50.4883 C 99.0723 -53.5645 101.562 -56.0059 104.59 -56.0059 C 107.617 -56.0059 110.107 -53.5645 110.107 -50.4883 C 110.107 -47.4121 107.617 -44.9707 104.59 -44.9707 Z M 69.4824 -11.5723 C 81.1035 -11.5723 90.5273 -20.9473 90.5273 -32.6172 C 90.5273 -44.3359 81.1035 -53.7109 69.4824 -53.7109 C 57.8613 -53.7109 48.4863 -44.3359 48.4863 -32.6172 C 48.4863 -20.9473 57.9102 -11.5723 69.4824 -11.5723 Z"/>
  </g>
  <g id="Thin-M" transform="matrix(1 0 0 1 787.355 1126)">
   <path d="M 25.6348 8.05664 L 112.5 8.05664 C 121.143 8.05664 125.684 3.4668 125.684 -5.0293 L 125.684 -56.543 C 125.684 -65.0879 121.143 -69.6777 112.5 -69.6777 L 98.7793 -69.6777 C 94.7266 -69.6777 93.75 -69.9219 91.1621 -72.8027 L 86.9141 -77.5879 C 84.2773 -80.4688 82.3242 -81.2988 77.6855 -81.2988 L 59.1797 -81.2988 C 54.541 -81.2988 52.5879 -80.4688 49.9512 -77.5879 L 45.7031 -72.8027 C 43.2129 -70.0195 42.0898 -69.6777 38.0859 -69.6777 L 25.6348 -69.6777 C 16.9922 -69.6777 12.4512 -65.0879 12.4512 -56.543 L 12.4512 -5.0293 C 12.4512 3.4668 16.9922 8.05664 25.6348 8.05664 Z M 69.043 -5.61523 C 54.1016 -5.61523 41.9922 -17.627 41.9922 -32.7148 C 41.9922 -47.8027 54.1016 -59.8633 69.043 -59.8633 C 84.1309 -59.8633 96.1426 -47.8027 96.1426 -32.7148 C 96.1426 -17.627 84.0332 -5.61523 69.043 -5.61523 Z M 69.043 -9.27734 C 81.9824 -9.27734 92.3828 -19.7266 92.3828 -32.7148 C 92.3828 -45.7031 81.9824 -56.1523 69.043 -56.1523 C 56.1523 -56.1523 45.7031 -45.7031 45.7031 -32.7148 C 45.7031 -19.7266 56.1523 -9.27734 69.043 -9.27734 Z M 104.15 -45.6055 C 101.465 -45.6055 99.3164 -47.7539 99.3164 -50.4395 C 99.3164 -53.125 101.465 -55.2246 104.15 -55.2246 C 106.836 -55.2246 108.984 -53.125 108.984 -50.4395 C 108.984 -47.7539 106.836 -45.6055 104.15 -45.6055 Z"/>
  </g>
  <g id="Ultralight-M" transform="matrix(1 0 0 1 490.863 1126)">
   <path d="M 25 7.56836 L 112.695 7.56836 C 120.85 7.56836 125.244 3.125 125.244 -4.98047 L 125.244 -56.5918 C 125.244 -64.6484 120.85 -69.1406 112.695 -69.1406 L 98.291 -69.1406 C 94.1895 -69.1406 93.2617 -69.2383 90.5762 -72.2168 L 86.1816 -77.0996 C 83.4961 -80.0293 81.6895 -80.7129 77.1484 -80.7129 L 58.9844 -80.7129 C 54.4434 -80.7129 52.6367 -80.0293 49.9512 -77.0996 L 45.6055 -72.2168 C 43.0176 -69.3359 41.8945 -69.1406 37.8418 -69.1406 L 25 -69.1406 C 16.7969 -69.1406 12.4512 -64.6484 12.4512 -56.5918 L 12.4512 -4.98047 C 12.4512 3.125 16.7969 7.56836 25 7.56836 Z M 68.8477 -5.51758 C 53.8086 -5.51758 41.6504 -17.627 41.6504 -32.7637 C 41.6504 -47.9004 53.8086 -60.0098 68.8477 -60.0098 C 83.9844 -60.0098 95.9961 -47.9004 95.9961 -32.7637 C 95.9961 -17.627 83.8379 -5.51758 68.8477 -5.51758 Z M 68.8477 -8.10547 C 82.4219 -8.10547 93.3594 -19.1406 93.3594 -32.7637 C 93.3594 -46.4355 82.4219 -57.4219 68.8477 -57.4219 C 55.2734 -57.4219 44.2871 -46.4355 44.2871 -32.7637 C 44.2871 -19.1406 55.2734 -8.10547 68.8477 -8.10547 Z M 103.906 -45.9473 C 101.465 -45.9473 99.4629 -47.9492 99.4629 -50.3906 C 99.4629 -52.8809 101.465 -54.8828 103.906 -54.8828 C 106.396 -54.8828 108.398 -52.8809 108.398 -50.3906 C 108.398 -47.9492 106.396 -45.9473 103.906 -45.9473 Z"/>
  </g>
  <g id="Black-S" transform="matrix(1 0 0 1 2875.88 696)">
   <path d="M 25 2.92969 L 90.0391 2.92969 C 99.6094 2.92969 105.273 -2.73438 105.273 -12.3047 L 105.273 -52.8809 C 105.273 -62.4512 99.6094 -68.1152 90.0391 -68.1152 L 84.2773 -68.1152 C 81.3477 -68.1152 80.127 -68.3105 77.6855 -70.3613 L 74.8047 -72.8027 C 72.4121 -74.8535 70.166 -75.4883 66.5039 -75.4883 L 48.5352 -75.4883 C 44.873 -75.4883 42.627 -74.8535 40.2344 -72.8027 L 37.3535 -70.3613 C 34.9121 -68.3105 33.6914 -68.1152 30.7617 -68.1152 L 25 -68.1152 C 15.4297 -68.1152 9.76562 -62.4512 9.76562 -52.8809 L 9.76562 -12.3047 C 9.76562 -2.73438 15.4297 2.92969 25 2.92969 Z M 57.4707 -12.3047 C 45.5566 -12.3047 35.9375 -21.9238 35.9375 -33.8867 C 35.9375 -45.8496 45.5566 -55.4688 57.4707 -55.4688 C 69.4336 -55.4688 79.0039 -45.8496 79.0039 -33.8867 C 79.0039 -21.9238 69.4336 -12.3047 57.4707 -12.3047 Z M 87.8418 -40.625 C 84.375 -40.625 81.6406 -43.3594 81.6406 -46.7773 C 81.6406 -50.2441 84.375 -52.9785 87.8418 -52.9785 C 91.2598 -52.9785 93.9941 -50.2441 93.9941 -46.7773 C 93.9941 -43.3594 91.2598 -40.625 87.8418 -40.625 Z M 57.4707 -25.3906 C 62.207 -25.3906 65.918 -29.1992 65.918 -33.8867 C 65.918 -38.623 62.207 -42.3828 57.4707 -42.3828 C 52.7832 -42.3828 49.0234 -38.623 49.0234 -33.8867 C 49.0234 -29.1992 52.7832 -25.3906 57.4707 -25.3906 Z"/>
  </g>
  <g id="Heavy-S" transform="matrix(1 0 0 1 2579.8 696)">
   <path d="M 24.3652 2.34375 L 89.4531 2.34375 C 98.7305 2.34375 104.004 -2.97852 104.004 -12.207 L 104.004 -52.6367 C 104.004 -61.8652 98.7305 -67.1875 89.4531 -67.1875 L 83.0566 -67.1875 C 80.127 -67.1875 78.9551 -67.4805 76.709 -69.4824 L 73.7793 -72.1191 C 71.5332 -74.2188 69.3359 -75 65.5762 -75 L 48.1934 -75 C 44.4336 -75 42.2363 -74.2188 39.9902 -72.1191 L 37.0605 -69.4824 C 34.8145 -67.4805 33.6426 -67.1875 30.7129 -67.1875 L 24.3652 -67.1875 C 15.0879 -67.1875 9.76562 -61.8652 9.76562 -52.6367 L 9.76562 -12.207 C 9.76562 -2.97852 15.0879 2.34375 24.3652 2.34375 Z M 56.8359 -12.3047 C 45.0195 -12.3047 35.498 -21.8262 35.498 -33.6914 C 35.498 -45.5566 45.0195 -55.127 56.8359 -55.127 C 68.7012 -55.127 78.2227 -45.5566 78.2227 -33.6914 C 78.2227 -21.8262 68.7012 -12.3047 56.8359 -12.3047 Z M 86.5723 -41.0156 C 83.252 -41.0156 80.6152 -43.6035 80.6152 -46.875 C 80.6152 -50.1953 83.252 -52.7832 86.5723 -52.7832 C 89.7949 -52.7832 92.4316 -50.1953 92.4316 -46.875 C 92.4316 -43.6035 89.7949 -41.0156 86.5723 -41.0156 Z M 56.8359 -23.877 C 62.3535 -23.877 66.6504 -28.2715 66.6504 -33.6914 C 66.6504 -39.209 62.3535 -43.5547 56.8359 -43.5547 C 51.416 -43.5547 47.0215 -39.209 47.0215 -33.6914 C 47.0215 -28.2715 51.416 -23.877 56.8359 -23.877 Z"/>
  </g>
  <g id="Bold-S" transform="matrix(1 0 0 1 2283.78 696)">
   <path d="M 23.6328 1.66016 L 88.7695 1.66016 C 97.7051 1.66016 102.637 -3.22266 102.637 -12.1094 L 102.637 -52.3926 C 102.637 -61.2793 97.7051 -66.1133 88.7695 -66.1133 L 81.6895 -66.1133 C 78.7598 -66.1133 77.6367 -66.5527 75.6348 -68.5059 L 72.6562 -71.3867 C 70.5566 -73.4863 68.4082 -74.4141 64.5508 -74.4141 L 47.8516 -74.4141 C 43.9941 -74.4141 41.8457 -73.4863 39.6973 -71.3867 L 36.7676 -68.5059 C 34.7168 -66.5527 33.6426 -66.1133 30.6641 -66.1133 L 23.6328 -66.1133 C 14.6973 -66.1133 9.76562 -61.2793 9.76562 -52.3926 L 9.76562 -12.1094 C 9.76562 -3.22266 14.6973 1.66016 23.6328 1.66016 Z M 56.1523 -12.3047 C 44.4336 -12.3047 35.0098 -21.7285 35.0098 -33.4961 C 35.0098 -45.2637 44.4336 -54.6875 56.1523 -54.6875 C 67.9199 -54.6875 77.3438 -45.2637 77.3438 -33.4961 C 77.3438 -21.7285 67.9199 -12.3047 56.1523 -12.3047 Z M 85.1074 -41.4551 C 81.9824 -41.4551 79.4922 -43.8965 79.4922 -46.9727 C 79.4922 -50.0977 81.9824 -52.5879 85.1074 -52.5879 C 88.1836 -52.5879 90.6738 -50.0977 90.6738 -46.9727 C 90.6738 -43.8965 88.1836 -41.4551 85.1074 -41.4551 Z M 56.1523 -22.1191 C 62.5 -22.1191 67.5293 -27.1973 67.5293 -33.4961 C 67.5293 -39.8438 62.5 -44.873 56.1523 -44.873 C 49.9023 -44.873 44.8242 -39.8438 44.8242 -33.4961 C 44.8242 -27.1973 49.9023 -22.1191 56.1523 -22.1191 Z"/>
  </g>
  <g id="Semibold-S" transform="matrix(1 0 0 1 1987.55 696)">
   <path d="M 23.0957 1.17188 L 88.3301 1.17188 C 97.0215 1.17188 101.66 -3.36914 101.66 -12.0117 L 101.66 -52.1973 C 101.66 -60.8398 97.0215 -65.3809 88.3301 -65.3809 L 80.7129 -65.3809 C 77.7832 -65.3809 76.7578 -65.918 74.8535 -67.8223 L 71.875 -70.8984 C 69.873 -72.9492 67.7246 -74.0234 63.8184 -74.0234 L 47.5586 -74.0234 C 43.6523 -74.0234 41.5527 -72.9492 39.502 -70.8984 L 36.5234 -67.8223 C 34.668 -65.918 33.5938 -65.3809 30.6641 -65.3809 L 23.0957 -65.3809 C 14.4043 -65.3809 9.76562 -60.8398 9.76562 -52.1973 L 9.76562 -12.0117 C 9.76562 -3.36914 14.4043 1.17188 23.0957 1.17188 Z M 55.7129 -12.3047 C 44.043 -12.3047 34.668 -21.6309 34.668 -33.3496 C 34.668 -45.0684 44.043 -54.4434 55.7129 -54.4434 C 67.3828 -54.4434 76.709 -45.0684 76.709 -33.3496 C 76.709 -21.6309 67.3828 -12.3047 55.7129 -12.3047 Z M 84.1309 -41.748 C 81.1523 -41.748 78.7109 -44.1406 78.7109 -47.0703 C 78.7109 -50.0977 81.1523 -52.4414 84.1309 -52.4414 C 87.0605 -52.4414 89.4531 -50.0977 89.4531 -47.0703 C 89.4531 -44.1406 87.0605 -41.748 84.1309 -41.748 Z M 55.7129 -20.9473 C 62.5977 -20.9473 68.1152 -26.4648 68.1152 -33.3496 C 68.1152 -40.2832 62.5977 -45.752 55.7129 -45.752 C 48.8281 -45.752 43.3105 -40.2832 43.3105 -33.3496 C 43.3105 -26.4648 48.877 -20.9473 55.7129 -20.9473 Z"/>
  </g>
  <g id="Medium-S" transform="matrix(1 0 0 1 1691.21 696)">
   <path d="M 22.7051 0.830078 L 87.9883 0.830078 C 96.5332 0.830078 100.928 -3.51562 100.928 -11.9629 L 100.928 -52.0508 C 100.928 -60.498 96.5332 -64.8438 87.9883 -64.8438 L 80.0293 -64.8438 C 77.0996 -64.8438 76.0742 -65.4785 74.2676 -67.334 L 71.2891 -70.5078 C 69.3359 -72.5586 67.2363 -73.7305 63.2812 -73.7305 L 47.3633 -73.7305 C 43.4082 -73.7305 41.3086 -72.5586 39.3555 -70.5078 L 36.377 -67.334 C 34.6191 -65.4785 33.5938 -64.8438 30.6152 -64.8438 L 22.7051 -64.8438 C 14.209 -64.8438 9.76562 -60.498 9.76562 -52.0508 L 9.76562 -11.9629 C 9.76562 -3.51562 14.209 0.830078 22.7051 0.830078 Z M 55.3223 -12.3047 C 43.75 -12.3047 34.4238 -21.582 34.4238 -33.252 C 34.4238 -44.9219 43.75 -54.1992 55.3223 -54.1992 C 66.9434 -54.1992 76.2695 -44.9219 76.2695 -33.252 C 76.2695 -21.582 66.9434 -12.3047 55.3223 -12.3047 Z M 83.3496 -41.9434 C 80.4688 -41.9434 78.125 -44.2871 78.125 -47.1191 C 78.125 -50.0488 80.4688 -52.3438 83.3496 -52.3438 C 86.2305 -52.3438 88.5742 -50.0488 88.5742 -47.1191 C 88.5742 -44.2871 86.2305 -41.9434 83.3496 -41.9434 Z M 55.3223 -20.0684 C 62.6465 -20.0684 68.5547 -25.9277 68.5547 -33.252 C 68.5547 -40.5762 62.6465 -46.4844 55.3223 -46.4844 C 48.0469 -46.4844 42.1387 -40.5762 42.1387 -33.252 C 42.1387 -25.9277 48.0957 -20.0684 55.3223 -20.0684 Z"/>
  </g>
  <g id="Regular-S" transform="matrix(1 0 0 1 1394.96 696)">
   <path d="M 22.2168 0.390625 L 87.5488 0.390625 C 95.8496 0.390625 100 -3.71094 100 -11.9141 L 100 -51.8555 C 100 -60.0586 95.8496 -64.1113 87.5488 -64.1113 L 79.1016 -64.1113 C 76.123 -64.1113 75.1953 -64.8438 73.5352 -66.6504 L 70.5566 -70.0195 C 68.6523 -72.0703 66.6016 -73.3398 62.5977 -73.3398 L 47.1191 -73.3398 C 43.1152 -73.3398 41.0156 -72.0703 39.1602 -70.0195 L 36.1816 -66.6504 C 34.5215 -64.8438 33.5449 -64.1113 30.6152 -64.1113 L 22.2168 -64.1113 C 13.916 -64.1113 9.76562 -60.0586 9.76562 -51.8555 L 9.76562 -11.9141 C 9.76562 -3.71094 13.916 0.390625 22.2168 0.390625 Z M 54.8828 -12.3047 C 43.3594 -12.3047 34.082 -21.5332 34.082 -33.1055 C 34.082 -44.7266 43.3594 -53.9551 54.8828 -53.9551 C 66.4062 -53.9551 75.6836 -44.7266 75.6836 -33.1055 C 75.6836 -21.5332 66.4062 -12.3047 54.8828 -12.3047 Z M 82.373 -42.2852 C 79.6387 -42.2852 77.3926 -44.4824 77.3926 -47.2168 C 77.3926 -50 79.6387 -52.1973 82.373 -52.1973 C 85.1074 -52.1973 87.3535 -50 87.3535 -47.2168 C 87.3535 -44.4824 85.1074 -42.2852 82.373 -42.2852 Z M 54.8828 -18.8965 C 62.7441 -18.8965 69.1406 -25.1953 69.1406 -33.1055 C 69.1406 -41.0156 62.7441 -47.3633 54.8828 -47.3633 C 47.0215 -47.3633 40.625 -41.0156 40.625 -33.1055 C 40.625 -25.1953 47.0703 -18.8965 54.8828 -18.8965 Z"/>
  </g>
  <g id="Light-S" transform="matrix(1 0 0 1 1098.54 696)">
   <path d="M 21.3867 -0.292969 L 87.793 -0.292969 C 95.5078 -0.292969 99.4141 -4.15039 99.4141 -11.7676 L 99.4141 -51.9043 C 99.4141 -59.5215 95.5078 -63.3789 87.793 -63.3789 L 78.418 -63.3789 C 75.3906 -63.3789 74.5117 -63.916 72.7539 -65.918 L 69.5801 -69.3848 C 67.6758 -71.5332 65.8203 -72.5586 61.9141 -72.5586 L 46.8262 -72.5586 C 42.9688 -72.5586 41.1133 -71.5332 39.1602 -69.3848 L 36.0352 -65.918 C 34.2773 -63.916 33.3496 -63.3789 30.3223 -63.3789 L 21.3867 -63.3789 C 13.6719 -63.3789 9.76562 -59.5215 9.76562 -51.9043 L 9.76562 -11.7676 C 9.76562 -4.15039 13.6719 -0.292969 21.3867 -0.292969 Z M 54.5898 -12.207 C 42.9688 -12.207 33.6426 -21.4844 33.6426 -33.1543 C 33.6426 -44.873 42.9688 -54.1504 54.5898 -54.1504 C 66.2109 -54.1504 75.5371 -44.873 75.5371 -33.1543 C 75.5371 -21.4844 66.2109 -12.207 54.5898 -12.207 Z M 82.0801 -42.6758 C 79.5898 -42.6758 77.5391 -44.6777 77.5391 -47.168 C 77.5391 -49.707 79.5898 -51.709 82.0801 -51.709 C 84.5703 -51.709 86.6211 -49.707 86.6211 -47.168 C 86.6211 -44.6777 84.5703 -42.6758 82.0801 -42.6758 Z M 54.5898 -17.334 C 63.3301 -17.334 70.3613 -24.4141 70.3613 -33.1543 C 70.3613 -41.9434 63.3301 -49.0234 54.5898 -49.0234 C 45.8496 -49.0234 38.8184 -41.9434 38.8184 -33.1543 C 38.8184 -24.4141 45.8984 -17.334 54.5898 -17.334 Z"/>
  </g>
  <g id="Thin-S" transform="matrix(1 0 0 1 802.223 696)">
   <path d="M 20.3125 -1.12305 L 88.0859 -1.12305 C 95.0195 -1.12305 98.6328 -4.78516 98.6328 -11.6211 L 98.6328 -51.9043 C 98.6328 -58.7891 95.0195 -62.4512 88.0859 -62.4512 L 77.5879 -62.4512 C 74.4629 -62.4512 73.6328 -62.6953 71.6797 -64.8926 L 68.3594 -68.6035 C 66.3086 -70.8008 64.7461 -71.5332 61.0352 -71.5332 L 46.4844 -71.5332 C 42.7734 -71.5332 41.2109 -70.8008 39.1602 -68.6035 L 35.8398 -64.8926 C 33.9355 -62.7441 33.0566 -62.4512 29.9316 -62.4512 L 20.3125 -62.4512 C 13.3789 -62.4512 9.76562 -58.7891 9.76562 -51.9043 L 9.76562 -11.6211 C 9.76562 -4.78516 13.3789 -1.12305 20.3125 -1.12305 Z M 54.1992 -12.0605 C 42.4805 -12.0605 33.0566 -21.4844 33.0566 -33.252 C 33.0566 -45.0195 42.4805 -54.4434 54.1992 -54.4434 C 65.9668 -54.4434 75.3418 -45.0195 75.3418 -33.252 C 75.3418 -21.4844 65.918 -12.0605 54.1992 -12.0605 Z M 54.1992 -15.332 C 64.0625 -15.332 72.0215 -23.3398 72.0215 -33.252 C 72.0215 -43.1641 64.0625 -51.1719 54.1992 -51.1719 C 44.3359 -51.1719 36.377 -43.1641 36.377 -33.252 C 36.377 -23.3398 44.3359 -15.332 54.1992 -15.332 Z M 81.6895 -43.2617 C 79.541 -43.2617 77.7832 -44.9707 77.7832 -47.168 C 77.7832 -49.3164 79.541 -51.0742 81.6895 -51.0742 C 83.8379 -51.0742 85.5957 -49.3164 85.5957 -47.168 C 85.5957 -44.9707 83.8379 -43.2617 81.6895 -43.2617 Z"/>
  </g>
  <g id="Ultralight-S" transform="matrix(1 0 0 1 505.707 696)">
   <path d="M 19.7754 -1.5625 L 88.2324 -1.5625 C 94.7754 -1.5625 98.2422 -5.12695 98.2422 -11.5234 L 98.2422 -51.9531 C 98.2422 -58.3984 94.7754 -61.9141 88.2324 -61.9141 L 77.1484 -61.9141 C 73.9258 -61.9141 73.1934 -62.0605 71.1426 -64.3555 L 67.7246 -68.1641 C 65.625 -70.459 64.209 -70.9961 60.5957 -70.9961 L 46.2891 -70.9961 C 42.6758 -70.9961 41.2598 -70.459 39.1602 -68.1641 L 35.7422 -64.3555 C 33.7891 -62.1582 32.9102 -61.9141 29.7363 -61.9141 L 19.7754 -61.9141 C 13.2324 -61.9141 9.76562 -58.3984 9.76562 -51.9531 L 9.76562 -11.5234 C 9.76562 -5.12695 13.2324 -1.5625 19.7754 -1.5625 Z M 54.0039 -11.9629 C 42.2363 -11.9629 32.7148 -21.4355 32.7148 -33.3008 C 32.7148 -45.166 42.2363 -54.5898 54.0039 -54.5898 C 65.8691 -54.5898 75.2441 -45.166 75.2441 -33.3008 C 75.2441 -21.4355 65.7715 -11.9629 54.0039 -11.9629 Z M 54.0039 -14.3066 C 64.4531 -14.3066 72.9004 -22.8027 72.9004 -33.3008 C 72.9004 -43.7988 64.4531 -52.2949 54.0039 -52.2949 C 43.5547 -52.2949 35.1074 -43.7988 35.1074 -33.3008 C 35.1074 -22.8027 43.5547 -14.3066 54.0039 -14.3066 Z M 81.4941 -43.5547 C 79.4922 -43.5547 77.8809 -45.1172 77.8809 -47.1191 C 77.8809 -49.1211 79.4922 -50.7324 81.4941 -50.7324 C 83.4961 -50.7324 85.0586 -49.1211 85.0586 -47.1191 C 85.0586 -45.1172 83.4961 -43.5547 81.4941 -43.5547 Z"/>
  </g>
 </g>
</svg>
