<svg width="24" height="24" viewBox="0 0 24 24" fill="none" xmlns="http://www.w3.org/2000/svg">
<path d="M11.9961 3C12.5484 3 12.9961 3.44772 12.9961 4C12.9961 4.55229 12.5484 5 11.9961 5H8.44043C6.53831 5.00019 4.99615 6.54219 4.99609 8.44434V15.5557C4.99615 17.4578 6.53831 18.9998 8.44043 19H15.5518C17.454 18.9999 18.996 17.4579 18.9961 15.5557V12C18.9961 11.4478 19.4439 11.0001 19.9961 11C20.5484 11 20.9961 11.4477 20.9961 12V15.5557C20.996 18.5625 18.5586 20.9999 15.5518 21H8.44043C5.43374 20.9998 2.99615 18.5624 2.99609 15.5557V8.44434C2.99615 5.43762 5.43375 3.00019 8.44043 3H11.9961Z" fill="#0F0F0F"/>
<path d="M18.0889 3C18.8598 3.00074 19.5988 3.30798 20.1436 3.85352C20.6893 4.39917 20.9961 5.13965 20.9961 5.91113C20.996 6.68275 20.6891 7.42252 20.1436 7.96777C20.1335 7.97782 20.1217 7.98655 20.1113 7.99609L20.1152 7.99512C20.1199 7.99077 20.1274 7.98378 20.1299 7.98145L19.5361 8.5752C19.1635 8.94765 18.6525 9.45795 18.1016 10.0088C16.9997 11.1104 15.7357 12.3747 15.0859 13.0244C14.6451 13.4651 14.0689 13.7446 13.4502 13.8203L13.4512 13.8213L12.1211 13.9854C11.5363 14.0575 10.9508 13.8532 10.5381 13.4326C10.1254 13.012 9.93136 12.4232 10.0146 11.8398L10.2119 10.4619C10.2961 9.86424 10.5724 9.30987 10.999 8.88281C11.9086 7.97284 14.1312 5.7492 16.0303 3.85059C16.576 3.3054 17.3174 2.99938 18.0889 3ZM18.7285 5.2666C18.5585 5.09624 18.3276 5.00022 18.0869 5C17.8461 4.99985 17.6147 5.09541 17.4443 5.26563C15.5456 7.16391 13.3236 9.38601 12.4141 10.2959C12.2939 10.4162 12.216 10.5728 12.1924 10.7412L12.1914 10.7451L12.0146 11.9834L13.2051 11.8369L13.207 11.8359C13.3825 11.8145 13.5458 11.7352 13.6709 11.6104C14.3206 10.9606 15.5855 9.69556 16.6875 8.59375C17.2384 8.04297 17.7494 7.53268 18.1221 7.16016L18.6875 6.59473C18.7014 6.58087 18.7131 6.57006 18.7207 6.5625C18.7241 6.55909 18.7269 6.55532 18.7295 6.55274C18.8999 6.3824 18.996 6.1518 18.9961 5.91113C18.9961 5.66989 18.8999 5.43795 18.7295 5.26758L19.4365 4.56055L18.7285 5.2666Z" fill="#0F0F0F"/>
</svg>
