<svg width="22" height="22" viewBox="0 0 22 22" fill="none" xmlns="http://www.w3.org/2000/svg">
<g clip-path="url(#clip0_9301_2796)">
<path d="M14.1523 13.2142V12.3734C14.6582 12.1959 15.0266 11.6448 15.0266 10.9924C15.0266 10.34 14.6582 9.78725 14.1523 9.61131V8.77052C14.6287 8.60392 14.984 8.10412 15.0233 7.5H14.4438V7.75691C14.4438 7.95465 14.3259 8.12903 14.1523 8.21623V8.09634C14.1523 7.92039 14.0017 7.77715 13.8167 7.77715H13.7873C13.6023 7.77715 13.4516 7.92039 13.4516 8.09634V8.21623C13.2781 8.12903 13.1602 7.9562 13.1602 7.75691V7.5H12.5807C12.62 8.10412 12.9752 8.60392 13.4516 8.77052V9.61131C12.9474 9.78725 12.5774 10.3384 12.5774 10.9924C12.5774 11.6463 12.9457 12.1975 13.4516 12.3734V13.2142C12.9752 13.3808 12.62 13.8807 12.5807 14.4847H13.1602V14.2278C13.1602 14.0301 13.2781 13.8557 13.4516 13.7685V13.8884C13.4516 14.0644 13.6023 14.2076 13.7873 14.2076H13.8167C14.0017 14.2076 14.1523 14.0644 14.1523 13.8884V13.7685C14.3259 13.8557 14.4438 14.0285 14.4438 14.2278V14.4847H15.0233C14.984 13.8807 14.6287 13.3808 14.1523 13.2142ZM13.1602 11.3598V10.6234C13.1602 10.4256 13.2781 10.2512 13.4516 10.164V10.2839C13.4516 10.4599 13.6023 10.6031 13.7873 10.6031H13.8167C14.0017 10.6031 14.1523 10.4599 14.1523 10.2839V10.164C14.3259 10.2512 14.4438 10.4241 14.4438 10.6234V11.3598C14.4438 11.5576 14.3259 11.732 14.1523 11.8191V11.6993C14.1523 11.5233 14.0017 11.3801 13.8167 11.3801H13.7873C13.6023 11.3801 13.4516 11.5233 13.4516 11.6993V11.8191C13.2797 11.732 13.1602 11.5591 13.1602 11.3598Z" fill="#919191"/>
<path d="M17.7083 11.4392V10.544C18.2142 10.3665 18.5826 9.81528 18.5826 9.16289C18.5826 8.5105 18.2142 7.95776 17.7083 7.78182V7.5H17.0092V7.78182C16.5033 7.95932 16.135 8.5105 16.135 9.16289C16.135 9.81528 16.5033 10.368 17.0092 10.544V11.4392C16.5033 11.6167 16.135 12.1679 16.135 12.8203C16.135 13.4727 16.5033 14.0254 17.0092 14.2014V14.4832H17.7083V14.2014C18.2142 14.0239 18.5826 13.4727 18.5826 12.8203C18.5826 12.1679 18.2142 11.6167 17.7083 11.4392ZM16.7162 9.53034V8.79388C16.7162 8.59613 16.8341 8.42175 17.0076 8.33456V8.45445C17.0076 8.63039 17.1583 8.77364 17.3432 8.77364H17.3711C17.5561 8.77364 17.7067 8.63039 17.7067 8.45445V8.33456C17.8802 8.42175 17.9981 8.59458 17.9981 8.79388V9.53034C17.9981 9.72808 17.8802 9.90247 17.7067 9.98966V9.86977C17.7067 9.69383 17.5561 9.55058 17.3711 9.55058H17.3416C17.1566 9.55058 17.006 9.69383 17.006 9.86977V9.98966C16.8357 9.90247 16.7162 9.72964 16.7162 9.53034ZM17.9997 13.1893C17.9997 13.3871 17.8819 13.5615 17.7083 13.6486V13.4727C17.7083 13.2968 17.5577 13.1535 17.3727 13.1535H17.3449C17.1599 13.1535 17.0092 13.2968 17.0092 13.4727V13.6486C16.8357 13.5615 16.7178 13.3886 16.7178 13.1893V12.4529C16.7178 12.2551 16.8357 12.0807 17.0092 11.9935V12.0574C17.0092 12.2333 17.1599 12.3766 17.3449 12.3766H17.3744C17.5593 12.3766 17.7099 12.2333 17.7099 12.0574V11.9935C17.8835 12.0807 18.0014 12.2536 18.0014 12.4529V13.1893H17.9997Z" fill="#919191"/>
<path d="M10.1463 10.2798C10.1397 10.244 10.1316 10.2098 10.1185 10.1771C10.1234 10.1693 11.2104 8.72903 10.2036 7.83843C9.19837 6.94782 8.02449 8.10935 8.01795 8.11558C7.83131 8.05952 7.64303 8.02527 7.4564 8.0097C7.4564 8.0097 7.4564 8.0097 7.45476 8.0097C7.07166 7.94897 6.53466 8.0097 6.53466 8.0097C6.34966 8.02527 6.16303 8.05952 5.97802 8.11402C5.97147 8.10779 4.79762 6.94626 3.7924 7.83687C2.78717 8.72748 3.87261 10.1693 3.87753 10.1755C3.86607 10.2098 3.85624 10.244 3.84969 10.2783C3.74164 10.8948 3 11.0848 3 12.1591C3 13.2537 3.77438 14.1163 5.3559 14.1163H6.00422C6.00749 14.1194 6.25798 14.4589 6.77533 14.4791C6.77533 14.4791 6.89485 14.4915 7.16989 14.4822C7.71834 14.4822 7.9852 14.1225 7.98684 14.1178H8.63516C10.2166 14.1178 10.991 13.2553 10.991 12.1607C10.996 11.0879 10.2543 10.8964 10.1463 10.2798Z" fill="#919191"/>
</g>
<defs>
<clipPath id="clip0_9301_2796">
<rect width="15.6154" height="7" fill="white" transform="translate(3 7.5)"/>
</clipPath>
</defs>
</svg>
