<svg width="24" height="24" viewBox="0 0 24 24" fill="none" xmlns="http://www.w3.org/2000/svg">
<path d="M8 8.02759C7.58579 8.02759 7.25 8.36338 7.25 8.77759C7.25 9.1918 7.58579 9.52759 8 9.52759L16 9.52759C16.4142 9.52759 16.75 9.1918 16.75 8.77759C16.75 8.36338 16.4142 8.02759 16 8.02759L8 8.02759Z" fill="#0099FF"/>
<path d="M8 11.2502C7.58579 11.2502 7.25 11.586 7.25 12.0002C7.25 12.4145 7.58579 12.7502 8 12.7502L16 12.7502C16.4142 12.7502 16.75 12.4145 16.75 12.0002C16.75 11.586 16.4142 11.2502 16 11.2502L8 11.2502Z" fill="#0099FF"/>
<path d="M8 14.4729C7.58579 14.4729 7.25 14.8087 7.25 15.2229C7.25 15.6371 7.58579 15.9729 8 15.9729H12.1708C12.5851 15.9729 12.9208 15.6371 12.9208 15.2229C12.9208 14.8087 12.5851 14.4729 12.1708 14.4729H8Z" fill="#0099FF"/>
<path fill-rule="evenodd" clip-rule="evenodd" d="M19.6517 4.11046C19.0497 3.50847 18.2917 3.24976 17.3916 3.12891C16.5258 3.01265 15.4251 3.01267 14.0599 3.0127L9.94513 3.0127C8.57755 3.01268 7.47521 3.01266 6.60825 3.12922C5.70814 3.25024 4.95027 3.50913 4.34835 4.11105C3.74643 4.71296 3.48754 5.47084 3.36652 6.37095C3.24996 7.23791 3.24998 8.34022 3.25 9.7078L3.25 14.2928C3.24998 15.6604 3.24996 16.7627 3.36652 17.6297C3.48754 18.5298 3.74643 19.2876 4.34835 19.8896C4.95027 20.4915 5.70814 20.7504 6.60825 20.8714C7.47522 20.9879 8.57754 20.9879 9.94513 20.9879L14.0549 20.9873C15.4225 20.9873 16.5248 20.9874 17.3918 20.8708C18.2919 20.7498 19.0497 20.4909 19.6517 19.889C20.2536 19.2871 20.5125 18.5292 20.6335 17.6291C20.75 16.7621 20.75 15.6598 20.75 14.2922L20.75 9.70724C20.75 8.33965 20.75 7.23733 20.6335 6.37036C20.5125 5.47025 20.2536 4.71238 19.6517 4.11046ZM14 4.5127C15.4355 4.5127 16.4366 4.51414 17.192 4.61557C17.9258 4.7141 18.3143 4.89443 18.591 5.17112C18.8678 5.44788 19.0482 5.83646 19.1469 6.57023C19.2484 7.32558 19.25 8.32669 19.25 9.76211L19.25 14.2373C19.25 15.6727 19.2484 16.6738 19.1469 17.4292C19.0482 18.163 18.8678 18.5515 18.591 18.8283C18.3142 19.1051 17.9257 19.2855 17.1919 19.3842C16.4365 19.4857 15.4354 19.4873 14 19.4873L10 19.4879C8.56464 19.4879 7.56345 19.4863 6.80812 19.3848C6.07435 19.2861 5.68577 19.1057 5.40901 18.8289C5.13225 18.5521 4.9518 18.1636 4.85315 17.4298C4.75159 16.6744 4.75 15.6733 4.75 14.2379L4.75 9.7627C4.75 8.32728 4.75159 7.32617 4.85315 6.57082C4.9518 5.83704 5.13225 5.44847 5.40901 5.17171C5.68577 4.89494 6.07435 4.7145 6.80812 4.61584C7.56347 4.51429 8.56459 4.5127 10 4.5127L14 4.5127Z" fill="#0099FF"/>
</svg>
