<svg width="24" height="24" viewBox="0 0 24 24" fill="none" xmlns="http://www.w3.org/2000/svg">
<path d="M10.2559 12.751C10.8071 12.7523 11.2529 13.2006 11.2529 13.752V20.7471C11.2528 21.2991 10.8059 21.7468 10.2539 21.7471C9.7017 21.7471 9.25404 21.2992 9.25391 20.7471V14.75L3.25586 14.7383C2.70385 14.7371 2.257 14.2893 2.25781 13.7373C2.25879 13.1853 2.70686 12.7377 3.25879 12.7383L10.2559 12.751ZM13.751 2.25781C14.3033 2.25781 14.751 2.70553 14.751 3.25781L14.752 9.25391H20.7471C21.2992 9.25407 21.7471 9.70172 21.7471 10.2539C21.7467 10.8058 21.299 11.2528 20.7471 11.2529H13.752C13.1997 11.2529 12.7511 10.8051 12.751 10.2529V3.25781C12.751 2.70561 13.1988 2.25795 13.751 2.25781Z" fill="#0F0F0F"/>
</svg>
