<svg width="20" height="20" viewBox="0 0 20 20" fill="none" xmlns="http://www.w3.org/2000/svg">
<path d="M8.55762 10.6816C8.97099 10.6824 9.30616 11.0184 9.30664 11.4316V17.1846C9.30638 17.5986 8.97069 17.9336 8.55664 17.9336C8.14259 17.9336 7.80691 17.5986 7.80664 17.1846V12.1816L2.80371 12.1729C2.38955 12.1721 2.05396 11.8351 2.05469 11.4209C2.05548 11.007 2.39183 10.6715 2.80567 10.6719L8.55762 10.6816ZM11.4326 2.05469C11.8466 2.05485 12.1824 2.39076 12.1826 2.80469V7.80762L17.1846 7.80664C17.5985 7.80696 17.9345 8.14265 17.9346 8.55664C17.9345 8.97062 17.5985 9.30632 17.1846 9.30664H11.4316C11.0178 9.30622 10.6817 8.97055 10.6816 8.55664L10.6826 2.80469C10.6828 2.39069 11.0186 2.05474 11.4326 2.05469Z" fill="#0F0F0F"/>
</svg>
