<svg width="25" height="24" viewBox="0 0 25 24" fill="none" xmlns="http://www.w3.org/2000/svg">
<path d="M4.49926 12.8944C4.66347 12.922 4.8186 12.9375 4.96005 12.9478C5.3011 12.9725 5.70265 12.973 6.10848 12.973H11.1358C11.3195 12.973 11.4115 12.9734 11.4685 13.0305C11.5254 13.0875 11.526 13.1789 11.526 13.3622V22.4166C11.526 22.4466 11.5015 22.471 11.4716 22.471C9.91049 22.4711 8.66459 22.4713 7.68746 22.34C6.67797 22.2042 5.84662 21.9158 5.18893 21.2581C4.53126 20.6004 4.24275 19.769 4.10704 18.7595C3.9757 17.7824 3.97594 16.5365 3.97596 14.9755V13.3057C3.97596 13.0664 3.9765 12.9467 4.04553 12.8883C4.11459 12.8301 4.24285 12.8512 4.49926 12.8944Z" fill="#919191"/>
<path d="M20.5007 12.8944C20.7572 12.8511 20.8854 12.8301 20.9545 12.8883C21.0235 12.9467 21.024 13.0664 21.024 13.3057V14.9755C21.0241 16.5365 21.0243 17.7824 20.893 18.7595C20.7572 19.769 20.4687 20.6004 19.8111 21.2581C19.1534 21.9158 18.322 22.2042 17.3125 22.34C16.3354 22.4713 15.0895 22.4711 13.5285 22.471C13.4985 22.471 13.474 22.4466 13.474 22.4166V13.3622C13.474 13.1789 13.4746 13.0875 13.5315 13.0305C13.5885 12.9734 13.6805 12.973 13.8642 12.973H18.8915C19.2974 12.973 19.6989 12.9725 20.04 12.9478C20.1814 12.9375 20.3365 12.922 20.5007 12.8944Z" fill="#919191"/>
<path fill-rule="evenodd" clip-rule="evenodd" d="M8.74313 1.52795C10.2746 1.5281 11.6353 2.25675 12.5 3.38522C13.3648 2.25657 14.7262 1.52795 16.2579 1.52795H16.6047C18.1035 1.52795 19.319 2.74351 19.319 4.24226C19.3189 5.03345 19.0949 5.77224 18.707 6.39898H18.8582C19.291 6.39897 19.6547 6.39867 19.9512 6.42015C20.2591 6.44248 20.5587 6.49125 20.8436 6.62282C21.166 6.77183 21.4544 6.99535 21.6643 7.28627C21.8627 7.56125 21.9366 7.85777 21.9688 8.1423C21.998 8.39988 21.9981 8.70878 21.998 9.0427V9.11228C21.9981 9.44628 21.998 9.75607 21.9688 10.0137C21.9366 10.298 21.8625 10.5939 21.6643 10.8687C21.4544 11.1596 21.166 11.3831 20.8436 11.5322C20.5587 11.6637 20.2591 11.7125 19.9512 11.7348C19.6547 11.7563 19.291 11.757 18.8582 11.757H6.14176C5.70899 11.757 5.34534 11.7563 5.04877 11.7348C4.74092 11.7125 4.44129 11.6637 4.15644 11.5322C3.83403 11.3831 3.54562 11.1596 3.3357 10.8687C3.13751 10.5939 3.06345 10.298 3.0312 10.0137C3.00201 9.75607 3.00192 9.44628 3.00196 9.11228V9.0427C3.00192 8.70878 3.00203 8.39988 3.0312 8.1423C3.06343 7.85777 3.13728 7.56125 3.3357 7.28627C3.54565 6.99535 3.83398 6.77183 4.15644 6.62282C4.44129 6.49125 4.74092 6.44248 5.04877 6.42015C5.34533 6.39867 5.70901 6.39897 6.14176 6.39898H6.29401C5.9059 5.77215 5.68108 5.03362 5.68097 4.24226C5.68097 2.74351 6.89652 1.52795 8.39527 1.52795H8.74313ZM8.39527 3.47596C7.97255 3.47596 7.62898 3.81953 7.62898 4.24226C7.62929 5.43327 8.59563 6.39892 9.78671 6.39898H11.526V6.25984C11.526 4.72282 10.2801 3.47622 8.74313 3.47596H8.39527ZM16.2579 3.47596C14.7207 3.47596 13.474 4.72266 13.474 6.25984V6.39898H15.2143C16.4052 6.39866 17.3707 5.43311 17.371 4.24226C17.371 3.81953 17.0275 3.47596 16.6047 3.47596H16.2579Z" fill="#919191"/>
</svg>
