<svg width="16" height="16" viewBox="0 0 16 16" fill="none" xmlns="http://www.w3.org/2000/svg">
<path d="M7.23633 4.93848C7.78585 4.93848 8.23583 4.93797 8.60059 4.96777C8.97264 4.99819 9.3113 5.06328 9.62793 5.22461C10.1217 5.47629 10.5238 5.87829 10.7754 6.37207C10.9365 6.68855 11.0009 7.02757 11.0313 7.39941C11.061 7.76414 11.0615 8.21431 11.0615 8.76367V9.67285C11.0615 10.2223 11.061 10.6724 11.0313 11.0371C11.0008 11.4091 10.9367 11.7479 10.7754 12.0645C10.5237 12.5583 10.1218 12.9603 9.62793 13.2119C9.31131 13.3732 8.97262 13.4374 8.60059 13.4678C8.23583 13.4976 7.78585 13.498 7.23633 13.498H6.32715C5.77772 13.498 5.32764 13.4975 4.96289 13.4678C4.59102 13.4374 4.25204 13.373 3.93555 13.2119C3.44178 12.9603 3.03977 12.5582 2.78809 12.0645C2.62678 11.7479 2.56167 11.4091 2.53125 11.0371C2.50145 10.6724 2.50195 10.2223 2.50195 9.67285V8.76367C2.50195 8.21431 2.5015 7.76414 2.53125 7.39941C2.56164 7.02743 2.62688 6.68865 2.78809 6.37207C3.03975 5.87815 3.44162 5.47628 3.93555 5.22461C4.25218 5.06334 4.59084 4.99817 4.96289 4.96777C5.32764 4.93801 5.77771 4.93848 6.32715 4.93848H7.23633ZM6.32715 6.18848C5.757 6.18848 5.36655 6.18921 5.06445 6.21387C4.76993 6.23793 4.61402 6.28136 4.50293 6.33789C4.24421 6.46972 4.03319 6.68073 3.90137 6.93945C3.84488 7.05054 3.8014 7.20661 3.77734 7.50098C3.7527 7.80306 3.75195 8.19363 3.75195 8.76367V9.67285C3.75195 10.2429 3.75267 10.6335 3.77734 10.9355C3.80145 11.23 3.84479 11.386 3.90137 11.4971C4.03321 11.7556 4.24433 11.9659 4.50293 12.0977C4.61402 12.1542 4.76999 12.1986 5.06445 12.2227C5.36654 12.2473 5.75706 12.248 6.32715 12.248H7.23633C7.80643 12.248 8.19696 12.2473 8.49902 12.2227C8.79361 12.1986 8.94948 12.1542 9.06055 12.0977C9.31902 11.9659 9.52934 11.7555 9.66113 11.4971C9.71771 11.386 9.76203 11.23 9.78613 10.9355C9.81081 10.6335 9.81152 10.2429 9.81152 9.67285V8.76367C9.81152 8.19367 9.81077 7.80305 9.78613 7.50098C9.76208 7.20657 9.71763 7.05054 9.66113 6.93945C9.52936 6.68084 9.31912 6.46973 9.06055 6.33789C8.94949 6.28131 8.79354 6.23797 8.49902 6.21387C8.19696 6.18919 7.80643 6.18848 7.23633 6.18848H6.32715Z" fill="#0F0F0F"/>
<path d="M11.1855 2.50195C12.4621 2.50207 13.4979 3.53691 13.498 4.81348V9.18848C13.4966 9.84378 13.2153 10.4678 12.7256 10.9033C12.4678 11.1324 12.0732 11.1089 11.8438 10.8516C11.6144 10.5937 11.6367 10.1981 11.8945 9.96875C12.1178 9.77023 12.2469 9.48616 12.248 9.1875V4.81348C12.2479 4.22727 11.7718 3.75207 11.1855 3.75195H6.81348L6.70215 3.75781C6.44438 3.78584 6.20432 3.90877 6.03027 4.10449C5.801 4.3622 5.40635 4.38523 5.14844 4.15625C4.8905 3.92687 4.86731 3.53138 5.09668 3.27344C5.53222 2.78387 6.15625 2.50328 6.81152 2.50195H11.1855Z" fill="#0F0F0F"/>
</svg>
