<svg width="20" height="20" viewBox="0 0 20 20" fill="none" xmlns="http://www.w3.org/2000/svg">
<path d="M9.125 6.125C9.81266 6.125 10.3736 6.124 10.8281 6.16113C11.2914 6.19898 11.7099 6.2804 12.1006 6.47949C12.7119 6.79105 13.209 7.28807 13.5205 7.89941C13.7195 8.2901 13.801 8.70869 13.8389 9.17188C13.876 9.62634 13.875 10.1874 13.875 10.875V12.25C13.875 12.9375 13.876 13.4987 13.8389 13.9531C13.801 14.4163 13.7196 14.8349 13.5205 15.2256C13.2089 15.837 12.7121 16.3349 12.1006 16.6465C11.7099 16.8455 11.2913 16.926 10.8281 16.9639C10.3736 17.001 9.81266 17 9.125 17H7.75C7.06232 17 6.50138 17.001 6.04688 16.9639C5.5837 16.926 5.1651 16.8455 4.77442 16.6465C4.16295 16.3349 3.66609 15.837 3.35449 15.2256C3.15544 14.8349 3.07399 14.4163 3.03614 13.9531C2.99903 13.4987 3 12.9375 3 12.25V10.875C3 10.1874 2.99902 9.62634 3.03614 9.17188C3.07398 8.70869 3.15547 8.2901 3.35449 7.89941C3.66604 7.28808 4.16309 6.79106 4.77442 6.47949C5.16514 6.28041 5.58363 6.19898 6.04688 6.16113C6.50138 6.124 7.06232 6.125 7.75 6.125H9.125ZM7.75 7.625C7.03757 7.625 6.5482 7.62526 6.16895 7.65625C5.79853 7.68652 5.5991 7.74205 5.45508 7.81543C5.12602 7.98318 4.85816 8.251 4.69043 8.58008C4.61709 8.72409 4.56151 8.92366 4.53125 9.29395C4.50028 9.67317 4.5 10.1627 4.5 10.875V12.25C4.5 12.9622 4.50028 13.4519 4.53125 13.8311C4.56153 14.2014 4.61705 14.4009 4.69043 14.5449C4.85816 14.874 5.12601 15.1418 5.45508 15.3096C5.5991 15.3829 5.79861 15.4385 6.16895 15.4688C6.5482 15.4997 7.03757 15.5 7.75 15.5H9.125C9.83743 15.5 10.3268 15.4997 10.7061 15.4688C11.0765 15.4385 11.2759 15.3829 11.4199 15.3096C11.749 15.1418 12.0168 14.874 12.1846 14.5449C12.258 14.4009 12.3135 14.2014 12.3438 13.8311C12.3747 13.4519 12.375 12.9622 12.375 12.25V10.875C12.375 10.1627 12.3747 9.67317 12.3438 9.29395C12.3135 8.92366 12.2579 8.72409 12.1846 8.58008C12.0168 8.25099 11.749 7.98317 11.4199 7.81543C11.2759 7.74204 11.0765 7.68652 10.7061 7.65625C10.3268 7.62526 9.83744 7.625 9.125 7.625H7.75Z" fill="#0F0F0F"/>
<path d="M14.0869 3C15.6957 3.00017 16.9998 4.30431 17 5.91309V11.5244C16.9983 12.3503 16.6445 13.1367 16.0273 13.6855C15.7179 13.9607 15.2441 13.9332 14.9688 13.624C14.6935 13.3145 14.7208 12.8397 15.0303 12.5645C15.3277 12.2999 15.4987 11.9215 15.5 11.5234V5.91309C15.4998 5.13271 14.8673 4.50017 14.0869 4.5H8.47852L8.33008 4.50781C7.98674 4.54512 7.66737 4.70902 7.43555 4.96973C7.1603 5.27917 6.68646 5.30645 6.37696 5.03125C6.06744 4.75601 6.03924 4.28219 6.31446 3.97266C6.86333 3.35543 7.64961 3.00167 8.47559 3H14.0869Z" fill="#0F0F0F"/>
</svg>
