<svg width="17" height="16" viewBox="0 0 17 16" fill="none" xmlns="http://www.w3.org/2000/svg">
<path d="M8.5 16C12.9183 16 16.5 12.4183 16.5 8C16.5 3.58172 12.9183 0 8.5 0C4.08172 0 0.5 3.58172 0.5 8C0.5 12.4183 4.08172 16 8.5 16Z" fill="#9391F7"/>
<path d="M7.01282 8.38981C7.6988 8.27844 8.16463 7.63201 8.05332 6.94603C7.94195 6.26003 7.29553 5.79419 6.60956 5.90554C5.92355 6.0169 5.45771 6.66326 5.56906 7.34931C5.68042 8.03529 6.3268 8.50112 7.01282 8.38981Z" fill="white"/>
<path d="M10.3019 8.38981C10.9879 8.27844 11.4537 7.63201 11.3423 6.94603C11.231 6.26003 10.5846 5.79419 9.89863 5.90554C9.21265 6.0169 8.74676 6.66326 8.85813 7.34931C8.9695 8.03529 9.61586 8.50112 10.3019 8.38981Z" fill="white"/>
<path d="M8.45362 1.95312C5.03684 1.95312 2.26668 4.77605 2.26758 8.25721H3.84792C3.84792 5.64836 5.89364 3.53318 8.45362 3.53318C11.0136 3.53318 13.0594 5.64836 13.0594 8.25721H14.6397C14.6403 4.77605 11.8701 1.95312 8.45362 1.95312Z" fill="white"/>
</svg>
