<svg width="24" height="24" viewBox="0 0 24 24" fill="none" xmlns="http://www.w3.org/2000/svg">
<path d="M20.4955 10.9976C21.0478 10.9976 21.4955 11.4453 21.4955 11.9976C21.4953 16.1623 18.4059 19.1351 14.3578 19.1353H5.74261C5.87496 19.243 5.99883 19.3418 6.1059 19.4253C6.21181 19.5079 6.29979 19.5755 6.36078 19.6216C6.39118 19.6445 6.4154 19.6617 6.43109 19.6734C6.43892 19.6792 6.44496 19.6843 6.44867 19.687L6.45258 19.69C6.89726 20.0173 6.99272 20.6436 6.66547 21.0884C6.35855 21.5052 5.78936 21.6145 5.35297 21.3569L5.26703 21.3003L5.2641 21.2984C5.26268 21.2973 5.26057 21.2962 5.25824 21.2944C5.25301 21.2906 5.24522 21.2849 5.23578 21.2778C5.21688 21.2638 5.18975 21.243 5.1557 21.2173C5.08762 21.1659 4.99152 21.0923 4.8764 21.0025C4.64664 20.8232 4.33651 20.5746 4.02386 20.3032C3.71627 20.0363 3.38294 19.7273 3.11859 19.4282C2.98742 19.2798 2.85158 19.1102 2.74359 18.9312C2.65214 18.7795 2.49847 18.4906 2.49847 18.1343C2.49865 17.7783 2.65219 17.49 2.74359 17.3384C2.85158 17.1594 2.98745 16.9897 3.11859 16.8413C3.38296 16.5423 3.71627 16.2323 4.02386 15.9653C4.33618 15.6943 4.64582 15.4462 4.87543 15.2671C4.99055 15.1773 5.0876 15.1037 5.1557 15.0523C5.18962 15.0266 5.21692 15.0058 5.23578 14.9917C5.24515 14.9847 5.25305 14.979 5.25824 14.9751C5.2605 14.9735 5.2627 14.9722 5.2641 14.9712L5.26605 14.9692C5.26892 14.973 5.30307 15.0175 5.6889 15.5415L5.26703 14.9683C5.71173 14.6411 6.33809 14.7366 6.66547 15.1812C6.99272 15.6258 6.89711 16.2522 6.45258 16.5796L6.44867 16.5825C6.44503 16.5852 6.43872 16.5896 6.43109 16.5952C6.41543 16.6069 6.39116 16.625 6.36078 16.648C6.29983 16.694 6.21167 16.7617 6.1059 16.8442C5.99844 16.9281 5.87356 17.027 5.74066 17.1353H14.3578C17.3221 17.1351 19.4953 15.0369 19.4955 11.9976C19.4955 11.4454 19.9434 10.9977 20.4955 10.9976Z" fill="#0F0F0F"/>
<path d="M17.3295 2.90577C17.6569 2.46114 18.2832 2.36568 18.728 2.69288L18.7309 2.69581C18.7323 2.69683 18.7345 2.69804 18.7368 2.69972C18.742 2.70359 18.7498 2.70934 18.7592 2.71632C18.7781 2.7304 18.8053 2.75119 18.8393 2.77687C18.9074 2.82832 19.0044 2.90184 19.1196 2.99171C19.3492 3.17086 19.6588 3.41888 19.9711 3.68995C20.2788 3.95699 20.613 4.26683 20.8774 4.56593C21.0085 4.71425 21.1435 4.88407 21.2514 5.063C21.3428 5.21463 21.4964 5.50286 21.4965 5.8589C21.4965 6.21521 21.3428 6.50414 21.2514 6.65577C21.1435 6.83475 21.0085 7.0045 20.8774 7.15284C20.613 7.45197 20.2788 7.7608 19.9711 8.02784C19.6586 8.29911 19.3493 8.54784 19.1196 8.72706C19.0043 8.81701 18.9074 8.89045 18.8393 8.94191C18.8052 8.96762 18.7781 8.98837 18.7592 9.00245C18.7498 9.00944 18.742 9.0152 18.7368 9.01905C18.7344 9.02077 18.7323 9.02193 18.7309 9.02296L18.7289 9.02491C18.2842 9.35232 17.657 9.25765 17.3295 8.813C17.0022 8.36825 17.0977 7.74198 17.5424 7.41456C17.5432 7.41398 17.5456 7.4129 17.5473 7.41163C17.551 7.40888 17.5562 7.40369 17.5639 7.39796C17.5796 7.38628 17.6038 7.36916 17.6342 7.3462C17.6952 7.30015 17.7832 7.23256 17.8891 7.14991C17.9966 7.06604 18.1214 6.96718 18.2543 6.8589H9.63617C6.67185 6.85903 4.49868 8.95717 4.49847 11.9966C4.49847 12.5488 4.0507 12.9965 3.49847 12.9966C2.94619 12.9966 2.49847 12.5489 2.49847 11.9966C2.49869 7.83185 5.58813 4.85903 9.63617 4.8589H18.2524C18.12 4.75115 17.9962 4.65239 17.8891 4.56886C17.7833 4.48628 17.6952 4.41862 17.6342 4.37257C17.6038 4.34963 17.5796 4.33153 17.5639 4.31984C17.5565 4.31433 17.551 4.30986 17.5473 4.30714C17.5457 4.30597 17.5442 4.30482 17.5434 4.30421C17.0987 3.97683 17.0023 3.3505 17.3295 2.90577Z" fill="#0F0F0F"/>
</svg>
