<svg width="20" height="20" viewBox="0 0 20 20" fill="none" xmlns="http://www.w3.org/2000/svg">
<path d="M17.2486 9.25041C17.6626 9.25059 17.9986 9.58634 17.9986 10.0004C17.9984 13.4943 15.4106 15.9844 12.0142 15.9848H4.38239C4.64562 16.2075 4.91445 16.4234 5.19098 16.6293C5.5247 16.878 5.62195 17.3488 5.36871 17.6928C5.13841 18.0054 4.71159 18.0873 4.38434 17.894L4.31989 17.852C4.00747 17.5396 3.60039 17.2964 3.26617 17.0063C3.00544 16.7799 2.72524 16.5198 2.50446 16.2699C2.39484 16.1459 2.28339 16.0059 2.19586 15.8608C2.13005 15.7516 2.03019 15.5645 2.00641 15.3354L2.00153 15.2348L2.00641 15.1342C2.03017 14.9049 2.13004 14.718 2.19586 14.6088C2.28347 14.4635 2.39475 14.3238 2.50446 14.1996C2.72541 13.9496 3.00522 13.6889 3.26617 13.4623C3.59999 13.1725 4.00686 12.9296 4.31891 12.6176C4.65232 12.3721 5.12302 12.4435 5.36871 12.7768C5.61412 13.1102 5.54289 13.579 5.20953 13.8246C4.96546 14.0687 4.64515 14.2617 4.38141 14.4848H12.0142C14.5978 14.4844 16.4984 12.6503 16.4986 10.0004C16.4986 9.58623 16.8344 9.25041 17.2486 9.25041Z" fill="#0F0F0F"/>
<path d="M14.6314 2.30705C14.931 1.90064 15.293 2.0191 15.6822 2.14885C16.0261 2.43744 16.3931 2.69754 16.733 2.9926C16.994 3.2192 17.2747 3.47982 17.4957 3.7299C17.6054 3.85404 17.7167 3.99383 17.8043 4.13908C17.8794 4.26384 17.9985 4.49026 17.9986 4.76506C17.9985 5.03992 17.8795 5.26625 17.8043 5.39103C17.7167 5.53626 17.6053 5.67609 17.4957 5.80021C17.2748 6.05019 16.9939 6.31001 16.733 6.53654C16.3358 6.88138 15.9458 7.18139 15.773 7.31193C15.743 7.33459 15.706 7.35553 15.6793 7.38225C15.3458 7.62751 14.877 7.55625 14.6314 7.22307C14.3776 6.87826 14.475 6.40861 14.8091 6.15959C15.0856 5.95362 15.3546 5.7379 15.6177 5.51506H7.9859C5.40232 5.51539 3.5018 7.34953 3.50153 9.99943C3.50153 10.4136 3.16574 10.7494 2.75153 10.7494C2.33741 10.7493 2.00153 10.4136 2.00153 9.99943C2.00181 6.50557 4.58949 4.0154 7.9859 4.01506H15.6177C15.306 3.75105 15.008 3.51895 14.8697 3.41447C14.8435 3.39469 14.8168 3.37557 14.7906 3.35588C14.4572 3.11024 14.3859 2.64052 14.6314 2.30705Z" fill="#0F0F0F"/>
</svg>
