<svg width="32" height="32" viewBox="0 0 32 32" fill="none" xmlns="http://www.w3.org/2000/svg">
<path d="M28.5 14.5053C29.3284 14.5053 30 15.1769 30 16.0053C29.9997 22.1473 25.4424 26.5324 19.4727 26.5326H6.88187C7.20141 26.7917 7.52461 27.047 7.8555 27.2914C7.89862 27.3234 7.93899 27.3599 7.9805 27.394C8.54395 27.9043 8.64018 28.7686 8.17972 29.394C7.69336 30.0542 6.73698 30.1964 6.07816 29.7094C5.45186 29.2447 4.84175 28.7557 4.25296 28.2446C3.80021 27.8515 3.30898 27.3949 2.91898 26.9535C2.72551 26.7346 2.52434 26.4837 2.36429 26.2182C2.24594 26.0218 2.05553 25.6683 2.0098 25.227L2.00003 25.0326L2.0098 24.8373C2.0556 24.396 2.24597 24.0424 2.36429 23.8461C2.52425 23.5808 2.72464 23.3296 2.918 23.1108C3.308 22.6694 3.80023 22.2138 4.25296 21.8207C4.94417 21.2206 5.61892 20.7017 5.91898 20.475C5.97157 20.4353 6.03512 20.3989 6.08206 20.352C6.74897 19.8612 7.68848 20.0037 8.17972 20.6703C8.6709 21.3373 8.52907 22.2766 7.86234 22.768H7.86038C7.85929 22.7688 7.85799 22.771 7.8555 22.7729C7.52453 23.018 7.20082 23.2732 6.88089 23.5326H19.4727C23.8167 23.5324 26.9997 20.4594 27 16.0053C27 15.1769 27.6716 14.5053 28.5 14.5053Z" fill="#0F0F0F"/>
<path d="M23.8194 2.61467C24.3124 1.9453 25.267 1.8191 25.9307 2.30608C26.5546 2.76822 27.161 3.25619 27.7471 3.76506C28.1997 4.15802 28.6912 4.6139 29.0811 5.0551C29.2744 5.27395 29.4748 5.52513 29.6348 5.79045C29.77 6.01478 29.9999 6.44506 30 6.97698C29.9999 7.50873 29.77 7.93817 29.6348 8.16252C29.4748 8.42796 29.2745 8.67894 29.0811 8.89788C28.6911 9.33928 28.1999 9.79578 27.7471 10.1889C27.2871 10.5883 26.8312 10.9534 26.4932 11.2172C26.3087 11.3612 26.0834 11.4903 25.917 11.6567C25.25 12.1478 24.3106 12.0053 23.8194 11.3383C23.3285 10.6713 23.4709 9.73182 24.1377 9.24065C24.4709 8.99452 24.7964 8.73784 25.1182 8.47698H12.5274C8.18322 8.47717 5.00023 11.5501 5.00003 16.0043C4.99997 16.8327 4.32842 17.5043 3.50003 17.5043C2.67164 17.5043 2.00009 16.8327 2.00003 16.0043C2.00024 9.86217 6.55758 5.47718 12.5274 5.47698H25.1192C24.7992 5.21757 24.4756 4.96241 24.1446 4.71721C23.4921 4.22093 23.3257 3.28503 23.8194 2.61467Z" fill="#0F0F0F"/>
</svg>
