<svg width="16" height="16" viewBox="0 0 16 16" fill="none" xmlns="http://www.w3.org/2000/svg">
<path d="M12.8707 7.37361C13.2157 7.37372 13.4956 7.65363 13.4957 7.99861C13.4957 10.4151 11.7006 12.1421 9.35217 12.1422H4.56311C4.59562 12.168 4.62521 12.194 4.65393 12.2164C4.71423 12.2634 4.76473 12.3015 4.79944 12.3277C4.81669 12.3407 4.83058 12.3513 4.83948 12.358C4.84361 12.3611 4.84721 12.3633 4.84924 12.3648L4.8512 12.3668L4.94495 12.4517C5.13976 12.6675 5.16297 12.9976 4.98401 13.2408C4.77931 13.5186 4.38788 13.5782 4.10999 13.3736L4.10803 13.3717C4.10729 13.3711 4.10617 13.3705 4.1051 13.3697C4.10212 13.3675 4.09768 13.3639 4.09241 13.3599C4.08149 13.3518 4.0651 13.3396 4.04553 13.3248C4.00632 13.2952 3.95045 13.2533 3.8844 13.2017C3.75233 13.0987 3.57412 12.9556 3.39417 12.7994C3.21725 12.6458 3.02442 12.4665 2.87073 12.2926C2.79453 12.2063 2.71413 12.1059 2.65002 11.9996C2.60287 11.9213 2.52507 11.7772 2.50647 11.5963L2.50256 11.5172L2.50647 11.4371C2.52522 11.2561 2.60295 11.1119 2.65002 11.0338C2.71414 10.9275 2.79455 10.827 2.87073 10.7408C3.02432 10.567 3.21743 10.3884 3.39417 10.2349C3.57398 10.0788 3.75239 9.93562 3.8844 9.83259C3.95053 9.78099 4.00634 9.73817 4.04553 9.70857C4.06509 9.6938 4.08153 9.68152 4.09241 9.67341C4.0976 9.66956 4.10217 9.66679 4.1051 9.66462C4.10634 9.66365 4.10722 9.66229 4.10803 9.6617L4.10999 9.66072C4.38775 9.45629 4.77926 9.51508 4.98401 9.79255C5.18865 10.0704 5.12896 10.4618 4.8512 10.6666L4.84924 10.6685C4.84721 10.67 4.84377 10.6731 4.83948 10.6763C4.83064 10.6829 4.81662 10.6927 4.79944 10.7056C4.76471 10.7319 4.71434 10.7708 4.65393 10.8179C4.62525 10.8403 4.59558 10.8664 4.56311 10.8922H9.35217C11.0233 10.8921 12.2457 9.71179 12.2457 7.99861C12.2459 7.65357 12.5256 7.37361 12.8707 7.37361Z" fill="#0F0F0F"/>
<path d="M11.0143 2.75642C11.2191 2.47888 11.6105 2.42002 11.8883 2.62459L11.8893 2.62556C11.8902 2.62621 11.8917 2.62737 11.8932 2.62849C11.8962 2.6307 11.9006 2.63338 11.9059 2.63728C11.9168 2.6454 11.9322 2.65766 11.9518 2.67244C11.991 2.70207 12.0465 2.74467 12.1129 2.79646C12.245 2.89953 12.4231 3.0425 12.6031 3.1988C12.7801 3.35243 12.9738 3.53069 13.1276 3.70466C13.2038 3.79095 13.2832 3.89124 13.3473 3.99763C13.4011 4.08687 13.4957 4.26241 13.4957 4.48103C13.4956 4.69928 13.4011 4.8742 13.3473 4.96345C13.2832 5.06976 13.2037 5.1702 13.1276 5.25642C12.9738 5.43038 12.7801 5.60965 12.6031 5.76326C12.4233 5.91943 12.2449 6.06261 12.1129 6.1656C12.0467 6.21724 11.9909 6.25907 11.9518 6.28865C11.9322 6.30344 11.9168 6.31569 11.9059 6.3238C11.9005 6.32782 11.8962 6.33134 11.8932 6.33357C11.8918 6.33457 11.8901 6.33491 11.8893 6.33552L11.8883 6.3365C11.6105 6.54102 11.219 6.48233 11.0143 6.20466C10.8096 5.92676 10.8693 5.53535 11.1471 5.33064C11.1475 5.33034 11.1481 5.32943 11.149 5.32869C11.1511 5.32719 11.1546 5.32501 11.1588 5.32185C11.1677 5.31523 11.1815 5.30465 11.1989 5.29158C11.2336 5.26535 11.284 5.22733 11.3444 5.18025C11.3729 5.15799 11.402 5.13172 11.4342 5.10603H6.64612C4.97486 5.10603 3.75256 6.28631 3.75256 7.99959C3.75217 8.34442 3.47248 8.62456 3.12756 8.62459C2.78263 8.62459 2.50295 8.34443 2.50256 7.99959C2.50256 5.583 4.29754 3.85603 6.64612 3.85603H11.4352C11.4027 3.83019 11.3731 3.80424 11.3444 3.78181C11.2839 3.73462 11.2336 3.69576 11.1989 3.66951C11.1815 3.65643 11.1677 3.64685 11.1588 3.64021C11.1544 3.6369 11.1511 3.63394 11.149 3.6324L11.1471 3.63142C10.8692 3.42675 10.8097 3.03434 11.0143 2.75642Z" fill="#0F0F0F"/>
</svg>
