<svg width="28" height="28" viewBox="0 0 28 28" fill="none" xmlns="http://www.w3.org/2000/svg">
<path d="M24.2441 12.7517C24.9345 12.7517 25.4941 13.3113 25.4941 14.0017C25.4939 19.0495 21.7491 22.6547 16.8438 22.655H6.5791C6.70293 22.7548 6.81889 22.8471 6.92188 22.9274C7.04931 23.0269 7.1552 23.1084 7.22852 23.1638C7.26498 23.1913 7.29372 23.2123 7.3125 23.2263C7.32174 23.2332 7.32859 23.2386 7.33301 23.2419C7.33517 23.2435 7.337 23.2451 7.33789 23.2458C7.89346 23.6552 8.01271 24.4381 7.60352 24.9938C7.21978 25.5147 6.50827 25.6517 5.96289 25.3298L5.85547 25.2585C5.85495 25.2581 5.85333 25.2572 5.85254 25.2565C5.85073 25.2552 5.84784 25.253 5.84473 25.2507C5.83846 25.246 5.82952 25.2395 5.81836 25.2311C5.79552 25.2141 5.76282 25.189 5.72168 25.1579C5.63937 25.0957 5.52211 25.0069 5.38281 24.8981C5.10561 24.6818 4.73184 24.382 4.35449 24.0544C3.983 23.7318 3.57848 23.3568 3.25781 22.9938C3.09888 22.8139 2.93379 22.6074 2.80176 22.3884C2.70422 22.2266 2.54669 21.933 2.50879 21.5661L2.5 21.405L2.50879 21.2438C2.54669 20.877 2.70422 20.5834 2.80176 20.4216C2.93376 20.2026 3.09891 19.996 3.25781 19.8161C3.57843 19.4532 3.98209 19.0781 4.35352 18.7556C4.73097 18.4278 5.10552 18.1283 5.38281 17.9118C5.52208 17.8031 5.63939 17.7132 5.72168 17.6511C5.76259 17.6202 5.79561 17.5958 5.81836 17.5788C5.82947 17.5705 5.83847 17.5639 5.84473 17.5593C5.84781 17.557 5.85075 17.5547 5.85254 17.5534L5.85547 17.5505C6.4113 17.1412 7.19414 17.2603 7.60352 17.8161C8.0128 18.3719 7.89351 19.1537 7.33789 19.5632C7.33701 19.5638 7.33513 19.5665 7.33301 19.5681C7.32859 19.5713 7.32167 19.5768 7.3125 19.5837C7.29372 19.5977 7.26496 19.6187 7.22852 19.6462C7.1552 19.7016 7.0493 19.7831 6.92188 19.8825C6.81891 19.9629 6.70289 20.0552 6.5791 20.155H16.8438C20.3935 20.1548 22.994 17.6438 22.9941 14.0017C22.9941 13.3114 23.5539 12.7518 24.2441 12.7517Z" fill="#0F0F0F"/>
<path d="M20.3916 3.00849C20.801 2.45311 21.584 2.33379 22.1396 2.74287L22.1406 2.74385C22.1413 2.7443 22.1427 2.74518 22.1436 2.7458C22.1453 2.74714 22.1475 2.74949 22.1504 2.75166C22.1567 2.75634 22.1664 2.76274 22.1777 2.77119C22.2006 2.7882 22.2335 2.81251 22.2744 2.84345C22.3567 2.90564 22.473 2.99549 22.6123 3.1042C22.8896 3.32065 23.2641 3.62011 23.6416 3.94795C24.0131 4.27054 24.4167 4.64555 24.7373 5.00849C24.8962 5.18841 25.0613 5.39498 25.1934 5.61396C25.3048 5.7988 25.496 6.15564 25.4961 6.59736C25.4961 7.03887 25.3048 7.39576 25.1934 7.58076C25.0614 7.79961 24.8962 8.00639 24.7373 8.18623C24.4167 8.54907 24.013 8.92424 23.6416 9.24678C23.2642 9.57449 22.8896 9.8741 22.6123 10.0905C22.4734 10.199 22.3567 10.2881 22.2744 10.3503C22.2335 10.3812 22.2006 10.4065 22.1777 10.4235C22.1666 10.4319 22.1567 10.4384 22.1504 10.4431C22.1476 10.4451 22.1452 10.4476 22.1436 10.4489L22.1406 10.4509C21.5848 10.8603 20.801 10.7421 20.3916 10.1862C19.9823 9.63039 20.1014 8.84756 20.6572 8.43818C20.658 8.43737 20.6604 8.43556 20.6621 8.43428C20.6666 8.43097 20.6745 8.42544 20.6836 8.41865C20.7024 8.4046 20.7314 8.38351 20.7676 8.35615C20.8409 8.30073 20.9469 8.21918 21.0742 8.11982C21.1771 8.03952 21.2924 7.94701 21.416 7.84736H11.1504C7.60071 7.84759 5.00029 10.3587 5 14.0007C5 14.6909 4.44024 15.2505 3.75 15.2507C3.05964 15.2507 2.5 14.691 2.5 14.0007C2.5003 8.95295 6.24511 5.34759 11.1504 5.34736H21.416C21.2924 5.24771 21.1771 5.15519 21.0742 5.0749C20.9468 4.97544 20.8409 4.894 20.7676 4.83857C20.7312 4.81111 20.7024 4.79012 20.6836 4.77607C20.6743 4.76913 20.6666 4.76374 20.6621 4.76045C20.6602 4.75903 20.6591 4.75727 20.6582 4.75654C20.1025 4.34718 19.9824 3.56432 20.3916 3.00849Z" fill="#0F0F0F"/>
</svg>
