<svg width="16" height="16" viewBox="0 0 16 16" fill="none" xmlns="http://www.w3.org/2000/svg">
<path d="M14.5038 7.50422C14.7798 7.50444 15.0038 7.72822 15.0038 8.00422C15.0037 11.0405 12.7618 13.1984 9.80948 13.1986H2.51163C2.58365 13.2652 2.658 13.3346 2.73526 13.4017C3.01657 13.6459 3.3084 13.8774 3.60635 14.1009C3.82835 14.2646 3.87617 14.5779 3.7128 14.8001C3.5517 15.0188 3.22177 15.0713 3.00772 14.9017C2.68924 14.6658 2.37925 14.4174 2.07999 14.1575C1.84813 13.9562 1.60275 13.7279 1.41202 13.512C1.31737 13.4049 1.22518 13.2888 1.15421 13.1712C1.10709 13.0931 1.04672 12.9776 1.01944 12.8411L1.00479 12.6986L1.01944 12.555C1.04678 12.4189 1.10716 12.3039 1.15421 12.2259C1.22525 12.1081 1.31723 11.9914 1.41202 11.8841C1.60273 11.6683 1.84818 11.4408 2.07999 11.2396C2.37597 10.9826 2.73594 10.7672 3.0126 10.4905C3.23486 10.3271 3.54905 10.3739 3.7128 10.596C4.12667 11.1585 3.02979 11.7387 2.73526 11.9945C2.65746 12.062 2.58217 12.1314 2.50967 12.1986H9.80948C12.2199 12.1984 14.0037 10.4779 14.0038 8.00422C14.0038 7.72809 14.2277 7.50422 14.5038 7.50422Z" fill="#0F0F0F"/>
<path d="M12.2958 1.20735C12.4792 0.958959 12.7528 0.98075 12.997 1.10285C13.3075 1.35229 13.6272 1.58922 13.9286 1.8509C14.1605 2.05225 14.4059 2.27956 14.5966 2.49543C14.6914 2.60277 14.7833 2.71937 14.8544 2.83723C14.9172 2.94141 15.0038 3.11122 15.0038 3.30988C15.0038 3.50848 14.9172 3.67838 14.8544 3.78254C14.7834 3.90019 14.6912 4.01619 14.5966 4.12336C14.4059 4.33923 14.1605 4.56752 13.9286 4.76887C13.6944 4.97226 13.4614 5.15895 13.288 5.29426C13.1919 5.36928 13.0916 5.44026 12.997 5.51692C12.7247 5.51692 12.5298 5.72903 12.2958 5.41145C12.1321 5.18912 12.179 4.87598 12.4013 4.71223C12.7002 4.48979 12.9919 4.25737 13.2733 4.01301C13.3507 3.94586 13.4249 3.87662 13.497 3.80988H6.19913C3.78848 3.80988 2.00479 5.53034 2.00479 8.00422C2.0047 8.28016 1.7807 8.50401 1.50479 8.50422C1.2287 8.50422 1.00488 8.28029 1.00479 8.00422C1.00479 4.96775 3.24656 2.80988 6.19913 2.80988H13.4989C13.4264 2.74268 13.3512 2.67341 13.2733 2.60578C13.0565 2.41748 12.8378 2.24241 12.6728 2.1136C12.586 2.04586 12.4794 1.98464 12.4013 1.90656C12.1792 1.74273 12.1321 1.42957 12.2958 1.20735Z" fill="#0F0F0F"/>
</svg>
