<svg width="12" height="12" viewBox="0 0 12 12" fill="none" xmlns="http://www.w3.org/2000/svg">
<path d="M10 5.50004C10.2761 5.50009 10.5 5.72393 10.5 6.00004C10.4999 7.97667 9.03239 9.38859 7.11133 9.38871H3.14258C3.17968 9.41851 3.2133 9.44786 3.24512 9.47269C3.29449 9.51123 3.33569 9.54291 3.36426 9.56449C3.37832 9.57511 3.39012 9.58343 3.39746 9.5889C3.40102 9.59155 3.40356 9.59441 3.40527 9.59574L3.40723 9.59671C3.62953 9.76043 3.67729 10.0736 3.51367 10.2959C3.37035 10.4905 3.1125 10.5518 2.90137 10.4541L2.81445 10.4024L2.81348 10.4014C2.81281 10.4009 2.81152 10.4002 2.81055 10.3994C2.80809 10.3976 2.80409 10.3948 2.7998 10.3916C2.79087 10.385 2.77772 10.3744 2.76172 10.3623C2.72962 10.3381 2.68391 10.3039 2.62988 10.2618C2.52156 10.1772 2.37507 10.0598 2.22754 9.93168C2.08245 9.80569 1.92445 9.65881 1.79883 9.51664C1.73656 9.44615 1.67118 9.36467 1.61914 9.27836C1.58631 9.22384 1.53602 9.13061 1.5127 9.01371L1.5 8.88871L1.5127 8.76371C1.53605 8.64638 1.58629 8.55258 1.61914 8.49808C1.67121 8.41177 1.73656 8.33027 1.79883 8.2598C1.9244 8.11773 2.08255 7.97163 2.22754 7.84574C2.37514 7.71758 2.52154 7.60021 2.62988 7.51566C2.68422 7.47326 2.72956 7.43839 2.76172 7.4141C2.77779 7.40196 2.79087 7.39244 2.7998 7.38578C2.80426 7.38246 2.80807 7.3798 2.81055 7.37796C2.81169 7.37712 2.8128 7.37651 2.81348 7.37601L2.81445 7.37504C3.03666 7.21141 3.34984 7.25852 3.51367 7.4805C3.67742 7.70284 3.62955 8.01596 3.40723 8.17972C3.40688 8.17998 3.40612 8.18104 3.40527 8.18168C3.40356 8.18295 3.40093 8.18495 3.39746 8.18754C3.39013 8.193 3.37852 8.20117 3.36426 8.21195C3.33571 8.23351 3.29464 8.2651 3.24512 8.30375C3.21302 8.32879 3.1791 8.35858 3.1416 8.38871H7.11133C8.49051 8.38859 9.49991 7.41403 9.5 6.00004C9.5 5.72389 9.72386 5.50004 10 5.50004Z" fill="#0F0F0F"/>
<path d="M8.48633 1.70316C8.65014 1.48113 8.96332 1.43406 9.18555 1.59769L9.18652 1.59867C9.18722 1.59918 9.1883 1.59977 9.18945 1.60062C9.19193 1.60245 9.19575 1.60512 9.2002 1.60843C9.20906 1.61504 9.22149 1.62481 9.2373 1.63675C9.26947 1.66105 9.3157 1.69585 9.37012 1.73832C9.47844 1.82286 9.62492 1.94029 9.77246 2.06839C9.91746 2.19431 10.0756 2.34038 10.2012 2.48246C10.2634 2.55287 10.3278 2.63451 10.3799 2.72074C10.4237 2.79342 10.5 2.93552 10.5 3.11136C10.4999 3.28706 10.4237 3.42837 10.3799 3.50101C10.3279 3.58726 10.2634 3.66886 10.2012 3.73929C10.0756 3.88145 9.91753 4.02838 9.77246 4.15433C9.62489 4.28246 9.47844 4.39988 9.37012 4.48441C9.31577 4.52682 9.26943 4.56073 9.2373 4.585C9.22131 4.59709 9.2091 4.60766 9.2002 4.61429C9.1958 4.61756 9.1919 4.62029 9.18945 4.62211C9.18837 4.62289 9.18717 4.62358 9.18652 4.62406L9.18555 4.62504C8.96322 4.78865 8.65006 4.74085 8.48633 4.51859C8.32262 4.29629 8.37055 3.98315 8.59277 3.81937L8.59473 3.81839C8.59643 3.81713 8.59905 3.81418 8.60254 3.81156C8.60985 3.80611 8.62078 3.79771 8.63477 3.78714C8.66333 3.76557 8.70522 3.7341 8.75488 3.69535C8.78665 3.67055 8.82036 3.64113 8.85742 3.61136H4.88867C3.50948 3.61148 2.50007 4.58602 2.5 6.00004C2.49982 6.27602 2.27603 6.50004 2 6.50004C1.72402 6.49998 1.50018 6.27599 1.5 6.00004C1.50007 4.02338 2.9676 2.61148 4.88867 2.61136H8.8584C8.82091 2.58124 8.78698 2.55145 8.75488 2.5264C8.70518 2.48761 8.66335 2.45619 8.63477 2.43461C8.6207 2.42398 8.60982 2.41562 8.60254 2.41019C8.59916 2.40767 8.59645 2.40561 8.59473 2.40433C8.59389 2.4037 8.59312 2.40263 8.59277 2.40238C8.37051 2.23864 8.3227 1.92548 8.48633 1.70316Z" fill="#0F0F0F"/>
</svg>
