<svg width="28" height="28" viewBox="0 0 28 28" fill="none" xmlns="http://www.w3.org/2000/svg">
<path d="M24.7474 12.7524C25.4377 12.7525 25.9974 13.3121 25.9974 14.0024C25.997 19.2619 22.0959 23.0158 16.9837 23.0161H6.04327C6.34685 23.2645 6.65476 23.5082 6.97003 23.7417C7.00663 23.7671 7.04005 23.7983 7.07452 23.8266C7.54368 24.2519 7.6241 24.9726 7.24054 25.4936C6.83126 26.049 6.04922 26.167 5.49347 25.7583C4.9236 25.4733 4.39161 24.9068 3.9212 24.4985C3.53236 24.161 3.11138 23.7696 2.77765 23.392C2.61218 23.2048 2.44089 22.9913 2.30499 22.7661C2.20416 22.5989 2.04466 22.3001 2.00616 21.9292L1.99738 21.7661L2.00616 21.603C2.04454 21.2318 2.2041 20.9334 2.30499 20.7661C2.44095 20.5406 2.61202 20.3265 2.77765 20.1391C3.11135 19.7616 3.53239 19.3712 3.9212 19.0337C4.42705 18.5946 4.95059 18.1738 5.48956 17.7758C6.02099 17.3469 6.84799 17.5056 7.24054 18.0385C7.6494 18.5943 7.53135 19.3773 6.97589 19.7866C6.65821 20.0211 6.34807 20.2662 6.0423 20.5161H16.9837C20.7412 20.5159 23.497 17.8553 23.4974 14.0024C23.4974 13.312 24.057 12.7524 24.7474 12.7524Z" fill="#0F0F0F"/>
<path d="M20.7542 2.51021C21.1635 1.95435 21.9464 1.83538 22.5023 2.24459C22.6445 2.38682 22.8384 2.49824 22.9964 2.62154C23.2868 2.84813 23.6785 3.16239 24.0735 3.50533C24.4625 3.84293 24.8843 4.23318 25.2181 4.6108C25.3836 4.79814 25.5538 5.01237 25.6898 5.23775C25.805 5.42891 25.9983 5.79119 25.9984 6.23775C25.9983 6.68425 25.805 7.04662 25.6898 7.23775C25.5539 7.46296 25.3835 7.67651 25.2181 7.86373C24.8843 8.24139 24.4625 8.63254 24.0735 8.97018C23.4801 9.48529 22.9005 9.93091 22.6429 10.1254L22.5062 10.228C21.9463 10.6178 21.168 10.5271 20.7542 9.96529C20.3449 9.40939 20.4649 8.62559 21.0208 8.21627C21.3376 7.98225 21.6468 7.73745 21.9515 7.48775H11.011C7.2533 7.48792 4.49754 10.1482 4.49738 14.0014C4.49728 14.6915 3.93745 15.2512 3.24738 15.2514C2.55708 15.2514 1.99747 14.6917 1.99738 14.0014C1.99754 8.74159 5.89861 4.98792 11.011 4.98775H21.9525C21.6489 4.73936 21.341 4.49564 21.0257 4.26217C20.4769 3.85506 20.3464 3.06423 20.7542 2.51021Z" fill="#0F0F0F"/>
</svg>
