<svg width="20" height="20" viewBox="0 0 20 20" fill="none" xmlns="http://www.w3.org/2000/svg">
<path d="M16.7457 9.24631C17.1599 9.24631 17.4957 9.5821 17.4957 9.99631C17.4955 13.2795 15.062 15.6213 11.8707 15.6213H4.90485C5.04583 15.7382 5.17904 15.8456 5.28961 15.9319C5.37369 15.9975 5.44327 16.0515 5.49176 16.0881C5.51566 16.1062 5.53492 16.1198 5.54742 16.1291C5.55362 16.1337 5.55912 16.1377 5.56207 16.1399C5.56327 16.1407 5.56442 16.1414 5.565 16.1418L5.56598 16.1428C5.89901 16.3885 5.96968 16.8583 5.72418 17.1916C5.47861 17.5246 5.00968 17.5958 4.67633 17.3508L4.67535 17.3498L4.6734 17.3489C4.67228 17.348 4.67039 17.3463 4.66852 17.3449C4.66451 17.342 4.65894 17.3375 4.65192 17.3322C4.63702 17.3212 4.61532 17.3047 4.58844 17.2844C4.53459 17.2437 4.45795 17.1856 4.36676 17.1145C4.18473 16.9724 3.93841 16.7756 3.69098 16.5608C3.44733 16.3492 3.18409 16.1047 2.97614 15.8694C2.873 15.7526 2.76789 15.6196 2.68414 15.4807C2.61272 15.3622 2.4957 15.1417 2.49567 14.8713C2.49571 14.6008 2.61273 14.3804 2.68414 14.2619C2.76794 14.1229 2.87292 13.9901 2.97614 13.8733C3.18415 13.6378 3.44725 13.3935 3.69098 13.1819C3.9384 12.967 4.18374 12.7702 4.36578 12.6281C4.45719 12.5568 4.53449 12.499 4.58844 12.4582C4.61519 12.438 4.63606 12.4215 4.65094 12.4104C4.65824 12.4049 4.66442 12.4007 4.66852 12.3977C4.67051 12.3962 4.67224 12.3946 4.6734 12.3938L4.67535 12.3928C5.00886 12.1473 5.47858 12.2185 5.72418 12.552C5.96945 12.8853 5.89892 13.3541 5.56598 13.5998L5.565 13.6008C5.56442 13.6012 5.56335 13.6018 5.56207 13.6028C5.5591 13.605 5.55367 13.6088 5.54742 13.6135C5.5349 13.6228 5.51578 13.6373 5.49176 13.6555C5.44329 13.6921 5.37349 13.7453 5.28961 13.8108C5.17903 13.8971 5.04588 14.0043 4.90485 14.1213H11.8707C14.2491 14.1213 15.9955 12.4356 15.9957 9.99631C15.9957 9.58211 16.3315 9.24633 16.7457 9.24631Z" fill="#0F0F0F"/>
<path d="M14.2672 2.801C14.5128 2.4677 14.9816 2.39643 15.315 2.64182L15.3179 2.6428C15.3191 2.64365 15.3208 2.64523 15.3228 2.6467C15.3269 2.64973 15.3331 2.65398 15.3404 2.6594C15.3553 2.67048 15.3762 2.68707 15.4029 2.70725C15.4568 2.74799 15.5342 2.80586 15.6255 2.87717C15.8076 3.01924 16.053 3.21607 16.3004 3.43088C16.544 3.64248 16.8072 3.88689 17.0152 4.12229C17.1184 4.23907 17.2234 4.37202 17.3072 4.51096C17.3786 4.62939 17.4956 4.84988 17.4957 5.12034C17.4957 5.39069 17.3786 5.61114 17.3072 5.72971C17.2235 5.86861 17.1183 6.00161 17.0152 6.11838C16.8072 6.35374 16.544 6.59821 16.3004 6.80979C16.053 7.02454 15.8076 7.22143 15.6255 7.3635C15.5342 7.4348 15.4568 7.49267 15.4029 7.53342C15.3762 7.55358 15.3553 7.57016 15.3404 7.58127C15.3332 7.58663 15.3269 7.59094 15.3228 7.59397C15.3209 7.59536 15.3191 7.597 15.3179 7.59787L15.316 7.59885L15.315 7.59983C14.9816 7.84497 14.5128 7.77369 14.2672 7.44065C14.0218 7.10728 14.0922 6.6375 14.4254 6.39182L14.4263 6.39084C14.4269 6.39041 14.4281 6.38978 14.4293 6.38889C14.4323 6.38667 14.4377 6.38276 14.4439 6.37815C14.4564 6.36881 14.4757 6.35519 14.4996 6.33713C14.5481 6.30049 14.6176 6.24651 14.7017 6.18088C14.8123 6.09455 14.9454 5.98732 15.0865 5.87034H8.12067C5.74237 5.87037 3.99599 7.55626 3.99567 9.99534C3.99567 10.4095 3.6598 10.7452 3.24567 10.7453C2.83145 10.7453 2.49567 10.4095 2.49567 9.99534C2.496 6.71236 4.92948 4.37037 8.12067 4.37034H15.0865C14.9458 4.25344 14.8132 4.14602 14.7027 4.05979C14.6187 3.9942 14.5481 3.94119 14.4996 3.90452C14.4756 3.88639 14.4564 3.87185 14.4439 3.86252C14.4377 3.85789 14.4322 3.85397 14.4293 3.85178C14.428 3.85087 14.4269 3.85024 14.4263 3.84983L14.4254 3.84885C14.0924 3.60311 14.0218 3.13429 14.2672 2.801Z" fill="#0F0F0F"/>
</svg>
