<svg width="16" height="16" viewBox="0 0 16 16" fill="none" xmlns="http://www.w3.org/2000/svg">
<path d="M5.94303 4.04344C5.61815 3.71856 5.69028 3.1711 6.11951 3.00721C6.27802 2.94669 6.43798 2.89423 6.59942 2.84984C7.04386 2.72761 7.49942 2.6665 7.96609 2.6665C9.45498 2.6665 10.7216 3.18317 11.7661 4.2165C12.8105 5.24984 13.3328 6.51095 13.3328 7.99984V8.1165L13.9328 7.5165C14.1905 7.25877 14.6084 7.25877 14.8661 7.5165C15.1238 7.77424 15.1238 8.1921 14.8661 8.44984L13.1994 10.1165C12.9049 10.4111 12.4273 10.4111 12.1328 10.1165L10.4661 8.44984C10.2084 8.1921 10.2084 7.77424 10.4661 7.5165C10.7238 7.25877 11.1417 7.25877 11.3994 7.5165L11.9994 8.1165V7.99984C11.9994 6.88873 11.6078 5.94428 10.8244 5.1665C10.0411 4.38873 9.08831 3.99984 7.96609 3.99984C7.6772 3.99984 7.39386 4.03317 7.11609 4.09984C6.99746 4.12831 6.87985 4.16286 6.76325 4.20349C6.47901 4.30253 6.15586 4.25628 5.94303 4.04344ZM1.13275 8.48317C0.87502 8.22544 0.87502 7.80757 1.13275 7.54984L3.03646 5.64613C3.2001 5.48249 3.46541 5.48249 3.62905 5.64613L5.53275 7.54984C5.79049 7.80757 5.79049 8.22544 5.53275 8.48317C5.27502 8.7409 4.85715 8.7409 4.59942 8.48317L3.99942 7.88317V7.99984C3.99942 9.11095 4.39109 10.0554 5.17442 10.8332C5.95775 11.6109 6.91053 11.9998 8.03275 11.9998C8.32164 11.9998 8.60498 11.9665 8.88275 11.8998C9.00138 11.8714 9.11899 11.8368 9.23559 11.7962C9.51983 11.6971 9.84298 11.7434 10.0558 11.9562C10.3807 12.2811 10.3086 12.8286 9.87933 12.9925C9.72082 13.053 9.56085 13.1054 9.39942 13.1498C8.95497 13.2721 8.49942 13.3332 8.03275 13.3332C6.54386 13.3332 5.2772 12.8165 4.23275 11.7832C3.18831 10.7498 2.66609 9.48873 2.66609 7.99984V7.88317L2.06609 8.48317C1.80835 8.7409 1.39049 8.7409 1.13275 8.48317Z" fill="white"/>
</svg>
