<svg width="73" height="72" viewBox="0 0 73 72" fill="none" xmlns="http://www.w3.org/2000/svg">
<g clip-path="url(#clip0_33279_132478)">
<rect opacity="0.1" x="0.5" width="72" height="72" fill="#0099FF"/>
<path d="M36.5947 18.916C40.2458 18.916 43.1136 18.9158 45.3525 19.2168C47.6469 19.5253 49.4672 20.1704 50.8975 21.6006C52.3277 23.0308 52.9727 24.8513 53.2812 27.1455C53.5823 29.3845 53.583 32.2531 53.583 35.9043V36.0947C53.583 39.7458 53.5823 42.6136 53.2812 44.8525C52.9728 47.1469 52.3278 48.9671 50.8975 50.3975C49.4671 51.8278 47.6469 52.4728 45.3525 52.7812C43.1136 53.0823 40.2458 53.083 36.5947 53.083H36.4043C32.7531 53.083 29.8845 53.0823 27.6455 52.7812C25.3513 52.4727 23.5308 51.8277 22.1006 50.3975C20.6704 48.9672 20.0253 47.1469 19.7168 44.8525C19.4158 42.6136 19.416 39.7458 19.416 36.0947V35.9043C19.416 32.2531 19.4158 29.3845 19.7168 27.1455C20.0253 24.8513 20.6703 23.0308 22.1006 21.6006C23.5308 20.1703 25.3513 19.5253 27.6455 19.2168C29.8845 18.9158 32.7531 18.916 36.4043 18.916H36.5947ZM28.1641 41.417C27.4737 41.417 26.9141 41.9766 26.9141 42.667V46C26.9141 46.6904 27.4737 47.25 28.1641 47.25C28.8544 47.25 29.4141 46.6904 29.4141 46V42.667C29.4141 41.9766 28.8544 41.417 28.1641 41.417ZM44.8311 36.417C44.1409 36.4172 43.5811 36.9768 43.5811 37.667V46C43.5811 46.6902 44.1409 47.2498 44.8311 47.25C45.5214 47.25 46.0811 46.6904 46.0811 46V37.667C46.081 36.9767 45.5214 36.417 44.8311 36.417ZM36.499 39.749C35.8089 39.7492 35.2492 40.3089 35.249 40.999V45.999C35.249 46.6893 35.8088 47.2488 36.499 47.249C37.1894 47.249 37.749 46.6894 37.749 45.999V40.999C37.7489 40.3088 37.1893 39.749 36.499 39.749ZM42.9307 24.7539C42.5904 24.7695 42.1934 24.8351 41.7979 24.9004C41.7794 24.9034 41.7606 24.9061 41.7422 24.9092L39.6299 25.2578C38.9487 25.3702 38.4873 26.0132 38.5996 26.6943C38.7119 27.3754 39.3551 27.8368 40.0361 27.7246L41.2432 27.5254C38.1057 31.9293 33.0875 33.9159 26.5 33.916C25.8097 33.916 25.2502 34.4758 25.25 35.166C25.25 35.8564 25.8096 36.416 26.5 36.416C33.7031 36.4159 39.6639 34.1763 43.3867 28.8242L43.6309 29.6768C43.821 30.3403 44.5132 30.7241 45.1768 30.5342C45.8404 30.344 46.2243 29.6519 46.0342 28.9883L45.5039 27.1377C45.4985 27.119 45.4937 27.1 45.4883 27.0811C45.3916 26.743 45.2856 26.3723 45.1484 26.0684C44.9815 25.6985 44.7171 25.3028 44.2412 25.0322C43.7821 24.7713 43.3162 24.7363 42.9307 24.7539Z" fill="#0099FF"/>
</g>
<defs>
<clipPath id="clip0_33279_132478">
<rect x="0.5" width="72" height="72" rx="36" fill="white"/>
</clipPath>
</defs>
</svg>
