<svg width="56" height="56" viewBox="0 0 56 56" fill="none" xmlns="http://www.w3.org/2000/svg">
<g clip-path="url(#clip0_3683_7074)">
<rect opacity="0.1" width="56" height="56" fill="#0099FF"/>
<path d="M32.4503 26.6715C30.3654 28.157 29.0042 30.5926 29.0042 33.3476C29.0042 35.3004 29.6886 37.0926 30.8289 38.5003H21.6673C19.1683 38.5003 17.9184 38.5001 16.9639 38.0138C16.1244 37.586 15.4417 36.9033 15.0139 36.0638C14.5277 35.1093 14.5273 33.8592 14.5273 31.3604V26.6715H32.4503Z" fill="#0099FF"/>
<path d="M37.7828 28.1949C38.1421 28.1949 38.4337 28.4864 38.4337 28.8458V32.231L41.8198 32.2319C42.1791 32.232 42.4707 32.5235 42.4707 32.8828V33.8124C42.4707 34.1718 42.1792 34.4633 41.8198 34.4633L38.4337 34.4624V37.8494C38.4337 38.2088 38.1421 38.5003 37.7828 38.5003H36.8532C36.4938 38.5003 36.2023 38.2088 36.2023 37.8494V34.4624L32.8161 34.4633C32.4567 34.4634 32.1652 34.1718 32.1652 33.8124V32.8828C32.1652 32.5235 32.4568 32.232 32.8161 32.2319L36.2023 32.231V28.8458C36.2023 28.4864 36.4938 28.1949 36.8532 28.1949H37.7828Z" fill="#0099FF"/>
<path d="M34.1252 16.4995C36.6241 16.4995 37.8741 16.4998 38.8286 16.9861C39.6679 17.4139 40.3508 18.0967 40.7785 18.9361C41.2477 19.8572 41.2627 21.0534 41.2633 23.3816H14.5283C14.5288 21.0533 14.5447 19.8572 15.0139 18.9361C15.4417 18.0966 16.1245 17.4139 16.9639 16.9861C17.9184 16.4998 19.1684 16.4995 21.6673 16.4995H34.1252Z" fill="#0099FF"/>
</g>
<defs>
<clipPath id="clip0_3683_7074">
<rect width="56" height="56" rx="28" fill="white"/>
</clipPath>
</defs>
</svg>
