<svg width="24" height="24" viewBox="0 0 24 24" fill="none" xmlns="http://www.w3.org/2000/svg">
<path d="M16.5393 8.68222C16.7694 8.33781 16.6768 7.87206 16.3323 7.64195C15.9879 7.41185 15.5222 7.50451 15.2921 7.84893L10.8803 14.4523L8.67689 11.6141C8.42288 11.287 7.95173 11.2276 7.62454 11.4817C7.29736 11.7357 7.23804 12.2068 7.49205 12.534L10.3335 16.194C10.4813 16.3844 10.7117 16.4922 10.9526 16.4836C11.1935 16.475 11.4156 16.3512 11.5496 16.1507L16.5393 8.68222Z" fill="#1E1E1E"/>
<path fill-rule="evenodd" clip-rule="evenodd" d="M12 1.74609C6.33692 1.74609 1.74609 6.33692 1.74609 12C1.74609 17.6631 6.33692 22.2539 12 22.2539C17.6631 22.2539 22.2539 17.6631 22.2539 12C22.2539 6.33692 17.6631 1.74609 12 1.74609ZM3.24609 12C3.24609 7.16535 7.16535 3.24609 12 3.24609C16.8346 3.24609 20.7539 7.16535 20.7539 12C20.7539 16.8346 16.8346 20.7539 12 20.7539C7.16535 20.7539 3.24609 16.8346 3.24609 12Z" fill="#1E1E1E"/>
</svg>
