<svg width="249" height="164" viewBox="0 0 249 164" fill="none" xmlns="http://www.w3.org/2000/svg">
<g clip-path="url(#clip0_4054_24699)">
<rect width="249" height="164" rx="12" fill="#171A27"/>
<rect width="249" height="164" rx="12" fill="black" fill-opacity="0.2"/>
<g clip-path="url(#clip1_4054_24699)">
<mask id="mask0_4054_24699" style="mask-type:alpha" maskUnits="userSpaceOnUse" x="-5" y="-7" width="264" height="171">
<rect x="-4.06836" y="-7" width="263" height="171" fill="url(#paint0_linear_4054_24699)"/>
</mask>
<g mask="url(#mask0_4054_24699)">
<g opacity="0.8">
<path fill-rule="evenodd" clip-rule="evenodd" d="M263.292 -5.38672H-18.1484V173.864H263.292V-5.38672ZM72.8322 173.135H77.922V-4.42887H72.8322V173.135ZM88.5147 103.224C88.5147 109.383 88.6904 115.294 88.9991 119.65C89.208 122.607 89.4691 124.654 89.754 125.687V173.135H84.6641V-4.42887H89.754V41.0007C89.4691 41.5053 89.208 42.5147 88.9991 43.9679C88.6904 46.1081 88.5147 49.0146 88.5147 52.0426C88.5147 55.0707 88.6904 57.9772 88.9991 60.1173C89.208 61.5706 89.4691 62.5799 89.754 63.0846V80.7667C89.4691 81.7947 89.208 83.8461 88.9991 86.7994C88.6904 91.1545 88.5147 97.0657 88.5147 103.224ZM83.838 173.135H78.7482V-4.42887H83.838V173.135ZM72.0013 173.135H66.9115V-4.42887H72.0013V173.135ZM66.0853 173.135H60.9955V-4.42887H66.0853V173.135ZM105.437 105.589C105.437 112.795 105.698 119.706 106.163 124.799C106.533 128.813 107.003 131.435 107.507 132.369V173.135H102.417V-4.42887H107.507V36.1082C106.999 36.5942 106.529 37.954 106.163 40.0474C105.698 42.7063 105.437 46.309 105.437 50.0707C105.437 53.8323 105.698 57.4351 106.163 60.094C106.533 62.1874 107.003 63.5472 107.507 64.0332V78.8088C106.999 79.7434 106.529 82.3648 106.163 86.3788C105.698 91.4722 105.437 98.3834 105.437 105.589ZM123.189 50.0707C123.189 53.8323 123.45 57.4351 123.916 60.094C124.281 62.1874 124.751 63.5472 125.255 64.0332V173.135H120.165V-4.42887H125.255V36.1082C124.751 36.5942 124.281 37.954 123.916 40.0474C123.45 42.7063 123.189 46.309 123.189 50.0707ZM117.268 50.0707C117.268 53.8323 117.53 57.4351 117.995 60.094C118.36 62.1874 118.831 63.5472 119.334 64.0332V173.135H114.244V-4.42887H119.334V36.1082C118.831 36.5942 118.36 37.954 117.995 40.0474C117.53 42.7063 117.268 46.309 117.268 50.0707ZM111.352 105.589C111.352 112.795 111.614 119.706 112.079 124.799C112.445 128.813 112.915 131.435 113.418 132.369V173.135H108.328V-4.42887H113.418V36.1082C112.915 36.5942 112.445 37.954 112.079 40.0474C111.614 42.7063 111.352 46.309 111.352 50.0707C111.352 53.8323 111.614 57.4351 112.079 60.094C112.445 62.1874 112.915 63.5472 113.418 64.0332V78.8088C112.915 79.7434 112.445 82.3648 112.079 86.3788C111.614 91.4722 111.352 98.3834 111.352 105.589ZM60.1694 173.135H55.0795V-4.42887H60.1694V173.135ZM99.5205 105.589C99.5205 112.795 99.7817 119.706 100.247 124.799C100.613 128.813 101.083 131.435 101.586 132.369V173.135H96.4961V-4.42887H101.586V36.1082C101.083 36.5942 100.613 37.954 100.247 40.0474C99.7817 42.7063 99.5205 46.309 99.5205 50.0707C99.5205 53.8323 99.7817 57.4351 100.247 60.094C100.613 62.1874 101.083 63.5472 101.586 64.0332V78.8088C101.083 79.7434 100.613 82.3648 100.247 86.3788C99.7817 91.4722 99.5205 98.3834 99.5205 105.589ZM93.6046 103.224C93.6046 109.804 93.8657 116.112 94.331 120.766C94.6966 124.43 95.1667 126.804 95.67 127.659V173.135H90.5801V-4.42887H95.67V39.2297C95.1667 39.6642 94.6966 40.8698 94.331 42.7296C93.8657 45.0941 93.6046 48.295 93.6046 51.6408C93.6046 54.9865 93.8657 58.1874 94.331 60.5519C94.6966 62.4117 95.1667 63.6173 95.67 64.0519V78.7901C95.1667 79.6452 94.6966 82.019 94.331 85.6825C93.8657 90.3367 93.6046 96.6451 93.6046 103.224ZM12.8368 173.135H7.74702V-4.42887H12.8368V173.135ZM24.6688 173.135H19.579V-4.42887H24.6688V173.135ZM18.7528 173.135H13.663V-4.42887H18.7528V173.135ZM6.91613 173.135H1.8263V-4.42887H6.91613V173.135ZM54.2534 173.135H49.1636V-4.42887H54.2534V173.135ZM1.00016 173.135H-4.08967V-4.42887H1.00016V173.135ZM42.4215 173.135H37.3316V-4.42887H42.4215V173.135ZM30.5848 173.135H25.4949V-4.42887H30.5848V173.135ZM48.3374 173.135H43.2476V-4.42887H48.3374V173.135ZM36.5007 173.135H31.4109V-4.42887H36.5007V173.135ZM-4.91581 173.135H-16.6955V-4.42887H-4.91581V173.135ZM214.008 173.135H208.919V-4.42887H214.008V173.135ZM219.924 173.135H214.835V-4.42887H219.924V173.135ZM129.105 50.0707C129.105 53.8323 129.366 57.4351 129.832 60.094C130.197 62.1874 130.667 63.5472 131.171 64.0332V173.135H126.081V-4.42887H131.171V36.1082C130.667 36.5942 130.197 37.954 129.832 40.0474C129.366 42.7063 129.105 46.309 129.105 50.0707ZM202.176 173.135H197.087V-4.42887H202.176V173.135ZM208.092 173.135H203.003V-4.42887H208.092V173.135ZM243.593 173.135H238.503V-4.42887H243.593V173.135ZM231.756 173.135H226.666V-4.42887H231.756V173.135ZM249.509 173.135H244.419V-4.42887H249.509V173.135ZM262.115 173.135H250.335V-4.42887H262.115V173.135ZM196.256 173.135H191.166V-4.42887H196.256V173.135ZM237.677 173.135H232.587V-4.42887H237.677V173.135ZM225.84 173.135H220.75V-4.42887H225.84V173.135ZM152.774 103.224C152.774 109.804 153.035 116.112 153.5 120.766C153.866 124.43 154.336 126.804 154.839 127.659V173.135H149.749V-4.42887H154.839V39.2297C154.336 39.6642 153.866 40.8698 153.5 42.7296C153.035 45.0941 152.774 48.295 152.774 51.6408C152.774 54.9865 153.035 58.1874 153.5 60.5519C153.866 62.4117 154.336 63.6173 154.839 64.0519V78.7901C154.336 79.6452 153.866 82.019 153.5 85.6825C153.035 90.3367 152.774 96.6451 152.774 103.224ZM146.853 105.589C146.853 112.795 147.114 119.706 147.579 124.799C147.945 128.813 148.415 131.435 148.918 132.369V173.135H143.829V-4.42887H148.918V36.1082C148.415 36.5942 147.945 37.954 147.579 40.0474C147.114 42.7063 146.853 46.309 146.853 50.0707C146.853 53.8323 147.114 57.4351 147.579 60.094C147.945 62.1874 148.415 63.5472 148.918 64.0332V78.8088C148.415 79.7434 147.945 82.3648 147.579 86.3788C147.114 91.4722 146.853 98.3834 146.853 105.589ZM140.937 105.589C140.937 112.795 141.198 119.706 141.664 124.799C142.029 128.813 142.499 131.435 143.002 132.369V173.135H137.913V-4.42887H143.002V36.1082C142.499 36.5942 142.029 37.954 141.664 40.0474C141.198 42.7063 140.937 46.309 140.937 50.0707C140.937 53.8323 141.198 57.4351 141.664 60.094C142.029 62.1874 142.499 63.5472 143.002 64.0332V78.8088C142.499 79.7434 142.029 82.3648 141.664 86.3788C141.198 91.4722 140.937 98.3834 140.937 105.589ZM135.021 105.589C135.021 112.795 135.282 119.706 135.748 124.799C136.118 128.813 136.588 131.435 137.091 132.369V173.135H132.001V-4.42887H137.091V36.1082C136.583 36.5942 136.113 37.954 135.748 40.0474C135.282 42.7063 135.021 46.309 135.021 50.0707C135.021 53.8323 135.282 57.4351 135.748 60.094C136.118 62.1874 136.588 63.5472 137.091 64.0332V78.8088C136.583 79.7434 136.113 82.3648 135.748 86.3788C135.282 91.4722 135.021 98.3834 135.021 105.589ZM190.34 173.135H185.25V-4.42887H190.34V173.135ZM159.516 103.224C159.516 109.383 159.692 115.294 160 119.65C160.209 122.607 160.47 124.659 160.755 125.687V173.135H155.665V-4.42887H160.755V40.996C160.47 41.5007 160.209 42.51 160 43.9633C159.692 46.1034 159.516 49.01 159.516 52.038C159.516 55.066 159.692 57.9725 160 60.1127C160.209 61.5659 160.47 62.5753 160.755 63.0799V80.762C160.47 81.7947 160.209 83.8461 160 86.7994C159.692 91.1545 159.516 97.0657 159.516 103.224ZM178.508 173.135H173.418V-4.42887H178.508V173.135ZM184.424 173.135H179.334V-4.42887H184.424V173.135ZM172.592 173.135H167.502V-4.42887H172.592V173.135ZM166.671 173.135H161.581V-4.42887H166.671V173.135Z" fill="url(#paint1_linear_4054_24699)"/>
<path fill-rule="evenodd" clip-rule="evenodd" d="M263.292 -5.38672H-18.1484V173.864H263.292V-5.38672ZM72.8322 173.135H77.922V-4.42887H72.8322V173.135ZM88.5147 103.224C88.5147 109.383 88.6904 115.294 88.9991 119.65C89.208 122.607 89.4691 124.654 89.754 125.687V173.135H84.6641V-4.42887H89.754V41.0007C89.4691 41.5053 89.208 42.5147 88.9991 43.9679C88.6904 46.1081 88.5147 49.0146 88.5147 52.0426C88.5147 55.0707 88.6904 57.9772 88.9991 60.1173C89.208 61.5706 89.4691 62.5799 89.754 63.0846V80.7667C89.4691 81.7947 89.208 83.8461 88.9991 86.7994C88.6904 91.1545 88.5147 97.0657 88.5147 103.224ZM83.838 173.135H78.7482V-4.42887H83.838V173.135ZM72.0013 173.135H66.9115V-4.42887H72.0013V173.135ZM66.0853 173.135H60.9955V-4.42887H66.0853V173.135ZM105.437 105.589C105.437 112.795 105.698 119.706 106.163 124.799C106.533 128.813 107.003 131.435 107.507 132.369V173.135H102.417V-4.42887H107.507V36.1082C106.999 36.5942 106.529 37.954 106.163 40.0474C105.698 42.7063 105.437 46.309 105.437 50.0707C105.437 53.8323 105.698 57.4351 106.163 60.094C106.533 62.1874 107.003 63.5472 107.507 64.0332V78.8088C106.999 79.7434 106.529 82.3648 106.163 86.3788C105.698 91.4722 105.437 98.3834 105.437 105.589ZM123.189 50.0707C123.189 53.8323 123.45 57.4351 123.916 60.094C124.281 62.1874 124.751 63.5472 125.255 64.0332V173.135H120.165V-4.42887H125.255V36.1082C124.751 36.5942 124.281 37.954 123.916 40.0474C123.45 42.7063 123.189 46.309 123.189 50.0707ZM117.268 50.0707C117.268 53.8323 117.53 57.4351 117.995 60.094C118.36 62.1874 118.831 63.5472 119.334 64.0332V173.135H114.244V-4.42887H119.334V36.1082C118.831 36.5942 118.36 37.954 117.995 40.0474C117.53 42.7063 117.268 46.309 117.268 50.0707ZM111.352 105.589C111.352 112.795 111.614 119.706 112.079 124.799C112.445 128.813 112.915 131.435 113.418 132.369V173.135H108.328V-4.42887H113.418V36.1082C112.915 36.5942 112.445 37.954 112.079 40.0474C111.614 42.7063 111.352 46.309 111.352 50.0707C111.352 53.8323 111.614 57.4351 112.079 60.094C112.445 62.1874 112.915 63.5472 113.418 64.0332V78.8088C112.915 79.7434 112.445 82.3648 112.079 86.3788C111.614 91.4722 111.352 98.3834 111.352 105.589ZM60.1694 173.135H55.0795V-4.42887H60.1694V173.135ZM99.5205 105.589C99.5205 112.795 99.7817 119.706 100.247 124.799C100.613 128.813 101.083 131.435 101.586 132.369V173.135H96.4961V-4.42887H101.586V36.1082C101.083 36.5942 100.613 37.954 100.247 40.0474C99.7817 42.7063 99.5205 46.309 99.5205 50.0707C99.5205 53.8323 99.7817 57.4351 100.247 60.094C100.613 62.1874 101.083 63.5472 101.586 64.0332V78.8088C101.083 79.7434 100.613 82.3648 100.247 86.3788C99.7817 91.4722 99.5205 98.3834 99.5205 105.589ZM93.6046 103.224C93.6046 109.804 93.8657 116.112 94.331 120.766C94.6966 124.43 95.1667 126.804 95.67 127.659V173.135H90.5801V-4.42887H95.67V39.2297C95.1667 39.6642 94.6966 40.8698 94.331 42.7296C93.8657 45.0941 93.6046 48.295 93.6046 51.6408C93.6046 54.9865 93.8657 58.1874 94.331 60.5519C94.6966 62.4117 95.1667 63.6173 95.67 64.0519V78.7901C95.1667 79.6452 94.6966 82.019 94.331 85.6825C93.8657 90.3367 93.6046 96.6451 93.6046 103.224ZM12.8368 173.135H7.74702V-4.42887H12.8368V173.135ZM24.6688 173.135H19.579V-4.42887H24.6688V173.135ZM18.7528 173.135H13.663V-4.42887H18.7528V173.135ZM6.91613 173.135H1.8263V-4.42887H6.91613V173.135ZM54.2534 173.135H49.1636V-4.42887H54.2534V173.135ZM1.00016 173.135H-4.08967V-4.42887H1.00016V173.135ZM42.4215 173.135H37.3316V-4.42887H42.4215V173.135ZM30.5848 173.135H25.4949V-4.42887H30.5848V173.135ZM48.3374 173.135H43.2476V-4.42887H48.3374V173.135ZM36.5007 173.135H31.4109V-4.42887H36.5007V173.135ZM-4.91581 173.135H-16.6955V-4.42887H-4.91581V173.135ZM214.008 173.135H208.919V-4.42887H214.008V173.135ZM219.924 173.135H214.835V-4.42887H219.924V173.135ZM129.105 50.0707C129.105 53.8323 129.366 57.4351 129.832 60.094C130.197 62.1874 130.667 63.5472 131.171 64.0332V173.135H126.081V-4.42887H131.171V36.1082C130.667 36.5942 130.197 37.954 129.832 40.0474C129.366 42.7063 129.105 46.309 129.105 50.0707ZM202.176 173.135H197.087V-4.42887H202.176V173.135ZM208.092 173.135H203.003V-4.42887H208.092V173.135ZM243.593 173.135H238.503V-4.42887H243.593V173.135ZM231.756 173.135H226.666V-4.42887H231.756V173.135ZM249.509 173.135H244.419V-4.42887H249.509V173.135ZM262.115 173.135H250.335V-4.42887H262.115V173.135ZM196.256 173.135H191.166V-4.42887H196.256V173.135ZM237.677 173.135H232.587V-4.42887H237.677V173.135ZM225.84 173.135H220.75V-4.42887H225.84V173.135ZM152.774 103.224C152.774 109.804 153.035 116.112 153.5 120.766C153.866 124.43 154.336 126.804 154.839 127.659V173.135H149.749V-4.42887H154.839V39.2297C154.336 39.6642 153.866 40.8698 153.5 42.7296C153.035 45.0941 152.774 48.295 152.774 51.6408C152.774 54.9865 153.035 58.1874 153.5 60.5519C153.866 62.4117 154.336 63.6173 154.839 64.0519V78.7901C154.336 79.6452 153.866 82.019 153.5 85.6825C153.035 90.3367 152.774 96.6451 152.774 103.224ZM146.853 105.589C146.853 112.795 147.114 119.706 147.579 124.799C147.945 128.813 148.415 131.435 148.918 132.369V173.135H143.829V-4.42887H148.918V36.1082C148.415 36.5942 147.945 37.954 147.579 40.0474C147.114 42.7063 146.853 46.309 146.853 50.0707C146.853 53.8323 147.114 57.4351 147.579 60.094C147.945 62.1874 148.415 63.5472 148.918 64.0332V78.8088C148.415 79.7434 147.945 82.3648 147.579 86.3788C147.114 91.4722 146.853 98.3834 146.853 105.589ZM140.937 105.589C140.937 112.795 141.198 119.706 141.664 124.799C142.029 128.813 142.499 131.435 143.002 132.369V173.135H137.913V-4.42887H143.002V36.1082C142.499 36.5942 142.029 37.954 141.664 40.0474C141.198 42.7063 140.937 46.309 140.937 50.0707C140.937 53.8323 141.198 57.4351 141.664 60.094C142.029 62.1874 142.499 63.5472 143.002 64.0332V78.8088C142.499 79.7434 142.029 82.3648 141.664 86.3788C141.198 91.4722 140.937 98.3834 140.937 105.589ZM135.021 105.589C135.021 112.795 135.282 119.706 135.748 124.799C136.118 128.813 136.588 131.435 137.091 132.369V173.135H132.001V-4.42887H137.091V36.1082C136.583 36.5942 136.113 37.954 135.748 40.0474C135.282 42.7063 135.021 46.309 135.021 50.0707C135.021 53.8323 135.282 57.4351 135.748 60.094C136.118 62.1874 136.588 63.5472 137.091 64.0332V78.8088C136.583 79.7434 136.113 82.3648 135.748 86.3788C135.282 91.4722 135.021 98.3834 135.021 105.589ZM190.34 173.135H185.25V-4.42887H190.34V173.135ZM159.516 103.224C159.516 109.383 159.692 115.294 160 119.65C160.209 122.607 160.47 124.659 160.755 125.687V173.135H155.665V-4.42887H160.755V40.996C160.47 41.5007 160.209 42.51 160 43.9633C159.692 46.1034 159.516 49.01 159.516 52.038C159.516 55.066 159.692 57.9725 160 60.1127C160.209 61.5659 160.47 62.5753 160.755 63.0799V80.762C160.47 81.7947 160.209 83.8461 160 86.7994C159.692 91.1545 159.516 97.0657 159.516 103.224ZM178.508 173.135H173.418V-4.42887H178.508V173.135ZM184.424 173.135H179.334V-4.42887H184.424V173.135ZM172.592 173.135H167.502V-4.42887H172.592V173.135ZM166.671 173.135H161.581V-4.42887H166.671V173.135Z" fill="url(#paint2_linear_4054_24699)" fill-opacity="0.8"/>
</g>
</g>
</g>
<g clip-path="url(#clip2_4054_24699)">
<path d="M204.036 14.4168L197.026 30.9673H192.452L189.002 17.7583C188.791 16.9453 188.61 16.6471 187.973 16.3049C186.934 15.7462 185.217 15.2219 183.705 14.8971L183.808 14.4168H191.17C192.109 14.4168 192.953 15.0336 193.165 16.104L194.988 25.6827L199.489 14.4168H204.036ZM221.957 25.5635C221.974 21.1955 215.851 20.9538 215.895 19.0029C215.907 18.4081 216.481 17.7771 217.729 17.6155C218.351 17.5354 220.057 17.4726 221.997 18.3563L222.755 14.8468C221.714 14.4717 220.374 14.1123 218.707 14.1123C214.432 14.1123 211.421 16.363 211.396 19.5852C211.369 21.9661 213.545 23.2955 215.185 24.0897C216.871 24.8996 217.435 25.4206 217.429 26.1458C217.418 27.257 216.084 27.7451 214.841 27.7655C212.665 27.8 211.402 27.1848 210.395 26.7202L209.612 30.3473C210.622 30.8072 212.487 31.2059 214.425 31.2263C218.969 31.2263 221.943 29.0038 221.957 25.5635ZM233.249 30.9673H237.251L233.758 14.4168H230.063C229.233 14.4168 228.532 14.8955 228.222 15.6316L221.732 30.9689H226.272L227.175 28.4984H232.726L233.248 30.9689L233.249 30.9673ZM228.421 25.1036L230.699 18.8868L232.009 25.1036H228.421ZM210.218 14.4168L206.64 30.9673H202.313L205.891 14.4168H210.218Z" fill="white"/>
<path d="M207.061 40.7895V35.519H208.819C209.389 35.519 209.842 35.654 210.179 35.9208C210.515 36.1892 210.683 36.5926 210.683 37.1341C210.683 37.6756 210.515 38.0852 210.179 38.3504C209.842 38.6157 209.389 38.7507 208.819 38.7507H207.747V40.7895H207.061ZM208.721 36.0684H207.747V38.2249H208.721C209.122 38.2249 209.432 38.1433 209.646 37.9785C209.861 37.8152 209.968 37.5359 209.968 37.1435C209.968 36.7511 209.86 36.4796 209.646 36.3148C209.432 36.15 209.122 36.0684 208.721 36.0684Z" fill="white"/>
<path d="M212.239 35.312V40.7896H211.615V35.312H212.239Z" fill="white"/>
<path d="M213.415 37.7386L213.485 37.1343C213.634 37.0323 213.821 36.9475 214.045 36.8785C214.269 36.8094 214.514 36.7749 214.781 36.7749C215.29 36.7749 215.669 36.8738 215.916 37.0731C216.164 37.2709 216.287 37.6005 216.287 38.0572V40.7897H215.691V40.0411H215.663C215.559 40.333 215.401 40.5464 215.187 40.683C214.971 40.8195 214.703 40.887 214.381 40.887C214.162 40.887 213.959 40.8462 213.775 40.7662C213.591 40.6846 213.442 40.5637 213.331 40.3989C213.219 40.2341 213.163 40.0254 213.163 39.7711C213.163 39.5168 213.217 39.3128 213.325 39.1574C213.431 39.002 213.582 38.8843 213.777 38.8011C213.972 38.718 214.203 38.6536 214.475 38.6065C214.806 38.5516 215.069 38.4998 215.263 38.4543C215.456 38.4088 215.596 38.346 215.68 38.2675V38.087C215.68 37.8014 215.613 37.5926 215.48 37.4623C215.347 37.3336 215.098 37.2693 214.733 37.2693C214.5 37.2693 214.27 37.3085 214.043 37.387C213.817 37.4655 213.612 37.5832 213.431 37.7402H213.417L213.415 37.7386ZM215.672 39.4729V38.6615C215.598 38.7258 215.466 38.7839 215.276 38.831C215.085 38.878 214.852 38.9298 214.571 38.9801C214.334 39.0162 214.142 39.0868 213.994 39.1888C213.847 39.2908 213.774 39.4713 213.774 39.7303C213.774 39.9657 213.842 40.1399 213.98 40.2529C214.118 40.3675 214.308 40.4224 214.551 40.4224C214.793 40.4224 214.985 40.3738 215.153 40.2781C215.322 40.1807 215.45 40.0599 215.539 39.9139C215.628 39.7695 215.672 39.622 215.672 39.4745V39.4729Z" fill="white"/>
<path d="M218.299 39.7363C218.299 39.9874 218.352 40.1538 218.46 40.2386C218.567 40.3249 218.708 40.3673 218.881 40.3673C219.039 40.3673 219.177 40.3531 219.294 40.3249C219.41 40.2966 219.507 40.2652 219.582 40.2276H219.602L219.547 40.7486C219.477 40.7847 219.371 40.8177 219.231 40.846C219.091 40.8742 218.949 40.8883 218.803 40.8883C218.452 40.8883 218.176 40.8067 217.977 40.6419C217.775 40.4771 217.675 40.2087 217.675 39.8336V37.3868H216.947L217.031 36.9771L217.675 36.8861V36.048L218.299 35.9585V36.8735H219.51L219.432 37.3868H218.297V39.7363H218.299Z" fill="white"/>
<path d="M220.246 35.9166C220.246 35.8146 220.283 35.7314 220.354 35.6639C220.427 35.5964 220.519 35.5635 220.631 35.5635C220.744 35.5635 220.836 35.598 220.912 35.6639C220.987 35.7314 221.025 35.8162 221.025 35.9166C221.025 36.0171 220.988 36.1097 220.912 36.1772C220.838 36.2446 220.744 36.2776 220.631 36.2776C220.519 36.2776 220.427 36.2431 220.354 36.1772C220.281 36.1097 220.246 36.0233 220.246 35.9166ZM220.947 36.8724V40.79H220.324V36.8724H220.947Z" fill="white"/>
<path d="M224.164 36.7764C224.593 36.7764 224.93 36.8847 225.172 37.1028C225.415 37.3194 225.537 37.66 225.537 38.1214V40.7912H224.92V38.2957C224.92 37.9661 224.849 37.7212 224.706 37.5564C224.563 37.3932 224.305 37.31 223.932 37.31C223.713 37.31 223.513 37.3539 223.333 37.4418C223.152 37.5297 223.011 37.6553 222.906 37.817C222.801 37.9786 222.747 38.1701 222.747 38.393V40.7912H222.124V36.8737H222.72V37.7055H222.755C222.83 37.4842 222.944 37.3053 223.095 37.1687C223.247 37.0322 223.417 36.9333 223.605 36.8705C223.794 36.8093 223.98 36.7779 224.162 36.7779L224.164 36.7764Z" fill="white"/>
<path d="M228.27 40.3533C228.486 40.3533 228.682 40.3094 228.862 40.2215C229.041 40.1352 229.185 40.0081 229.293 39.8464C229.399 39.6847 229.453 39.4948 229.453 39.2782V36.8722H230.076V40.7897H229.482V39.9641H229.453C229.374 40.1854 229.26 40.3659 229.111 40.5025C228.962 40.639 228.793 40.7363 228.606 40.796C228.419 40.8556 228.235 40.8854 228.053 40.8854C227.623 40.8854 227.285 40.7755 227.036 40.5527C226.789 40.3314 226.665 39.9892 226.665 39.5262V36.8706H227.288V39.3881C227.288 39.7208 227.358 39.9641 227.499 40.1195C227.639 40.2749 227.896 40.3518 228.27 40.3518V40.3533Z" fill="white"/>
<path d="M234.512 37.7182H234.54C234.615 37.4906 234.727 37.3101 234.876 37.1736C235.026 37.037 235.192 36.9366 235.378 36.8722C235.562 36.8079 235.746 36.7749 235.928 36.7749C236.353 36.7749 236.68 36.8879 236.908 37.1139C237.136 37.3399 237.251 37.6821 237.251 38.1404V40.7897H236.627V38.2659C236.627 37.9332 236.566 37.6899 236.442 37.5377C236.318 37.3854 236.069 37.3101 235.695 37.3101C235.373 37.3101 235.103 37.4011 234.886 37.5832C234.669 37.7653 234.559 38.0305 234.559 38.3774V40.7897H233.936V38.2659C233.936 37.9332 233.873 37.6899 233.746 37.5377C233.619 37.3854 233.37 37.3101 232.997 37.3101C232.786 37.3101 232.594 37.3525 232.423 37.4372C232.25 37.5236 232.114 37.6476 232.012 37.8092C231.912 37.9709 231.862 38.1608 231.862 38.3774V40.7897H231.238V36.8722H231.835V37.7182H231.869C231.944 37.4906 232.053 37.3101 232.199 37.1736C232.344 37.037 232.507 36.9366 232.686 36.8722C232.865 36.8079 233.046 36.7749 233.229 36.7749C233.584 36.7749 233.869 36.8518 234.087 37.0072C234.304 37.1626 234.445 37.3996 234.51 37.7182H234.512Z" fill="white"/>
</g>
</g>
<rect x="0.62046" y="0.62046" width="247.759" height="162.759" rx="11.3795" stroke="url(#paint3_linear_4054_24699)" stroke-opacity="0.09" stroke-width="1.24092"/>
<defs>
<linearGradient id="paint0_linear_4054_24699" x1="-10.5685" y1="54.9907" x2="247.386" y2="76.3168" gradientUnits="userSpaceOnUse">
<stop offset="0.00287194" stop-color="#D9D9D9" stop-opacity="0"/>
<stop offset="0.350332" stop-color="#D9D9D9"/>
<stop offset="0.534777" stop-color="#737373"/>
<stop offset="1" stop-color="#737373" stop-opacity="0"/>
</linearGradient>
<linearGradient id="paint1_linear_4054_24699" x1="122.572" y1="-5.38672" x2="122.572" y2="173.864" gradientUnits="userSpaceOnUse">
<stop stop-color="white" stop-opacity="0"/>
<stop offset="0.375" stop-color="#A1ECFE"/>
<stop offset="0.706731" stop-color="#5B9CFD"/>
<stop offset="1" stop-color="white" stop-opacity="0"/>
</linearGradient>
<linearGradient id="paint2_linear_4054_24699" x1="122.572" y1="-5.38672" x2="236.932" y2="224.999" gradientUnits="userSpaceOnUse">
<stop stop-opacity="0"/>
<stop offset="1"/>
</linearGradient>
<linearGradient id="paint3_linear_4054_24699" x1="265.461" y1="20.4882" x2="-29.9263" y2="152.006" gradientUnits="userSpaceOnUse">
<stop stop-color="white"/>
<stop offset="1" stop-color="white" stop-opacity="0"/>
</linearGradient>
<clipPath id="clip0_4054_24699">
<rect width="249" height="164" rx="12" fill="white"/>
</clipPath>
<clipPath id="clip1_4054_24699">
<rect width="250.864" height="164" fill="white"/>
</clipPath>
<clipPath id="clip2_4054_24699">
<rect width="53.5455" height="26.7727" fill="white" transform="translate(183.705 14.1138)"/>
</clipPath>
</defs>
</svg>
