<svg width="263" height="168" viewBox="0 0 263 168" fill="none" xmlns="http://www.w3.org/2000/svg">
<rect width="263" height="168" rx="15.5077" fill="#171A27"/>
<rect width="263" height="168" rx="15.5077" fill="black" fill-opacity="0.2"/>
<rect x="0.635593" y="0.635593" width="261.729" height="166.729" rx="14.8721" stroke="url(#paint0_linear_53508_104465)" stroke-opacity="0.09" stroke-width="1.27119"/>
<g clip-path="url(#clip0_53508_104465)">
<mask id="mask0_53508_104465" style="mask-type:alpha" maskUnits="userSpaceOnUse" x="-1" y="-8" width="271" height="176">
<rect x="-0.204163" y="-7.17072" width="269.415" height="175.171" fill="url(#paint1_linear_53508_104465)"/>
</mask>
<g mask="url(#mask0_53508_104465)">
<g opacity="0.8">
<path fill-rule="evenodd" clip-rule="evenodd" d="M276.608 -7.81189H-11.6975V175.811H276.608V-7.81189ZM81.5022 175.064H86.7161V-6.83068H81.5022V175.064ZM97.5672 103.448C97.5672 109.757 97.7472 115.813 98.0633 120.274C98.2773 123.304 98.5448 125.401 98.8367 126.459V175.064H93.6227V-6.83068H98.8367V39.7069C98.5448 40.2239 98.2773 41.2578 98.0633 42.7465C97.7472 44.9389 97.5672 47.9163 97.5672 51.0182C97.5672 54.1201 97.7472 57.0975 98.0633 59.2898C98.2773 60.7785 98.5448 61.8125 98.8367 62.3295V80.4428C98.5448 81.4959 98.2773 83.5974 98.0633 86.6226C97.7472 91.084 97.5672 97.1393 97.5672 103.448ZM92.7764 175.064H87.5624V-6.83068H92.7764V175.064ZM80.651 175.064H75.437V-6.83068H80.651V175.064ZM74.5907 175.064H69.3768V-6.83068H74.5907V175.064ZM114.902 105.871C114.902 113.252 115.169 120.332 115.646 125.549C116.025 129.661 116.507 132.346 117.022 133.304V175.064H111.808V-6.83068H117.022V34.6951C116.502 35.1929 116.02 36.5859 115.646 38.7304C115.169 41.4541 114.902 45.1447 114.902 48.9981C114.902 52.8515 115.169 56.5422 115.646 59.2659C116.025 61.4104 116.507 62.8034 117.022 63.3012V78.4372C116.502 79.3945 116.02 82.08 115.646 86.1918C115.169 91.4095 114.902 98.4892 114.902 105.871ZM133.087 48.9981C133.087 52.8515 133.355 56.5422 133.832 59.2659C134.206 61.4104 134.688 62.8034 135.203 63.3012V175.064H129.989V-6.83068H135.203V34.6951C134.688 35.1929 134.206 36.5859 133.832 38.7304C133.355 41.4541 133.087 45.1447 133.087 48.9981ZM127.022 48.9981C127.022 52.8515 127.29 56.5422 127.766 59.2659C128.141 61.4104 128.622 62.8034 129.138 63.3012V175.064H123.924V-6.83068H129.138V34.6951C128.622 35.1929 128.141 36.5859 127.766 38.7304C127.29 41.4541 127.022 45.1447 127.022 48.9981ZM120.962 105.871C120.962 113.252 121.229 120.332 121.706 125.549C122.081 129.661 122.562 132.346 123.078 133.304V175.064H117.864V-6.83068H123.078V34.6951C122.562 35.1929 122.081 36.5859 121.706 38.7304C121.229 41.4541 120.962 45.1447 120.962 48.9981C120.962 52.8515 121.229 56.5422 121.706 59.2659C122.081 61.4104 122.562 62.8034 123.078 63.3012V78.4372C122.562 79.3945 122.081 82.08 121.706 86.1918C121.229 91.4095 120.962 98.4892 120.962 105.871ZM68.5305 175.064H63.3165V-6.83068H68.5305V175.064ZM108.841 105.871C108.841 113.252 109.109 120.332 109.586 125.549C109.96 129.661 110.442 132.346 110.957 133.304V175.064H105.743V-6.83068H110.957V34.6951C110.442 35.1929 109.96 36.5859 109.586 38.7304C109.109 41.4541 108.841 45.1447 108.841 48.9981C108.841 52.8515 109.109 56.5422 109.586 59.2659C109.96 61.4104 110.442 62.8034 110.957 63.3012V78.4372C110.442 79.3945 109.96 82.08 109.586 86.1918C109.109 91.4095 108.841 98.4892 108.841 105.871ZM102.781 103.448C102.781 110.188 103.049 116.65 103.525 121.418C103.9 125.171 104.381 127.603 104.897 128.479V175.064H99.683V-6.83068H104.897V37.8927C104.381 38.3379 103.9 39.5729 103.525 41.478C103.049 43.9002 102.781 47.1791 102.781 50.6065C102.781 54.0339 103.049 57.3129 103.525 59.735C103.9 61.6402 104.381 62.8752 104.897 63.3204V78.418C104.381 79.294 103.9 81.7257 103.525 85.4786C103.049 90.2463 102.781 96.7085 102.781 103.448ZM20.0435 175.064H14.8295V-6.83068H20.0435V175.064ZM32.164 175.064H26.9501V-6.83068H32.164V175.064ZM26.1038 175.064H20.8898V-6.83068H26.1038V175.064ZM13.9784 175.064H8.76442V-6.83068H13.9784V175.064ZM62.4702 175.064H57.2562V-6.83068H62.4702V175.064ZM7.91812 175.064H2.70415V-6.83068H7.91812V175.064ZM50.3497 175.064H45.1357V-6.83068H50.3497V175.064ZM38.2243 175.064H33.0103V-6.83068H38.2243V175.064ZM56.41 175.064H51.196V-6.83068H56.41V175.064ZM44.2846 175.064H39.0706V-6.83068H44.2846V175.064ZM1.85786 175.064H-10.2092V-6.83068H1.85786V175.064ZM226.122 175.064H220.908V-6.83068H226.122V175.064ZM232.182 175.064H226.968V-6.83068H232.182V175.064ZM139.148 48.9981C139.148 52.8515 139.415 56.5422 139.892 59.2659C140.266 61.4104 140.748 62.8034 141.263 63.3012V175.064H136.049V-6.83068H141.263V34.6951C140.748 35.1929 140.266 36.5859 139.892 38.7304C139.415 41.4541 139.148 45.1447 139.148 48.9981ZM214.001 175.064H208.787V-6.83068H214.001V175.064ZM220.061 175.064H214.847V-6.83068H220.061V175.064ZM256.428 175.064H251.214V-6.83068H256.428V175.064ZM244.302 175.064H239.088V-6.83068H244.302V175.064ZM262.488 175.064H257.274V-6.83068H262.488V175.064ZM275.401 175.064H263.334V-6.83068H275.401V175.064ZM207.936 175.064H202.722V-6.83068H207.936V175.064ZM250.368 175.064H245.154V-6.83068H250.368V175.064ZM238.242 175.064H233.028V-6.83068H238.242V175.064ZM163.394 103.448C163.394 110.188 163.661 116.65 164.138 121.418C164.512 125.171 164.994 127.603 165.509 128.479V175.064H160.295V-6.83068H165.509V37.8927C164.994 38.3379 164.512 39.5729 164.138 41.478C163.661 43.9002 163.394 47.1791 163.394 50.6065C163.394 54.0339 163.661 57.3129 164.138 59.735C164.512 61.6402 164.994 62.8752 165.509 63.3204V78.418C164.994 79.294 164.512 81.7257 164.138 85.4786C163.661 90.2463 163.394 96.7085 163.394 103.448ZM157.328 105.871C157.328 113.252 157.596 120.332 158.073 125.549C158.447 129.661 158.929 132.346 159.444 133.304V175.064H154.23V-6.83068H159.444V34.6951C158.929 35.1929 158.447 36.5859 158.073 38.7304C157.596 41.4541 157.328 45.1447 157.328 48.9981C157.328 52.8515 157.596 56.5422 158.073 59.2659C158.447 61.4104 158.929 62.8034 159.444 63.3012V78.4372C158.929 79.3945 158.447 82.08 158.073 86.1918C157.596 91.4095 157.328 98.4892 157.328 105.871ZM151.268 105.871C151.268 113.252 151.536 120.332 152.012 125.549C152.387 129.661 152.868 132.346 153.384 133.304V175.064H148.17V-6.83068H153.384V34.6951C152.868 35.1929 152.387 36.5859 152.012 38.7304C151.536 41.4541 151.268 45.1447 151.268 48.9981C151.268 52.8515 151.536 56.5422 152.012 59.2659C152.387 61.4104 152.868 62.8034 153.384 63.3012V78.4372C152.868 79.3945 152.387 82.08 152.012 86.1918C151.536 91.4095 151.268 98.4892 151.268 105.871ZM145.208 105.871C145.208 113.252 145.475 120.332 145.952 125.549C146.331 129.661 146.813 132.346 147.328 133.304V175.064H142.115V-6.83068H147.328V34.6951C146.808 35.1929 146.327 36.5859 145.952 38.7304C145.475 41.4541 145.208 45.1447 145.208 48.9981C145.208 52.8515 145.475 56.5422 145.952 59.2659C146.331 61.4104 146.813 62.8034 147.328 63.3012V78.4372C146.808 79.3945 146.327 82.08 145.952 86.1918C145.475 91.4095 145.208 98.4892 145.208 105.871ZM201.876 175.064H196.662V-6.83068H201.876V175.064ZM170.3 103.448C170.3 109.757 170.48 115.813 170.796 120.274C171.01 123.304 171.278 125.406 171.57 126.459V175.064H166.356V-6.83068H171.57V39.7021C171.278 40.2191 171.01 41.2531 170.796 42.7418C170.48 44.9341 170.3 47.9115 170.3 51.0134C170.3 54.1153 170.48 57.0927 170.796 59.285C171.01 60.7738 171.278 61.8077 171.57 62.3247V80.4381C171.278 81.496 171.01 83.5974 170.796 86.6226C170.48 91.084 170.3 97.1393 170.3 103.448ZM189.755 175.064H184.541V-6.83068H189.755V175.064ZM195.815 175.064H190.601V-6.83068H195.815V175.064ZM183.695 175.064H178.481V-6.83068H183.695V175.064ZM177.63 175.064H172.416V-6.83068H177.63V175.064Z" fill="url(#paint2_linear_53508_104465)"/>
<path fill-rule="evenodd" clip-rule="evenodd" d="M276.608 -7.81189H-11.6975V175.811H276.608V-7.81189ZM81.5022 175.064H86.7161V-6.83068H81.5022V175.064ZM97.5672 103.448C97.5672 109.757 97.7472 115.813 98.0633 120.274C98.2773 123.304 98.5448 125.401 98.8367 126.459V175.064H93.6227V-6.83068H98.8367V39.7069C98.5448 40.2239 98.2773 41.2578 98.0633 42.7465C97.7472 44.9389 97.5672 47.9163 97.5672 51.0182C97.5672 54.1201 97.7472 57.0975 98.0633 59.2898C98.2773 60.7785 98.5448 61.8125 98.8367 62.3295V80.4428C98.5448 81.4959 98.2773 83.5974 98.0633 86.6226C97.7472 91.084 97.5672 97.1393 97.5672 103.448ZM92.7764 175.064H87.5624V-6.83068H92.7764V175.064ZM80.651 175.064H75.437V-6.83068H80.651V175.064ZM74.5907 175.064H69.3768V-6.83068H74.5907V175.064ZM114.902 105.871C114.902 113.252 115.169 120.332 115.646 125.549C116.025 129.661 116.507 132.346 117.022 133.304V175.064H111.808V-6.83068H117.022V34.6951C116.502 35.1929 116.02 36.5859 115.646 38.7304C115.169 41.4541 114.902 45.1447 114.902 48.9981C114.902 52.8515 115.169 56.5422 115.646 59.2659C116.025 61.4104 116.507 62.8034 117.022 63.3012V78.4372C116.502 79.3945 116.02 82.08 115.646 86.1918C115.169 91.4095 114.902 98.4892 114.902 105.871ZM133.087 48.9981C133.087 52.8515 133.355 56.5422 133.832 59.2659C134.206 61.4104 134.688 62.8034 135.203 63.3012V175.064H129.989V-6.83068H135.203V34.6951C134.688 35.1929 134.206 36.5859 133.832 38.7304C133.355 41.4541 133.087 45.1447 133.087 48.9981ZM127.022 48.9981C127.022 52.8515 127.29 56.5422 127.766 59.2659C128.141 61.4104 128.622 62.8034 129.138 63.3012V175.064H123.924V-6.83068H129.138V34.6951C128.622 35.1929 128.141 36.5859 127.766 38.7304C127.29 41.4541 127.022 45.1447 127.022 48.9981ZM120.962 105.871C120.962 113.252 121.229 120.332 121.706 125.549C122.081 129.661 122.562 132.346 123.078 133.304V175.064H117.864V-6.83068H123.078V34.6951C122.562 35.1929 122.081 36.5859 121.706 38.7304C121.229 41.4541 120.962 45.1447 120.962 48.9981C120.962 52.8515 121.229 56.5422 121.706 59.2659C122.081 61.4104 122.562 62.8034 123.078 63.3012V78.4372C122.562 79.3945 122.081 82.08 121.706 86.1918C121.229 91.4095 120.962 98.4892 120.962 105.871ZM68.5305 175.064H63.3165V-6.83068H68.5305V175.064ZM108.841 105.871C108.841 113.252 109.109 120.332 109.586 125.549C109.96 129.661 110.442 132.346 110.957 133.304V175.064H105.743V-6.83068H110.957V34.6951C110.442 35.1929 109.96 36.5859 109.586 38.7304C109.109 41.4541 108.841 45.1447 108.841 48.9981C108.841 52.8515 109.109 56.5422 109.586 59.2659C109.96 61.4104 110.442 62.8034 110.957 63.3012V78.4372C110.442 79.3945 109.96 82.08 109.586 86.1918C109.109 91.4095 108.841 98.4892 108.841 105.871ZM102.781 103.448C102.781 110.188 103.049 116.65 103.525 121.418C103.9 125.171 104.381 127.603 104.897 128.479V175.064H99.683V-6.83068H104.897V37.8927C104.381 38.3379 103.9 39.5729 103.525 41.478C103.049 43.9002 102.781 47.1791 102.781 50.6065C102.781 54.0339 103.049 57.3129 103.525 59.735C103.9 61.6402 104.381 62.8752 104.897 63.3204V78.418C104.381 79.294 103.9 81.7257 103.525 85.4786C103.049 90.2463 102.781 96.7085 102.781 103.448ZM20.0435 175.064H14.8295V-6.83068H20.0435V175.064ZM32.164 175.064H26.9501V-6.83068H32.164V175.064ZM26.1038 175.064H20.8898V-6.83068H26.1038V175.064ZM13.9784 175.064H8.76442V-6.83068H13.9784V175.064ZM62.4702 175.064H57.2562V-6.83068H62.4702V175.064ZM7.91812 175.064H2.70415V-6.83068H7.91812V175.064ZM50.3497 175.064H45.1357V-6.83068H50.3497V175.064ZM38.2243 175.064H33.0103V-6.83068H38.2243V175.064ZM56.41 175.064H51.196V-6.83068H56.41V175.064ZM44.2846 175.064H39.0706V-6.83068H44.2846V175.064ZM1.85786 175.064H-10.2092V-6.83068H1.85786V175.064ZM226.122 175.064H220.908V-6.83068H226.122V175.064ZM232.182 175.064H226.968V-6.83068H232.182V175.064ZM139.148 48.9981C139.148 52.8515 139.415 56.5422 139.892 59.2659C140.266 61.4104 140.748 62.8034 141.263 63.3012V175.064H136.049V-6.83068H141.263V34.6951C140.748 35.1929 140.266 36.5859 139.892 38.7304C139.415 41.4541 139.148 45.1447 139.148 48.9981ZM214.001 175.064H208.787V-6.83068H214.001V175.064ZM220.061 175.064H214.847V-6.83068H220.061V175.064ZM256.428 175.064H251.214V-6.83068H256.428V175.064ZM244.302 175.064H239.088V-6.83068H244.302V175.064ZM262.488 175.064H257.274V-6.83068H262.488V175.064ZM275.401 175.064H263.334V-6.83068H275.401V175.064ZM207.936 175.064H202.722V-6.83068H207.936V175.064ZM250.368 175.064H245.154V-6.83068H250.368V175.064ZM238.242 175.064H233.028V-6.83068H238.242V175.064ZM163.394 103.448C163.394 110.188 163.661 116.65 164.138 121.418C164.512 125.171 164.994 127.603 165.509 128.479V175.064H160.295V-6.83068H165.509V37.8927C164.994 38.3379 164.512 39.5729 164.138 41.478C163.661 43.9002 163.394 47.1791 163.394 50.6065C163.394 54.0339 163.661 57.3129 164.138 59.735C164.512 61.6402 164.994 62.8752 165.509 63.3204V78.418C164.994 79.294 164.512 81.7257 164.138 85.4786C163.661 90.2463 163.394 96.7085 163.394 103.448ZM157.328 105.871C157.328 113.252 157.596 120.332 158.073 125.549C158.447 129.661 158.929 132.346 159.444 133.304V175.064H154.23V-6.83068H159.444V34.6951C158.929 35.1929 158.447 36.5859 158.073 38.7304C157.596 41.4541 157.328 45.1447 157.328 48.9981C157.328 52.8515 157.596 56.5422 158.073 59.2659C158.447 61.4104 158.929 62.8034 159.444 63.3012V78.4372C158.929 79.3945 158.447 82.08 158.073 86.1918C157.596 91.4095 157.328 98.4892 157.328 105.871ZM151.268 105.871C151.268 113.252 151.536 120.332 152.012 125.549C152.387 129.661 152.868 132.346 153.384 133.304V175.064H148.17V-6.83068H153.384V34.6951C152.868 35.1929 152.387 36.5859 152.012 38.7304C151.536 41.4541 151.268 45.1447 151.268 48.9981C151.268 52.8515 151.536 56.5422 152.012 59.2659C152.387 61.4104 152.868 62.8034 153.384 63.3012V78.4372C152.868 79.3945 152.387 82.08 152.012 86.1918C151.536 91.4095 151.268 98.4892 151.268 105.871ZM145.208 105.871C145.208 113.252 145.475 120.332 145.952 125.549C146.331 129.661 146.813 132.346 147.328 133.304V175.064H142.115V-6.83068H147.328V34.6951C146.808 35.1929 146.327 36.5859 145.952 38.7304C145.475 41.4541 145.208 45.1447 145.208 48.9981C145.208 52.8515 145.475 56.5422 145.952 59.2659C146.331 61.4104 146.813 62.8034 147.328 63.3012V78.4372C146.808 79.3945 146.327 82.08 145.952 86.1918C145.475 91.4095 145.208 98.4892 145.208 105.871ZM201.876 175.064H196.662V-6.83068H201.876V175.064ZM170.3 103.448C170.3 109.757 170.48 115.813 170.796 120.274C171.01 123.304 171.278 125.406 171.57 126.459V175.064H166.356V-6.83068H171.57V39.7021C171.278 40.2191 171.01 41.2531 170.796 42.7418C170.48 44.9341 170.3 47.9115 170.3 51.0134C170.3 54.1153 170.48 57.0927 170.796 59.285C171.01 60.7738 171.278 61.8077 171.57 62.3247V80.4381C171.278 81.496 171.01 83.5974 170.796 86.6226C170.48 91.084 170.3 97.1393 170.3 103.448ZM189.755 175.064H184.541V-6.83068H189.755V175.064ZM195.815 175.064H190.601V-6.83068H195.815V175.064ZM183.695 175.064H178.481V-6.83068H183.695V175.064ZM177.63 175.064H172.416V-6.83068H177.63V175.064Z" fill="url(#paint3_linear_53508_104465)" fill-opacity="0.8"/>
</g>
</g>
</g>
<path fill-rule="evenodd" clip-rule="evenodd" d="M210.791 28.4851H206.148L202.666 14.7874C202.5 14.1573 202.15 13.6003 201.633 13.3377C200.345 12.6779 198.926 12.1529 197.377 11.888V11.3607H204.857C205.89 11.3607 206.664 12.1529 206.793 13.0729L208.6 22.9535L213.241 11.3607H217.755L210.791 28.4851ZM220.335 28.4851H215.95L219.561 11.3607H223.946L220.335 28.4851ZM229.621 16.1031C229.75 15.1808 230.525 14.6534 231.428 14.6534C232.847 14.521 234.394 14.7858 235.684 15.4433L236.458 11.7564C235.168 11.229 233.748 10.9642 232.46 10.9642C228.204 10.9642 225.107 13.3362 225.107 16.6282C225.107 19.1326 227.301 20.4476 228.849 21.2397C230.525 22.0296 231.17 22.557 231.041 23.3469C231.041 24.5318 229.75 25.0591 228.462 25.0591C226.913 25.0591 225.365 24.6642 223.948 24.0044L223.173 27.6937C224.722 28.3511 226.397 28.616 227.946 28.616C232.718 28.7461 235.684 26.3764 235.684 22.8195C235.684 18.3404 229.621 18.0779 229.621 16.1031ZM251.032 28.4851L247.55 11.3607H243.81C243.036 11.3607 242.262 11.888 242.003 12.6779L235.556 28.4851H240.07L240.971 25.983H246.518L247.034 28.4851H251.032ZM244.454 15.9707L245.742 22.4246H242.131L244.454 15.9707Z" fill="white"/>
<defs>
<linearGradient id="paint0_linear_53508_104465" x1="280.386" y1="20.9879" x2="-28.3846" y2="162.737" gradientUnits="userSpaceOnUse">
<stop stop-color="white"/>
<stop offset="1" stop-color="white" stop-opacity="0"/>
</linearGradient>
<linearGradient id="paint1_linear_53508_104465" x1="-6.86285" y1="56.3319" x2="257.383" y2="78.1782" gradientUnits="userSpaceOnUse">
<stop offset="0.00287194" stop-color="#D9D9D9" stop-opacity="0"/>
<stop offset="0.350332" stop-color="#D9D9D9"/>
<stop offset="0.534777" stop-color="#737373"/>
<stop offset="1" stop-color="#737373" stop-opacity="0"/>
</linearGradient>
<linearGradient id="paint2_linear_53508_104465" x1="132.455" y1="-7.81189" x2="132.455" y2="175.811" gradientUnits="userSpaceOnUse">
<stop stop-color="white" stop-opacity="0"/>
<stop offset="0.375" stop-color="#A1ECFE"/>
<stop offset="0.706731" stop-color="#5B9CFD"/>
<stop offset="1" stop-color="white" stop-opacity="0"/>
</linearGradient>
<linearGradient id="paint3_linear_53508_104465" x1="132.455" y1="-7.81189" x2="249.604" y2="228.193" gradientUnits="userSpaceOnUse">
<stop stop-opacity="0"/>
<stop offset="1"/>
</linearGradient>
<clipPath id="clip0_53508_104465">
<rect width="256.983" height="168" fill="white" transform="translate(3.96289)"/>
</clipPath>
</defs>
</svg>
