<svg width="22" height="22" viewBox="0 0 22 22" fill="none" xmlns="http://www.w3.org/2000/svg">
<g clip-path="url(#clip0_8163_5327)">
<rect width="22" height="22" rx="11" fill="white"/>
<path d="M0 11C0 4.92487 4.92487 0 11 0C17.0751 0 22 4.92487 22 11C22 17.0751 17.0751 22 11 22C4.92487 22 0 17.0751 0 11Z" fill="#1E1E1E" fill-opacity="0.1"/>
<path d="M6.49826 9.62333C6.03867 9.17923 5.71696 8.60891 5.71696 7.9264V7.85628C5.75373 6.69694 6.69129 5.76199 7.83107 5.72926H15.0926C15.281 5.73861 15.4327 5.87418 15.4327 6.07052V12.3207C15.5981 12.3487 15.6808 12.3721 15.8417 12.4329C15.9704 12.4796 16.145 12.5825 16.145 12.5825V6.07052C16.1358 5.47682 15.6717 5 15.088 5H7.82647C6.25927 5.02337 5 6.32763 5 7.9264C5 8.85667 5.41823 9.65138 6.09842 10.2077C6.14438 10.2451 6.19034 10.2965 6.30983 10.2965C6.52124 10.2965 6.6729 10.1235 6.66371 9.93654C6.66371 9.7776 6.59477 9.7215 6.49826 9.62333Z" fill="#919191"/>
<path d="M14.9044 12.732H9.21012C8.82867 12.7366 8.52074 13.0498 8.52074 13.4378V14.27C8.52993 14.6533 8.85165 14.9805 9.2377 14.9805H9.66052V14.27H9.2331V13.4565C9.2331 13.4565 9.33881 13.4565 9.4629 13.4565C10.1845 13.4565 10.713 14.1344 10.713 14.8637C10.713 15.5088 10.1339 16.3315 9.16876 16.2661C8.31393 16.21 7.84974 15.434 7.84974 14.8637V7.80477C7.84974 7.48688 7.59237 7.2251 7.27985 7.2251H6.70996V7.94968H7.13278V14.8683C7.1098 16.2754 8.1163 16.9813 9.16876 16.9813L14.909 17C16.0626 17 17.0002 16.0464 17.0002 14.8683C17.0048 13.6903 16.0626 12.732 14.9044 12.732ZM16.2878 14.9151C16.2648 15.6677 15.6536 16.2754 14.9044 16.2754L10.9152 16.2614C11.2323 15.8874 11.4253 15.4012 11.4253 14.8683C11.4253 14.0362 10.9382 13.4612 10.9382 13.4612H14.909C15.6719 13.4612 16.2924 14.0923 16.2924 14.8683L16.2878 14.9151Z" fill="#919191"/>
<path d="M13.369 8.0805H9.07642V7.3562H13.369C13.562 7.3562 13.7229 7.51508 13.7229 7.71601C13.7275 7.91694 13.5712 8.0805 13.369 8.0805Z" fill="#919191"/>
<path d="M13.369 11.4789H9.07642V10.7593H13.369C13.562 10.7593 13.7229 10.9182 13.7229 11.1191C13.7275 11.3153 13.5712 11.4789 13.369 11.4789Z" fill="#919191"/>
<path d="M14.1273 9.77703H9.07642V9.05273H14.1227C14.3157 9.05273 14.4766 9.21161 14.4766 9.41254C14.4858 9.61348 14.3249 9.77703 14.1273 9.77703Z" fill="#919191"/>
</g>
<defs>
<clipPath id="clip0_8163_5327">
<rect width="22" height="22" rx="11" fill="white"/>
</clipPath>
</defs>
</svg>
